<?xml version="1.0" encoding="UTF-8" standalone="no"?>
<svg
   xmlns:dc="http://purl.org/dc/elements/1.1/"
   xmlns:cc="http://creativecommons.org/ns#"
   xmlns:rdf="http://www.w3.org/1999/02/22-rdf-syntax-ns#"
   xmlns:svg="http://www.w3.org/2000/svg"
   xmlns="http://www.w3.org/2000/svg"
   xmlns:sodipodi="http://sodipodi.sourceforge.net/DTD/sodipodi-0.dtd"
   xmlns:inkscape="http://www.inkscape.org/namespaces/inkscape"
   width="144.83183mm"
   height="103.19435mm"
   viewBox="0 0 144.83183 103.19435"
   version="1.1"
   id="svg224"
   sodipodi:docname="baroko-zahony.svg"
   inkscape:version="0.92.4 (5da689c313, 2019-01-14)">
  <metadata
     id="metadata230">
    <rdf:RDF>
      <cc:Work
         rdf:about="">
        <dc:format>image/svg+xml</dc:format>
        <dc:type
           rdf:resource="http://purl.org/dc/dcmitype/StillImage" />
      </cc:Work>
    </rdf:RDF>
  </metadata>
  <defs
     id="defs228" />
  <sodipodi:namedview
     pagecolor="#ffffff"
     bordercolor="#666666"
     borderopacity="1"
     objecttolerance="10"
     gridtolerance="10"
     guidetolerance="10"
     inkscape:pageopacity="0"
     inkscape:pageshadow="2"
     inkscape:window-width="1440"
     inkscape:window-height="847"
     id="namedview226"
     showgrid="false"
     inkscape:zoom="0.2102413"
     inkscape:cx="284.82753"
     inkscape:cy="-55.176817"
     inkscape:window-x="-8"
     inkscape:window-y="166"
     inkscape:window-maximized="1"
     inkscape:current-layer="svg224" />
  <path
     d="m 0.20061829,65.44322 c 10.41999971,1.83 33.71999971,8.98 40.32999971,11.04 11,3.44 28.99,8.14 28.84,8.2 -0.08,0.04 -0.59,0.87 -1.42,2.09 a 13.52,13.52 0 0 0 -1.45,3.55 c -0.05,0.18 -24.75,-0.65 -24.75,-0.65 l -0.1,-2.07 -3.32,0.26 0.15,1.76 c 0,0 -3.97,-0.32 -7.93,0.88 -3.95,1.2 -6.7,3.01 -6.7,3.01 l -6.72,-6.96 -3.86,2.93 -8.2299997,-8.23 -4.97000001,4.5 m 0.09,8.76 5.24000001,3.22 -3.07,5.4 m 87.2899997,-0.1 5.87,-22.53 -3.4,-0.88 1.2,-3.55 -78.3,-22.13 5.81,-21.65 -14.8399997,-3.74 -5.90000001,21.44 M 11.420618,4.5932196 6.4306183,25.89322 l 15.0499997,3.14 5.42,-20.5100004 z m -11.00999971,-2.9 c 0,0 12.29999971,2.25 15.90999971,3.15 3.62,0.9 10.07,2.32 12.39,2.77 2.32,0.46 9.48,1.62 11.74,2 l 52.38,9.1700004 m 3.87,62.11 2.45,0.71 -0.45,1.68 11.290002,2.13 0.19,-1.07 1.6,0.31 c 0,0 -0.44,1.4 0.79,1.78 1.22,0.39 1.68,-1.1 1.7,-1.12 0.03,-0.02 1.43,0.32 1.42,0.34 l -0.29,1.05 2.68,0.48 8.03,1.94 m -27.050002,-7.21 8.650002,1.62 m 18.75,4.22 -8.09,-1.95"
     style="fill:none;stroke:#140533;stroke-width:0.12077133;stroke-linecap:round;stroke-linejoin:round;stroke-miterlimit:22.9255867;stroke-opacity:1"
     id="path2"
     inkscape:connector-curvature="0" />
  <path
     d="m 144.77062,85.99322 -11.74,-2.97 -7.61,-10.77 -3.62,-0.58 5.8,-34.58 3.5,0.4 5.22,-13.3 -13.34,-1.7 -0.98,3.06 -29.130002,-6.73 3.6,-10.0800004 m 0.77,1.21 -0.8,2.3600004 c 0,0 3.06,0.51 4.570002,2.9 1.52,2.39 1.46,4.74 1.46,4.74 l 18.62,4.37 1.03,-3.38 15.84,2.32 -6.13,15.6 -3.37,-0.4 -5.3,32.32 2.8,0.52 7.54,10.71 11.27,3.03 m -48.650002,-71.43 -1.36,4.5 6.390002,1.37 c 0,0 -0.32,-2.2 -1.160002,-3.3 a 6.5,6.5 0 0 0 -1.99,-1.99 c -0.83,-0.52 -1.88,-0.58 -1.88,-0.58 z m 0,0"
     style="fill:none;stroke:#140533;stroke-width:0.12075703;stroke-linecap:round;stroke-linejoin:round;stroke-miterlimit:22.9255867;stroke-opacity:1"
     id="path4"
     inkscape:connector-curvature="0" />
  <path
     d="m 69.360618,84.69322 c 0,0 3.77,-4.6 9.41,-4.73 5.64,-0.13 8.5,4.64 9.03,6.9 0.53,2.26 -0.45,9.13 -4.88,12.22 a 11.29,11.29 0 0 1 -15.05,-1.48 c -1.34,-1.54 -1.66,-3.2 -1.59,-5.7 0.06,-2.2 1.34,-5.06 3.09,-7.21 z m 0,0"
     style="fill:none;stroke:#140533;stroke-width:0.12062112;stroke-linecap:round;stroke-linejoin:round;stroke-miterlimit:22.9255867;stroke-opacity:1"
     id="path6"
     inkscape:connector-curvature="0" />
  <path
     d="m 0.45061829,72.71322 c 0,0 1.89000001,3.34 5.55000001,2.2 3.67,-1.16 4.3999997,-3.67 4.7099997,-4.5 0.32,-0.85 0.67,-2.4 0.67,-2.4 l 1.72,0.46 c 0,0 -1.55,6.33 -4.6899997,7.58 -3.14,1.26 -4.76,1.31 -6.23,0.74 -1.46000001,-0.58 -1.73000001,-1.05 -1.73000001,-1.05"
     style="fill:none;stroke:#140533;stroke-width:0.12075703;stroke-linecap:round;stroke-linejoin:round;stroke-miterlimit:22.9255867;stroke-opacity:1"
     id="path8"
     inkscape:connector-curvature="0" />
  <path
     d="m 128.00062,21.75322 0.25,1.38 m 2.67,14.3 0.25,1.31 m 8.4,44.87 0.2,1.08 m -11.17,-62.85 0.25,1.36 m 2.51,13.43 0.41,2.19 m 8.41,44.95 0.2,1.07 m -11.17,-62.91 0.26,1.35 m 2.3,12.32 0.41,2.22 m 8.63,46.12 0.2,1.06 m -11.23,-62.98 0.25,1.33 m 2.11,11.3 0.42,2.22 m 8.83,47.22 0.2,1.06 m -11.19,-63.04 0.24,1.32 m 1.9,10.19 0.42,2.21 m 9.06,48.43 0.2,1.05 m -11.22,-63.12 0.24,1.32 m 1.7,9.1 0.42,2.21 m 9.28,49.61 0.2,1.03 m -11.23,-63.17 0.25,1.3 m 1.5,7.99 0.4,2.21 m 9.5,50.8 0.2,1.03 m -11.2,-63.23 0.24,1.28 m 1.28,6.82 0.41,2.2 m 9.74,52.09 0.2,1.01 m -11.25,-63.32 0.24,1.27 m 1.07,5.72 0.4,2.2 m 9.98,53.29 0.16,0.86 m -11.24,-63.25 0.23,1.26 m 0.87,4.62 0.41,2.2 m -0.9,-7.99 0.24,1.25 m 0.65,3.5 0.41,2.21 m -0.7,-6.87 0.24,1.24 m 0.45,2.42 0.41,2.2 m -0.48,-5.77 0.23,1.22 m 0.24,1.31 0.42,2.2 m -0.32,-4.65 0.22,1.22 m 0.06,0.28 0.41,2.2 m -0.08,-3.61 0.49,2.58 m 0.12,-2.49 0.27,1.48 m 0.34,-1.38 0.07,0.35 m -44.880002,-4.98 0.05,0.24 m 0.32,-1.22 0.25,1.36 m 0.15,-2.43 0.48,2.57 m -0.1,-3.62 0.7,3.76 m -0.3,-4.83 0.53,2.79 m 0.18,0.99 0.22,1.2 m -0.5,-6.1 0.49,2.62 m 0.45,2.41 0.23,1.22 m -0.77,-7.33 0.46,2.47 m 0.7,3.78 0.23,1.22 m -1,-8.52 0.45,2.43 m 0.94,5 0.23,1.24 m -1.22,-9.74 0.37,2.01 m 0.04,0.2 0.26,1.39 m 0.94,5.03 0.24,1.25 m -1.47,-10.9200004 0.37,1.9500004 m 0.28,1.46 0.26,1.41 m 0.93,4.98 0.24,1.26 m -0.79,-7.43 0.28,1.53 m 0.9,4.77 0.23,1.28 m -0.81,-7.32 0.32,1.73 m 0.83,4.44 0.24,1.28 m -0.73,-7.08 0.4,2.16 m 0.710002,3.77 0.25,1.3 m -0.680002,-6.76 0.510002,2.76 m 0.53,2.83 0.25,1.3 m -0.57,-6.22 1.2,6.37 m -0.34,-5.13 0.99,5.28 m 0.41,-0.99 0.21,1.14 m 0.41,-0.99 0.2,1.13 m 0.42,-0.99 0.21,1.13 m 0.41,-0.99 0.21,1.13 m 0.42,-0.97 0.2,1.12 m 0.4,-0.98 0.22,1.12 m 0.41,-0.97 0.21,1.11 m 0.37,-0.98 0.21,1.12 m 0.42,-0.97 0.2,1.11 m 0.41,-0.97 0.2,1.11 m 0.43,-0.96 0.2,1.1 m 0.47,-0.94 0.2,1.1 m 0.43,-0.96 0.2,1.1 m 0.41,-0.95 0.2,1.1 m 0.43,-0.96 0.2,1.1 m 0.41,-0.95 0.21,1.1 m 0.42,-0.96 0.2,1.1 m 8.98,47.99 0.05,0.26 m -8.62,-49.2 0.2,1.1 m 8.65,46.19 0.37,2 m -8.59,-49.14 0.2,1.09 m 8.3,44.36 0.71,3.8 m -8.63,-49.12 0.2,1.1 m 7.98,42.67 0.64,3.38 m 0.17,0.92 0.2,1.13 m -8.57,-49.05 0.2,1.09 m 7.65,40.84 0.63,3.37 m 0.5,2.74 0.22,1.11 m -8.58,-49.01 0.2,1.09 m 7.3,39.05 0.63,3.35 m 0.84,4.52 0.21,1.1 m -8.56,-48.96 0.2,1.08 m 6.97,37.22 0.62,3.33 m 1.18,6.34 0.24,1.27 m -8.52,-49.08 0.2,1.08 m 6.59,35.2 0.62,3.31 m 1.57,8.41 0.44,2.35 m -8.79,-50.2 0.2,1.08 m 6.24,33.36 0.62,3.3 m 2.1,11.27 0.45,2.35 m -9,-51.22 0.2,1.08 m 5.9,31.57 0.62,3.28 m 2.63,14.08 0.44,2.33 m -9.16,-52.19 0.2,1.07 m 5.56,29.74 0.61,3.26 m 3.17,16.95 0.44,2.33 m -9.36,-53.21 0.2,1.07 m 5.22,27.94 0.6,3.24 m 3.7,19.77 0.44,2.32 m -9.54,-54.19 0.2,1.07 m 4.89,26.1 0.6,3.22 m 4.23,22.64 0.43,2.32 m -9.74,-55.21 0.2,1.07 m 4.55,24.31 0.6,3.2 m 4.76,25.44 0.43,2.31 m -10.03,-56.81 0.32,1.7 m 4.2,22.48 0.6,3.18 m 5.3,28.3 0.43,2.3 m -10.51,-59.08 0.5,2.6 m 3.95,21.14 0.59,3.17 m 5.79,30.94 0.43,2.3 m -10.88,-61.37 0.5,2.65 m 3.85,20.63 0.59,3.14 m 6.32,33.81 0.28,1.5 m -11.04,-62.16 0.36,1.93 m 3.77,20.13 0.58,3.12 m 6.73,35.96 0.22,1.18 m -11.04,-62.23 0.27,1.47 m 3.52,18.8 0.58,3.12 m 7.08,37.83 0.22,1.17 m -11.01,-62.29 0.27,1.46 m 3.16,16.9 0.58,3.09 m 7.46,39.85 0.21,1.16 m -11.06,-62.37 0.27,1.44 m 2.83,15.14 0.57,3.07 m 7.8,41.73 0.22,1.15 m -11.09,-62.44 0.27,1.43 m 2.68,14.34 0.4,2.12 m 8.14,43.56 0.22,1.14 m -11.09,-62.51 0.26,1.43 m 2.68,14.33 0.24,1.3 m 8.32,44.48 0.21,1.13 m -11.11,-62.57 0.27,1.4 m 2.67,14.33 0.25,1.3 m 8.34,44.58 0.2,1.12 m -11.11,-62.64 0.26,1.4 m 2.68,14.3 0.24,1.32 m 8.36,44.67 0.2,1.1 m -11.14,-62.71 0.26,1.39 m 2.67,14.3 0.25,1.32 m 8.37,44.77 0.2,1.09 m -70.460002,1.47 2.66,14.24 m -2.22,-15.04 2.86,15.32 m -2.41,-16.09 3.05,16.32 m -2.58,-16.78 3.17,16.96 m -2.66,-17.42 3.29,17.57 m -2.78,-17.99 3.38,18.1 m -2.86,-18.5 3.48,18.58 m -2.92,-18.97 3.56,19.01 m -3.03,-19.36 3.63,19.37 m -3.09,-19.68 3.66,19.65 m -3.12,-19.95 3.72,19.9 m -3.18,-20.16 3.75,20.09 m -3.2,-20.34 3.78,20.22 m -3.27,-20.42 3.8,20.29 m -3.23,-20.48 3.8,20.3 m -3.25,-20.46 3.8,20.27 m -3.23,-20.41 3.78,20.17 m -3.17,-20.28 3.74,20 m -3.15,-20.07 3.7,19.78 m -3.13,-19.82 3.65,19.5 m -3.05,-19.51 3.58,19.14 m -2.98,-19.11 3.5,18.72 m -2.89,-18.64 3.4,18.18 m -2.79,-18.05 3.28,17.53 m -2.64,-17.35 3.13,16.76 m -2.54,-16.54 2.98,15.93 m -2.33,-15.61 2.78,14.86 m -2.12,-14.47 2.55,13.65 m -1.85,-13.15 2.27,12.18 m -1.5,-11.47 1.93,10.27 m -1.17,-9.41 1.52,8.08 m -0.71,-6.89 0.99,5.26 m -21.5,2.49 0.7,3.76 m -0.51,-5.82 1.38,7.38 m -0.97,-8.43 1.73,9.26 m -1.3,-10.09 2,10.69 m -1.55,-11.48 2.24,11.97 m -1.79,-12.72 2.45,13.11 m -70.25999971,-25.99 0.4,2.15 m 0.09,-2.73 0.58000001,3.12 m 0.13,-2.41 0.5,2.7 m 0.19,-2.23 0.46,2.43 m 0.15,-2.14 0.42,2.25 m 0.21,-2.06 0.4,2.1 m 0.2,-2 0.38,1.98 m 0.22,-1.98 0.36,1.9 m 0.26,-1.98 0.35,1.87 m 0.22,-2.01 0.35,1.86 m 0.2,-2.05 0.35,1.89 m 0.2,-2.12 0.37,1.92 m 0.17,-2.2 0.38,2 m 0.16,-2.33 0.4,2.1 m 0.12,-2.48 0.4,2.2 m 0.11,-2.67 0.42,2.26 m 0.03,-2.78 0.4299997,2.31 m 0.04,-3.02 0.45,2.42 m -0.03,-3.3 0.49,2.62 m -0.11,-3.73 0.56,2.93 m -0.17,-4.35 0.63,3.38 m -0.07,-3.61 0.48,2.6 m 0.14,-2.38 0.24,1.28 m 114.160002,-21.51 -1.16,0.21 m -112.840002,20.77 -1.86,0.34 m 115.720002,-20.47 -1.16,0.21 m -112.970002,20.78 -1.87,0.35 m 115.850002,-20.47 -1.16,0.22 m -113.140002,20.81 -1.9,0.35 m -9.69999971,1.79 -0.23,0.04 m 126.00000171,-22.4 -1.16,0.21 m -113.360002,20.85 -2.0199997,0.38 m -8.66,1.59 -0.80000001,0.15 m 125.85000171,-22.31 -1.16,0.21 m -113.640002,20.91 -2.3999997,0.44 m -7,1.29 -1.64000001,0.3 m 125.71000171,-22.3 -1.17,0.22 m -114.030002,20.97 -3.3499997,0.62 m -4.23,0.78 -2.94000001,0.54 m 125.57000171,-22.26 -1.17,0.22 m -114.570002,21.08 -9.1999997,1.69 m 124.7900017,-22.06 -1.17,0.21 m -115.6000017,21.27 -6.6,1.21 m 123.2300017,-21.82 -1.18,0.22 m 1.04,0.64 -1.18,0.22 m 1.04,0.65 -1.2,0.22 m 1.05,0.64 -1.19,0.21 m 1.05,0.66 -1.2,0.22 m 1.07,0.58 -1.2,0.22 m 1.06,0.65 -1.2,0.23 m 1.06,0.63 -1.2,0.22 m 1.05,0.65 -1.2,0.22 m 1.05,0.69 -1.2,0.23 m 1.06,0.64 -1.21,0.23 m 1.07,0.63 -1.22,0.22 m 1.08,0.65 -1.22,0.23 m 1.08,0.63 -1.23,0.23 m 1.09,0.65 -1.24,0.22 m 1.09,0.63 -1.23,0.22 m 1.09,0.65 -1.23,0.23 m 1.1,0.57 -1.24,0.23 m 1.1,0.64 -1.25,0.23 m 2.94,0.29 -3.08,0.57 m 4.44,0.03 -2,0.36 m -43.560002,8.02 -6.76,1.24 m 52.880002,-8.82 -1.07,0.2 m -43.150002,7.94 -10.8,1.99 m 55.560002,-9.38 -1.08,0.2 m -42.510002,7.82 -13.36,2.46 m 57.460002,-9.74 -1.07,0.2 m -42.140002,7.74 -15.23,2.8 m 58.970002,-9.99 -1.07,0.2 m -41.910002,7.7 -16.48,3.03 m 59.980002,-10.19 -1.07,0.2 m -41.810002,7.68 -17.63,3.24 m 61.030002,-10.38 -1.06,0.2 m -41.800002,7.69 -18.72,3.44 m 62.100002,-10.59 -1.07,0.2 m -41.870002,7.7 -19.7,3.62 m 63.170002,-10.77 -1.07,0.2 m -42.020002,7.72 -20.54,3.78 m 64.110002,-11.01 -1.06,0.2 m -42.230002,7.76 -21.13,3.89 m 64.950002,-11.11 -1.06,0.2 m -42.570002,7.83 -21.5,3.95 m 65.650002,-11.24 -1.06,0.2 m -43.020002,7.9 -21.6,3.98 m 66.200002,-11.33 -1.05,0.2 m -43.560002,8 -21.56,3.97 m 66.750002,-11.35 -1.05,0.2 m -44.220002,8.13 -21.4,3.94 m 67.530002,-11.58 -1.38,0.26 m -44.870002,8.25 -21.14,3.89 m 69.230002,-11.9 -2.5,0.45 m -45.770002,8.42 -20.76,3.82 m 70.890002,-12.19 -2.43,0.44 m -47.920002,8.82 -20.26,3.73 m 72.460002,-12.5 -2.37,0.44 m -50.100002,9.21 -19.62,3.61 m 73.960002,-12.75 -2.3,0.42 m -52.390002,9.63 -18.78,3.46 m 75.300002,-13.03 -2.24,0.41 m -54.680002,10.06 -17.74,3.27 m 76.220002,-13.18 -1.86,0.34 m -57.130002,10.51 -16.43,3.03 m 75.420002,-13.1 -0.07,0.01 m -59.500002,10.95 -14.97,2.75 m 14.14,-1.75 -12.97,2.38 m 11.83,-1.35 -10.38,1.91 m 8.42,-0.7 -6.25,1.15 m 21.85,-92.1700004 -0.41,0.08 m 0.76,0.7 -1.1,0.2000004 m 0.83,0.69 -1.17,0.21 m 0.86,0.69 -1.2,0.22 m 1.61,0.53 -1.94,0.36 m 3.41,0.22 -3.75,0.69 m 4.73,-0.09 -1.9,0.34 m -1.69,0.32 -1.45,0.26 m 5.850002,-0.22 -1.670002,0.3 m -3,0.55 -1.52,0.28 m 6.780002,-0.42 -1.570002,0.3 m -3.95,0.72 -1.6,0.29 m 7.580002,-0.55 -1.450002,0.27 m -4.8,0.88 -1.66,0.31 m 8.300002,-0.64 -1.35,0.25 m -5.580002,1.02 -1.73,0.32 m 8.950002,-0.8 -1.33,0.25 m -4.330002,0.8 -2.83,0.51 m 8.700002,-0.77 -1.32,0.24 m -2.470002,0.46 -2.91,0.53 m 6.850002,-0.41 -1.3,0.24 m -0.51,0.1 -3.000002,0.54 m 4.870002,-0.06 -2.860002,0.53 m 4.640002,-0.01 -2.6,0.48 m 4.58,-0.01 -2.59,0.47 m 4.61,0 -2.57,0.47 m 4.43,-0.04 -2.55,0.47 m 4.57,0.01 -2.53,0.47 m 13.35,-1.63 -0.9,0.16 m -7.94,1.46 -2.52,0.47 m 13.92,-1.71 -3.74,0.68 m -5.64,1.04 -2.5,0.46 m 14.64,-1.78 -4.3,0.79 m -1.09,0.2 -1.4,0.26 m -3.17,0.58 -2.48,0.45 m 15,-1.91 -4.14,0.76 m -4.1,0.76 -1.39,0.25 m -0.87,0.16 -2.46,0.46 m 15.46,-2.02 -3.98,0.73 m -7.04,1.3 -2.45,0.45 m 16.03,-2.11 -3.82,0.7 m -10.05,1.86 -0.12,0.02 m 16.01,-2.11 -3.15,0.58 m 2.79,0.34 -1.38,0.24 m 1.03,0.64 -1.38,0.25 m 1.02,0.67 -1.38,0.25 m 1.05,0.58 -1.38,0.26 m 1.02,0.65 -1.38,0.26 m 1.04,0.64 -1.39,0.25 m 1.03,0.66 -1.39,0.25 m 0.99,0.76 -1.38,0.25 m 1.02,0.66 -1.38,0.25 m 1.03,0.64 -1.38,0.25 m 1.02,0.66 -1.38,0.26 m 1.03,0.64 -1.38,0.26 m 1.02,0.65 -1.38,0.26 m 1.03,0.64 -1.38,0.25 m 1.02,0.66 -1.38,0.25 m -0.71,0.13 -3,0.56 m 4.76,-0.1 -3.44,0.63 m -0.34,0.06 -1.12,0.2 m 4.55,0.02 -0.32,0.06 m -3.25,0.6 -1.12,0.2 m 0.98,0.65 -1.13,0.2 m 0.98,0.67 -1.12,0.2 m 0.97,0.74 -1.13,0.2 m 0.99,0.67 -1.14,0.21 m 1,0.65 -1.14,0.2 m 0.99,0.67 -1.14,0.2 m 1.01,0.66 -1.15,0.21 m 1,0.67 -1.15,0.2 m 1,0.65 -1.14,0.2 m -113.460002,20.89 -1.17,0.21 m 113.390002,20.21 -1.03,1 m 1.96,-0.78 -0.72,0.7 m -25.500002,-6.28 -0.34,0.34 m 1.330002,-0.16 -0.800002,0.77 m 1.800002,-0.59 -1.16,1.13 m 2.08,-0.96 -1.43,1.4 m 2.44,-1.23 -1.67,1.64 m 2.65,-1.45 -1.86,1.82 m 2.86,-1.64 -1.98,1.93 m 3.09,-1.73 -2,1.95 m 3.01,-1.77 -1.91,1.87 m 2.89,-1.69 -1.78,1.74 m 2.78,-1.55 -1.66,1.62 m 3.52,-2.29 -2.46,2.4 m 3.04,-1.81 -2.04,2 m 2.27,-1.08 -1.35,1.32 m 2.12,-0.92 -1.23,1.21 m 3.33,-2.18 -2.53,2.47 m 3.33,-2.09 -2.46,2.4 m 2.69,-1.48 -1.84,1.79 m 2.84,-1.61 -1.95,1.9 m 3.03,-1.7 -2.02,1.98 m 2.98,-1.76 -2,1.96 m 2.94,-1.74 -1.93,1.9 m 2.88,-1.67 -1.81,1.78 m 2.75,-1.55 -1.66,1.63 m 2.62,-1.4 -1.48,1.45 m 2.41,-1.22 -1.27,1.25"
     style="fill:none;stroke:#140533;stroke-width:0.04597476;stroke-linecap:round;stroke-linejoin:round;stroke-miterlimit:22.9255867;stroke-opacity:1"
     id="path10"
     inkscape:connector-curvature="0" />
  <path
     d="m 99.360618,83.42322 0.31,-1.4 m 0.32,1.52 0.300002,-1.4 m 0.31,1.52 0.3,-1.4 m 0.34,1.51 0.3,-1.39 m 0.35,1.52 0.31,-1.4 m 0.37,1.52 0.31,-1.4 m 0.39,1.53 0.3,-1.4 m 0.42,1.57 0.3,-1.4 m 0.35,1.5 0.31,-1.4 m 0.35,1.52 0.3,-1.4 m 0.38,1.53 0.3,-1.4 m 0.4,1.52 0.3,-1.4"
     style="fill:none;stroke:#140533;stroke-width:0.07849485;stroke-linecap:round;stroke-linejoin:round;stroke-miterlimit:22.9255867;stroke-opacity:1"
     id="path12"
     inkscape:connector-curvature="0" />
  <path
     d="m 118.66062,87.32322 0.35,-1.38 m 0.25,1.53 0.37,-1.39 m 0.24,1.52 0.36,-1.38 m 0.28,1.53 0.36,-1.39 m 0.29,1.53 0.36,-1.38 m 0.32,1.54 0.35,-1.39 m 0.34,1.53 0.36,-1.38 m 0.35,1.58 0.35,-1.38 m 0.3,1.51 0.36,-1.39 m 0.29,1.54 0.36,-1.39 m 0.28,1.65 0.36,-1.38 m 0.3,1.5 0.36,-1.38"
     style="fill:none;stroke:#140533;stroke-width:0.07849471;stroke-linecap:round;stroke-linejoin:round;stroke-miterlimit:22.9255867;stroke-opacity:1"
     id="path14"
     inkscape:connector-curvature="0" />
  <path
     d="m 107.39062,84.90322 0.3,-1.4"
     style="fill:none;stroke:#140533;stroke-width:0.07849485;stroke-linecap:round;stroke-linejoin:round;stroke-miterlimit:22.9255867;stroke-opacity:1"
     id="path16"
     inkscape:connector-curvature="0" />
  <path
     d="m 118.03062,87.14322 0.37,-1.4"
     style="fill:none;stroke:#140533;stroke-width:0.07835726;stroke-linecap:round;stroke-linejoin:round;stroke-miterlimit:22.9255867;stroke-opacity:1"
     id="path18"
     inkscape:connector-curvature="0" />
  <path
     d="m 32.260618,12.52322 -5.2,18.14 1.3,0.26 -1.2,4.3 -1.25,-0.22 -4.45,15.6 31.82,9.48 3.77,-14.87 c 0,0 -5.13,-2.46 -4.4,-6.6 0.74,-4.13 3.1,-4.7 4.87,-4.97 a 6.2,6.2 0 0 1 2.57,0 l 3.4,-15.07 z m 0,0"
     style="fill:none;stroke:#140533;stroke-width:0.12075703;stroke-linecap:round;stroke-linejoin:round;stroke-miterlimit:22.9255867;stroke-opacity:1"
     id="path20"
     inkscape:connector-curvature="0" />
  <path
     d="m 26.600618,40.58322 0.83,-3.27 1.15,0.31 1.88,-7.95 -1.15,-0.32 1.78,-5.86"
     style="fill:none;stroke:#140533;stroke-width:0.12075703;stroke-linecap:round;stroke-linejoin:round;stroke-miterlimit:22.9255867;stroke-opacity:1"
     id="path22"
     inkscape:connector-curvature="0" />
  <path
     d="m 25.330618,41.09322 1.29,-4.67 0.1,-0.25 1.03,0.3 1.53,-5.86 0.1,-0.26 -1.27,-0.34 4.46,-15.2 m -1.78,19.1 c 2.27,0.49 4.04,1 5.16,2.37 1.08,1.32 1.6,2.84 0.57,3.78 -0.36,0.33 -1.44,-0.1 -1.62,-1.12 0,-0.02 0.6,1.76 -0.34,2.57 -0.6,0.52 -2.12,0.77 -3.27,-0.69 -1.1,-1.39 -0.87,-1.62 -0.87,-1.62 0,0 0.87,1.75 2.07,1.46 1.2,-0.28 0.94,-0.65 0.92,-1.12 -0.03,-0.47 -0.08,-0.58 0.28,-0.97 0.37,-0.4 -0.57,0.1 -1.04,-0.47 -0.47,-0.58 -0.63,-1.23 -0.63,-1.23 0,0 1.07,0.86 1.26,-0.24 a 1.9,1.9 0 0 0 -0.84,-1.96 c -0.08,-0.05 -1.4,-0.45 -1.54,-0.52 -0.52,-0.25 -0.11,-0.24 -0.11,-0.24 z m 0,0"
     style="fill:none;stroke:#140533;stroke-width:0.12075703;stroke-linecap:round;stroke-linejoin:round;stroke-miterlimit:22.9255867;stroke-opacity:1"
     id="path24"
     inkscape:connector-curvature="0" />
  <path
     d="m 37.080618,38.64322 c 0.98,3.98 -1.93,6.77 -5.2,5.5"
     style="fill:none;stroke:#140533;stroke-width:0.12075703;stroke-linecap:round;stroke-linejoin:round;stroke-miterlimit:22.9255867;stroke-opacity:1"
     id="path26"
     inkscape:connector-curvature="0" />
  <path
     d="m 30.580618,47.40322 c 0,0 1.75,-0.89 1.3,-3.27 -0.85,-4.39 -7,-5.11 -8.37,-0.55 -1.1,3.7 0.06,5.65 0.06,5.65 m -0.15,0.2 c 0,0 -0.64,-0.52 -0.94,-0.2 -0.3,0.3 0.21,1.24 0.79,1.56 0.57,0.33 0.74,-0.05 0.69,-0.2 m -1.71,-0.38 c -0.06,-0.03 -0.28,-0.1 -0.27,0.1 0,0.2 0.32,0.25 0.39,0.27"
     style="fill:none;stroke:#140533;stroke-width:0.12075703;stroke-linecap:round;stroke-linejoin:round;stroke-miterlimit:22.9255867;stroke-opacity:1"
     id="path28"
     inkscape:connector-curvature="0" />
  <path
     d="m 24.560618,48.39322 c 0,0 -0.13,-0.42 -0.6,-0.3 -0.5,0.12 -0.46,0.73 -0.4,1.14 m 1.1,-0.04 c 0,0 -0.57,-0.23 -0.54,0.33 0.02,0.48 1.11,1.5 1.46,0.81 m 0.35,-2.07 c 0,0 -0.6,-0.43 -0.84,0.14 -0.46,1.14 1.27,2.36 1.65,1.63"
     style="fill:none;stroke:#140533;stroke-width:0.12075703;stroke-linecap:round;stroke-linejoin:round;stroke-miterlimit:22.9255867;stroke-opacity:1"
     id="path30"
     inkscape:connector-curvature="0" />
  <path
     d="m 28.640618,49.95322 c -2.15,0.9 -3.19,-1.73 -2.04,-2.56 0.57,-0.42 1.57,-0.06 1.57,-0.06 0,0 -1.98,-1.28 -1.1,-2.48 1.81,-2.5 4.63,2.06 2.12,1.75 m -0.83,4.09 c 0,0 0.71,1.13 2.1,0.95 2.2,-0.3 2.05,-3.21 0.12,-4.24"
     style="fill:none;stroke:#140533;stroke-width:0.12075703;stroke-linecap:round;stroke-linejoin:round;stroke-miterlimit:22.9255867;stroke-opacity:1"
     id="path32"
     inkscape:connector-curvature="0" />
  <path
     d="m 30.140618,46.23322 c 1.78,-0.48 1.28,-3.7 -0.85,-4.69 -1.94,-0.89 -3.5,-0.38 -4.63,1.09 a 5.16,5.16 0 0 0 -1,3.67 c 0.05,0.68 0.33,1.15 0.33,1.15"
     style="fill:none;stroke:#140533;stroke-width:0.12075703;stroke-linecap:round;stroke-linejoin:round;stroke-miterlimit:22.9255867;stroke-opacity:1"
     id="path34"
     inkscape:connector-curvature="0" />
  <path
     d="m 26.420618,51.61322 c 0,0 1.65,1.08 4.55,1.1 2.9,0.03 5.9,-2.22 7.17,-4.32 a 9.92,9.92 0 0 0 1.52,-6.77 c -0.31,-2.62 -2.14,-5.19 -2.14,-5.19"
     style="fill:none;stroke:#140533;stroke-width:0.12075703;stroke-linecap:round;stroke-linejoin:round;stroke-miterlimit:22.9255867;stroke-opacity:1"
     id="path36"
     inkscape:connector-curvature="0" />
  <path
     d="m 26.260618,50.24322 a 4.75,4.75 0 0 0 2.88,1.16 m 1.69,0.16 c 0,0 2.92,-0.04 4.67,-1.77 1.76,-1.72 2.98,-3.45 3.17,-6.6 0.18,-3.13 -0.94,-4.91 -0.94,-4.91 m 0.43,11.21 c 0,0 -1.05,1.1 -1.16,2.14 -0.1,1.05 0.31,1.73 0.89,2.2 0.58,0.47 0.97,0.16 0.92,-0.24 -0.06,-0.39 -0.53,-0.41 -0.62,-1.27 -0.1,-0.86 0.08,-0.98 0.14,-0.8 0.06,0.19 0.08,1.35 0.55,1.54 0.47,0.19 0.42,-0.38 0.34,-0.67 -0.07,-0.29 0.23,0.72 1.29,1.75 a 6.5,6.5 0 0 0 2.95,1.36"
     style="fill:none;stroke:#140533;stroke-width:0.12075703;stroke-linecap:round;stroke-linejoin:round;stroke-miterlimit:22.9255867;stroke-opacity:1"
     id="path38"
     inkscape:connector-curvature="0" />
  <path
     d="m 39.340618,38.12322 c 0,0 1.62,2.5 1.3,5.91 -0.3,3.4 -0.91,3.65 -0.58,6.07 a 7.45,7.45 0 0 0 2.2,4.08"
     style="fill:none;stroke:#140533;stroke-width:0.12075703;stroke-linecap:round;stroke-linejoin:round;stroke-miterlimit:22.9255867;stroke-opacity:1"
     id="path40"
     inkscape:connector-curvature="0" />
  <path
     d="m 47.130618,47.22322 c 0.3,-0.96 4.12,-3.65 5.93,1.7 1.81,5.35 -3.7,9.33 -7.97,6.36 -5.57,-3.87 -3.1,-8.55 -3.45,-13.34 a 9.1,9.1 0 0 0 -0.79,-2.83"
     style="fill:none;stroke:#140533;stroke-width:0.12075703;stroke-linecap:round;stroke-linejoin:round;stroke-miterlimit:22.9255867;stroke-opacity:1"
     id="path42"
     inkscape:connector-curvature="0" />
  <path
     d="m 46.140618,49.00322 c 0,0 0.37,-1 -0.47,-1.46 -0.84,-0.47 -2.62,-0.24 -2.62,2.2 0,1.64 1.63,3.16 2.93,1.93 m -0.49,0.79 c 0,0 0,1.72 1.7,1.99 1.7,0.26 2.26,-0.92 2.04,-1.65 -0.4,-1.34 -1.41,-1.68 -1.41,-1.68 m 0.15,-0.73 c 0,0 0.13,0.86 1.1,1.15 0.97,0.29 2,-0.47 1.73,-1.62 -0.26,-1.15 -0.72,-1.73 -1.68,-2.15 -0.95,-0.42 -1.62,0.32 -1.62,0.32"
     style="fill:none;stroke:#140533;stroke-width:0.12075703;stroke-linecap:round;stroke-linejoin:round;stroke-miterlimit:22.9255867;stroke-opacity:1"
     id="path44"
     inkscape:connector-curvature="0" />
  <path
     d="m 47.590618,49.59322 c -0.51,0.28 -1.42,-0.12 -1.3,-0.75 0.11,-0.63 1.03,-0.84 1.3,-0.7 0.28,0.12 0.37,0.73 0.17,0.92 -0.2,0.18 -0.38,0.09 -0.38,0.09 m -5.4,-9.29 c 0,0 1.48,2.26 1.27,3.05 -0.21,0.78 -0.5,0.9 -0.26,1.32 0.24,0.42 0.78,0.35 0.84,1.03 0.07,0.72 -0.48,0.74 -1,1.5 -1.15,1.67 -0.8,4.04 -0.8,4.04 m 7.08,5.82 c 0,0 0.45,-0.56 0.14,-0.98 -0.32,-0.42 -1.43,-0.69 -1.75,-0.24 -0.33,0.44 -0.4,0.91 0.11,1.43 0.51,0.53 1.25,0.32 1.34,0.33 m 2.47,0.3 c 0.1,-0.26 0.12,-0.8 -0.36,-1.08 -0.49,-0.28 -0.99,0 -1,0.4 -0.01,0.4 0.25,0.84 0.56,0.94 0.32,0.1 0.62,-0.1 0.62,-0.1 m 2,-0.6 c 0,-0.05 -0.16,-0.54 -0.54,-0.4 -0.37,0.14 -0.45,0.4 -0.4,0.6 0.06,0.21 0.4,0.47 0.67,0.4 0.26,-0.06 0.26,-0.37 0.26,-0.37 m -19.82,-5 4,1.2 m 1.38,0.34 2.25,0.78 m 3.92,1.22 2.36,0.64"
     style="fill:none;stroke:#140533;stroke-width:0.12075703;stroke-linecap:round;stroke-linejoin:round;stroke-miterlimit:22.9255867;stroke-opacity:1"
     id="path46"
     inkscape:connector-curvature="0" />
  <path
     d="m 50.040618,57.06322 c -0.14,-0.07 -1.78,-0.52 -1.78,-0.52 m 3.16,0.92 c 0,0 1.64,0.4 1.74,0.45 0.09,0.05 0.26,-1.15 0.41,-1.89 0.16,-0.73 1.26,-5.92 1.42,-6.87 0.15,-0.94 0.91,-3.53 0.91,-3.53 0,0 -2.09,-1.07 -2.88,-2.1 a 18.73,18.73 0 0 1 -1.62,-2.82 l -0.78,-0.16 m -18.5,12.07 c 0,0 6.66,2.07 8.55,2.74 1.88,0.67 5.65,1.71 6.53,2.05 0.88,0.33 5.78,1.71 5.78,1.71 l 0.17,-0.7"
     style="fill:none;stroke:#140533;stroke-width:0.12075703;stroke-linecap:round;stroke-linejoin:round;stroke-miterlimit:22.9255867;stroke-opacity:1"
     id="path48"
     inkscape:connector-curvature="0" />
  <path
     d="m 52.670618,55.93322 c 0,0 1.72,-8.12 1.93,-8.83 0.21,-0.71 0.25,-1.13 0.25,-1.13 0,0 -1.67,-0.84 -2.72,-2.3 a 47.83,47.83 0 0 1 -1.6,-2.35 l -2.8,-0.67 m 0.48,-2.14 c -0.59,1.22 1.26,3.22 2.24,1.83 1.04,-1.48 0.14,-3.05 -1.96,-2.69 m 1.71,-0.26 c 0,0 1.3,0.08 1.2,-1.01 -0.1,-1.09 -0.9,-1.26 -1.26,-1.22 -0.36,0.05 -1.26,0.4 -1.23,1.1 a 0.9,0.9 0 0 0 0.62,0.85"
     style="fill:none;stroke:#140533;stroke-width:0.12075703;stroke-linecap:round;stroke-linejoin:round;stroke-miterlimit:22.9255867;stroke-opacity:1"
     id="path50"
     inkscape:connector-curvature="0" />
  <path
     d="m 46.760618,38.36322 c 0,0 0.48,0.83 0.91,0.72 0.43,-0.1 0.5,-0.34 0.55,-0.67 0.07,-0.34 -0.28,-0.87 -0.28,-0.87 m 0.69,1.59 c 0,0 0.5,0.4 0.79,0.19 0.3,-0.21 0.28,-0.7 0.11,-1.03 -0.16,-0.32 -0.96,-0.65 -0.96,-0.65 m -5.63,3.97 c 0,0 1.07,2.48 3.26,3.13 2.2,0.65 4.44,0.26 4.78,0.07 0.26,-0.15 0.39,-0.8 -0.27,-0.68 -1.4,0.26 -1.7,0.34 -2.93,-0.36 -0.6,-0.35 -1.1,-0.41 -1.62,-0.74 -0.52,-0.34 0.82,0.54 2.12,0.35 1.3,-0.19 0.98,-0.68 0.98,-0.68 -0.37,-0.64 -1.33,0.24 -2,-0.25 -0.68,-0.5 -0.74,-0.64 -0.74,-0.64"
     style="fill:none;stroke:#140533;stroke-width:0.12075703;stroke-linecap:round;stroke-linejoin:round;stroke-miterlimit:22.9255867;stroke-opacity:1"
     id="path52"
     inkscape:connector-curvature="0" />
  <path
     d="m 45.600618,40.94322 c 0,0 0.42,0.78 0.92,0.87 1.46,0.27 1.28,-2.32 -1.09,-2.58 m -1.23,0.02 c 0,0 0.44,0.55 0.93,0.22 0.49,-0.32 0.46,-0.93 0.32,-1.14 -0.13,-0.2 -0.3,-0.25 -0.3,-0.25 m -1.95,2.93 c 0,0 -0.35,-0.73 -0.86,-1.55 -0.5,-0.82 -1.46,-1.53 -2.53,-2.32 -1.07,-0.8 -1.55,-1.13 -1.55,-1.13 0,0 2.18,1.55 3.8,1.9 1.6,0.36 2.21,0.4 2.54,0.02 0.34,-0.37 0.26,-0.8 0.1,-1.09 -0.14,-0.29 -0.41,-0.48 -0.41,-0.48 m 0.92,0.71 c 0,0 0.96,0.71 1.84,0.59 0.9,-0.12 0.9,-0.27 0.97,-0.82 0.06,-0.54 -0.44,-0.98 -0.44,-0.98"
     style="fill:none;stroke:#140533;stroke-width:0.12075703;stroke-linecap:round;stroke-linejoin:round;stroke-miterlimit:22.9255867;stroke-opacity:1"
     id="path54"
     inkscape:connector-curvature="0" />
  <path
     d="m 45.230618,35.50322 c 0,0 1.82,0.55 2.41,0.36 0.86,-0.28 2.09,-2.09 3.27,-1.7 0.56,0.2 0.56,0.23 0.56,0.23 a 2.23,2.23 0 0 0 -2.89,-1.04 c -0.58,0.3 -1.07,0.37 -1.59,0.2"
     style="fill:none;stroke:#140533;stroke-width:0.12075703;stroke-linecap:round;stroke-linejoin:round;stroke-miterlimit:22.9255867;stroke-opacity:1"
     id="path56"
     inkscape:connector-curvature="0" />
  <path
     d="m 54.260618,31.76322 c 0,0 -0.72,-1.05 -2.6,-0.82 -2.32,0.28 -2.36,2.45 -4.08,2.7"
     style="fill:none;stroke:#140533;stroke-width:0.12075703;stroke-linecap:round;stroke-linejoin:round;stroke-miterlimit:22.9255867;stroke-opacity:1"
     id="path58"
     inkscape:connector-curvature="0" />
  <path
     d="m 37.250618,34.72322 c 0,0 1.92,1.13 4.18,0.88 2.26,-0.25 4.4,-3.73 5.9,-4.65 1.51,-0.92 2.52,-1.6 4.2,-1.09 a 5.74,5.74 0 0 1 2.67,1.84"
     style="fill:none;stroke:#140533;stroke-width:0.12075703;stroke-linecap:round;stroke-linejoin:round;stroke-miterlimit:22.9255867;stroke-opacity:1"
     id="path60"
     inkscape:connector-curvature="0" />
  <path
     d="m 37.000618,33.84322 c 0,0 2.09,0.88 3.47,0.75 1.38,-0.12 1.8,-0.75 2.18,-0.88 a 5.38,5.38 0 0 0 1.76,-1.63 c 0.58,-0.8 1.42,-0.75 2.05,-1.72 0.63,-0.96 0.85,-1.13 0.95,-1.7 0.1,-0.59 -0.26,-1.17 0.58,-1.46 0.84,-0.3 1.07,0.15 1.4,-0.56 0.32,-0.71 -0.21,-1.34 0.08,-1.97 0.3,-0.63 -0.08,-1.26 1.47,-2.05 1.55,-0.8 2.76,-0.8 2.76,-0.8 m 1.51,5.82 c 0.02,-0.12 -0.02,-0.92 -0.44,-0.63 -0.42,0.3 -0.46,0.7 -0.23,1.07 0.23,0.38 1.09,0.5 1.5,0.09 0.43,-0.42 0.4,-1.05 0.3,-1.36 -0.1,-0.32 -0.34,-0.38 -0.34,-0.38"
     style="fill:none;stroke:#140533;stroke-width:0.12075703;stroke-linecap:round;stroke-linejoin:round;stroke-miterlimit:22.9255867;stroke-opacity:1"
     id="path62"
     inkscape:connector-curvature="0" />
  <path
     d="m 56.390618,27.00322 c 0,0 0.45,-0.17 0.83,-0.42 0.38,-0.26 0.48,-0.66 0.42,-1.26 -0.06,-0.6 -0.4,-0.88 -0.8,-0.9 -0.4,-0.02 -1.15,0.5 -1.15,0.5 0,0 0.48,-1.21 0.3,-1.72 -0.2,-0.5 -0.78,-1.3 -1.74,-0.8 -0.97,0.51 -1.13,1.45 -1.22,1.7 -0.08,0.26 -0.08,0.36 -0.08,0.36"
     style="fill:none;stroke:#140533;stroke-width:0.12075703;stroke-linecap:round;stroke-linejoin:round;stroke-miterlimit:22.9255867;stroke-opacity:1"
     id="path64"
     inkscape:connector-curvature="0" />
  <path
     d="m 53.760618,25.49322 c 0,0 -0.43,-0.82 -0.81,-1.03 -0.38,-0.2 -1.49,-0.19 -1.63,1.07 -0.15,1.25 0.62,1.8 0.98,1.97 0.35,0.16 0.77,0.04 0.77,0.04 0,0 0.09,0.63 0.44,0.67 0.36,0.04 0.63,-0.4 0.36,-0.76 -0.27,-0.35 -0.5,-0.6 -0.5,-0.6"
     style="fill:none;stroke:#140533;stroke-width:0.12075703;stroke-linecap:round;stroke-linejoin:round;stroke-miterlimit:22.9255867;stroke-opacity:1"
     id="path66"
     inkscape:connector-curvature="0" />
  <path
     d="m 53.510618,28.21322 c 0,0 0.17,1.02 2.12,1.55 1.95,0.52 3,-0.4 3.52,-1.05 a 5.04,5.04 0 0 0 -1.76,-7.47 c -2.01,-0.97 -3.27,-1.1 -5.32,-0.42 a 7.41,7.41 0 0 0 -3.98,2.93 c -0.58,0.96 -1.3,2.64 -1.3,2.64 m -0.58,0.58 c 0,0 -1.51,3.4 -3.1,4.99 a 6.54,6.54 0 0 1 -4.4,1.92 c -0.75,-0.04 -1.13,-0.28 -1.13,-0.28"
     style="fill:none;stroke:#140533;stroke-width:0.12075703;stroke-linecap:round;stroke-linejoin:round;stroke-miterlimit:22.9255867;stroke-opacity:1"
     id="path68"
     inkscape:connector-curvature="0" />
  <path
     d="m 56.060618,21.99322 c 0,0 0.66,0.04 0.6,-0.68 a 1.58,1.58 0 0 0 -1.28,-1.41 c -0.65,-0.11 -1.07,0.41 -1.05,0.94 0.02,0.54 0.7,1.03 1.21,1.09 m 1.78,-1.82 c 0,0 0.44,-0.3 0.21,-0.66 -0.23,-0.37 -0.92,-0.46 -0.96,-0.17 -0.04,0.3 0.08,0.62 0.35,0.76 m 2.41,0.26 c 0.17,0.1 0.69,-0.2 0.53,-0.6 -0.16,-0.41 -0.79,-0.68 -1.03,-0.38 -0.24,0.3 -0.27,0.74 -0.04,0.95 0.23,0.21 0.38,0.1 0.38,0.1 m 2.3,0.05 c -0.08,-0.2 -0.19,-0.42 -0.42,-0.47 -0.23,-0.04 -0.48,0 -0.57,0.29 -0.1,0.27 0.03,0.6 0.27,0.73 0.23,0.12 0.47,0.09 0.6,-0.06 0.14,-0.16 0.1,-0.52 0.1,-0.52 m -10.66,19.29 1.7,0.26"
     style="fill:none;stroke:#140533;stroke-width:0.12075703;stroke-linecap:round;stroke-linejoin:round;stroke-miterlimit:22.9255867;stroke-opacity:1"
     id="path70"
     inkscape:connector-curvature="0" />
  <path
     d="m 50.850618,38.77322 0.64,0.08 c 0,0 0.34,-1.49 0.65,-2.43 0.53,-1.58 2.54,-3.31 4.1,-3.7 0.93,-0.24 3.06,-0.42 3.06,-0.42 l 2.9,-12.8 -29.02,-5.82"
     style="fill:none;stroke:#140533;stroke-width:0.12075703;stroke-linecap:round;stroke-linejoin:round;stroke-miterlimit:22.9255867;stroke-opacity:1"
     id="path72"
     inkscape:connector-curvature="0" />
  <path
     d="m 51.720618,35.44322 c 0,0 1.1,-1.76 2.8,-2.93 1.73,-1.18 4.24,-1.47 4.24,-1.47 l 0.56,-1.99 m 0.8,-3.1 0.95,-4.9 m -0.36,-1.07 c 0,0 -3.8,-0.75 -4.48,-0.83 -0.7,-0.09 -6.47,-1.15 -8.86,-1.49 -2.39,-0.33 -13.19,-2.76 -13.19,-2.76 m -1.44,17.67 c 0.37,0.04 1.57,0.11 2.17,-0.8 0.61,-0.9 0.23,-2.3 1.31,-2.36 0.5,-0.03 0.75,0.35 0.68,0.71 -0.04,0.2 -0.24,0.32 -0.39,0.44 -0.42,0.33 1.06,0.48 1.31,-0.3 0.3,-0.94 -0.24,-2.04 -1.09,-2.45 0,0 1.8,-0.12 1.95,2.3 0.07,1.08 0.15,2.46 -0.8,3.17 -0.41,0.31 -0.77,0.71 -1.92,0.71 -1.15,0 -1.22,-0.1 -1.22,-0.1"
     style="fill:none;stroke:#140533;stroke-width:0.12075703;stroke-linecap:round;stroke-linejoin:round;stroke-miterlimit:22.9255867;stroke-opacity:1"
     id="path74"
     inkscape:connector-curvature="0" />
  <path
     d="m 38.170618,33.01322 c 1.27,0.15 2.25,-1.66 1.56,-2.88 -0.37,-0.65 -1.1,-0.47 -1.1,-0.47"
     style="fill:none;stroke:#140533;stroke-width:0.12075703;stroke-linecap:round;stroke-linejoin:round;stroke-miterlimit:22.9255867;stroke-opacity:1"
     id="path76"
     inkscape:connector-curvature="0" />
  <path
     d="m 39.750618,32.85322 c 0,0 2.7,-1.36 3.43,-2.95 0.74,-1.6 1.2,-3.04 1.22,-4 0.02,-0.96 -0.2,-2.01 -0.74,-3 a 4.85,4.85 0 0 0 -2.05,-1.82 c -0.52,-0.27 -1.32,0.1 -1.84,-0.52 -0.52,-0.63 -0.44,-0.71 -0.64,-1.13 -0.2,-0.42 -0.54,-0.48 -0.91,-0.53 -0.37,-0.06 -0.47,0.2 -1.03,-0.07 -0.55,-0.27 -0.58,-0.27 -0.58,-0.27"
     style="fill:none;stroke:#140533;stroke-width:0.12075703;stroke-linecap:round;stroke-linejoin:round;stroke-miterlimit:22.9255867;stroke-opacity:1"
     id="path78"
     inkscape:connector-curvature="0" />
  <path
     d="m 45.250618,25.29322 c 0,0 0.08,-2.93 -2.27,-5.7 -2.34,-2.76 -3.56,-2.67 -5.73,-2.71 -2.76,-0.06 -0.89,0.32 -2.64,1.04 -0.71,0.3 -1.13,0.42 -1.13,0.42 a 5.13,5.13 0 0 0 -1.72,6.53 c 0.8,1.72 3.27,3.14 5.2,2.77 1.92,-0.38 1.84,-1.97 1.84,-2.47 0,-0.5 -0.21,-0.97 -0.21,-0.97"
     style="fill:none;stroke:#140533;stroke-width:0.12075703;stroke-linecap:round;stroke-linejoin:round;stroke-miterlimit:22.9255867;stroke-opacity:1"
     id="path80"
     inkscape:connector-curvature="0" />
  <path
     d="m 39.240618,24.14322 c 0,0 0.94,-0.06 0.62,-1.63 -0.42,-2.15 -2.3,-2.4 -2.44,-0.53"
     style="fill:none;stroke:#140533;stroke-width:0.12075703;stroke-linecap:round;stroke-linejoin:round;stroke-miterlimit:22.9255867;stroke-opacity:1"
     id="path82"
     inkscape:connector-curvature="0" />
  <path
     d="m 36.220618,23.58322 c 0,0 -1.02,-0.38 -1.28,-1.47 -0.5,-2.2 2.1,-2.66 2.56,-1.53 0.2,0.5 0.16,0.56 0.16,0.56"
     style="fill:none;stroke:#140533;stroke-width:0.12075703;stroke-linecap:round;stroke-linejoin:round;stroke-miterlimit:22.9255867;stroke-opacity:1"
     id="path84"
     inkscape:connector-curvature="0" />
  <path
     d="m 35.330618,22.91322 c -1.48,-0.08 -1.06,1.92 -0.26,2.5 0.71,0.53 1.8,0.26 1.8,0.26 m -0.81,-5.71 c 0,0 0.3,-0.78 0.08,-1.13 -0.2,-0.34 -0.72,-0.54 -1.09,-0.49 -0.36,0.05 -0.8,0.42 -0.86,0.67 -0.07,0.25 -0.09,0.58 0.13,0.93 0.22,0.36 0.44,0.5 0.56,0.55 m -0.92,-2.31 c 0,0 -0.67,-0.54 -0.62,-1.23 0.05,-0.7 0.22,-0.93 0.58,-1.07 0.37,-0.13 1.04,-0.22 1.26,0.17 0.22,0.39 0.44,0.94 0.3,1.2 m -2.14,-1.88 c 0.08,0.36 0.45,0.55 0.72,0.4 0.27,-0.16 0.23,-0.61 0.16,-0.88 -0.08,-0.28 -0.3,-0.59 -0.52,-0.5 -0.2,0.08 -0.33,0.54 -0.33,0.54 0,0 -0.02,-0.85 -0.16,-1.02 -0.13,-0.16 -0.28,-0.27 -0.45,-0.07 -0.17,0.2 0.01,0.87 0.1,1.04 0.08,0.16 0.16,0.35 0.3,0.34 0.14,0 0.2,-0.07 0.2,-0.07 m 12.38,10.96 c 0,0 0.38,-2.3 1,-3.48 a 11.3,11.3 0 0 1 1.93,-2.63 c 0.71,-0.76 1.3,-1.22 2.47,-0.93 1.18,0.3 1.22,0.42 1.22,0.42 0,0 -1.3,-1.13 -2.64,-1.21 -1.34,-0.09 -2.43,0.38 -2.68,0.96 -0.25,0.59 -0.17,1.26 -0.17,1.26"
     style="fill:none;stroke:#140533;stroke-width:0.12075703;stroke-linecap:round;stroke-linejoin:round;stroke-miterlimit:22.9255867;stroke-opacity:1"
     id="path86"
     inkscape:connector-curvature="0" />
  <path
     d="m 47.560618,18.44322 c 0,0 0.07,-0.73 -0.37,-0.73 -0.44,0 -0.67,0.5 -0.8,0.82 -0.15,0.32 -0.19,0.45 -0.19,0.45 0,0 0.16,-0.72 -0.2,-1 -0.37,-0.27 -0.75,0.2 -0.9,0.5 -0.16,0.31 -0.4,1.4 -0.33,2.56 0.07,1.16 0.58,2.23 0.58,2.23 m -7.32,1.47 c 0.5,1.72 -1.13,2.56 -2.73,2.18 -1.62,-0.39 -3.2,-2 -3.28,-3.67 -0.15,-3.3 1.36,-3.58 1.36,-3.58 m 22.08,40.86 3.36,-14.58 c 0,0 4.4,0.84 6.82,-1.04 2.59,-2 2.37,-5.73 0.87,-8.18 -1.2,-1.95 -3.99,-2.94 -3.99,-2.95 l 2.94,-15.59 c 4.16,0.42 7.45,1.56 11.24,2.1 a 412.32,412.32 0 0 1 28.600002,5.27 l -3.51,20.1 c 0,0 -3.310002,-0.12 -3.400002,3.1 -0.08,3.23 1.39,3.3 1.39,3.3 l -4.27,18.98 z m 0,0"
     style="fill:none;stroke:#140533;stroke-width:0.12075703;stroke-linecap:round;stroke-linejoin:round;stroke-miterlimit:22.9255867;stroke-opacity:1"
     id="path88"
     inkscape:connector-curvature="0" />
  <path
     d="m 100.86062,43.47322 3.02,-17 c 0,0 -1.84,-0.5 -3.1,-0.5 -1.260002,0 -11.720002,-1.84 -15.160002,-2.76 -3.43,-0.92 -19.46,-4.02 -19.46,-4.02 l -2.34,13.7 m -0.18,0.41 c 0,0 4.02,1.97 4.6,5.02 0.6,3.06 0.1,5.95 -1.3,6.87 -1.37,0.92 -3.57,2.03 -5.14,2.05 -1.57,0.02 -2.28,-0.08 -2.28,-0.08 l -2.6,12.02 -0.13,0.7 36.43,9.8 1.42,0.35 3.4,-17.2"
     style="fill:none;stroke:#140533;stroke-width:0.12075703;stroke-linecap:round;stroke-linejoin:round;stroke-miterlimit:22.9255867;stroke-opacity:1"
     id="path90"
     inkscape:connector-curvature="0" />
  <path
     d="m 99.400618,53.70322 c 0,0 -2.93,-1.39 -3.4,-3.99 a 5.33,5.33 0 0 1 4.880002,-6.24 c 0.71,0.11 1.26,0.1 1.26,0.1 m -41.850002,4.57 -2.51,11.27 c 0,0 11,2.85 12.68,3.26 1.68,0.42 9.89,2.47 11.23,2.98 1.34,0.5 2.93,0.88 4.02,1.17 l 3.89,1.09 m 4.27,1.04 c 0.04,-0.31 -0.38,-0.94 -0.73,-0.85 -0.36,0.08 -0.6,0.31 -0.6,0.6 0,0.3 0.26,0.61 0.51,0.63 0.26,0.02 0.72,-0.08 0.72,-0.08"
     style="fill:none;stroke:#140533;stroke-width:0.12075703;stroke-linecap:round;stroke-linejoin:round;stroke-miterlimit:22.9255867;stroke-opacity:1"
     id="path92"
     inkscape:connector-curvature="0" />
  <path
     d="m 92.450618,68.34322 c 0.15,-0.06 0.25,0 0.38,-0.38 0.14,-0.38 -0.37,-0.92 -0.64,-0.86 -0.28,0.06 -0.87,0.34 -0.86,0.87 0,0.53 0.19,0.77 0.6,0.85 0.4,0.08 0.6,-0.08 0.6,-0.08 m -1.2,-1.42 c 0.11,-0.08 0.38,-0.56 0.13,-1.08 -0.25,-0.5 -1.34,-0.78 -1.79,-0.45 -0.45,0.34 -0.8,0.77 -0.53,1.42 0.26,0.64 0.54,0.8 1,1.05 0.44,0.25 0.78,0.14 0.78,0.14"
     style="fill:none;stroke:#140533;stroke-width:0.12075703;stroke-linecap:round;stroke-linejoin:round;stroke-miterlimit:22.9255867;stroke-opacity:1"
     id="path94"
     inkscape:connector-curvature="0" />
  <path
     d="m 89.640618,66.47322 c 0,0 0.16,0.33 0.46,0.12 0.3,-0.21 0.4,-1.02 0.18,-1.46 -0.22,-0.44 -1.56,-1.31 -2.68,-0.58 -1.27,0.83 -0.55,2.72 1.05,3.12 0.78,0.19 0.82,0.12 0.82,0.12 m -3.01,-8.06 c 0,0 -1.4,-1.42 -2.4,-1 -1,0.42 -1.4,2.36 -1.09,3.05 0.32,0.7 1.03,0.95 1.49,0.7 0.46,-0.26 0.48,-0.8 0.48,-0.8 0,0 -0.31,1.46 0.3,2.05 0.6,0.59 1.96,0.76 2.61,0.44 0.65,-0.31 0.94,-0.96 0.82,-1.4 a 2.52,2.52 0 0 0 -1.13,-1.4 c -0.6,-0.34 -0.6,-0.3 -0.6,-0.3 0,0 1.85,0.92 2.36,0.21 0.5,-0.71 0.48,-1.9 -0.1,-2.45 -0.6,-0.54 -1.54,-0.58 -2.14,-0.4 -0.61,0.2 -0.6,1.3 -0.6,1.3 z m 0.23,-1.67 c 0,0 -0.1,-1.43 1.38,-1.2 1.49,0.23 1.95,0.97 1.95,0.97"
     style="fill:none;stroke:#140533;stroke-width:0.12075703;stroke-linecap:round;stroke-linejoin:round;stroke-miterlimit:22.9255867;stroke-opacity:1"
     id="path96"
     inkscape:connector-curvature="0" />
  <path
     d="m 86.330618,57.70322 c 0,0 0,-1.09 1.18,-1.6 1.17,-0.5 2.3,0.03 3.16,0.62 0.86,0.58 2,2.47 1.7,4.19"
     style="fill:none;stroke:#140533;stroke-width:0.12075703;stroke-linecap:round;stroke-linejoin:round;stroke-miterlimit:22.9255867;stroke-opacity:1"
     id="path98"
     inkscape:connector-curvature="0" />
  <path
     d="m 89.350618,48.53322 c 0,0 -3.73,-0.54 -6.58,2.85 -2.84,3.39 -4.19,7.27 -2.3,10.89 0.87,1.67 2.87,4.64 6.91,4.02 2.99,-0.46 4.77,-4.44 4.77,-4.44"
     style="fill:none;stroke:#140533;stroke-width:0.12075703;stroke-linecap:round;stroke-linejoin:round;stroke-miterlimit:22.9255867;stroke-opacity:1"
     id="path100"
     inkscape:connector-curvature="0" />
  <path
     d="m 91.060618,63.86322 c 0,0 1.64,-0.63 2.06,-1.76 0.42,-1.13 0.31,-1.6 0.31,-2.22 0,-0.63 0.17,-1.3 0.65,-1.78 0.48,-0.48 0.9,-0.59 1.38,-0.27 0.48,0.31 0.55,0.52 0.52,0.65 -0.02,0.12 0.05,-1.05 -0.37,-1.57 a 1.91,1.91 0 0 0 -1.53,-0.61 c -0.25,0.06 -0.88,0.65 -0.88,0.65 0,0 0.84,-0.92 0.63,-1.5 -0.21,-0.6 -0.8,-0.39 -1,0.01 -0.21,0.4 -0.15,1.11 -0.2,1.4 -0.04,0.3 -0.14,0.28 -0.14,0.28"
     style="fill:none;stroke:#140533;stroke-width:0.12075703;stroke-linecap:round;stroke-linejoin:round;stroke-miterlimit:22.9255867;stroke-opacity:1"
     id="path102"
     inkscape:connector-curvature="0" />
  <path
     d="m 91.720618,57.94322 c 0,0 -0.26,-1.51 0.16,-1.72 0.42,-0.21 0.74,-0.1 0.76,0.18 m -2.31,-7.39 c -1.04,0.05 -2.64,0.92 -2.76,1.64 -0.13,0.7 -0.04,2.05 0.2,2.43 0.26,0.37 1.01,0.62 0.43,0.92 -0.59,0.29 -1.22,-0.13 -1.38,-0.67 -0.17,-0.55 -0.3,-0.8 -0.3,-0.8 m -3.02,0.27 c 0,0 -0.47,0.63 -0.35,1.36 0.12,0.74 0.7,1.4 0.98,1.22 0.28,-0.2 0.4,-0.94 0.26,-1.49"
     style="fill:none;stroke:#140533;stroke-width:0.12075703;stroke-linecap:round;stroke-linejoin:round;stroke-miterlimit:22.9255867;stroke-opacity:1"
     id="path104"
     inkscape:connector-curvature="0" />
  <path
     d="m 84.270618,53.06322 c 0,0 -0.03,0.54 0.12,0.77 0.14,0.23 0.46,0 0.74,-0.29 0.28,-0.28 0.5,-0.76 0.59,-1.18 l 0.08,-0.48 c 0,0 -0.1,1.11 0.02,1.49 0.13,0.37 0.33,0.68 0.62,0.57 0.3,-0.1 0.4,-0.54 0.4,-0.54 m 4.05,-5.64 c 0,0 -4.08,-0.25 -4.74,-0.17 -0.67,0.08 -3.58,-0.2 -5.45,1.29 -1.87,1.5 -2.54,2.5 -2.54,2.5 0,0 -1.12,1.07 -1.9,1.57 -0.8,0.5 -1.67,0.5 -1.63,-0.37 0.04,-0.87 0.25,-0.96 0.25,-0.96 0,0 -1.04,0.33 -1.04,1.04 0,0.7 0.6,1.27 0.6,1.27 0,0 -0.35,0.46 -0.6,0.37 -0.25,-0.08 -0.46,-0.45 -0.52,-0.76 -0.06,-0.32 -0.04,-0.67 -0.04,-0.67 0,0 -0.4,0.17 -0.58,0.87 -0.19,0.7 -0.23,0.83 0,1.23 0.23,0.4 0.41,0.3 0.29,0.34 0,0 -0.17,0.38 -0.82,0.38 -0.65,0 -0.6,0.59 -0.48,0.86 0.13,0.27 0.04,0.63 -0.65,0.7 -0.7,0.05 -1.13,-0.03 -1.13,-0.03 0,0 0.23,0.42 0.7,0.52 0.45,0.1 0.56,0.02 0.56,0.02 0,0 -0.49,0.08 -0.34,0.25 0.1,0.11 0.91,0.3 1.65,0 1.8,-0.74 2.12,-1.88 2.62,-2.57 0.5,-0.7 2.39,-1.84 2.51,-1.86"
     style="fill:none;stroke:#140533;stroke-width:0.12075703;stroke-linecap:round;stroke-linejoin:round;stroke-miterlimit:22.9255867;stroke-opacity:1"
     id="path106"
     inkscape:connector-curvature="0" />
  <path
     d="m 86.150618,47.59322 c 0,0 -3.03,-0.04 -5.17,3.43 a 15.5,15.5 0 0 0 -2.6,9.05 7.34,7.34 0 0 0 2.02,5.15 c 0,0 -1.42,-0.63 -2.26,-2.18 -0.84,-1.55 -1,-2.64 -1,-2.64 0,0 0.06,1.97 0.14,2.53 l 0.08,0.61 c 0,0 -0.83,-0.58 -1.23,-1.4 -0.4,-0.82 -0.32,-3.3 -0.02,-3.96 0.29,-0.65 0.81,-1.97 1.1,-2.76 0.3,-0.8 0.05,-1.36 0.65,-2.11 0.61,-0.76 2.25,-2.4 2.25,-2.4"
     style="fill:none;stroke:#140533;stroke-width:0.12075703;stroke-linecap:round;stroke-linejoin:round;stroke-miterlimit:22.9255867;stroke-opacity:1"
     id="path108"
     inkscape:connector-curvature="0" />
  <path
     d="m 77.430618,54.32322 c 0,0 -2.98,4.3 -5.49,5.47 -2.51,1.18 -5.36,1.01 -6.57,0.26 -1.22,-0.76 -2.4,-2.73 -2.4,-2.73"
     style="fill:none;stroke:#140533;stroke-width:0.12075703;stroke-linecap:round;stroke-linejoin:round;stroke-miterlimit:22.9255867;stroke-opacity:1"
     id="path110"
     inkscape:connector-curvature="0" />
  <path
     d="m 76.680618,56.81322 c 0,0 -2.35,3.53 -3.99,4.2 -1.63,0.67 -5.15,1.42 -7.62,-0.21 -2.47,-1.63 -2.93,-2.64 -3.26,-3.73 -0.34,-1.09 -0.71,-5.73 1.92,-7.5 2.64,-1.75 4.23,-1.46 5.24,-0.95 1,0.5 2.72,1.54 2.47,3.22 -0.25,1.67 -0.71,2.85 -2.05,3.14 -1.34,0.3 -1.64,0.08 -1.64,0.08"
     style="fill:none;stroke:#140533;stroke-width:0.12075703;stroke-linecap:round;stroke-linejoin:round;stroke-miterlimit:22.9255867;stroke-opacity:1"
     id="path112"
     inkscape:connector-curvature="0" />
  <path
     d="m 62.640618,55.02322 c 0,0 -0.62,-1.21 0.67,-3.77 1.3,-2.55 4.44,-2.55 5.62,-2.05 1.17,0.5 2.2,1.59 1.8,3.73 -0.4,2.13 -2.9,2.13 -2.9,2.17"
     style="fill:none;stroke:#140533;stroke-width:0.12075703;stroke-linecap:round;stroke-linejoin:round;stroke-miterlimit:22.9255867;stroke-opacity:1"
     id="path114"
     inkscape:connector-curvature="0" />
  <path
     d="m 59.730618,54.25322 c 0,0 -0.54,1.15 0.4,1.7 0.94,0.54 2.01,-0.03 2.43,-0.3 0.42,-0.27 0.19,-0.59 0.19,-0.59 0,0 0.75,0.25 0.94,-0.02 0.19,-0.27 0.21,-0.81 0.6,-0.86 0.4,-0.04 0.87,0.55 0.87,0.55"
     style="fill:none;stroke:#140533;stroke-width:0.12075703;stroke-linecap:round;stroke-linejoin:round;stroke-miterlimit:22.9255867;stroke-opacity:1"
     id="path116"
     inkscape:connector-curvature="0" />
  <path
     d="m 61.220618,53.14322 c 0,0 -0.65,0.25 -0.46,0.81 0.19,0.57 1.99,1.11 1.99,1.11 m 2.41,-0.33 c 0,0 -0.84,-0.8 -0.93,-1.22 -0.08,-0.41 0.09,-1.9 1.18,-2.03 1.09,-0.12 1.65,0.27 1.84,0.88 0.19,0.61 0.31,0.97 0.06,1.34 -0.25,0.38 -0.9,0.32 -1.04,-0.02"
     style="fill:none;stroke:#140533;stroke-width:0.12075703;stroke-linecap:round;stroke-linejoin:round;stroke-miterlimit:22.9255867;stroke-opacity:1"
     id="path118"
     inkscape:connector-curvature="0" />
  <path
     d="m 67.390618,52.84322 c 0,0 1.28,0 1.79,0.84 0.5,0.84 0.9,2.37 0.29,3.02 -0.6,0.65 -1.45,0.73 -1.9,0.29 -0.47,-0.44 -0.55,-0.65 -0.55,-0.65 0,0 1.44,1.4 1.05,2.28 -0.4,0.88 -1.93,1.1 -2.45,0.44 -0.53,-0.65 -0.82,-1.13 -0.78,-1.71 0.04,-0.6 0.13,-0.9 0.13,-0.9 0,0 -0.21,0.94 -0.57,0.58 -0.35,-0.35 -0.3,-1.3 -0.3,-1.3 m -2.23,3.98 c -1.05,-0.97 -0.46,-3.69 2.26,-3.24 m 14.57,-3.71 c 0,0 -0.59,-1.1 -0.54,-1.78 0.04,-0.67 0.1,-0.94 0.1,-0.94 0,0 -0.54,-0.31 -0.35,-0.7 0.18,-0.37 0.08,-0.87 0.65,-1.06 0.56,-0.19 1.08,-0.17 1.08,-0.17 0,0 -0.67,-0.5 -0.02,-1.15 a 3.12,3.12 0 0 1 2.51,-1.13 c 1.37,-0.04 1.87,-0.15 3.25,0.4 1.38,0.54 2.2,0.56 2.53,0.75 m 1.11,0.67 c 0,0 -1.04,-0.4 -1.25,-1.02 -0.21,-0.63 0.27,-1.26 0.8,-1.28 0.51,-0.02 1.7,0.67 1.88,1.1 0.16,0.45 0.14,0.76 0.14,0.76 0,0 0.3,-0.65 0.53,-0.6 0.23,0.04 0.4,0 0.4,0 0,0 -0.6,-0.21 -0.84,-0.67 -0.25,-0.46 0.16,-1.22 0.73,-1.22 0.56,0 0.98,0.32 1.09,0.44 0.1,0.13 0.29,0.92 0.29,0.92 0,0 -0.3,-1.3 0.04,-1.78 0.34,-0.48 1.38,-0.38 1.87,0.75 0.48,1.12 0.45,1.85 0.61,2.07 0.17,0.22 0.65,0.56 0.65,0.56 m -0.04,1.07 c 0,0 -0.45,-0.44 -1.33,0.5 -0.88,0.95 -1.08,1.53 -1.9,1.31 -0.83,-0.22 -1.07,-0.57 -1.1,-1.35 -0.01,-0.77 0.27,-0.95 0.27,-0.95 0,0 -0.53,0.89 -0.68,0.95 -0.15,0.06 -0.66,0.16 -0.9,-0.27 -0.24,-0.43 -0.4,-0.72 -0.14,-0.88 0.26,-0.16 0.75,-0.3 0.75,-0.3"
     style="fill:none;stroke:#140533;stroke-width:0.12075703;stroke-linecap:round;stroke-linejoin:round;stroke-miterlimit:22.9255867;stroke-opacity:1"
     id="path120"
     inkscape:connector-curvature="0" />
  <path
     d="m 82.840618,45.80322 c 0,0 -0.88,-0.28 -2.56,-0.45 a 10.22,10.22 0 0 1 -3.41,-0.75 c -0.65,-0.34 -0.65,-0.49 -0.65,-0.49 0,0 0.27,1.18 -0.3,1.16 -0.56,-0.02 -0.75,-0.1 -0.7,-0.26 0.04,-0.14 -0.53,-0.04 -0.63,-0.5 -0.1,-0.46 0.35,-1 0.35,-1 0,0 -1.13,0 -0.98,-0.61 0.15,-0.6 0.69,-0.94 1,-0.84"
     style="fill:none;stroke:#140533;stroke-width:0.12075703;stroke-linecap:round;stroke-linejoin:round;stroke-miterlimit:22.9255867;stroke-opacity:1"
     id="path122"
     inkscape:connector-curvature="0" />
  <path
     d="m 75.960618,42.50322 c -0.7,-0.2 -0.9,0.09 -1,-0.67 -0.1,-0.75 0.84,-0.83 0.99,-0.73 m 0.01,0.91 c 0,0 0.18,-0.73 0.53,-0.59 0.36,0.15 0.47,0.44 0.42,0.93 -0.05,0.48 -0.27,0.73 -0.34,0.77 m -0.36,0.19 c 0,0 0.32,0.77 2.58,1.16 2.27,0.39 3.74,0.39 3.74,0.39 m 1.98,1.08 c 0,0 -1.03,-0.59 -1.74,-1.43 -0.7,-0.84 -0.96,-1.38 -0.58,-1.42 0.37,-0.04 0.56,0.04 0.6,0.23"
     style="fill:none;stroke:#140533;stroke-width:0.12075703;stroke-linecap:round;stroke-linejoin:round;stroke-miterlimit:22.9255867;stroke-opacity:1"
     id="path124"
     inkscape:connector-curvature="0" />
  <path
     d="m 82.090618,43.55322 c 0,0 -1.43,-1.11 -1.58,-2.3 -0.15,-1.2 0.38,-1.24 0.67,-0.9 0.3,0.33 0.19,0.69 0.19,0.69"
     style="fill:none;stroke:#140533;stroke-width:0.12075703;stroke-linecap:round;stroke-linejoin:round;stroke-miterlimit:22.9255867;stroke-opacity:1"
     id="path126"
     inkscape:connector-curvature="0" />
  <path
     d="m 81.060618,40.23322 c 0,0 -0.63,-1 -0.49,-1.83 0.15,-0.84 0.59,-1.2 0.59,-1.2"
     style="fill:none;stroke:#140533;stroke-width:0.12075703;stroke-linecap:round;stroke-linejoin:round;stroke-miterlimit:22.9255867;stroke-opacity:1"
     id="path128"
     inkscape:connector-curvature="0" />
  <path
     d="m 80.840618,37.63322 c 0,0 -0.4,-0.86 -1.02,-0.86 -0.63,0 -0.82,0.14 -0.86,0.37 -0.04,0.23 -0.6,-0.04 -0.33,-1.07 0.27,-1.02 0.5,-1.08 0.67,-1.02 0.16,0.06 -0.02,-0.44 -0.21,-0.46 a 0.92,0.92 0 0 0 -0.84,0.5 c -0.19,0.39 -0.19,0.42 -0.19,0.42 0,0 -0.22,-0.63 0.01,-1.12 0.23,-0.5 0.55,-0.66 0.55,-0.66 0,0 -0.5,-0.15 -0.67,-0.14 -0.18,0.01 -0.44,0.13 -0.44,0.13 m -0.47,-1.27 c 0,0 0.85,-1.46 1.94,-0.86 1.1,0.61 1.6,1.6 1.89,2.35 m 6.99,11.85 c 0,0 -2.89,-0.96 -4.73,-3.6 -1.84,-2.64 -2.01,-4.06 -2.01,-4.06"
     style="fill:none;stroke:#140533;stroke-width:0.12075703;stroke-linecap:round;stroke-linejoin:round;stroke-miterlimit:22.9255867;stroke-opacity:1"
     id="path130"
     inkscape:connector-curvature="0" />
  <path
     d="m 88.560618,45.35322 c 0,0 -3.84,-2.5 -5.1,-5.09 -1.25,-2.6 -2,-4.35 -2.6,-6.32 -0.58,-1.97 -0.33,-4.27 -2.09,-7.37 -1.76,-3.1 -5.7,-4.73 -5.7,-4.73"
     style="fill:none;stroke:#140533;stroke-width:0.12075703;stroke-linecap:round;stroke-linejoin:round;stroke-miterlimit:22.9255867;stroke-opacity:1"
     id="path132"
     inkscape:connector-curvature="0" />
  <path
     d="m 90.680618,45.94322 c 0,0 -2.36,-0.49 -4.4,-3.35 -2.02,-2.87 -2.99,-4.99 -3.07,-8.19 -0.08,-3.2 1.89,-5.15 2.47,-6.32 0.59,-1.18 0.63,-2.05 0.32,-2.85 -0.32,-0.8 -0.44,-0.94 -0.44,-0.94"
     style="fill:none;stroke:#140533;stroke-width:0.12075703;stroke-linecap:round;stroke-linejoin:round;stroke-miterlimit:22.9255867;stroke-opacity:1"
     id="path134"
     inkscape:connector-curvature="0" />
  <path
     d="m 83.440618,28.58322 c 0,0 -0.02,-1.1 0.55,-1.3 a 2.3,2.3 0 0 0 1.38,-1.13 c 0.29,-0.58 0.19,-1.86 0.19,-1.86"
     style="fill:none;stroke:#140533;stroke-width:0.12075703;stroke-linecap:round;stroke-linejoin:round;stroke-miterlimit:22.9255867;stroke-opacity:1"
     id="path136"
     inkscape:connector-curvature="0" />
  <path
     d="m 82.540618,30.28322 c 0,0 -0.46,-1.07 -0.46,-1.8 0,-0.74 0.02,-0.97 0.46,-1.34 0.44,-0.38 0.54,-0.5 0.54,-0.5 0,0 -0.18,0.68 0.09,1.31 l 0.27,0.63 m -2.39,5.93 c 0,0 -0.38,-1.82 -0.04,-3.53 0.33,-1.72 1.43,-0.73 1.43,-0.73 m -8.63,-2.9 c -0.03,-0.96 0.06,-2.18 0.7,-3.16 0.91,-1.39 2.56,-2.25 3.47,-0.74"
     style="fill:none;stroke:#140533;stroke-width:0.12075703;stroke-linecap:round;stroke-linejoin:round;stroke-miterlimit:22.9255867;stroke-opacity:1"
     id="path138"
     inkscape:connector-curvature="0" />
  <path
     d="m 88.210618,24.94322 c -0.56,-0.09 -3.05,-0.27 -3.43,-0.38 -0.38,-0.1 -3.08,-0.86 -3.85,-0.96 -0.78,-0.1 -3.63,-0.82 -3.63,-0.82 0,0 -4.01,-0.73 -4.12,-0.84 -0.1,-0.1 -1.94,-0.42 -2.8,-0.73 -0.86,-0.31 -2.9,-0.58 -3.35,-0.71 -0.46,-0.13 -2.1,12.18 -2.1,12.18 0,0 3.77,2.52 4.32,5.32 0.54,2.8 0.75,6.5 -1.89,8.3 a 10.6,10.6 0 0 1 -5.78,1.96 c -0.92,0.04 -1.3,-0.12 -1.3,-0.12"
     style="fill:none;stroke:#140533;stroke-width:0.12075703;stroke-linecap:round;stroke-linejoin:round;stroke-miterlimit:22.9255867;stroke-opacity:1"
     id="path140"
     inkscape:connector-curvature="0" />
  <path
     d="m 70.420618,33.48322 c 0,0 -2.26,0.42 -3.23,-2.34 -0.96,-2.77 0.59,-4.53 1.3,-4.95 0.71,-0.42 2.16,-1.25 3.04,-0.58 0.88,0.67 0.77,2 0.77,2"
     style="fill:none;stroke:#140533;stroke-width:0.12075703;stroke-linecap:round;stroke-linejoin:round;stroke-miterlimit:22.9255867;stroke-opacity:1"
     id="path142"
     inkscape:connector-curvature="0" />
  <path
     d="m 70.960618,34.42322 c 0,0 -2.76,0.17 -3.72,-1.25 a 6.4,6.4 0 0 1 -0.8,-5.38 c 0.41,-1.13 2.25,-3.41 3.87,-3.33"
     style="fill:none;stroke:#140533;stroke-width:0.12075703;stroke-linecap:round;stroke-linejoin:round;stroke-miterlimit:22.9255867;stroke-opacity:1"
     id="path144"
     inkscape:connector-curvature="0" />
  <path
     d="m 68.180618,22.51322 c 0,0 -0.55,0.31 -0.27,0.88 0.27,0.56 0.64,0.69 1.52,0.88 l 0.88,0.19"
     style="fill:none;stroke:#140533;stroke-width:0.12075703;stroke-linecap:round;stroke-linejoin:round;stroke-miterlimit:22.9255867;stroke-opacity:1"
     id="path146"
     inkscape:connector-curvature="0" />
  <path
     d="m 68.290618,20.74322 c 0,0 0.14,0.62 0.26,1.29 0.13,0.67 0.38,0.9 0.76,1.09 0.37,0.19 1.09,0.12 1.09,0.12 0,0 -0.63,0.09 -0.53,0.42 0.1,0.34 0.34,1.09 1.1,1.26 0.75,0.16 1.81,-0.34 2.13,-0.94 0.31,-0.61 0.18,-1.43 0.08,-1.79 a 0.82,0.82 0 0 0 -0.65,-0.6 c -0.3,-0.07 -1.21,0.48 -1.95,0.25 -0.73,-0.23 -2.29,-1.1 -2.29,-1.1 z m 0,0"
     style="fill:none;stroke:#140533;stroke-width:0.12075703;stroke-linecap:round;stroke-linejoin:round;stroke-miterlimit:22.9255867;stroke-opacity:1"
     id="path148"
     inkscape:connector-curvature="0" />
  <path
     d="m 73.810618,27.35322 c 0,0 -0.71,-0.93 -0.8,-1.89 -0.08,-0.96 0.01,-1.36 0.01,-1.36 0,0 1.19,1.09 1.46,1.07 0.27,-0.02 0.66,-0.1 2.1,0.77 1.45,0.88 1.9,1.51 2.23,2.35 a 8,8 0 0 1 0.6,1.94 c 0.1,0.61 -0.97,-1.73 -2.06,-2.72 -1.1,-0.98 -1.83,-1.07 -1.83,-1.07 m -4.59,7.37 -0.51,-0.33 c 0,0 -1.19,-0.34 -1.33,-1.8 -0.15,-1.47 0.83,-1.74 1.32,-1.63 0.48,0.1 1.04,0.4 1.19,0.96 0.15,0.56 -0.02,0.86 -0.02,0.86"
     style="fill:none;stroke:#140533;stroke-width:0.12075703;stroke-linecap:round;stroke-linejoin:round;stroke-miterlimit:22.9255867;stroke-opacity:1"
     id="path150"
     inkscape:connector-curvature="0" />
  <path
     d="m 71.140618,30.36322 c 0,0 -0.38,-1.38 0.12,-2.01 0.5,-0.63 1.07,-0.46 1.07,-0.46 0,0 -0.07,0.86 0.37,1.28 0.44,0.42 1.42,0.36 1.7,-0.43 0.27,-0.8 0.03,-1.27 -0.04,-1.35"
     style="fill:none;stroke:#140533;stroke-width:0.12075703;stroke-linecap:round;stroke-linejoin:round;stroke-miterlimit:22.9255867;stroke-opacity:1"
     id="path152"
     inkscape:connector-curvature="0" />
  <path
     d="m 74.130618,27.49322 c 0,0 0.88,0.76 1.07,1.02 0.19,0.26 0.56,0.56 0.43,1.21 -0.13,0.65 -0.5,0.7 -0.82,1.37 -0.31,0.67 -0.19,1.02 -0.19,1.02"
     style="fill:none;stroke:#140533;stroke-width:0.12075703;stroke-linecap:round;stroke-linejoin:round;stroke-miterlimit:22.9255867;stroke-opacity:1"
     id="path154"
     inkscape:connector-curvature="0" />
  <path
     d="m 74.840618,31.03322 c 0,0 0.83,-1.03 1.65,-0.24 0.81,0.78 1.34,2.22 0.86,3.22 -0.49,1 -0.78,0.72 -0.78,0.72 0,0 -0.17,0.79 -0.69,0.85 -0.52,0.07 -0.92,-0.08 -1.15,-0.46 m -3.72,-0.96 c 0,0 -0.11,0.54 0.32,0.96 0.43,0.42 1.65,0.5 1.88,-0.08 a 1.59,1.59 0 0 0 -0.28,-1.52 c -0.24,-0.24 -0.4,-0.28 -0.4,-0.28"
     style="fill:none;stroke:#140533;stroke-width:0.12075703;stroke-linecap:round;stroke-linejoin:round;stroke-miterlimit:22.9255867;stroke-opacity:1"
     id="path156"
     inkscape:connector-curvature="0" />
  <path
     d="m 71.560618,33.66322 c 0,0 0.58,-0.09 0.8,0.24 0.22,0.32 0.23,0.4 0.23,0.4 m 4.32,7.27 c 0,0 -0.23,-1.7 -0.92,-2.26 -0.7,-0.57 -1.95,-0.84 -2.4,-1.36 -0.43,-0.52 -0.52,-1.82 -0.52,-1.82 0,0 -0.29,0.62 -0.3,1.44 -0.03,0.82 0.47,2.2 0.58,2.39 0.1,0.19 0.77,0.8 0.6,0.67 -1.14,-0.92 -0.95,-0.72 -0.77,0.42 0,0 -0.23,-0.86 -0.54,-1.15 -0.32,-0.3 -0.84,-0.49 -1.03,-0.84 -0.19,-0.36 -0.25,-0.59 -0.25,-0.59 0,0 0.1,1.72 0.31,2.33 0.21,0.6 0.55,0.8 0.82,1.06 0.27,0.28 0.65,0.72 0.65,0.72 l -0.99,-0.74 c 0,0 -0.2,0.09 -0.12,0.5 0.08,0.42 0.17,0.65 0.17,0.65 0,0 -0.28,-0.77 -0.44,-0.92 -0.17,-0.14 -0.4,-0.18 -0.88,0.09 -0.49,0.27 -0.4,0.35 -0.4,0.35 0,0 0.02,0.23 0.33,0.63 0.32,0.4 0.72,0.6 0.72,0.6 0,0 0.25,-0.26 0.6,-0.1 m -0.6,0.11 c 0,0 -0.09,0.37 0.1,0.6 0.19,0.23 0.94,0.58 0.94,0.58 0,0 -1.5,-0.56 -1.95,0.92 -0.44,1.49 -0.37,1.7 -0.35,1.97 0.02,0.27 0.63,-0.98 1.26,-1.07 0.62,-0.08 1.5,0.06 2.67,0 1.18,-0.06 2.11,-1.49 2.08,-1.97 m 14.46,0.37 c 0,0 -3.7,-2.84 -4.54,-5.77 -0.84,-2.93 -1.17,-6.07 0.3,-9.33 1.46,-3.27 3.1,-4.15 4.1,-4.53 a 6.4,6.4 0 0 1 4.69,-0.16 c 1.92,0.75 3.47,2.22 3.47,2.22 0,0 2.430002,2.05 2.680002,5.06 0.25,3.02 0.21,4.98 -1.42,6.53 -1.630002,1.55 -2.720002,1.93 -2.390002,2.93 0.34,1 0.76,1.22 0.76,1.22 0,0 -0.8,0.15 -1.2,-0.19 -0.4,-0.33 -0.52,-0.84 -0.52,-1.11 0,-0.27 -0.06,0.7 -0.44,0.67 -0.38,-0.02 -0.82,-0.44 -0.75,-0.88 0.06,-0.44 0.31,-0.75 0.31,-0.75 0,0 -0.59,0.2 -0.63,-0.13 -0.04,-0.33 0.15,-1.06 0.8,-1.25 0.65,-0.2 1.9,0.23 3.37,-1.32 1.460002,-1.55 1.800002,-2.16 1.930002,-3.4 0.13,-1.24 0.22,-1.8 0.22,-1.8"
     style="fill:none;stroke:#140533;stroke-width:0.12075703;stroke-linecap:round;stroke-linejoin:round;stroke-miterlimit:22.9255867;stroke-opacity:1"
     id="path158"
     inkscape:connector-curvature="0" />
  <path
     d="m 91.860618,44.34322 c 0,0 -1.25,-0.59 -1.67,-2.1 -0.42,-1.5 0.17,-2.42 0.17,-2.42 l 0.3,-0.03 c 0,0 -0.19,-0.58 -0.62,-0.68 -0.43,-0.1 -0.82,0.1 -0.96,0.36 -0.2,0.4 -0.2,0.71 -0.13,1.11"
     style="fill:none;stroke:#140533;stroke-width:0.12075703;stroke-linecap:round;stroke-linejoin:round;stroke-miterlimit:22.9255867;stroke-opacity:1"
     id="path160"
     inkscape:connector-curvature="0" />
  <path
     d="m 89.000618,39.65322 c -0.17,-1.65 -1.33,-1.07 -1.01,-0.5 m 0.15,-0.96 c 0,0 -0.18,-1.13 0.1,-1.66 0.28,-0.53 0.51,-0.71 0.59,-0.72 0.07,-0.01 -0.12,-0.62 -0.59,-0.67 -1.24,-0.14 -1.67,0.91 -1.65,1.99"
     style="fill:none;stroke:#140533;stroke-width:0.12075703;stroke-linecap:round;stroke-linejoin:round;stroke-miterlimit:22.9255867;stroke-opacity:1"
     id="path162"
     inkscape:connector-curvature="0" />
  <path
     d="m 86.560618,36.28322 c 0,0 0.33,-3.81 1.3,-6 0.96,-2.2 1.44,-2.8 2.53,-3.5 1.09,-0.72 2.57,-1.01 3.77,-0.8 1.19,0.2 2.26,0.82 2.61,1.23 0.36,0.42 0.5,0.63 0.5,0.63 m -1.31,11.84 c 0,0 -3.4,-0.72 -4.15,-2.44 -0.75,-1.71 -0.5,-2 -0.42,-2.8 0.09,-0.8 0.96,-1.34 0.96,-1.34 0,0 0.21,0.1 0.3,0.7 0.08,0.62 0.33,0.95 0.71,0.87 0.38,-0.09 0.19,-0.55 0.19,-0.55 0,0 0.88,1.28 1.38,1.55 0.5,0.27 2.1,0.9 2.79,-0.02 0.69,-0.92 0.35,-1.86 0.12,-2.16 a 6.3,6.3 0 0 0 -1.63,-0.75"
     style="fill:none;stroke:#140533;stroke-width:0.12075703;stroke-linecap:round;stroke-linejoin:round;stroke-miterlimit:22.9255867;stroke-opacity:1"
     id="path164"
     inkscape:connector-curvature="0" />
  <path
     d="m 96.460618,32.82322 c 0,0 1.32,0.55 1.99,-0.23 0.67,-0.77 0.67,-1.1 0.54,-1.59 -0.12,-0.48 -0.3,-0.58 -0.3,-0.58"
     style="fill:none;stroke:#140533;stroke-width:0.12075703;stroke-linecap:round;stroke-linejoin:round;stroke-miterlimit:22.9255867;stroke-opacity:1"
     id="path166"
     inkscape:connector-curvature="0" />
  <path
     d="m 98.720618,27.58322 c 0,0 -1.3,-0.55 -1.45,0.26 -0.14,0.82 -0.12,1.98 0.82,2.51 1.27,0.72 1.79,-0.44 1.82,-1.5"
     style="fill:none;stroke:#140533;stroke-width:0.12075703;stroke-linecap:round;stroke-linejoin:round;stroke-miterlimit:22.9255867;stroke-opacity:1"
     id="path168"
     inkscape:connector-curvature="0" />
  <path
     d="m 100.39062,26.84322 c 0,0 -0.690002,-0.55 -1.100002,-0.15 -0.42,0.4 -0.55,0.9 -0.53,1.53 0.02,0.63 0.48,1.17 1,1.46 0.530002,0.3 1.030002,0.09 1.300002,-0.48 0.28,-0.56 0.24,-0.83 0.24,-0.83"
     style="fill:none;stroke:#140533;stroke-width:0.12075703;stroke-linecap:round;stroke-linejoin:round;stroke-miterlimit:22.9255867;stroke-opacity:1"
     id="path170"
     inkscape:connector-curvature="0" />
  <path
     d="m 101.74062,27.15322 c 0,0 -0.5,-0.56 -0.93,-0.4 -0.42,0.17 -0.5,0.9 -0.31,1.36 0.19,0.46 0.77,0.84 1.2,0.59 0.41,-0.25 0.45,-0.9 0.45,-0.9"
     style="fill:none;stroke:#140533;stroke-width:0.12075703;stroke-linecap:round;stroke-linejoin:round;stroke-miterlimit:22.9255867;stroke-opacity:1"
     id="path172"
     inkscape:connector-curvature="0" />
  <path
     d="m 101.74062,27.15322 c -0.07,0.28 0.21,0.63 0.46,0.67 0.46,0.08 0.55,-0.45 0.37,-0.78 -0.2,-0.35 -0.7,-0.49 -0.83,0.11 z m -6.390002,13.01 c -2.08,-0.36 -4.44,-1.58 -4.8,-3.85 -0.3,-2.03 0.27,-2.75 1.17,-3.91"
     style="fill:none;stroke:#140533;stroke-width:0.12075703;stroke-linecap:round;stroke-linejoin:round;stroke-miterlimit:22.9255867;stroke-opacity:1"
     id="path174"
     inkscape:connector-curvature="0" />
  <path
     d="m 92.300618,32.81322 c 0,0 -0.5,0.2 -0.58,-0.41 -0.09,-0.61 0.2,-1.3 0.2,-1.3 m -0.05,-0.21 c 0,0 -1.13,-1.14 -0.57,-2.48 a 2.02,2.02 0 0 1 2.22,-1.26 c 1.01,0.16 1.26,1.68 0.64,2.36 m 0.85,0.07 c 0,0 -0.41,-0.46 -0.16,-1.09 0.46,-1.16 1.63,-1.16 2.38,-0.5 m 1.26,42.9 3.770002,-17.92 c 0,0 2.68,0.33 3.43,-1.34 0.93,-2.08 0.71,-4.47 -1.67,-5.32 l 4.43,-19.72 m -8.24,44.38 3.01,-16.04"
     style="fill:none;stroke:#140533;stroke-width:0.12075703;stroke-linecap:round;stroke-linejoin:round;stroke-miterlimit:22.9255867;stroke-opacity:1"
     id="path176"
     inkscape:connector-curvature="0" />
  <path
     d="m 101.85062,54.93322 c 0,0 0.87,0.21 2.38,0.05 1.5,-0.17 3.55,-1.05 3.68,-4.44 0.13,-3.4 -0.17,-3.81 -0.84,-4.78 -0.67,-0.96 -2.51,-1.85 -2.51,-1.85 m 1.35,0.8 3.84,-17.33"
     style="fill:none;stroke:#140533;stroke-width:0.12075703;stroke-linecap:round;stroke-linejoin:round;stroke-miterlimit:22.9255867;stroke-opacity:1"
     id="path178"
     inkscape:connector-curvature="0" />
  <path
     d="m 107.20062,25.67322 4.18,0.83 c 2.77,0.55 5.28,1.26 6.79,1.64 1.5,0.37 3.39,0.8 4.69,1.04 1.3,0.25 2.22,0.46 2.22,0.46 0,0 -2.06,11.73 -2.39,14.16 a 95.99,95.99 0 0 1 -2.01,10.55 c -0.84,2.93 -3.6,15.07 -3.94,17.75 -0.33,2.68 -0.5,3.52 -0.5,3.52 0,0 -13.19,-2.93 -15.2,-3.48 -2.000002,-0.54 -2.800002,-0.67 -2.800002,-0.67"
     style="fill:none;stroke:#140533;stroke-width:0.12075703;stroke-linecap:round;stroke-linejoin:round;stroke-miterlimit:22.9255867;stroke-opacity:1"
     id="path180"
     inkscape:connector-curvature="0" />
  <path
     d="m 98.550618,70.61322 c 0,0 3.040002,0.44 5.130002,0.95 2.1,0.5 4.86,0.92 6.49,1.38 1.63,0.46 3.43,0.59 4.27,0.71 0.84,0.13 2.06,0.29 2.06,0.29"
     style="fill:none;stroke:#140533;stroke-width:0.12075703;stroke-linecap:round;stroke-linejoin:round;stroke-miterlimit:22.9255867;stroke-opacity:1"
     id="path182"
     inkscape:connector-curvature="0" />
  <path
     d="m 114.78062,75.03322 c 0,0 1.21,-6.57 1.67,-8.62 0.46,-2.06 1.6,-7.67 1.84,-9.05 0.25,-1.38 1.55,-4.81 2.3,-8.25 0.76,-3.43 1.26,-8.62 1.51,-10.88 0.25,-2.26 1.51,-7.96 1.51,-7.96 0,0 -4.42,-1.07 -6.61,-1.53 -2.2,-0.46 -4.02,-1.21 -5.15,-1.32 -1.14,-0.1 -2.4,-0.08 -2.62,-0.2 m -0.37,38.52 c -0.55,-0.3 -2.94,-1.85 -4.4,-1.55 -1.47,0.3 -2.22,1.34 -2.22,2.26 0,0.92 0.75,2 1.42,2.05 0.67,0.04 1.05,-0.38 0.96,-0.8 -0.08,-0.41 -0.23,-0.77 -0.52,-0.58 -0.3,0.19 -0.4,0.56 -0.4,0.56"
     style="fill:none;stroke:#140533;stroke-width:0.12075703;stroke-linecap:round;stroke-linejoin:round;stroke-miterlimit:22.9255867;stroke-opacity:1"
     id="path184"
     inkscape:connector-curvature="0" />
  <path
     d="m 102.55062,68.09322 c 0,0 1,1.94 1.92,2.13 0.93,0.19 1.8,-0.92 1.72,-1.64 -0.08,-0.7 -0.17,-1.1 -0.48,-1.34 -0.31,-0.23 -0.8,-0.44 -0.8,-0.44 m 1.47,-1.29 c 0,0 -0.25,1.55 0.1,2.26 0.36,0.7 0.9,0.75 1.1,0.35 0.18,-0.4 0.16,-0.8 0,-0.88 -0.17,-0.08 -0.24,-0.14 -0.24,-0.14 m 0.72,-0.48 c 0,0 -0.11,1.04 0.25,1.48 0.35,0.44 0.81,0.38 1.02,0.1 0.21,-0.27 0.25,-0.77 0.04,-0.87 m -1.55,2.93 c 0,0 0.46,0.08 0.78,0.25 0.31,0.17 0.4,0.3 0.4,0.3 0,0 -0.74,-0.61 -0.5,-1.1 0.22,-0.48 0.73,-0.56 1.17,-0.02 0.44,0.55 0.56,0.92 0.56,1.2 m 0.09,-5.66 c 0,0 -1.2,1.32 0.02,3.33 a 6.1,6.1 0 0 0 3.6,2.77 c 0.56,0.14 1.17,0.16 1.17,0.16 0,0 -2.01,-1.42 -2.5,-2.26 -0.47,-0.84 -0.54,-1.7 -0.54,-1.7 l 0.38,-0.96 c 0,0 -0.02,0.97 0.4,1.53 0.42,0.57 0.8,0.4 1.07,0.48 0.27,0.09 -0.23,-0.81 -0.34,-1.4 l -0.1,-0.54 c 0.13,1.3 1.57,2.77 2.36,2 0.2,-0.18 -0.22,-0.36 -0.22,-0.36 0,0 -0.32,-0.03 -0.53,-0.28 a 4.9,4.9 0 0 1 -0.52,-2.8 c 0.14,-1.26 0.77,-2.06 0.96,-2.48 0.19,-0.42 1.13,-1.38 1.32,-3.43 0.19,-2.05 -0.61,-3.4 -0.61,-3.4"
     style="fill:none;stroke:#140533;stroke-width:0.12075703;stroke-linecap:round;stroke-linejoin:round;stroke-miterlimit:22.9255867;stroke-opacity:1"
     id="path186"
     inkscape:connector-curvature="0" />
  <path
     d="m 111.37062,64.96322 c 0,0 -2.63,-0.04 -4.27,-1.5 a 7.4,7.4 0 0 1 -2.34,-4.07 c -0.3,-1.13 0.17,-2.22 0.17,-2.22 0,0 0.92,-2.3 2.17,-2.26 1.26,0.04 1.68,0.63 1.8,1.43 0.13,0.8 0.05,0.92 0.05,0.92 m -4.61,6.01 c 0,0 0.84,0.25 0.94,-0.07 0.1,-0.31 -0.1,-0.94 -0.1,-0.94 m -1.59,0.13 c 0,0 0.81,0.69 0.81,-0.5 0,-0.8 -0.37,-1.47 -1.02,-1.93 m -0.47,1.76 c 0,0 0.4,0.1 0.42,-0.1 0.02,-0.22 -0.29,-0.76 -0.29,-0.76"
     style="fill:none;stroke:#140533;stroke-width:0.12075703;stroke-linecap:round;stroke-linejoin:round;stroke-miterlimit:22.9255867;stroke-opacity:1"
     id="path188"
     inkscape:connector-curvature="0" />
  <path
     d="m 105.91062,59.10322 c 0,0 0.08,2.53 2.4,3.94 2.33,1.4 4.3,0.68 5.43,-0.55 1.13,-1.23 1.9,-2.3 2.1,-4.27 0.18,-1.97 0.03,-4.58 -3.48,-5.74"
     style="fill:none;stroke:#140533;stroke-width:0.12075703;stroke-linecap:round;stroke-linejoin:round;stroke-miterlimit:22.9255867;stroke-opacity:1"
     id="path190"
     inkscape:connector-curvature="0" />
  <path
     d="m 107.54062,59.38322 c 0,0 0.91,-1.05 1.87,-0.64 0.97,0.42 1.04,0.94 0.81,1.36 -0.23,0.43 -1.28,0.57 -1.53,-0.06 -0.25,-0.63 0.02,-0.63 0.02,-0.63"
     style="fill:none;stroke:#140533;stroke-width:0.12075703;stroke-linecap:round;stroke-linejoin:round;stroke-miterlimit:22.9255867;stroke-opacity:1"
     id="path192"
     inkscape:connector-curvature="0" />
  <path
     d="m 109.19062,60.42322 c 0,0 -0.21,1.29 1.59,1.35 0.67,0.02 0.9,-0.29 1.11,-0.5 0.37,-0.34 0.44,-0.69 0.41,-0.88 -0.04,-0.32 -0.25,-0.85 -0.73,-0.87 -0.48,-0.02 -0.48,0.47 -0.48,0.47 m 0.64,-1.52 c 0,0 -0.1,0.8 0.6,1.2 0.72,0.38 1.77,0 1.65,-1.57 -0.09,-1.07 -1.5,-2.4 -2.33,-1.67 -0.14,0.12 -0.23,0.52 -0.2,0.74 m -2.17,-0.26 c 0.24,-0.52 1.15,-1.12 1.43,0.43 0.07,0.38 0,0.56 0,0.56 m -2.72,-4.73 c 0,0 1.31,2.53 2.72,2.28 1.42,-0.26 1.49,-1.36 1.32,-2.16 -0.17,-0.8 -0.93,-0.93 -0.93,-0.93 m -2.32,-1.72 c 0,0 0.8,0.1 1.19,-0.37 0.4,-0.49 0.63,-1.39 1.34,-1.53 0.71,-0.15 1.72,0.18 1.78,1.23 0.06,1.05 -0.94,1.5 -1.47,1.68"
     style="fill:none;stroke:#140533;stroke-width:0.12075703;stroke-linecap:round;stroke-linejoin:round;stroke-miterlimit:22.9255867;stroke-opacity:1"
     id="path194"
     inkscape:connector-curvature="0" />
  <path
     d="m 112.26062,49.18322 c 0,0 1.42,-0.76 0.41,-3.08 -1,-2.33 -2.85,-2.43 -3.08,-2.4 -0.23,0.01 -1.25,0 -1.5,0.93 -0.26,0.95 0.37,1.72 0.73,1.82 0.35,0.11 0.46,-0.37 0.46,-0.37"
     style="fill:none;stroke:#140533;stroke-width:0.12075703;stroke-linecap:round;stroke-linejoin:round;stroke-miterlimit:22.9255867;stroke-opacity:1"
     id="path196"
     inkscape:connector-curvature="0" />
  <path
     d="m 108.71062,45.59322 c 0,0 -0.67,0.32 -1.17,-0.3 -0.5,-0.64 -0.42,-2.04 0.51,-2.92 1.14,-1.08 3.43,0.57 3.43,1.2 m -1.82,1.59 c 0,0 1.34,-0.13 1.46,1.13 l 0.13,1.3 m 4.06,2.34 c 0,0 1.38,-1.72 -0.38,-4.19 -1.76,-2.47 -3.26,-1.84 -4.23,-5.06 -0.96,-3.23 0.2,-4.3 0.86,-5.36 0.67,-1.07 1.6,-2.22 0.59,-4.02 -1,-1.8 -2.26,-0.63 -2.64,0.7 -0.38,1.35 0.59,2.56 1.05,2.35 0.46,-0.2 0.49,-0.95 0.4,-1.21 -0.08,-0.26 -0.4,-0.6 -0.53,-0.1"
     style="fill:none;stroke:#140533;stroke-width:0.12075703;stroke-linecap:round;stroke-linejoin:round;stroke-miterlimit:22.9255867;stroke-opacity:1"
     id="path198"
     inkscape:connector-curvature="0" />
  <path
     d="m 110.24062,32.13322 c 0.9,-1.04 1.44,0.56 1.29,1.32 m -2.64,1.78 c 0,0 0.58,0.83 1.09,0.5 0.51,-0.32 0.39,-0.77 0.35,-0.89 m -1.74,5.97 c 0,0 0.35,0.42 0.72,-0.23 0.37,-0.65 0.34,-1.44 0.16,-1.99 a 3.74,3.74 0 0 0 -0.25,-0.66 m -1.1,1.95 c 0,0 0.31,0.38 0.45,-0.03 a 2,2 0 0 0 -0.09,-1.2 c -0.1,-0.22 -0.25,-0.3 -0.25,-0.3 m -0.61,0.42 c 0,0 0.14,0.02 0.08,0.43 l -0.07,0.42 m 8.37,10.95 c 0,0 1.25,-0.76 1,-2.47 a 7,7 0 0 0 -2.05,-4.1 c -1.17,-1.26 -2.43,-2.27 -2.55,-4.53 -0.13,-2.26 1.04,-3.97 2.05,-4.56 1,-0.59 3.14,-1.68 4.19,0.3 1.04,1.96 0.08,3.47 -0.34,3.68 -0.42,0.2 -1.72,0.29 -2.1,-0.21 -0.37,-0.5 0.03,-1.22 0.03,-1.22 0,0 0.25,0.53 0.63,0.34 0.37,-0.2 0.31,-0.99 0.14,-1.32 -0.16,-0.34 -0.37,-0.4 -0.37,-0.4"
     style="fill:none;stroke:#140533;stroke-width:0.12075703;stroke-linecap:round;stroke-linejoin:round;stroke-miterlimit:22.9255867;stroke-opacity:1"
     id="path200"
     inkscape:connector-curvature="0" />
  <path
     d="m 116.04062,43.64322 c 0,0 -1.8,-1.93 -2.1,-3.27 -0.29,-1.34 -0.08,-2.89 0.47,-3.6 0.54,-0.71 1.36,-1.76 2.43,-1.38 1.06,0.38 1,1.26 0.94,1.65 -0.07,0.4 -0.13,0.46 -0.13,0.46 m -4.88,-1.63 c 0,0 1.16,-2.11 2.48,-2.49 a 4.18,4.18 0 0 1 3.1,0.04 c 1.35,0.42 2.4,0.63 3.26,0.25 0.86,-0.37 1.34,-1.71 0.9,-2.26 -0.44,-0.54 -1.45,-0.46 -1.49,-0.23 m -7.07,0.83 c 0,0 0.58,0.69 1.21,0.34 0.63,-0.34 0.73,-0.6 0.76,-0.96 0.02,-0.36 -0.37,-0.43 -0.37,-0.43 m -1.75,0.28 c 0,0 0.7,0.19 0.9,-0.2 0.2,-0.39 0.15,-0.64 0.1,-0.74 m 4.31,6.59 c 0,0 0.42,1.02 1,1.04 0.6,0.03 0.57,-0.16 0.47,-0.6 -0.1,-0.44 -0.15,-0.49 -0.15,-0.49 0,0 0.45,0.12 0.56,0.2 0.56,0.44 1.26,-0.08 1.2,-0.62 -0.03,-0.3 -0.24,-0.78 -0.42,-0.88 -0.18,-0.1 -0.2,-0.2 -0.2,-0.2 1.06,0.18 1.8,-1.32 1.68,-2.23 -0.1,-0.71 -0.21,-0.76 -0.21,-0.76"
     style="fill:none;stroke:#140533;stroke-width:0.12075703;stroke-linecap:round;stroke-linejoin:round;stroke-miterlimit:22.9255867;stroke-opacity:1"
     id="path202"
     inkscape:connector-curvature="0" />
  <path
     d="m 116.28062,44.56322 c 0,0 -0.34,-0.63 -0.02,-1.78 0.46,-1.7 1.81,-2.4 3.4,-1.32 1.27,0.86 1.2,2.12 0.8,2.04 0,0 -0.18,-0.8 -0.77,-1.2 -0.59,-0.4 -1.66,-0.32 -1.9,0.3 -0.26,0.6 -0.57,1.77 -0.68,2.32 -0.1,0.54 0.09,0.18 0.44,1.1 0.8,2.06 0.8,3.57 -1.47,5.17"
     style="fill:none;stroke:#140533;stroke-width:0.12075703;stroke-linecap:round;stroke-linejoin:round;stroke-miterlimit:22.9255867;stroke-opacity:1"
     id="path204"
     inkscape:connector-curvature="0" />
  <path
     d="m 113.46062,51.89322 c 0,0 0.92,0.6 2.43,0.25 1.5,-0.35 2.76,-2.07 3.08,-2.8 0.31,-0.73 0,-2.56 -0.34,-3.37 -0.33,-0.82 -0.42,-0.82 -0.42,-0.82 m 1.57,3.38 c 0,0 0.42,-0.35 0.42,-1.13 0,-0.77 -0.75,-2.3 -1.34,-3 -0.58,-0.68 -0.75,-0.9 -0.75,-0.9 m -1.18,11.67 c 0,0 -0.7,0.02 -0.83,-1.13 -0.13,-1.15 0.48,-1.17 0.75,-0.73 0.27,0.43 0.38,1.13 0.38,1.13 m 0.54,-0.15 c 0,0 -0.17,-1.97 0.57,-1.84 0.73,0.12 0.5,1 0.4,1.4 -0.1,0.4 -0.32,0.48 -0.32,0.48 0,0 0.1,0.44 0,0.63 -0.1,0.19 -0.5,-0.02 -0.5,-0.02 m -60.550002,-18.48 c -1.46,0.59 -1.97,2.9 -1.13,4.23 0.84,1.34 3.56,2.22 5.15,1.51 1.6,-0.71 2.01,-1.88 1.6,-3.18 -0.79,-2.41 -3.21,-3.52 -5.62,-2.56 z m 0.62,0.83 c -1.03,0.42 -1.39,2.04 -0.8,2.99 0.6,0.95 2.52,1.57 3.64,1.06 1.12,-0.5 1.42,-1.33 1.12,-2.24 -0.55,-1.7 -2.26,-2.48 -3.96,-1.8 z m 0,0"
     style="fill:none;stroke:#140533;stroke-width:0.12075703;stroke-linecap:round;stroke-linejoin:round;stroke-miterlimit:22.9255867;stroke-opacity:1"
     id="path206"
     inkscape:connector-curvature="0" />
  <path
     d="m 59.050618,38.70322 c -0.3,0.13 -0.4,0.6 -0.24,0.88 0.18,0.27 0.74,0.45 1.07,0.3 0.33,-0.14 0.41,-0.38 0.33,-0.65 -0.16,-0.5 -0.67,-0.72 -1.16,-0.53 z m 0,0"
     style="fill:none;stroke:#140533;stroke-width:0.12076581;stroke-linecap:round;stroke-linejoin:round;stroke-miterlimit:22.9255867;stroke-opacity:1"
     id="path208"
     inkscape:connector-curvature="0" />
  <path
     d="m 100.63062,48.01322 c -0.920002,0.7 -0.740002,1.73 -0.53,2.3 0.21,0.56 1.28,1.32 2.24,1.2 0.97,-0.13 1.22,-1 1.18,-1.94 -0.08,-1.55 -1.7,-2.49 -2.9,-1.56 z m 0.44,0.63 c -0.54,0.43 -0.43,1.04 -0.3,1.37 0.12,0.34 0.75,0.78 1.32,0.7 0.57,-0.07 0.72,-0.59 0.7,-1.13 -0.05,-0.92 -1,-1.48 -1.72,-0.94 z m 0,0"
     style="fill:none;stroke:#140533;stroke-width:0.12075703;stroke-linecap:round;stroke-linejoin:round;stroke-miterlimit:22.9255867;stroke-opacity:1"
     id="path210"
     inkscape:connector-curvature="0" />
  <path
     d="m 101.46062,49.19322 c -0.23,0.17 -0.19,0.43 -0.13,0.57 0.05,0.14 0.31,0.32 0.55,0.3 0.24,-0.04 0.3,-0.26 0.29,-0.48 -0.02,-0.39 -0.42,-0.62 -0.71,-0.4 z m 0,0"
     style="fill:none;stroke:#140533;stroke-width:0.12075213;stroke-linecap:round;stroke-linejoin:round;stroke-miterlimit:22.9255867;stroke-opacity:1"
     id="path212"
     inkscape:connector-curvature="0" />
  <path
     d="m 100.98062,47.82322 -0.89,0.86 m 1.68,-1.01 -1.840002,1.8 m 2.370002,-1.68 -0.68,0.67 m -0.95,0.93 -0.66,0.64 m 2.69,-2.01 -0.55,0.55 m -0.61,0.6 -0.22,0.2 m -0.59,0.58 -0.55,0.54 m 2.85,-2.15 -0.53,0.52 m -0.45,0.44 -0.63,0.62 m -0.43,0.42 -0.52,0.5 m 2.8,-2.15 -0.55,0.55 m -0.56,0.54 -0.3,0.3 m -0.52,0.5 -0.53,0.52 m 2.65,-1.94 -0.67,0.65 m -0.96,0.93 -0.6,0.6 m 2.29,-1.62 -1.82,1.77 m 1.76,-1.07 -1.14,1.1 m -41.640002,-15.07 -0.73,0.72 m -2.9,2.83 -0.78,0.76 m 4.83,-4.1 -0.68,0.67 m -3.15,3.08 -0.72,0.7 m 4.95,-4.19 -0.67,0.65 m -1.17,1.12 -0.88,0.86 m -1.2,1.18 -0.7,0.68 m 4.94,-4.22 -0.66,0.65 m -1.13,1.1 -0.92,0.9 m -1.18,1.15 -0.69,0.67 m 4.9,-4.14 -0.68,0.66 m -1.23,1.2 -0.6,0.58 m -1.27,1.25 -0.7,0.68 m 4.75,-4.02 -0.7,0.69 m -2.89,2.82 -0.72,0.7 m 4.56,-3.81 -0.75,0.73 m -2.55,2.5 -0.77,0.75 m 4.28,-3.51 -0.82,0.8 m -2.05,2 -0.86,0.85 m 3.89,-3.17 -1.04,1.03 m -1.15,1.11 -1.13,1.1 m 3.42,-2.7 -2.77,2.7 m 2.72,-2.01 -1.9,1.86 m -3.77,-5.84 -1.25,1.22 m 2.17,-1.48 -2.44,2.4 m 3.16,-2.47 -1.46,1.42 m -0.14,0.14 -1.61,1.59 m 3.82,-3.11 -0.96,0.94 m -1.76,1.72 -1.04,1.01 m 4.29,-3.56 -0.8,0.79 m -2.47,2.4 -0.87,0.86 m 43.970002,8.53 0.37,1.89 m -0.03,-2.47 0.57,2.9 m -0.17,-3.25 0.16,0.87 m 0.35,1.74 0.17,0.87 m -0.27,-3.68 0.16,0.78 m 0.13,0.69 0.17,0.83 m 0.14,0.7 0.15,0.79 m -0.3,-3.86 0.16,0.79 m 0.15,0.72 0.15,0.79 m 0.15,0.74 0.16,0.8 m -0.3,-3.79 0.18,0.92 m 0.35,1.78 0.2,0.96 m -0.22,-3.42 0.61,3.06 m -0.07,-2.55 0.35,1.79 m -47.610002,-11.63 0.43,2.2 m -0.15,-3.13 0.74,3.72 m -0.41,-4.25 0.42,2.16 m 0.13,0.66 0.35,1.76 m -0.52,-4.97 0.28,1.38 m 0.52,2.65 0.24,1.2 m -0.63,-5.48 0.22,1.12 m 0.69,3.48 0.21,1.07 m -0.69,-5.83 0.2,0.99 m 0.79,3.98 0.2,1 m -0.72,-6.1 0.18,0.95 m 0.39,1.94 0.1,0.52 m 0.36,1.83 0.19,0.95 m -0.77,-6.26 0.18,0.93 m 0.32,1.6 0.24,1.24 m 0.32,1.6 0.18,0.93 m -0.79,-6.33 0.18,0.93 m 0.32,1.6 0.25,1.26 m 0.31,1.6 0.19,0.94 m -0.78,-6.3 0.19,0.95 m 0.38,1.95 0.1,0.5 m 0.38,1.88 0.18,0.96 m -0.76,-6.16 0.2,1 m 0.8,4.03 0.2,1.01 m -0.7,-5.9 0.22,1.12 m 0.7,3.5 0.2,1.09 m -0.62,-5.48 0.27,1.34 m 0.52,2.65 0.25,1.25 m -0.5,-4.9 0.9,4.57 m -0.38,-4.08 0.72,3.66 m -0.06,-2.67 0.37,1.86 m -1.16,-2.99 -2.8,-1.17 m 3.64,2.42 -1.57,-0.66 m -1.97,-0.83 -1.63,-0.67 m 5.49,3.19 -1.16,-0.49 m -4.1,-1.71 -1.14,-0.47 m 6.37,3.54 -1.04,-0.44 m -1.83,-0.76 -1.21,-0.5 m -1.77,-0.75 -1.01,-0.42 m 6.51,3.62 -1.05,-0.44 m -1.96,-0.81 -0.92,-0.39 m -1.85,-0.77 -1.02,-0.43 m 6.21,3.42 -1.18,-0.48 m -4.02,-1.68 -1.1,-0.47 m 5.35,3.14 -1.97,-0.82 m -1.48,-0.62 -1.77,-0.74 m 3.41,2.31 -2.56,-1.07 m 45.830002,6.63 -0.7,-0.3 m 1.51,1.54 -1,-0.42 m -0.84,-0.35 -1,-0.42 m 2.87,2.2 -0.71,-0.3 m -0.61,-0.26 -0.83,-0.34 m -0.6,-0.25 -0.7,-0.3 m 3.17,2.23 -0.85,-0.36 m -1.61,-0.67 -0.800002,-0.33 m 2.370002,1.87 -1.98,-0.83 m -40.200002,-13.44 -3.09,1.19 m 4.03,-0.66 -4.16,1.6 m 4.74,-0.88 -4.52,1.74 m 4.85,-0.97 -4.23,1.61 m 4.27,-0.75 -3.27,1.26 m 43.480002,7.26 -1.54,0.59 m 2.05,0.11 -1.97,0.75 m 1.92,0.2 -1.1,0.42"
     style="fill:none;stroke:#140533;stroke-width:0.04597476;stroke-linecap:round;stroke-linejoin:round;stroke-miterlimit:22.9255867;stroke-opacity:1"
     id="path214"
     inkscape:connector-curvature="0" />
  <path
     d="m 2.5606183,66.06322 2.02,3.01 -3.02,4.94"
     style="fill:none;stroke:#140533;stroke-width:0.12075703;stroke-linecap:round;stroke-linejoin:round;stroke-miterlimit:22.9255867;stroke-opacity:1"
     id="path216"
     inkscape:connector-curvature="0" />
  <path
     d="m 0.41061829,70.37322 4.17000001,-1.3 5.8599997,1.47"
     style="fill:none;stroke:#140533;stroke-width:0.12075703;stroke-linecap:round;stroke-linejoin:round;stroke-miterlimit:22.9255867;stroke-opacity:1"
     id="path218"
     inkscape:connector-curvature="0" />
  <path
     d="m 0.41061829,67.44322 4.17000001,1.63 1.42,5.78 m 3.1,-1.55 -4.52,-4.23 3.22,-1.84"
     style="fill:none;stroke:#140533;stroke-width:0.12075703;stroke-linecap:round;stroke-linejoin:round;stroke-miterlimit:22.9255867;stroke-opacity:1"
     id="path220"
     inkscape:connector-curvature="0" />
  <path
     d="m 91.160618,97.29322 -3.99,3.89 m 3.59,-2.38 -2.9,2.84 m 2.5,-1.28 -1.59,1.56 m 1.22,-0.13 -0.52,0.51 m -36.09,-37.41 -12.18,11.9 m -16.28,15.9 -10.69,10.45 m 40.06,-38 -12.2,11.93 m -14.89,14.54 -11.8,11.53 m 39.81,-37.74 -12.22,11.94 m -13.82,13.5 -12.58,12.3 m 39.47,-37.5 -12.23,11.95 m -13.05,12.75 -13.1,12.8 m 39.3,-37.23 -12.22,11.95 m -12.43,12.14 -13.44,13.14 m 39,-36.98 -12.25,11.97 m -11.94,11.66 -13.66,13.35 m 38.77,-36.72 -12.25,11.98 m -11.54,11.27 -13.79,13.47 m 38.56,-36.45 -12.26,12 m -11.2,10.93 -13.84,13.53 m 38.22,-36.19 -12.25,11.98 m -9.1,8.86 -1,1.01 m -0.82,0.8 -13.85,13.53 m 37.93,-35.92 -12.26,11.97 m -8.67,8.47 -15.83,15.48 m 37.69,-35.66 -12.27,11.98 m -8.68,8.48 -15.55,15.2 m 37.4,-35.41 -12.27,11.99 m -9.48,9.26 -14.49,14.16 m 37.16,-35.15 -12.26,12 m -9.93,9.7 -13.78,13.46 m 36.82,-34.92 -12.26,11.99 m -9.72,9.49 -13.74,13.43 m 36.65,-34.65 -12.26,11.98 m -9.5,9.27 -13.7,13.4 m 36.36,-34.39 -12.26,11.98 m -9.26,9.04 -13.68,13.37 m 36.12,-34.13 -12.25,11.98 m -9.03,8.83 -13.65,13.33 m 35.9,-33.86 -12.25,11.96 m -8.8,8.6 -13.6,13.29 m 35.57,-33.59 -12.23,11.94 m -8.56,8.38 -13.58,13.26 m 35.27,-33.33 -12.23,11.95 m -8.34,8.16 -13.55,13.23 m 35.05,-33.08 -12.22,11.95 m -8.13,7.93 -13.5,13.2 m 34.76,-32.82 -12.21,11.94 m -7.9,7.71 -13.48,13.17 m 34.52,-32.56 -12.21,11.93 m -7.68,7.5 -13.44,13.13 m 34.23,-32.3 -12.2,11.91 m -7.46,7.29 -13.4,13.1 m 33.99,-32.05 -12.2,11.91 m -7.23,7.07 -13.37,13.07 m 33.64,-31.8 -12.17,11.9 m -7.03,6.86 -13.35,13.04 m 33.48,-31.55 -12.17,11.9 m -6.8,6.64 -13.32,13 m 33.19,-31.28 -12.15,11.87 m -6.6,6.45 -13.27,12.97 m 32.95,-31.03 -12.14,11.86 m -6.38,6.23 -13.24,12.94 m 32.75,-30.75 -12.12,11.85 m -6.14,6 -13.2,12.9 m 32.38,-30.48 -12.1,11.82 m -5.98,5.84 -13.12,12.82 m 32.11,-30.23 -13.16,12.85 m -4.72,4.61 -13.06,12.77 m 31.86,-29.97 -15.61,15.25 m -1.96,1.91 -13.1,12.8 m 31.58,-29.7 -30.4,29.7 m 31.33,-29.44 -30.14,29.45 m 31.04,-29.19 -29.88,29.19 m 30.8,-28.93 -29.6,28.93 m 30.45,-28.69 -29.35,28.69 m 30.28,-28.43 -29.1,28.43 m 30,-28.18 -28.84,28.18 m 29.76,-27.92 -28.57,27.92 m 29.59,-27.63 -28.27,27.63 m 29.2,-27.37 -28.01,27.37 m 28.91,-27.11 -27.75,27.1 m 27.81,-26 -26.62,26 m 26.06,-24.3 -24.88,24.3 m 25.19,-23.44 -24,23.45 m 24.88,-23.17 -23.72,23.17 m 24.61,-22.88 -23.42,22.88 m 24.25,-22.62 -23.15,22.62 m 23.12,-21.42 -21.93,21.42 m 21.53,-19.9 -20.36,19.9 m 19.96,-18.35 -18.77,18.35 m 18.34,-16.67 -17.06,16.67 m 16.66,-15.11 -12,11.73 m -2.36,2.3 -1.1,1.08 m 15.06,-13.59 -8.4,8.21 m 8,-6.65 -7.55,7.38 m 7.15,-5.84 -6.73,6.57 m 6.33,-5.02 -5.86,5.72 m 5.46,-4.19 -4.96,4.84 m -38.29,-100.03000044 -9.12,8.92000004 m -17.35,16.9500004 -2.33,2.27 m -2.71,2.65 -15.93999971,15.56 M 49.280618,0.74321956 l -9.1,8.89000004 m -18.75,18.3100004 -0.96,0.94 m -2.75,2.7 -17.27999971,16.86 M 50.280618,0.92321956 l -9.09,8.88000004 m -22.53,22.0100004 -18.59999971,18.18 M 51.210618,1.0932196 l -9.09,8.87 m -22.6,22.0800004 -19.45999971,19.02 M 52.220618,1.2632196 l -9.09,8.8800004 m -22.66,22.14 -20.40999971,19.94 M 53.220618,1.4232196 l -9.1,8.9000004 m -24.06,23.49 -19.99999971,19.54 M 54.240618,1.5932196 l -9.11,8.9000004 m -25.5,24.91 -19.56999971,19.12 M 55.330618,1.7532196 l -9.13,8.9300004 m -27.02,26.39 -19.11999971,18.68 M 56.380618,1.8932196 l -9.17,8.9600004 m -28.45,27.8 -18.69999971,18.26 M 57.430618,2.0232196 l -9.23,9.0000004 m -29.86,29.19 -18.27999971,17.85 M 58.490618,2.1432196 l -9.28,9.0600004 m -31.3,30.59 -17.84999971,17.43 M 59.530618,2.2632196 l -9.33,9.1200004 m -32.7,31.94 -17.43999971,17.04 M 60.600618,2.3932196 l -9.39,9.1600004 m -34.13,33.35 -17.01999971,16.62 M 61.580618,2.4932196 l -9.44,9.2200004 m -35.45,34.64 -16.62999971,16.24 M 62.640618,2.6232196 l -9.48,9.2700004 m -36.9,36.04 -16.19999971,15.82 M 63.680618,2.7432196 l -9.54,9.3200004 m -38.3,37.41 -15.75999971,15.42 M 64.730618,2.8832196 l -9.58,9.3600004 m -39.73,38.81 -14.89999971,14.56 M 65.800618,3.0532196 l -9.6,9.3800004 m -41.21,40.28 -13.4899997,13.16 M 66.740618,3.2932196 l -9.52,9.3100004 m -42.37,41.4 -12.3499997,12.06 M 67.710618,3.4932196 l -9.5,9.2800004 m -42.47,41.48 -12.2599997,11.99 M 68.710618,3.6732196 l -9.5,9.2800004 m -42.54,41.56 -12.1799997,11.9 M 69.710618,3.8532196 l -9.5,9.2800004 m -42.63,41.64 -12.0999997,11.83 M 70.710618,4.0332196 l -9.49,9.2600004 m -42.71,41.74 -12.0499997,11.77 M 71.700618,4.2032196 l -9.5,9.2800004 m -42.79,41.8 -11.9999997,11.73 M 72.700618,4.3932196 l -9.48,9.2600004 m -42.89,41.9 -11.9599997,11.69 M 73.620618,4.5632196 l -9.47,9.2500004 m -42.97,41.98 -11.9499997,11.68 M 74.620618,4.7432196 l -9.46,9.2500004 m -43.05,42.06 -11.96,11.68 m 65.44,-62.8000004 -9.45,9.2300004 m -43.13,42.15 -11.95,11.67 m 65.52,-62.8500004 -9.43,9.2100004 m -43.21,42.23 -11.96,11.67 m 65.66,-62.8900004 -9.4,9.1800004 m -43.31,42.32 -11.95,11.67 m 65.63,-62.9500004 -9.36,9.1400004 m -43.4,42.4 -11.95,11.67 m 65.64,-62.9900004 -9.3,9.0900004 m -43.48,42.48 -11.95,11.68 m 65.67,-63.0000004 -9.23,9.0200004 m -43.57,42.56 -11.95,11.68 m 65.63,-62.9700004 -9.11,8.9000004 m -43.66,42.66 -11.95,11.68 m -16.27999971,15.89 -0.3,0.3 M 82.230618,6.6432196 l -8.97,8.7700004 m -43.74,42.73 -11.96,11.68 m -12.1499997,11.87 -5.34000001,5.22 M 83.070618,6.9632196 l -8.83,8.6200004 m -43.82,42.82 -11.96,11.68 m -12.4699997,12.18 -5.92000001,5.8 M 83.920618,7.2932196 l -8.66,8.4700004 m -43.92,42.9 -11.96,11.68 m -12.7999997,12.51 -6.51000001,6.37 M 84.700618,7.6132196 l -8.52,8.3100004 m -43.99,42.98 -11.96,11.69 m -13.0999997,12.8 -7.07000001,6.9 M 85.540618,7.9532196 l -8.34,8.1500004 m -44.08,43.06 -11.97,11.7 m -13.4299997,13.11 -7.65000001,7.48 M 86.360618,8.2932196 l -8.18,7.9800004 m -44.16,43.15 -11.97,11.7 m -13.7499997,13.43 -8.23000001,8.04 M 87.190618,8.6332196 l -8,7.8200004 m -44.25,43.23 -11.97,11.7 m -14.0799997,13.75 -8.82000001,8.62 M 88.110618,9.0232196 l -7.8,7.6200004 m -44.35,43.33 -11.98,11.7 m -14.4399997,14.11 -9.11000001,8.9 M 88.940618,9.3732196 l -7.62,7.4500004 m -44.43,43.4 -11.99,11.72 m -14.77,14.43 -8.9699997,8.76 M 89.750618,9.7232196 l -7.45,7.2700004 m -44.51,43.5 -12,11.7 m -15.08,14.75 -8.8299997,8.62 m 88.6999997,-85.49 -7.27,7.1 m -44.6,43.57 -12,11.72 m -15.4,15.06 -8.6999997,8.49 m 88.7799997,-85.58 -7.08,6.91 m -44.68,43.66 -12,11.73 m -15.75,15.36 -8.5499997,8.35 m 88.8899997,-85.65 -6.9,6.73 m -44.76,43.74 -12.01,11.74 m -16.07,15.69 -8.3999997,8.2 m 88.9399997,-85.75 -6.71,6.55 m -44.86,43.83 -12.02,11.74 m -16.37,16 -8.2699997,8.07 m 89.0499997,-85.84 -6.52,6.38 m -44.94,43.9 -12.03,11.76 m -13.44,13.13 -11.6499997,11.38 m 89.3399997,-86.21 -6.35,6.2 m -45.02,43.99 -12.04,11.75 m -13.75,13.44 -13.6599997,13.35 m 90.8599997,-87.61 -5.38,5.26 m -45.11,44.07 -12.04,11.76 m -14.1,13.77 -15.6799997,15.33 m 91.6599997,-88.41 -3.74,3.65 m -45.2,44.15 -12.05,11.78 m -14.42,14.08 -15.0899997,14.74 m 89.8199997,-86.58 -2.05,2 m -45.28,44.24 -12.07,11.8 m -14.75,14.4 -14.4799997,14.15 m 87.9099997,-84.63 -0.25,0.24 m -45.37,44.33 -12.07,11.8 m -15.12,14.76 -13.8099997,13.5 m 41.9299997,-39.8 -12.1,11.8 m -15.44,15.11 -13.1999997,12.9 m 41.6399997,-39.56 -12.1,11.82 m -15.78,15.42 -12.5999997,12.3 m 41.3999997,-39.28 -12.11,11.84 m -16.11,15.74 -11.9899997,11.7 m 41.1199997,-39.02 -12.13,11.85 m -16.43,16.06 -11.38,11.12 m 40.87,-38.77 -12.15,11.87 m -16.77,16.38 -10.76,10.52 m 40.58,-38.51 -12.17,11.89 m -17.08,16.69 -10.17,9.93 M 0.32061829,0.02321956 l -0.25,0.25 m 1.44000001,-0.25 L 0.07061829,1.4432196 M 2.6906183,0.02321956 0.85061829,1.8232196 m 3.03000001,-1.80000004 -2.03,1.99000004 m 3.2,-1.99000004 -2.23,2.17000004 m 3.42,-2.17000004 -2.42,2.36000004 m 3.51,-2.36000004 -2.59,2.53000004 m 3.78,-2.53000004 -2.78,2.72000004 m 3.95,-2.72000004 -2.98,2.91000004 M 10.880618,0.02321956 7.7106183,3.1232196 M 12.160618,0.02321956 8.7806183,3.3232196 M 13.360618,0.02321956 9.7606183,3.5232196 m 4.7599997,-3.50000004 -3.78,3.70000004 m 4.97,-3.70000004 -3.99,3.90000004 m 5.16,-3.90000004 -4.19,4.10000004 m -0.64,0.63 -0.88,0.86 m 6.9,-5.59000004 -4.4,4.30000004 m -0.68,0.67 -2.18,2.12 m 8.43,-7.09000004 -4.61,4.50000004 m -0.72,0.71 -3.45,3.36 m 9.97,-8.57000004 -4.84,4.73000004 m -0.74,0.73 -4.73,4.6200004 m 11.4,-10.08000044 -5.05,4.94000004 m -0.76,0.74 L 9.8006183,11.48322 M 22.720618,0.02321956 l -5.3,5.17000004 m -0.77,0.75 L 9.4506183,12.99322 M 23.880618,0.02321956 l -5.52,5.40000004 m -0.79,0.76 L 9.1006183,14.46322 M 25.070618,0.02321956 l -5.75,5.62000004 m -0.8,0.79 L 8.7506183,15.97322 M 26.390618,0.02321956 l -6,5.86000004 m -0.84,0.82 L 8.3606183,17.63322 M 27.580618,0.02321956 l -6.23,6.08000004 m -0.85,0.84 L 8.0006183,19.14322 M 28.740618,0.02321956 l -6.44,6.30000004 m -0.89,0.86 L 7.6606183,20.61322 M 29.930618,0.02321956 l -6.66,6.51000004 m -0.91,0.9 L 7.3106183,22.13322 M 31.110618,0.02321956 l -6.88,6.72000004 m -0.95,0.93 L 6.9706183,23.61322 M 32.300618,0.02321956 l -7.1,6.93000004 m -0.98,0.96 L 6.6206183,25.11322 M 33.460618,0.02321956 l -7.3,7.14000004 m -1.02,0.99 L 6.9006183,25.97322 M 34.660618,0.02321956 l -7.52,7.34000004 m -1.05,1.03 L 7.8806183,26.19322 M 35.750618,0.02321956 l -7.7,7.53000004 m -1.66,1.61 L 8.7806183,26.37322 m -2.35,2.3 -0.7,0.69 M 36.940618,0.02321956 l -7.9,7.72000004 m -3.06,3.0000004 -16.2199997,15.83 m -2.38,2.33 -2.1,2.04 M 38.100618,0.02321956 l -8.08,7.90000004 m -4.44,4.3400004 -14.87,14.53 m -2.4099997,2.35 -3.45,3.37 M 39.290618,0.02321956 l -8.25,8.07000004 m -5.88,5.7400004 -13.48,13.17 m -2.4399997,2.39 -4.83,4.71 M 40.580618,0.02321956 l -8.45,8.27000004 m -7.42,7.2400004 -11.97,11.7 m -2.49,2.43 -6.3199997,6.17 M 41.770618,0.02321956 l -8.63,8.43000004 m -8.84,8.6400004 -10.59,10.34 m -2.51,2.46 -7.6999997,7.53 M 42.930618,0.02321956 l -8.8,8.60000004 m -10.24,10.0000004 -9.22,9.02 m -2.55,2.49 -9.0599997,8.85 M 44.120618,0.02321956 l -8.96,8.77000004 m -11.68,11.4000004 -7.84,7.66 m -2.58,2.52 -10.4399997,10.2 M 45.300618,0.02321956 l -9.14,8.93000004 m -13.1,12.7900004 -6.46,6.32 m -2.62,2.55 -11.7999997,11.53 M 46.380618,0.13321956 l -9.2,9.00000004 m -14.52,14.1700004 -5.08,4.95 m -2.65,2.6 -13.1899997,12.88 M 47.330618,0.34321956 l -9.16,8.95000004 m -15.92,15.5500004 -3.71,3.63 m -2.69,2.62 -14.5399997,14.2"
     style="fill:none;stroke:#140533;stroke-width:0.04597476;stroke-linecap:round;stroke-linejoin:round;stroke-miterlimit:22.9255867;stroke-opacity:1"
     id="path222"
     inkscape:connector-curvature="0" />
</svg>
