<svg xmlns="http://www.w3.org/2000/svg" width="210mm" height="297mm" viewBox="0 0 210 297"><path d="M29.84 96.15c10.42 1.83 33.72 8.98 40.33 11.04 11 3.44 28.99 8.14 28.84 8.2-.08.04-.59.87-1.42 2.09a13.52 13.52 0 0 0-1.45 3.55c-.05.18-24.75-.65-24.75-.65l-.1-2.07-3.32.26.15 1.76s-3.97-.32-7.93.88c-3.95 1.2-6.7 3.01-6.7 3.01l-6.72-6.96-3.86 2.93-8.23-8.23-4.97 4.5m.09 8.76 5.24 3.22-3.07 5.4m87.29-.1 5.87-22.53-3.4-.88 1.2-3.55-78.3-22.13L50.44 63 35.6 59.26 29.7 80.7M41.06 35.3l-4.99 21.3 15.05 3.14 5.42-20.51zM30.05 32.4s12.3 2.25 15.91 3.15c3.62.9 10.07 2.32 12.39 2.77 2.32.46 9.48 1.62 11.74 2l52.38 9.17M126.34 111.6l2.45.71-.45 1.68 11.29 2.13.19-1.07 1.6.31s-.44 1.4.79 1.78c1.22.39 1.68-1.1 1.7-1.12.03-.02 1.43.32 1.42.34l-.29 1.05 2.68.48 8.03 1.94M128.7 112.62l8.65 1.62M156.1 118.46l-8.09-1.95" style="fill:none;stroke:#140533;stroke-width:.12077133;stroke-linecap:round;stroke-linejoin:round;stroke-miterlimit:22.9255867;stroke-opacity:1"/><path d="m174.41 116.7-11.74-2.97-7.61-10.77-3.62-.58 5.8-34.58 3.5.4 5.22-13.3-13.34-1.7-.98 3.06-29.13-6.73 3.6-10.08m.77 1.21-.8 2.36s3.06.51 4.57 2.9c1.52 2.39 1.46 4.74 1.46 4.74l18.62 4.37 1.03-3.38 15.84 2.32-6.13 15.6-3.37-.4-5.3 32.32 2.8.52 7.54 10.71 11.27 3.03m-48.65-71.43-1.36 4.5 6.39 1.37s-.32-2.2-1.16-3.3a6.5 6.5 0 0 0-1.99-1.99c-.83-.52-1.88-.58-1.88-.58zm0 0" style="fill:none;stroke:#140533;stroke-width:.12075703;stroke-linecap:round;stroke-linejoin:round;stroke-miterlimit:22.9255867;stroke-opacity:1"/><path d="M99 115.4s3.77-4.6 9.41-4.73c5.64-.13 8.5 4.64 9.03 6.9.53 2.26-.45 9.13-4.88 12.22a11.29 11.29 0 0 1-15.05-1.48c-1.34-1.54-1.66-3.2-1.59-5.7.06-2.2 1.34-5.06 3.09-7.21zm0 0" style="fill:none;stroke:#140533;stroke-width:.12062112;stroke-linecap:round;stroke-linejoin:round;stroke-miterlimit:22.9255867;stroke-opacity:1"/><path d="M30.09 103.42s1.89 3.34 5.55 2.2c3.67-1.16 4.4-3.67 4.71-4.5.32-.85.67-2.4.67-2.4l1.72.46s-1.55 6.33-4.69 7.58c-3.14 1.26-4.76 1.31-6.23.74-1.46-.58-1.73-1.05-1.73-1.05" style="fill:none;stroke:#140533;stroke-width:.12075703;stroke-linecap:round;stroke-linejoin:round;stroke-miterlimit:22.9255867;stroke-opacity:1"/><path d="m157.64 52.46.25 1.38m2.67 14.3.25 1.31m8.4 44.87.2 1.08M158.24 52.55l.25 1.36M161 67.34l.41 2.19m8.41 44.95.2 1.07M158.85 52.64l.26 1.35m2.3 12.32.41 2.22m8.63 46.12.2 1.06M159.42 52.73l.25 1.33m2.11 11.3.42 2.22m8.83 47.22.2 1.06M160.04 52.82l.24 1.32m1.9 10.19.42 2.21m9.06 48.43.2 1.05M160.64 52.9l.24 1.32m1.7 9.1.42 2.21m9.28 49.61.2 1.03M161.25 53l.25 1.3m1.5 7.99.4 2.21m9.5 50.8.2 1.03M161.9 53.1l.24 1.28m1.28 6.82.41 2.2m9.74 52.09.2 1.01M162.52 53.18l.24 1.27m1.07 5.72.4 2.2m9.98 53.29.16.86M163.13 53.27l.23 1.26m.87 4.62.41 2.2M163.74 53.36l.24 1.25m.65 3.5.41 2.21M164.34 53.45l.24 1.24m.45 2.42.41 2.2M164.96 53.54l.23 1.22m.24 1.31.42 2.2M165.53 53.62l.22 1.22m.06.28.41 2.2M166.14 53.71l.49 2.58M166.75 53.8l.27 1.48M167.36 53.9l.07.35M122.55 49.27l.05.24M122.92 48.29l.25 1.36M123.32 47.22l.48 2.57M123.7 46.17l.7 3.76M124.1 45.1l.53 2.79m.18.99.22 1.2M124.53 43.98l.49 2.62m.45 2.41.23 1.22M124.93 42.9l.46 2.47m.7 3.78.23 1.22M125.32 41.85l.45 2.43m.94 5 .23 1.24M125.72 40.78l.37 2.01m.04.2.26 1.39m.94 5.03.24 1.25M126.1 39.74l.37 1.95m.28 1.46.26 1.41m.93 4.98.24 1.26M127.39 43.37l.28 1.53m.9 4.77.23 1.28M127.99 43.63l.32 1.73m.83 4.44.24 1.28M128.65 44l.4 2.16m.71 3.77.25 1.3M129.33 44.47l.51 2.76m.53 2.83.25 1.3M130.05 45.14l1.2 6.37M130.91 46.38l.99 5.28M132.31 50.67l.21 1.14M132.93 50.82l.2 1.13M133.55 50.96l.21 1.13M134.17 51.1l.21 1.13M134.8 51.26l.2 1.12M135.4 51.4l.22 1.12M136.03 51.55l.21 1.11M136.61 51.68l.21 1.12M137.24 51.83l.2 1.11M137.85 51.97l.2 1.11M138.48 52.12l.2 1.1M139.15 52.28l.2 1.1M139.78 52.42l.2 1.1M140.39 52.57l.2 1.1M141.02 52.71l.2 1.1M141.63 52.86l.21 1.1M142.26 53l.2 1.1m8.98 47.99.05.26M142.87 53.15l.2 1.1m8.65 46.19.37 2M143.5 53.3l.2 1.09m8.3 44.36.71 3.8M144.08 53.43l.2 1.1m7.98 42.67.64 3.38m.17.92.2 1.13M144.7 53.58l.2 1.09m7.65 40.84.63 3.37m.5 2.74.22 1.11M145.32 53.72l.2 1.09m7.3 39.05.63 3.35m.84 4.52.21 1.1M145.94 53.87l.2 1.08m6.97 37.22.62 3.33m1.18 6.34.24 1.27M146.63 54.03l.2 1.08m6.59 35.2.62 3.31m1.57 8.41.44 2.35M147.26 54.18l.2 1.08m6.24 33.36.62 3.3m2.1 11.27.45 2.35M147.87 54.32l.2 1.08m5.9 31.57.62 3.28m2.63 14.08.44 2.33M148.5 54.47l.2 1.07m5.56 29.74.61 3.26m3.17 16.95.44 2.33M149.12 54.61l.2 1.07m5.22 27.94.6 3.24m3.7 19.77.44 2.32M149.74 54.76l.2 1.07m4.89 26.1.6 3.22m4.23 22.64.43 2.32M150.35 54.9l.2 1.07m4.55 24.31.6 3.2m4.76 25.44.43 2.31M150.86 54.42l.32 1.7m4.2 22.48.6 3.18m5.3 28.3.43 2.3M151.2 53.3l.5 2.6m3.95 21.14.59 3.17m5.79 30.94.43 2.3M151.58 52.08l.5 2.65m3.85 20.63.59 3.14m6.32 33.81.28 1.5M152.08 51.65l.36 1.93m3.77 20.13.58 3.12m6.73 35.96.22 1.18M152.7 51.74l.27 1.47m3.52 18.8.58 3.12m7.08 37.83.22 1.17M153.36 51.84l.27 1.46m3.16 16.9.58 3.09m7.46 39.85.21 1.16M153.98 51.93l.27 1.44m2.83 15.14.57 3.07m7.8 41.73.22 1.15M154.58 52.02l.27 1.43m2.68 14.34.4 2.12m8.14 43.56.22 1.14M155.2 52.1l.26 1.43m2.68 14.33.24 1.3m8.32 44.48.21 1.13M155.8 52.2l.27 1.4m2.67 14.33.25 1.3m8.34 44.58.2 1.12M156.42 52.29l.26 1.4m2.68 14.3.24 1.32m8.36 44.67.2 1.1M157.02 52.37l.26 1.39m2.67 14.3.25 1.32m8.37 44.77.2 1.09M98.31 116.71l2.66 14.24M98.75 115.91l2.86 15.32M99.2 115.14l3.05 16.32M99.67 114.68l3.17 16.96M100.18 114.22l3.29 17.57M100.69 113.8l3.38 18.1M101.21 113.4l3.48 18.58M101.77 113.01l3.56 19.01M102.3 112.66l3.63 19.37M102.84 112.35 106.5 132M103.38 112.05l3.72 19.9M103.92 111.79l3.75 20.09M104.47 111.54l3.78 20.22M104.98 111.34l3.8 20.29M105.55 111.15l3.8 20.3M106.1 110.99l3.8 20.27M106.67 110.85l3.78 20.17M107.28 110.74l3.74 20M107.87 110.67l3.7 19.78M108.44 110.63l3.65 19.5M109.04 110.62l3.58 19.14M109.64 110.65l3.5 18.72M110.25 110.73l3.4 18.18M110.86 110.86l3.28 17.53M111.5 111.04l3.13 16.76M112.09 111.26l2.98 15.93M112.74 111.58l2.78 14.86M113.4 111.97l2.55 13.65M114.1 112.47l2.27 12.18M114.87 113.18l1.93 10.27M115.63 114.04l1.52 8.08M116.44 115.23l.99 5.26M95.93 122.98l.7 3.76M96.12 120.92l1.38 7.38M96.53 119.87l1.73 9.26M96.96 119.04l2 10.69M97.41 118.25l2.24 11.97M97.86 117.5l2.45 13.11M30.05 104.62l.4 2.15M30.54 104.04l.58 3.12M31.25 104.75l.5 2.7M31.94 105.22l.46 2.43M32.55 105.51l.42 2.25M33.18 105.7l.4 2.1M33.78 105.8l.38 1.98M34.38 105.8l.36 1.9M35 105.72l.35 1.87M35.57 105.58l.35 1.86M36.12 105.39l.35 1.89M36.67 105.16l.37 1.92M37.21 104.88l.38 2M37.75 104.55l.4 2.1M38.27 104.17l.4 2.2M38.78 103.7l.42 2.26M39.23 103.18l.43 2.31M39.7 102.47l.45 2.42M40.12 101.59l.49 2.62M40.5 100.48l.56 2.93M40.89 99.06l.63 3.38M41.45 98.83l.48 2.6M42.07 99.05l.24 1.28M156.47 78.82l-1.16.21M42.47 99.8l-1.86.34M156.33 79.67l-1.16.21M42.2 100.66l-1.87.35M156.18 80.54l-1.16.22M41.88 101.57l-1.9.35m-9.7 1.79-.23.04M156.05 81.35l-1.16.21M41.53 102.41l-2.02.38m-8.66 1.59-.8.15M155.9 82.22l-1.16.21M41.1 103.34l-2.4.44m-7 1.29-1.64.3M155.77 83.07l-1.17.22M40.57 104.26l-3.35.62m-4.23.78-2.94.54M155.62 83.94l-1.17.22M39.88 105.24l-9.2 1.69M155.47 84.87l-1.17.21M38.7 106.35l-6.6 1.21M155.33 85.74l-1.18.22M155.19 86.6l-1.18.22M155.05 87.47l-1.2.22M154.9 88.33l-1.19.21M154.76 89.2l-1.2.22M154.63 90l-1.2.22M154.49 90.87l-1.2.23M154.35 91.73l-1.2.22M154.2 92.6l-1.2.22M154.05 93.51l-1.2.23M153.91 94.38l-1.21.23M153.77 95.24l-1.22.22M153.63 96.11l-1.22.23M153.49 96.97l-1.23.23M153.35 97.85l-1.24.22M153.2 98.7l-1.23.22M153.06 99.57l-1.23.23M152.93 100.37l-1.24.23M152.79 101.24l-1.25.23M154.48 101.76l-3.08.57M155.84 102.36l-2 .36m-43.56 8.02-6.76 1.24M156.4 103.16l-1.07.2m-43.15 7.94-10.8 1.99M156.94 103.91l-1.08.2m-42.51 7.82-13.36 2.46M157.45 104.65l-1.07.2m-42.14 7.74-15.23 2.8M157.98 105.4l-1.07.2M115 113.3l-16.48 3.03M158.5 106.14l-1.07.2m-41.81 7.68-17.63 3.24M159.02 106.88l-1.06.2m-41.8 7.69-18.72 3.44M159.54 107.62l-1.07.2m-41.87 7.7-19.7 3.62M160.07 108.37l-1.07.2m-42.02 7.72-20.54 3.78M160.55 109.06l-1.06.2m-42.23 7.76-21.13 3.89M161.08 109.8l-1.06.2m-42.57 7.83-21.5 3.95M161.6 110.54l-1.06.2m-43.02 7.9-21.6 3.98M162.12 111.29l-1.05.2m-43.56 8-21.56 3.97M162.7 112.11l-1.05.2m-44.22 8.13-21.4 3.94M163.56 112.8l-1.38.26m-44.87 8.25-21.14 3.89M165.4 113.3l-2.5.45m-45.77 8.42-20.76 3.82M167.26 113.8l-2.43.44m-47.92 8.82-20.26 3.73M169.11 114.29l-2.37.44m-50.1 9.21-19.62 3.61M170.98 114.8l-2.3.42m-52.39 9.63-18.78 3.46M172.81 115.28l-2.24.41m-54.68 10.06-17.74 3.27M174.37 115.84l-1.86.34m-57.13 10.51-16.43 3.03M174.37 116.62l-.07.01m-59.5 10.95-14.97 2.75M113.97 128.58 101 130.96M112.83 129.61l-10.38 1.91M110.87 130.82l-6.25 1.15M126.47 39.8l-.41.08M126.82 40.58l-1.1.2M126.55 41.47l-1.17.21M126.24 42.37l-1.2.22M126.65 43.12l-1.94.36M128.12 43.7l-3.75.69M129.1 44.3l-1.9.34m-1.69.32-1.45.26M129.91 45l-1.67.3m-3 .55-1.52.28M130.5 45.71l-1.57.3m-3.95.72-1.6.29M130.96 46.47l-1.45.27m-4.8.88-1.66.31M131.35 47.29l-1.35.25m-5.58 1.02-1.73.32M131.64 48.08l-1.33.25m-4.33.8-2.83.51M131.85 48.87l-1.32.24m-2.47.46-2.91.53M132 49.69l-1.3.24m-.51.1-3 .54M132.06 50.51l-2.86.53M133.84 51.03l-2.6.48M135.82 51.5l-2.59.47M137.84 51.97l-2.57.47M139.7 52.4l-2.55.47M141.72 52.88l-2.53.47M152.54 51.72l-.9.16m-7.94 1.46-2.52.47M155.1 52.1l-3.74.68m-5.64 1.04-2.5.46M157.86 52.5l-4.3.79m-1.09.2-1.4.26m-3.17.58-2.48.45M160.42 52.87l-4.14.76m-4.1.76-1.39.25m-.87.16-2.46.46M162.92 53.24l-3.98.73m-7.04 1.3-2.45.45M165.48 53.61l-3.82.7m-10.05 1.86-.12.02M167.5 54.08l-3.15.58M167.14 55l-1.38.24M166.79 55.88l-1.38.25M166.43 56.8l-1.38.25M166.1 57.63l-1.38.26M165.74 58.54l-1.38.26M165.4 59.44l-1.39.25M165.04 60.35l-1.39.25M164.64 61.36l-1.38.25M164.28 62.27l-1.38.25M163.93 63.16l-1.38.25M163.57 64.07l-1.38.26M163.22 64.97l-1.38.26M162.86 65.88l-1.38.26M162.51 66.78l-1.38.25M162.15 67.69l-1.38.25m-.71.13-3 .56M161.82 68.53l-3.44.63m-.34.06-1.12.2M161.47 69.44l-.32.06m-3.25.6-1.12.2M157.76 70.95l-1.13.2M157.61 71.82l-1.12.2M157.46 72.76l-1.13.2M157.32 73.63l-1.14.21M157.18 74.49l-1.14.2M157.03 75.36l-1.14.2M156.9 76.22l-1.15.21M156.75 77.1l-1.15.2M156.6 77.95l-1.14.2M42 99.04l-1.17.21M154.22 119.46l-1.03 1M155.15 119.68l-.72.7M128.93 114.1l-.34.34M129.92 114.28l-.8.77M130.92 114.46l-1.16 1.13M131.84 114.63l-1.43 1.4M132.85 114.8l-1.67 1.64M133.83 114.99l-1.86 1.82M134.83 115.17l-1.98 1.93M135.94 115.37l-2 1.95M136.95 115.55l-1.91 1.87M137.93 115.73l-1.78 1.74M138.93 115.92l-1.66 1.62M140.79 115.25l-2.46 2.4M141.37 115.84l-2.04 2M141.6 116.76l-1.35 1.32M142.37 117.16l-1.23 1.21M144.47 116.19l-2.53 2.47M145.27 116.57l-2.46 2.4M145.5 117.49l-1.84 1.79M146.5 117.67l-1.95 1.9M147.58 117.87l-2.02 1.98M148.54 118.09l-2 1.96M149.48 118.31l-1.93 1.9M150.43 118.54l-1.81 1.78M151.37 118.77l-1.66 1.63M152.33 119l-1.48 1.45M153.26 119.23l-1.27 1.25" style="fill:none;stroke:#140533;stroke-width:.04597476;stroke-linecap:round;stroke-linejoin:round;stroke-miterlimit:22.9255867;stroke-opacity:1"/><path d="m129 114.13.31-1.4M129.63 114.25l.3-1.4M130.24 114.37l.3-1.4M130.88 114.48l.3-1.39M131.53 114.61l.31-1.4M132.21 114.73l.31-1.4M132.91 114.86l.3-1.4M133.63 115.03l.3-1.4M134.28 115.13l.31-1.4M134.94 115.25l.3-1.4M135.62 115.38l.3-1.4M136.32 115.5l.3-1.4" style="fill:none;stroke:#140533;stroke-width:.07849485;stroke-linecap:round;stroke-linejoin:round;stroke-miterlimit:22.9255867;stroke-opacity:1"/><path d="m148.3 118.03.35-1.38M148.9 118.18l.37-1.39M149.51 118.31l.36-1.38M150.15 118.46l.36-1.39M150.8 118.6l.36-1.38M151.48 118.76l.35-1.39M152.17 118.9l.36-1.38M152.88 119.1l.35-1.38M153.53 119.23l.36-1.39M154.18 119.38l.36-1.39M154.82 119.64l.36-1.38M155.48 119.76l.36-1.38" style="fill:none;stroke:#140533;stroke-width:.07849471;stroke-linecap:round;stroke-linejoin:round;stroke-miterlimit:22.9255867;stroke-opacity:1"/><path d="m137.03 115.61.3-1.4" style="fill:none;stroke:#140533;stroke-width:.07849485;stroke-linecap:round;stroke-linejoin:round;stroke-miterlimit:22.9255867;stroke-opacity:1"/><path d="m147.67 117.85.37-1.4" style="fill:none;stroke:#140533;stroke-width:.07835726;stroke-linecap:round;stroke-linejoin:round;stroke-miterlimit:22.9255867;stroke-opacity:1"/><path d="m61.9 43.23-5.2 18.14 1.3.26-1.2 4.3-1.25-.22-4.45 15.6 31.82 9.48 3.77-14.87s-5.13-2.46-4.4-6.6c.74-4.13 3.1-4.7 4.87-4.97a6.2 6.2 0 0 1 2.57 0l3.4-15.07zm0 0" style="fill:none;stroke:#140533;stroke-width:.12075703;stroke-linecap:round;stroke-linejoin:round;stroke-miterlimit:22.9255867;stroke-opacity:1"/><path d="m56.24 71.29.83-3.27 1.15.31 1.88-7.95-1.15-.32 1.78-5.86" style="fill:none;stroke:#140533;stroke-width:.12075703;stroke-linecap:round;stroke-linejoin:round;stroke-miterlimit:22.9255867;stroke-opacity:1"/><path d="m54.97 71.8 1.29-4.67.1-.25 1.03.3 1.53-5.86.1-.26-1.27-.34 4.46-15.2M60.43 64.62c2.27.49 4.04 1 5.16 2.37 1.08 1.32 1.6 2.84.57 3.78-.36.33-1.44-.1-1.62-1.12 0-.02.6 1.76-.34 2.57-.6.52-2.12.77-3.27-.69-1.1-1.39-.87-1.62-.87-1.62s.87 1.75 2.07 1.46c1.2-.28.94-.65.92-1.12-.03-.47-.08-.58.28-.97.37-.4-.57.1-1.04-.47-.47-.58-.63-1.23-.63-1.23s1.07.86 1.26-.24a1.9 1.9 0 0 0-.84-1.96c-.08-.05-1.4-.45-1.54-.52-.52-.25-.11-.24-.11-.24zm0 0" style="fill:none;stroke:#140533;stroke-width:.12075703;stroke-linecap:round;stroke-linejoin:round;stroke-miterlimit:22.9255867;stroke-opacity:1"/><path d="M66.72 69.35c.98 3.98-1.93 6.77-5.2 5.5" style="fill:none;stroke:#140533;stroke-width:.12075703;stroke-linecap:round;stroke-linejoin:round;stroke-miterlimit:22.9255867;stroke-opacity:1"/><path d="M60.22 78.11s1.75-.89 1.3-3.27c-.85-4.39-7-5.11-8.37-.55-1.1 3.7.06 5.65.06 5.65M53.06 80.14s-.64-.52-.94-.2c-.3.3.21 1.24.79 1.56.57.33.74-.05.69-.2M51.89 80.92c-.06-.03-.28-.1-.27.1 0 .2.32.25.39.27" style="fill:none;stroke:#140533;stroke-width:.12075703;stroke-linecap:round;stroke-linejoin:round;stroke-miterlimit:22.9255867;stroke-opacity:1"/><path d="M54.2 79.1s-.13-.42-.6-.3c-.5.12-.46.73-.4 1.14M54.3 79.9s-.57-.23-.54.33c.02.48 1.11 1.5 1.46.81M55.57 78.97s-.6-.43-.84.14c-.46 1.14 1.27 2.36 1.65 1.63" style="fill:none;stroke:#140533;stroke-width:.12075703;stroke-linecap:round;stroke-linejoin:round;stroke-miterlimit:22.9255867;stroke-opacity:1"/><path d="M58.28 80.66c-2.15.9-3.19-1.73-2.04-2.56.57-.42 1.57-.06 1.57-.06s-1.98-1.28-1.1-2.48c1.81-2.5 4.63 2.06 2.12 1.75M58 81.4s.71 1.13 2.1.95c2.2-.3 2.05-3.21.12-4.24" style="fill:none;stroke:#140533;stroke-width:.12075703;stroke-linecap:round;stroke-linejoin:round;stroke-miterlimit:22.9255867;stroke-opacity:1"/><path d="M59.78 76.94c1.78-.48 1.28-3.7-.85-4.69-1.94-.89-3.5-.38-4.63 1.09a5.16 5.16 0 0 0-1 3.67c.05.68.33 1.15.33 1.15" style="fill:none;stroke:#140533;stroke-width:.12075703;stroke-linecap:round;stroke-linejoin:round;stroke-miterlimit:22.9255867;stroke-opacity:1"/><path d="M56.06 82.32s1.65 1.08 4.55 1.1c2.9.03 5.9-2.22 7.17-4.32a9.92 9.92 0 0 0 1.52-6.77c-.31-2.62-2.14-5.19-2.14-5.19" style="fill:none;stroke:#140533;stroke-width:.12075703;stroke-linecap:round;stroke-linejoin:round;stroke-miterlimit:22.9255867;stroke-opacity:1"/><path d="M55.9 80.95a4.75 4.75 0 0 0 2.88 1.16M60.47 82.27s2.92-.04 4.67-1.77c1.76-1.72 2.98-3.45 3.17-6.6.18-3.13-.94-4.91-.94-4.91M67.8 80.2s-1.05 1.1-1.16 2.14c-.1 1.05.31 1.73.89 2.2.58.47.97.16.92-.24-.06-.39-.53-.41-.62-1.27-.1-.86.08-.98.14-.8.06.19.08 1.35.55 1.54.47.19.42-.38.34-.67-.07-.29.23.72 1.29 1.75a6.5 6.5 0 0 0 2.95 1.36" style="fill:none;stroke:#140533;stroke-width:.12075703;stroke-linecap:round;stroke-linejoin:round;stroke-miterlimit:22.9255867;stroke-opacity:1"/><path d="M68.98 68.83s1.62 2.5 1.3 5.91c-.3 3.4-.91 3.65-.58 6.07a7.45 7.45 0 0 0 2.2 4.08" style="fill:none;stroke:#140533;stroke-width:.12075703;stroke-linecap:round;stroke-linejoin:round;stroke-miterlimit:22.9255867;stroke-opacity:1"/><path d="M76.77 77.93c.3-.96 4.12-3.65 5.93 1.7 1.81 5.35-3.7 9.33-7.97 6.36-5.57-3.87-3.1-8.55-3.45-13.34a9.1 9.1 0 0 0-.79-2.83" style="fill:none;stroke:#140533;stroke-width:.12075703;stroke-linecap:round;stroke-linejoin:round;stroke-miterlimit:22.9255867;stroke-opacity:1"/><path d="M75.78 79.71s.37-1-.47-1.46c-.84-.47-2.62-.24-2.62 2.2 0 1.64 1.63 3.16 2.93 1.93M75.13 83.17s0 1.72 1.7 1.99c1.7.26 2.26-.92 2.04-1.65-.4-1.34-1.41-1.68-1.41-1.68M77.61 81.1s.13.86 1.1 1.15c.97.29 2-.47 1.73-1.62-.26-1.15-.72-1.73-1.68-2.15-.95-.42-1.62.32-1.62.32" style="fill:none;stroke:#140533;stroke-width:.12075703;stroke-linecap:round;stroke-linejoin:round;stroke-miterlimit:22.9255867;stroke-opacity:1"/><path d="M77.23 80.3c-.51.28-1.42-.12-1.3-.75.11-.63 1.03-.84 1.3-.7.28.12.37.73.17.92-.2.18-.38.09-.38.09M71.62 70.57s1.48 2.26 1.27 3.05c-.21.78-.5.9-.26 1.32.24.42.78.35.84 1.03.07.72-.48.74-1 1.5-1.15 1.67-.8 4.04-.8 4.04M78.75 87.33s.45-.56.14-.98c-.32-.42-1.43-.69-1.75-.24-.33.44-.4.91.11 1.43.51.53 1.25.32 1.34.33M81.06 88.17c.1-.26.12-.8-.36-1.08-.49-.28-.99 0-1 .4-.01.4.25.84.56.94.32.1.62-.1.62-.1M82.88 87.73c0-.05-.16-.54-.54-.4-.37.14-.45.4-.4.6.06.21.4.47.67.4.26-.06.26-.37.26-.37M63.05 82.96l4 1.2M68.43 84.5l2.25.78M74.6 86.5l2.36.64" style="fill:none;stroke:#140533;stroke-width:.12075703;stroke-linecap:round;stroke-linejoin:round;stroke-miterlimit:22.9255867;stroke-opacity:1"/><path d="M79.68 87.77c-.14-.07-1.78-.52-1.78-.52M81.06 88.17s1.64.4 1.74.45c.09.05.26-1.15.41-1.89.16-.73 1.26-5.92 1.42-6.87.15-.94.91-3.53.91-3.53s-2.09-1.07-2.88-2.1a18.73 18.73 0 0 1-1.62-2.82l-.78-.16M61.76 83.32s6.66 2.07 8.55 2.74c1.88.67 5.65 1.71 6.53 2.05.88.33 5.78 1.71 5.78 1.71l.17-.7" style="fill:none;stroke:#140533;stroke-width:.12075703;stroke-linecap:round;stroke-linejoin:round;stroke-miterlimit:22.9255867;stroke-opacity:1"/><path d="M82.31 86.64s1.72-8.12 1.93-8.83c.21-.71.25-1.13.25-1.13s-1.67-.84-2.72-2.3a47.83 47.83 0 0 1-1.6-2.35l-2.8-.67M77.85 69.22c-.59 1.22 1.26 3.22 2.24 1.83 1.04-1.48.14-3.05-1.96-2.69M79.84 68.1s1.3.08 1.2-1.01c-.1-1.09-.9-1.26-1.26-1.22-.36.05-1.26.4-1.23 1.1a.9.9 0 0 0 .62.85" style="fill:none;stroke:#140533;stroke-width:.12075703;stroke-linecap:round;stroke-linejoin:round;stroke-miterlimit:22.9255867;stroke-opacity:1"/><path d="M76.4 69.07s.48.83.91.72c.43-.1.5-.34.55-.67.07-.34-.28-.87-.28-.87M78.27 69.84s.5.4.79.19c.3-.21.28-.7.11-1.03-.16-.32-.96-.65-.96-.65M72.58 72.32s1.07 2.48 3.26 3.13c2.2.65 4.44.26 4.78.07.26-.15.39-.8-.27-.68-1.4.26-1.7.34-2.93-.36-.6-.35-1.1-.41-1.62-.74-.52-.34.82.54 2.12.35 1.3-.19.98-.68.98-.68-.37-.64-1.33.24-2-.25-.68-.5-.74-.64-.74-.64" style="fill:none;stroke:#140533;stroke-width:.12075703;stroke-linecap:round;stroke-linejoin:round;stroke-miterlimit:22.9255867;stroke-opacity:1"/><path d="M75.24 71.65s.42.78.92.87c1.46.27 1.28-2.32-1.09-2.58M73.84 69.96s.44.55.93.22c.49-.32.46-.93.32-1.14-.13-.2-.3-.25-.3-.25M72.84 71.72s-.35-.73-.86-1.55c-.5-.82-1.46-1.53-2.53-2.32-1.07-.8-1.55-1.13-1.55-1.13s2.18 1.55 3.8 1.9c1.6.36 2.21.4 2.54.02.34-.37.26-.8.1-1.09-.14-.29-.41-.48-.41-.48M74.85 67.78s.96.71 1.84.59c.9-.12.9-.27.97-.82.06-.54-.44-.98-.44-.98" style="fill:none;stroke:#140533;stroke-width:.12075703;stroke-linecap:round;stroke-linejoin:round;stroke-miterlimit:22.9255867;stroke-opacity:1"/><path d="M74.87 66.21s1.82.55 2.41.36c.86-.28 2.09-2.09 3.27-1.7.56.2.56.23.56.23a2.23 2.23 0 0 0-2.89-1.04c-.58.3-1.07.37-1.59.2" style="fill:none;stroke:#140533;stroke-width:.12075703;stroke-linecap:round;stroke-linejoin:round;stroke-miterlimit:22.9255867;stroke-opacity:1"/><path d="M83.9 62.47s-.72-1.05-2.6-.82c-2.32.28-2.36 2.45-4.08 2.7" style="fill:none;stroke:#140533;stroke-width:.12075703;stroke-linecap:round;stroke-linejoin:round;stroke-miterlimit:22.9255867;stroke-opacity:1"/><path d="M66.89 65.43s1.92 1.13 4.18.88c2.26-.25 4.4-3.73 5.9-4.65 1.51-.92 2.52-1.6 4.2-1.09a5.74 5.74 0 0 1 2.67 1.84" style="fill:none;stroke:#140533;stroke-width:.12075703;stroke-linecap:round;stroke-linejoin:round;stroke-miterlimit:22.9255867;stroke-opacity:1"/><path d="M66.64 64.55s2.09.88 3.47.75c1.38-.12 1.8-.75 2.18-.88a5.38 5.38 0 0 0 1.76-1.63c.58-.8 1.42-.75 2.05-1.72.63-.96.85-1.13.95-1.7.1-.59-.26-1.17.58-1.46.84-.3 1.07.15 1.4-.56.32-.71-.21-1.34.08-1.97.3-.63-.08-1.26 1.47-2.05 1.55-.8 2.76-.8 2.76-.8M84.85 58.35c.02-.12-.02-.92-.44-.63-.42.3-.46.7-.23 1.07.23.38 1.09.5 1.5.09.43-.42.4-1.05.3-1.36-.1-.32-.34-.38-.34-.38" style="fill:none;stroke:#140533;stroke-width:.12075703;stroke-linecap:round;stroke-linejoin:round;stroke-miterlimit:22.9255867;stroke-opacity:1"/><path d="M86.03 57.71s.45-.17.83-.42c.38-.26.48-.66.42-1.26s-.4-.88-.8-.9c-.4-.02-1.15.5-1.15.5s.48-1.21.3-1.72c-.2-.5-.78-1.3-1.74-.8-.97.51-1.13 1.45-1.22 1.7-.08.26-.08.36-.08.36" style="fill:none;stroke:#140533;stroke-width:.12075703;stroke-linecap:round;stroke-linejoin:round;stroke-miterlimit:22.9255867;stroke-opacity:1"/><path d="M83.4 56.2s-.43-.82-.81-1.03c-.38-.2-1.49-.19-1.63 1.07-.15 1.25.62 1.8.98 1.97.35.16.77.04.77.04s.09.63.44.67c.36.04.63-.4.36-.76-.27-.35-.5-.6-.5-.6" style="fill:none;stroke:#140533;stroke-width:.12075703;stroke-linecap:round;stroke-linejoin:round;stroke-miterlimit:22.9255867;stroke-opacity:1"/><path d="M83.15 58.92s.17 1.02 2.12 1.55c1.95.52 3-.4 3.52-1.05a5.04 5.04 0 0 0-1.76-7.47c-2.01-.97-3.27-1.1-5.32-.42a7.41 7.41 0 0 0-3.98 2.93c-.58.96-1.3 2.64-1.3 2.64M75.85 57.68s-1.51 3.4-3.1 4.99a6.54 6.54 0 0 1-4.4 1.92c-.75-.04-1.13-.28-1.13-.28" style="fill:none;stroke:#140533;stroke-width:.12075703;stroke-linecap:round;stroke-linejoin:round;stroke-miterlimit:22.9255867;stroke-opacity:1"/><path d="M85.7 52.7s.66.04.6-.68a1.58 1.58 0 0 0-1.28-1.41c-.65-.11-1.07.41-1.05.94.02.54.7 1.03 1.21 1.09M86.96 50.82s.44-.3.21-.66c-.23-.37-.92-.46-.96-.17-.04.3.08.62.35.76M88.97 51.01c.17.1.69-.2.53-.6-.16-.41-.79-.68-1.03-.38-.24.3-.27.74-.04.95.23.21.38.1.38.1M91.11 51.13c-.08-.2-.19-.42-.42-.47-.23-.04-.48 0-.57.29-.1.27.03.6.27.73.23.12.47.09.6-.06.14-.16.1-.52.1-.52M80.43 70.39l1.7.26" style="fill:none;stroke:#140533;stroke-width:.12075703;stroke-linecap:round;stroke-linejoin:round;stroke-miterlimit:22.9255867;stroke-opacity:1"/><path d="m80.49 69.48.64.08s.34-1.49.65-2.43c.53-1.58 2.54-3.31 4.1-3.7.93-.24 3.06-.42 3.06-.42l2.9-12.8-29.02-5.82" style="fill:none;stroke:#140533;stroke-width:.12075703;stroke-linecap:round;stroke-linejoin:round;stroke-miterlimit:22.9255867;stroke-opacity:1"/><path d="M81.36 66.15s1.1-1.76 2.8-2.93c1.73-1.18 4.24-1.47 4.24-1.47l.56-1.99M89.76 56.66l.95-4.9M90.35 50.69s-3.8-.75-4.48-.83c-.7-.09-6.47-1.15-8.86-1.49-2.39-.33-13.19-2.76-13.19-2.76M62.38 63.28c.37.04 1.57.11 2.17-.8.61-.9.23-2.3 1.31-2.36.5-.03.75.35.68.71-.04.2-.24.32-.39.44-.42.33 1.06.48 1.31-.3.3-.94-.24-2.04-1.09-2.45 0 0 1.8-.12 1.95 2.3.07 1.08.15 2.46-.8 3.17-.41.31-.77.71-1.92.71s-1.22-.1-1.22-.1" style="fill:none;stroke:#140533;stroke-width:.12075703;stroke-linecap:round;stroke-linejoin:round;stroke-miterlimit:22.9255867;stroke-opacity:1"/><path d="M67.81 63.72c1.27.15 2.25-1.66 1.56-2.88-.37-.65-1.1-.47-1.1-.47" style="fill:none;stroke:#140533;stroke-width:.12075703;stroke-linecap:round;stroke-linejoin:round;stroke-miterlimit:22.9255867;stroke-opacity:1"/><path d="M69.39 63.56s2.7-1.36 3.43-2.95c.74-1.6 1.2-3.04 1.22-4 .02-.96-.2-2.01-.74-3a4.85 4.85 0 0 0-2.05-1.82c-.52-.27-1.32.1-1.84-.52-.52-.63-.44-.71-.64-1.13-.2-.42-.54-.48-.91-.53-.37-.06-.47.2-1.03-.07-.55-.27-.58-.27-.58-.27" style="fill:none;stroke:#140533;stroke-width:.12075703;stroke-linecap:round;stroke-linejoin:round;stroke-miterlimit:22.9255867;stroke-opacity:1"/><path d="M74.89 56s.08-2.93-2.27-5.7c-2.34-2.76-3.56-2.67-5.73-2.71-2.76-.06-.89.32-2.64 1.04-.71.3-1.13.42-1.13.42a5.13 5.13 0 0 0-1.72 6.53c.8 1.72 3.27 3.14 5.2 2.77 1.92-.38 1.84-1.97 1.84-2.47 0-.5-.21-.97-.21-.97" style="fill:none;stroke:#140533;stroke-width:.12075703;stroke-linecap:round;stroke-linejoin:round;stroke-miterlimit:22.9255867;stroke-opacity:1"/><path d="M68.88 54.85s.94-.06.62-1.63c-.42-2.15-2.3-2.4-2.44-.53" style="fill:none;stroke:#140533;stroke-width:.12075703;stroke-linecap:round;stroke-linejoin:round;stroke-miterlimit:22.9255867;stroke-opacity:1"/><path d="M65.86 54.29s-1.02-.38-1.28-1.47c-.5-2.2 2.1-2.66 2.56-1.53.2.5.16.56.16.56" style="fill:none;stroke:#140533;stroke-width:.12075703;stroke-linecap:round;stroke-linejoin:round;stroke-miterlimit:22.9255867;stroke-opacity:1"/><path d="M64.97 53.62c-1.48-.08-1.06 1.92-.26 2.5.71.53 1.8.26 1.8.26M65.7 50.67s.3-.78.08-1.13c-.2-.34-.72-.54-1.09-.49-.36.05-.8.42-.86.67-.07.25-.09.58.13.93.22.36.44.5.56.55M63.6 48.89s-.67-.54-.62-1.23c.05-.7.22-.93.58-1.07.37-.13 1.04-.22 1.26.17.22.39.44.94.3 1.2M62.98 46.08c.08.36.45.55.72.4.27-.16.23-.61.16-.88-.08-.28-.3-.59-.52-.5-.2.08-.33.54-.33.54s-.02-.85-.16-1.02c-.13-.16-.28-.27-.45-.07-.17.2.01.87.1 1.04.08.16.16.35.3.34.14 0 .2-.07.2-.07M75.38 56.82s.38-2.3 1-3.48a11.3 11.3 0 0 1 1.93-2.63c.71-.76 1.3-1.22 2.47-.93 1.18.3 1.22.42 1.22.42s-1.3-1.13-2.64-1.21c-1.34-.09-2.43.38-2.68.96-.25.59-.17 1.26-.17 1.26" style="fill:none;stroke:#140533;stroke-width:.12075703;stroke-linecap:round;stroke-linejoin:round;stroke-miterlimit:22.9255867;stroke-opacity:1"/><path d="M77.2 49.15s.07-.73-.37-.73-.67.5-.8.82c-.15.32-.19.45-.19.45s.16-.72-.2-1c-.37-.27-.75.2-.9.5-.16.31-.4 1.4-.33 2.56.07 1.16.58 2.23.58 2.23M67.67 55.45c.5 1.72-1.13 2.56-2.73 2.18-1.62-.39-3.2-2-3.28-3.67-.15-3.3 1.36-3.58 1.36-3.58M85.1 91.24l3.36-14.58s4.4.84 6.82-1.04c2.59-2 2.37-5.73.87-8.18-1.2-1.95-3.99-2.94-3.99-2.95L95.1 48.9c4.16.42 7.45 1.56 11.24 2.1a412.32 412.32 0 0 1 28.6 5.27l-3.51 20.1s-3.31-.12-3.4 3.1c-.08 3.23 1.39 3.3 1.39 3.3l-4.27 18.98zm0 0" style="fill:none;stroke:#140533;stroke-width:.12075703;stroke-linecap:round;stroke-linejoin:round;stroke-miterlimit:22.9255867;stroke-opacity:1"/><path d="m130.5 74.18 3.02-17s-1.84-.5-3.1-.5-11.72-1.84-15.16-2.76C111.83 53 95.8 49.9 95.8 49.9l-2.34 13.7M93.28 64.01s4.02 1.97 4.6 5.02c.6 3.06.1 5.95-1.3 6.87-1.37.92-3.57 2.03-5.14 2.05-1.57.02-2.28-.08-2.28-.08l-2.6 12.02-.13.7 36.43 9.8 1.42.35 3.4-17.2" style="fill:none;stroke:#140533;stroke-width:.12075703;stroke-linecap:round;stroke-linejoin:round;stroke-miterlimit:22.9255867;stroke-opacity:1"/><path d="M129.04 84.41s-2.93-1.39-3.4-3.99a5.33 5.33 0 0 1 4.88-6.24c.71.11 1.26.1 1.26.1M89.93 78.85l-2.51 11.27s11 2.85 12.68 3.26c1.68.42 9.89 2.47 11.23 2.98 1.34.5 2.93.88 4.02 1.17l3.89 1.09M123.51 99.66c.04-.31-.38-.94-.73-.85-.36.08-.6.31-.6.6 0 .3.26.61.51.63.26.02.72-.08.72-.08" style="fill:none;stroke:#140533;stroke-width:.12075703;stroke-linecap:round;stroke-linejoin:round;stroke-miterlimit:22.9255867;stroke-opacity:1"/><path d="M122.09 99.05c.15-.06.25 0 .38-.38.14-.38-.37-.92-.64-.86-.28.06-.87.34-.86.87 0 .53.19.77.6.85.4.08.6-.08.6-.08M120.97 98.03c.11-.08.38-.56.13-1.08-.25-.5-1.34-.78-1.79-.45-.45.34-.8.77-.53 1.42.26.64.54.8 1 1.05.44.25.78.14.78.14" style="fill:none;stroke:#140533;stroke-width:.12075703;stroke-linecap:round;stroke-linejoin:round;stroke-miterlimit:22.9255867;stroke-opacity:1"/><path d="M119.28 97.18s.16.33.46.12c.3-.21.4-1.02.18-1.46-.22-.44-1.56-1.31-2.68-.58-1.27.83-.55 2.72 1.05 3.12.78.19.82.12.82.12M116.1 90.44s-1.4-1.42-2.4-1c-1 .42-1.4 2.36-1.09 3.05.32.7 1.03.95 1.49.7.46-.26.48-.8.48-.8s-.31 1.46.3 2.05c.6.59 1.96.76 2.61.44.65-.31.94-.96.82-1.4a2.52 2.52 0 0 0-1.13-1.4c-.6-.34-.6-.3-.6-.3s1.85.92 2.36.21c.5-.71.48-1.9-.1-2.45-.6-.54-1.54-.58-2.14-.4-.61.2-.6 1.3-.6 1.3zM116.33 88.77s-.1-1.43 1.38-1.2c1.49.23 1.95.97 1.95.97" style="fill:none;stroke:#140533;stroke-width:.12075703;stroke-linecap:round;stroke-linejoin:round;stroke-miterlimit:22.9255867;stroke-opacity:1"/><path d="M115.97 88.41s0-1.09 1.18-1.6c1.17-.5 2.3.03 3.16.62.86.58 2 2.47 1.7 4.19" style="fill:none;stroke:#140533;stroke-width:.12075703;stroke-linecap:round;stroke-linejoin:round;stroke-miterlimit:22.9255867;stroke-opacity:1"/><path d="M118.99 79.24s-3.73-.54-6.58 2.85c-2.84 3.39-4.19 7.27-2.3 10.89.87 1.67 2.87 4.64 6.91 4.02 2.99-.46 4.77-4.44 4.77-4.44" style="fill:none;stroke:#140533;stroke-width:.12075703;stroke-linecap:round;stroke-linejoin:round;stroke-miterlimit:22.9255867;stroke-opacity:1"/><path d="M120.7 94.57s1.64-.63 2.06-1.76c.42-1.13.31-1.6.31-2.22 0-.63.17-1.3.65-1.78s.9-.59 1.38-.27c.48.31.55.52.52.65-.02.12.05-1.05-.37-1.57a1.91 1.91 0 0 0-1.53-.61c-.25.06-.88.65-.88.65s.84-.92.63-1.5c-.21-.6-.8-.39-1 .01-.21.4-.15 1.11-.2 1.4-.04.3-.14.28-.14.28" style="fill:none;stroke:#140533;stroke-width:.12075703;stroke-linecap:round;stroke-linejoin:round;stroke-miterlimit:22.9255867;stroke-opacity:1"/><path d="M121.36 88.65s-.26-1.51.16-1.72c.42-.21.74-.1.76.18M119.97 79.72c-1.04.05-2.64.92-2.76 1.64-.13.7-.04 2.05.2 2.43.26.37 1.01.62.43.92-.59.29-1.22-.13-1.38-.67-.17-.55-.3-.8-.3-.8M113.14 83.51s-.47.63-.35 1.36c.12.74.7 1.4.98 1.22.28-.2.4-.94.26-1.49" style="fill:none;stroke:#140533;stroke-width:.12075703;stroke-linecap:round;stroke-linejoin:round;stroke-miterlimit:22.9255867;stroke-opacity:1"/><path d="M113.91 83.77s-.03.54.12.77c.14.23.46 0 .74-.29.28-.28.5-.76.59-1.18l.08-.48s-.1 1.11.02 1.49c.13.37.33.68.62.57.3-.1.4-.54.4-.54M120.53 78.47s-4.08-.25-4.74-.17c-.67.08-3.58-.2-5.45 1.29-1.87 1.5-2.54 2.5-2.54 2.5s-1.12 1.07-1.9 1.57c-.8.5-1.67.5-1.63-.37.04-.87.25-.96.25-.96s-1.04.33-1.04 1.04c0 .7.6 1.27.6 1.27s-.35.46-.6.37c-.25-.08-.46-.45-.52-.76-.06-.32-.04-.67-.04-.67s-.4.17-.58.87c-.19.7-.23.83 0 1.23s.41.3.29.34c0 0-.17.38-.82.38-.65 0-.6.59-.48.86.13.27.04.63-.65.7-.7.05-1.13-.03-1.13-.03s.23.42.7.52c.45.1.56.02.56.02s-.49.08-.34.25c.1.11.91.3 1.65 0 1.8-.74 2.12-1.88 2.62-2.57.5-.7 2.39-1.84 2.51-1.86" style="fill:none;stroke:#140533;stroke-width:.12075703;stroke-linecap:round;stroke-linejoin:round;stroke-miterlimit:22.9255867;stroke-opacity:1"/><path d="M115.79 78.3s-3.03-.04-5.17 3.43a15.5 15.5 0 0 0-2.6 9.05 7.34 7.34 0 0 0 2.02 5.15s-1.42-.63-2.26-2.18c-.84-1.55-1-2.64-1-2.64s.06 1.97.14 2.53l.08.61s-.83-.58-1.23-1.4-.32-3.3-.02-3.96c.29-.65.81-1.97 1.1-2.76.3-.8.05-1.36.65-2.11.61-.76 2.25-2.4 2.25-2.4" style="fill:none;stroke:#140533;stroke-width:.12075703;stroke-linecap:round;stroke-linejoin:round;stroke-miterlimit:22.9255867;stroke-opacity:1"/><path d="M107.07 85.03s-2.98 4.3-5.49 5.47c-2.51 1.18-5.36 1.01-6.57.26-1.22-.76-2.4-2.73-2.4-2.73" style="fill:none;stroke:#140533;stroke-width:.12075703;stroke-linecap:round;stroke-linejoin:round;stroke-miterlimit:22.9255867;stroke-opacity:1"/><path d="M106.32 87.52s-2.35 3.53-3.99 4.2c-1.63.67-5.15 1.42-7.62-.21-2.47-1.63-2.93-2.64-3.26-3.73-.34-1.09-.71-5.73 1.92-7.5 2.64-1.75 4.23-1.46 5.24-.95 1 .5 2.72 1.54 2.47 3.22-.25 1.67-.71 2.85-2.05 3.14-1.34.3-1.64.08-1.64.08" style="fill:none;stroke:#140533;stroke-width:.12075703;stroke-linecap:round;stroke-linejoin:round;stroke-miterlimit:22.9255867;stroke-opacity:1"/><path d="M92.28 85.73s-.62-1.21.67-3.77c1.3-2.55 4.44-2.55 5.62-2.05 1.17.5 2.2 1.59 1.8 3.73-.4 2.13-2.9 2.13-2.9 2.17" style="fill:none;stroke:#140533;stroke-width:.12075703;stroke-linecap:round;stroke-linejoin:round;stroke-miterlimit:22.9255867;stroke-opacity:1"/><path d="M89.37 84.96s-.54 1.15.4 1.7c.94.54 2.01-.03 2.43-.3.42-.27.19-.59.19-.59s.75.25.94-.02c.19-.27.21-.81.6-.86.4-.04.87.55.87.55" style="fill:none;stroke:#140533;stroke-width:.12075703;stroke-linecap:round;stroke-linejoin:round;stroke-miterlimit:22.9255867;stroke-opacity:1"/><path d="M90.86 83.85s-.65.25-.46.81c.19.57 1.99 1.11 1.99 1.11M94.8 85.44s-.84-.8-.93-1.22c-.08-.41.09-1.9 1.18-2.03 1.09-.12 1.65.27 1.84.88.19.61.31.97.06 1.34-.25.38-.9.32-1.04-.02" style="fill:none;stroke:#140533;stroke-width:.12075703;stroke-linecap:round;stroke-linejoin:round;stroke-miterlimit:22.9255867;stroke-opacity:1"/><path d="M97.03 83.55s1.28 0 1.79.84c.5.84.9 2.37.29 3.02-.6.65-1.45.73-1.9.29-.47-.44-.55-.65-.55-.65s1.44 1.4 1.05 2.28c-.4.88-1.93 1.1-2.45.44-.53-.65-.82-1.13-.78-1.71.04-.6.13-.9.13-.9s-.21.94-.57.58c-.35-.35-.3-1.3-.3-1.3M91.51 90.42c-1.05-.97-.46-3.69 2.26-3.24M108.34 83.47s-.59-1.1-.54-1.78c.04-.67.1-.94.1-.94s-.54-.31-.35-.7c.18-.37.08-.87.65-1.06.56-.19 1.08-.17 1.08-.17s-.67-.5-.02-1.15a3.12 3.12 0 0 1 2.51-1.13c1.37-.04 1.87-.15 3.25.4 1.38.54 2.2.56 2.53.75M118.66 78.36s-1.04-.4-1.25-1.02c-.21-.63.27-1.26.8-1.28.51-.02 1.7.67 1.88 1.1.16.45.14.76.14.76s.3-.65.53-.6c.23.04.4 0 .4 0s-.6-.21-.84-.67c-.25-.46.16-1.22.73-1.22.56 0 .98.32 1.09.44.1.13.29.92.29.92s-.3-1.3.04-1.78c.34-.48 1.38-.38 1.87.75.48 1.12.45 1.85.61 2.07.17.22.65.56.65.56M125.56 79.46s-.45-.44-1.33.5c-.88.95-1.08 1.53-1.9 1.31-.83-.22-1.07-.57-1.1-1.35-.01-.77.27-.95.27-.95s-.53.89-.68.95c-.15.06-.66.16-.9-.27-.24-.43-.4-.72-.14-.88.26-.16.75-.3.75-.3" style="fill:none;stroke:#140533;stroke-width:.12075703;stroke-linecap:round;stroke-linejoin:round;stroke-miterlimit:22.9255867;stroke-opacity:1"/><path d="M112.48 76.51s-.88-.28-2.56-.45a10.22 10.22 0 0 1-3.41-.75c-.65-.34-.65-.49-.65-.49s.27 1.18-.3 1.16c-.56-.02-.75-.1-.7-.26.04-.14-.53-.04-.63-.5-.1-.46.35-1 .35-1s-1.13 0-.98-.61c.15-.6.69-.94 1-.84" style="fill:none;stroke:#140533;stroke-width:.12075703;stroke-linecap:round;stroke-linejoin:round;stroke-miterlimit:22.9255867;stroke-opacity:1"/><path d="M105.6 73.21c-.7-.2-.9.09-1-.67-.1-.75.84-.83.99-.73M105.6 72.72s.18-.73.53-.59c.36.15.47.44.42.93-.05.48-.27.73-.34.77M105.85 74.02s.32.77 2.58 1.16c2.27.39 3.74.39 3.74.39M114.15 76.65s-1.03-.59-1.74-1.43c-.7-.84-.96-1.38-.58-1.42.37-.04.56.04.6.23" style="fill:none;stroke:#140533;stroke-width:.12075703;stroke-linecap:round;stroke-linejoin:round;stroke-miterlimit:22.9255867;stroke-opacity:1"/><path d="M111.73 74.26s-1.43-1.11-1.58-2.3c-.15-1.2.38-1.24.67-.9.3.33.19.69.19.69" style="fill:none;stroke:#140533;stroke-width:.12075703;stroke-linecap:round;stroke-linejoin:round;stroke-miterlimit:22.9255867;stroke-opacity:1"/><path d="M110.7 70.94s-.63-1-.49-1.83c.15-.84.59-1.2.59-1.2" style="fill:none;stroke:#140533;stroke-width:.12075703;stroke-linecap:round;stroke-linejoin:round;stroke-miterlimit:22.9255867;stroke-opacity:1"/><path d="M110.48 68.34s-.4-.86-1.02-.86c-.63 0-.82.14-.86.37-.04.23-.6-.04-.33-1.07.27-1.02.5-1.08.67-1.02.16.06-.02-.44-.21-.46a.92.92 0 0 0-.84.5c-.19.39-.19.42-.19.42s-.22-.63.01-1.12c.23-.5.55-.66.55-.66s-.5-.15-.67-.14c-.18.01-.44.13-.44.13M106.68 63.16s.85-1.46 1.94-.86c1.1.61 1.6 1.6 1.89 2.35M117.5 76.5s-2.89-.96-4.73-3.6c-1.84-2.64-2.01-4.06-2.01-4.06" style="fill:none;stroke:#140533;stroke-width:.12075703;stroke-linecap:round;stroke-linejoin:round;stroke-miterlimit:22.9255867;stroke-opacity:1"/><path d="M118.2 76.06s-3.84-2.5-5.1-5.09c-1.25-2.6-2-4.35-2.6-6.32-.58-1.97-.33-4.27-2.09-7.37-1.76-3.1-5.7-4.73-5.7-4.73" style="fill:none;stroke:#140533;stroke-width:.12075703;stroke-linecap:round;stroke-linejoin:round;stroke-miterlimit:22.9255867;stroke-opacity:1"/><path d="M120.32 76.65s-2.36-.49-4.4-3.35c-2.02-2.87-2.99-4.99-3.07-8.19-.08-3.2 1.89-5.15 2.47-6.32.59-1.18.63-2.05.32-2.85-.32-.8-.44-.94-.44-.94" style="fill:none;stroke:#140533;stroke-width:.12075703;stroke-linecap:round;stroke-linejoin:round;stroke-miterlimit:22.9255867;stroke-opacity:1"/><path d="M113.08 59.29s-.02-1.1.55-1.3a2.3 2.3 0 0 0 1.38-1.13c.29-.58.19-1.86.19-1.86" style="fill:none;stroke:#140533;stroke-width:.12075703;stroke-linecap:round;stroke-linejoin:round;stroke-miterlimit:22.9255867;stroke-opacity:1"/><path d="M112.18 60.99s-.46-1.07-.46-1.8c0-.74.02-.97.46-1.34.44-.38.54-.5.54-.5s-.18.68.09 1.31l.27.63M110.69 65.22s-.38-1.82-.04-3.53c.33-1.72 1.43-.73 1.43-.73M103.45 58.06c-.03-.96.06-2.18.7-3.16.91-1.39 2.56-2.25 3.47-.74" style="fill:none;stroke:#140533;stroke-width:.12075703;stroke-linecap:round;stroke-linejoin:round;stroke-miterlimit:22.9255867;stroke-opacity:1"/><path d="M117.85 55.65c-.56-.09-3.05-.27-3.43-.38-.38-.1-3.08-.86-3.85-.96-.78-.1-3.63-.82-3.63-.82s-4.01-.73-4.12-.84c-.1-.1-1.94-.42-2.8-.73-.86-.31-2.9-.58-3.35-.71-.46-.13-2.1 12.18-2.1 12.18s3.77 2.52 4.32 5.32c.54 2.8.75 6.5-1.89 8.3a10.6 10.6 0 0 1-5.78 1.96c-.92.04-1.3-.12-1.3-.12" style="fill:none;stroke:#140533;stroke-width:.12075703;stroke-linecap:round;stroke-linejoin:round;stroke-miterlimit:22.9255867;stroke-opacity:1"/><path d="M100.06 64.19s-2.26.42-3.23-2.34c-.96-2.77.59-4.53 1.3-4.95.71-.42 2.16-1.25 3.04-.58.88.67.77 2 .77 2" style="fill:none;stroke:#140533;stroke-width:.12075703;stroke-linecap:round;stroke-linejoin:round;stroke-miterlimit:22.9255867;stroke-opacity:1"/><path d="M100.6 65.13s-2.76.17-3.72-1.25a6.4 6.4 0 0 1-.8-5.38c.41-1.13 2.25-3.41 3.87-3.33" style="fill:none;stroke:#140533;stroke-width:.12075703;stroke-linecap:round;stroke-linejoin:round;stroke-miterlimit:22.9255867;stroke-opacity:1"/><path d="M97.82 53.22s-.55.31-.27.88c.27.56.64.69 1.52.88l.88.19" style="fill:none;stroke:#140533;stroke-width:.12075703;stroke-linecap:round;stroke-linejoin:round;stroke-miterlimit:22.9255867;stroke-opacity:1"/><path d="M97.93 51.45s.14.62.26 1.29c.13.67.38.9.76 1.09.37.19 1.09.12 1.09.12s-.63.09-.53.42c.1.34.34 1.09 1.1 1.26.75.16 1.81-.34 2.13-.94.31-.61.18-1.43.08-1.79a.82.82 0 0 0-.65-.6c-.3-.07-1.21.48-1.95.25-.73-.23-2.29-1.1-2.29-1.1zm0 0" style="fill:none;stroke:#140533;stroke-width:.12075703;stroke-linecap:round;stroke-linejoin:round;stroke-miterlimit:22.9255867;stroke-opacity:1"/><path d="M103.45 58.06s-.71-.93-.8-1.89c-.08-.96.01-1.36.01-1.36s1.19 1.09 1.46 1.07c.27-.02.66-.1 2.1.77 1.45.88 1.9 1.51 2.23 2.35a8 8 0 0 1 .6 1.94c.1.61-.97-1.73-2.06-2.72-1.1-.98-1.83-1.07-1.83-1.07M100.57 64.52l-.51-.33s-1.19-.34-1.33-1.8c-.15-1.47.83-1.74 1.32-1.63.48.1 1.04.4 1.19.96.15.56-.02.86-.02.86" style="fill:none;stroke:#140533;stroke-width:.12075703;stroke-linecap:round;stroke-linejoin:round;stroke-miterlimit:22.9255867;stroke-opacity:1"/><path d="M100.78 61.07s-.38-1.38.12-2.01c.5-.63 1.07-.46 1.07-.46s-.07.86.37 1.28c.44.42 1.42.36 1.7-.43.27-.8.03-1.27-.04-1.35" style="fill:none;stroke:#140533;stroke-width:.12075703;stroke-linecap:round;stroke-linejoin:round;stroke-miterlimit:22.9255867;stroke-opacity:1"/><path d="M103.77 58.2s.88.76 1.07 1.02c.19.26.56.56.43 1.21-.13.65-.5.7-.82 1.37-.31.67-.19 1.02-.19 1.02" style="fill:none;stroke:#140533;stroke-width:.12075703;stroke-linecap:round;stroke-linejoin:round;stroke-miterlimit:22.9255867;stroke-opacity:1"/><path d="M104.48 61.74s.83-1.03 1.65-.24c.81.78 1.34 2.22.86 3.22-.49 1-.78.72-.78.72s-.17.79-.69.85c-.52.07-.92-.08-1.15-.46M100.65 64.87s-.11.54.32.96c.43.42 1.65.5 1.88-.08a1.59 1.59 0 0 0-.28-1.52c-.24-.24-.4-.28-.4-.28" style="fill:none;stroke:#140533;stroke-width:.12075703;stroke-linecap:round;stroke-linejoin:round;stroke-miterlimit:22.9255867;stroke-opacity:1"/><path d="M101.2 64.37s.58-.09.8.24c.22.32.23.4.23.4M106.55 72.28s-.23-1.7-.92-2.26c-.7-.57-1.95-.84-2.4-1.36-.43-.52-.52-1.82-.52-1.82s-.29.62-.3 1.44c-.03.82.47 2.2.58 2.39.1.19.77.8.6.67-1.14-.92-.95-.72-.77.42 0 0-.23-.86-.54-1.15-.32-.3-.84-.49-1.03-.84-.19-.36-.25-.59-.25-.59s.1 1.72.31 2.33c.21.6.55.8.82 1.06.27.28.65.72.65.72l-.99-.74s-.2.09-.12.5c.08.42.17.65.17.65s-.28-.77-.44-.92c-.17-.14-.4-.18-.88.09-.49.27-.4.35-.4.35s.02.23.33.63c.32.4.72.6.72.6s.25-.26.6-.1M101.17 74.46s-.09.37.1.6c.19.23.94.58.94.58s-1.5-.56-1.95.92c-.44 1.49-.37 1.7-.35 1.97.02.27.63-.98 1.26-1.07.62-.08 1.5.06 2.67 0 1.18-.06 2.11-1.49 2.08-1.97M120.38 75.86s-3.7-2.84-4.54-5.77c-.84-2.93-1.17-6.07.3-9.33 1.46-3.27 3.1-4.15 4.1-4.53a6.4 6.4 0 0 1 4.69-.16c1.92.75 3.47 2.22 3.47 2.22s2.43 2.05 2.68 5.06c.25 3.02.21 4.98-1.42 6.53-1.63 1.55-2.72 1.93-2.39 2.93.34 1 .76 1.22.76 1.22s-.8.15-1.2-.19c-.4-.33-.52-.84-.52-1.11 0-.27-.06.7-.44.67-.38-.02-.82-.44-.75-.88.06-.44.31-.75.31-.75s-.59.2-.63-.13c-.04-.33.15-1.06.8-1.25.65-.2 1.9.23 3.37-1.32 1.46-1.55 1.8-2.16 1.93-3.4.13-1.24.22-1.8.22-1.8" style="fill:none;stroke:#140533;stroke-width:.12075703;stroke-linecap:round;stroke-linejoin:round;stroke-miterlimit:22.9255867;stroke-opacity:1"/><path d="M121.5 75.05s-1.25-.59-1.67-2.1c-.42-1.5.17-2.42.17-2.42l.3-.03s-.19-.58-.62-.68c-.43-.1-.82.1-.96.36-.2.4-.2.71-.13 1.11" style="fill:none;stroke:#140533;stroke-width:.12075703;stroke-linecap:round;stroke-linejoin:round;stroke-miterlimit:22.9255867;stroke-opacity:1"/><path d="M118.64 70.36c-.17-1.65-1.33-1.07-1.01-.5M117.78 68.9s-.18-1.13.1-1.66.51-.71.59-.72c.07-.01-.12-.62-.59-.67-1.24-.14-1.67.91-1.65 1.99" style="fill:none;stroke:#140533;stroke-width:.12075703;stroke-linecap:round;stroke-linejoin:round;stroke-miterlimit:22.9255867;stroke-opacity:1"/><path d="M116.2 66.99s.33-3.81 1.3-6c.96-2.2 1.44-2.8 2.53-3.5 1.09-.72 2.57-1.01 3.77-.8 1.19.2 2.26.82 2.61 1.23.36.42.5.63.5.63M125.6 70.39s-3.4-.72-4.15-2.44c-.75-1.71-.5-2-.42-2.8.09-.8.96-1.34.96-1.34s.21.1.3.7c.08.62.33.95.71.87.38-.09.19-.55.19-.55s.88 1.28 1.38 1.55c.5.27 2.1.9 2.79-.02s.35-1.86.12-2.16a6.3 6.3 0 0 0-1.63-.75" style="fill:none;stroke:#140533;stroke-width:.12075703;stroke-linecap:round;stroke-linejoin:round;stroke-miterlimit:22.9255867;stroke-opacity:1"/><path d="M126.1 63.53s1.32.55 1.99-.23c.67-.77.67-1.1.54-1.59-.12-.48-.3-.58-.3-.58" style="fill:none;stroke:#140533;stroke-width:.12075703;stroke-linecap:round;stroke-linejoin:round;stroke-miterlimit:22.9255867;stroke-opacity:1"/><path d="M128.36 58.29s-1.3-.55-1.45.26c-.14.82-.12 1.98.82 2.51 1.27.72 1.79-.44 1.82-1.5" style="fill:none;stroke:#140533;stroke-width:.12075703;stroke-linecap:round;stroke-linejoin:round;stroke-miterlimit:22.9255867;stroke-opacity:1"/><path d="M130.03 57.55s-.69-.55-1.1-.15c-.42.4-.55.9-.53 1.53.02.63.48 1.17 1 1.46.53.3 1.03.09 1.3-.48.28-.56.24-.83.24-.83" style="fill:none;stroke:#140533;stroke-width:.12075703;stroke-linecap:round;stroke-linejoin:round;stroke-miterlimit:22.9255867;stroke-opacity:1"/><path d="M131.38 57.86s-.5-.56-.93-.4c-.42.17-.5.9-.31 1.36.19.46.77.84 1.2.59.41-.25.45-.9.45-.9" style="fill:none;stroke:#140533;stroke-width:.12075703;stroke-linecap:round;stroke-linejoin:round;stroke-miterlimit:22.9255867;stroke-opacity:1"/><path d="M131.38 57.86c-.07.28.21.63.46.67.46.08.55-.45.37-.78-.2-.35-.7-.49-.83.11zM124.99 70.87c-2.08-.36-4.44-1.58-4.8-3.85-.3-2.03.27-2.75 1.17-3.91" style="fill:none;stroke:#140533;stroke-width:.12075703;stroke-linecap:round;stroke-linejoin:round;stroke-miterlimit:22.9255867;stroke-opacity:1"/><path d="M121.94 63.52s-.5.2-.58-.41c-.09-.61.2-1.3.2-1.3M121.51 61.6s-1.13-1.14-.57-2.48a2.02 2.02 0 0 1 2.22-1.26c1.01.16 1.26 1.68.64 2.36M124.65 60.29s-.41-.46-.16-1.09c.46-1.16 1.63-1.16 2.38-.5M128.13 101.6l3.77-17.92s2.68.33 3.43-1.34c.93-2.08.71-4.47-1.67-5.32l4.43-19.72M129.85 101.68l3.01-16.04" style="fill:none;stroke:#140533;stroke-width:.12075703;stroke-linecap:round;stroke-linejoin:round;stroke-miterlimit:22.9255867;stroke-opacity:1"/><path d="M131.49 85.64s.87.21 2.38.05c1.5-.17 3.55-1.05 3.68-4.44.13-3.4-.17-3.81-.84-4.78-.67-.96-2.51-1.85-2.51-1.85M135.55 75.42l3.84-17.33" style="fill:none;stroke:#140533;stroke-width:.12075703;stroke-linecap:round;stroke-linejoin:round;stroke-miterlimit:22.9255867;stroke-opacity:1"/><path d="m136.84 56.38 4.18.83c2.77.55 5.28 1.26 6.79 1.64 1.5.37 3.39.8 4.69 1.04 1.3.25 2.22.46 2.22.46s-2.06 11.73-2.39 14.16a95.99 95.99 0 0 1-2.01 10.55c-.84 2.93-3.6 15.07-3.94 17.75-.33 2.68-.5 3.52-.5 3.52s-13.19-2.93-15.2-3.48c-2-.54-2.8-.67-2.8-.67" style="fill:none;stroke:#140533;stroke-width:.12075703;stroke-linecap:round;stroke-linejoin:round;stroke-miterlimit:22.9255867;stroke-opacity:1"/><path d="M128.19 101.32s3.04.44 5.13.95c2.1.5 4.86.92 6.49 1.38 1.63.46 3.43.59 4.27.71.84.13 2.06.29 2.06.29" style="fill:none;stroke:#140533;stroke-width:.12075703;stroke-linecap:round;stroke-linejoin:round;stroke-miterlimit:22.9255867;stroke-opacity:1"/><path d="M144.42 105.74s1.21-6.57 1.67-8.62c.46-2.06 1.6-7.67 1.84-9.05.25-1.38 1.55-4.81 2.3-8.25.76-3.43 1.26-8.62 1.51-10.88.25-2.26 1.51-7.96 1.51-7.96s-4.42-1.07-6.61-1.53c-2.2-.46-4.02-1.21-5.15-1.32-1.14-.1-2.4-.08-2.62-.2M138.5 96.45c-.55-.3-2.94-1.85-4.4-1.55-1.47.3-2.22 1.34-2.22 2.26 0 .92.75 2 1.42 2.05.67.04 1.05-.38.96-.8-.08-.41-.23-.77-.52-.58-.3.19-.4.56-.4.56" style="fill:none;stroke:#140533;stroke-width:.12075703;stroke-linecap:round;stroke-linejoin:round;stroke-miterlimit:22.9255867;stroke-opacity:1"/><path d="M132.19 98.8s1 1.94 1.92 2.13c.93.19 1.8-.92 1.72-1.64-.08-.7-.17-1.1-.48-1.34-.31-.23-.8-.44-.8-.44M136.02 96.22s-.25 1.55.1 2.26c.36.7.9.75 1.1.35.18-.4.16-.8 0-.88-.17-.08-.24-.14-.24-.14M137.7 97.33s-.11 1.04.25 1.48c.35.44.81.38 1.02.1.21-.27.25-.77.04-.87M137.46 100.97s.46.08.78.25c.31.17.4.3.4.3s-.74-.61-.5-1.1c.22-.48.73-.56 1.17-.02.44.55.56.92.56 1.2M139.96 95.94s-1.2 1.32.02 3.33a6.1 6.1 0 0 0 3.6 2.77c.56.14 1.17.16 1.17.16s-2.01-1.42-2.5-2.26c-.47-.84-.54-1.7-.54-1.7l.38-.96s-.02.97.4 1.53c.42.57.8.4 1.07.48.27.09-.23-.81-.34-1.4l-.1-.54c.13 1.3 1.57 2.77 2.36 2 .2-.18-.22-.36-.22-.36s-.32-.03-.53-.28a4.9 4.9 0 0 1-.52-2.8c.14-1.26.77-2.06.96-2.48.19-.42 1.13-1.38 1.32-3.43.19-2.05-.61-3.4-.61-3.4" style="fill:none;stroke:#140533;stroke-width:.12075703;stroke-linecap:round;stroke-linejoin:round;stroke-miterlimit:22.9255867;stroke-opacity:1"/><path d="M141.01 95.67s-2.63-.04-4.27-1.5a7.4 7.4 0 0 1-2.34-4.07c-.3-1.13.17-2.22.17-2.22s.92-2.3 2.17-2.26c1.26.04 1.68.63 1.8 1.43.13.8.05.92.05.92M133.98 93.98s.84.25.94-.07c.1-.31-.1-.94-.1-.94M133.23 93.1s.81.69.81-.5c0-.8-.37-1.47-1.02-1.93M132.55 92.43s.4.1.42-.1c.02-.22-.29-.76-.29-.76" style="fill:none;stroke:#140533;stroke-width:.12075703;stroke-linecap:round;stroke-linejoin:round;stroke-miterlimit:22.9255867;stroke-opacity:1"/><path d="M135.55 89.81s.08 2.53 2.4 3.94c2.33 1.4 4.3.68 5.43-.55s1.9-2.3 2.1-4.27c.18-1.97.03-4.58-3.48-5.74" style="fill:none;stroke:#140533;stroke-width:.12075703;stroke-linecap:round;stroke-linejoin:round;stroke-miterlimit:22.9255867;stroke-opacity:1"/><path d="M137.18 90.09s.91-1.05 1.87-.64c.97.42 1.04.94.81 1.36-.23.43-1.28.57-1.53-.06-.25-.63.02-.63.02-.63" style="fill:none;stroke:#140533;stroke-width:.12075703;stroke-linecap:round;stroke-linejoin:round;stroke-miterlimit:22.9255867;stroke-opacity:1"/><path d="M138.83 91.13s-.21 1.29 1.59 1.35c.67.02.9-.29 1.11-.5.37-.34.44-.69.41-.88-.04-.32-.25-.85-.73-.87-.48-.02-.48.47-.48.47M141.37 89.18s-.1.8.6 1.2c.72.38 1.77 0 1.65-1.57-.09-1.07-1.5-2.4-2.33-1.67-.14.12-.23.52-.2.74M138.92 87.62c.24-.52 1.15-1.12 1.43.43.07.38 0 .56 0 .56M137.63 83.88s1.31 2.53 2.72 2.28c1.42-.26 1.49-1.36 1.32-2.16-.17-.8-.93-.93-.93-.93M138.42 81.35s.8.1 1.19-.37c.4-.49.63-1.39 1.34-1.53.71-.15 1.72.18 1.78 1.23.06 1.05-.94 1.5-1.47 1.68" style="fill:none;stroke:#140533;stroke-width:.12075703;stroke-linecap:round;stroke-linejoin:round;stroke-miterlimit:22.9255867;stroke-opacity:1"/><path d="M141.9 79.89s1.42-.76.41-3.08c-1-2.33-2.85-2.43-3.08-2.4-.23.01-1.25 0-1.5.93-.26.95.37 1.72.73 1.82.35.11.46-.37.46-.37" style="fill:none;stroke:#140533;stroke-width:.12075703;stroke-linecap:round;stroke-linejoin:round;stroke-miterlimit:22.9255867;stroke-opacity:1"/><path d="M138.35 76.3s-.67.32-1.17-.3c-.5-.64-.42-2.04.51-2.92 1.14-1.08 3.43.57 3.43 1.2M139.3 75.87s1.34-.13 1.46 1.13l.13 1.3M144.95 80.64s1.38-1.72-.38-4.19c-1.76-2.47-3.26-1.84-4.23-5.06-.96-3.23.2-4.3.86-5.36.67-1.07 1.6-2.22.59-4.02-1-1.8-2.26-.63-2.64.7-.38 1.35.59 2.56 1.05 2.35.46-.2.49-.95.4-1.21-.08-.26-.4-.6-.53-.1" style="fill:none;stroke:#140533;stroke-width:.12075703;stroke-linecap:round;stroke-linejoin:round;stroke-miterlimit:22.9255867;stroke-opacity:1"/><path d="M139.88 62.84c.9-1.04 1.44.56 1.29 1.32M138.53 65.94s.58.83 1.09.5c.51-.32.39-.77.35-.89M138.23 71.52s.35.42.72-.23.34-1.44.16-1.99a3.74 3.74 0 0 0-.25-.66M137.76 70.59s.31.38.45-.03a2 2 0 0 0-.09-1.2c-.1-.22-.25-.3-.25-.3M137.26 69.48s.14.02.08.43l-.07.42M145.64 81.28s1.25-.76 1-2.47a7 7 0 0 0-2.05-4.1c-1.17-1.26-2.43-2.27-2.55-4.53-.13-2.26 1.04-3.97 2.05-4.56 1-.59 3.14-1.68 4.19.3 1.04 1.96.08 3.47-.34 3.68-.42.2-1.72.29-2.1-.21-.37-.5.03-1.22.03-1.22s.25.53.63.34c.37-.2.31-.99.14-1.32-.16-.34-.37-.4-.37-.4" style="fill:none;stroke:#140533;stroke-width:.12075703;stroke-linecap:round;stroke-linejoin:round;stroke-miterlimit:22.9255867;stroke-opacity:1"/><path d="M145.68 74.35s-1.8-1.93-2.1-3.27c-.29-1.34-.08-2.89.47-3.6.54-.71 1.36-1.76 2.43-1.38 1.06.38 1 1.26.94 1.65-.07.4-.13.46-.13.46M142.41 66.58s1.16-2.11 2.48-2.49a4.18 4.18 0 0 1 3.1.04c1.35.42 2.4.63 3.26.25.86-.37 1.34-1.71.9-2.26-.44-.54-1.45-.46-1.49-.23M143.59 62.72s.58.69 1.21.34c.63-.34.73-.6.76-.96.02-.36-.37-.43-.37-.43M143.44 61.95s.7.19.9-.2c.2-.39.15-.64.1-.74M148.75 67.6s.42 1.02 1 1.04c.6.03.57-.16.47-.6-.1-.44-.15-.49-.15-.49s.45.12.56.2c.56.44 1.26-.08 1.2-.62-.03-.3-.24-.78-.42-.88-.18-.1-.2-.2-.2-.2 1.06.18 1.8-1.32 1.68-2.23-.1-.71-.21-.76-.21-.76" style="fill:none;stroke:#140533;stroke-width:.12075703;stroke-linecap:round;stroke-linejoin:round;stroke-miterlimit:22.9255867;stroke-opacity:1"/><path d="M145.92 75.27s-.34-.63-.02-1.78c.46-1.7 1.81-2.4 3.4-1.32 1.27.86 1.2 2.12.8 2.04 0 0-.18-.8-.77-1.2-.59-.4-1.66-.32-1.9.3-.26.6-.57 1.77-.68 2.32-.1.54.09.18.44 1.1.8 2.06.8 3.57-1.47 5.17" style="fill:none;stroke:#140533;stroke-width:.12075703;stroke-linecap:round;stroke-linejoin:round;stroke-miterlimit:22.9255867;stroke-opacity:1"/><path d="M143.1 82.6s.92.6 2.43.25c1.5-.35 2.76-2.07 3.08-2.8.31-.73 0-2.56-.34-3.37-.33-.82-.42-.82-.42-.82M149.42 79.24s.42-.35.42-1.13c0-.77-.75-2.3-1.34-3-.58-.68-.75-.9-.75-.9M146.57 85.88s-.7.02-.83-1.13.48-1.17.75-.73c.27.43.38 1.13.38 1.13M147.41 85s-.17-1.97.57-1.84c.73.12.5 1 .4 1.4-.1.4-.32.48-.32.48s.1.44 0 .63-.5-.02-.5-.02M87.01 67.17c-1.46.59-1.97 2.9-1.13 4.23.84 1.34 3.56 2.22 5.15 1.51 1.6-.71 2.01-1.88 1.6-3.18-.79-2.41-3.21-3.52-5.62-2.56zm.62.83c-1.03.42-1.39 2.04-.8 2.99.6.95 2.52 1.57 3.64 1.06 1.12-.5 1.42-1.33 1.12-2.24-.55-1.7-2.26-2.48-3.96-1.8zm0 0" style="fill:none;stroke:#140533;stroke-width:.12075703;stroke-linecap:round;stroke-linejoin:round;stroke-miterlimit:22.9255867;stroke-opacity:1"/><path d="M88.69 69.41c-.3.13-.4.6-.24.88.18.27.74.45 1.07.3.33-.14.41-.38.33-.65-.16-.5-.67-.72-1.16-.53zm0 0" style="fill:none;stroke:#140533;stroke-width:.12076581;stroke-linecap:round;stroke-linejoin:round;stroke-miterlimit:22.9255867;stroke-opacity:1"/><path d="M130.27 78.72c-.92.7-.74 1.73-.53 2.3.21.56 1.28 1.32 2.24 1.2.97-.13 1.22-1 1.18-1.94-.08-1.55-1.7-2.49-2.9-1.56zm.44.63c-.54.43-.43 1.04-.3 1.37.12.34.75.78 1.32.7.57-.07.72-.59.7-1.13-.05-.92-1-1.48-1.72-.94zm0 0" style="fill:none;stroke:#140533;stroke-width:.12075703;stroke-linecap:round;stroke-linejoin:round;stroke-miterlimit:22.9255867;stroke-opacity:1"/><path d="M131.1 79.9c-.23.17-.19.43-.13.57.05.14.31.32.55.3.24-.04.3-.26.29-.48-.02-.39-.42-.62-.71-.4zm0 0" style="fill:none;stroke:#140533;stroke-width:.12075213;stroke-linecap:round;stroke-linejoin:round;stroke-miterlimit:22.9255867;stroke-opacity:1"/><path d="m130.62 78.53-.89.86M131.41 78.38l-1.84 1.8M131.94 78.5l-.68.67m-.95.93-.66.64M132.34 78.73l-.55.55m-.61.6-.22.2m-.59.58-.55.54M132.67 79.05l-.53.52m-.45.44-.63.62m-.43.42-.52.5M132.91 79.4l-.55.55m-.56.54-.3.3m-.52.5-.53.52M133.1 79.87l-.67.65m-.96.93-.6.6M133.16 80.43l-1.82 1.77M133.1 81.13l-1.14 1.1M90.32 67.16l-.73.72m-2.9 2.83-.78.76M90.74 67.37l-.68.67m-3.15 3.08-.72.7M91.14 67.63l-.67.65M89.3 69.4l-.88.86m-1.2 1.18-.7.68M91.46 67.9l-.66.65m-1.13 1.1-.92.9m-1.18 1.15-.69.67M91.78 68.23l-.68.66m-1.23 1.2-.6.58M88 71.92l-.7.68M92.05 68.58l-.7.69m-2.89 2.82-.72.7M92.3 68.98l-.75.73M89 72.21l-.77.75M92.51 69.45l-.82.8m-2.05 2-.86.85M92.67 69.93l-1.04 1.03m-1.15 1.11-1.13 1.1M92.77 70.47 90 73.17M92.72 71.16l-1.9 1.86M87.05 67.18 85.8 68.4M87.97 66.92l-2.44 2.4M88.69 66.85l-1.46 1.42m-.14.14L85.48 70M89.3 66.89l-.96.94m-1.76 1.72-1.04 1.01M89.83 67l-.8.79m-2.47 2.4-.87.86M129.66 79.58l.37 1.89M130 79l.57 2.9M130.4 78.65l.16.87m.35 1.74.17.87M130.81 78.45l.16.78m.13.69.17.83m.14.7.15.79M131.26 78.38l.16.79m.15.72.15.79m.15.74.16.8M131.73 78.43l.18.92m.35 1.78.2.96M132.24 78.67l.61 3.06M132.78 79.18l.35 1.79M85.52 69.34l.43 2.2M85.8 68.41l.74 3.72M86.13 67.88l.42 2.16m.13.66.35 1.76M86.51 67.49l.28 1.38m.52 2.65.24 1.2M86.92 67.24l.22 1.12m.69 3.48.21 1.07M87.35 67.08l.2.99m.79 3.98.2 1M87.82 66.95l.18.95m.39 1.94.1.52m.36 1.83.19.95M88.27 66.88l.18.93m.32 1.6.24 1.24m.32 1.6.18.93M88.72 66.85l.18.93m.32 1.6.25 1.26m.31 1.6.19.94M89.19 66.88l.19.95m.38 1.95.1.5m.38 1.88.18.96M89.66 66.96l.2 1m.8 4.03.2 1.01M90.16 67.1l.22 1.12m.7 3.5.2 1.09M90.66 67.33l.27 1.34m.52 2.65.25 1.25M91.2 67.67l.9 4.57M91.72 68.16l.72 3.66M92.38 69.15l.37 1.86M91.59 68.02l-2.8-1.17M92.43 69.27l-1.57-.66m-1.97-.83-1.63-.67M92.75 70.3l-1.16-.49m-4.1-1.71-1.14-.47M92.72 71.17l-1.04-.44m-1.83-.76-1.21-.5m-1.77-.75-1.01-.42M92.37 71.92l-1.05-.44m-1.96-.81-.92-.39m-1.85-.77-1.02-.43M91.78 72.5l-1.18-.48m-4.02-1.68-1.1-.47M90.83 73.01l-1.97-.82m-1.48-.62-1.77-.74M89.02 73.14l-2.56-1.07M132.29 78.7l-.7-.3M133.1 79.94l-1-.42m-.84-.35-1-.42M133.13 80.95l-.71-.3m-.61-.26-.83-.34m-.6-.25-.7-.3M132.85 81.73l-.85-.36m-1.61-.67-.8-.33M131.96 82.24l-1.98-.83M89.78 67.97l-3.09 1.19M90.72 68.5l-4.16 1.6M91.3 69.22l-4.52 1.74M91.63 69.99 87.4 71.6M91.67 70.85l-3.27 1.26M131.88 79.37l-1.54.59M132.39 80.07l-1.97.75M132.34 81.02l-1.1.42" style="fill:none;stroke:#140533;stroke-width:.04597476;stroke-linecap:round;stroke-linejoin:round;stroke-miterlimit:22.9255867;stroke-opacity:1"/><path d="m32.2 96.77 2.02 3.01-3.02 4.94" style="fill:none;stroke:#140533;stroke-width:.12075703;stroke-linecap:round;stroke-linejoin:round;stroke-miterlimit:22.9255867;stroke-opacity:1"/><path d="m30.05 101.08 4.17-1.3 5.86 1.47" style="fill:none;stroke:#140533;stroke-width:.12075703;stroke-linecap:round;stroke-linejoin:round;stroke-miterlimit:22.9255867;stroke-opacity:1"/><path d="m30.05 98.15 4.17 1.63 1.42 5.78M38.74 104.01l-4.52-4.23 3.22-1.84" style="fill:none;stroke:#140533;stroke-width:.12075703;stroke-linecap:round;stroke-linejoin:round;stroke-miterlimit:22.9255867;stroke-opacity:1"/><path d="m120.8 128-3.99 3.89M120.4 129.51l-2.9 2.84M120 131.07l-1.59 1.56M119.63 132.5l-.52.51M83.02 95.6l-12.18 11.9m-16.28 15.9-10.69 10.45M83.93 95.85l-12.2 11.93m-14.89 14.54-11.8 11.53M84.85 96.11l-12.22 11.94m-13.82 13.5-12.58 12.3M85.7 96.35 73.47 108.3m-13.05 12.75-13.1 12.8M86.62 96.62 74.4 108.57m-12.43 12.14-13.44 13.14M87.53 96.87l-12.25 11.97M63.34 120.5l-13.66 13.35M88.45 97.13 76.2 109.11m-11.54 11.27-13.79 13.47M89.43 97.4 77.17 109.4m-11.2 10.93-13.84 13.53M90.35 97.67 78.1 109.65M69 118.51 68 119.52m-.82.8-13.85 13.53M91.26 97.93 79 109.9m-8.67 8.47L54.5 133.85M92.19 98.19l-12.27 11.98m-8.68 8.48-15.55 15.2M93.09 98.44l-12.27 11.99m-9.48 9.26-14.49 14.16M94.01 98.7 81.75 110.7m-9.93 9.7-13.78 13.46M94.86 98.94 82.6 110.93m-9.72 9.49-13.74 13.43M95.79 99.2l-12.26 11.98m-9.5 9.27-13.7 13.4M96.69 99.46l-12.26 11.98m-9.26 9.04-13.68 13.37M97.61 99.72 85.36 111.7m-9.03 8.83-13.65 13.33M98.58 100l-12.25 11.96m-8.8 8.6-13.6 13.29M99.5 100.26 87.27 112.2m-8.56 8.38-13.58 13.26M100.4 100.51l-12.23 11.95m-8.34 8.16-13.55 13.23M101.33 100.77l-12.22 11.95m-8.13 7.93-13.5 13.2M102.24 101.03l-12.21 11.94m-7.9 7.71-13.48 13.17M103.17 101.29l-12.21 11.93m-7.68 7.5-13.44 13.13M104.07 101.55l-12.2 11.91m-7.46 7.29-13.4 13.1M105 101.8l-12.2 11.91m-7.23 7.07L72.2 133.85M105.84 102.05l-12.17 11.9m-7.03 6.86-13.35 13.04M106.77 102.3 94.6 114.2m-6.8 6.64-13.32 13M107.67 102.56l-12.15 11.87m-6.6 6.45-13.27 12.97M108.6 102.82l-12.14 11.86m-6.38 6.23-13.24 12.94M109.59 103.1l-12.12 11.85m-6.14 6-13.2 12.9M110.51 103.37l-12.1 11.82m-5.98 5.84-13.12 12.82M111.42 103.62l-13.16 12.85m-4.72 4.61-13.06 12.77M112.34 103.88l-15.61 15.25m-1.96 1.91-13.1 12.8M113.25 104.14l-30.4 29.7M114.18 104.4l-30.14 29.45M115.08 104.66 85.2 133.85M116 104.92 86.4 133.85M116.85 105.16 87.5 133.85M117.78 105.42l-29.1 28.43M118.68 105.67l-28.84 28.18M119.6 105.93l-28.57 27.92M120.62 106.22l-28.27 27.63M121.55 106.48l-28.01 27.37M122.45 106.74l-27.75 27.1M122.51 107.84l-26.62 26M121.95 109.54l-24.88 24.3M122.26 110.4l-24 23.45M123.14 110.68l-23.72 23.17M124.03 110.97l-23.42 22.88M124.86 111.23l-23.15 22.62M124.83 112.43l-21.93 21.42M124.43 113.95l-20.36 19.9M124.03 115.5l-18.77 18.35M123.6 117.18l-17.06 16.67M123.2 118.74l-12 11.73m-2.36 2.3-1.1 1.08M122.8 120.26l-8.4 8.21M122.4 121.82l-7.55 7.38M122 123.36l-6.73 6.57M121.6 124.91l-5.86 5.72M121.2 126.44l-4.96 4.84M77.95 31.25l-9.12 8.92M51.48 57.12l-2.33 2.27m-2.71 2.65L30.5 77.6M78.92 31.45l-9.1 8.89M51.07 58.65l-.96.94m-2.75 2.7L30.08 79.15M79.92 31.63l-9.09 8.88M48.3 62.52 29.7 80.7M80.85 31.8l-9.09 8.87m-22.6 22.08L29.7 81.77M81.86 31.97l-9.09 8.88M50.11 62.99 29.7 82.93M82.86 32.13l-9.1 8.9M49.7 64.52l-20 19.54M83.88 32.3l-9.11 8.9m-25.5 24.91L29.7 85.23M84.97 32.46l-9.13 8.93M48.82 67.78 29.7 86.46M86.02 32.6l-9.17 8.96M48.4 69.36 29.7 87.62M87.07 32.73l-9.23 9M47.98 70.92 29.7 88.77M88.13 32.85l-9.28 9.06M47.55 72.5 29.7 89.93M89.17 32.97l-9.33 9.12m-32.7 31.94L29.7 91.07M90.24 33.1l-9.39 9.16M46.72 75.61 29.7 92.23M91.22 33.2l-9.44 9.22M46.33 77.06 29.7 93.3M92.28 33.33 82.8 42.6M45.9 78.64 29.7 94.46M93.32 33.45l-9.54 9.32m-38.3 37.41L29.72 95.6M94.37 33.59l-9.58 9.36M45.06 81.76l-14.9 14.56M95.44 33.76l-9.6 9.38M44.63 83.42 31.14 96.58M96.38 34l-9.52 9.31m-42.37 41.4L32.14 96.77M97.35 34.2l-9.5 9.28M45.38 84.96 33.12 96.95M98.35 34.38l-9.5 9.28M46.31 85.22l-12.18 11.9M99.35 34.56l-9.5 9.28M47.22 85.48l-12.1 11.83M100.35 34.74 90.86 44M48.15 85.74 36.1 97.51M101.34 34.91l-9.5 9.28m-42.79 41.8-12 11.73M102.34 35.1l-9.48 9.26m-42.89 41.9L38.01 97.95M103.26 35.27l-9.47 9.25M50.82 86.5 38.87 98.18M104.26 35.45 94.8 44.7M51.75 86.76 39.79 98.44M105.23 35.64l-9.45 9.23M52.65 87.02 40.7 98.69M106.22 35.84l-9.43 9.21M53.58 87.28 41.62 98.95M107.28 36.06l-9.4 9.18M54.57 87.56 42.62 99.23M108.25 36.28l-9.36 9.14m-43.4 42.4L43.54 99.49M109.18 36.5l-9.3 9.09M56.4 88.07 44.45 99.75M110.12 36.75l-9.23 9.02M57.32 88.33l-11.95 11.68M111 37.04l-9.11 8.9M58.23 88.6l-11.95 11.68M30 116.17l-.3.3M111.87 37.35l-8.97 8.77M59.16 88.85 47.2 100.53M35.05 112.4l-5.34 5.22M112.71 37.67l-8.83 8.62M60.06 89.11 48.1 100.79m-12.47 12.18-5.92 5.8M113.56 38l-8.66 8.47m-43.92 42.9-11.96 11.68m-12.8 12.51-6.51 6.37M114.34 38.32l-8.52 8.31M61.83 89.61 49.87 101.3m-13.1 12.8L29.7 121M115.18 38.66l-8.34 8.15M62.76 89.87l-11.97 11.7m-13.43 13.11-7.65 7.48M116 39l-8.18 7.98M63.66 90.13l-11.97 11.7m-13.75 13.43-8.23 8.04M116.83 39.34l-8 7.82M64.58 90.39l-11.97 11.7m-14.08 13.75-8.82 8.62M117.75 39.73l-7.8 7.62M65.6 90.68l-11.98 11.7m-14.44 14.11-9.11 8.9M118.58 40.08l-7.62 7.45m-44.43 43.4-11.99 11.72m-14.77 14.43-8.97 8.76M119.39 40.43l-7.45 7.27M67.43 91.2l-12 11.7m-15.08 14.75-8.83 8.62M120.22 40.78l-7.27 7.1m-44.6 43.57-12 11.72m-15.4 15.06-8.7 8.49M121.03 41.14l-7.08 6.91M69.27 91.71l-12 11.73M41.52 118.8l-8.55 8.35M121.86 41.5l-6.9 6.73M70.2 91.97l-12.01 11.74M42.12 119.4l-8.4 8.2M122.66 41.85l-6.71 6.55M71.09 92.23l-12.02 11.74m-16.37 16-8.27 8.07M123.48 42.2l-6.52 6.38m-44.94 43.9-12.03 11.76m-13.44 13.13L34.9 128.75M124.24 42.54l-6.35 6.2M72.87 92.73l-12.04 11.75m-13.75 13.44-13.66 13.35M124.28 43.66l-5.38 5.26M73.79 92.99l-12.04 11.76m-14.1 13.77-15.68 15.33M123.63 45.44l-3.74 3.65m-45.2 44.15-12.05 11.78M48.22 119.1l-15.09 14.74M122.95 47.26l-2.05 2M75.62 93.5l-12.07 11.8M48.8 119.7l-14.48 14.15M122.23 49.22l-.25.24M76.61 93.79l-12.07 11.8m-15.12 14.76-13.81 13.5M77.54 94.05l-12.1 11.8M50 120.96l-13.2 12.9M78.44 94.3l-12.1 11.82m-15.78 15.42-12.6 12.3M79.36 94.56 67.25 106.4m-16.11 15.74-11.99 11.7M80.27 94.82l-12.13 11.85m-16.43 16.06-11.38 11.12M81.2 95.08l-12.15 11.87m-16.77 16.38-10.76 10.52M82.1 95.34l-12.17 11.89m-17.08 16.69-10.17 9.93M29.96 30.73l-.25.25M31.15 30.73l-1.44 1.42M32.33 30.73l-1.84 1.8M33.52 30.73l-2.03 1.99M34.69 30.73l-2.23 2.17M35.88 30.73l-2.42 2.36M36.97 30.73l-2.59 2.53M38.16 30.73l-2.78 2.72M39.33 30.73l-2.98 2.91M40.52 30.73l-3.17 3.1M41.8 30.73l-3.38 3.3M43 30.73l-3.6 3.5M44.16 30.73l-3.78 3.7M45.35 30.73l-3.99 3.9M46.52 30.73l-4.19 4.1m-.64.63-.88.86M47.71 30.73l-4.4 4.3m-.68.67-2.18 2.12M48.88 30.73l-4.61 4.5m-.72.71L40.1 39.3M50.07 30.73l-4.84 4.73m-.74.73-4.73 4.62M51.16 30.73l-5.05 4.94m-.76.74-5.91 5.78M52.36 30.73l-5.3 5.17m-.77.75-7.2 7.05M53.52 30.73 48 36.13m-.79.76-8.47 8.28M54.71 30.73l-5.75 5.62m-.8.79-9.77 9.54M56.03 30.73l-6 5.86m-.84.82L38 48.34M57.22 30.73l-6.23 6.08m-.85.84-12.5 12.2M58.38 30.73l-6.44 6.3m-.89.86L37.3 51.32M59.57 30.73l-6.66 6.51m-.91.9-15.05 14.7M60.75 30.73l-6.88 6.72m-.95.93L36.61 54.32M61.94 30.73l-7.1 6.93m-.98.96-17.6 17.2M63.1 30.73l-7.3 7.14m-1.02.99L36.54 56.68M64.3 30.73l-7.52 7.34m-1.05 1.03L37.52 56.9M65.39 30.73l-7.7 7.53m-1.66 1.61L38.42 57.08m-2.35 2.3-.7.69M66.58 30.73l-7.9 7.72m-3.06 3L39.4 57.28m-2.38 2.33-2.1 2.04M67.74 30.73l-8.08 7.9m-4.44 4.34L40.35 57.5m-2.41 2.35-3.45 3.37M68.93 30.73l-8.25 8.07m-5.88 5.74L41.32 57.71m-2.44 2.39-4.83 4.71M70.22 30.73 61.77 39m-7.42 7.24-11.97 11.7m-2.49 2.43-6.32 6.17M71.41 30.73l-8.63 8.43m-8.84 8.64L43.35 58.14m-2.51 2.46-7.7 7.53M72.57 30.73l-8.8 8.6m-10.24 10-9.22 9.02m-2.55 2.49-9.06 8.85M73.76 30.73 64.8 39.5M53.12 50.9l-7.84 7.66m-2.58 2.52-10.44 10.2M74.94 30.73l-9.14 8.93M52.7 52.45l-6.46 6.32m-2.62 2.55-11.8 11.53M76.02 30.84l-9.2 9M52.3 54.01l-5.08 4.95m-2.65 2.6L31.38 74.44M76.97 31.05 67.81 40M51.89 55.55l-3.71 3.63m-2.69 2.62L30.95 76" style="fill:none;stroke:#140533;stroke-width:.04597476;stroke-linecap:round;stroke-linejoin:round;stroke-miterlimit:22.9255867;stroke-opacity:1"/></svg>