<svg xmlns="http://www.w3.org/2000/svg" width="210mm" height="297mm" viewBox="0 0 210 297"><path d="m29.61 123.45-.05-28.6M35.21 123.43l-.11-28.58M53.65 123.43l-.06-28.53" style="fill:none;stroke:#140533;stroke-width:.16635607;stroke-linecap:round;stroke-linejoin:round;stroke-miterlimit:22.9255867;stroke-opacity:1"/><path d="m39.16 123.32-.03-15.58 10.83-.06.04 15.61M60.25 124v-4.64h8.26l.03 4.62M59 123.63l-.01-4.48 1.2.02M57.75 123.46v-4.48l1.2.01" style="fill:none;stroke:#140533;stroke-width:.16559692;stroke-linecap:round;stroke-linejoin:round;stroke-miterlimit:22.9255867;stroke-opacity:1"/><path d="m68.53 119.12-8.33.05s.01-.35.33-.35h7.65c.24 0 .3.09.35.3zM68.2 118.63h-7.57s.01-.3.33-.3h6.75c.24 0 .44.09.48.3zM60.96 118.33V118l6.83-.03v.36" style="fill:none;stroke:#140533;stroke-width:.16635607;stroke-linecap:round;stroke-linejoin:round;stroke-miterlimit:22.9255867;stroke-opacity:1"/><path d="M60.22 118.98h-1.27s0-.23.23-.31c.1-.04.4-.04.7-.04h.87l-.01.17" style="fill:none;stroke:#140533;stroke-width:.16635607;stroke-linecap:round;stroke-linejoin:round;stroke-miterlimit:22.9255867;stroke-opacity:1"/><path d="M59.02 118.79h-1.35s0-.23.23-.31c.1-.04.39-.04.7-.04h.73v.18M60.66 118.47H59.4s0-.24.22-.32c.1-.03.39-.02.7-.02h.62" style="fill:none;stroke:#140533;stroke-width:.16635607;stroke-linecap:round;stroke-linejoin:round;stroke-miterlimit:22.9255867;stroke-opacity:1"/><path d="m59.48 118.25-1.31-.01s0-.23.22-.31c.1-.04 1 0 1.31 0M61.35 117.82h-1.6v.31" style="fill:none;stroke:#140533;stroke-width:.16635607;stroke-linecap:round;stroke-linejoin:round;stroke-miterlimit:22.9255867;stroke-opacity:1"/><path d="M60.12 117.6H58.5v.32" style="fill:none;stroke:#140533;stroke-width:.16635607;stroke-linecap:round;stroke-linejoin:round;stroke-miterlimit:22.9255867;stroke-opacity:1"/><path d="M61.37 117.95v-.6l6.21-.03v.62" style="fill:none;stroke:#140533;stroke-width:.16650698;stroke-linecap:round;stroke-linejoin:round;stroke-miterlimit:22.9255867;stroke-opacity:1"/><path d="M61.37 117.35s.04-.25.26-.34c.22-.08.38-.06.38-.06l4.96-.01c.38-.01.57.07.61.39" style="fill:none;stroke:#140533;stroke-width:.16635607;stroke-linecap:round;stroke-linejoin:round;stroke-miterlimit:22.9255867;stroke-opacity:1"/><path d="M60.14 117.78v-.61h1.3" style="fill:none;stroke:#140533;stroke-width:.16650698;stroke-linecap:round;stroke-linejoin:round;stroke-miterlimit:22.9255867;stroke-opacity:1"/><path d="M60.15 117.15s0-.23.23-.3c.1-.04 1.4-.04 1.7-.04" style="fill:none;stroke:#140533;stroke-width:.16635607;stroke-linecap:round;stroke-linejoin:round;stroke-miterlimit:22.9255867;stroke-opacity:1"/><path d="M70.09 123.63v-4.48l-1.54.02M71.44 123.46l.01-4.48-1.32.01" style="fill:none;stroke:#140533;stroke-width:.16644274;stroke-linecap:round;stroke-linejoin:round;stroke-miterlimit:22.9255867;stroke-opacity:1"/><path d="M68.53 118.98h1.6s0-.23-.25-.31c-.1-.04-.42-.04-.76-.04h-.94v.17" style="fill:none;stroke:#140533;stroke-width:.16666952;stroke-linecap:round;stroke-linejoin:round;stroke-miterlimit:22.9255867;stroke-opacity:1"/><path d="M70.06 118.79h1.47s0-.23-.24-.31c-.11-.04-.43-.04-.77-.04h-.8v.18M68.11 118.47h1.54s0-.24-.25-.32c-.1-.03-1.2-.02-1.54-.02" style="fill:none;stroke:#140533;stroke-width:.16666952;stroke-linecap:round;stroke-linejoin:round;stroke-miterlimit:22.9255867;stroke-opacity:1"/><path d="M69.56 118.25h1.56s0-.24-.24-.33c-.1-.03-1.23 0-1.57 0M67.63 117.82h1.64v.31" style="fill:none;stroke:#140533;stroke-width:.16666952;stroke-linecap:round;stroke-linejoin:round;stroke-miterlimit:22.9255867;stroke-opacity:1"/><path d="m69.03 117.6 1.77-.01v.33" style="fill:none;stroke:#140533;stroke-width:.16666952;stroke-linecap:round;stroke-linejoin:round;stroke-miterlimit:22.9255867;stroke-opacity:1"/><path d="M69.03 117.78v-.61h-1.49" style="fill:none;stroke:#140533;stroke-width:.16688073;stroke-linecap:round;stroke-linejoin:round;stroke-miterlimit:22.9255867;stroke-opacity:1"/><path d="M69.01 117.15s0-.23-.27-.3c-.12-.04-1.37-.04-1.74-.04" style="fill:none;stroke:#140533;stroke-width:.16636315;stroke-linecap:round;stroke-linejoin:round;stroke-miterlimit:22.9255867;stroke-opacity:1"/><path d="m62.13 116.9-.09-41.85M60.87 116.82v-2.7h1.25" style="fill:none;stroke:#140533;stroke-width:.16635607;stroke-linecap:round;stroke-linejoin:round;stroke-miterlimit:22.9255867;stroke-opacity:1"/><path d="M62.09 113.82h-1.25v-2.46h1.26" style="fill:none;stroke:#140533;stroke-width:.16636766;stroke-linecap:round;stroke-linejoin:round;stroke-miterlimit:22.9255867;stroke-opacity:1"/><path d="M60.94 113.82h.22v.26h-.22zm0 0" style="fill:none;stroke:#140533;stroke-width:.166081;stroke-linecap:round;stroke-linejoin:round;stroke-miterlimit:22.9255867;stroke-opacity:1"/><path d="M62.09 111.07h-1.25v-2.46h1.26" style="fill:none;stroke:#140533;stroke-width:.16636766;stroke-linecap:round;stroke-linejoin:round;stroke-miterlimit:22.9255867;stroke-opacity:1"/><path d="M60.94 111.07h.22v.26h-.22zm0 0" style="fill:none;stroke:#140533;stroke-width:.166081;stroke-linecap:round;stroke-linejoin:round;stroke-miterlimit:22.9255867;stroke-opacity:1"/><path d="M62.09 108.27h-1.25v-2.46h1.26" style="fill:none;stroke:#140533;stroke-width:.16636766;stroke-linecap:round;stroke-linejoin:round;stroke-miterlimit:22.9255867;stroke-opacity:1"/><path d="M60.94 108.27h.22v.26h-.22zm0 0" style="fill:none;stroke:#140533;stroke-width:.166081;stroke-linecap:round;stroke-linejoin:round;stroke-miterlimit:22.9255867;stroke-opacity:1"/><path d="m62.09 105.5-1.25-.01v-2.46h1.26" style="fill:none;stroke:#140533;stroke-width:.16636766;stroke-linecap:round;stroke-linejoin:round;stroke-miterlimit:22.9255867;stroke-opacity:1"/><path d="M60.94 105.49h.22v.26h-.22zm0 0" style="fill:none;stroke:#140533;stroke-width:.166081;stroke-linecap:round;stroke-linejoin:round;stroke-miterlimit:22.9255867;stroke-opacity:1"/><path d="M62.09 102.75h-1.25v-2.46h1.26" style="fill:none;stroke:#140533;stroke-width:.16636766;stroke-linecap:round;stroke-linejoin:round;stroke-miterlimit:22.9255867;stroke-opacity:1"/><path d="M60.94 102.75h.22v.26h-.22zm0 0" style="fill:none;stroke:#140533;stroke-width:.166081;stroke-linecap:round;stroke-linejoin:round;stroke-miterlimit:22.9255867;stroke-opacity:1"/><path d="M62.09 99.99h-1.25v-2.47h1.26" style="fill:none;stroke:#140533;stroke-width:.16636766;stroke-linecap:round;stroke-linejoin:round;stroke-miterlimit:22.9255867;stroke-opacity:1"/><path d="M60.94 99.98h.22v.27h-.22zm0 0" style="fill:none;stroke:#140533;stroke-width:.166081;stroke-linecap:round;stroke-linejoin:round;stroke-miterlimit:22.9255867;stroke-opacity:1"/><path d="M62.09 97.21h-1.25v-2.46h1.26" style="fill:none;stroke:#140533;stroke-width:.16636766;stroke-linecap:round;stroke-linejoin:round;stroke-miterlimit:22.9255867;stroke-opacity:1"/><path d="M60.94 97.21h.22v.26h-.22zm0 0" style="fill:none;stroke:#140533;stroke-width:.166081;stroke-linecap:round;stroke-linejoin:round;stroke-miterlimit:22.9255867;stroke-opacity:1"/><path d="M62.09 94.45h-1.25v-2.46h1.26" style="fill:none;stroke:#140533;stroke-width:.16636766;stroke-linecap:round;stroke-linejoin:round;stroke-miterlimit:22.9255867;stroke-opacity:1"/><path d="M60.94 94.45h.22v.26h-.22zm0 0" style="fill:none;stroke:#140533;stroke-width:.166081;stroke-linecap:round;stroke-linejoin:round;stroke-miterlimit:22.9255867;stroke-opacity:1"/><path d="M62.09 91.64h-1.25v-2.47h1.26" style="fill:none;stroke:#140533;stroke-width:.16636766;stroke-linecap:round;stroke-linejoin:round;stroke-miterlimit:22.9255867;stroke-opacity:1"/><path d="M60.94 91.64h.22v.26h-.22zm0 0" style="fill:none;stroke:#140533;stroke-width:.166081;stroke-linecap:round;stroke-linejoin:round;stroke-miterlimit:22.9255867;stroke-opacity:1"/><path d="M62.09 88.86h-1.25V86.4h1.26M62.09 86.06h-1.25v-2.47h1.26M62.09 83.28h-1.25v-2.46h1.26M62.09 80.5h-1.25v-2.46h1.26M62.09 77.71h-1.25v-2.46h1.26" style="fill:none;stroke:#140533;stroke-width:.16636766;stroke-linecap:round;stroke-linejoin:round;stroke-miterlimit:22.9255867;stroke-opacity:1"/><path d="M61.06 89.17v-.31M61.06 86.4v-.32M61.06 83.6v-.32M61.06 80.8v-.3M61.06 78v-.3M29.3 94.67v.2h6.02v-.15l18.02.07v.13h7.5M29.15 94.64h6.16v-.13l18.04.07v.13l7.5-.04M29.27 94.33l5.88.02v-.15l18.4.04v.16l7.3-.01" style="fill:none;stroke:#140533;stroke-width:.16635607;stroke-linecap:round;stroke-linejoin:round;stroke-miterlimit:22.9255867;stroke-opacity:1"/><path d="M29.58 94.33v-2.22M35.09 94.34V92.1M53.6 94.35l.01-2.22" style="fill:none;stroke:#140533;stroke-width:.1649314;stroke-linecap:round;stroke-linejoin:round;stroke-miterlimit:22.9255867;stroke-opacity:1"/><path d="M29.11 91.67v.45h6.26v-.46h.22v-.26l.32-.42h.18v-.3l-8.2-.03v.32h.31l.55.43v.26zM29.11 91.67l6.25-.01" style="fill:none;stroke:#140533;stroke-width:.16635607;stroke-linecap:round;stroke-linejoin:round;stroke-miterlimit:22.9255867;stroke-opacity:1"/><path d="M35.6 91.4h-6.85" style="fill:none;stroke:#140533;stroke-width:.16549122;stroke-linecap:round;stroke-linejoin:round;stroke-miterlimit:22.9255867;stroke-opacity:1"/><path d="M36.03 90.96h-7.84" style="fill:none;stroke:#140533;stroke-width:.16668114;stroke-linecap:round;stroke-linejoin:round;stroke-miterlimit:22.9255867;stroke-opacity:1"/><path d="M60.84 92.13h-7.68l-.01-.46h-.3v-.3l-.52-.39h-.29l.01-.3h8.8" style="fill:none;stroke:#140533;stroke-width:.16635607;stroke-linecap:round;stroke-linejoin:round;stroke-miterlimit:22.9255867;stroke-opacity:1"/><path d="m53.1 91.67 7.74-.01" style="fill:none;stroke:#140533;stroke-width:.16659181;stroke-linecap:round;stroke-linejoin:round;stroke-miterlimit:22.9255867;stroke-opacity:1"/><path d="M52.85 91.36h8M52.32 90.98h8.52" style="fill:none;stroke:#140533;stroke-width:.16615778;stroke-linecap:round;stroke-linejoin:round;stroke-miterlimit:22.9255867;stroke-opacity:1"/><path d="m35.37 92.1 17.78-.01" style="fill:none;stroke:#140533;stroke-width:.16601838;stroke-linecap:round;stroke-linejoin:round;stroke-miterlimit:22.9255867;stroke-opacity:1"/><path d="M35.72 91.3h17.03" style="fill:none;stroke:#140533;stroke-width:.16704583;stroke-linecap:round;stroke-linejoin:round;stroke-miterlimit:22.9255867;stroke-opacity:1"/><path d="M35.6 91.62h17.26" style="fill:none;stroke:#140533;stroke-width:.16589068;stroke-linecap:round;stroke-linejoin:round;stroke-miterlimit:22.9255867;stroke-opacity:1"/><path d="M36.11 90.94h15.94" style="fill:none;stroke:#140533;stroke-width:.16590843;stroke-linecap:round;stroke-linejoin:round;stroke-miterlimit:22.9255867;stroke-opacity:1"/><path d="M37.05 90.64v-.31h-10.6v.32zm0 0" style="fill:none;stroke:#140533;stroke-width:.10782683;stroke-linecap:round;stroke-linejoin:round;stroke-miterlimit:22.9255867;stroke-opacity:1"/><path d="M60.62 90.64v-.31l-9.82-.01v.33zm0 0" style="fill:none;stroke:#140533;stroke-width:.1076522;stroke-linecap:round;stroke-linejoin:round;stroke-miterlimit:22.9255867;stroke-opacity:1"/><path d="m26.44 90.32 4.88-3.4h2.58l3.15 3.4" style="fill:none;stroke:#140533;stroke-width:.08314072;stroke-linecap:round;stroke-linejoin:round;stroke-miterlimit:22.9255867;stroke-opacity:1"/><path d="m50.79 90.32 4.43-3.4h1.94l3.5 3.4" style="fill:none;stroke:#140533;stroke-width:.08299635;stroke-linecap:round;stroke-linejoin:round;stroke-miterlimit:22.9255867;stroke-opacity:1"/><path d="m30.86 87.24-.01-2.25 3.59.01-.01 2.45.32-1h.36l-.01-1.43-.66-.02" style="fill:none;stroke:#140533;stroke-width:.16635607;stroke-linecap:round;stroke-linejoin:round;stroke-miterlimit:22.9255867;stroke-opacity:1"/><path d="M31.56 84.63h2.8V85l-2.8-.01zM32.2 83.29h1.55c.12 0 .21.1.21.2 0 .12-.09.22-.2.22h-1.57a.21.21 0 0 1 0-.42zm0 0" style="fill:none;stroke:#140533;stroke-width:.10811777;stroke-linecap:round;stroke-linejoin:round;stroke-miterlimit:22.9255867;stroke-opacity:1"/><path d="M32.19 84.63s.32-.17.4-.3c.17-.35-.05-.51-.35-.62M33.76 84.63s-.33-.17-.4-.3c-.18-.35.05-.51.35-.62" style="fill:none;stroke:#140533;stroke-width:.10811777;stroke-linecap:round;stroke-linejoin:round;stroke-miterlimit:22.9255867;stroke-opacity:1"/><path d="M32.25 83.29s.3-.17.36-.3c.16-.33-.04-.5-.31-.6M33.68 83.29s-.3-.17-.36-.3c-.16-.33.04-.5.31-.6" style="fill:none;stroke:#140533;stroke-width:.10797445;stroke-linecap:round;stroke-linejoin:round;stroke-miterlimit:22.9255867;stroke-opacity:1"/><path d="M32.17 82.08h1.6v.3h-1.6zm0 0" style="fill:none;stroke:#140533;stroke-width:.10823698;stroke-linecap:round;stroke-linejoin:round;stroke-miterlimit:22.9255867;stroke-opacity:1"/><path d="M32.17 82.11s-.67-.1-.65-.92c0-.81.45-1.33.51-1.41.07-.09.4-.42.7-.47.28-.05.59-.08.97.3.62.6 1.21 2.25.07 2.5" style="fill:none;stroke:#140533;stroke-width:.10811777;stroke-linecap:round;stroke-linejoin:round;stroke-miterlimit:22.9255867;stroke-opacity:1"/><path d="M54.37 87.52 54.4 85l3.5.02.02 2.43.18-.99h.18v-1.43L57.9 85" style="fill:none;stroke:#140533;stroke-width:.16635607;stroke-linecap:round;stroke-linejoin:round;stroke-miterlimit:22.9255867;stroke-opacity:1"/><path d="M54.9 84.63h2.8V85L54.9 85zM55.53 83.29h1.56a.21.21 0 1 1 0 .42h-1.56c-.12 0-.21-.1-.21-.21 0-.12.1-.21.2-.21zm0 0" style="fill:none;stroke:#140533;stroke-width:.10811777;stroke-linecap:round;stroke-linejoin:round;stroke-miterlimit:22.9255867;stroke-opacity:1"/><path d="M55.52 84.63s.33-.17.4-.3c.18-.35-.05-.51-.34-.62M57.1 84.63s-.33-.17-.4-.3c-.18-.35.05-.51.34-.62" style="fill:none;stroke:#140533;stroke-width:.10811777;stroke-linecap:round;stroke-linejoin:round;stroke-miterlimit:22.9255867;stroke-opacity:1"/><path d="M55.59 83.29s.3-.17.36-.3c.16-.33-.05-.5-.31-.6M57.02 83.29s-.3-.17-.37-.3c-.16-.33.05-.5.32-.6" style="fill:none;stroke:#140533;stroke-width:.10797445;stroke-linecap:round;stroke-linejoin:round;stroke-miterlimit:22.9255867;stroke-opacity:1"/><path d="M55.51 82.08h1.6v.3h-1.6zm0 0" style="fill:none;stroke:#140533;stroke-width:.10823698;stroke-linecap:round;stroke-linejoin:round;stroke-miterlimit:22.9255867;stroke-opacity:1"/><path d="M55.5 82.08s-.66-.1-.65-.92c.02-.82.45-1.34.52-1.42.06-.08.4-.42.68-.47a.95.95 0 0 1 .96.3c.62.6 1.2 2.25.07 2.5" style="fill:none;stroke:#140533;stroke-width:.1082638;stroke-linecap:round;stroke-linejoin:round;stroke-miterlimit:22.9255867;stroke-opacity:1"/><path d="m35.1 86.45 19.28-.04" style="fill:none;stroke:#140533;stroke-width:.08314072;stroke-linecap:round;stroke-linejoin:round;stroke-miterlimit:22.9255867;stroke-opacity:1"/><path d="M58.27 86.44h1.31" style="fill:none;stroke:#140533;stroke-width:.0801045;stroke-linecap:round;stroke-linejoin:round;stroke-miterlimit:22.9255867;stroke-opacity:1"/><path d="M60.84 88.18h-1.27l-.02-13.03" style="fill:none;stroke:#140533;stroke-width:.16635607;stroke-linecap:round;stroke-linejoin:round;stroke-miterlimit:22.9255867;stroke-opacity:1"/><path d="M59.2 74.92v.2h1.4v-.1h8.08l-.14.15h1.61l.17.19" style="fill:none;stroke:#140533;stroke-width:.16569972;stroke-linecap:round;stroke-linejoin:round;stroke-miterlimit:22.9255867;stroke-opacity:1"/><path d="M59.14 74.9h1.36v-.1l2.24-.01 5.86.04-.12.12 1.67-.02.32.32M59.32 74.66l1.16.01v-.1l1.4.02v-.1l5.1.03-.02.1 1.81.03-.04.08 1.43-.01.12.14" style="fill:none;stroke:#140533;stroke-width:.16569972;stroke-linecap:round;stroke-linejoin:round;stroke-miterlimit:22.9255867;stroke-opacity:1"/><path d="M61.15 71.28s.02.23.18.38.35.17.35.17l5.34.02c.4 0 .6-.1.65-.55M59.87 71.55c.08.23.19.42.5.46l1.25.02" style="fill:none;stroke:#140533;stroke-width:.16630952;stroke-linecap:round;stroke-linejoin:round;stroke-miterlimit:22.9255867;stroke-opacity:1"/><path d="M69.17 71.55s0 .32-.28.43c-.13.05-1.35.04-1.74.04" style="fill:none;stroke:#140533;stroke-width:.16596501;stroke-linecap:round;stroke-linejoin:round;stroke-miterlimit:22.9255867;stroke-opacity:1"/><path d="M58.75 71.58c.02.26.18.47.5.52l1.14.01M70.54 71.58a.55.55 0 0 1-.5.52h-1.27" style="fill:none;stroke:#140533;stroke-width:.16630952;stroke-linecap:round;stroke-linejoin:round;stroke-miterlimit:22.9255867;stroke-opacity:1"/><path d="m59.54 72.89-.35-.26 1.46.05-.25-.13 1.42.02-.2-.15 5.54.05-.24.15 1.82.01-.3.1 1.7-.03.33.26M59.52 74.67l.02-1.78" style="fill:none;stroke:#140533;stroke-width:.16635607;stroke-linecap:round;stroke-linejoin:round;stroke-miterlimit:22.9255867;stroke-opacity:1"/><path d="M60.75 74.59v-1.91M62 74.45l-.07-1.92" style="fill:none;stroke:#140533;stroke-width:.16610464;stroke-linecap:round;stroke-linejoin:round;stroke-miterlimit:22.9255867;stroke-opacity:1"/><path d="M69.85 74.69V72.7" style="fill:none;stroke:#140533;stroke-width:.16635607;stroke-linecap:round;stroke-linejoin:round;stroke-miterlimit:22.9255867;stroke-opacity:1"/><path d="M68.44 74.59v-1.86M66.88 74.6l.04-1.98" style="fill:none;stroke:#140533;stroke-width:.16610464;stroke-linecap:round;stroke-linejoin:round;stroke-miterlimit:22.9255867;stroke-opacity:1"/><path d="m59.19 72.63-.01-.55M60.4 72.53l-.01-.55M61.63 72.4l-.01-.55M67.16 72.48v-.62M68.77 72.65v-.63M70.16 72.73l-.01-.58.38.34c.36-.13.39-.28.37-.56h.14v-.2s.08.04.16-.02.11-.15.11-.15.18-.02.21-.07l.07-.12 1.22.01v-.96l.57-.51.22-.07.15-.3 1.07.04v-.4" style="fill:none;stroke:#140533;stroke-width:.16635607;stroke-linecap:round;stroke-linejoin:round;stroke-miterlimit:22.9255867;stroke-opacity:1"/><path d="m70.92 71.96-.38-.39-1.37-.02.03-.17-1.54-.01v-.07l-6.51-.02-.05.14-1.27.03.03.08-1.15-.02-.56-.63 1.18-.01-.06-.12h1.34l-.04-.12h7.59l-.06.1 1.56.03-.05.13 1.51.02.47.46" style="fill:none;stroke:#140533;stroke-width:.16635607;stroke-linecap:round;stroke-linejoin:round;stroke-miterlimit:22.9255867;stroke-opacity:1"/><path d="M58.56 71.3h1.15l-.07-.13 1.36-.03-.04-.13 6.94.05-.07.1h1.59l-.06.15 1.34.05.34.38" style="fill:none;stroke:#140533;stroke-width:.16635607;stroke-linecap:round;stroke-linejoin:round;stroke-miterlimit:22.9255867;stroke-opacity:1"/><path d="M58.38 71.07h1.15l-.07-.12h1.39l-.06-.13 7.26.02-.07.1h1.54l-.09.15 1.47.02.41.45M61.66 74.59l.04.2M61.87 74.8l.04.2M67.17 74.59l-.04.2M66.96 74.8l-.04.2M59.07 69.44h10.31v1.12h-10.3ZM69.38 70.56v.1l1.45.02V69.6h-1.45" style="fill:none;stroke:#140533;stroke-width:.16635607;stroke-linecap:round;stroke-linejoin:round;stroke-miterlimit:22.9255867;stroke-opacity:1"/><path d="M70.83 70.67v.11l1.47.02v-1.07h-1.47" style="fill:none;stroke:#140533;stroke-width:.16617078;stroke-linecap:round;stroke-linejoin:round;stroke-miterlimit:22.9255867;stroke-opacity:1"/><path d="M59.07 70.57v.1l-1.26.02v-1.06h1.26" style="fill:none;stroke:#140533;stroke-width:.16601522;stroke-linecap:round;stroke-linejoin:round;stroke-miterlimit:22.9255867;stroke-opacity:1"/><path d="M57.81 70.7v.1l-1.12-.04-.01-1.01h1.13" style="fill:none;stroke:#140533;stroke-width:.16588813;stroke-linecap:round;stroke-linejoin:round;stroke-miterlimit:22.9255867;stroke-opacity:1"/><path d="m72.81 71.38-.5-.58M72.81 70.42l-.5-.7M73.38 69.9l-.5-.75-1.4-.02-.02-.14-1.52.01.02-.16-11.54.04.02.1-1.25.01v.1l-1.3.01.81.67M56.73 70.77l1.03.63h.84M57.19 69.1l.62.53M58.41 68.89l.66.55M71.51 69.04l-.68.6M69.95 68.92l-.57.55M72.3 69.73l.58-.58" style="fill:none;stroke:#140533;stroke-width:.16635607;stroke-linecap:round;stroke-linejoin:round;stroke-miterlimit:22.9255867;stroke-opacity:1"/><path d="m73.72 69.6-.63-.92-1.46-.04-.01-.14h-1.5v-.14l-12 .02.02.1-1.26-.03-.05.15H55.6l.2.46" style="fill:none;stroke:#140533;stroke-width:.16635607;stroke-linecap:round;stroke-linejoin:round;stroke-miterlimit:22.9255867;stroke-opacity:1"/><path d="m56.43 69.55-.4.03-1.53-.94h1.1M54.3 68.57v-.45l2.42-.21 14.54.03 2.94.23.01.38-.7-.03" style="fill:none;stroke:#140533;stroke-width:.16635607;stroke-linecap:round;stroke-linejoin:round;stroke-miterlimit:22.9255867;stroke-opacity:1"/><path d="m72.73 68.05.03.36-.75.02M71.26 67.94l.01.43h-1.14M56.72 67.9v.47l1.4.01M55.51 68.01l.01.38h1" style="fill:none;stroke:#140533;stroke-width:.16635607;stroke-linecap:round;stroke-linejoin:round;stroke-miterlimit:22.9255867;stroke-opacity:1"/><path d="m54.3 68.12 7.38-4.14 5.88-.12 6.71 4.31.54 1" style="fill:none;stroke:#140533;stroke-width:.08314072;stroke-linecap:round;stroke-linejoin:round;stroke-miterlimit:22.9255867;stroke-opacity:1"/><path d="m61.68 63.98-.02-1.86s-.04-1 .88-1.72 1.15-.66 1.15-.66l2.3-.02a3.8 3.8 0 0 1 1.95 2.6l-.01 1.79" style="fill:none;stroke:#140533;stroke-width:.10811777;stroke-linecap:round;stroke-linejoin:round;stroke-miterlimit:22.9255867;stroke-opacity:1"/><path d="m63.69 59.74-.04-.64s.47-.14 1.4-.09c.93.06.96.13.96.13l-.03.58M63.65 59.1l-.25-.16-.02-.5s-.13-.23-.2-.28" style="fill:none;stroke:#140533;stroke-width:.10811777;stroke-linecap:round;stroke-linejoin:round;stroke-miterlimit:22.9255867;stroke-opacity:1"/><path d="m66 59.14.3-.2.01-.5s.13-.23.2-.28M63.13 58.28s-.25-.1-.28-.24c-.03-.15.04-.25.28-.35.23-.1.58-.52.65-1.27.08-.76-.09-1.11-.2-1.3-.12-.19-.35-.4-.35-.4" style="fill:none;stroke:#140533;stroke-width:.10811777;stroke-linecap:round;stroke-linejoin:round;stroke-miterlimit:22.9255867;stroke-opacity:1"/><path d="M63.17 54.84s-.28-.06-.24-.16c.03-.1.45-.25 1.64-.26 1.2-.02 1.55.08 1.69.1.14.03.5.1.52.16.01.06-.1.15-.28.2" style="fill:none;stroke:#140533;stroke-width:.10811777;stroke-linecap:round;stroke-linejoin:round;stroke-miterlimit:22.9255867;stroke-opacity:1"/><path d="M66.58 58.28s.25-.1.28-.24c.03-.15-.04-.25-.28-.35-.24-.1-.59-.52-.65-1.27-.08-.76.09-1.11.2-1.3.12-.19.35-.4.35-.4M62.93 54.68l-.01-.16c-.03-.4.95-.48 1.95-.46 1 .02 1.98.14 1.93.49l-.02.13" style="fill:none;stroke:#140533;stroke-width:.10811777;stroke-linecap:round;stroke-linejoin:round;stroke-miterlimit:22.9255867;stroke-opacity:1"/><path d="M62.85 54.42s-.3-.13-.22-.42c.07-.29.64-.53 1.09-.6a6.67 6.67 0 0 1 1.57-.07c.5.05 1.04.17 1.43.38.38.21.4.41.34.56-.05.15-.22.2-.22.2" style="fill:none;stroke:#140533;stroke-width:.10811777;stroke-linecap:round;stroke-linejoin:round;stroke-miterlimit:22.9255867;stroke-opacity:1"/><path d="M64.29 53.33s.1-.47.53-.46c.43.01.52.32.59.47" style="fill:none;stroke:#140533;stroke-width:.10811777;stroke-linecap:round;stroke-linejoin:round;stroke-miterlimit:22.9255867;stroke-opacity:1"/><path d="m66.88 116.9.1-41.85M68.39 116.82l.01-2.7h-1.47" style="fill:none;stroke:#140533;stroke-width:.16657884;stroke-linecap:round;stroke-linejoin:round;stroke-miterlimit:22.9255867;stroke-opacity:1"/><path d="M66.97 113.82h1.45l.01-2.46h-1.47" style="fill:none;stroke:#140533;stroke-width:.16646379;stroke-linecap:round;stroke-linejoin:round;stroke-miterlimit:22.9255867;stroke-opacity:1"/><path d="M68.3 113.82h-.24v.26h.24zm0 0" style="fill:none;stroke:#140533;stroke-width:.16596557;stroke-linecap:round;stroke-linejoin:round;stroke-miterlimit:22.9255867;stroke-opacity:1"/><path d="M66.97 111.07h1.45l.01-2.46h-1.47" style="fill:none;stroke:#140533;stroke-width:.16646379;stroke-linecap:round;stroke-linejoin:round;stroke-miterlimit:22.9255867;stroke-opacity:1"/><path d="M68.3 111.07h-.24v.26h.24zm0 0" style="fill:none;stroke:#140533;stroke-width:.16596557;stroke-linecap:round;stroke-linejoin:round;stroke-miterlimit:22.9255867;stroke-opacity:1"/><path d="M66.97 108.27h1.45l.01-2.46h-1.47" style="fill:none;stroke:#140533;stroke-width:.16646379;stroke-linecap:round;stroke-linejoin:round;stroke-miterlimit:22.9255867;stroke-opacity:1"/><path d="M68.3 108.27h-.24v.26h.24zm0 0" style="fill:none;stroke:#140533;stroke-width:.16596557;stroke-linecap:round;stroke-linejoin:round;stroke-miterlimit:22.9255867;stroke-opacity:1"/><path d="m66.97 105.5 1.45-.01.01-2.46h-1.47" style="fill:none;stroke:#140533;stroke-width:.16646379;stroke-linecap:round;stroke-linejoin:round;stroke-miterlimit:22.9255867;stroke-opacity:1"/><path d="M68.3 105.49h-.24v.26h.24zm0 0" style="fill:none;stroke:#140533;stroke-width:.16596557;stroke-linecap:round;stroke-linejoin:round;stroke-miterlimit:22.9255867;stroke-opacity:1"/><path d="M66.97 102.75h1.45l.01-2.46h-1.47" style="fill:none;stroke:#140533;stroke-width:.16646379;stroke-linecap:round;stroke-linejoin:round;stroke-miterlimit:22.9255867;stroke-opacity:1"/><path d="M68.3 102.75h-.24v.26h.24zm0 0" style="fill:none;stroke:#140533;stroke-width:.16596557;stroke-linecap:round;stroke-linejoin:round;stroke-miterlimit:22.9255867;stroke-opacity:1"/><path d="M66.97 99.99h1.45l.01-2.47h-1.47" style="fill:none;stroke:#140533;stroke-width:.16646379;stroke-linecap:round;stroke-linejoin:round;stroke-miterlimit:22.9255867;stroke-opacity:1"/><path d="M68.3 99.98h-.24v.27h.24zm0 0" style="fill:none;stroke:#140533;stroke-width:.16596557;stroke-linecap:round;stroke-linejoin:round;stroke-miterlimit:22.9255867;stroke-opacity:1"/><path d="M66.97 97.21h1.45l.01-2.46h-1.47" style="fill:none;stroke:#140533;stroke-width:.16646379;stroke-linecap:round;stroke-linejoin:round;stroke-miterlimit:22.9255867;stroke-opacity:1"/><path d="M68.3 97.2h-.24v.27h.24zm0 0" style="fill:none;stroke:#140533;stroke-width:.16596557;stroke-linecap:round;stroke-linejoin:round;stroke-miterlimit:22.9255867;stroke-opacity:1"/><path d="M66.97 94.45h1.45l.01-2.46h-1.47" style="fill:none;stroke:#140533;stroke-width:.16646379;stroke-linecap:round;stroke-linejoin:round;stroke-miterlimit:22.9255867;stroke-opacity:1"/><path d="M68.3 94.45h-.24v.26h.24zm0 0" style="fill:none;stroke:#140533;stroke-width:.16596557;stroke-linecap:round;stroke-linejoin:round;stroke-miterlimit:22.9255867;stroke-opacity:1"/><path d="M66.97 91.64h1.45v-.99h-.16l.17-1.48h-1.47" style="fill:none;stroke:#140533;stroke-width:.16646379;stroke-linecap:round;stroke-linejoin:round;stroke-miterlimit:22.9255867;stroke-opacity:1"/><path d="M68.3 91.64h-.24v.26h.24zm0 0" style="fill:none;stroke:#140533;stroke-width:.16596557;stroke-linecap:round;stroke-linejoin:round;stroke-miterlimit:22.9255867;stroke-opacity:1"/><path d="M66.97 88.86h1.45l.01-2.46h-1.47M66.97 86.06h1.45l.01-2.47h-1.47M66.97 83.28h1.45l.01-2.46h-1.47M66.97 80.5h1.45l.01-2.46h-1.47M66.97 77.71h1.45l.01-2.46h-1.47" style="fill:none;stroke:#140533;stroke-width:.16646379;stroke-linecap:round;stroke-linejoin:round;stroke-miterlimit:22.9255867;stroke-opacity:1"/><path d="M68.18 89.17v-.31M68.18 86.4v-.32M68.18 83.6v-.32M68.18 80.8v-.3M68.18 78v-.3" style="fill:none;stroke:#140533;stroke-width:.16657884;stroke-linecap:round;stroke-linejoin:round;stroke-miterlimit:22.9255867;stroke-opacity:1"/><path d="m85.54 91.6.95 2.67 2.52-.03.95-2.62zm0 0" style="fill:none;stroke:#140533;stroke-width:.16635607;stroke-linecap:round;stroke-linejoin:round;stroke-miterlimit:22.9255867;stroke-opacity:1"/><path d="M74.7 123.23V103.4s0-5.6 6.75-8.03c1.77-.63 3.46-.98 5.05-1.12m2.5-.02c3.4.2 6.24 1.43 8.22 2.96 3.31 2.57 3.55 5.32 3.55 6.06v19.92" style="fill:none;stroke:#140533;stroke-width:.16635607;stroke-linecap:round;stroke-linejoin:round;stroke-miterlimit:22.9255867;stroke-opacity:1"/><path d="m75.98 122.96-.04-19.62s-.47-5.4 7.74-7.55c2.16-.57 5.67-.78 8.62.07 3.85 1.11 6.98 3.75 7.15 7.09.1 1.95.08 20 .08 20M62.13 116.9l-.09-41.85" style="fill:none;stroke:#140533;stroke-width:.16635607;stroke-linecap:round;stroke-linejoin:round;stroke-miterlimit:22.9255867;stroke-opacity:1"/><path d="M62.09 108.27h-1.25v-2.46h1.26" style="fill:none;stroke:#140533;stroke-width:.16636766;stroke-linecap:round;stroke-linejoin:round;stroke-miterlimit:22.9255867;stroke-opacity:1"/><path d="M60.94 108.27h.22v.26h-.22zm0 0" style="fill:none;stroke:#140533;stroke-width:.166081;stroke-linecap:round;stroke-linejoin:round;stroke-miterlimit:22.9255867;stroke-opacity:1"/><path d="m62.09 105.5-1.25-.01v-2.46h1.26" style="fill:none;stroke:#140533;stroke-width:.16636766;stroke-linecap:round;stroke-linejoin:round;stroke-miterlimit:22.9255867;stroke-opacity:1"/><path d="M60.94 105.49h.22v.26h-.22zm0 0" style="fill:none;stroke:#140533;stroke-width:.166081;stroke-linecap:round;stroke-linejoin:round;stroke-miterlimit:22.9255867;stroke-opacity:1"/><path d="M62.09 102.75h-1.25v-2.46h1.26" style="fill:none;stroke:#140533;stroke-width:.16636766;stroke-linecap:round;stroke-linejoin:round;stroke-miterlimit:22.9255867;stroke-opacity:1"/><path d="M60.94 102.75h.22v.26h-.22zM60.94 99.98h.22v.27h-.22zM60.94 97.21h.22v.26h-.22zM60.94 94.45h.22v.26h-.22zM60.94 91.64h.22v.26h-.22zm0 0" style="fill:none;stroke:#140533;stroke-width:.166081;stroke-linecap:round;stroke-linejoin:round;stroke-miterlimit:22.9255867;stroke-opacity:1"/><path d="M61.06 86.4v-.32M61.06 83.6v-.32M61.06 80.8v-.3M61.06 78v-.3M62.13 116.9l-.09-41.85" style="fill:none;stroke:#140533;stroke-width:.16635607;stroke-linecap:round;stroke-linejoin:round;stroke-miterlimit:22.9255867;stroke-opacity:1"/><path d="M60.94 108.27h.22v.26h-.22zm0 0" style="fill:none;stroke:#140533;stroke-width:.166081;stroke-linecap:round;stroke-linejoin:round;stroke-miterlimit:22.9255867;stroke-opacity:1"/><path d="M37.05 90.63H50.8" style="fill:none;stroke:#140533;stroke-width:.16555443;stroke-linecap:round;stroke-linejoin:round;stroke-miterlimit:22.9255867;stroke-opacity:1"/><path d="M37.05 90.28H50.8" style="fill:none;stroke:#140533;stroke-width:.10759676;stroke-linecap:round;stroke-linejoin:round;stroke-miterlimit:22.9255867;stroke-opacity:1"/><path d="m60.8 88.18-.15 2.15M68.42 88.17l1.45-.01.27-1.79.01-10.85-.18-.16h.35M70.53 72.5v.5l-.35.01-.02 1.71M70.18 73.01l-.33-.3M69.86 88.18l-.02-12.89M68.42 92.1h17.3m4.05 0 17.23-.01.05-.79.17-.67-.02-.35-.32-2.14-1.29-.01" style="fill:none;stroke:#140533;stroke-width:.16635607;stroke-linecap:round;stroke-linejoin:round;stroke-miterlimit:22.9255867;stroke-opacity:1"/><path d="M68.45 91.3h38.6" style="fill:none;stroke:#140533;stroke-width:.16538011;stroke-linecap:round;stroke-linejoin:round;stroke-miterlimit:22.9255867;stroke-opacity:1"/><path d="M68.48 91.62h17.2m2.69 0h18.7" style="fill:none;stroke:#140533;stroke-width:.16669779;stroke-linecap:round;stroke-linejoin:round;stroke-miterlimit:22.9255867;stroke-opacity:1"/><path d="M68.46 90.94h38.7" style="fill:none;stroke:#140533;stroke-width:.1655959;stroke-linecap:round;stroke-linejoin:round;stroke-miterlimit:22.9255867;stroke-opacity:1"/><path d="M68.26 90.63h38.96" style="fill:none;stroke:#140533;stroke-width:.16615897;stroke-linecap:round;stroke-linejoin:round;stroke-miterlimit:22.9255867;stroke-opacity:1"/><path d="M68.28 90.28h38.92" style="fill:none;stroke:#140533;stroke-width:.10792671;stroke-linecap:round;stroke-linejoin:round;stroke-miterlimit:22.9255867;stroke-opacity:1"/><path d="m70.23 86.45 35.03-.04" style="fill:none;stroke:#140533;stroke-width:.08296663;stroke-linecap:round;stroke-linejoin:round;stroke-miterlimit:22.9255867;stroke-opacity:1"/><path d="m74.82 69.58-.6-1.03" style="fill:none;stroke:#140533;stroke-width:.16635607;stroke-linecap:round;stroke-linejoin:round;stroke-miterlimit:22.9255867;stroke-opacity:1"/><path d="m145.34 123.45.05-28.6M139.8 123.43l.12-28.58M121.6 123.43l.07-28.53" style="fill:none;stroke:#140533;stroke-width:.16656888;stroke-linecap:round;stroke-linejoin:round;stroke-miterlimit:22.9255867;stroke-opacity:1"/><path d="m135.9 123.32.04-15.58-10.7-.06-.03 15.61M115.08 124v-4.64h-8.16l-.02 4.62M116.32 123.63l.01-4.48-1.2.02M117.55 123.46v-4.48l-1.18.01" style="fill:none;stroke:#140533;stroke-width:.16606809;stroke-linecap:round;stroke-linejoin:round;stroke-miterlimit:22.9255867;stroke-opacity:1"/><path d="m106.91 119.12 8.23.05s-.02-.35-.33-.35h-7.55c-.24 0-.3.09-.35.3zM107.24 118.63h7.47s-.01-.3-.33-.3h-6.66c-.24 0-.43.09-.48.3zM114.38 118.33V118l-6.74-.03v.36" style="fill:none;stroke:#140533;stroke-width:.16656888;stroke-linecap:round;stroke-linejoin:round;stroke-miterlimit:22.9255867;stroke-opacity:1"/><path d="M115.12 118.98h1.25s0-.23-.23-.32c-.1-.03-.39-.03-.68-.03h-.86v.17" style="fill:none;stroke:#140533;stroke-width:.16656888;stroke-linecap:round;stroke-linejoin:round;stroke-miterlimit:22.9255867;stroke-opacity:1"/><path d="M116.3 118.79h1.33s0-.23-.22-.31c-.1-.04-.39-.04-.69-.04H116v.18M114.68 118.47h1.25s0-.24-.22-.32c-.1-.03-.39-.02-.69-.02h-.62" style="fill:none;stroke:#140533;stroke-width:.16656888;stroke-linecap:round;stroke-linejoin:round;stroke-miterlimit:22.9255867;stroke-opacity:1"/><path d="m115.85 118.25 1.3-.01s-.01-.23-.23-.31c-.1-.04-1 0-1.3 0M114 117.82l1.59-.01v.32" style="fill:none;stroke:#140533;stroke-width:.16656888;stroke-linecap:round;stroke-linejoin:round;stroke-miterlimit:22.9255867;stroke-opacity:1"/><path d="M115.22 117.6h1.59v.32" style="fill:none;stroke:#140533;stroke-width:.16656888;stroke-linecap:round;stroke-linejoin:round;stroke-miterlimit:22.9255867;stroke-opacity:1"/><path d="M113.98 117.95v-.6l-6.13-.02v.62" style="fill:none;stroke:#140533;stroke-width:.16594018;stroke-linecap:round;stroke-linejoin:round;stroke-miterlimit:22.9255867;stroke-opacity:1"/><path d="M113.98 117.34s-.04-.24-.26-.33c-.21-.08-.37-.06-.37-.06l-4.9-.01c-.37-.01-.56.07-.6.39" style="fill:none;stroke:#140533;stroke-width:.16656888;stroke-linecap:round;stroke-linejoin:round;stroke-miterlimit:22.9255867;stroke-opacity:1"/><path d="M115.2 117.78v-.61h-1.3" style="fill:none;stroke:#140533;stroke-width:.16594018;stroke-linecap:round;stroke-linejoin:round;stroke-miterlimit:22.9255867;stroke-opacity:1"/><path d="M115.18 117.15s0-.23-.22-.3c-.1-.04-1.39-.04-1.69-.04" style="fill:none;stroke:#140533;stroke-width:.16656888;stroke-linecap:round;stroke-linejoin:round;stroke-miterlimit:22.9255867;stroke-opacity:1"/><path d="M105.37 123.63v-4.48l1.52.02M104.04 123.46l-.01-4.48 1.3.01" style="fill:none;stroke:#140533;stroke-width:.16703875;stroke-linecap:round;stroke-linejoin:round;stroke-miterlimit:22.9255867;stroke-opacity:1"/><path d="M106.9 118.98h-1.57s0-.23.24-.31c.11-.04.42-.04.75-.04h.94v.17" style="fill:none;stroke:#140533;stroke-width:.16651522;stroke-linecap:round;stroke-linejoin:round;stroke-miterlimit:22.9255867;stroke-opacity:1"/><path d="M105.4 118.79h-1.45s0-.23.24-.31c.1-.04.42-.04.75-.04h.8v.18M107.32 118.47h-1.51s0-.24.24-.32c.1-.03 1.2-.02 1.52-.02" style="fill:none;stroke:#140533;stroke-width:.16651522;stroke-linecap:round;stroke-linejoin:round;stroke-miterlimit:22.9255867;stroke-opacity:1"/><path d="M105.9 118.25h-1.55s0-.24.24-.33c.1-.03 1.22 0 1.54 0M107.8 117.82h-1.62v.31" style="fill:none;stroke:#140533;stroke-width:.16651522;stroke-linecap:round;stroke-linejoin:round;stroke-miterlimit:22.9255867;stroke-opacity:1"/><path d="m106.41 117.6-1.74-.01v.33" style="fill:none;stroke:#140533;stroke-width:.16651522;stroke-linecap:round;stroke-linejoin:round;stroke-miterlimit:22.9255867;stroke-opacity:1"/><path d="M106.41 117.78v-.61h1.48" style="fill:none;stroke:#140533;stroke-width:.16661251;stroke-linecap:round;stroke-linejoin:round;stroke-miterlimit:22.9255867;stroke-opacity:1"/><path d="M106.43 117.15s0-.23.27-.3c.12-.04 1.35-.04 1.72-.04" style="fill:none;stroke:#140533;stroke-width:.16630533;stroke-linecap:round;stroke-linejoin:round;stroke-miterlimit:22.9255867;stroke-opacity:1"/><path d="m113.23 116.9.09-41.86M114.47 116.82l.01-2.7h-1.24" style="fill:none;stroke:#140533;stroke-width:.16656888;stroke-linecap:round;stroke-linejoin:round;stroke-miterlimit:22.9255867;stroke-opacity:1"/><path d="M113.27 113.82h1.23v-2.46h-1.24" style="fill:none;stroke:#140533;stroke-width:.16621245;stroke-linecap:round;stroke-linejoin:round;stroke-miterlimit:22.9255867;stroke-opacity:1"/><path d="M114.4 113.82h-.2v.26h.2zm0 0" style="fill:none;stroke:#140533;stroke-width:.16613047;stroke-linecap:round;stroke-linejoin:round;stroke-miterlimit:22.9255867;stroke-opacity:1"/><path d="M113.27 111.07h1.23v-2.46h-1.24" style="fill:none;stroke:#140533;stroke-width:.16621245;stroke-linecap:round;stroke-linejoin:round;stroke-miterlimit:22.9255867;stroke-opacity:1"/><path d="M114.4 111.07h-.2v.26h.2zm0 0" style="fill:none;stroke:#140533;stroke-width:.16613047;stroke-linecap:round;stroke-linejoin:round;stroke-miterlimit:22.9255867;stroke-opacity:1"/><path d="M113.27 108.27h1.23v-2.46h-1.24" style="fill:none;stroke:#140533;stroke-width:.16621245;stroke-linecap:round;stroke-linejoin:round;stroke-miterlimit:22.9255867;stroke-opacity:1"/><path d="M114.4 108.27h-.2v.26h.2zm0 0" style="fill:none;stroke:#140533;stroke-width:.16613047;stroke-linecap:round;stroke-linejoin:round;stroke-miterlimit:22.9255867;stroke-opacity:1"/><path d="m113.27 105.5 1.23-.01v-2.46h-1.24" style="fill:none;stroke:#140533;stroke-width:.16621245;stroke-linecap:round;stroke-linejoin:round;stroke-miterlimit:22.9255867;stroke-opacity:1"/><path d="M114.4 105.49h-.2v.26h.2zm0 0" style="fill:none;stroke:#140533;stroke-width:.16613047;stroke-linecap:round;stroke-linejoin:round;stroke-miterlimit:22.9255867;stroke-opacity:1"/><path d="M113.27 102.75h1.23v-2.46h-1.24" style="fill:none;stroke:#140533;stroke-width:.16621245;stroke-linecap:round;stroke-linejoin:round;stroke-miterlimit:22.9255867;stroke-opacity:1"/><path d="M114.4 102.75h-.2v.26h.2zm0 0" style="fill:none;stroke:#140533;stroke-width:.16613047;stroke-linecap:round;stroke-linejoin:round;stroke-miterlimit:22.9255867;stroke-opacity:1"/><path d="M113.27 99.99h1.23v-2.47h-1.24" style="fill:none;stroke:#140533;stroke-width:.16621245;stroke-linecap:round;stroke-linejoin:round;stroke-miterlimit:22.9255867;stroke-opacity:1"/><path d="M114.4 99.98h-.2v.27h.2zm0 0" style="fill:none;stroke:#140533;stroke-width:.16613047;stroke-linecap:round;stroke-linejoin:round;stroke-miterlimit:22.9255867;stroke-opacity:1"/><path d="M113.27 97.21h1.23v-2.46h-1.24" style="fill:none;stroke:#140533;stroke-width:.16621245;stroke-linecap:round;stroke-linejoin:round;stroke-miterlimit:22.9255867;stroke-opacity:1"/><path d="M114.4 97.21h-.2v.26h.2zm0 0" style="fill:none;stroke:#140533;stroke-width:.16613047;stroke-linecap:round;stroke-linejoin:round;stroke-miterlimit:22.9255867;stroke-opacity:1"/><path d="M113.27 94.45h1.23v-2.46h-1.24" style="fill:none;stroke:#140533;stroke-width:.16621245;stroke-linecap:round;stroke-linejoin:round;stroke-miterlimit:22.9255867;stroke-opacity:1"/><path d="M114.4 94.45h-.2v.26h.2zm0 0" style="fill:none;stroke:#140533;stroke-width:.16613047;stroke-linecap:round;stroke-linejoin:round;stroke-miterlimit:22.9255867;stroke-opacity:1"/><path d="M113.27 91.64h1.23v-2.47h-1.24" style="fill:none;stroke:#140533;stroke-width:.16621245;stroke-linecap:round;stroke-linejoin:round;stroke-miterlimit:22.9255867;stroke-opacity:1"/><path d="M114.4 91.64h-.2v.26h.2zm0 0" style="fill:none;stroke:#140533;stroke-width:.16613047;stroke-linecap:round;stroke-linejoin:round;stroke-miterlimit:22.9255867;stroke-opacity:1"/><path d="M113.27 88.86h1.23V86.4h-1.24M113.27 86.06h1.23v-2.47h-1.24M113.27 83.28h1.23v-2.46h-1.24M113.27 80.5h1.23v-2.46h-1.24M113.27 77.71h1.23v-2.46h-1.24" style="fill:none;stroke:#140533;stroke-width:.16621245;stroke-linecap:round;stroke-linejoin:round;stroke-miterlimit:22.9255867;stroke-opacity:1"/><path d="M114.3 89.17v-.31M114.3 86.4v-.32M114.3 83.6v-.32M114.3 80.8v-.3M114.3 78v-.3M145.65 94.67v.2h-5.95v-.15l-17.79.07v.13h-7.4M145.8 94.64h-6.1l.01-.13-17.8.07-.01.13-7.41-.04M145.67 94.33l-5.8.02v-.15l-18.16.04v.16l-7.21-.02" style="fill:none;stroke:#140533;stroke-width:.16656888;stroke-linecap:round;stroke-linejoin:round;stroke-miterlimit:22.9255867;stroke-opacity:1"/><path d="M145.37 94.33v-2.22M139.93 94.34V92.1M121.64 94.35v-2.22" style="fill:none;stroke:#140533;stroke-width:.16388732;stroke-linecap:round;stroke-linejoin:round;stroke-miterlimit:22.9255867;stroke-opacity:1"/><path d="m145.83 91.67.01.45h-6.18v-.46h-.23v-.26l-.31-.43h-.18l.01-.3 8.08-.02v.32h-.3l-.54.43v.26zM145.83 91.67l-6.17-.01" style="fill:none;stroke:#140533;stroke-width:.16656888;stroke-linecap:round;stroke-linejoin:round;stroke-miterlimit:22.9255867;stroke-opacity:1"/><path d="M139.43 91.4h6.76" style="fill:none;stroke:#140533;stroke-width:.16654846;stroke-linecap:round;stroke-linejoin:round;stroke-miterlimit:22.9255867;stroke-opacity:1"/><path d="M139 90.96h7.74" style="fill:none;stroke:#140533;stroke-width:.16539723;stroke-linecap:round;stroke-linejoin:round;stroke-miterlimit:22.9255867;stroke-opacity:1"/><path d="M114.5 92.13h7.6v-.46h.3v-.3l.5-.39h.29v-.3h-8.69" style="fill:none;stroke:#140533;stroke-width:.16656888;stroke-linecap:round;stroke-linejoin:round;stroke-miterlimit:22.9255867;stroke-opacity:1"/><path d="m122.14 91.67-7.64-.01" style="fill:none;stroke:#140533;stroke-width:.16655882;stroke-linecap:round;stroke-linejoin:round;stroke-miterlimit:22.9255867;stroke-opacity:1"/><path d="M122.4 91.36h-7.9M122.92 90.98h-8.42" style="fill:none;stroke:#140533;stroke-width:.1661637;stroke-linecap:round;stroke-linejoin:round;stroke-miterlimit:22.9255867;stroke-opacity:1"/><path d="m139.66 92.1-17.56-.01" style="fill:none;stroke:#140533;stroke-width:.16731109;stroke-linecap:round;stroke-linejoin:round;stroke-miterlimit:22.9255867;stroke-opacity:1"/><path d="M139.31 91.3H122.5" style="fill:none;stroke:#140533;stroke-width:.1659912;stroke-linecap:round;stroke-linejoin:round;stroke-miterlimit:22.9255867;stroke-opacity:1"/><path d="M139.43 91.62H122.4" style="fill:none;stroke:#140533;stroke-width:.16711746;stroke-linecap:round;stroke-linejoin:round;stroke-miterlimit:22.9255867;stroke-opacity:1"/><path d="M138.92 90.94H123.2" style="fill:none;stroke:#140533;stroke-width:.16696124;stroke-linecap:round;stroke-linejoin:round;stroke-miterlimit:22.9255867;stroke-opacity:1"/><path d="M138 90.64v-.31h10.47v.32zm0 0" style="fill:none;stroke:#140533;stroke-width:.10851107;stroke-linecap:round;stroke-linejoin:round;stroke-miterlimit:22.9255867;stroke-opacity:1"/><path d="M114.72 90.64v-.31l9.7-.01v.33zm0 0" style="fill:none;stroke:#140533;stroke-width:.10823805;stroke-linecap:round;stroke-linejoin:round;stroke-miterlimit:22.9255867;stroke-opacity:1"/><path d="m148.47 90.32-4.82-3.4h-2.54l-3.12 3.4" style="fill:none;stroke:#140533;stroke-width:.08325984;stroke-linecap:round;stroke-linejoin:round;stroke-miterlimit:22.9255867;stroke-opacity:1"/><path d="m124.43 90.32-4.37-3.4h-1.92l-3.45 3.41" style="fill:none;stroke:#140533;stroke-width:.08311029;stroke-linecap:round;stroke-linejoin:round;stroke-miterlimit:22.9255867;stroke-opacity:1"/><path d="m144.1 87.24.02-2.25-3.55.01.01 2.45-.31-1h-.36l.01-1.43.65-.02" style="fill:none;stroke:#140533;stroke-width:.16656888;stroke-linecap:round;stroke-linejoin:round;stroke-miterlimit:22.9255867;stroke-opacity:1"/><path d="M143.41 84.63h-2.76V85l2.76-.01zM142.79 83.29h-1.54a.2.2 0 1 0 0 .42h1.54a.2.2 0 1 0 0-.42zm0 0" style="fill:none;stroke:#140533;stroke-width:.10827468;stroke-linecap:round;stroke-linejoin:round;stroke-miterlimit:22.9255867;stroke-opacity:1"/><path d="M142.8 84.63s-.32-.17-.4-.3c-.17-.35.05-.51.35-.62M141.24 84.63s.33-.17.4-.3c.17-.35-.05-.51-.34-.62" style="fill:none;stroke:#140533;stroke-width:.10827468;stroke-linecap:round;stroke-linejoin:round;stroke-miterlimit:22.9255867;stroke-opacity:1"/><path d="M142.73 83.29s-.29-.17-.35-.3c-.16-.33.04-.5.3-.6M141.32 83.29s.3-.17.36-.3c.16-.33-.04-.5-.3-.6" style="fill:none;stroke:#140533;stroke-width:.10809793;stroke-linecap:round;stroke-linejoin:round;stroke-miterlimit:22.9255867;stroke-opacity:1"/><path d="M142.8 82.08h-1.56v.3h1.57zm0 0" style="fill:none;stroke:#140533;stroke-width:.10812426;stroke-linecap:round;stroke-linejoin:round;stroke-miterlimit:22.9255867;stroke-opacity:1"/><path d="M142.81 82.08s.66-.1.65-.92c-.01-.82-.45-1.34-.51-1.42-.07-.08-.4-.42-.68-.47a.95.95 0 0 0-.97.3c-.61.6-1.2 2.25-.06 2.5" style="fill:none;stroke:#140533;stroke-width:.10827468;stroke-linecap:round;stroke-linejoin:round;stroke-miterlimit:22.9255867;stroke-opacity:1"/><path d="m120.89 87.52-.02-2.53-3.46.01-.01 2.44-.18-.99h-.18v-1.43l.37-.02" style="fill:none;stroke:#140533;stroke-width:.16656888;stroke-linecap:round;stroke-linejoin:round;stroke-miterlimit:22.9255867;stroke-opacity:1"/><path d="M120.37 84.63h-2.76V85l2.76-.01zM119.74 83.29h-1.53c-.12 0-.21.1-.21.2 0 .12.1.22.2.22h1.54c.12 0 .22-.1.22-.21 0-.12-.1-.21-.22-.21zm0 0" style="fill:none;stroke:#140533;stroke-width:.10827468;stroke-linecap:round;stroke-linejoin:round;stroke-miterlimit:22.9255867;stroke-opacity:1"/><path d="M119.75 84.63s-.32-.17-.39-.3c-.18-.35.05-.51.34-.62M118.2 84.63s.32-.17.4-.3c.17-.35-.06-.51-.35-.62" style="fill:none;stroke:#140533;stroke-width:.10827468;stroke-linecap:round;stroke-linejoin:round;stroke-miterlimit:22.9255867;stroke-opacity:1"/><path d="M119.7 83.29s-.3-.17-.36-.3c-.17-.33.04-.5.3-.6M118.28 83.29s.3-.17.35-.3c.17-.33-.04-.5-.3-.6" style="fill:none;stroke:#140533;stroke-width:.10809793;stroke-linecap:round;stroke-linejoin:round;stroke-miterlimit:22.9255867;stroke-opacity:1"/><path d="M119.76 82.08h-1.57v.3h1.57zm0 0" style="fill:none;stroke:#140533;stroke-width:.10812426;stroke-linecap:round;stroke-linejoin:round;stroke-miterlimit:22.9255867;stroke-opacity:1"/><path d="M119.77 82.07s.65-.1.64-.92c0-.81-.44-1.33-.5-1.41-.07-.09-.4-.42-.67-.47-.28-.05-.58-.08-.96.3-.6.6-1.18 2.25-.06 2.5" style="fill:none;stroke:#140533;stroke-width:.10786668;stroke-linecap:round;stroke-linejoin:round;stroke-miterlimit:22.9255867;stroke-opacity:1"/><path d="m139.91 86.45-19.03-.04" style="fill:none;stroke:#140533;stroke-width:.08325984;stroke-linecap:round;stroke-linejoin:round;stroke-miterlimit:22.9255867;stroke-opacity:1"/><path d="M117.04 86.44h-1.3" style="fill:none;stroke:#140533;stroke-width:.08061193;stroke-linecap:round;stroke-linejoin:round;stroke-miterlimit:22.9255867;stroke-opacity:1"/><path d="M114.5 88.18h1.26l.02-13.03" style="fill:none;stroke:#140533;stroke-width:.16656888;stroke-linecap:round;stroke-linejoin:round;stroke-miterlimit:22.9255867;stroke-opacity:1"/><path d="M116.13 74.92v.2h-1.39v-.1h-7.98l.14.15h-1.6l-.16.19" style="fill:none;stroke:#140533;stroke-width:.16674684;stroke-linecap:round;stroke-linejoin:round;stroke-miterlimit:22.9255867;stroke-opacity:1"/><path d="M116.19 74.9h-1.35v-.1l-2.21-.01-5.79.04.12.12-1.65-.02-.31.32M116 74.66l-1.14.01v-.1l-1.37.02v-.1l-5.05.03.02.1-1.79.03.05.08-1.42-.01-.12.14" style="fill:none;stroke:#140533;stroke-width:.16674684;stroke-linecap:round;stroke-linejoin:round;stroke-miterlimit:22.9255867;stroke-opacity:1"/><path d="M114.2 71.28s-.02.23-.18.38-.34.17-.34.17l-5.28.02c-.4 0-.6-.1-.64-.55M115.47 71.55c-.09.23-.2.42-.5.46l-1.24.01" style="fill:none;stroke:#140533;stroke-width:.16626848;stroke-linecap:round;stroke-linejoin:round;stroke-miterlimit:22.9255867;stroke-opacity:1"/><path d="M106.28 71.55s0 .32.28.43c.12.05 1.33.04 1.7.04" style="fill:none;stroke:#140533;stroke-width:.16610911;stroke-linecap:round;stroke-linejoin:round;stroke-miterlimit:22.9255867;stroke-opacity:1"/><path d="M116.57 71.57a.55.55 0 0 1-.5.52c-.06.02-.86.02-1.12.02M104.93 71.57c.02.27.18.48.5.52.06.02.99.01 1.25.01" style="fill:none;stroke:#140533;stroke-width:.16626848;stroke-linecap:round;stroke-linejoin:round;stroke-miterlimit:22.9255867;stroke-opacity:1"/><path d="m115.8 72.89.34-.26-1.45.05.25-.13-1.4.02.2-.15-5.48.05.24.15-1.8.01.3.1-1.67-.03-.34.26M115.8 74.67v-1.78" style="fill:none;stroke:#140533;stroke-width:.16656888;stroke-linecap:round;stroke-linejoin:round;stroke-miterlimit:22.9255867;stroke-opacity:1"/><path d="m114.6 74.59-.02-1.91M113.37 74.45l.05-1.92" style="fill:none;stroke:#140533;stroke-width:.16625364;stroke-linecap:round;stroke-linejoin:round;stroke-miterlimit:22.9255867;stroke-opacity:1"/><path d="m105.6 74.69.01-1.98" style="fill:none;stroke:#140533;stroke-width:.16656888;stroke-linecap:round;stroke-linejoin:round;stroke-miterlimit:22.9255867;stroke-opacity:1"/><path d="M107 74.59v-1.86M108.54 74.6l-.04-1.98" style="fill:none;stroke:#140533;stroke-width:.16625364;stroke-linecap:round;stroke-linejoin:round;stroke-miterlimit:22.9255867;stroke-opacity:1"/><path d="M116.14 72.63v-.55M114.94 72.53l.01-.55M113.73 72.4v-.55M108.26 72.48v-.62M106.67 72.65v-.63M105.3 72.73l.01-.58-.38.34c-.35-.13-.38-.28-.36-.56h-.14v-.2s-.08.03-.16-.02c-.07-.06-.1-.15-.1-.15s-.18-.02-.22-.08a1.55 1.55 0 0 0-.06-.1h-1.2v-.96l-.56-.51-.22-.07-.15-.31-1.06.05.01-.4" style="fill:none;stroke:#140533;stroke-width:.16656888;stroke-linecap:round;stroke-linejoin:round;stroke-miterlimit:22.9255867;stroke-opacity:1"/><path d="m104.55 71.96.38-.39 1.35-.02-.03-.17 1.52-.01v-.07l6.43-.03.05.15 1.25.03-.03.08 1.14-.02.55-.63-1.17-.01.06-.12h-1.32l.04-.12-7.5-.01.07.12-1.55.01.05.14-1.49.02-.46.46" style="fill:none;stroke:#140533;stroke-width:.16656888;stroke-linecap:round;stroke-linejoin:round;stroke-miterlimit:22.9255867;stroke-opacity:1"/><path d="M116.76 71.3h-1.14l.06-.13-1.33-.03.03-.13-6.85.05.08.1h-1.58l.06.15-1.32.05-.33.38" style="fill:none;stroke:#140533;stroke-width:.16656888;stroke-linecap:round;stroke-linejoin:round;stroke-miterlimit:22.9255867;stroke-opacity:1"/><path d="M116.93 71.07h-1.13l.06-.12h-1.36l.05-.13-7.16.02.07.1h-1.53l.09.15-1.45.02-.4.45M113.7 74.59l-.04.2M113.49 74.8l-.04.2M108.26 74.59l.03.2M108.47 74.8l.03.2M116.25 69.44h-10.18v1.12h10.18zM106.07 70.56v.1l-1.43.02V69.6h1.43" style="fill:none;stroke:#140533;stroke-width:.16656888;stroke-linecap:round;stroke-linejoin:round;stroke-miterlimit:22.9255867;stroke-opacity:1"/><path d="M104.64 70.67v.11l-1.45.02v-1.07h1.45" style="fill:none;stroke:#140533;stroke-width:.16596164;stroke-linecap:round;stroke-linejoin:round;stroke-miterlimit:22.9255867;stroke-opacity:1"/><path d="M116.25 70.57v.11l1.24.02v-1.07h-1.24" style="fill:none;stroke:#140533;stroke-width:.16609341;stroke-linecap:round;stroke-linejoin:round;stroke-miterlimit:22.9255867;stroke-opacity:1"/><path d="M117.5 70.7v.1l1.1-.04.01-1.01h-1.12" style="fill:none;stroke:#140533;stroke-width:.1659158;stroke-linecap:round;stroke-linejoin:round;stroke-miterlimit:22.9255867;stroke-opacity:1"/><path d="m102.68 71.38.5-.58M102.68 70.42l.5-.7M102.13 69.9l.48-.75 1.4-.02v-.14l1.5.01v-.16l11.38.04-.02.1 1.23.01v.1l1.29.01-.8.67M118.56 70.77l-1.01.63h-.84M118.1 69.1l-.6.53M116.9 68.89l-.65.55M103.97 69.04l.67.6M105.5 68.92l.57.55M103.19 69.73l-.58-.58" style="fill:none;stroke:#140533;stroke-width:.16656888;stroke-linecap:round;stroke-linejoin:round;stroke-miterlimit:22.9255867;stroke-opacity:1"/><path d="m101.79 69.59.61-.91 1.45-.04.01-.14h1.47v-.14l11.85.02-.01.1 1.24-.03.05.15h1.22l-.2.46" style="fill:none;stroke:#140533;stroke-width:.16656888;stroke-linecap:round;stroke-linejoin:round;stroke-miterlimit:22.9255867;stroke-opacity:1"/><path d="m118.85 69.55.4.03 1.52-.94h-1.1M120.96 68.57v-.45l-2.39-.21-14.36.03-2.9.23-.01.38.7-.03" style="fill:none;stroke:#140533;stroke-width:.16656888;stroke-linecap:round;stroke-linejoin:round;stroke-miterlimit:22.9255867;stroke-opacity:1"/><path d="m102.76 68.05-.02.36.74.02M104.21 67.94v.43h1.13M118.57 67.9v.47h-1.39M119.76 68.01v.38h-.98" style="fill:none;stroke:#140533;stroke-width:.16656888;stroke-linecap:round;stroke-linejoin:round;stroke-miterlimit:22.9255867;stroke-opacity:1"/><path d="m120.96 68.12-7.28-4.14-5.82-.04-6.62 4.23-.53 1" style="fill:none;stroke:#140533;stroke-width:.08325984;stroke-linecap:round;stroke-linejoin:round;stroke-miterlimit:22.9255867;stroke-opacity:1"/><path d="m113.68 63.98.02-1.87s.03-.99-.88-1.71c-.9-.72-1.13-.66-1.13-.66l-2.26-.02c-.04 0-.61.35-1.02.8-.75.82-.54 2.38-.55 3.42" style="fill:none;stroke:#140533;stroke-width:.10827468;stroke-linecap:round;stroke-linejoin:round;stroke-miterlimit:22.9255867;stroke-opacity:1"/><path d="m111.7 59.74.03-.64s-.47-.14-1.38-.09c-.92.06-.95.13-.95.13l.03.58M111.73 59.1l.25-.16.01-.5s.13-.23.2-.29M109.4 59.14l-.28-.2-.02-.5s-.13-.23-.2-.29" style="fill:none;stroke:#140533;stroke-width:.10827468;stroke-linecap:round;stroke-linejoin:round;stroke-miterlimit:22.9255867;stroke-opacity:1"/><path d="M112.24 58.27s.25-.1.28-.23c.03-.15-.04-.25-.27-.35-.24-.1-.59-.52-.65-1.28-.07-.75.09-1.1.2-1.29.12-.19.35-.4.35-.4" style="fill:none;stroke:#140533;stroke-width:.10827468;stroke-linecap:round;stroke-linejoin:round;stroke-miterlimit:22.9255867;stroke-opacity:1"/><path d="M112.2 54.84s.28-.06.24-.16c-.03-.1-.45-.25-1.62-.27-1.18-.01-1.53.1-1.67.11-.13.03-.5.1-.5.16-.03.06.1.15.27.19" style="fill:none;stroke:#140533;stroke-width:.10827468;stroke-linecap:round;stroke-linejoin:round;stroke-miterlimit:22.9255867;stroke-opacity:1"/><path d="M108.84 58.27s-.25-.1-.28-.23c-.03-.15.04-.25.27-.35.24-.1.58-.52.65-1.28.07-.75-.09-1.1-.2-1.29-.12-.19-.35-.4-.35-.4M112.44 54.68l.01-.16c.03-.4-.94-.48-1.92-.46-1 .02-1.96.14-1.9.49l.01.13" style="fill:none;stroke:#140533;stroke-width:.10827468;stroke-linecap:round;stroke-linejoin:round;stroke-miterlimit:22.9255867;stroke-opacity:1"/><path d="M112.52 54.42s.29-.13.22-.42c-.07-.3-.64-.53-1.08-.6a6.5 6.5 0 0 0-1.55-.07c-.5.05-1.03.17-1.4.38-.39.2-.4.41-.35.56.05.14.22.2.22.2" style="fill:none;stroke:#140533;stroke-width:.10827468;stroke-linecap:round;stroke-linejoin:round;stroke-miterlimit:22.9255867;stroke-opacity:1"/><path d="M111.1 53.33s-.1-.47-.53-.46c-.42.01-.51.32-.58.47" style="fill:none;stroke:#140533;stroke-width:.10827468;stroke-linecap:round;stroke-linejoin:round;stroke-miterlimit:22.9255867;stroke-opacity:1"/><path d="m108.5 116.9-.1-41.85M107.05 116.82l-.01-2.7h1.45" style="fill:none;stroke:#140533;stroke-width:.16648695;stroke-linecap:round;stroke-linejoin:round;stroke-miterlimit:22.9255867;stroke-opacity:1"/><path d="M108.45 113.82h-1.43l-.01-2.46h1.45" style="fill:none;stroke:#140533;stroke-width:.16645612;stroke-linecap:round;stroke-linejoin:round;stroke-miterlimit:22.9255867;stroke-opacity:1"/><path d="M107.13 113.82h.25v.26h-.25zm0 0" style="fill:none;stroke:#140533;stroke-width:.16615668;stroke-linecap:round;stroke-linejoin:round;stroke-miterlimit:22.9255867;stroke-opacity:1"/><path d="M108.45 111.07h-1.43l-.01-2.46h1.45" style="fill:none;stroke:#140533;stroke-width:.16645612;stroke-linecap:round;stroke-linejoin:round;stroke-miterlimit:22.9255867;stroke-opacity:1"/><path d="M107.13 111.07h.25v.26h-.25zm0 0" style="fill:none;stroke:#140533;stroke-width:.16615668;stroke-linecap:round;stroke-linejoin:round;stroke-miterlimit:22.9255867;stroke-opacity:1"/><path d="M108.45 108.27h-1.43l-.01-2.46h1.45" style="fill:none;stroke:#140533;stroke-width:.16645612;stroke-linecap:round;stroke-linejoin:round;stroke-miterlimit:22.9255867;stroke-opacity:1"/><path d="M107.13 108.27h.25v.26h-.25zm0 0" style="fill:none;stroke:#140533;stroke-width:.16615668;stroke-linecap:round;stroke-linejoin:round;stroke-miterlimit:22.9255867;stroke-opacity:1"/><path d="m108.45 105.5-1.43-.01-.01-2.46h1.45" style="fill:none;stroke:#140533;stroke-width:.16645612;stroke-linecap:round;stroke-linejoin:round;stroke-miterlimit:22.9255867;stroke-opacity:1"/><path d="M107.13 105.49h.25v.26h-.25zm0 0" style="fill:none;stroke:#140533;stroke-width:.16615668;stroke-linecap:round;stroke-linejoin:round;stroke-miterlimit:22.9255867;stroke-opacity:1"/><path d="M108.45 102.75h-1.43l-.01-2.46h1.45" style="fill:none;stroke:#140533;stroke-width:.16645612;stroke-linecap:round;stroke-linejoin:round;stroke-miterlimit:22.9255867;stroke-opacity:1"/><path d="M107.13 102.75h.25v.26h-.25zm0 0" style="fill:none;stroke:#140533;stroke-width:.16615668;stroke-linecap:round;stroke-linejoin:round;stroke-miterlimit:22.9255867;stroke-opacity:1"/><path d="M108.45 99.99h-1.43l-.01-2.47h1.45" style="fill:none;stroke:#140533;stroke-width:.16645612;stroke-linecap:round;stroke-linejoin:round;stroke-miterlimit:22.9255867;stroke-opacity:1"/><path d="M107.13 99.98h.25v.27h-.25zm0 0" style="fill:none;stroke:#140533;stroke-width:.16615668;stroke-linecap:round;stroke-linejoin:round;stroke-miterlimit:22.9255867;stroke-opacity:1"/><path d="M108.45 97.21h-1.43l-.01-2.46h1.45" style="fill:none;stroke:#140533;stroke-width:.16645612;stroke-linecap:round;stroke-linejoin:round;stroke-miterlimit:22.9255867;stroke-opacity:1"/><path d="M107.13 97.2h.25v.27h-.25zm0 0" style="fill:none;stroke:#140533;stroke-width:.16615668;stroke-linecap:round;stroke-linejoin:round;stroke-miterlimit:22.9255867;stroke-opacity:1"/><path d="M108.45 94.45h-1.43l-.01-2.46h1.45" style="fill:none;stroke:#140533;stroke-width:.16645612;stroke-linecap:round;stroke-linejoin:round;stroke-miterlimit:22.9255867;stroke-opacity:1"/><path d="M107.13 94.44h.25v.27h-.25zm0 0" style="fill:none;stroke:#140533;stroke-width:.16615668;stroke-linecap:round;stroke-linejoin:round;stroke-miterlimit:22.9255867;stroke-opacity:1"/><path d="M108.45 91.64h-1.43v-.99h.16l-.17-1.48h1.45" style="fill:none;stroke:#140533;stroke-width:.16645612;stroke-linecap:round;stroke-linejoin:round;stroke-miterlimit:22.9255867;stroke-opacity:1"/><path d="M107.13 91.63h.25v.27h-.25zm0 0" style="fill:none;stroke:#140533;stroke-width:.16615668;stroke-linecap:round;stroke-linejoin:round;stroke-miterlimit:22.9255867;stroke-opacity:1"/><path d="M108.45 88.86h-1.43L107 86.4h1.45M108.45 86.06h-1.43l-.01-2.47h1.45M108.45 83.28h-1.43l-.01-2.46h1.45M108.45 80.5h-1.43l-.01-2.46h1.45M108.45 77.71h-1.43l-.01-2.46h1.45" style="fill:none;stroke:#140533;stroke-width:.16645612;stroke-linecap:round;stroke-linejoin:round;stroke-miterlimit:22.9255867;stroke-opacity:1"/><path d="M107.26 89.17v-.31M107.26 86.4v-.32M107.26 83.6v-.32M107.26 80.8v-.3M107.26 78v-.3" style="fill:none;stroke:#140533;stroke-width:.16648695;stroke-linecap:round;stroke-linejoin:round;stroke-miterlimit:22.9255867;stroke-opacity:1"/><path d="m113.23 116.9.09-41.86" style="fill:none;stroke:#140533;stroke-width:.16656888;stroke-linecap:round;stroke-linejoin:round;stroke-miterlimit:22.9255867;stroke-opacity:1"/><path d="M113.27 108.27h1.23v-2.46h-1.24" style="fill:none;stroke:#140533;stroke-width:.16621245;stroke-linecap:round;stroke-linejoin:round;stroke-miterlimit:22.9255867;stroke-opacity:1"/><path d="M114.4 108.27h-.2v.26h.2zm0 0" style="fill:none;stroke:#140533;stroke-width:.16613047;stroke-linecap:round;stroke-linejoin:round;stroke-miterlimit:22.9255867;stroke-opacity:1"/><path d="m113.27 105.5 1.23-.01v-2.46h-1.24" style="fill:none;stroke:#140533;stroke-width:.16621245;stroke-linecap:round;stroke-linejoin:round;stroke-miterlimit:22.9255867;stroke-opacity:1"/><path d="M114.4 105.49h-.2v.26h.2zm0 0" style="fill:none;stroke:#140533;stroke-width:.16613047;stroke-linecap:round;stroke-linejoin:round;stroke-miterlimit:22.9255867;stroke-opacity:1"/><path d="M113.27 102.75h1.23v-2.46h-1.24" style="fill:none;stroke:#140533;stroke-width:.16621245;stroke-linecap:round;stroke-linejoin:round;stroke-miterlimit:22.9255867;stroke-opacity:1"/><path d="M114.4 102.75h-.2v.26h.2zM114.4 99.98h-.2v.27h.2zM114.4 97.21h-.2v.26h.2zM114.4 94.45h-.2v.26h.2zM114.4 91.64h-.2v.26h.2zm0 0" style="fill:none;stroke:#140533;stroke-width:.16613047;stroke-linecap:round;stroke-linejoin:round;stroke-miterlimit:22.9255867;stroke-opacity:1"/><path d="M114.3 86.4v-.32M114.3 83.6v-.32M114.3 80.8v-.3M114.3 78v-.3M113.23 116.9l.09-41.86" style="fill:none;stroke:#140533;stroke-width:.16656888;stroke-linecap:round;stroke-linejoin:round;stroke-miterlimit:22.9255867;stroke-opacity:1"/><path d="M114.4 108.27h-.2v.26h.2zm0 0" style="fill:none;stroke:#140533;stroke-width:.16613047;stroke-linecap:round;stroke-linejoin:round;stroke-miterlimit:22.9255867;stroke-opacity:1"/><path d="M138 90.63H124.4" style="fill:none;stroke:#140533;stroke-width:.16632776;stroke-linecap:round;stroke-linejoin:round;stroke-miterlimit:22.9255867;stroke-opacity:1"/><path d="M138 90.28H124.4" style="fill:none;stroke:#140533;stroke-width:.10809936;stroke-linecap:round;stroke-linejoin:round;stroke-miterlimit:22.9255867;stroke-opacity:1"/><path d="m114.55 88.18.14 2.15M107.02 88.17l-1.44-.01-.26-1.79-.01-10.85.17-.16h-.34M104.93 72.5v.5l.36.01.01 1.71M105.29 73.01l.32-.3M105.6 88.18l.02-12.89M100.7 69.58l.6-1.03" style="fill:none;stroke:#140533;stroke-width:.16656888;stroke-linecap:round;stroke-linejoin:round;stroke-miterlimit:22.9255867;stroke-opacity:1"/><path d="m62.43 61.4-.75 1.81M63.13 61.4l-1.04 2.51M63.82 61.4l-1.04 2.51M64.53 61.4l-1.04 2.51M65.22 61.4l-1.04 2.51M65.93 61.4l-1.04 2.51M66.62 61.4l-1.04 2.51M67.33 61.4l-1.05 2.51M67.8 61.83l-.86 2.08M67.93 63.21l-.29.7M108.39 61.45l-.53 1.28M109.08 61.45l-1.04 2.5M109.78 61.45l-1.04 2.5M110.53 61.45l-1.04 2.5M111.24 61.45l-1.05 2.5M111.93 61.45l-1.04 2.5M112.64 61.45l-1.04 2.5M113.33 61.45l-1.04 2.5M113.66 62.35l-.67 1.6M113.65 63.93v.02" style="fill:none;stroke:#140533;stroke-width:.06338795;stroke-linecap:round;stroke-linejoin:round;stroke-miterlimit:22.9255867;stroke-opacity:1"/><path d="M107.31 64.3c0-1.99.16-2.44.9-3.5" style="fill:none;stroke:#140533;stroke-width:.08314072;stroke-linecap:round;stroke-linejoin:round;stroke-miterlimit:22.9255867;stroke-opacity:1"/><path d="m63.7 54.5-.22.48M64.45 54.47l-.57 1.25M65.15 54.47l-.56 1.25M65.84 54.47l-.57 1.25M66.5 54.58l-.12.26M109.07 54.52l-.11.23M109.8 54.47l-.49 1.06M110.45 54.47l-.58 1.25M111.15 54.47l-.57 1.25M111.82 54.52l-.55 1.2" style="fill:none;stroke:#140533;stroke-width:.06338795;stroke-linecap:round;stroke-linejoin:round;stroke-miterlimit:22.9255867;stroke-opacity:1"/><path d="m63.27 54.5.38.75M63.63 54.47l.39.78M64 54.43l.4.81M64.4 54.4l.4.84M64.76 54.39l.43.85M65.13 54.38l.43.85M65.53 54.42l.4.77M65.94 54.48l.2.4M66.36 54.55l.04.08" style="fill:none;stroke:#140533;stroke-width:.06325265;stroke-linecap:round;stroke-linejoin:round;stroke-miterlimit:22.9255867;stroke-opacity:1"/><path d="m109.02 54.51.38.71M109.38 54.48l.4.74M109.75 54.46l.4.76M110.14 54.43l.42.8M110.52 54.42l.42.8M110.89 54.42l.42.8M111.29 54.45l.38.74M111.7 54.51l.2.4M112.11 54.59l.04.07" style="fill:none;stroke:#140533;stroke-width:.06338795;stroke-linecap:round;stroke-linejoin:round;stroke-miterlimit:22.9255867;stroke-opacity:1"/><path d="M62.88 54.23s.24-.23.86-.28a8.5 8.5 0 0 1 2.73.14" style="fill:none;stroke:#140533;stroke-width:.08314072;stroke-linecap:round;stroke-linejoin:round;stroke-miterlimit:22.9255867;stroke-opacity:1"/><path d="M63.46 54.65c.6-.12 2.22-.14 2.8.07" style="fill:none;stroke:#140533;stroke-width:.08338194;stroke-linecap:round;stroke-linejoin:round;stroke-miterlimit:22.9255867;stroke-opacity:1"/><path d="M109.18 54.67c.6-.13 2.22-.17 2.82.02" style="fill:none;stroke:#140533;stroke-width:.08338199;stroke-linecap:round;stroke-linejoin:round;stroke-miterlimit:22.9255867;stroke-opacity:1"/><path d="m56.86 68.53.33.52M58.25 68.48l.16.4" style="fill:none;stroke:#140533;stroke-width:.16635607;stroke-linecap:round;stroke-linejoin:round;stroke-miterlimit:22.9255867;stroke-opacity:1"/><path d="m71.65 68.45-.14.59M70.13 68.48l-.17.4M73.07 68.66l-.14.59" style="fill:none;stroke:#140533;stroke-width:.16612118;stroke-linecap:round;stroke-linejoin:round;stroke-miterlimit:22.9255867;stroke-opacity:1"/><path d="m118.47 68.53-.34.51M117.09 68.48l-.16.4" style="fill:none;stroke:#140533;stroke-width:.16649416;stroke-linecap:round;stroke-linejoin:round;stroke-miterlimit:22.9255867;stroke-opacity:1"/><path d="m103.84 68.45.14.59M102.44 68.66l.14.59M105.43 68.45l.14.59" style="fill:none;stroke:#140533;stroke-width:.16605975;stroke-linecap:round;stroke-linejoin:round;stroke-miterlimit:22.9255867;stroke-opacity:1"/><path d="m31.73 80.67-.21.4M32.26 80.67l-.59 1.08M32.77 80.67l-.74 1.37m-.03.06h0M33.3 80.67l-.78 1.43M33.81 80.67l-.77 1.43M34.33 80.67l-.77 1.43M34.4 81.5l-.16.29M34.2 81.38l.18.18M33.68 81.38l.5.48M33.16 81.38l.73.7M32.64 81.38l.77.74M32.12 81.38l.78.74M31.6 81.38l.77.74" style="fill:none;stroke:#140533;stroke-width:.06338795;stroke-linecap:round;stroke-linejoin:round;stroke-miterlimit:22.9255867;stroke-opacity:1"/><path d="m55.06 80.67-.21.39M55.57 80.67 55 81.73M56.08 80.67l-.73 1.35m-.03.05h0M56.59 80.67l-.76 1.4M57.1 80.67l-.76 1.4M57.61 80.67l-.76 1.4M57.68 81.48l-.16.29M57.48 81.37l.18.17M56.97 81.37l.49.47M56.46 81.37l.72.68M55.95 81.37l.76.72M55.44 81.37l.76.72M54.93 81.37l.75.72" style="fill:none;stroke:#140533;stroke-width:.06346749;stroke-linecap:round;stroke-linejoin:round;stroke-miterlimit:22.9255867;stroke-opacity:1"/><path d="m117.8 80.66-.2.4M118.31 80.66l-.56 1.07M118.8 80.66l-.7 1.35m-.04.06h0M119.31 80.66l-.75 1.41M119.8 80.66l-.74 1.41M120.31 80.66l-.74 1.41M120.38 81.47l-.15.3M120.19 81.37l.17.17M119.68 81.37l.48.47M119.18 81.37l.7.68M118.68 81.37l.74.72M118.18 81.37l.75.72M117.67 81.37l.75.72M140.82 80.66l-.21.4M141.32 80.66l-.56 1.07M141.82 80.66l-.72 1.35m-.03.06h0M142.32 80.66l-.74 1.41M142.82 80.66l-.74 1.41M143.33 80.66l-.75 1.41M143.4 81.47l-.16.3M143.2 81.37l.17.17M142.7 81.37l.48.47M142.2 81.37l.7.68M141.7 81.37l.74.72M141.2 81.37l.74.72M140.69 81.37l.74.72" style="fill:none;stroke:#140533;stroke-width:.06323665;stroke-linecap:round;stroke-linejoin:round;stroke-miterlimit:22.9255867;stroke-opacity:1"/><path d="m105.77 88.13-.17-.18M106.61 88.13l-1-1.09M107.02 87.61l-1.42-1.52M107.02 86.7l-1.41-1.51M107.02 85.78l-1.41-1.52M107.02 84.87l-1.4-1.51M107.03 83.93l-1.42-1.51M107.03 83.03l-1.41-1.52M107.03 82.1l-1.41-1.51M107.03 81.2l-1.4-1.52M107.03 80.24l-1.4-1.5M115.22 88.13l-.65-.7m-7.54-8.1-1.4-1.5M115.78 87.8l-1.2-1.28m-7.55-8.1-1.4-1.52M115.78 86.9l-1.2-1.28m-7.55-8.12-1.4-1.5M115.78 86l-1.18-1.28m-7.57-8.13-1.4-1.5M115.79 85.09l-1.18-1.27m-7.58-8.13-1.4-1.5M103 71.35l-.16-.18m-1.56-1.67-.33-.36M115.8 84.17l-1.18-1.26m-7.59-8.15-1.4-1.5m-1.7-1.83-.72-.77m-.4-.43-1.53-1.65M115.8 83.26l-1.17-1.25m-7.6-8.16-1.88-2.02m-.78-.84-1.16-1.24m-.02-.03-1.52-1.63M115.8 82.32l-1.16-1.25m-7.6-8.17-4.54-4.87M115.8 81.41l-1.15-1.24m-8.78-9.42-2.59-2.79M115.8 80.49l-1.14-1.23m-8.56-9.2-1.62-1.74m-.24-.25-.16-.17M115.8 79.58l-1.14-1.22m-8.32-8.94-1.02-1.1M115.81 78.64l-1.14-1.21m-7.45-8.01-1.02-1.1M115.81 77.74l-1.13-1.21m-6.61-7.11-1.02-1.1M115.82 76.82l-1.13-1.21m-5.76-6.2-1.02-1.09M115.82 75.91l-1.12-1.2m-4.93-5.3-1.02-1.09M115.82 74.97l-1.1-1.2m-4.06-4.35-1.02-1.1M115.83 74.06l-1.1-1.19m-3.23-3.45-1.02-1.1M115.83 73.14l-.82-.88m-2.64-2.84-1.02-1.1M116.13 72.55l-.74-.8m-2.18-2.33-1.02-1.1M116.36 71.85l-.57-.61m-1.7-1.82-1.02-1.1M116.78 71.4l-.61-.66m-1.23-1.32-1.02-1.1M117.56 71.3l-1.27-1.36m-.49-.52-1.02-1.1M118.13 71.01l-2.5-2.69M118.61 70.58l-2.1-2.26M118.66 69.72l-1.3-1.4M119.33 69.51l-1.11-1.19M119.88 69.2l-1.24-1.34M120.44 68.86l-.85-.91M120.99 68.54l-.47-.5M105.16 123.48l-.33-.35M105.43 122.84l-.6-.63M106.93 123.55l-.76-.82m-.75-.8-.57-.62M106.93 122.64l-.74-.8m-.78-.83-.56-.6M106.93 121.73l-.72-.77m-.8-.86-.55-.59M106.93 120.8l-.7-.75m-.83-.89-.21-.23M106.93 119.9l-.68-.73M106.94 118.05l-.05-.06M107.68 117.92l-.58-.62M107.8 117.13h-.02M108.33 116.76l-.4-.41M115.55 123.61l-.43-.45m-6.58-7.08-.6-.64M116.38 123.58l-.01-.02m-.72-.76-.53-.57m-6.58-7.07-.6-.65M116.97 123.3l-.6-.63m-.7-.77-.54-.58m-6.6-7.07-.6-.65M116.96 122.35l-.58-.62m-.7-.77-.55-.58m-6.6-7.08-.6-.65M116.96 121.43l-.57-.6m-.71-.77-.55-.6m-6.6-7.07-.6-.65M116.95 120.5l-.55-.59m-.71-.76-.02-.03m-1.04-1.12-.6-.64m-.56-.6-.2-.2m-4.73-5.1-.61-.65M116.95 119.59l-.54-.58m-1.69-1.81-.07-.08m-.77-.83-.6-.64m-4.74-5.1-.61-.65M113.88 115.35l-.6-.64m-4.74-5.1-.61-.66M113.89 114.45l-.6-.65m-4.75-5.1-.61-.66M113.9 113.52l-.6-.64m-4.77-5.11-.6-.66M113.9 112.62l-.6-.65m-4.77-5.11-.6-.66M113.9 111.67l-.6-.64m-4.77-5.12-.6-.66M113.9 110.77l-.6-.65m-4.77-5.12-.6-.66M113.91 109.85l-.6-.65m-4.78-5.13-.6-.65M113.91 108.94l-.6-.65m-4.78-5.13-.61-.65M113.92 108l-.6-.64m-4.79-5.14-.61-.66M113.92 107.1l-.6-.65m-4.79-5.14-.61-.66M113.92 106.18l-.6-.65m-4.79-5.14-.61-.66M113.93 105.28l-.6-.66m-4.8-5.14-.62-.66M113.93 104.33l-.6-.65m-4.8-5.15-.62-.67M113.94 103.43l-.61-.66m-4.8-5.15-.62-.67M113.94 102.5l-.6-.65m-4.81-5.16-.62-.66M113.94 101.6l-.6-.66m-4.81-5.16-.62-.66M113.95 100.7l-.61-.66m-4.81-5.17-.62-.66M113.95 99.79l-.6-.66m-4.82-5.17-.62-.66M113.96 98.87l-.62-.66m-4.81-5.18-.62-.66M113.96 97.96l-.61-.66m-4.82-5.17-.63-.67M113.96 97.02l-.61-.66m-4.82-5.18-.63-.67M113.97 96.11l-.62-.66m-4.82-5.18-.63-.67M113.97 95.2l-.61-.67m-4.84-5.19-.62-.67M113.98 94.29l-.62-.67m-4.84-5.19-.62-.67M113.98 93.35l-.62-.66m-4.84-5.2-.62-.67M113.98 92.45l-.61-.67m-4.85-5.2-.62-.67M113.99 91.52l-.62-.66m-4.85-5.2-.62-.68M114 90.62l-.63-.67m-4.85-5.2-.63-.68M114 89.67l-.62-.66m-4.86-5.22-.63-.67M114 88.77l-.62-.67m-4.86-5.22-.63-.67M114 87.85l-.62-.67m-4.86-5.22-.63-.68M114 86.94l-.61-.67m-4.87-5.22-.63-.68M114.01 86l-.62-.67m-4.87-5.23-.63-.68M114.02 85.1l-.63-.68m-4.87-5.23-.63-.68M114.02 84.17l-.62-.67m-4.88-5.24-.63-.68M114.02 83.27l-.62-.67m-4.88-5.25-.64-.68M114.03 82.32l-.63-.67m-4.88-5.25-.64-.68M114.03 81.42l-.62-.68m-4.9-5.25-.88-.95M114.04 80.5l-.63-.68m-4.99-5.36-.77-.82M114.04 79.6l-.63-.68m-4.78-5.13-1.26-1.36M114.04 78.66l-.63-.68m-4.8-5.15-2.12-2.3M114.05 77.75l-.63-.67m-6-6.45-.05-.05M114.05 76.83l-.63-.68M114.06 75.93l-.64-.68M114.17 75.1l-.42-.46m-.16-.17-.11-.12M114.55 74.6l-.05-.06m-.28-.3-.71-.76M114.32 73.42l-.79-.84M114.48 72.68l-.64-.68M114.67 72l-.45-.48M115.13 71.59l-.57-.61M115.6 71.18l-.53-.58M116.08 70.77l-.1-.1" style="fill:none;stroke:#140533;stroke-width:.06342373;stroke-linecap:round;stroke-linejoin:round;stroke-miterlimit:22.9255867;stroke-opacity:1"/><path d="M63.05 58.04s.03-.09.83-.1c.79-.02 1.26-.02 1.84 0 .58.03.88.12.88.12M63.4 58.94a6.8 6.8 0 0 1 2.32-.1" style="fill:none;stroke:#140533;stroke-width:.08314072;stroke-linecap:round;stroke-linejoin:round;stroke-miterlimit:22.9255867;stroke-opacity:1"/><path d="M108.61 54.2s.24-.23.86-.31c.42-.05 1.7-.2 2.73.05" style="fill:none;stroke:#140533;stroke-width:.08335409;stroke-linecap:round;stroke-linejoin:round;stroke-miterlimit:22.9255867;stroke-opacity:1"/><path d="M109.13 58.92c.9-.22 1.9-.16 2.32-.1" style="fill:none;stroke:#140533;stroke-width:.08314072;stroke-linecap:round;stroke-linejoin:round;stroke-miterlimit:22.9255867;stroke-opacity:1"/><path d="m75.1 123.12-.39-.42M75.37 122.76l-.66-.7M75.37 122.1l-.66-.7M75.38 121.47l-.67-.71M75.39 120.82l-.68-.71M75.4 120.2l-.69-.73M75.4 119.56l-.69-.73M75.4 118.93l-.69-.73M75.41 118.29l-.7-.74M75.42 117.66l-.71-.75M75.42 117l-.71-.76M75.43 116.37l-.72-.77M75.44 115.72l-.73-.77M75.44 115.1l-.73-.78M75.45 114.44l-.74-.79M75.46 113.8l-.75-.78M75.46 113.16l-.75-.8M75.47 112.53l-.76-.8M75.48 111.87l-.77-.8M75.48 111.24l-.77-.82M75.5 110.6l-.79-.83M75.5 109.97l-.79-.83M75.5 109.31l-.79-.84M75.51 108.68l-.8-.85M75.52 108.04l-.81-.86M75.53 107.41l-.82-.87M75.54 106.76l-.83-.88M75.55 106.13l-.84-.9M75.56 105.49l-.85-.9M75.57 104.86l-.86-.9M75.58 104.22l-.87-.93M75.6 103.6l-.82-.87M75.64 102.99l-.75-.8M75.71 102.42l-.68-.71M75.83 101.89l-.63-.67M75.99 101.42l-.6-.64M76.18 100.97l-.58-.62M76.39 100.55l-.57-.6M76.61 100.15l-.56-.6M76.84 99.76l-.53-.57M77.1 99.37l-.52-.55M100.05 123.07l-.08-.08M77.36 99.01l-.5-.53M100.79 123.18l-.83-.87m-22.3-23.64-.5-.52M100.79 122.54l-.84-.88m-21.97-23.3-.5-.52M100.79 121.9l-.85-.9M78.32 98.07l-.51-.54M100.79 121.26l-.86-.91M78.66 97.8l-.52-.56M100.79 120.6l-.87-.92M79.04 97.54l-.54-.57M100.79 119.96l-.88-.93M79.4 97.3l-.55-.59M100.79 119.3l-.9-.93m-20.07-21.3-.58-.6M100.79 118.67l-.9-.95M80.22 96.86l-.6-.62M100.79 118l-.91-.96M80.65 96.65l-.61-.64M100.79 117.36l-.92-.96m-18.8-19.93-.62-.67M100.79 116.71l-.92-.97M81.5 96.28l-.64-.68M100.79 116.08l-.93-.98m-17.9-18.98-.66-.7M100.79 115.41l-.93-.98M82.44 95.96l-.68-.71M100.79 114.77l-.93-.98M82.9 95.81l-.68-.72M100.79 114.12l-.92-.97M83.39 95.68l-.7-.74M100.79 113.49l-.91-.97m-16-16.96-.71-.76M100.79 112.82l-.91-.96M84.39 95.44l-.71-.76M100.79 112.18l-.9-.96M84.9 95.35l-.72-.78M100.79 111.53l-.9-.96M85.43 95.26l-.74-.78M100.79 110.9l-.9-.97M85.96 95.2l-.73-.78M100.79 110.23l-.9-.96M86.53 95.13l-.74-.79M100.79 109.6l-.9-.96M87.1 95.09l-.75-.8M100.79 108.94l-.9-.95M87.7 95.07l-.76-.8M100.79 108.3l-.9-.95M88.3 95.07l-.77-.81M100.79 107.64l-.9-.96M88.95 95.1l-.8-.84M100.79 107l-.9-.95M89.6 95.15l-.83-.87M100.79 106.35l-.9-.95M90.3 95.25l-.87-.92M100.79 105.71l-.9-.95m-8.86-9.39-.91-.97M100.79 105.1l-.9-.95m-8.11-8.6-.97-1.04M100.79 104.45l-.89-.93m-7.31-7.75-1.04-1.11M100.77 103.79l-.93-.98m-6.35-6.74-1.14-1.2M100.7 103.07l-1-1.06m-5.23-5.54-1.27-1.34M100.55 102.25 99.37 101m-3.7-3.92-1.49-1.58M100.3 101.35l-1.78-1.9m-1.13-1.19L95.25 96M99.85 100.22l-3.27-3.47M35.8 92.1l-.7.79M36.84 92.11l-1.74 1.9M37.9 92.11l-.88.96m-.78.85-.27.3m-.46.5-.4.45M38.93 92.11l-.7.78m-1.69 1.83-1.43 1.57M39.97 92.11l-.69.76m-1.7 1.86-2.47 2.7M41 92.12l-.69.76m-1.7 1.86-3.5 3.81M42.06 92.12l-.7.77m-1.7 1.85-4.54 4.96M43.1 92.12l-.7.76m-1.71 1.87-5.56 6.08M44.18 92.12l-.68.74m-1.73 1.9L35.13 102M45.21 92.12l-.64.7m-1.77 1.94-7.66 8.38M46.27 92.12l-.6.66m-1.82 1.99-2.47 2.7M39.06 100l-3.92 4.29M47.3 92.13l-.55.6m-1.87 2.04-2.36 2.58M38.27 102l-3.13 3.42M48.37 92.13l-.5.55m-1.92 2.1-2.32 2.53m-6.14 6.72-2.34 2.56M49.4 92.13l-.43.48m-2 2.18-2.2 2.42m-7.95 8.68-1.67 1.82M50.46 92.13l-.33.37m-2.1 2.3-1.79 1.95m-9.9 10.82-1.18 1.3M51.5 92.13l-.22.24m-2.22 2.43-.9.99m-11.87 12.96L35.16 110M52.58 92.13l-.08.09m-2.36 2.58-.78.86m-13 14.21-1.2 1.3M51.17 94.81l-.84.91m-13.91 15.22-1.25 1.36M52.22 94.82l-.8.87m-14.96 16.36-1.28 1.4M53.25 94.82l-.69.75M36.44 113.2l-1.26 1.39M36.33 114.5l-1.14 1.25M36.21 115.76l-1.02 1.12M36.16 116.98l-.97 1.05M36.13 118.14l-.93 1.02M36.12 119.34l-.92 1M36.12 120.46l-.91 1M36.14 121.6l-.34.37M122.34 92.1l-.7.79M123.38 92.11l-1.75 1.9M124.43 92.11l-.87.96m-.78.85-.28.3m-.45.5-.41.45M125.47 92.11l-.71.78m-1.68 1.83-1.44 1.57M126.5 92.11l-.68.76m-1.7 1.86-2.47 2.7M127.54 92.12l-.7.76m-1.7 1.86-3.49 3.81M128.6 92.12l-.7.77m-1.7 1.85-4.54 4.96M129.63 92.12l-.7.76m-1.7 1.87-5.57 6.08M130.71 92.12l-.68.74m-1.73 1.9-6.63 7.25M131.75 92.12l-.65.7m-1.77 1.94-7.66 8.38M132.8 92.12l-.6.66m-1.82 1.99-2.47 2.7m-2.3 2.53-3.94 4.29M133.84 92.13l-.55.6m-1.88 2.04-2.35 2.58M124.8 102l-3.12 3.42M134.91 92.13l-.5.55m-1.93 2.1-2.31 2.53m-6.15 6.72-2.34 2.56M135.94 92.13l-.44.48m-1.99 2.18-2.21 2.42m-7.95 8.68-1.66 1.82M137 92.13l-.34.37m-2.1 2.3-1.78 1.95m-9.9 10.82-1.19 1.3M138.03 92.13l-.21.24m-2.23 2.43-.9.99m-11.86 12.96L121.7 110M139.12 92.13l-.08.09m-2.37 2.58-.78.86m-13 14.21-1.19 1.3M137.7 94.81l-.83.91m-13.92 15.22-1.24 1.36M138.76 94.82l-.8.87m-14.97 16.36-1.28 1.4M139.79 94.82l-.69.75m-16.12 17.62-1.26 1.39M122.87 114.5l-1.15 1.25M122.75 115.76l-1.03 1.12M122.7 116.98l-.97 1.05M122.66 118.14l-.93 1.02M122.65 119.34l-.91 1M122.66 120.46l-.92 1M122.68 121.6l-.34.37M39.24 107.74l-.1.12M40.28 107.73 39.13 109M41.37 107.73l-2.23 2.44M42.41 107.72l-3.27 3.58M43.48 107.72l-4.34 4.73M44.52 107.71l-5.38 5.87M45.6 107.7l-1.5 1.64m-3.11 3.4-1.85 2.03M46.64 107.7l-1.02 1.12m-5.08 5.56-1.4 1.52M47.7 107.7l-.88.96m-6.38 6.98-1.3 1.4M48.75 107.69l-.91 1m-7.43 8.12-1.26 1.37M49.84 107.68l-1.06 1.16m-8.42 9.2-1.2 1.32M49.96 108.68l-.55.6m-9.12 9.97-1.13 1.24M49.96 109.83l-.34.38m-9.37 10.24-1.1 1.2M49.97 110.96l-.21.23m-9.51 10.4-1.1 1.18M49.97 112.13l-.1.1m-9.6 10.51-.37.4M49.97 113.26h0M68.58 92.17l-.1.12M69.63 92.17l-1.15 1.25M70.71 92.16l-2.23 2.45M71.76 92.16l-3.28 3.58M72.82 92.15l-4.34 4.74M73.86 92.15l-5.38 5.87M74.94 92.14l-1.5 1.64m-3.1 3.4-1.85 2.02M75.98 92.14l-1.02 1.11m-5.08 5.56-1.4 1.52M77.05 92.13l-.89.97m-6.38 6.97-1.29 1.41M78.09 92.12l-.91 1m-7.43 8.12-1.26 1.37M79.18 92.12l-1.06 1.15m-8.42 9.2-1.2 1.33M79.3 93.11l-.2.23m-9.51 10.4-1.1 1.19M69.23 105.28l-.73.8M69.08 106.58l-.58.63M125.4 107.74l-.11.12M126.44 107.73l-1.15 1.26M127.53 107.73l-2.24 2.44M128.57 107.72l-3.27 3.58M129.63 107.72l-4.33 4.73M130.67 107.71l-5.37 5.87M131.76 107.7l-1.5 1.64m-3.11 3.4-1.85 2.03M132.8 107.7l-1.02 1.12m-5.09 5.56-1.39 1.52M133.86 107.7l-.88.96m-6.38 6.98-1.3 1.4M134.9 107.69l-.9 1m-7.44 8.12-1.25 1.37M136 107.68l-1.07 1.16m-8.41 9.2-1.21 1.32M136.12 108.68l-.56.6m-9.12 9.97-1.13 1.24M136.12 109.83l-.35.38m-9.36 10.24-1.1 1.2M136.12 110.96l-.2.23m-9.52 10.4-1.08 1.18M136.13 112.13l-.1.1m-9.61 10.51-.36.4M136.13 113.26h0" style="fill:none;stroke:#140533;stroke-width:.06338795;stroke-linecap:round;stroke-linejoin:round;stroke-miterlimit:22.9255867;stroke-opacity:1"/><path d="M108.76 58.04s.02-.09.82-.1a23 23 0 0 1 1.85 0c.57.03.87.12.87.12" style="fill:none;stroke:#140533;stroke-width:.08314072;stroke-linecap:round;stroke-linejoin:round;stroke-miterlimit:22.9255867;stroke-opacity:1"/><path d="m117.5 85-.03.04M118.54 85l-1.07 1.17M119.6 85l-2.12 2.32M120.65 84.99l-1.77 1.93M120.9 85.9l-.93 1.02M120.94 86.99l-.33.36M31.42 84.99l-.43.47M32.46 84.98 31 86.58M33.5 84.97l-1.78 1.95M34.57 84.96l-1.8 1.96M35.2 85.4l-1.4 1.53M34.64 87.2l-.19.2M140.09 84.95l-.08.1M141.12 84.96l-1.1 1.21M142.16 84.97l-1.77 1.94M143.2 84.98l-1.79 1.95M144.12 85.15l-1.62 1.77M144.1 86.3l-.56.62M55.32 85 54.39 86M56.37 85l-2.03 2.21M57.4 85l-1.75 1.92M58.26 85.25l-1.53 1.68M58.27 86.38l-.07.07m-.14.15-.58.63M90.26 92.17l-.82.9M91.35 92.16 89.4 94.3M92.4 92.16l-2.04 2.22M93.45 92.15l-2.18 2.38M94.5 92.15l-2.38 2.6M95.58 92.14l-1.5 1.64M96.62 92.14l-1 1.09M97.68 92.13l-.88.97M98.72 92.12l-.9 1M99.81 92.12l-.67.74M29.35 123.1l-7.43 2.66M31.63 123.1l-7.43 2.66M33.82 123.1l-7.44 2.66M35.95 123.1l-7.44 2.66M38.13 123.1l-7.44 2.66M40.28 123.1l-7.43 2.66M42.46 123.1l-6.43 2.3M44.59 123.1l-6.22 2.23M46.77 123.1l-6.45 2.31M48.78 123.1l-6.98 2.5M50.96 123.1l-7.44 2.66M53.09 123.1l-7.44 2.66M55.27 123.1l-7.44 2.66M57.62 123.1l-7.43 2.66M59.8 123.1l-7.35 2.63M61.93 123.1l-7.16 2.56M64.11 123.1l-6.93 2.48M66.26 123.1l-6.71 2.4M68.44 123.1l-6.48 2.32M70.57 123.1l-6 2.15M72.75 123.1l-5.78 2.07M74.76 123.1l-5.8 2.08M76.94 123.1l-5.99 2.15M79.07 123.1l-6.25 2.24M81.25 123.1l-1.25.45M83.66 123.1l-1.02.37M85.84 123.1l-.63.23M92.3 123.1l-.1.04M94.49 123.1l-2.33.84M96.62 123.1l-5 1.8M98.8 123.1l-6.13 2.2M100.8 123.1l-6.61 2.37M102.98 123.1l-7.15 2.56M105.12 123.1l-7.44 2.66M107.3 123.1l-7.44 2.66M109.65 123.1l-7.26 2.6M111.83 123.1l-6.95 2.49M113.96 123.1l-6.46 2.31M116.14 123.1l-5.8 2.08M118.29 123.1l-5.6 2M120.47 123.1l-5.55 1.99M122.6 123.1l-5.57 2M124.78 123.1l-5.64 2.02M126.79 123.1l-5.75 2.06M128.97 123.1l-5.92 2.12M131.1 123.1l-6.14 2.2M133.28 123.1l-6.44 2.3M135.58 123.1l-6.9 2.47M137.76 123.1l-7.43 2.66M139.92 123.1l-7.44 2.66M142.1 123.1l-7.44 2.66M144.23 123.1l-7.44 2.66M146.4 123.1l-7.43 2.66M148.41 123.1l-7.43 2.66M148.96 123.7l-5.8 2.06M148.48 124.62l-3.19 1.14M147.56 125.73l-.09.03M87.54 118.2l4.75 4.77M86.13 118.32l4.8 4.81M84.95 118.53l4.73 4.75M83.74 118.85l4.56 4.57M82.56 119.15l4.34 4.36M81.24 119.36l4.17 4.18M79.59 119.3l4.22 4.24M77.62 118.86l4.81 4.83M75.97 118.71l5.24 5.26M75.98 120.24l4.1 4.12M75.98 121.73l3.09 3.1M75.73 123.01l2.37 2.37M74.56 123.24l2.68 2.7M73.14 123.34l3.21 3.22M71.76 123.44l3.75 3.76M70.4 123.6l4.25 4.26M69.07 123.86l4.67 4.7M67.66 123.98l5.2 5.21M66.19 123.99l5.51 5.54M64.67 124l5.67 5.68M63.18 124l5.82 5.84M61.66 124l6 6.02M60.14 123.97l6.2 6.22M58.15 123.5l6.86 6.88M56.72 123.46l7.06 7.1M55.2 123.46l7.26 7.28M53.71 123.46l7.45 7.47M52.2 123.46l6.88 6.9M50.55 123.46l6.1 6.11M49.03 123.46l5.22 5.23M47.55 123.46l4.3 4.31M46.03 123.46l3.4 3.41M44.53 123.46l2.71 2.72M43 123.45l2.4 2.4M41.52 123.45l2.46 2.48M40 123.45l2.74 2.76M38.6 123.45l3.08 3.1M37.08 123.45l3.5 3.5M35.6 123.45l3.89 3.91M34.07 123.45l4.3 4.3M28.77 119.81l.84.85m2.78 2.79 4.7 4.71M27.2 119.77l2.41 2.41m1.26 1.27 5.03 5.04M25.79 119.84l8.9 8.93M24.8 120.37l8.62 8.65M23.8 120.86l8.32 8.36M22.74 121.33l8.01 8.05M21.67 121.75l7.7 7.74M20.5 122.1l7.42 7.45M19.29 122.29l6.92 6.94M17.7 122.21l6.37 6.4M16.4 122.4l5.63 5.66M15.25 122.78l4.75 4.76M14.15 123.32l3.72 3.73M13.4 124.09l2.54 2.55M89.15 118.25l4.58 4.62M90.71 118.3l4.72 4.74M92.05 118.23l7.03 7.08M93.44 118.1l9.24 9.3M94.76 117.94l4.77 4.8m.26.27 5.6 5.64M96.08 117.74l3.45 3.47m2.03 2.04 6.38 6.43M97.49 117.53l2.04 2.06m3.78 3.81 7.17 7.23M99 117.53l.53.53m5.49 5.53 7.77 7.83M106.9 123.98l7.37 7.42M108.43 123.98l7.26 7.32M109.91 123.98l7.05 7.1M111.44 123.98l6.7 6.76M112.84 123.99l6.4 6.45M114.36 123.99l6.24 6.29M115.68 123.82l6.39 6.44M116.93 123.55l6.72 6.77M118.43 123.46l6.92 6.97M119.93 123.44l6.89 6.94M121.4 123.43l6.64 6.68M122.88 123.38l6.42 6.47M124.32 123.33l6.22 6.26M125.81 123.3l6 6.04M127.3 123.3l5.76 5.8M128.83 123.31l5.52 5.56M130.23 123.32l5.31 5.34M131.76 123.32l5.1 5.13M133.25 123.33l4.9 4.93M134.78 123.33l4.7 4.75M136.42 123.34l4.53 4.56M137.95 123.35l4.39 4.42M139.44 123.35l4.3 4.33M140.96 123.36l4.25 4.27M142.47 123.36l4.25 4.28M143.99 123.36l4.3 4.34M145.34 123.22l4.54 4.59M145.34 121.7l6.21 6.25M145.34 120.29l7.78 7.83M145.34 118.76l9.51 9.58M145.61 117.53l10.65 10.73M147.13 117.53l10.55 10.63M151.27 120.01l8.04 8.1M153.88 121.11l6.85 6.9M156 121.76l6 6.03M158 122.24l5.2 5.23M160.28 123.02l4.02 4.05" style="fill:none;stroke:#140533;stroke-width:.06338795;stroke-linecap:round;stroke-linejoin:round;stroke-miterlimit:22.9255867;stroke-opacity:1"/><path d="m106.17 90.28.88 1.18M105.2 90.28l1.34 1.79M104.2 90.28l1.34 1.79M103.28 90.28l1.34 1.79M102.29 90.28l1.34 1.79M101.31 90.28l1.35 1.79M100.32 90.28l1.34 1.79M99.22 90.28l1.34 1.79M98.22 90.28l1.34 1.79M97.25 90.28l1.34 1.79M96.25 90.28l1.35 1.79M95.27 90.28l1.34 1.79M94.28 90.28l1.34 1.79M93.3 90.28l1.34 1.79M92.3 90.28l1.35 1.79M91.4 90.28l1.33 1.79M90.4 90.28l1.34 1.79M89.42 90.28l1.34 1.79M88.43 90.28l1.34 1.79M87.35 90.28l1.34 1.79M86.36 90.28l1.34 1.79M85.39 90.28l1.34 1.79M84.39 90.28l1.34 1.79M83.4 90.28l1.35 1.79M82.41 90.28l1.34 1.79M81.44 90.28l1.34 1.79M80.44 90.28l1.34 1.79M79.53 90.28l1.34 1.79M78.53 90.28l1.34 1.79M77.56 90.28l1.34 1.79M76.56 90.28l1.34 1.79M75.51 90.28l1.34 1.79M74.51 90.28l1.34 1.79M73.53 90.28l1.34 1.79M72.54 90.28l1.34 1.79M71.56 90.28l1.34 1.79M70.57 90.28l1.34 1.79M69.65 90.28 71 92.07M68.66 90.28 70 92.07M68.3 91.1l.72.97M59.52 90.32l1.38 1.85M58.47 90.32l1.39 1.85M57.48 90.32l1.38 1.85M56.5 90.32l1.39 1.85M55.5 90.32l1.4 1.85M54.53 90.32l1.38 1.85M53.53 90.32l1.38 1.85M52.56 90.32l1.38 1.85M51.56 90.32l1.38 1.85M50.65 90.32l1.38 1.85M49.65 90.32l1.38 1.85M48.68 90.32l1.38 1.85M47.68 90.32l1.38 1.85M46.6 90.32 48 92.17M45.61 90.32 47 92.17M44.64 90.32l1.38 1.85M43.64 90.32l1.39 1.85M42.66 90.32l1.38 1.85M41.67 90.32l1.38 1.85M40.7 90.32l1.38 1.85M39.7 90.32l1.38 1.85M38.78 90.32l1.38 1.85M37.79 90.32l1.38 1.85M36.81 90.32l1.38 1.85M35.82 90.32l1.38 1.85M34.72 90.32l1.38 1.85M33.72 90.32l1.38 1.85M32.75 90.32l1.38 1.85M31.75 90.32l1.38 1.85M30.77 90.32l1.38 1.85M29.77 90.32l1.39 1.85M28.8 90.32l1.38 1.85M27.8 90.32l.51.68m.4.52.1.15m.33.44.05.06M26.89 90.32l.24.33M59.68 88.13l-.16-.18M60.53 88.12l-1.01-1.08M60.84 87.52l-1.32-1.43M60.84 86.6l-1.32-1.42M60.84 85.68l-1.32-1.42M60.84 84.78l-1.32-1.43M60.84 83.83l-1.32-1.41M60.84 82.93l-1.32-1.42M60.84 82l-1.32-1.41M60.84 81.1l-1.32-1.42M60.84 80.15l-1.32-1.42M69.12 88.13l-.65-.7m-7.63-8.2-1.32-1.4M69.67 87.8l-1.2-1.28m-7.63-8.2-1.31-1.42M69.67 86.9l-1.19-1.28m-7.64-8.21L59.53 76M69.68 86l-1.19-1.28m-7.65-8.22-1.31-1.41M69.68 85.09l-1.18-1.27m-7.67-8.24-1.3-1.4M69.68 84.17l-1.17-1.26m-7.7-8.28-1.28-1.37m-1.7-1.83-.72-.78m-.4-.43-1.54-1.64M69.68 83.26l-1.16-1.25m-7.71-8.29-1.77-1.89m-.78-.84-1.15-1.24m-.03-.03-1.52-1.63M69.68 82.31l-1.16-1.24m-7.7-8.29-4.43-4.75M69.69 81.4l-1.16-1.23m-8.77-9.43-.23-.25m-.42-.45-1.94-2.08M69.69 80.49l-1.15-1.24m-9.14-9.81-1.03-1.12m-.24-.26-.16-.16M69.69 79.58l-1.14-1.23m-8.32-8.93-1.02-1.1M69.7 78.64l-1.14-1.22m-7.46-8-1.01-1.1M69.7 77.74l-1.14-1.22m-6.61-7.1-1.02-1.1M69.7 76.81l-1.13-1.2m-5.76-6.2-1.02-1.09M69.7 75.9l-1.12-1.2m-4.93-5.28-1.02-1.1M69.7 74.96l-1.11-1.2m-4.05-4.34-1.02-1.1M69.7 74.06l-1.1-1.19m-3.22-3.45-1.02-1.1M69.7 73.13l-.82-.88m-2.64-2.83-1.02-1.1M70 72.55l-.74-.8m-2.17-2.33-1.03-1.1M70.23 71.85l-.57-.62m-1.7-1.81-1.02-1.1M70.65 71.4l-.61-.67m-1.23-1.31-1.02-1.1M71.43 71.3l-1.27-1.36m-.49-.52-1.02-1.1M71.82 70.81l-2.33-2.5M72.3 70.39l-1.92-2.07M72.43 69.62l-1.21-1.3M72.93 69.23l-.85-.91M73.34 68.76l-.67-.71M74 68.54l-.38-.42M61.9 116.76l-.38-.42M62.12 116.08l-.6-.64M62.12 115.16l-.61-.65M62.12 114.25l-.61-.65M62.12 113.3l-.62-.65M62.11 112.39l-.6-.65M67.11 116.76l-.2-.2m-4.8-5.1-.61-.65M67.53 116.3l-.61-.65m-4.8-5.1-.62-.65M67.53 115.35l-.6-.65m-4.82-5.1-.62-.65M67.53 114.44l-.6-.64m-4.82-5.1-.62-.66M67.53 113.52l-.6-.64m-4.82-5.11-.62-.66M67.54 112.62l-.61-.65m-4.83-5.11-.61-.66M67.54 111.67l-.61-.65m-4.83-5.11-.62-.66M67.54 110.77l-.6-.65M62.1 105l-.62-.66M67.55 109.84l-.62-.64m-4.83-5.13-.62-.66M67.55 108.94l-.61-.65m-4.84-5.13-.62-.66M67.55 108l-.61-.65m-4.85-5.13-.62-.66M67.55 107.1l-.61-.65m-4.85-5.14-.62-.66M67.56 106.18l-.62-.65m-4.85-5.15-.62-.66M67.56 105.27l-.62-.65m-4.85-5.14-.63-.67M67.56 104.33l-.62-.66m-4.85-5.15-.63-.66M67.56 103.42l-.61-.65m-4.87-5.16-.62-.66M67.57 102.5l-.62-.65m-4.87-5.16-.62-.67M67.57 101.6l-.62-.66m-4.87-5.16-.63-.67M67.57 100.69l-.62-.66m-4.87-5.16-.63-.67M67.57 99.79l-.62-.66m-4.87-5.17-.63-.67M67.58 98.86l-.62-.65m-4.89-5.18-.62-.66M67.58 97.96l-.62-.66m-4.89-5.18-.63-.67M67.58 97.01l-.62-.65m-4.89-5.19-.63-.67M67.58 96.11l-.62-.66m-4.9-5.19-.62-.67M67.59 95.19l-.63-.66m-4.9-5.2-.62-.66M67.59 94.28l-.62-.66m-4.9-5.2-.64-.66M67.6 93.35l-.63-.67m-4.9-5.2-.64-.67M67.6 92.44l-.63-.66m-4.9-5.2-.64-.68M67.6 91.52l-.63-.66m-4.91-5.21-.64-.67M67.6 90.62l-.63-.67m-4.91-5.2-.64-.68M67.6 89.67l-.62-.67m-4.92-5.21-.64-.68M67.6 88.77l-.62-.67m-4.93-5.22-.63-.67M67.6 87.84l-.62-.66m-4.93-5.23-.64-.67M67.61 86.94l-.63-.67m-4.93-5.22-.64-.68M67.61 86l-.63-.67m-4.93-5.23-.64-.68M67.62 85.1l-.64-.68m-4.93-5.23-.64-.68M67.62 84.17l-.63-.67m-4.95-5.24-.64-.68M67.62 83.27l-.63-.68m-4.95-5.24-.64-.68M67.62 82.32l-.63-.67m-4.95-5.25-.64-.68M67.63 81.42l-.64-.68m-4.95-5.25-.9-.95M67.63 80.5l-.64-.68m-5.05-5.36-.78-.82M67.63 79.59l-.63-.68m-4.85-5.13-1.27-1.35M67.64 78.65l-.64-.67m-4.86-5.16-2.16-2.29M67.64 77.75l-.64-.68m-6.08-6.44-.05-.06M67.64 76.83l-.64-.68M67.64 75.92l-.64-.68M67.76 75.1l-.43-.46m-.17-.17-.1-.12M68.14 74.6l-.05-.06m-.28-.3-.73-.77M67.9 73.42l-.8-.84M68.06 72.68l-.64-.68M68.26 72l-.46-.49M68.72 71.58l-.58-.6M69.2 71.17l-.54-.57M69.68 70.77l-.1-.1" style="fill:none;stroke:#140533;stroke-width:.06337815;stroke-linecap:round;stroke-linejoin:round;stroke-miterlimit:22.9255867;stroke-opacity:1"/><path d="m58.83 123.6-.28-.35M59.05 122.97l-.5-.63M60.33 123.67l-.64-.81m-.64-.8-.49-.62M60.33 122.77l-.63-.8m-.66-.83-.47-.6M60.33 121.86l-.61-.78m-.69-.86-.46-.59M60.33 120.93l-.6-.75m-.7-.9-.18-.22M60.32 120.02l-.57-.73M60.33 118.17l-.04-.04" style="fill:none;stroke:#140533;stroke-width:.06349001;stroke-linecap:round;stroke-linejoin:round;stroke-miterlimit:22.9255867;stroke-opacity:1"/><path d="m70.64 119.86-.53-.58" style="fill:none;stroke:#140533;stroke-width:.06346567;stroke-linecap:round;stroke-linejoin:round;stroke-miterlimit:22.9255867;stroke-opacity:1"/><path d="m70.64 120.77-.54-.59M70.09 123.85l-.02-.02M70.66 123.57l-.58-.64M70.65 122.61l-.57-.62M70.65 121.7l-.56-.6" style="fill:none;stroke:#140533;stroke-width:.06337815;stroke-linecap:round;stroke-linejoin:round;stroke-miterlimit:22.9255867;stroke-opacity:1"/><path d="m69.12 119.92-.53-.57" style="fill:none;stroke:#140533;stroke-width:.06346567;stroke-linecap:round;stroke-linejoin:round;stroke-miterlimit:22.9255867;stroke-opacity:1"/><path d="m69.13 120.83-.55-.59M68.57 123.91l-.02-.01M69.15 123.63l-.59-.63M69.14 122.68l-.57-.62M69.13 121.76l-.55-.6M145.09 90.32l.9 1.21zM144.05 90.32l1.38 1.85zM143.05 90.32l1.38 1.85zM142.08 90.32l1.38 1.85zM141.08 90.32l1.39 1.85zM140.1 90.32l1.38 1.85zM139.1 90.32l1.39 1.85zM138.13 90.32l1.38 1.85zM137.14 90.32l1.38 1.85zM136.22 90.32l1.38 1.85zM135.22 90.32l1.39 1.85zM134.25 90.32l1.38 1.85zM133.26 90.32l1.38 1.85zM132.18 90.32l1.38 1.85zM131.19 90.32l1.38 1.85zM130.21 90.32l1.39 1.85zM129.22 90.32l1.38 1.85zM128.24 90.32l1.38 1.85zM127.24 90.32l1.38 1.85zM126.27 90.32l1.38 1.85zM125.27 90.32l1.38 1.85zM124.36 90.32l1.38 1.85zM123.36 90.32l1.38 1.85zM122.39 90.32l1.38 1.85zM121.39 90.32l1.38 1.85zM120.3 90.32l1.37 1.85zM119.3 90.32l1.38 1.85zM118.32 90.32l1.38 1.85zM117.33 90.32l1.38 1.85zM116.34 90.32l1.39 1.85zM115.35 90.32l1.38 1.85zM114.79 90.88l.97 1.29zm0 0" style="fill:none;stroke:#140533;stroke-width:.06337815;stroke-linecap:round;stroke-linejoin:round;stroke-miterlimit:22.9255867;stroke-opacity:1"/><path d="m75.04 123.16-.01-19.8c0-.5.4-3.58 3.23-5.88 2.82-2.3 6.93-2.82 8.23-2.88 5.21-.26 8.15.83 11.72 3.88" style="fill:none;stroke:#140533;stroke-width:.08318581;stroke-linecap:round;stroke-linejoin:round;stroke-miterlimit:22.9255867;stroke-opacity:1"/><path d="m97.4 98.26 1.12 1.2" style="fill:none;stroke:#140533;stroke-width:.06337815;stroke-linecap:round;stroke-linejoin:round;stroke-miterlimit:22.9255867;stroke-opacity:1"/><path d="M156.97 121.91s1.36-.51 1.72-.9c.37-.4.79-.97.74-1.63-.05-.66-.56-1.17-.54-1.36.03-.2-.05-.24.09-.4l.22-.22.6-.04-.53-.38s-.03-.15-.06-.18c-.09-.09-.26-.12-.37-.12-.07 0-.25.08-.5.05-.38-.05-.45-.22-.45-.22v.25l-.31.12s.27.04.35.13c.08.08 0 .24.01.56.02.32.1.49.06.73-.03.25.02.37-.14.46l-.7.33c-.37.17-1.2.7-1.34.81-.14.12-.7.14-.85-.01-.16-.16-.93-.96-1.9-1.72-.97-.75-1.75-1.11-2.4-1.47a2.9 2.9 0 0 0-1.16-.38s.9.74 1.52 1.19c.62.45 1.66 1.4 2.18 1.85.53.45.69.52.93 1.02.24.5.95.97.95.97l.64.55.1-.06s.01.1.07.3l.05.14.32-.02a.28.28 0 0 1 .03-.06.72.72 0 0 1 .33-.16zm0 0" style="fill:none;stroke:#140533;stroke-width:.1917638;stroke-linecap:round;stroke-linejoin:round;stroke-miterlimit:22.9255867;stroke-opacity:1"/><path d="M158.54 116.98c.03 0 .25-.06.35 0 .1.04.1.15.08.18-.02.03-.25.09-.25.03 0-.05.02-.16.09-.16.06 0 .1.1.1.1M156.76 122s.67.12.74.22c.07.1.2.93-.35.4" style="fill:none;stroke:#140533;stroke-width:.1917638;stroke-linecap:round;stroke-linejoin:round;stroke-miterlimit:22.9255867;stroke-opacity:1"/><path d="m157.21 122.43-.02-.1c-.02-.12.3-.1.3-.1s.17.07.22.22c.04.16.04.19.03.22-.02.02-.2 0-.31-.1M156.1 122.27s.03.33.13.68c.05.15.12.3.21.44.12.19.27.34.4.4.23.1.27.13.3.15" style="fill:none;stroke:#140533;stroke-width:.1917638;stroke-linecap:round;stroke-linejoin:round;stroke-miterlimit:22.9255867;stroke-opacity:1"/><path d="m155.99 123.04.38.23c.22.13.26.16.5.22s.3.09.3.09" style="fill:none;stroke:#140533;stroke-width:.1917638;stroke-linecap:round;stroke-linejoin:round;stroke-miterlimit:22.9255867;stroke-opacity:1"/><path d="M156.37 123.27s.05.15-.06.28c-.1.14-.13.24-.13.24M155.68 119.96l-.46 1.07s.18.06.5-.16c.32-.23-.05.23-.05.23s-.15.17.29-.17c.43-.35.58-.38.58-.38l-.29.48s.56-.33.77-.6c.22-.27.42-.71.56-.9M167.87 121.91s-1.35-.51-1.72-.9c-.37-.4-.78-.97-.73-1.63.04-.66.55-1.17.53-1.36-.02-.2.06-.24-.08-.4l-.23-.22-.59-.04.52-.38s.03-.15.06-.18c.1-.09.26-.12.38-.12.06 0 .25.08.5.05.37-.05.45-.22.45-.22l-.01.25.32.12s-.27.04-.36.13c-.08.08 0 .24-.01.56-.01.32-.1.49-.06.73.03.25-.01.37.14.46l.71.33c.37.17 1.19.7 1.33.81.14.12.11.02 1.14.17 1.04.14 1.18.17 1.92.46.74.29 1.36.9 2.24 1.3.89.4 1.2.96 1.2.96s-2.26-.73-2.87-.85c-.37-.08-2-1.18-2.08-1.01-.23.5-.81.42-.81.42l-.64.55-.1-.06-.08.3-.05.14-.31-.02a.24.24 0 0 0-.04-.06.71.71 0 0 0-.33-.16zm0 0" style="fill:none;stroke:#140533;stroke-width:.1917638;stroke-linecap:round;stroke-linejoin:round;stroke-miterlimit:22.9255867;stroke-opacity:1"/><path d="M166.3 116.98c-.03 0-.25-.06-.34 0-.1.04-.1.15-.08.18.02.03.24.09.25.03 0-.05-.03-.16-.1-.16-.06 0-.09.1-.09.1M168.08 122s-.66.12-.73.22c-.08.1-.2.93.35.4" style="fill:none;stroke:#140533;stroke-width:.1917638;stroke-linecap:round;stroke-linejoin:round;stroke-miterlimit:22.9255867;stroke-opacity:1"/><path d="m167.63 122.43.02-.1c.02-.12-.3-.1-.3-.1s-.17.07-.21.22c-.04.16-.04.19-.03.22.01.02.2 0 .3-.1M168.74 122.27s-.02.33-.13.68c-.05.15-.12.3-.2.44-.13.19-.27.34-.4.4-.23.1-.27.13-.31.15" style="fill:none;stroke:#140533;stroke-width:.1917638;stroke-linecap:round;stroke-linejoin:round;stroke-miterlimit:22.9255867;stroke-opacity:1"/><path d="m168.86 123.04-.39.23c-.22.13-.26.16-.5.22l-.3.09" style="fill:none;stroke:#140533;stroke-width:.1917638;stroke-linecap:round;stroke-linejoin:round;stroke-miterlimit:22.9255867;stroke-opacity:1"/><path d="M168.47 123.27s-.05.15.06.28c.1.14.13.24.13.24M169.17 119.96l.45 1.07s-.18.06-.5-.16c-.32-.23.05.23.05.23s.16.17-.28-.17c-.44-.35-.58-.38-.58-.38l.28.48s-.56-.33-.77-.6c-.21-.27-.41-.71-.56-.9" style="fill:none;stroke:#140533;stroke-width:.1917638;stroke-linecap:round;stroke-linejoin:round;stroke-miterlimit:22.9255867;stroke-opacity:1"/></svg>