<svg xmlns="http://www.w3.org/2000/svg" width="210mm" height="297mm" viewBox="0 0 210 297"><path d="M102.68 91.18h-.1l-.23.52h1.8v-.55h-.24M102.35 91.7h1.8v.49h-1.8zm0 0" style="fill:none;stroke:#140533;stroke-width:.08959953;stroke-linecap:round;stroke-linejoin:round;stroke-miterlimit:22.9255867;stroke-opacity:1"/><path d="M102.66 88.26h1.25v3.17h-1.25zm0 0" style="fill:none;stroke:#140533;stroke-width:.08959953;stroke-linecap:round;stroke-linejoin:round;stroke-miterlimit:22.9255867;stroke-opacity:1"/><path d="M102.79 87.4s-.17-.04-.27.07c-.02.02-.2.63-.09.72.11.09.23.07.23.07h1.25s.17-.08.19-.15c.02-.06.06-.22.07-.4 0-.2-.02-.25-.1-.3-.08-.04-.26-.04-.26-.04l1.65-21.72s.19-.05.2-.15c0-.12 0-.37-.16-.37l-.79.02c-.05 0-.12.09-.14.17-.03.07-.03.18.01.23.04.05.13.1.13.1zM104.7 65.65h.76" style="fill:none;stroke:#140533;stroke-width:.08959953;stroke-linecap:round;stroke-linejoin:round;stroke-miterlimit:22.9255867;stroke-opacity:1"/><path d="m105.43 66 .01 2.27.15.01-.02.54h-.1l-1.4 18.6M104.05 88.17l-.14 2.49M103.7 77.1H61.75l-2.04 2.03-31.98.02.26-2h.32v-.38h.29l.8-6.2s-.1-.04-.1-.1v-.06s-.13 0-.14-.06c-.01-.06.01-.13.08-.13h.08l-.13-2.83s-.08-.02-.11-.09c-.03-.07-.1 0-.15-.07-.04-.07-.03-.17.02-.17" style="fill:none;stroke:#140533;stroke-width:.08959953;stroke-linecap:round;stroke-linejoin:round;stroke-miterlimit:22.9255867;stroke-opacity:1"/><path d="m28.31 77.14 31.2.04 2.05-1.92h42.3" style="fill:none;stroke:#140533;stroke-width:.08959953;stroke-linecap:round;stroke-linejoin:round;stroke-miterlimit:22.9255867;stroke-opacity:1"/><path d="m28.6 76.76 30.56-.05 2.08-1.87 42.66-.05" style="fill:none;stroke:#140533;stroke-width:.08959953;stroke-linecap:round;stroke-linejoin:round;stroke-miterlimit:22.9255867;stroke-opacity:1"/><path d="m59.2 76.75.12.11 2.06-1.85-.14-.17M59.7 79.13l-.18-1.95M61.56 75.26l.19 1.84M60.54 68.79s.04 1.08.13 2.06c.08.98.57 3.99.57 3.99M58.43 70.58a65 65 0 0 0 .73 6.13" style="fill:none;stroke:#140533;stroke-width:.08959953;stroke-linecap:round;stroke-linejoin:round;stroke-miterlimit:22.9255867;stroke-opacity:1"/><path d="M29.4 70.57h29.03l2.11-1.74 43.88.05" style="fill:none;stroke:#140533;stroke-width:.08959953;stroke-linecap:round;stroke-linejoin:round;stroke-miterlimit:22.9255867;stroke-opacity:1"/><path d="m29.28 70.41 29.15-.01h.05l2.06-1.61 43.9-.02.01-.25-43.96.04-2.12 1.6-29.07.06c-.17 0-.21.18-.02.2zM29.08 67.3l29.27.05-.08.12-29.08-.02zM58.35 67.35l2.16-1.67 44.1-.07.1.07-.02.1-44.24.05.05-.15M60.5 68.56l-.05-2.73M58.37 70.16l-.1-2.7M118.58 91.18h.1l.23.52h-1.81v-.55h.24M118.9 91.7h-1.8v.49h1.8zm0 0" style="fill:none;stroke:#140533;stroke-width:.08959953;stroke-linecap:round;stroke-linejoin:round;stroke-miterlimit:22.9255867;stroke-opacity:1"/><path d="M118.6 88.26h-1.25v3.17h1.25zm0 0" style="fill:none;stroke:#140533;stroke-width:.08959953;stroke-linecap:round;stroke-linejoin:round;stroke-miterlimit:22.9255867;stroke-opacity:1"/><path d="M118.47 87.4s.16-.04.26.07c.02.02.2.63.09.72-.1.09-.22.07-.22.07h-1.25s-.17-.08-.2-.15a1.57 1.57 0 0 1-.07-.4c0-.2.02-.25.1-.3.08-.04.26-.04.26-.04l-1.65-21.72s-.19-.05-.2-.15c0-.12 0-.37.17-.37l.78.02c.05 0 .13.09.15.17.02.07.02.18-.02.23-.04.05-.12.1-.12.1zM116.55 65.65h-.76" style="fill:none;stroke:#140533;stroke-width:.08959953;stroke-linecap:round;stroke-linejoin:round;stroke-miterlimit:22.9255867;stroke-opacity:1"/><path d="m115.82 66-.01 2.27-.14.01.01.54h.1l1.4 18.6M117.2 88.17l.15 2.49M117.56 77.1h41.94l2.04 2.03 31.98.02-.25-2h-.33v-.38h-.28l-.8-6.2s.08-.04.1-.1v-.06s.12 0 .13-.06c.01-.06-.01-.13-.07-.13h-.08l.12-2.83s.08-.02.12-.09c.03-.07.1 0 .14-.07.04-.07.04-.17-.01-.17s-.3-.14-.3-.14" style="fill:none;stroke:#140533;stroke-width:.08959953;stroke-linecap:round;stroke-linejoin:round;stroke-miterlimit:22.9255867;stroke-opacity:1"/><path d="m192.94 77.14-31.2.04-2.05-1.92h-42.3" style="fill:none;stroke:#140533;stroke-width:.08959953;stroke-linecap:round;stroke-linejoin:round;stroke-miterlimit:22.9255867;stroke-opacity:1"/><path d="m192.66 76.76-30.57-.05-2.08-1.87-42.66-.05" style="fill:none;stroke:#140533;stroke-width:.08959953;stroke-linecap:round;stroke-linejoin:round;stroke-miterlimit:22.9255867;stroke-opacity:1"/><path d="m162.06 76.75-.13.11-2.05-1.85.13-.17M161.54 79.13l.2-1.95M159.7 75.26l-.2 1.84M160.72 68.79s-.05 1.08-.13 2.06c-.09.98-.58 3.99-.58 3.99M162.82 70.58s-.2 2.57-.37 3.6c-.17 1.05-.36 2.53-.36 2.53" style="fill:none;stroke:#140533;stroke-width:.08959953;stroke-linecap:round;stroke-linejoin:round;stroke-miterlimit:22.9255867;stroke-opacity:1"/><path d="M191.85 70.57h-29.03l-2.1-1.74-43.89.05" style="fill:none;stroke:#140533;stroke-width:.08959953;stroke-linecap:round;stroke-linejoin:round;stroke-miterlimit:22.9255867;stroke-opacity:1"/><path d="m191.98 70.41-29.16-.01h-.04l-2.06-1.61-43.9-.02-.02-.25 43.96.04 2.12 1.6 29.08.06c.16 0 .2.18.02.2zM192.18 67.3l-29.28.05.08.12 29.08-.02zM162.9 67.35l-2.15-1.67-44.1-.07-.1.07v.1l44.25.05-.05-.15M160.76 68.56l.04-2.73M162.88 70.16l.1-2.7" style="fill:none;stroke:#140533;stroke-width:.08959953;stroke-linecap:round;stroke-linejoin:round;stroke-miterlimit:22.9255867;stroke-opacity:1"/><path d="m67.39 51.4-4.72-.01 4.31-1.9h15.6l-.6.45 15.13.02" style="fill:none;stroke:#140533;stroke-width:.03413315;stroke-linecap:round;stroke-linejoin:round;stroke-miterlimit:22.9255867;stroke-opacity:1"/><path d="m28.91 67 10.95-4.95 6.95-.02 20.57-10.66.02.04L46.83 62.1l-6.95.02-10.94 4.95zm0 0" style="fill:#140533;fill-opacity:1;fill-rule:nonzero;stroke:none;stroke-width:.35277775"/><path d="m30.35 66.9 9.87-4.66 7.07-.03 20.65-10.87.03.03L47.3 62.28l-7.07.03-9.85 4.65zm0 0" style="fill:#140533;fill-opacity:1;fill-rule:nonzero;stroke:none;stroke-width:.35277775"/><path d="M67.95 51.35c.02-.01.02-.04-.03-.05H63.4l3.65-1.69h14.91l-.57.39.01.06 15.7.03" style="fill:none;stroke:#140533;stroke-width:.03413315;stroke-linecap:round;stroke-linejoin:round;stroke-miterlimit:22.9255867;stroke-opacity:1"/><path d="m30.36 66.93 27.05-.11 1.94-1.4s.11-.13.44-.16c.33-.04 44.83-.05 44.83-.05" style="fill:none;stroke:#140533;stroke-width:.08959953;stroke-linecap:round;stroke-linejoin:round;stroke-miterlimit:22.9255867;stroke-opacity:1"/><path d="m36.38 66.87 4.02-2.1 6.9.02 20.6-11.62.02.03L47.3 64.85h-6.89l-3.95 2.06zm0 0" style="fill:#140533;fill-opacity:1;fill-rule:nonzero;stroke:none;stroke-width:.35277775"/><path d="m67.9 51.38.01 1.8c.1.04.11.1.01.18" style="fill:none;stroke:#140533;stroke-width:.03413315;stroke-linecap:round;stroke-linejoin:round;stroke-miterlimit:22.9255867;stroke-opacity:1"/><path d="m36.93 66.88 3.5-1.81 6.87-.03 20.61-11.7.02.04L47.31 65.1l-6.87.02-3.49 1.8zm0 0" style="fill:#140533;fill-opacity:1;fill-rule:nonzero;stroke:none;stroke-width:.35277775"/><path d="M67.06 51.29V49.6" style="fill:none;stroke:#140533;stroke-width:.0340909;stroke-linecap:round;stroke-linejoin:round;stroke-miterlimit:22.9255867;stroke-opacity:1"/><path d="m81.5 51.4-13.53-.03" style="fill:none;stroke:#140533;stroke-width:.03413315;stroke-linecap:round;stroke-linejoin:round;stroke-miterlimit:22.9255867;stroke-opacity:1"/><path d="m81.5 51.27-14.43-.03" style="fill:none;stroke:#140533;stroke-width:.03428418;stroke-linecap:round;stroke-linejoin:round;stroke-miterlimit:22.9255867;stroke-opacity:1"/><path d="m81.5 50.06.03 1.69h11.21" style="fill:none;stroke:#140533;stroke-width:.03413315;stroke-linecap:round;stroke-linejoin:round;stroke-miterlimit:22.9255867;stroke-opacity:1"/><path d="M81.53 51.75s-.1.03-.1.08c0 .04.12.04.16.05h11.17" style="fill:none;stroke:#140533;stroke-width:.03433003;stroke-linecap:round;stroke-linejoin:round;stroke-miterlimit:22.9255867;stroke-opacity:1"/><path d="m154.07 51.4 4.69-.01-4.28-1.9-15.5-.01.59.45-15.23.03" style="fill:none;stroke:#140533;stroke-width:.03406855;stroke-linecap:round;stroke-linejoin:round;stroke-miterlimit:22.9255867;stroke-opacity:1"/><path d="m192.32 67-10.88-4.95-6.91-.02-20.45-10.66-.02.04 20.45 10.69 6.91.02 10.87 4.95zm0 0" style="fill:#140533;fill-opacity:1;fill-rule:nonzero;stroke:none;stroke-width:.35277775"/><path d="m190.9 66.9-9.82-4.66-7.02-.03-20.53-10.87-.03.03 20.54 10.91 7.03.03 9.8 4.65zm0 0" style="fill:#140533;fill-opacity:1;fill-rule:nonzero;stroke:none;stroke-width:.35277775"/><path d="M153.52 51.35c-.03-.01-.02-.04.03-.05h4.48l-3.63-1.69-14.83-.01.57.4v.06l-15.8.03" style="fill:none;stroke:#140533;stroke-width:.03406855;stroke-linecap:round;stroke-linejoin:round;stroke-miterlimit:22.9255867;stroke-opacity:1"/><path d="M190.88 66.93 164 66.82l-1.92-1.4s-.12-.13-.44-.16c-.33-.04-45-.05-45-.05" style="fill:none;stroke:#140533;stroke-width:.08948873;stroke-linecap:round;stroke-linejoin:round;stroke-miterlimit:22.9255867;stroke-opacity:1"/><path d="m184.9 66.87-4-2.1-6.86.02-20.47-11.62-.03.03 20.5 11.65h6.85l3.93 2.06zm0 0" style="fill:#140533;fill-opacity:1;fill-rule:nonzero;stroke:none;stroke-width:.35277775"/><path d="M153.56 51.38v1.8c-.1.04-.12.1-.02.18" style="fill:none;stroke:#140533;stroke-width:.03406855;stroke-linecap:round;stroke-linejoin:round;stroke-miterlimit:22.9255867;stroke-opacity:1"/><path d="m184.35 66.88-3.47-1.81-6.84-.03-20.49-11.7-.02.04 20.5 11.72 6.83.02 3.47 1.8zm0 0" style="fill:#140533;fill-opacity:1;fill-rule:nonzero;stroke:none;stroke-width:.35277775"/><path d="M154.4 51.29V49.6" style="fill:none;stroke:#140533;stroke-width:.03431093;stroke-linecap:round;stroke-linejoin:round;stroke-miterlimit:22.9255867;stroke-opacity:1"/><path d="m140.05 51.4 13.45-.03" style="fill:none;stroke:#140533;stroke-width:.03406855;stroke-linecap:round;stroke-linejoin:round;stroke-miterlimit:22.9255867;stroke-opacity:1"/><path d="m140.05 51.27 14.34-.03" style="fill:none;stroke:#140533;stroke-width:.03406896;stroke-linecap:round;stroke-linejoin:round;stroke-miterlimit:22.9255867;stroke-opacity:1"/><path d="m140.05 50.06-.03 1.69h-11.3" style="fill:none;stroke:#140533;stroke-width:.03406855;stroke-linecap:round;stroke-linejoin:round;stroke-miterlimit:22.9255867;stroke-opacity:1"/><path d="M140.02 51.75s.1.03.1.08c0 .04-.12.04-.17.05h-11.24" style="fill:none;stroke:#140533;stroke-width:.03410072;stroke-linecap:round;stroke-linejoin:round;stroke-miterlimit:22.9255867;stroke-opacity:1"/><path d="m163.82 67.46-.89.89M164.79 67.46l-1.9 1.89M165.72 67.46l-2.71 2.7m-.24.24h0M166.66 67.46l-2.71 2.7m-.24.24-.97.97M167.59 67.45l-2.72 2.72m-.23.23-2 1.98M168.51 67.45l-2.72 2.72m-.23.23-3.02 3.01M169.44 67.45l-2.73 2.72m-.23.23-4.08 4.08M170.38 67.45l-2.73 2.72m-.22.23-5.19 5.17M171.31 67.44l-2.73 2.73m-.23.23-6.28 6.27M172.28 67.44l-2.74 2.73m-.22.23-7.68 7.67M173.2 67.44l-2.73 2.74m-.23.22-8.7 8.69M174.15 67.44l-2.74 2.74m-.23.22-8.74 8.73M175.08 67.43l-2.75 2.75m-.22.22-8.75 8.73M176.04 67.43l-2.75 2.75m-.22.22-8.75 8.73M176.96 67.43l-2.75 2.75m-.22.22-8.75 8.73M177.91 67.43l-2.76 2.75m-.22.22-8.75 8.73M178.84 67.42l-2.77 2.76m-.21.22-8.75 8.73M179.8 67.42l-2.76 2.77m-.22.2-8.75 8.74M180.73 67.42l-2.77 2.77m-.21.2L169 79.15M181.68 67.42l-2.78 2.77m-.2.2-8.76 8.75M182.6 67.41l-2.78 2.78m-.2.2-8.76 8.75M183.57 67.41l-2.78 2.78m-.2.2-8.76 8.75M184.5 67.4l-2.8 2.8m-.2.2-8.75 8.74M185.44 67.4l-2.8 2.8m-.2.2-8.75 8.74M186.37 67.4l-2.8 2.8m-.2.2-8.75 8.74M187.34 67.4l-2.8 2.8m-.2.2-8.76 8.74M188.27 67.4l-2.81 2.8m-.2.2-8.75 8.74M189.21 67.4l-2.8 2.8m-.2.2-8.76 8.74M190.14 67.4l-2.82 2.8m-.2.2-8.75 8.74M191.1 67.4l-2.82 2.8m-.2.2-8.75 8.74M192.02 67.39l-2.82 2.82m-.19.19-8.76 8.74M192 68.35l-1.86 1.86m-.19.19-8.76 8.74M191.96 69.31l-.9.9m-.18.19-8.76 8.74M191.84 70.4l-8.76 8.75M191.93 71.24l-7.92 7.9M192.03 72.07l-7.08 7.08M192.14 72.89l-6.27 6.26M192.25 73.7l-5.45 5.45M192.35 74.52l-4.63 4.63M192.46 75.36l-3.8 3.79M192.57 76.17l-2.98 2.98M192.82 76.89l-2.27 2.26M193.28 77.35l-1.8 1.8M193.39 78.18l-.97.97M193.5 79l-.16.15M30 67.4l-.77.77M30.94 67.4l-1.67 1.67M31.86 67.4l-2.55 2.55M32.78 67.4l-2.81 2.81m-.19.19-.41.4M33.7 67.4l-2.8 2.8m-.2.2-1.47 1.47M34.65 67.4l-2.81 2.8m-.2.2-2.55 2.55M35.57 67.4l-2.8 2.8m-.2.2L28.95 74M36.53 67.4l-2.8 2.8m-.19.2-4.73 4.72M37.45 67.41l-2.8 2.8m-.19.19-5.79 5.78M38.4 67.41l-2.8 2.79m-.2.2-7.51 7.5M39.32 67.42l-2.8 2.78m-.19.2-8.58 8.56M40.27 67.42 37.5 70.2m-.2.2-8.77 8.75M41.2 67.42 38.4 70.2m-.2.2-8.77 8.75M42.13 67.42l-2.77 2.77m-.2.2-8.77 8.76M43.06 67.43l-2.78 2.76m-.2.2-8.77 8.76M44.02 67.43l-2.77 2.76m-.2.2-8.77 8.76M44.94 67.43l-2.76 2.76m-.21.2-8.77 8.76M45.88 67.43l-2.76 2.76m-.2.2-8.77 8.76M46.8 67.43l-2.75 2.76m-.21.2-8.77 8.76M47.77 67.44 45 70.19m-.2.2-8.77 8.76M48.69 67.44l-2.75 2.74m-.21.22-8.77 8.75M49.63 67.44l-2.75 2.74m-.21.22-8.76 8.75M50.55 67.44l-2.74 2.74m-.22.22-8.76 8.74M51.51 67.45l-2.73 2.73m-.22.22-8.76 8.74M52.44 67.45l-2.74 2.73m-.22.22-8.76 8.74M53.38 67.45l-2.73 2.73m-.23.22-8.75 8.74M54.3 67.45l-2.73 2.72m-.22.23-8.76 8.74M55.25 67.46l-2.72 2.71m-.22.23-8.76 8.74M56.18 67.46l-2.72 2.71m-.23.23-8.75 8.74M57.12 67.46l-2.72 2.7m-.23.24-8.75 8.74M58.04 67.46l-2.7 2.7m-.24.24-8.76 8.74M58.3 68.17l-2 2m-.23.23-8.76 8.74M58.33 69.06l-1.1 1.1m-.24.24-8.75 8.74M58.37 69.97l-.2.2m-.24.23-8.75 8.74M58.45 70.8l-8.35 8.34M58.53 71.65l-7.5 7.49M58.6 72.5l-6.64 6.64M58.7 73.35l-5.8 5.78M58.8 74.17l-4.98 4.96M58.92 75.02l-4.13 4.11M59.03 75.82l-3.31 3.31M59.15 76.64l-2.5 2.5M59.52 77.2l-1.94 1.93M59.6 78.07l-1.06 1.06M59.69 78.91l-.22.22M61.21 65.83l-.73.73M62.14 65.83l-1.65 1.65M63.1 65.83l-2.61 2.61M64.03 65.83l-2.73 2.73m-.3.3-.44.44M64.98 65.83l-2.74 2.73m-.3.3-1.33 1.32M65.9 65.83l-2.73 2.73m-.3.3-2.18 2.17M66.86 65.83l-2.73 2.73m-.3.3-3.03 3.02M67.79 65.83l-2.74 2.73m-.3.3-3.83 3.82M68.73 65.82 66 68.56m-.3.3-4.65 4.64M69.66 65.82l-2.74 2.74m-.3.3-5.46 5.45M70.62 65.82l-2.73 2.74m-.31.3-6.19 6.18M71.55 65.82l-2.74 2.73m-.3.31-6.9 6.89M72.5 65.82l-2.75 2.73m-.3.31L61.7 76.6M73.42 65.82l-2.74 2.73m-.31.31L62.1 77.1M74.38 65.82l-2.73 2.73m-.32.31-8.25 8.24M75.3 65.82l-2.73 2.73m-.31.32L64 77.1M76.25 65.82l-2.74 2.73m-.31.32-8.25 8.23M77.18 65.81l-2.74 2.74m-.32.32-8.25 8.23M78.15 65.81l-2.74 2.74m-.32.32-8.25 8.23M79.07 65.81l-2.74 2.74m-.32.32-8.25 8.23M80.02 65.81l-2.74 2.74m-.33.32L68.7 77.1M80.94 65.81l-2.74 2.74m-.32.32-8.25 8.23M81.9 65.8l-2.74 2.74m-.32.33-8.25 8.23M82.83 65.8l-2.75 2.74m-.32.33L71.5 77.1M83.77 65.8l-2.74 2.74m-.33.33-8.25 8.23M84.7 65.8l-2.75 2.74m-.33.33-8.24 8.23M85.66 65.8l-2.74 2.74m-.33.33-8.25 8.23M86.59 65.8l-2.74 2.74m-.33.33-8.25 8.23M87.53 65.8l-2.74 2.74m-.33.33L76.2 77.1M88.46 65.8l-2.75 2.74m-.33.33-8.25 8.23M89.38 65.8l-2.74 2.74m-.33.33-8.25 8.23M90.3 65.8l-2.73 2.74m-.34.33-8.25 8.23M91.25 65.8l-2.74 2.74m-.34.33-8.24 8.23M92.18 65.8l-2.74 2.73m-.34.34-8.25 8.23M93.15 65.8l-2.75 2.73m-.34.34-8.24 8.23M94.07 65.8l-2.74 2.73m-.34.34-8.25 8.23M95.02 65.8l-2.75 2.73m-.34.34-8.24 8.23M95.94 65.8l-2.74 2.73m-.35.34-8.24 8.23M96.9 65.8l-2.74 2.73m-.35.34-8.24 8.23M97.83 65.79l-2.75 2.74m-.35.34L86.5 77.1M98.77 65.79l-2.75 2.74m-.34.34-8.25 8.23M99.7 65.79l-2.75 2.74m-.35.35-8.24 8.22M100.66 65.79l-2.74 2.74m-.35.35-8.25 8.22M101.59 65.79l-2.75 2.74m-.35.35-8.24 8.22M102.53 65.78l-2.74 2.74m-.36.36L91.2 77.1M103.46 65.78l-2.75 2.74m-.35.36-8.24 8.22M104.42 65.78l-2.74 2.74m-.36.36-8.24 8.22M104.63 66.5l-2.03 2.02m-.36.36-8.23 8.22M104.54 67.53l-1 1m-.35.35-8.24 8.22M104.11 68.88l-8.24 8.22M104.36 69.6l-7.52 7.5M104.27 70.6l-6.5 6.5M104.18 71.64l-5.48 5.47M104.09 72.65l-4.46 4.46M104 73.7l-3.41 3.4M103.9 74.71l-2.39 2.4M103.82 75.74l-1.37 1.37M103.73 76.76l-.35.35M117.35 65.78l-.72.72M118.29 65.78l-1.58 1.58M119.21 65.79l-2.43 2.42M120.13 65.79l-2.74 2.73m-.35.36-.18.18M121.06 65.79l-2.74 2.73m-.36.36-1.03 1.03M122 65.79l-2.74 2.73m-.36.36-1.9 1.9M122.92 65.79l-2.74 2.73m-.35.36-2.75 2.74M123.89 65.8l-2.74 2.72m-.35.36-3.64 3.63M124.81 65.8l-2.74 2.72m-.35.36-4.49 4.47M125.75 65.8l-2.74 2.73m-.35.35-5.35 5.34M126.67 65.8l-2.73 2.73m-.35.35-6.2 6.19M127.63 65.8l-2.74 2.73m-.34.35-7.09 7.07M128.55 65.8l-2.73 2.73m-.35.34-7.93 7.92M129.5 65.8l-2.74 2.73m-.35.34-8.24 8.24M130.42 65.8l-2.74 2.73m-.34.34-8.25 8.24M131.38 65.8l-2.73 2.73m-.35.34-8.24 8.24M132.3 65.8l-2.73 2.73m-.34.34-8.25 8.24M133.25 65.8l-2.74 2.73m-.34.34-8.24 8.24M134.17 65.8l-2.73 2.73m-.34.34-8.25 8.24M135.14 65.8l-2.74 2.74m-.34.33-8.24 8.24M136.06 65.8l-2.74 2.74m-.33.33-8.25 8.23M137 65.8l-2.74 2.74m-.33.33-8.25 8.23M137.92 65.8l-2.73 2.74m-.34.33-8.24 8.23M138.89 65.8l-2.74 2.74m-.33.33-8.25 8.23M139.81 65.8l-2.73 2.74m-.33.33-8.25 8.23M140.75 65.81l-2.73 2.73m-.33.33-8.25 8.23M141.68 65.81l-2.74 2.73m-.33.33-8.25 8.23M142.63 65.81l-2.73 2.73m-.33.33-8.25 8.23M143.56 65.81l-2.74 2.73m-.32.33-8.25 8.23M144.5 65.81l-2.74 2.73m-.32.33-8.25 8.23M145.42 65.82l-2.73 2.73m-.33.32-8.25 8.23M146.39 65.82l-2.74 2.73m-.32.32-8.25 8.23M147.31 65.82l-2.73 2.73m-.32.32L136 77.1M148.25 65.82l-2.73 2.73m-.32.32-8.25 8.23M149.18 65.82l-2.74 2.73m-.32.32-8.25 8.23M150.1 65.82l-2.73 2.73m-.32.32-8.25 8.23M151.02 65.82l-2.73 2.73m-.31.32-8.26 8.23M151.97 65.82l-2.74 2.73m-.31.32-8.25 8.23M152.89 65.83l-2.73 2.72m-.32.31-8.25 8.24M153.85 65.83l-2.73 2.72m-.3.31-8.26 8.24M154.78 65.83l-2.73 2.72m-.31.31-8.26 8.24M155.72 65.83l-2.73 2.73m-.31.3-8.26 8.24M156.64 65.83l-2.73 2.73m-.3.3-8.26 8.24M157.6 65.83l-2.73 2.73m-.3.3-8.26 8.24M158.52 65.83l-2.73 2.73m-.3.3-8.26 8.24M159.46 65.83l-2.73 2.73m-.3.3-8.26 8.24M160.39 65.83l-2.73 2.73m-.3.3-8.26 8.24M160.78 66.4l-2.16 2.16m-.3.3-8.26 8.24M160.78 67.33l-1.23 1.23m-.3.3-8.26 8.24M160.77 68.28l-.28.28m-.3.3-8.26 8.24M160.7 69.27l-7.85 7.83M160.64 70.3l-6.82 6.8M160.54 71.32l-5.8 5.78M160.38 72.42l-4.7 4.68M160.22 73.5l-3.6 3.6M160.05 74.63l-2.47 2.47M159.63 75.98l-1.13 1.12M159.52 77.03l-.08.07M116.57 65.87l28.64-.03M116.6 66.22l27.77-.03M116.64 66.56l21.15-.02M116.67 66.91l17.75-.01M116.7 67.25l16.74-.01M116.73 67.6l15.79-.01M116.76 67.94h14.34M116.79 68.3h11.77M116.85 69l17.2-.02M116.88 69.34l18.27-.02M116.91 69.68l18.19-.02M116.94 70.02l17.22-.01M116.97 70.37l15.37-.01M117 70.71h13.22M117.03 71.07h11.19M117.06 71.41h9.7M117.1 71.75h8.63M117.12 72.1h7.97M117.15 72.45l7.6-.01M117.19 72.8h7.44M117.22 73.14h7.53M117.25 73.5l7.93-.02M117.28 73.83h8.52M117.3 74.2l9.15-.02M117.34 74.53h9.65M117.37 74.88h10.07M117.4 75.22h10.4M117.43 75.57l10.67-.01M117.46 75.91h10.88M117.5 76.26l11.14-.01M117.52 76.6h11.6M117.55 76.96l12.41-.01M60.48 65.87l35.73-.02M60.49 66.21h34.88M60.49 66.56l28.22-.01M60.49 66.91h24.93M60.49 67.25h23.96M60.5 67.6h23.03M60.5 67.94h21.6M60.5 68.3h19.06M60.55 69l24.56-.02M60.57 69.34l25.6-.01M60.59 69.68l25.52-.01M60.6 70.02h24.56M60.63 70.37h22.71M60.66 70.71h20.56M60.7 71.07h18.53M60.74 71.41h17.03M60.79 71.75h15.97M60.84 72.1H76.1M60.89 72.45l14.9-.01M60.94 72.8h14.71M61 73.14h14.77M61.04 73.5l15.16-.01M61.1 73.83h15.72M61.15 74.2l16.32-.01M61.2 74.53H78M61.28 74.88h17.18M61.53 75.22h17.3M61.6 75.57h17.52M61.63 75.91h17.73M61.67 76.26h18M61.7 76.6h18.44M61.74 76.96h19.25" style="fill:none;stroke:#140533;stroke-width:.03413315;stroke-linecap:round;stroke-linejoin:round;stroke-miterlimit:22.9255867;stroke-opacity:1"/><path d="m58.32 67.66 2.16-1.85M58.33 68.12l2.15-1.85M58.34 68.56l2.14-1.84M58.35 69.01l2.14-1.83M58.36 69.45l2.13-1.82M58.37 69.92l2.12-1.82M58.45 70.75l2.12-1.81M58.49 71.17l2.08-1.78M58.53 71.59l2.06-1.77M58.57 72l2.06-1.76M58.62 72.42l2.04-1.75M58.66 72.84l2.03-1.74M58.71 73.27l2.04-1.75M58.76 73.68l2.04-1.76M58.8 74.08l2.06-1.76M58.86 74.5l2.06-1.77M58.91 74.9l2.07-1.77M58.97 75.32l2.08-1.78M59.03 75.72l2.07-1.78M59.1 76.12l2.07-1.77M59.16 76.52l2.07-1.77M59.67 76.55l1.74-1.49M59.5 77.15l2.07-1.77M59.55 77.56l2.06-1.76M59.6 77.98l2.06-1.77M59.64 78.4l2.06-1.77M59.68 78.8l2.06-1.76M59.45 77.07l-.03-.3m-.04-.3-.71-6.08m-.05-.42-.3-2.57M60.01 78.83l-.27-2.34m-.04-.3L59 70.12m-.05-.39-.3-2.57M60.32 78.52l-.27-2.3m-.04-.3-.7-6.05m-.05-.38-.3-2.57M60.63 78.22l-.27-2.3m-.03-.28-.71-6.03m-.04-.36-.3-2.58M60.94 77.9l-.27-2.25m-.03-.28-.7-6.02m-.05-.34-.3-2.58M61.25 77.6 61 75.36m-.03-.27-.7-6m-.04-.32-.3-2.58M61.56 77.29l-.26-2.2m-.73-6.23v-.02m-.08-.68-.26-2.21" style="fill:none;stroke:#140533;stroke-width:.08959953;stroke-linecap:round;stroke-linejoin:round;stroke-miterlimit:22.9255867;stroke-opacity:1"/><path d="m62.67 51.39.14.14.05 1.68-.08.1.1.1-.03.34" style="fill:none;stroke:#140533;stroke-width:.03413315;stroke-linecap:round;stroke-linejoin:round;stroke-miterlimit:22.9255867;stroke-opacity:1"/><path d="m158.8 51.39-.13.14.01 1.74.08.1-.09.1.04.35" style="fill:none;stroke:#140533;stroke-width:.0340956;stroke-linecap:round;stroke-linejoin:round;stroke-miterlimit:22.9255867;stroke-opacity:1"/><path d="m40.75 62.24-.45.45M41.36 62.24l-1.04 1.03M41.97 62.23l-1.62 1.62M42.58 62.23l-2.2 2.2M43.22 62.23l-2.64 2.63M43.83 62.23l-2.64 2.63M44.45 62.23l-2.64 2.63M45.05 62.23l-2.64 2.63M45.66 62.22l-2.64 2.64M46.27 62.22l-2.64 2.64M46.9 62.22l-2.65 2.64M47.22 62.5l-2.37 2.36M47.25 63.1l-1.76 1.76M47.28 63.68l-1.18 1.18M47.3 64.27l-.58.59M47.33 64.85h0M40.29 62.48h6.93M40.3 62.75h6.93M40.31 63.01h6.94M40.32 63.28h6.94M40.34 63.53h6.93M40.35 63.8h6.93M40.36 64.05h6.94M40.37 64.32h6.94M40.39 64.58h6.93M40.42 64.85h6.91" style="fill:none;stroke:#140533;stroke-width:.03413315;stroke-linecap:round;stroke-linejoin:round;stroke-miterlimit:22.9255867;stroke-opacity:1"/><path d="m40.3 62.38-9.2 4.54M40.3 62.7l-8.52 4.22M40.32 63.02l-7.87 3.9M40.33 63.34l-7.2 3.57M40.35 63.66 33.8 66.9M40.36 63.99l-5.88 2.9M40.38 64.3l-5.22 2.59M40.39 64.64l-4.53 2.24M30.63 66.93v-.1M30.9 66.93v-.23M31.15 66.92v-.34M31.41 66.92v-.46M31.68 66.92v-.59M31.94 66.92v-.71M32.2 66.91v-.83M32.47 66.91v-.95M32.73 66.91v-1.08M32.99 66.9v-1.2M33.25 66.9V65.6M33.52 66.9v-1.44M33.78 66.9v-1.57M34.04 66.9v-1.7M34.3 66.9v-1.81M34.57 66.9v-1.94M34.83 66.89v-2.06M35.1 66.89V64.7M35.35 66.89v-2.3M35.61 66.88v-2.42M35.87 66.88v-2.54M36.14 66.88V64.2M36.4 66.88v-2.8M36.67 66.8v-2.84M40.35 64.8v-1.04M40.08 64.94v-2.6M39.82 65.09v-2.63M39.56 65.23v-2.65M39.3 65.37v-2.66M39.03 65.52v-2.68M38.77 65.66v-2.7M38.5 65.8V63.1M38.25 65.94v-2.73M37.99 66.08v-2.75M37.73 66.23v-2.78M37.46 66.37v-2.79M37.2 66.51v-2.8M36.93 66.66v-2.83" style="fill:none;stroke:#140533;stroke-width:.05827288;stroke-linecap:round;stroke-linejoin:round;stroke-miterlimit:22.9255867;stroke-opacity:1"/><path d="m47.27 62.52 15.67-8.34M47.28 62.84l15.75-8.4M47.29 63.15 62.52 55M47.3 63.45l14.14-7.55M47.28 63.8l12.88-6.91M47.3 64.12l11.67-6.28M47.3 64.48l9.02-4.96M47.3 64.78l2.94-1.6" style="fill:none;stroke:#140533;stroke-width:.03413315;stroke-linecap:round;stroke-linejoin:round;stroke-miterlimit:22.9255867;stroke-opacity:1"/><path d="m40.3 62.22.04.91.01.64" style="fill:none;stroke:#140533;stroke-width:.05821487;stroke-linecap:round;stroke-linejoin:round;stroke-miterlimit:22.9255867;stroke-opacity:1"/><path d="m47.22 62.23.05 1.5.03 1.1" style="fill:none;stroke:#140533;stroke-width:.05835461;stroke-linecap:round;stroke-linejoin:round;stroke-miterlimit:22.9255867;stroke-opacity:1"/><path d="m174.75 62.28-.49.45M175.36 62.28l-1.12 1.01M175.98 62.28l-1.77 1.6M176.59 62.28l-2.4 2.16M177.23 62.28l-2.88 2.58M177.83 62.28l-2.87 2.58M178.45 62.27l-2.87 2.6M179.06 62.27l-2.88 2.6M179.67 62.27l-2.88 2.6M180.28 62.27l-2.88 2.6M180.9 62.27l-2.88 2.6M181.2 62.54l-2.57 2.32M181.18 63.13l-1.92 1.73M181.16 63.7l-1.3 1.16M181.13 64.28l-.64.58M181.1 64.85h0" style="fill:none;stroke:#140533;stroke-width:.03410986;stroke-linecap:round;stroke-linejoin:round;stroke-miterlimit:22.9255867;stroke-opacity:1"/><path d="m117.75 88.26-.4.4M118.6 88.38l-1.25 1.25M118.6 89.3l-1.25 1.26M118.62 90.23l-1.52 1.51M118.63 91.14l-1.05 1.05M118.9 91.83l-.36.36M102.97 88.26l-.35.36M103.88 88.29l-1.27 1.26M103.88 89.23l-1.28 1.27M103.88 90.15l-1.56 1.56M103.88 91.12l-1.08 1.07M104.12 91.8l-.4.39" style="fill:none;stroke:#140533;stroke-width:.03413315;stroke-linecap:round;stroke-linejoin:round;stroke-miterlimit:22.9255867;stroke-opacity:1"/><path d="M110.72 55.3c-1.67.03-2.76 1.1-2.99 2.73-.08.63-.03 1.4-.03 1.4" style="fill:none;stroke:#140533;stroke-width:.04482821;stroke-linecap:round;stroke-linejoin:round;stroke-miterlimit:22.9255867;stroke-opacity:1"/><path d="M110.73 55.67c-.5 0-.86.42-.85 1.34v1.85h.85M106.26 59.5v-5.15h.83l.01 5.14M106.26 54.35s-.1-.02-.12-.05c-.02-.04-.02-.1-.02-.1l1.15.01s-.03.1-.08.12a.32.32 0 0 1-.1.02" style="fill:none;stroke:#140533;stroke-width:.04482821;stroke-linecap:round;stroke-linejoin:round;stroke-miterlimit:22.9255867;stroke-opacity:1"/><path d="M105.99 54h1.38v.2h-1.38zm0 0" style="fill:none;stroke:#140533;stroke-width:.04494124;stroke-linecap:round;stroke-linejoin:round;stroke-miterlimit:22.9255867;stroke-opacity:1"/><path d="m100.25 59.96.15-2.02h-.42l-.1.18v1.35s.1.05.1.1l-.01.12s.07.06.06.14V60M100.4 57.94l5.86-3.59M100.15 57.94l6-3.65M99.97 57.92l6.01-3.72M107.14 54.34h3.59" style="fill:none;stroke:#140533;stroke-width:.04482821;stroke-linecap:round;stroke-linejoin:round;stroke-miterlimit:22.9255867;stroke-opacity:1"/><path d="M107.26 54.22h3.46" style="fill:none;stroke:#140533;stroke-width:.04495074;stroke-linecap:round;stroke-linejoin:round;stroke-miterlimit:22.9255867;stroke-opacity:1"/><path d="M107.38 54.07h3.35" style="fill:none;stroke:#140533;stroke-width:.04471966;stroke-linecap:round;stroke-linejoin:round;stroke-miterlimit:22.9255867;stroke-opacity:1"/><path d="M106.22 53.52h.77v.47h-.77zM106.35 52.04h.55v1.48h-.55Zm0 0" style="fill:none;stroke:#140533;stroke-width:.04482821;stroke-linecap:round;stroke-linejoin:round;stroke-miterlimit:22.9255867;stroke-opacity:1"/><path d="m100.04 55.81 6.3-3.77 4.39.01" style="fill:none;stroke:#140533;stroke-width:.04482821;stroke-linecap:round;stroke-linejoin:round;stroke-miterlimit:22.9255867;stroke-opacity:1"/><path d="M110.75 51.9h-4.42l-6.27 3.7h-.6c-.11.06-.12.16 0 .2l-.14 2.02s-.12.05-.1.14c0 .08.06.1.15.1h.5s.12-.07.1-.14a3.78 3.78 0 0 0-.05-.16l.12-1.96M97.56 55.78c.15-.02.13-.15.09-.18l.06-.13c.12-.02.11-.14.05-.14h-.58l-.1.3c-.16-.01-.23.13-.1.16l-.18 2.03s-.12.05-.1.14c0 .08.05.1.14.1h.52s.1-.07.08-.14l-.05-.16zm0 0" style="fill:none;stroke:#140533;stroke-width:.04482821;stroke-linecap:round;stroke-linejoin:round;stroke-miterlimit:22.9255867;stroke-opacity:1"/><path d="M96.81 58.06h.55v1.4h-.55zm0 0" style="fill:none;stroke:#140533;stroke-width:.04479692;stroke-linecap:round;stroke-linejoin:round;stroke-miterlimit:22.9255867;stroke-opacity:1"/><path d="M96.72 60v-.42s0-.05.05-.08c.04-.04.1-.04.1-.04h.49s.08 0 .09.07c.03.12 0 .45.01.46M99.88 59.47h-.52s-.09 0-.11.1c-.02.09-.02.46-.02.46M99.34 58.06v1.41M97.46 59.65h1.78" style="fill:none;stroke:#140533;stroke-width:.04482821;stroke-linecap:round;stroke-linejoin:round;stroke-miterlimit:22.9255867;stroke-opacity:1"/><path d="M97.43 59.5h1.86" style="fill:none;stroke:#140533;stroke-width:.04499755;stroke-linecap:round;stroke-linejoin:round;stroke-miterlimit:22.9255867;stroke-opacity:1"/><path d="M97.37 59.21h1.96" style="fill:none;stroke:#140533;stroke-width:.04499839;stroke-linecap:round;stroke-linejoin:round;stroke-miterlimit:22.9255867;stroke-opacity:1"/><path d="M97.36 59.07h1.95" style="fill:none;stroke:#140533;stroke-width:.04492557;stroke-linecap:round;stroke-linejoin:round;stroke-miterlimit:22.9255867;stroke-opacity:1"/><path d="M97.37 58.78h1.96" style="fill:none;stroke:#140533;stroke-width:.04499839;stroke-linecap:round;stroke-linejoin:round;stroke-miterlimit:22.9255867;stroke-opacity:1"/><path d="M97.36 58.64h1.95" style="fill:none;stroke:#140533;stroke-width:.04492557;stroke-linecap:round;stroke-linejoin:round;stroke-miterlimit:22.9255867;stroke-opacity:1"/><path d="M97.37 58.34h1.96" style="fill:none;stroke:#140533;stroke-width:.04499839;stroke-linecap:round;stroke-linejoin:round;stroke-miterlimit:22.9255867;stroke-opacity:1"/><path d="M97.36 58.2h1.95" style="fill:none;stroke:#140533;stroke-width:.04492557;stroke-linecap:round;stroke-linejoin:round;stroke-miterlimit:22.9255867;stroke-opacity:1"/><path d="M97.44 57.92h1.79" style="fill:none;stroke:#140533;stroke-width:.04508501;stroke-linecap:round;stroke-linejoin:round;stroke-miterlimit:22.9255867;stroke-opacity:1"/><path d="M97.4 57.78h1.92" style="fill:none;stroke:#140533;stroke-width:.04480318;stroke-linecap:round;stroke-linejoin:round;stroke-miterlimit:22.9255867;stroke-opacity:1"/><path d="M97.41 57.78s.12.01.17-.04c.04-.05 0-.14 0-.14s.07-.02.08-.07c.02-.06-.03-.1.05-.11.08-.02.09-.13.09-.13h1.56M97.8 57.29l-.03-.22a.22.22 0 0 0-.06-.16c-.05-.05-.08.01-.11.01M97.57 56V57.15c-.03.1-.02.17-.02.17M110.48 52.05v1.46M110.73 53.51h-.39v.56M106.99 53.55h3.35M106.96 53.52v-.2h.29v.23" style="fill:none;stroke:#140533;stroke-width:.04482821;stroke-linecap:round;stroke-linejoin:round;stroke-miterlimit:22.9255867;stroke-opacity:1"/><path d="M107.01 53.32v-.09h.18v.1" style="fill:none;stroke:#140533;stroke-width:.04472673;stroke-linecap:round;stroke-linejoin:round;stroke-miterlimit:22.9255867;stroke-opacity:1"/><path d="M107.19 53.24s.05-.04.04-.1c-.01-.05-.1-.08-.1-.12 0-.04.08-.06.1-.1.04-.06.04-.16 0-.24-.05-.09-.1-.04-.07-.15.02-.12.11-.13.06-.17-.05-.05-.13-.05-.07-.07.07-.02.16-.21-.06-.24" style="fill:none;stroke:#140533;stroke-width:.04482821;stroke-linecap:round;stroke-linejoin:round;stroke-miterlimit:22.9255867;stroke-opacity:1"/><path d="M107.02 53.24s-.05-.04-.04-.1c0-.05.1-.08.09-.12 0-.04-.08-.06-.1-.1-.03-.06-.03-.16 0-.24.05-.09.1-.04.08-.15-.03-.12-.12-.13-.07-.17.05-.05.13-.05.07-.07-.06-.02-.16-.21.07-.24M107.53 53.54v-.23h.3v.24" style="fill:none;stroke:#140533;stroke-width:.04482821;stroke-linecap:round;stroke-linejoin:round;stroke-miterlimit:22.9255867;stroke-opacity:1"/><path d="M107.6 53.32v-.09h.17v.1" style="fill:none;stroke:#140533;stroke-width:.04472673;stroke-linecap:round;stroke-linejoin:round;stroke-miterlimit:22.9255867;stroke-opacity:1"/><path d="M107.77 53.24s.05-.04.03-.1c0-.05-.1-.08-.09-.12 0-.04.08-.06.1-.1.04-.06.03-.16 0-.24-.05-.09-.1-.04-.07-.15.02-.12.11-.13.06-.17-.05-.05-.13-.05-.07-.07.06-.02.16-.21-.07-.24" style="fill:none;stroke:#140533;stroke-width:.04482821;stroke-linecap:round;stroke-linejoin:round;stroke-miterlimit:22.9255867;stroke-opacity:1"/><path d="M107.6 53.24s-.06-.04-.05-.1c.02-.05.1-.08.1-.12 0-.04-.08-.06-.1-.1-.04-.06-.03-.16 0-.24.05-.09.1-.04.07-.15-.02-.12-.11-.13-.06-.17.05-.05.13-.05.07-.07-.06-.02-.16-.21.06-.24M108.16 53.54v-.23h.3v.24" style="fill:none;stroke:#140533;stroke-width:.04482821;stroke-linecap:round;stroke-linejoin:round;stroke-miterlimit:22.9255867;stroke-opacity:1"/><path d="M108.22 53.32v-.09h.18v.1" style="fill:none;stroke:#140533;stroke-width:.04472673;stroke-linecap:round;stroke-linejoin:round;stroke-miterlimit:22.9255867;stroke-opacity:1"/><path d="M108.4 53.24s.05-.04.04-.1c-.01-.05-.1-.08-.1-.12 0-.04.08-.06.1-.1.04-.06.03-.16 0-.24-.05-.09-.1-.04-.07-.15.02-.12.11-.13.06-.17-.05-.05-.13-.05-.07-.07.07-.02.16-.21-.06-.24" style="fill:none;stroke:#140533;stroke-width:.04482821;stroke-linecap:round;stroke-linejoin:round;stroke-miterlimit:22.9255867;stroke-opacity:1"/><path d="M108.22 53.24s-.05-.04-.03-.1c0-.05.1-.08.09-.12 0-.04-.08-.06-.1-.1-.04-.06-.03-.16 0-.24.05-.09.1-.04.07-.15-.02-.12-.11-.13-.06-.17.05-.05.13-.05.07-.07-.06-.02-.16-.21.07-.24M108.84 53.54v-.23h.29v.24" style="fill:none;stroke:#140533;stroke-width:.04482821;stroke-linecap:round;stroke-linejoin:round;stroke-miterlimit:22.9255867;stroke-opacity:1"/><path d="M108.9 53.32v-.09h.17v.1" style="fill:none;stroke:#140533;stroke-width:.04472673;stroke-linecap:round;stroke-linejoin:round;stroke-miterlimit:22.9255867;stroke-opacity:1"/><path d="M109.07 53.24s.05-.04.04-.1c-.01-.05-.1-.08-.1-.12 0-.04.08-.06.11-.1.03-.06.03-.16-.01-.24-.05-.09-.1-.04-.07-.15.03-.12.12-.13.06-.17-.05-.05-.13-.05-.07-.07.07-.02.16-.21-.06-.24" style="fill:none;stroke:#140533;stroke-width:.04482821;stroke-linecap:round;stroke-linejoin:round;stroke-miterlimit:22.9255867;stroke-opacity:1"/><path d="M108.9 53.24s-.05-.04-.04-.1c0-.05.1-.08.09-.12 0-.04-.08-.06-.1-.1-.03-.06-.03-.16 0-.24.05-.09.1-.04.08-.15-.03-.12-.12-.13-.07-.17.06-.05.14-.05.07-.07-.06-.02-.16-.21.07-.24M109.48 53.54v-.23h.29v.24" style="fill:none;stroke:#140533;stroke-width:.04482821;stroke-linecap:round;stroke-linejoin:round;stroke-miterlimit:22.9255867;stroke-opacity:1"/><path d="M109.54 53.32v-.09h.17v.1" style="fill:none;stroke:#140533;stroke-width:.04472673;stroke-linecap:round;stroke-linejoin:round;stroke-miterlimit:22.9255867;stroke-opacity:1"/><path d="M109.71 53.24s.05-.04.04-.1c-.01-.05-.1-.08-.1-.12 0-.04.08-.06.11-.1.03-.06.03-.16-.01-.24-.04-.09-.1-.04-.07-.15.03-.12.12-.13.06-.17-.05-.05-.13-.05-.06-.07.06-.02.15-.21-.07-.24" style="fill:none;stroke:#140533;stroke-width:.04482821;stroke-linecap:round;stroke-linejoin:round;stroke-miterlimit:22.9255867;stroke-opacity:1"/><path d="M109.54 53.24s-.05-.04-.04-.1c.01-.05.1-.08.1-.12 0-.04-.08-.06-.11-.1-.03-.06-.03-.16.01-.24.04-.09.1-.04.07-.15-.03-.12-.12-.13-.07-.17.06-.05.14-.05.07-.07-.06-.02-.15-.21.07-.24M110.1 53.54v-.23h.28v.24" style="fill:none;stroke:#140533;stroke-width:.04482821;stroke-linecap:round;stroke-linejoin:round;stroke-miterlimit:22.9255867;stroke-opacity:1"/><path d="M110.15 53.32v-.09h.17v.1" style="fill:none;stroke:#140533;stroke-width:.04472673;stroke-linecap:round;stroke-linejoin:round;stroke-miterlimit:22.9255867;stroke-opacity:1"/><path d="M110.32 53.24s.05-.04.04-.1c0-.05-.1-.08-.1-.12.01-.04.09-.06.12-.1.02-.06.02-.16-.02-.24-.04-.09-.1-.04-.07-.15.03-.12.12-.13.07-.17-.06-.05-.14-.05-.07-.07.06-.02.16-.21-.07-.24" style="fill:none;stroke:#140533;stroke-width:.04482821;stroke-linecap:round;stroke-linejoin:round;stroke-miterlimit:22.9255867;stroke-opacity:1"/><path d="M110.15 53.24s-.05-.04-.04-.1c.01-.05.1-.08.1-.12 0-.04-.08-.06-.11-.1-.03-.06-.03-.16.01-.24.04-.09.1-.04.07-.15-.03-.12-.12-.13-.06-.17.05-.05.13-.05.07-.07-.07-.02-.16-.21.06-.24M97.7 53.63h-5.02" style="fill:none;stroke:#140533;stroke-width:.04482821;stroke-linecap:round;stroke-linejoin:round;stroke-miterlimit:22.9255867;stroke-opacity:1"/><path d="m97.7 53.8-5.57-.02.26.2" style="fill:none;stroke:#140533;stroke-width:.04473512;stroke-linecap:round;stroke-linejoin:round;stroke-miterlimit:22.9255867;stroke-opacity:1"/><path d="M97.47 53.98h-5.11M97.7 53.63v.16l-.23.19v.16H92.5c-.1-.05-.11-.11-.11-.18" style="fill:none;stroke:#140533;stroke-width:.04473888;stroke-linecap:round;stroke-linejoin:round;stroke-miterlimit:22.9255867;stroke-opacity:1"/><path d="m92.76 52.8-.69.96M96.81 58.98h-4.23v-.52h4.23zM92.7 54.13v4.33" style="fill:none;stroke:#140533;stroke-width:.04482821;stroke-linecap:round;stroke-linejoin:round;stroke-miterlimit:22.9255867;stroke-opacity:1"/><path d="M92.77 51.7h.46v1.41h-.46zm0 0" style="fill:none;stroke:#140533;stroke-width:.04467839;stroke-linecap:round;stroke-linejoin:round;stroke-miterlimit:22.9255867;stroke-opacity:1"/><path d="M92.67 53.12h.68v.5h-.68zm0 0" style="fill:none;stroke:#140533;stroke-width:.0450059;stroke-linecap:round;stroke-linejoin:round;stroke-miterlimit:22.9255867;stroke-opacity:1"/><path d="m93.23 53.1 3.53-.01M97.14 53.63h-.41v-.54h.41zm0 0" style="fill:none;stroke:#140533;stroke-width:.04482821;stroke-linecap:round;stroke-linejoin:round;stroke-miterlimit:22.9255867;stroke-opacity:1"/><path d="M97.14 53.09h-.32V51.7h.32zm0 0" style="fill:none;stroke:#140533;stroke-width:.04472444;stroke-linecap:round;stroke-linejoin:round;stroke-miterlimit:22.9255867;stroke-opacity:1"/><path d="M97.16 51.62h-4.52l1.04-1.31 3.45-.01v.13l-3 .01-.7.99h3.74" style="fill:none;stroke:#140533;stroke-width:.04482821;stroke-linecap:round;stroke-linejoin:round;stroke-miterlimit:22.9255867;stroke-opacity:1"/><path d="M97.14 51.7h-4.37l-.17-.06" style="fill:none;stroke:#140533;stroke-width:.0447161;stroke-linecap:round;stroke-linejoin:round;stroke-miterlimit:22.9255867;stroke-opacity:1"/><path d="M95.82 53.08v-.22h.3v.23" style="fill:none;stroke:#140533;stroke-width:.04482821;stroke-linecap:round;stroke-linejoin:round;stroke-miterlimit:22.9255867;stroke-opacity:1"/><path d="M95.88 52.87v-.08h.17v.1M96.05 52.79s.05-.04.04-.1c0-.04-.1-.07-.1-.11.01-.04.09-.05.12-.1.02-.05.02-.14-.02-.23-.04-.08-.1-.03-.07-.14.03-.11.12-.12.07-.16-.05-.05-.13-.05-.07-.07.05-.02.11-.12.05-.19M95.88 52.79s-.05-.04-.04-.1c.01-.04.1-.07.1-.11 0-.04-.08-.05-.11-.1s-.03-.14.01-.23c.04-.08.1-.03.07-.14-.03-.11-.11-.12-.06-.16.05-.05.13-.05.07-.07-.05-.02-.12-.12-.05-.19M93.32 53.08v-.22h.29v.23" style="fill:none;stroke:#140533;stroke-width:.04482821;stroke-linecap:round;stroke-linejoin:round;stroke-miterlimit:22.9255867;stroke-opacity:1"/><path d="M93.38 52.87v-.08h.17v.1M93.55 52.79s.05-.04.04-.1c-.01-.04-.1-.07-.1-.11 0-.04.08-.05.11-.1s.03-.14-.01-.23c-.04-.08-.1-.03-.07-.14.03-.11.12-.12.06-.16-.05-.05-.13-.05-.07-.07.05-.02.1-.1.06-.17M93.38 52.79s-.05-.04-.04-.1c0-.04.1-.07.1-.11 0-.04-.09-.05-.11-.1-.03-.05-.03-.14.01-.23.04-.08.1-.03.07-.14-.03-.11-.12-.12-.07-.16.06-.05.14-.05.07-.07-.04-.02-.1-.1-.06-.17M93.88 53.08v-.22h.29v.23" style="fill:none;stroke:#140533;stroke-width:.04482821;stroke-linecap:round;stroke-linejoin:round;stroke-miterlimit:22.9255867;stroke-opacity:1"/><path d="M93.94 52.87v-.08h.17v.1M94.11 52.79s.05-.04.04-.1c-.01-.04-.1-.07-.1-.11 0-.04.08-.05.11-.1s.03-.14-.01-.23c-.04-.08-.1-.03-.07-.14.03-.11.12-.12.06-.16-.05-.05-.13-.05-.07-.07.05-.02.1-.1.06-.17M93.94 52.79s-.05-.04-.04-.1c0-.04.1-.07.1-.11-.01-.04-.09-.05-.11-.1-.03-.05-.03-.14 0-.23.05-.08.1-.03.08-.14-.03-.11-.12-.12-.07-.16.06-.05.14-.05.07-.07-.04-.02-.1-.1-.06-.17M94.5 53.08l.01-.22h.29v.23" style="fill:none;stroke:#140533;stroke-width:.04482821;stroke-linecap:round;stroke-linejoin:round;stroke-miterlimit:22.9255867;stroke-opacity:1"/><path d="M94.57 52.87v-.08h.17v.1M94.74 52.79s.05-.04.04-.1c-.01-.04-.1-.07-.1-.11 0-.04.08-.05.11-.1s.03-.14-.01-.23c-.04-.08-.1-.03-.07-.14.03-.11.12-.12.06-.16-.05-.05-.13-.05-.06-.07.04-.02.1-.1.05-.17M94.57 52.79s-.05-.04-.04-.1c.01-.04.1-.07.1-.11 0-.04-.08-.05-.11-.1s-.03-.14.01-.23c.04-.08.1-.03.07-.14-.03-.11-.12-.12-.07-.16.06-.05.14-.05.07-.07-.04-.02-.1-.1-.05-.17M95.18 53.08v-.22h.29v.23" style="fill:none;stroke:#140533;stroke-width:.04482821;stroke-linecap:round;stroke-linejoin:round;stroke-miterlimit:22.9255867;stroke-opacity:1"/><path d="M95.24 52.87v-.08h.17v.1M95.41 52.79s.05-.04.04-.1c-.01-.04-.1-.07-.1-.11 0-.04.08-.05.11-.1s.03-.14-.01-.23c-.04-.08-.1-.03-.07-.14.03-.11.12-.12.07-.16-.06-.05-.14-.05-.07-.07.04-.02.1-.1.05-.17M95.24 52.79s-.05-.04-.04-.1c.01-.04.1-.07.1-.11 0-.04-.08-.05-.11-.1s-.03-.14.01-.23c.04-.08.1-.03.07-.14-.03-.11-.12-.12-.06-.16.05-.05.13-.05.06-.07-.04-.02-.1-.1-.05-.17M96.44 53.08v-.22h.29v.23" style="fill:none;stroke:#140533;stroke-width:.04482821;stroke-linecap:round;stroke-linejoin:round;stroke-miterlimit:22.9255867;stroke-opacity:1"/><path d="M96.5 52.87v-.08h.17v.1M96.67 52.79s.05-.04.04-.1c-.01-.04-.1-.07-.1-.11 0-.04.08-.05.1-.1.04-.05.04-.14 0-.23-.05-.08-.1-.03-.07-.14.03-.11.11-.12.06-.16-.05-.05-.13-.05-.07-.07.05-.02.1-.1.06-.17M96.5 52.79s-.05-.04-.04-.1c0-.04.1-.07.1-.11-.01-.04-.09-.05-.12-.1-.02-.05-.02-.14.02-.23.04-.08.1-.03.07-.14-.03-.11-.12-.12-.07-.16.05-.05.13-.05.07-.07-.04-.02-.1-.1-.06-.17M94.48 51.43v-.02c-.01-.05-.1-.08-.1-.12.01-.04.08-.05.11-.1.03-.04.03-.14-.01-.21-.04-.09-.1-.04-.07-.15.03-.1.12-.12.07-.16-.06-.04-.14-.04-.07-.06.04-.01.1-.1.05-.17M94.23 51.43v-.02c.02-.05.1-.08.1-.12 0-.04-.08-.05-.1-.1-.03-.04-.03-.14 0-.21.05-.09.1-.04.07-.15-.02-.1-.11-.12-.06-.16.05-.04.13-.04.07-.06-.05-.01-.1-.1-.06-.17M95.03 51.43v-.02c-.01-.05-.1-.08-.1-.12 0-.03.08-.05.11-.1.03-.04.03-.14-.01-.22-.04-.08-.1-.03-.07-.14.03-.1.12-.12.06-.16-.05-.04-.13-.04-.06-.06.04-.01.1-.1.05-.17M94.78 51.43v-.02c.01-.05.1-.08.1-.12 0-.03-.08-.05-.11-.1-.03-.04-.03-.14.01-.22.04-.08.1-.03.07-.14-.03-.1-.11-.12-.06-.16.05-.04.13-.04.07-.06-.05-.01-.1-.1-.06-.17M95.65 51.43v-.02c-.02-.05-.1-.08-.1-.12 0-.03.08-.05.1-.1.04-.04.03-.14 0-.22-.05-.08-.1-.03-.07-.14.03-.1.11-.12.06-.16-.05-.04-.13-.04-.07-.06.05-.01.1-.1.06-.17M95.4 51.43v-.02c0-.05.1-.08.1-.12-.01-.03-.09-.05-.11-.1-.03-.04-.03-.14.01-.22.04-.08.1-.03.07-.14-.03-.1-.12-.12-.07-.16.06-.04.13-.04.07-.06-.04-.01-.1-.1-.05-.17M96.3 51.43v-.02c-.01-.05-.1-.08-.1-.12.01-.03.08-.05.11-.1.03-.04.03-.14-.01-.22-.04-.08-.1-.03-.07-.14.03-.1.12-.12.07-.16-.06-.04-.13-.04-.07-.06.04-.01.1-.1.06-.17M96.05 51.43v-.02c.02-.05.1-.08.1-.12 0-.03-.08-.05-.1-.1-.03-.04-.03-.14 0-.22.05-.08.1-.03.07-.14-.02-.1-.11-.12-.06-.16.05-.04.13-.04.07-.06-.05-.01-.1-.1-.06-.17M96.93 51.43v-.02c-.01-.05-.1-.08-.1-.12 0-.03.08-.05.11-.1.03-.04.03-.14-.01-.22-.04-.08-.1-.03-.07-.14.03-.1.12-.12.06-.16-.05-.04-.13-.04-.06-.06.04-.02.1-.12.04-.18M96.68 51.43v-.02c.01-.05.1-.08.1-.12 0-.03-.08-.05-.1-.1-.04-.04-.03-.14 0-.22.05-.08.1-.03.07-.14-.03-.1-.11-.12-.06-.16.05-.04.13-.04.07-.06-.05-.02-.11-.12-.05-.18M93.69 52.4s.1-.11.09-.17c-.01-.05-.1-.08-.1-.12 0-.04.08-.06.1-.1.04-.05.04-.15 0-.24-.03-.05-.06-.05-.07-.07m.03-.27c-.05-.03-.09-.03-.04-.05.07-.02.16-.21-.06-.24M93.9 51.94c-.03-.03-.07-.05-.07-.08 0-.02.04-.06.07-.07m-.05-.36v-.06c.04-.12.12-.13.07-.17-.05-.04-.13-.05-.07-.07.07-.02.16-.2-.07-.24M94.12 51.43c0-.05-.01-.1-.03-.14-.04-.09-.1-.03-.07-.15s.12-.13.07-.17c-.06-.05-.14-.05-.08-.07.07-.02.16-.21-.06-.24" style="fill:none;stroke:#140533;stroke-width:.04482821;stroke-linecap:round;stroke-linejoin:round;stroke-miterlimit:22.9255867;stroke-opacity:1"/><path d="M93.58 52.75h.17v-.36h-.13M94.15 52.25h.38" style="fill:none;stroke:#140533;stroke-width:.04482821;stroke-linecap:round;stroke-linejoin:round;stroke-miterlimit:22.9255867;stroke-opacity:1"/><path d="M94.8 52.25h.4" style="fill:none;stroke:#140533;stroke-width:.04467988;stroke-linecap:round;stroke-linejoin:round;stroke-miterlimit:22.9255867;stroke-opacity:1"/><path d="M95.45 52.25h.39M96.08 52.25h.38M97.14 51.7l-.01-4.88" style="fill:none;stroke:#140533;stroke-width:.04482821;stroke-linecap:round;stroke-linejoin:round;stroke-miterlimit:22.9255867;stroke-opacity:1"/><path d="m110.75 46.46-14.1-.01.26.19" style="fill:none;stroke:#140533;stroke-width:.04473512;stroke-linecap:round;stroke-linejoin:round;stroke-miterlimit:22.9255867;stroke-opacity:1"/><path d="m110.76 46.65-13.88-.01M110.75 46.8H97.03c-.1-.05-.12-.1-.12-.17" style="fill:none;stroke:#140533;stroke-width:.04473888;stroke-linecap:round;stroke-linejoin:round;stroke-miterlimit:22.9255867;stroke-opacity:1"/><path d="M96.7 46.45h-.17v-.23l14.2.03M97.03 45.55l-.5.67M97.03 46.22l.21-4.55 2.77-2.67 10.75-.01" style="fill:none;stroke:#140533;stroke-width:.04482821;stroke-linecap:round;stroke-linejoin:round;stroke-miterlimit:22.9255867;stroke-opacity:1"/><path d="m98.1 40.84.01-2.23h.98v1.28" style="fill:none;stroke:#140533;stroke-width:.04482821;stroke-linecap:round;stroke-linejoin:round;stroke-miterlimit:22.9255867;stroke-opacity:1"/><path d="m99.35 38.4-.07-.12-1.38-.01-.06.12.2.06" style="fill:none;stroke:#140533;stroke-width:.04527649;stroke-linecap:round;stroke-linejoin:round;stroke-miterlimit:22.9255867;stroke-opacity:1"/><path d="M99.2 38.46h-1.17M99.35 38.4l-.17.06c-.01.08-.02.1-.09.15h-1.01c-.04-.04-.04-.1-.04-.17" style="fill:none;stroke:#140533;stroke-width:.04495301;stroke-linecap:round;stroke-linejoin:round;stroke-miterlimit:22.9255867;stroke-opacity:1"/><path d="M98.1 37.7h1.02v.58H98.1zM98.2 48.25h1.07v3.54h-1.06zM98.2 48.5h1.07M98.2 48.74h1.07M98.2 48.97h1.07M98.2 49.19h1.07M98.2 49.43h1.07M98.2 49.65h1.07M98.2 49.9h1.07M98.2 50.13h1.07M98.2 50.36h1.07M98.2 50.58h1.07M98.2 50.82h1.07M98.2 51.05h1.07" style="fill:none;stroke:#140533;stroke-width:.04482821;stroke-linecap:round;stroke-linejoin:round;stroke-miterlimit:22.9255867;stroke-opacity:1"/><path d="M98.2 51.3h1.07M98.2 51.56h1.07" style="fill:none;stroke:#140533;stroke-width:.04508501;stroke-linecap:round;stroke-linejoin:round;stroke-miterlimit:22.9255867;stroke-opacity:1"/><path d="M101.2 48.25h.95v3.54h-.95zM101.2 48.5h.95M101.2 48.74h.95M101.2 48.97h.95M101.2 49.19h.95M101.2 49.43h.95M101.2 49.65h.95M101.2 49.9h.95M101.2 50.13h.95M101.2 50.36h.95M101.2 50.58h.95M101.2 50.82h.95M101.2 51.05h.95" style="fill:none;stroke:#140533;stroke-width:.04476533;stroke-linecap:round;stroke-linejoin:round;stroke-miterlimit:22.9255867;stroke-opacity:1"/><path d="M101.2 51.3h.95M101.2 51.55h.95" style="fill:none;stroke:#140533;stroke-width:.04487406;stroke-linecap:round;stroke-linejoin:round;stroke-miterlimit:22.9255867;stroke-opacity:1"/><path d="M98.95 48.25v-.2h2.47v.2M99.27 48.34l1.93-.01M99.02 51.79v.28h2.35v-.28M99.27 51.8h1.93M100.16 48.33l-.02 3.47" style="fill:none;stroke:#140533;stroke-width:.04482821;stroke-linecap:round;stroke-linejoin:round;stroke-miterlimit:22.9255867;stroke-opacity:1"/><path d="M100.28 51.68v-.65h.35M100.77 51.68v-.65h.35" style="fill:none;stroke:#140533;stroke-width:.04476771;stroke-linecap:round;stroke-linejoin:round;stroke-miterlimit:22.9255867;stroke-opacity:1"/><path d="M100.28 50.87v-.74h.35M100.77 50.87v-.74h.35" style="fill:none;stroke:#140533;stroke-width:.04480527;stroke-linecap:round;stroke-linejoin:round;stroke-miterlimit:22.9255867;stroke-opacity:1"/><path d="M100.28 50v-.75h.35M100.77 50v-.75h.35" style="fill:none;stroke:#140533;stroke-width:.04493517;stroke-linecap:round;stroke-linejoin:round;stroke-miterlimit:22.9255867;stroke-opacity:1"/><path d="M100.28 49.1v-.65h.35M100.77 49.1v-.65h.35M99.27 51.03h.28M99.7 51.68v-.65h.34" style="fill:none;stroke:#140533;stroke-width:.04476771;stroke-linecap:round;stroke-linejoin:round;stroke-miterlimit:22.9255867;stroke-opacity:1"/><path d="M99.27 50.13h.28M99.7 50.87v-.74h.34" style="fill:none;stroke:#140533;stroke-width:.04480527;stroke-linecap:round;stroke-linejoin:round;stroke-miterlimit:22.9255867;stroke-opacity:1"/><path d="M99.27 49.25h.28M99.7 50v-.75h.34" style="fill:none;stroke:#140533;stroke-width:.04493517;stroke-linecap:round;stroke-linejoin:round;stroke-miterlimit:22.9255867;stroke-opacity:1"/><path d="M99.3 48.45h.25M99.7 49.1v-.65h.34" style="fill:none;stroke:#140533;stroke-width:.04476771;stroke-linecap:round;stroke-linejoin:round;stroke-miterlimit:22.9255867;stroke-opacity:1"/><path d="m99.14 51.96 2.1.01M106.22 53.52l-6.28 3.82M103.23 48.25h1.06v3.54h-1.06zM103.23 48.5h1.06M103.23 48.74h1.06M103.23 48.97h1.06M103.23 49.19h1.06M103.23 49.43h1.06M103.23 49.65h1.06M103.23 49.9h1.06M103.23 50.13h1.06M103.23 50.36h1.06M103.23 50.58h1.06M103.23 50.82h1.06M103.23 51.05h1.06" style="fill:none;stroke:#140533;stroke-width:.04482821;stroke-linecap:round;stroke-linejoin:round;stroke-miterlimit:22.9255867;stroke-opacity:1"/><path d="M103.23 51.3h1.06M103.23 51.56h1.06" style="fill:none;stroke:#140533;stroke-width:.04508501;stroke-linecap:round;stroke-linejoin:round;stroke-miterlimit:22.9255867;stroke-opacity:1"/><path d="M106.22 48.25h.95v3.54h-.95zM106.22 48.5h.95M106.22 48.74h.95M106.22 48.97h.95M106.22 49.19h.95M106.22 49.43h.95M106.22 49.65h.95M106.22 49.9h.95M106.22 50.13h.95M106.22 50.36h.95M106.22 50.58h.95M106.22 50.82h.95M106.22 51.05h.95" style="fill:none;stroke:#140533;stroke-width:.04476533;stroke-linecap:round;stroke-linejoin:round;stroke-miterlimit:22.9255867;stroke-opacity:1"/><path d="M106.22 51.3h.95M106.22 51.55h.95" style="fill:none;stroke:#140533;stroke-width:.04487406;stroke-linecap:round;stroke-linejoin:round;stroke-miterlimit:22.9255867;stroke-opacity:1"/><path d="M103.97 48.25v-.2h2.47v.2M104.3 48.34l1.92-.01M104.04 51.79v.28h1.97l.32-.18h.06v-.1M104.3 51.8h1.92M105.18 48.33l-.02 3.47" style="fill:none;stroke:#140533;stroke-width:.04482821;stroke-linecap:round;stroke-linejoin:round;stroke-miterlimit:22.9255867;stroke-opacity:1"/><path d="M105.3 51.68v-.65h.34M105.78 51.68v-.65h.35" style="fill:none;stroke:#140533;stroke-width:.04476771;stroke-linecap:round;stroke-linejoin:round;stroke-miterlimit:22.9255867;stroke-opacity:1"/><path d="M105.3 50.87v-.74h.35M105.79 50.87v-.74h.34" style="fill:none;stroke:#140533;stroke-width:.04480527;stroke-linecap:round;stroke-linejoin:round;stroke-miterlimit:22.9255867;stroke-opacity:1"/><path d="M105.3 50v-.75h.35M105.79 50v-.75h.34" style="fill:none;stroke:#140533;stroke-width:.04493517;stroke-linecap:round;stroke-linejoin:round;stroke-miterlimit:22.9255867;stroke-opacity:1"/><path d="M105.3 49.1v-.65h.34M105.78 49.1v-.65h.35M104.3 51.03h.27M104.71 51.68v-.65h.35" style="fill:none;stroke:#140533;stroke-width:.04476771;stroke-linecap:round;stroke-linejoin:round;stroke-miterlimit:22.9255867;stroke-opacity:1"/><path d="M104.3 50.13h.27M104.71 50.87v-.74h.35" style="fill:none;stroke:#140533;stroke-width:.04480527;stroke-linecap:round;stroke-linejoin:round;stroke-miterlimit:22.9255867;stroke-opacity:1"/><path d="M104.3 49.25h.27M104.71 50v-.75h.35" style="fill:none;stroke:#140533;stroke-width:.04493517;stroke-linecap:round;stroke-linejoin:round;stroke-miterlimit:22.9255867;stroke-opacity:1"/><path d="M104.31 48.45h.26M104.71 49.1v-.65h.35" style="fill:none;stroke:#140533;stroke-width:.04476771;stroke-linecap:round;stroke-linejoin:round;stroke-miterlimit:22.9255867;stroke-opacity:1"/><path d="m104.16 51.96 2.03.01M110.73 48.02h-1.84l.01 3.87" style="fill:none;stroke:#140533;stroke-width:.04482821;stroke-linecap:round;stroke-linejoin:round;stroke-miterlimit:22.9255867;stroke-opacity:1"/><path d="M110.73 48.32h-1.53v3.57" style="fill:none;stroke:#140533;stroke-width:.04476088;stroke-linecap:round;stroke-linejoin:round;stroke-miterlimit:22.9255867;stroke-opacity:1"/><path d="M110.64 48.32v3.58M109.2 52.05l-.02 1.38h.3M109.77 53.43h.32M110.38 53.43h.1M108.88 52.44v.2" style="fill:none;stroke:#140533;stroke-width:.04482821;stroke-linecap:round;stroke-linejoin:round;stroke-miterlimit:22.9255867;stroke-opacity:1"/><path d="M108.88 52.95v.15" style="fill:none;stroke:#140533;stroke-width:.04501702;stroke-linecap:round;stroke-linejoin:round;stroke-miterlimit:22.9255867;stroke-opacity:1"/><path d="M109.22 48.5h1.42M109.22 48.74h1.42M109.22 48.97h1.42M109.22 49.19h1.42M109.22 49.43h1.42M109.22 49.65h1.42M109.22 49.9h1.42M109.22 50.13h1.42M109.22 50.36h1.42M109.22 50.58h1.42M109.22 50.82h1.42M109.22 51.05h1.42" style="fill:none;stroke:#140533;stroke-width:.0448353;stroke-linecap:round;stroke-linejoin:round;stroke-miterlimit:22.9255867;stroke-opacity:1"/><path d="M109.21 51.3h1.43M109.21 51.55h1.43M109.21 51.8h1.43M109.21 52.24h.31" style="fill:none;stroke:#140533;stroke-width:.04513019;stroke-linecap:round;stroke-linejoin:round;stroke-miterlimit:22.9255867;stroke-opacity:1"/><path d="M109.73 52.24h.41" style="fill:none;stroke:#140533;stroke-width:.04473332;stroke-linecap:round;stroke-linejoin:round;stroke-miterlimit:22.9255867;stroke-opacity:1"/><path d="M109.21 52.47h.33" style="fill:none;stroke:#140533;stroke-width:.04513019;stroke-linecap:round;stroke-linejoin:round;stroke-miterlimit:22.9255867;stroke-opacity:1"/><path d="M109.7 52.47h.46" style="fill:none;stroke:#140533;stroke-width:.04473332;stroke-linecap:round;stroke-linejoin:round;stroke-miterlimit:22.9255867;stroke-opacity:1"/><path d="M109.2 52.7h.3" style="fill:none;stroke:#140533;stroke-width:.04493906;stroke-linecap:round;stroke-linejoin:round;stroke-miterlimit:22.9255867;stroke-opacity:1"/><path d="M109.76 52.7h.34" style="fill:none;stroke:#140533;stroke-width:.04473666;stroke-linecap:round;stroke-linejoin:round;stroke-miterlimit:22.9255867;stroke-opacity:1"/><path d="M109.2 52.93h.3" style="fill:none;stroke:#140533;stroke-width:.04485613;stroke-linecap:round;stroke-linejoin:round;stroke-miterlimit:22.9255867;stroke-opacity:1"/><path d="M109.75 52.93h.37" style="fill:none;stroke:#140533;stroke-width:.04465732;stroke-linecap:round;stroke-linejoin:round;stroke-miterlimit:22.9255867;stroke-opacity:1"/><path d="M109.2 53.17h.3" style="fill:none;stroke:#140533;stroke-width:.04485613;stroke-linecap:round;stroke-linejoin:round;stroke-miterlimit:22.9255867;stroke-opacity:1"/><path d="M109.75 53.17h.37" style="fill:none;stroke:#140533;stroke-width:.04465732;stroke-linecap:round;stroke-linejoin:round;stroke-miterlimit:22.9255867;stroke-opacity:1"/><path d="M110.34 52.24h.14M110.31 52.47h.17" style="fill:none;stroke:#140533;stroke-width:.04513019;stroke-linecap:round;stroke-linejoin:round;stroke-miterlimit:22.9255867;stroke-opacity:1"/><path d="M110.35 52.7h.15" style="fill:none;stroke:#140533;stroke-width:.04493906;stroke-linecap:round;stroke-linejoin:round;stroke-miterlimit:22.9255867;stroke-opacity:1"/><path d="M110.35 52.93h.13M110.35 53.17h.13" style="fill:none;stroke:#140533;stroke-width:.04485613;stroke-linecap:round;stroke-linejoin:round;stroke-miterlimit:22.9255867;stroke-opacity:1"/><path d="M110.72 55.3c1.69-.02 2.78 1.1 3 2.73.08.63.03 1.4.03 1.4" style="fill:none;stroke:#140533;stroke-width:.04482821;stroke-linecap:round;stroke-linejoin:round;stroke-miterlimit:22.9255867;stroke-opacity:1"/><path d="M110.72 55.67c.5-.02.86.42.85 1.34v1.85h-.84M115.19 59.5v-5.15h-.83l-.01 5.14M115.19 54.35s.1-.02.12-.05l.03-.1-1.15.01s.02.1.07.12c.04.02.1.02.1.02" style="fill:none;stroke:#140533;stroke-width:.04482821;stroke-linecap:round;stroke-linejoin:round;stroke-miterlimit:22.9255867;stroke-opacity:1"/><path d="M115.47 54h-1.38v.2h1.38zm0 0" style="fill:none;stroke:#140533;stroke-width:.04494124;stroke-linecap:round;stroke-linejoin:round;stroke-miterlimit:22.9255867;stroke-opacity:1"/><path d="m121.2 59.96-.14-2.02h.4l.1.18v1.35s-.1.05-.09.1l.02.12s-.07.06-.07.14V60M121.06 57.94l-5.87-3.59M121.3 57.94l-6-3.65M121.48 57.92l-6.01-3.72M114.3 54.34h-3.57" style="fill:none;stroke:#140533;stroke-width:.04482821;stroke-linecap:round;stroke-linejoin:round;stroke-miterlimit:22.9255867;stroke-opacity:1"/><path d="M114.2 54.22h-3.47" style="fill:none;stroke:#140533;stroke-width:.04495074;stroke-linecap:round;stroke-linejoin:round;stroke-miterlimit:22.9255867;stroke-opacity:1"/><path d="M114.08 54.07h-3.35" style="fill:none;stroke:#140533;stroke-width:.04471966;stroke-linecap:round;stroke-linejoin:round;stroke-miterlimit:22.9255867;stroke-opacity:1"/><path d="M115.23 53.52h-.76v.47h.76zM115.1 52.04h-.54v1.48h.54zm0 0" style="fill:none;stroke:#140533;stroke-width:.04482821;stroke-linecap:round;stroke-linejoin:round;stroke-miterlimit:22.9255867;stroke-opacity:1"/><path d="m121.41 55.81-6.3-3.77-4.38.01" style="fill:none;stroke:#140533;stroke-width:.04482821;stroke-linecap:round;stroke-linejoin:round;stroke-miterlimit:22.9255867;stroke-opacity:1"/><path d="M110.73 51.9h4.4l6.27 3.7h.6c.1.06.1.16-.01.2l.14 2.02s.12.05.1.14c0 .08-.06.1-.15.1h-.5s-.12-.07-.1-.14l.06-.16-.13-1.96M123.9 55.78c-.15-.02-.14-.15-.1-.18l-.06-.13c-.12-.02-.1-.14-.05-.14h.58l.11.3c.15-.01.22.13.1.16l.17 2.03s.12.05.11.14c0 .08-.06.1-.15.1h-.51s-.11-.07-.1-.14l.06-.16zm0 0" style="fill:none;stroke:#140533;stroke-width:.04482821;stroke-linecap:round;stroke-linejoin:round;stroke-miterlimit:22.9255867;stroke-opacity:1"/><path d="M124.64 58.06h-.55v1.4h.55zm0 0" style="fill:none;stroke:#140533;stroke-width:.04479692;stroke-linecap:round;stroke-linejoin:round;stroke-miterlimit:22.9255867;stroke-opacity:1"/><path d="M124.73 60v-.42s0-.05-.04-.08c-.05-.04-.11-.04-.11-.04h-.49s-.07 0-.09.07c-.02.12 0 .45 0 .46M121.57 59.47h.53s.08 0 .1.1c.02.09.02.46.02.46M122.11 58.06l.01 1.41M123.99 59.65h-1.78" style="fill:none;stroke:#140533;stroke-width:.04482821;stroke-linecap:round;stroke-linejoin:round;stroke-miterlimit:22.9255867;stroke-opacity:1"/><path d="M124.02 59.5h-1.85" style="fill:none;stroke:#140533;stroke-width:.04499755;stroke-linecap:round;stroke-linejoin:round;stroke-miterlimit:22.9255867;stroke-opacity:1"/><path d="M124.08 59.21h-1.96" style="fill:none;stroke:#140533;stroke-width:.04499839;stroke-linecap:round;stroke-linejoin:round;stroke-miterlimit:22.9255867;stroke-opacity:1"/><path d="M124.1 59.07h-1.96" style="fill:none;stroke:#140533;stroke-width:.04492557;stroke-linecap:round;stroke-linejoin:round;stroke-miterlimit:22.9255867;stroke-opacity:1"/><path d="M124.08 58.78h-1.96" style="fill:none;stroke:#140533;stroke-width:.04499839;stroke-linecap:round;stroke-linejoin:round;stroke-miterlimit:22.9255867;stroke-opacity:1"/><path d="M124.1 58.64h-1.96" style="fill:none;stroke:#140533;stroke-width:.04492557;stroke-linecap:round;stroke-linejoin:round;stroke-miterlimit:22.9255867;stroke-opacity:1"/><path d="M124.08 58.34h-1.96" style="fill:none;stroke:#140533;stroke-width:.04499839;stroke-linecap:round;stroke-linejoin:round;stroke-miterlimit:22.9255867;stroke-opacity:1"/><path d="M124.1 58.2h-1.96" style="fill:none;stroke:#140533;stroke-width:.04492557;stroke-linecap:round;stroke-linejoin:round;stroke-miterlimit:22.9255867;stroke-opacity:1"/><path d="M124 57.92h-1.78" style="fill:none;stroke:#140533;stroke-width:.04508501;stroke-linecap:round;stroke-linejoin:round;stroke-miterlimit:22.9255867;stroke-opacity:1"/><path d="M124.06 57.78h-1.93" style="fill:none;stroke:#140533;stroke-width:.04480318;stroke-linecap:round;stroke-linejoin:round;stroke-miterlimit:22.9255867;stroke-opacity:1"/><path d="M124.04 57.78s-.12.01-.17-.04c-.04-.05 0-.14 0-.14s-.06-.02-.08-.07c-.01-.06.03-.1-.05-.11-.08-.02-.08-.13-.08-.13h-1.57M123.66 57.29l.02-.22c0-.07.02-.12.07-.16.04-.05.07.01.1.01M123.88 56v.79c0 .13-.01.24.01.35.02.1.01.17.01.17M110.97 52.05v1.46M110.73 53.51h.38v.56M114.47 53.55h-3.36M114.5 53.52v-.2h-.3v.23" style="fill:none;stroke:#140533;stroke-width:.04482821;stroke-linecap:round;stroke-linejoin:round;stroke-miterlimit:22.9255867;stroke-opacity:1"/><path d="M114.44 53.32v-.09h-.18v.1" style="fill:none;stroke:#140533;stroke-width:.04472673;stroke-linecap:round;stroke-linejoin:round;stroke-miterlimit:22.9255867;stroke-opacity:1"/><path d="M114.27 53.24s-.05-.04-.04-.1c0-.05.1-.08.09-.12 0-.04-.08-.06-.1-.1-.03-.06-.03-.16 0-.24.05-.09.1-.04.08-.15-.03-.12-.12-.13-.07-.17.05-.05.13-.05.07-.07-.06-.02-.16-.21.07-.24" style="fill:none;stroke:#140533;stroke-width:.04482821;stroke-linecap:round;stroke-linejoin:round;stroke-miterlimit:22.9255867;stroke-opacity:1"/><path d="M114.44 53.24s.05-.04.04-.1c-.01-.05-.1-.08-.1-.12 0-.04.08-.06.1-.1.04-.06.04-.16 0-.24-.05-.09-.1-.04-.07-.15.02-.12.11-.13.06-.17-.05-.05-.13-.05-.07-.07.07-.02.16-.21-.06-.24M113.92 53.54v-.23h-.3v.24" style="fill:none;stroke:#140533;stroke-width:.04482821;stroke-linecap:round;stroke-linejoin:round;stroke-miterlimit:22.9255867;stroke-opacity:1"/><path d="M113.86 53.32v-.09h-.17v.1" style="fill:none;stroke:#140533;stroke-width:.04472673;stroke-linecap:round;stroke-linejoin:round;stroke-miterlimit:22.9255867;stroke-opacity:1"/><path d="M113.69 53.24s-.05-.04-.04-.1c0-.05.1-.08.1-.12 0-.04-.09-.06-.11-.1-.03-.06-.03-.16 0-.24.05-.09.1-.04.08-.15-.03-.12-.12-.13-.07-.17.06-.05.14-.05.07-.07-.06-.02-.16-.21.07-.24" style="fill:none;stroke:#140533;stroke-width:.04482821;stroke-linecap:round;stroke-linejoin:round;stroke-miterlimit:22.9255867;stroke-opacity:1"/><path d="M113.86 53.24s.05-.04.04-.1c-.01-.05-.1-.08-.1-.12 0-.04.08-.06.11-.1.03-.06.03-.16-.01-.24-.04-.09-.1-.04-.07-.15.03-.12.12-.13.06-.17-.05-.05-.13-.05-.07-.07.07-.02.16-.21-.06-.24M113.29 53.54v-.23h-.3v.24" style="fill:none;stroke:#140533;stroke-width:.04482821;stroke-linecap:round;stroke-linejoin:round;stroke-miterlimit:22.9255867;stroke-opacity:1"/><path d="M113.23 53.32v-.09h-.18v.1" style="fill:none;stroke:#140533;stroke-width:.04472673;stroke-linecap:round;stroke-linejoin:round;stroke-miterlimit:22.9255867;stroke-opacity:1"/><path d="M113.06 53.24s-.05-.04-.04-.1c0-.05.1-.08.09-.12 0-.04-.08-.06-.1-.1-.03-.06-.03-.16 0-.24.05-.09.1-.04.08-.15-.03-.12-.12-.13-.07-.17.05-.05.13-.05.07-.07-.06-.02-.16-.21.07-.24" style="fill:none;stroke:#140533;stroke-width:.04482821;stroke-linecap:round;stroke-linejoin:round;stroke-miterlimit:22.9255867;stroke-opacity:1"/><path d="M113.23 53.24s.05-.04.04-.1c-.01-.05-.1-.08-.1-.12 0-.04.08-.06.11-.1.03-.06.03-.16-.02-.24-.04-.09-.1-.04-.06-.15.03-.12.11-.13.06-.17-.05-.05-.13-.05-.07-.07.07-.02.16-.21-.06-.24M112.62 53.54v-.23h-.3v.24" style="fill:none;stroke:#140533;stroke-width:.04482821;stroke-linecap:round;stroke-linejoin:round;stroke-miterlimit:22.9255867;stroke-opacity:1"/><path d="M112.56 53.32v-.09h-.18v.1" style="fill:none;stroke:#140533;stroke-width:.04472673;stroke-linecap:round;stroke-linejoin:round;stroke-miterlimit:22.9255867;stroke-opacity:1"/><path d="M112.38 53.24s-.05-.04-.03-.1c0-.05.1-.08.09-.12 0-.04-.08-.06-.1-.1-.04-.06-.03-.16 0-.24.05-.09.1-.04.07-.15-.02-.12-.11-.13-.06-.17.05-.05.13-.05.07-.07-.06-.02-.16-.21.07-.24" style="fill:none;stroke:#140533;stroke-width:.04482821;stroke-linecap:round;stroke-linejoin:round;stroke-miterlimit:22.9255867;stroke-opacity:1"/><path d="M112.56 53.24s.05-.04.04-.1c-.01-.05-.1-.08-.1-.12 0-.04.08-.06.1-.1.04-.06.04-.16 0-.24-.05-.09-.1-.04-.07-.15.03-.12.11-.13.06-.17-.05-.05-.13-.05-.07-.07.07-.02.16-.21-.06-.24M111.97 53.54v-.23h-.29v.24" style="fill:none;stroke:#140533;stroke-width:.04482821;stroke-linecap:round;stroke-linejoin:round;stroke-miterlimit:22.9255867;stroke-opacity:1"/><path d="M111.91 53.32v-.09h-.17v.1" style="fill:none;stroke:#140533;stroke-width:.04472673;stroke-linecap:round;stroke-linejoin:round;stroke-miterlimit:22.9255867;stroke-opacity:1"/><path d="M111.74 53.24s-.05-.04-.04-.1c.01-.05.1-.08.1-.12 0-.04-.08-.06-.11-.1-.03-.06-.03-.16.01-.24.04-.09.1-.04.07-.15-.03-.12-.11-.13-.06-.17.05-.05.13-.05.07-.07-.07-.02-.16-.21.06-.24" style="fill:none;stroke:#140533;stroke-width:.04482821;stroke-linecap:round;stroke-linejoin:round;stroke-miterlimit:22.9255867;stroke-opacity:1"/><path d="M111.91 53.24s.05-.04.04-.1c0-.05-.1-.08-.1-.12.01-.04.09-.06.12-.1.02-.06.02-.16-.02-.24-.04-.09-.1-.04-.07-.15.03-.12.12-.13.07-.17-.06-.05-.13-.05-.07-.07.06-.02.16-.21-.07-.24M111.36 53.54v-.23h-.29v.24" style="fill:none;stroke:#140533;stroke-width:.04482821;stroke-linecap:round;stroke-linejoin:round;stroke-miterlimit:22.9255867;stroke-opacity:1"/><path d="M111.3 53.32v-.09h-.17v.1" style="fill:none;stroke:#140533;stroke-width:.04472673;stroke-linecap:round;stroke-linejoin:round;stroke-miterlimit:22.9255867;stroke-opacity:1"/><path d="M111.13 53.24s-.05-.04-.04-.1c.01-.05.1-.08.1-.12 0-.04-.08-.06-.11-.1-.03-.06-.03-.16.01-.24.04-.09.1-.04.07-.15-.03-.12-.12-.13-.07-.17.06-.05.14-.05.07-.07-.06-.02-.15-.21.07-.24" style="fill:none;stroke:#140533;stroke-width:.04482821;stroke-linecap:round;stroke-linejoin:round;stroke-miterlimit:22.9255867;stroke-opacity:1"/><path d="M111.3 53.24s.05-.04.04-.1c-.01-.05-.1-.08-.1-.12 0-.04.08-.06.11-.1.03-.06.03-.16-.01-.24-.04-.09-.1-.04-.07-.15.03-.12.12-.13.06-.17-.05-.05-.13-.05-.06-.07.06-.02.15-.21-.07-.24M123.74 53.63h5.04" style="fill:none;stroke:#140533;stroke-width:.04482821;stroke-linecap:round;stroke-linejoin:round;stroke-miterlimit:22.9255867;stroke-opacity:1"/><path d="m123.74 53.8 5.59-.02-.26.2" style="fill:none;stroke:#140533;stroke-width:.04473512;stroke-linecap:round;stroke-linejoin:round;stroke-miterlimit:22.9255867;stroke-opacity:1"/><path d="M123.98 53.98h5.11M123.74 53.63v.16l.24.19v.16h4.97c.1-.05.11-.11.12-.18" style="fill:none;stroke:#140533;stroke-width:.04473888;stroke-linecap:round;stroke-linejoin:round;stroke-miterlimit:22.9255867;stroke-opacity:1"/><path d="m128.7 52.8.68.96M124.64 58.98h4.23v-.52h-4.23zM128.75 54.13v4.33" style="fill:none;stroke:#140533;stroke-width:.04482821;stroke-linecap:round;stroke-linejoin:round;stroke-miterlimit:22.9255867;stroke-opacity:1"/><path d="M128.68 51.7h-.46v1.41h.46zm0 0" style="fill:none;stroke:#140533;stroke-width:.04467839;stroke-linecap:round;stroke-linejoin:round;stroke-miterlimit:22.9255867;stroke-opacity:1"/><path d="M128.79 53.12h-.69v.5h.69zm0 0" style="fill:none;stroke:#140533;stroke-width:.0450059;stroke-linecap:round;stroke-linejoin:round;stroke-miterlimit:22.9255867;stroke-opacity:1"/><path d="m128.22 53.1-3.52-.01M124.31 53.63h.42v-.54h-.42zm0 0" style="fill:none;stroke:#140533;stroke-width:.04482821;stroke-linecap:round;stroke-linejoin:round;stroke-miterlimit:22.9255867;stroke-opacity:1"/><path d="M124.31 53.09h.32V51.7h-.32zm0 0" style="fill:none;stroke:#140533;stroke-width:.04472444;stroke-linecap:round;stroke-linejoin:round;stroke-miterlimit:22.9255867;stroke-opacity:1"/><path d="M124.3 51.62h4.51l-1.04-1.31-3.44-.01v.13l3 .01.69.99h-3.74" style="fill:none;stroke:#140533;stroke-width:.04482821;stroke-linecap:round;stroke-linejoin:round;stroke-miterlimit:22.9255867;stroke-opacity:1"/><path d="M124.31 51.7h4.37l.17-.06" style="fill:none;stroke:#140533;stroke-width:.0447161;stroke-linecap:round;stroke-linejoin:round;stroke-miterlimit:22.9255867;stroke-opacity:1"/><path d="M125.63 53.08v-.22h-.29v.23" style="fill:none;stroke:#140533;stroke-width:.04482821;stroke-linecap:round;stroke-linejoin:round;stroke-miterlimit:22.9255867;stroke-opacity:1"/><path d="M125.57 52.87v-.08h-.17v.1M125.4 52.79s-.05-.04-.04-.1c0-.04.1-.07.1-.11-.01-.04-.09-.05-.11-.1-.03-.05-.03-.14.01-.23.04-.08.1-.03.07-.14-.03-.11-.12-.12-.07-.16.06-.05.14-.05.07-.07-.04-.02-.1-.12-.05-.19M125.57 52.79s.05-.04.04-.1c-.01-.04-.1-.07-.1-.11 0-.04.08-.05.11-.1s.03-.14-.01-.23c-.04-.08-.1-.03-.07-.14.03-.11.12-.12.06-.16-.05-.05-.13-.05-.07-.07.05-.02.12-.12.05-.19M128.13 53.08v-.22h-.29v.23" style="fill:none;stroke:#140533;stroke-width:.04482821;stroke-linecap:round;stroke-linejoin:round;stroke-miterlimit:22.9255867;stroke-opacity:1"/><path d="M128.08 52.87v-.08h-.18v.1M127.9 52.79s-.05-.04-.04-.1c.01-.04.1-.07.1-.11 0-.04-.08-.05-.1-.1-.04-.05-.04-.14 0-.23.05-.08.1-.03.07-.14-.03-.11-.11-.12-.06-.16.05-.05.13-.05.07-.07-.05-.02-.1-.1-.06-.17M128.07 52.79s.06-.04.04-.1c0-.04-.1-.07-.1-.11.01-.04.09-.05.12-.1s.02-.14-.02-.23c-.04-.08-.1-.03-.07-.14.03-.11.12-.12.07-.16-.05-.05-.13-.05-.07-.07.04-.02.1-.1.06-.17M127.57 53.08v-.22h-.28v.23" style="fill:none;stroke:#140533;stroke-width:.04482821;stroke-linecap:round;stroke-linejoin:round;stroke-miterlimit:22.9255867;stroke-opacity:1"/><path d="M127.52 52.87v-.08h-.18v.1M127.34 52.79s-.05-.04-.04-.1c.01-.04.1-.07.1-.11 0-.04-.08-.05-.1-.1-.04-.05-.04-.14 0-.23.05-.08.1-.03.07-.14-.03-.11-.11-.12-.06-.16.05-.05.13-.05.07-.07-.05-.02-.1-.1-.06-.17M127.52 52.79s.04-.04.03-.1c0-.04-.1-.07-.09-.11 0-.04.08-.05.1-.1.03-.05.03-.14 0-.23-.05-.08-.1-.03-.08-.14.03-.11.12-.12.07-.16-.05-.05-.13-.05-.07-.07.04-.02.1-.1.06-.17M126.94 53.08v-.22h-.29v.23" style="fill:none;stroke:#140533;stroke-width:.04482821;stroke-linecap:round;stroke-linejoin:round;stroke-miterlimit:22.9255867;stroke-opacity:1"/><path d="M126.89 52.87v-.08h-.18v.1M126.71 52.79s-.05-.04-.04-.1c.01-.04.1-.07.1-.11 0-.04-.08-.05-.1-.1-.04-.05-.04-.14 0-.23.05-.08.1-.03.07-.14-.03-.11-.12-.12-.06-.16.05-.05.13-.05.07-.07-.05-.02-.1-.1-.06-.17M126.88 52.79s.05-.04.04-.1c0-.04-.1-.07-.1-.11.01-.04.09-.05.11-.1.03-.05.03-.14 0-.23-.05-.08-.1-.03-.08-.14.03-.11.12-.12.07-.16-.06-.05-.14-.05-.07-.07.04-.02.1-.1.06-.17M126.27 53.08v-.22h-.29v.23" style="fill:none;stroke:#140533;stroke-width:.04482821;stroke-linecap:round;stroke-linejoin:round;stroke-miterlimit:22.9255867;stroke-opacity:1"/><path d="M126.21 52.87v-.08h-.17v.1M126.04 52.79s-.05-.04-.04-.1c.01-.04.1-.07.1-.11 0-.04-.08-.05-.11-.1s-.03-.14.01-.23c.04-.08.1-.03.07-.14-.03-.11-.12-.12-.06-.16.05-.05.13-.05.07-.07-.05-.02-.11-.1-.06-.17M126.21 52.79s.05-.04.04-.1c0-.04-.1-.07-.1-.11 0-.04.09-.05.11-.1.03-.05.03-.14-.01-.23-.04-.08-.1-.03-.07-.14.03-.11.12-.12.07-.16-.06-.05-.14-.05-.07-.07.04-.02.1-.1.05-.17M125.02 53.08v-.22h-.3v.23" style="fill:none;stroke:#140533;stroke-width:.04482821;stroke-linecap:round;stroke-linejoin:round;stroke-miterlimit:22.9255867;stroke-opacity:1"/><path d="M124.96 52.87v-.08h-.17v.1M124.79 52.79s-.06-.04-.04-.1c0-.04.1-.07.09-.11 0-.04-.08-.05-.1-.1-.03-.05-.03-.14 0-.23.05-.08.1-.03.08-.14-.03-.11-.12-.12-.07-.16.05-.05.13-.05.07-.07-.04-.02-.1-.1-.06-.17M124.96 52.79s.05-.04.04-.1c-.01-.04-.1-.07-.1-.11 0-.04.08-.05.1-.1.04-.05.04-.14 0-.23-.05-.08-.1-.03-.07-.14.02-.11.11-.12.06-.16-.05-.05-.13-.05-.07-.07.05-.02.1-.1.06-.17M126.97 51.43v-.02c.01-.05.1-.08.1-.12 0-.04-.08-.05-.11-.1-.03-.04-.03-.14.01-.21.04-.09.1-.04.07-.15-.03-.1-.12-.12-.06-.16.05-.04.13-.04.06-.06-.04-.01-.1-.1-.05-.17M127.22 51.43v-.02c-.01-.05-.1-.08-.1-.12 0-.04.08-.05.11-.1.03-.04.03-.14-.01-.21-.04-.09-.1-.04-.07-.15.03-.1.11-.12.06-.16-.05-.04-.13-.04-.07-.06.05-.01.1-.1.06-.17M126.42 51.43v-.02c.01-.05.1-.08.1-.12 0-.03-.08-.05-.1-.1-.04-.04-.03-.14 0-.22.05-.08.1-.03.07-.14-.03-.1-.11-.12-.06-.16.05-.04.13-.04.07-.06-.05-.01-.1-.1-.06-.17M126.67 51.43v-.02c-.01-.05-.1-.08-.1-.12 0-.03.08-.05.11-.1.03-.04.03-.14-.01-.22-.04-.08-.1-.03-.07-.14.03-.1.12-.12.07-.16-.06-.04-.14-.04-.07-.06.04-.01.1-.1.05-.17M125.8 51.43v-.02c.02-.05.1-.08.1-.12 0-.03-.08-.05-.1-.1-.03-.04-.03-.14 0-.22.05-.08.1-.03.07-.14-.02-.1-.11-.12-.06-.16.06-.04.13-.04.07-.06-.04-.01-.1-.1-.06-.17M126.05 51.43v-.02c0-.05-.09-.08-.09-.12 0-.03.08-.05.1-.1.03-.04.03-.14 0-.22-.05-.08-.1-.03-.08-.14.03-.1.12-.12.07-.16-.05-.04-.13-.04-.07-.06.04-.01.1-.1.06-.17M125.15 51.43v-.02c.01-.05.1-.08.1-.12 0-.03-.08-.05-.11-.1-.03-.04-.03-.14.01-.22.04-.08.1-.03.07-.14-.03-.1-.12-.12-.06-.16.05-.04.13-.04.06-.06-.04-.01-.1-.1-.05-.17M125.4 51.43v-.02c-.01-.05-.1-.08-.1-.12 0-.03.08-.05.1-.1.04-.04.03-.14 0-.22-.05-.08-.1-.03-.07-.14.03-.1.11-.12.06-.16-.05-.04-.13-.04-.07-.06.05-.01.1-.1.06-.17M124.52 51.43v-.02c.01-.05.1-.08.1-.12 0-.03-.08-.05-.1-.1-.04-.04-.04-.14 0-.22.04-.08.1-.03.07-.14-.03-.1-.11-.12-.06-.16.05-.04.13-.04.07-.06-.05-.02-.11-.12-.05-.18M124.77 51.43v-.02c-.01-.05-.1-.08-.1-.12 0-.03.08-.05.11-.1.03-.04.03-.14-.01-.22-.04-.08-.1-.03-.07-.14.03-.1.12-.12.06-.16-.05-.04-.13-.04-.06-.06.04-.02.1-.12.04-.18M127.76 52.4s-.1-.11-.09-.17c.02-.05.1-.08.1-.12 0-.04-.08-.06-.1-.1-.04-.05-.03-.15 0-.24.03-.05.06-.05.08-.07m-.04-.27c.05-.03.1-.03.04-.05-.06-.02-.16-.21.07-.24M127.55 51.94c.03-.03.07-.05.07-.08 0-.02-.04-.06-.07-.07m.05-.36v-.06c-.03-.12-.12-.13-.07-.17.06-.04.14-.05.07-.07-.06-.02-.16-.2.07-.24M127.33 51.43c0-.05.01-.1.03-.14.04-.09.1-.03.07-.15s-.12-.13-.06-.17c.05-.05.13-.05.07-.07-.07-.02-.16-.21.06-.24" style="fill:none;stroke:#140533;stroke-width:.04482821;stroke-linecap:round;stroke-linejoin:round;stroke-miterlimit:22.9255867;stroke-opacity:1"/><path d="M127.87 52.75h-.17v-.36h.13M127.3 52.25h-.38" style="fill:none;stroke:#140533;stroke-width:.04482821;stroke-linecap:round;stroke-linejoin:round;stroke-miterlimit:22.9255867;stroke-opacity:1"/><path d="M126.66 52.25h-.4" style="fill:none;stroke:#140533;stroke-width:.04467988;stroke-linecap:round;stroke-linejoin:round;stroke-miterlimit:22.9255867;stroke-opacity:1"/><path d="M126 52.25h-.39M125.37 52.25H125M124.31 51.7l.02-4.88" style="fill:none;stroke:#140533;stroke-width:.04482821;stroke-linecap:round;stroke-linejoin:round;stroke-miterlimit:22.9255867;stroke-opacity:1"/><path d="m110.73 46.46 14.07-.01-.26.19" style="fill:none;stroke:#140533;stroke-width:.04473512;stroke-linecap:round;stroke-linejoin:round;stroke-miterlimit:22.9255867;stroke-opacity:1"/><path d="m110.74 46.65 13.83-.01M110.74 46.8h13.68c.11-.05.12-.1.12-.17" style="fill:none;stroke:#140533;stroke-width:.04473888;stroke-linecap:round;stroke-linejoin:round;stroke-miterlimit:22.9255867;stroke-opacity:1"/><path d="M124.75 46.45h.18v-.23l-14.2.03M124.42 45.55l.5.67M124.43 46.22l-.22-4.55-2.77-2.67-10.7-.01M123.24 48.25h-1.06v3.54h1.06zM123.24 48.5h-1.06M123.24 48.74h-1.06M123.24 48.97h-1.06M123.24 49.19h-1.06M123.24 49.43h-1.06M123.24 49.65h-1.06M123.24 49.9h-1.06M123.24 50.13h-1.06M123.24 50.36h-1.06M123.24 50.58h-1.06M123.24 50.82h-1.06M123.24 51.05h-1.06" style="fill:none;stroke:#140533;stroke-width:.04482821;stroke-linecap:round;stroke-linejoin:round;stroke-miterlimit:22.9255867;stroke-opacity:1"/><path d="M123.24 51.3h-1.06M123.24 51.56h-1.06" style="fill:none;stroke:#140533;stroke-width:.04508501;stroke-linecap:round;stroke-linejoin:round;stroke-miterlimit:22.9255867;stroke-opacity:1"/><path d="M120.25 48.25h-.95v3.54h.95zM120.25 48.5h-.95M120.25 48.74h-.95M120.25 48.97h-.95M120.25 49.19h-.95M120.25 49.43h-.95M120.25 49.65h-.95M120.25 49.9h-.95M120.25 50.13h-.95M120.25 50.36h-.95M120.25 50.58h-.95M120.25 50.82h-.95M120.25 51.05h-.95" style="fill:none;stroke:#140533;stroke-width:.04476533;stroke-linecap:round;stroke-linejoin:round;stroke-miterlimit:22.9255867;stroke-opacity:1"/><path d="M120.25 51.3h-.95M120.25 51.55h-.95" style="fill:none;stroke:#140533;stroke-width:.04487406;stroke-linecap:round;stroke-linejoin:round;stroke-miterlimit:22.9255867;stroke-opacity:1"/><path d="M122.5 48.25v-.2h-2.47v.2M122.18 48.34l-1.93-.01M122.43 51.79v.28h-2.35v-.28M122.18 51.8h-1.93M122.31 51.96l-2.1.01M115.23 53.52l6.28 3.82M118.23 48.25h-1.07v3.54h1.07zM118.23 48.5h-1.07M118.23 48.74h-1.07M118.23 48.97h-1.07M118.23 49.19h-1.07M118.23 49.43h-1.07M118.23 49.65h-1.07M118.23 49.9h-1.07M118.23 50.13h-1.07M118.23 50.36h-1.07M118.23 50.58h-1.07M118.23 50.82h-1.07M118.23 51.05h-1.07" style="fill:none;stroke:#140533;stroke-width:.04482821;stroke-linecap:round;stroke-linejoin:round;stroke-miterlimit:22.9255867;stroke-opacity:1"/><path d="M118.23 51.3h-1.07M118.23 51.56h-1.07" style="fill:none;stroke:#140533;stroke-width:.04508501;stroke-linecap:round;stroke-linejoin:round;stroke-miterlimit:22.9255867;stroke-opacity:1"/><path d="M115.23 48.25h-.95v3.54h.95zM115.23 48.5h-.95M115.23 48.74h-.95M115.23 48.97h-.95M115.23 49.19h-.95M115.23 49.43h-.95M115.23 49.65h-.95M115.23 49.9h-.95M115.23 50.13h-.95M115.23 50.36h-.95M115.23 50.58h-.95M115.23 50.82h-.95M115.23 51.05h-.95" style="fill:none;stroke:#140533;stroke-width:.04476533;stroke-linecap:round;stroke-linejoin:round;stroke-miterlimit:22.9255867;stroke-opacity:1"/><path d="M115.23 51.3h-.95M115.23 51.55h-.95" style="fill:none;stroke:#140533;stroke-width:.04487406;stroke-linecap:round;stroke-linejoin:round;stroke-miterlimit:22.9255867;stroke-opacity:1"/><path d="M117.48 48.25v-.2H115v.2M117.16 48.34l-1.93-.01M117.41 51.79v.28h-1.96l-.32-.18h-.07v-.1M117.16 51.8h-1.93M116.17 48.33l.01 3.47" style="fill:none;stroke:#140533;stroke-width:.04482821;stroke-linecap:round;stroke-linejoin:round;stroke-miterlimit:22.9255867;stroke-opacity:1"/><path d="M116.3 51.68v-.65h.35M116.79 51.68v-.65h.35" style="fill:none;stroke:#140533;stroke-width:.04476771;stroke-linecap:round;stroke-linejoin:round;stroke-miterlimit:22.9255867;stroke-opacity:1"/><path d="M116.3 50.87v-.74h.35M116.79 50.87v-.74h.35" style="fill:none;stroke:#140533;stroke-width:.04480527;stroke-linecap:round;stroke-linejoin:round;stroke-miterlimit:22.9255867;stroke-opacity:1"/><path d="M116.3 50v-.75h.35M116.79 50v-.75h.35" style="fill:none;stroke:#140533;stroke-width:.04493517;stroke-linecap:round;stroke-linejoin:round;stroke-miterlimit:22.9255867;stroke-opacity:1"/><path d="M116.3 49.1v-.65h.35M116.79 49.1v-.65h.35M115.3 51.03h.27M115.71 51.68v-.65h.35" style="fill:none;stroke:#140533;stroke-width:.04476771;stroke-linecap:round;stroke-linejoin:round;stroke-miterlimit:22.9255867;stroke-opacity:1"/><path d="M115.3 50.13h.27M115.71 50.87v-.74h.35" style="fill:none;stroke:#140533;stroke-width:.04480527;stroke-linecap:round;stroke-linejoin:round;stroke-miterlimit:22.9255867;stroke-opacity:1"/><path d="M115.3 49.25h.27M115.71 50v-.75h.35" style="fill:none;stroke:#140533;stroke-width:.04493517;stroke-linecap:round;stroke-linejoin:round;stroke-miterlimit:22.9255867;stroke-opacity:1"/><path d="M115.32 48.45h.25M115.71 49.1v-.65h.35" style="fill:none;stroke:#140533;stroke-width:.04476771;stroke-linecap:round;stroke-linejoin:round;stroke-miterlimit:22.9255867;stroke-opacity:1"/><path d="m117.3 51.96-2.04.01M110.73 48.02h1.83v3.87" style="fill:none;stroke:#140533;stroke-width:.04482821;stroke-linecap:round;stroke-linejoin:round;stroke-miterlimit:22.9255867;stroke-opacity:1"/><path d="M110.72 48.32h1.54v3.57" style="fill:none;stroke:#140533;stroke-width:.04476088;stroke-linecap:round;stroke-linejoin:round;stroke-miterlimit:22.9255867;stroke-opacity:1"/><path d="M110.81 48.32v3.58M112.26 52.05l.01 1.38h-.3M111.68 53.43h-.32M111.07 53.43h-.1M112.57 52.44v.2" style="fill:none;stroke:#140533;stroke-width:.04482821;stroke-linecap:round;stroke-linejoin:round;stroke-miterlimit:22.9255867;stroke-opacity:1"/><path d="M112.57 52.95v.15" style="fill:none;stroke:#140533;stroke-width:.04501702;stroke-linecap:round;stroke-linejoin:round;stroke-miterlimit:22.9255867;stroke-opacity:1"/><path d="M112.24 48.5h-1.43M112.24 48.74h-1.43M112.24 48.97h-1.43M112.24 49.19h-1.43M112.24 49.43h-1.43M112.24 49.65h-1.43M112.24 49.9h-1.43M112.24 50.13h-1.43M112.24 50.36h-1.43M112.24 50.58h-1.43M112.24 50.82h-1.43M112.24 51.05h-1.43" style="fill:none;stroke:#140533;stroke-width:.0448353;stroke-linecap:round;stroke-linejoin:round;stroke-miterlimit:22.9255867;stroke-opacity:1"/><path d="M112.24 51.3h-1.43M112.24 51.55h-1.43M112.24 51.8h-1.43M112.24 52.24h-.31" style="fill:none;stroke:#140533;stroke-width:.04513019;stroke-linecap:round;stroke-linejoin:round;stroke-miterlimit:22.9255867;stroke-opacity:1"/><path d="M111.73 52.24h-.42" style="fill:none;stroke:#140533;stroke-width:.04473332;stroke-linecap:round;stroke-linejoin:round;stroke-miterlimit:22.9255867;stroke-opacity:1"/><path d="M112.24 52.47h-.33" style="fill:none;stroke:#140533;stroke-width:.04513019;stroke-linecap:round;stroke-linejoin:round;stroke-miterlimit:22.9255867;stroke-opacity:1"/><path d="M111.75 52.47h-.46" style="fill:none;stroke:#140533;stroke-width:.04473332;stroke-linecap:round;stroke-linejoin:round;stroke-miterlimit:22.9255867;stroke-opacity:1"/><path d="M112.25 52.7h-.29" style="fill:none;stroke:#140533;stroke-width:.04493906;stroke-linecap:round;stroke-linejoin:round;stroke-miterlimit:22.9255867;stroke-opacity:1"/><path d="M111.7 52.7h-.35" style="fill:none;stroke:#140533;stroke-width:.04473666;stroke-linecap:round;stroke-linejoin:round;stroke-miterlimit:22.9255867;stroke-opacity:1"/><path d="M112.25 52.93h-.3" style="fill:none;stroke:#140533;stroke-width:.04485613;stroke-linecap:round;stroke-linejoin:round;stroke-miterlimit:22.9255867;stroke-opacity:1"/><path d="M111.7 52.93h-.36" style="fill:none;stroke:#140533;stroke-width:.04465732;stroke-linecap:round;stroke-linejoin:round;stroke-miterlimit:22.9255867;stroke-opacity:1"/><path d="M112.25 53.17h-.3" style="fill:none;stroke:#140533;stroke-width:.04485613;stroke-linecap:round;stroke-linejoin:round;stroke-miterlimit:22.9255867;stroke-opacity:1"/><path d="M111.7 53.17h-.36" style="fill:none;stroke:#140533;stroke-width:.04465732;stroke-linecap:round;stroke-linejoin:round;stroke-miterlimit:22.9255867;stroke-opacity:1"/><path d="M111.11 52.24h-.14M111.14 52.47h-.17" style="fill:none;stroke:#140533;stroke-width:.04513019;stroke-linecap:round;stroke-linejoin:round;stroke-miterlimit:22.9255867;stroke-opacity:1"/><path d="M111.1 52.7h-.14" style="fill:none;stroke:#140533;stroke-width:.04493906;stroke-linecap:round;stroke-linejoin:round;stroke-miterlimit:22.9255867;stroke-opacity:1"/><path d="M111.1 52.93h-.13M111.1 53.17h-.13" style="fill:none;stroke:#140533;stroke-width:.04485613;stroke-linecap:round;stroke-linejoin:round;stroke-miterlimit:22.9255867;stroke-opacity:1"/><path d="m92.92 54.13 3.41 4.85M92.7 54.43l3.2 4.55M92.7 55.06l2.76 3.92M92.7 55.67l2.33 3.3M92.7 56.31l1.87 2.67M92.7 56.93l1.44 2.05M92.7 57.56l1 1.42M92.7 58.17l.57.8M92.58 58.65l.24.33M102.8 53.82l.08.11m1.16 1.65.07.09M102.49 53.98l.09.13m1.16 1.66.07.1M102.16 54.14l.1.16m1.17 1.65.1.14M101.83 54.3l.13.18m1.17 1.66.14.2M101.49 54.45l.15.21m1.09 1.55h0m.08.12.21.3m2 2.85h.01M101.16 54.6l.18.25m1.07 1.52.02.03m.08.12.3.4m1.76 2.51.03.06M100.8 54.72l.22.31m.1.13.02.03m.94 1.34.04.06m.08.12.36.5m1.52 2.16.08.11M100.42 54.79l.3.42m.1.14.1.14m.84 1.2.06.09m.08.11.43.61m1.24 1.76.16.22M100.04 54.9l.36.5m.1.14.2.3m.72 1.01.08.12m.09.12.8 1.14m.6.85.29.4M99.7 55.03l.4.55m.1.14.5.72m.27.38.23.34m.08.11 1.56 2.21M99.4 55.21l.24.36m.38.53.88 1.25m.08.11 1.42 2.02M97.9 53.72l.07.09m1.13 1.6.36.5m.52.76.61.86m.08.12 1.3 1.83M97.58 53.9l.32.45m.64.92.88 1.23m.53.76.33.47m.08.1 1.16 1.65M97.32 54.14l2.06 2.92m.58.82.02.03m.38.55.72 1.02M96.87 54.14l.84 1.19m.07.1 1.32 1.86m1.22 1.74.32.45M96.44 54.14l.84 1.19m.31.44 1.08 1.53M96 54.14l1.04 1.48m.55.78.63.9M95.56 54.14l1.39 1.97M95.12 54.14l1.78 2.52M94.68 54.13l2.17 3.08M94.23 54.13l2.57 3.65M93.8 54.13l3.01 4.28M93.36 54.13l3.41 4.85M112.6 55.88l.86 1.21M111.87 55.46l1.84 2.61M111.35 55.34l2.39 3.4M110.9 55.32l2.85 4.05M110.46 55.34l2.9 4.1M110.07 55.4l2.77 3.93M109.7 55.5l2.65 3.76M109.36 55.64l2.55 3.6M109.04 55.82l2.41 3.43M108.77 56.04l2.24 3.2M108.5 56.3l2.03 2.88M108.28 56.6l1.79 2.53M106.25 54.34v.02m1.8 2.56 1.57 2.22M105.89 54.45l.06.09m1.94 2.76 1.35 1.9M104.42 53l.01.01m1.15 1.63.06.08m2.15 3.05 1.05 1.5M104.1 53.16l.03.03m1.15 1.64.05.07m2.4 3.4.72 1.03M103.77 53.33l.04.05m1.15 1.64.06.08m2.67 3.8.34.47M103.46 53.5l.04.06m1.16 1.64.05.08M103.13 53.66l.06.09m1.16 1.64.06.08M123.41 54.4l.66.92m.42.6 2.15 3.06M123.1 54.57l.55.77m.09.13h0m.8 1.15 1.67 2.36M122.7 54.63l1.19 1.68m.72 1.02 1.16 1.65M122.32 54.7l1.54 2.18m.82 1.17.66.93M121.92 54.76l1.71 2.44m1.03 1.46.22.32M121.48 54.76l1.78 2.53M120.95 54.64l.68.96m.38.54.81 1.15M120.35 54.4l.71 1m1 1.42.33.47M119.68 54.09l.6.85M119.04 53.8l.5.7M118.4 53.51l.39.55M117.78 53.24l.26.38M117.13 52.96l.14.2M116.51 52.7l.02.02M128.06 54.13l.03.04M127.63 54.13l.05.08M127.2 54.13l.07.11M126.76 54.13l.1.15M126.31 54.14l.13.17M125.88 54.14l.15.2M125.44 54.14l.17.24M125 54.14l.2.28M124.55 54.14l.42.59M124.12 54.14l1.97 2.8M123.64 54.08l2.37 3.36m.88 1.26.2.28M105.23 54.96l.2-.23M105.82 54.62l.2-.25M107.91 57.23l1.25-1.48M107.8 57.7l1.84-2.18M107.8 58.04l.24-.29m.36-.41 1.62-1.93M108.98 56.98l1.37-1.63M109.35 56.89l1.32-1.57M109.7 56.81l1.26-1.5M110.04 56.75l1.2-1.42M110.37 56.7l1.12-1.34M110.7 56.66l1.04-1.24M111 56.64l.96-1.15M111.28 56.64l.89-1.05M111.54 56.67l.82-.97M111.77 56.73l.76-.9M111.97 56.83l.73-.86M112.16 56.95l.7-.82M112.36 57.04l.63-.75M112.6 57.11l.53-.63M107.76 58.99h5.28" style="fill:none;stroke:#140533;stroke-width:.03413315;stroke-linecap:round;stroke-linejoin:round;stroke-miterlimit:22.9255867;stroke-opacity:1"/><path d="m97.2 58.08.14.17M96.83 58.09l.52.61M96.83 58.55l.52.62M96.83 59l.63.76M96.83 59.47l.44.52M96.73 59.8l.16.2" style="fill:none;stroke:#140533;stroke-width:.03412035;stroke-linecap:round;stroke-linejoin:round;stroke-miterlimit:22.9255867;stroke-opacity:1"/><path d="m99.73 58.08.15.17M99.34 58.1l.54.6M99.34 58.55l.55.62M99.34 59l.67.76M99.34 59.47l.46.53M99.23 59.8l.18.2" style="fill:none;stroke:#140533;stroke-width:.03410716;stroke-linecap:round;stroke-linejoin:round;stroke-miterlimit:22.9255867;stroke-opacity:1"/><path d="m121.97 58.08.14.17M121.59 58.1l.51.6M121.58 58.55l.52.62M121.57 59l.63.76M121.56 59.47l.44.53M121.45 59.8l.16.2" style="fill:none;stroke:#140533;stroke-width:.03433245;stroke-linecap:round;stroke-linejoin:round;stroke-miterlimit:22.9255867;stroke-opacity:1"/><path d="m124.47 58.08.14.17M124.1 58.1l.52.6M124.1 58.55l.52.62M124.1 59l.64.76M124.1 59.47l.44.53M123.99 59.8l.17.2" style="fill:none;stroke:#140533;stroke-width:.03407735;stroke-linecap:round;stroke-linejoin:round;stroke-miterlimit:22.9255867;stroke-opacity:1"/><path d="M111.15 46.49h.01M110.62 46.49l.3.22M110.1 46.49l.66.48M109.58 46.49l.8.6M109.1 46.49l.86.64M108.57 46.49l.94.7M108.05 46.49l.98.72M107.53 46.49l.97.72M106.96 46.49l.95.7M106.43 46.49l.91.67M105.92 46.49l.84.62M105.39 46.49l.76.56M104.87 46.49l.73.54M104.34 46.49l.73.54M103.83 46.49l.73.54M103.3 46.49l.74.54M102.82 46.49l.75.56M102.29 46.49l.78.57M101.77 46.49l.8.6M101.25 46.49l.84.62M100.7 46.49l.9.67M100.16 46.49l.98.72M99.64 46.49l.98.72M99.12 46.49l.97.72M98.6 46.49l.98.72M98.08 46.49l.97.72M97.6 46.49l.97.72M97.28 46.65l.76.56M97.1 46.9l.42.3M96.99 47.2h0M124.7 46.49h.02M124.18 46.49l.3.22M123.66 46.49l.66.48M123.14 46.49l.8.6M122.65 46.49l.87.64M122.12 46.49l.94.7M121.61 46.49l.97.72M121.08 46.49l.98.72M120.51 46.49l.96.7M119.99 46.49l.9.67M119.47 46.49l.85.62M118.95 46.49l.76.56M118.43 46.49l.73.54M117.9 46.49l.73.54M117.39 46.49l.73.54M116.86 46.49l.74.54M116.37 46.49l.76.56M115.85 46.49l.77.57M115.33 46.49l.8.6M114.8 46.49l.85.62M114.25 46.49l.9.67M113.72 46.49l.98.72M113.2 46.49l.98.72M112.67 46.49l.98.72M112.16 46.49l.97.72M111.63 46.49l.98.72M111.15 46.49l.97.72M110.84 46.65l.76.56M110.66 46.9l.42.3M110.54 47.2h.01" style="fill:none;stroke:#140533;stroke-width:.03430939;stroke-linecap:round;stroke-linejoin:round;stroke-miterlimit:22.9255867;stroke-opacity:1"/><path d="m97.69 41.24-.46.6M99.82 39.26l-2.63 3.42M100.3 39.4l-3.15 4.12M100.68 39.74l-3.57 4.65M101.07 40l-3.9 5.08M101.5 40.24l-4.26 5.57M101.94 40.44l-4.43 5.8M102.42 40.63l-4.29 5.6M102.9 40.79l-4.17 5.44M103.4 40.93l-4.06 5.3M103.9 41.05l-3.96 5.18M104.45 41.16l-3.89 5.07M104.96 41.28l-3.8 4.95M105.47 41.41l-3.7 4.82M105.95 41.56l-3.58 4.67M106.44 41.73l-3.45 4.5M106.9 41.91l-3.31 4.32M107.35 42.12l-3.15 4.11M107.79 42.33l-3 3.9M108.23 42.57l-2.8 3.66M108.65 42.8l-2.63 3.43M109.07 43.05l-2.44 3.18M109.48 43.3l-2.25 2.93M109.9 43.53l-2.07 2.7M110.33 43.75l-1.9 2.48M110.78 43.96l-1.74 2.27M111.24 44.14l-1.6 2.1M111.74 44.3l-1.48 1.93M112.24 44.43l-1.38 1.8M112.77 44.54l-1.3 1.7M113.3 44.62l-1.23 1.61M113.88 44.69l-1.19 1.54M114.44 44.73l-1.15 1.5M115.03 44.76l-1.13 1.47M115.61 44.78l-1.11 1.45M116.23 44.8l-1.1 1.43M116.81 44.81l-1.09 1.42M117.4 44.83l-1.07 1.4M117.97 44.87l-1.04 1.36M118.55 44.93l-1 1.3M119.09 45.02l-.94 1.21M119.63 45.1l-.87 1.13M120.17 45.19l-.8 1.04M120.74 45.26l-.75.97M121.29 45.32l-.7.91M121.86 45.37l-.66.86M122.42 45.42l-.62.81M123 45.47l-.58.76M123.57 45.5l-.56.73M124.16 45.54l-.54.7M124.45 45.94l-.23.3" style="fill:none;stroke:#140533;stroke-width:.03413315;stroke-linecap:round;stroke-linejoin:round;stroke-miterlimit:22.9255867;stroke-opacity:1"/><path d="M138.97 49.48v.46M82.58 49.48v.46" style="fill:none;stroke:#140533;stroke-width:.03413315;stroke-linecap:butt;stroke-linejoin:miter;stroke-miterlimit:22.9255867;stroke-opacity:1"/><path d="m152.2 77.2 2.73 1.58M151.19 77.25l2.76 1.6M150.27 77.3l2.77 1.61M149.27 77.37l2.77 1.6M148.3 77.43l2.73 1.57M147.33 77.5l2.62 1.52M146.32 77.6l2.46 1.42M145.75 77.9l2.03 1.18M145.4 78.33l1.5.87M144.9 78.68l1.18.68M144.14 78.86l1.2.7M143.1 78.9l1.54.89M142.3 79.02l1.72 1M141.47 79.18l1.9 1.1M140.73 79.38l2.03 1.17M140.86 80.09l1.26.72M153.23 77.14l2.76 1.6M154.24 77.09l2.97 1.72M155.17 77.04l4.7 2.72M156.18 76.98l6.3 3.65M157.17 76.93l3.02 1.75m.2.12 4.06 2.35M158.2 76.89l2 1.15m1.92 1.12 4.17 2.42M159.27 76.83l.33.2m3.68 2.13 4.86 2.82M164.4 79.16l5.42 3.15M165.54 79.2l5.35 3.1M166.65 79.2l5.27 3.05M167.73 79.2l5.1 2.96M168.83 79.2l4.86 2.82M169.85 79.2l4.64 2.7M170.95 79.2l4.53 2.63M171.98 79.18l4.57 2.64M173.09 79.18l4.6 2.67M174.25 79.18l4.67 2.71M175.35 79.18l4.64 2.7M176.43 79.19l4.45 2.57M177.54 79.19l4.25 2.46M178.63 79.2l4.06 2.34M179.74 79.2l3.88 2.24M180.82 79.2l3.7 2.14M181.93 79.2l3.53 2.04M182.94 79.2l3.38 1.96M184.05 79.2l3.22 1.87M185.13 79.2l3.08 1.79M186.24 79.2l2.94 1.71M187.43 79.2l2.82 1.64M188.54 79.2l2.71 1.58M189.62 79.21l2.64 1.53M190.72 79.21l2.61 1.52M191.82 79.21l2.61 1.52M192.92 79.22l2.66 1.53M193.55 78.96l3.18 1.84M193.5 78.3l4.44 2.56M193.5 77.7l5.58 3.23M193.48 77.05l6.86 3.97M193.63 76.5l7.72 4.49M194.73 76.5l7.65 4.44M197.73 77.54l5.84 3.38M199.63 78l4.97 2.88M201.17 78.27l4.35 2.52M202.62 78.47l3.77 2.19M204.27 78.8l2.92 1.69M69.2 77.1l2.8 1.62M68.09 77.1 71 78.8M67.07 77.1l3.04 1.75M65.97 77.1l3.13 1.81M64.94 77.13l3.15 1.82M63.98 77.21l3.03 1.75M62.78 77.2l3.06 1.76M61.66 77.18l3.18 1.84M61.23 77.56l2.73 1.58M60.8 77.95l2.34 1.35M60.37 78.33l2.04 1.17M59.98 78.74l1.72.99M59.54 79.07l1.54.89M58.54 79.13l1.9 1.1M57.47 79.13l2.35 1.36M56.37 79.13l2.82 1.64M55.21 79.13l3.33 1.92M54.13 79.15l3.77 2.17M53.06 79.15l4 2.3M51.96 79.15l4.11 2.37M50.87 79.15l4.23 2.44M49.77 79.15l4.35 2.51M48.67 79.14l4.5 2.6M47.57 79.14l4.63 2.67M46.55 79.14l4.76 2.75M45.45 79.14l4.9 2.83M44.38 79.14l5.03 2.9M43.27 79.14l4.63 2.67M42.08 79.14l4.05 2.34M40.98 79.14l3.42 1.97M39.9 79.14l2.75 1.59M38.8 79.14l2.1 1.21M37.72 79.15l1.59.91M36.62 79.15l1.35.78M35.54 79.15l1.4.8M34.44 79.15l1.6.92M33.43 79.15l1.85 1.07M32.32 79.15l2.15 1.24M31.25 79.15l2.43 1.4M30.15 79.15l2.15 1.25M28.93 79.15l.98.57M27.83 79.15l.07.04M70.33 77.1l2.72 1.58M71.43 77.1l2.85 1.65M72.44 77.1l4.48 2.6M73.55 77.1l5.99 3.48M74.62 77.1l2.07 1.2m.75.44 4.07 2.35M75.73 77.1l1.06.62m1.93 1.12 4.63 2.68M76.9 77.1l.35.21m2.75 1.6 5.2 3M81.24 78.98l5.64 3.27M82.6 79.14l5.35 3.1M83.7 79.14l5.28 3.06M84.79 79.15l5.1 2.96M85.9 79.15l4.86 2.82M86.9 79.15l4.66 2.7M88.01 79.15l4.53 2.62M88.97 79.08l4.64 2.69M89.88 78.96l4.87 2.83M90.96 78.92 96 81.84M92.06 78.92l5 2.9M93.13 78.92l4.8 2.78M94.2 78.9l4.65 2.7M95.24 78.87l4.51 2.62M96.32 78.86l4.36 2.52M97.88 79.14l3.7 2.14M99.68 79.54l2.84 1.65M100.86 79.64l2.49 1.44M101.68 79.47l1.72 1M102.4 79.27l1.05.6M103.12 79.05l.39.22M117.82 80.02l.35.2M117.76 79.36l1.48.86M117.7 78.68l2.57 1.5M117.64 78.02l3.55 2.06M117.58 77.35l4.47 2.6M118.2 77.12l4.65 2.7M119.3 77.12l4.53 2.63M120.35 77.1l4.55 2.64M121.45 77.1l4.6 2.67M122.6 77.1l4.68 2.71M123.7 77.1l4.64 2.69M124.79 77.1l4.44 2.58M125.89 77.1l4.25 2.47M126.98 77.1l4.07 2.36M128.08 77.1l3.89 2.26M129.16 77.1l3.72 2.16M130.26 77.1l3.55 2.06M131.28 77.1l3.4 1.98M132.38 77.1l3.25 1.89M133.46 77.1l3.1 1.8M134.56 77.1l2.98 1.73M135.75 77.1l2.85 1.66M136.85 77.1l2.76 1.6M137.93 77.1l2.69 1.56M139.03 77.1l2.66 1.54M140.12 77.1l2.66 1.55M141.22 77.1l2.56 1.49M142.3 77.1l1.93 1.12M143.4 77.1l1.19.7M144.42 77.1l.41.25M107.3 59.49l.82.48M107.7 59.3l1.74 1.01M108.15 59.14l2.52 1.46M108.92 59.14l2.97 1.72M109.65 59.14l3.36 1.94M110.38 59.13l3.35 1.95M111.1 59.13l3.31 1.92M111.82 59.13l3.2 1.86M112.56 59.13l3.04 1.76M113.23 59.13l.52.3m.01 0 2.37 1.38M114.51 59.45l2.27 1.32M115.25 59.46l2.24 1.3M116 59.47l2.26 1.3M116.79 59.48l2.29 1.33M117.54 59.49l2.25 1.3M118.27 59.5l2.1 1.22M119.03 59.51l1.96 1.14M119.77 59.52l1.82 1.05M120.52 59.53l.7.4m.14.09.84.48M122.08 60.02l.73.42M122.8 60.01l.63.36M123.48 60.01l.53.3M124.2 60l.44.26M124.73 59.9l.53.3M124.67 59.43l1.24.72M124.74 59.02l1.88 1.08M125.48 59.02l1.81 1.05M126.2 59.02l1.76 1.02M126.94 59.02l1.74 1M127.66 59.02l1.75 1.01M128.4 59.02l1.77 1.03M128.87 58.88l2.07 1.2M128.8 58.4l2.94 1.72M128.78 58.01l3.72 2.16M128.77 57.58l4.57 2.65M128.87 57.22l5.15 2.98M129.6 57.22l5.1 2.96M131.6 57.91l3.89 2.25M132.87 58.22l3.3 1.92M133.9 58.4l2.9 1.67M134.86 58.53l2.5 1.45M135.96 58.75l1.94 1.12M37.2 66.8l.18.1M37.6 66.58l.55.32M38.02 66.36l.93.53M38.43 66.14l1.3.75M38.84 65.91l1.69.98M39.25 65.7l2.05 1.18M39.67 65.47l2.42 1.41M40.05 65.27l2.77 1.6M40.5 65.07l3.12 1.8M41.27 65.06l3.12 1.81M42.07 65.06l3.12 1.8M42.94 65.06l3.12 1.8M43.74 65.06l2.2 1.28m.24.13.68.4M44.66 65.14l1.95 1.13m.58.33.44.26M45.71 65.28l1.56.9m.91.53.24.14M46.91 65.52l.94.55" style="fill:none;stroke:#140533;stroke-width:.03416826;stroke-linecap:round;stroke-linejoin:round;stroke-miterlimit:22.9255867;stroke-opacity:1"/><path d="m121.18 48.33.02 3.47" style="fill:none;stroke:#140533;stroke-width:.04482821;stroke-linecap:round;stroke-linejoin:round;stroke-miterlimit:22.9255867;stroke-opacity:1"/><path d="M121.31 51.68v-.65h.35M121.8 51.68v-.65h.35" style="fill:none;stroke:#140533;stroke-width:.04476771;stroke-linecap:round;stroke-linejoin:round;stroke-miterlimit:22.9255867;stroke-opacity:1"/><path d="M121.31 50.87v-.74h.35M121.8 50.87v-.74h.35" style="fill:none;stroke:#140533;stroke-width:.04480527;stroke-linecap:round;stroke-linejoin:round;stroke-miterlimit:22.9255867;stroke-opacity:1"/><path d="M121.31 50v-.75h.35M121.8 50v-.75h.35" style="fill:none;stroke:#140533;stroke-width:.04493517;stroke-linecap:round;stroke-linejoin:round;stroke-miterlimit:22.9255867;stroke-opacity:1"/><path d="M121.31 49.1v-.65h.35M121.8 49.1v-.65h.35M120.3 51.03h.28M120.73 51.68v-.65h.34" style="fill:none;stroke:#140533;stroke-width:.04476771;stroke-linecap:round;stroke-linejoin:round;stroke-miterlimit:22.9255867;stroke-opacity:1"/><path d="M120.3 50.13h.29M120.73 50.87v-.74h.35" style="fill:none;stroke:#140533;stroke-width:.04480527;stroke-linecap:round;stroke-linejoin:round;stroke-miterlimit:22.9255867;stroke-opacity:1"/><path d="M120.3 49.25h.29M120.73 50v-.75h.35" style="fill:none;stroke:#140533;stroke-width:.04493517;stroke-linecap:round;stroke-linejoin:round;stroke-miterlimit:22.9255867;stroke-opacity:1"/><path d="M120.33 48.45h.25M120.73 49.1v-.65h.34" style="fill:none;stroke:#140533;stroke-width:.04476771;stroke-linecap:round;stroke-linejoin:round;stroke-miterlimit:22.9255867;stroke-opacity:1"/></svg>