<svg id="Vrstva_1" data-name="Vrstva 1" xmlns="http://www.w3.org/2000/svg" viewBox="0 0 1190.55 841.89"><defs><style>.cls-1{fill:#676767;}.cls-1,.cls-10,.cls-2,.cls-3,.cls-5,.cls-7,.cls-9{stroke:#010101;}.cls-1,.cls-2,.cls-3,.cls-4,.cls-5{stroke-linecap:round;stroke-linejoin:round;}.cls-1,.cls-3,.cls-4{stroke-width:0.25px;}.cls-10,.cls-2,.cls-3,.cls-5,.cls-7,.cls-9{fill:none;}.cls-2,.cls-7{stroke-width:0.75px;}.cls-4{fill:#b4b4b4;stroke:#b4b4b4;}.cls-6{fill:#90bb8f;}.cls-10,.cls-7,.cls-9{stroke-miterlimit:10;}.cls-8{fill:#efe1bd;}.cls-10{stroke-width:0.15px;}</style></defs><title>zahrada kristina a3</title><polygon class="cls-1" points="569.51 650.27 575.29 654.04 570.6 661.24 568.77 660 569.33 658.68 565.99 655.67 569.51 650.27"/><line class="cls-2" x1="551.87" y1="676.32" x2="534.1" y2="702.57"/><polygon class="cls-1" points="560.83 663.09 556.95 668.82 560.38 671.91 559.81 673.23 561.65 674.47 567.82 665.36 565.98 664.11 564.97 665.13 560.83 663.09"/><polygon class="cls-1" points="644.17 538.5 625.28 567.88 628.71 570.97 628.14 572.29 629.98 573.53 632.75 569.43 648.37 566.05 648.37 564.03 729.27 559.99 729.27 566.05 835.45 561 834.44 549.88 675.85 558.98 644.17 538.5"/><polygon class="cls-1" points="616.37 581.04 619.8 584.13 619.24 585.44 621.07 586.68 627.19 577.64 625.36 576.4 624.35 577.41 620.2 575.38 616.37 581.04"/><polygon class="cls-1" points="607.69 593.86 611.12 596.95 610.56 598.26 612.39 599.5 618.29 590.8 616.45 589.56 615.44 590.57 611.3 588.53 607.69 593.86"/><polygon class="cls-1" points="598.74 607.09 602.17 610.18 601.61 611.49 603.44 612.73 609.61 603.62 607.77 602.38 606.76 603.39 602.62 601.35 598.74 607.09"/><polygon class="cls-1" points="589.18 621.2 593.66 614.58 597.81 616.62 598.82 615.61 600.65 616.85 595.1 625.06 589.18 621.2"/><polyline class="cls-3" points="619.04 451.28 622.96 453.81 622.08 454.31 624.1 456.33 625.11 457.35 625.62 457.85 627.13 459.37 627.13 461.9 627.13 462.91 628.15 464.93 629.16 465.94 634.21 466.45 634.21 469.99 634.21 471 636.24 473.02 637.25 474.03 640.28 475.04 641.29 475.04 642.3 476.05 646.35 474.03 648.37 472.01 649.38 470.89 652.42 469.99 653.95 467.26"/><polyline class="cls-3" points="162.34 246.52 154.88 247.51 152.86 248.52 149.82 249.53 143.76 249.53 136.68 248.52 125.55 247.51 120.5 246.5 118.47 246.5 113.42 242.45 109.37 239.42 107.35 237.4 103.31 232.34 100.27 228.3 97.24 225.26 97.24 221.22 95.22 214.14 95.22 211.1 94.2 209.08 97.24 204.03 98.25 202 101.28 194.93 104.32 191.89 107.35 187.85 109.37 186.84 112.41 183.8 117.46 179.76 120.5 177.73 124.54 171.67 126.56 171.67 130.61 171.67 142.75 171.67 148.81 171.67 151.85 170.66 153.87 169.64 159.94 170.66 171.06 172.68 174.09 172.68 180.16 175.71 188.25 176.72 193.31 176.72 199.38 176.72 204.43 177.73 208.48 179.76 212.52 180.77 216.57 181.78 221.62 183.8 228.7 184.81 234.77 185.82 238.81 187.85 242.86 188.86 246.9 188.86 252.97 188.86 259.04 187.85 261.06 186.84 265.11 185.82 266.12 183.8 268.14 180.77 270.16 179.76 273.2 180.77 277.24 184.81 283.31 187.85 287.35 189.87 292.41 190.88 302.52 187.85 308.59 186.84 310.61 186.84 315.67 187.85 317.69 188.86 324.77 189.87 325.78 190.88 327.8 191.89 329.83 193.91 332.86 195.94 338.93 198.97 340.95 199.98 345.9 203.01"/><polyline class="cls-2" points="932.53 356.73 939.61 354.7 944.67 356.73 1003.32 405.27 1024.56 416.39 1039.72 422.46 1046.8 429.54 1051.86 438.64 1069.05 480.1 1070.06 486.17 1066.02 490.21"/><polyline class="cls-2" points="997.25 421.45 1009.39 433.58 1024.56 416.39"/><line class="cls-2" x1="961.86" y1="386.05" x2="979.05" y2="403.24"/><line class="cls-2" x1="932.53" y1="356.73" x2="946.69" y2="370.88"/><line class="cls-2" x1="911.3" y1="335.49" x2="920.4" y2="344.59"/><polyline class="cls-2" points="1074.11 626.73 1061.06 661.11 1092.31 661.11 1158.04 585.27 1143.88 565.04"/><polyline class="cls-2" points="1055.9 399.2 1074.11 426.5 1070.06 431.56 1080.17 451.78 1075.12 455.83 1086.24 482.12 1089.28 482.12 1117.59 526.62 1136.81 513.47 1146.92 530.66 1149.95 529.65 1159.05 543.81 1147.93 553.92 1155.01 565.04"/><line class="cls-3" x1="1055.9" y1="399.2" x2="1091.3" y2="368.86"/><polyline class="cls-2" points="1000.75 393.99 1053.88 395.15 1055.9 399.2"/><polyline class="cls-2" points="911.3 335.49 914.33 333.47 936.58 338.52 972.98 367.85 1007.37 400.21 1024.56 404.25 1045.79 412.34 1056.92 430.55 1074.11 479.09 1101.41 527.63"/><polyline class="cls-2" points="881.97 332.45 903.21 348.64 908.26 352.68 948.71 391.11 995.23 445.72 991.18 448.75 991.18 454.82 983.58 463.22"/><polyline class="cls-2" points="862.29 310.84 881.97 332.45 951.75 412.34 953.77 416.39 954.78 421.45 955.28 431.05"/><path class="cls-3" d="M983.09,482.12c4,4,10.18-3.07,5.6-6.48"/><polyline class="cls-3" points="968.94 489.2 973.99 492.17 983.1 482.12"/><path class="cls-3" d="M723.7,287.67a6.56,6.56,0,1,1,11.38,6.53"/><polyline class="cls-3" points="445.79 241.95 445.11 236.39 446.12 233.35 449.15 231.33 451.18 231.33 455.22 230.32 458.25 229.31 460.28 226.27 462.3 224.25 465.33 222.23 470.39 220.21 473.42 218.18 474.44 217.17 479.49 215.15 485.56 215.15 491.63 215.15 493.65 217.17 496.68 218.18 496.68 220.21 496.68 222.23 497.69 226.27 497.69 227.28 498.71 231.33 499.72 234.36 506.8 235.38 508.82 232.34 510.84 231.33 511.85 230.32 515.9 229.31 517.92 228.3 518.93 227.28 521.96 228.3 525 228.3 529.04 228.3 533.09 228.3 535.11 226.27 536.12 225.26 538.14 225.26 539.15 224.25 541.18 225.26 544.21 225.26 546.23 226.27 550.28 227.28 555.34 227.28 557.36 226.27 559.38 225.26 561.4 224.25 565.45 224.25 568.48 224.25 570.5 222.23 572.53 222.23 575.56 222.23 579.61 222.23 583.65 223.24 584.66 224.25 586.68 223.24 588.71 223.24 589.72 223.24 593.76 222.23 595.79 223.24 597.81 224.25 601.85 224.25 605.9 224.25 606.91 224.25 611.97 226.27 615 227.28 617.02 226.27 619.04 227.28 622.08 228.3 625 230.32"/><polyline class="cls-2" points="558.37 679.32 671.63 752.13 681.74 751.11 688.82 741 672.64 725.83 666.57 675.27 669.61 675.27 676.69 723.81"/><polyline class="cls-2" points="436.01 406.28 575.56 501.33 595.79 547.85 625.65 567.16"/><polyline class="cls-3" points="625.28 567.88 628.71 570.97 628.14 572.29 629.98 573.53"/><path class="cls-3" d="M476.65,542.35c.8,13.47-7.28,24.22-19.9,28.28"/><path class="cls-3" d="M429.32,503.12c18.68-.71,38.33,11.41,45.11,29.12"/><path class="cls-3" d="M445.72,572.38c-18.14.24-37-11.45-43.85-28.54"/><path class="cls-3" d="M399.46,533.92c-1.15-13.74,6.9-24.89,19.81-29.06"/><polyline class="cls-3" points="828.05 443.04 831.41 443.69 833.43 445.72 835.45 445.72 838.49 444.7 841.52 445.72 843.54 445.72 847.59 444.7 849.61 444.7 851.63 443.69 852.64 441.67 853.65 441.67 856.69 439.65 858.71 438.64 860.73 435.6 860.73 434.59 861.75 431.56 862.76 429.54 862.76 427.51 863.77 424.48 862.76 421.45 861.75 420.43 861.75 414.37 862.76 411.33 861.75 408.3 861.75 407.29 859.72 405.27 858.71 403.24 858.64 400.84"/><line class="cls-3" x1="827.03" y1="397.45" x2="832.05" y2="401.43"/><line class="cls-3" x1="827.94" y1="396.5" x2="832.86" y2="400.21"/><line class="cls-3" x1="828.89" y1="395.39" x2="833.6" y2="399.07"/><line class="cls-3" x1="829.73" y1="394.41" x2="834.33" y2="397.97"/><line class="cls-3" x1="830.61" y1="393.38" x2="835.06" y2="396.87"/><line class="cls-3" x1="831.55" y1="392.29" x2="835.89" y2="395.62"/><line class="cls-3" x1="832.28" y1="391.44" x2="836.71" y2="394.37"/><line class="cls-3" x1="833.01" y1="390.58" x2="837.33" y2="393.43"/><line class="cls-3" x1="833.43" y1="390.1" x2="838.12" y2="392.24"/><line class="cls-3" x1="833.43" y1="390.1" x2="839" y2="390.92"/><line class="cls-3" x1="833.43" y1="390.1" x2="840.02" y2="389.36"/><line class="cls-3" x1="833.43" y1="390.1" x2="838.09" y2="388.08"/><line class="cls-3" x1="833.43" y1="390.1" x2="836.74" y2="387.19"/><line class="cls-3" x1="833.43" y1="390.1" x2="835.77" y2="386.55"/><line class="cls-3" x1="817.52" y1="385.85" x2="828.12" y2="395.63"/><line class="cls-3" x1="815.82" y1="386.89" x2="825.82" y2="396.34"/><line class="cls-3" x1="814.24" y1="387.91" x2="823.75" y2="397.03"/><line class="cls-3" x1="812.56" y1="389.03" x2="822.65" y2="398.51"/><line class="cls-3" x1="811" y1="390.12" x2="821.29" y2="399.7"/><line class="cls-3" x1="809.53" y1="391.19" x2="819.68" y2="400.41"/><line class="cls-3" x1="808.06" y1="392.29" x2="817.78" y2="401.04"/><line class="cls-3" x1="806.61" y1="393.42" x2="816.14" y2="401.96"/><line class="cls-3" x1="805.28" y1="394.54" x2="814.52" y2="403.04"/><line class="cls-3" x1="803.99" y1="395.72" x2="813.71" y2="404.76"/><line class="cls-3" x1="802.7" y1="396.99" x2="812.56" y2="406.49"/><line class="cls-3" x1="801.56" y1="398.17" x2="810.93" y2="407.04"/><line class="cls-3" x1="800.37" y1="399.45" x2="809.48" y2="408.32"/><line class="cls-3" x1="799.22" y1="400.73" x2="808.48" y2="409.99"/><line class="cls-3" x1="798.1" y1="402" x2="807.28" y2="411.19"/><line class="cls-3" x1="797.02" y1="403.24" x2="806.13" y2="412.34"/><polyline class="cls-3" points="801.39 446.39 816.24 451.34 819.27 439.65"/><path class="cls-3" d="M800.06,443.69a1.82,1.82,0,0,1,1.33,2.7"/><line class="cls-3" x1="804.47" y1="430.81" x2="800.06" y2="443.69"/><path class="cls-3" d="M806.13,430.55a1.23,1.23,0,0,1-1.66.26"/><line class="cls-3" x1="819.27" y1="439.65" x2="806.13" y2="430.55"/><polyline class="cls-3" points="828.89 395.39 826.35 396.16 823.32 397.18 822.31 399.2 820.28 400.21 817.25 401.22 814.22 403.24 813.21 406.28 810.17 407.29 808.15 410.32 805.12 413.36 803.09 415.38 802.08 418.41 804.1 422.46 806.13 424.48 806.13 426.5 807.14 428.52 810.17 430.55 812.19 431.56 814.22 434.59 816.24 436.61 818.26 436.61 821.3 438.62"/><path class="cls-3" d="M797,403.24c6.07-7.08,8.6-9.1,11-10.95s4.81-3.54,7.76-5.4A68.93,68.93,0,0,1,827.36,381"/><polygon class="cls-4" points="602.22 370.6 602.36 368.38 603.37 367.37 606.42 365.35 608.46 365.35 609.47 364.34 611.51 363.33 611.51 362.31 613.54 361.3 617.61 362.31 619.64 362.31 621.67 363.33 621.67 368.38 602.22 370.6"/><polygon class="cls-3" points="580.14 373.67 580.62 371.89 581.63 370.88 583.65 369.87 584.66 369.87 585.67 368.86 588.71 368.86 591.74 369.87 592.02 372.31 580.14 373.67"/><polygon class="cls-5" points="546.21 339.02 551.58 339.9 552.6 333.7 547.22 332.86 546.21 339.02"/><polygon class="cls-5" points="543.38 356.23 548.75 357.11 549.77 350.91 544.39 350.07 543.38 356.23"/><polygon class="cls-5" points="557.73 358.53 563.1 359.42 564.12 353.22 558.74 352.37 557.73 358.53"/><polygon class="cls-5" points="560.56 341.32 565.93 342.21 566.95 336.01 561.57 335.17 560.56 341.32"/><polygon class="cls-5" points="563.43 323.86 568.8 324.74 569.82 318.54 564.44 317.7 563.43 323.86"/><polyline class="cls-3" points="677.84 403.48 680.73 404.25 681.74 406.28 683.76 408.3 685.79 409.31 688.82 409.31 689.83 411.33 690.84 413.36 691.85 414.37 694.89 415.38 695.9 415.38 698.93 415.38 699.94 416.39 700.96 417.4 701.97 418.41 703.99 420.43 706.01 420.43 708.03 420.43 710.06 421.45 711.07 421.45 714.1 422.46 713.09 425.49 719.16 426.5 721.18 425.49 722.19 425.49 726.24 425.49 729.27 425.49 731.29 425.49 733.32 424.48 735.34 422.46 736.35 421.45 737.36 420.43 740.39 420.43 741.41 420.43 743.43 419.42 747.47 416.39 748.49 415.38 748.49 414.37 749.5 412.34 749.5 411.33 751.52 410.32 752.53 409.31 754.55 407.29 755.56 405.27 756.57 404.25 757.59 402.23 757.59 401.22 758.6 399.2 760.62 396.16 762.64 395.15 762.64 394.14 763.65 393.13 763.65 391.11 763.65 390.1 764.66 389.08 766.69 386.05 767.7 385.04 768.71 384.03 771.74 379.98 771.74 376.95 771.74 375.94 771.74 372.9 771.74 371.89 771.74 368.86 771.74 367.85 773.77 366.84 773.77 364.82 774.78 362.79 773.77 361.78 776.8 359.76 776.8 358.75 776.73 356.07"/><line class="cls-3" x1="869.25" y1="282.21" x2="875.97" y2="284"/><line class="cls-3" x1="869.4" y1="280.41" x2="876.48" y2="281.55"/><line class="cls-3" x1="869.27" y1="278.72" x2="876.82" y2="278.58"/><line class="cls-3" x1="868.94" y1="277.1" x2="876.85" y2="276.48"/><line class="cls-3" x1="868.36" y1="275.28" x2="876.59" y2="273.9"/><line class="cls-3" x1="867.72" y1="273.81" x2="875.9" y2="270.94"/><line class="cls-3" x1="866.95" y1="272.46" x2="874.9" y2="268.17"/><line class="cls-3" x1="866.12" y1="271.34" x2="873.64" y2="265.97"/><line class="cls-3" x1="865.16" y1="270.23" x2="872.18" y2="264.1"/><line class="cls-3" x1="868.82" y1="283.92" x2="874.89" y2="286.95"/><line class="cls-3" x1="870.85" y1="262.68" x2="864.27" y2="269.31"/><path class="cls-3" d="M870.85,262.68a19.72,19.72,0,0,1,3.7,4.8,15.7,15.7,0,0,1,1.35,3.46,24.23,24.23,0,0,1,.85,4,23.42,23.42,0,0,1-.09,5.31,21,21,0,0,1-1.77,6.66"/><polyline class="cls-3" points="782.87 581.22 822.31 578.25 885 581.22 960.85 592.35 964.89 596.39 1013.43 604.48"/><line class="cls-3" x1="729.27" y1="566.03" x2="835.45" y2="561"/><line class="cls-3" x1="656.53" y1="594.94" x2="729.27" y2="583.17"/><line class="cls-3" x1="655.21" y1="583.78" x2="729.27" y2="572.63"/><polygon class="cls-2" points="648.37 564.03 648.37 577.18 654.44 577.18 664.55 663.13 667.31 662.12 661.52 613.58 724.22 599.43 780.85 618.64 782.87 581.22 729.27 585.27 729.27 559.99 648.37 564.03"/><polyline class="cls-3" points="419 262.6 412.75 264.7 410.73 266.72 408.7 267.74 406.68 269.76 405.67 271.78 405.67 273.8 405.67 275.93 403.75 277.85 405.67 281.89 405.67 283.92 406.68 285.94 408.06 287.96 409.71 288.97 409.71 289.98 409.71 292 409.71 293.02 409.71 295.04 410.73 295.04 412.75 297.06 411.74 301.11 411.74 305.15 412.75 305.15 412.75 307.17 411.74 309.2 411.74 313.24 413.76 315.26 414.77 318.3 413.76 319.31 412.75 321.33 412.75 323.35 412.75 326.39 413.76 329.42 413.76 330.43 413.76 332.45 412.75 334.48 412.75 337.51 413.76 339.53 413.76 340.55 413.76 342.57 412.75 344.59 411.74 347.62 410.73 348.64 409.71 351.67 409.71 352.68 409.71 354.7 409.71 356.73 408.7 356.73 407.69 359.76 406.68 362.79 405.67 364.82 401.63 367.85 399.6 368.86 396.57 370.88 395.56 372.9 393.54 375.94 392.52 377.96 390.5 381 388.48 384.03 386.46 387.06 384.43 388.07 383.42 390.1 383.42 393.13 384.43 395.15 384.43 397.18 384.43 400.21 385.44 401.22 387.47 401.22 388.48 403.24 390.5 406.28 392.52 407.29 395.56 407.29 396.57 408.3 397.58 409.31 398.59 411.33 402.64 411.33 405.67 412.34 407.69 411.33 410.73 411.33 413.76 411.33 417.81 411.33 419 411.17 420.84 408.3 417.32 413.8 419 415.38 424.88 414.37 425.89 414.37 426.91 414.37 429.94 414.12 429.94 412.34 429.94 409.31 430.95 408.3 432.97 407.29 435 406.28 435 404.25 436.01 406.28 437.02 404.79 438.03 402.23 439.89 400.57"/><line class="cls-3" x1="443.33" y1="243.95" x2="450.02" y2="252.78"/><line class="cls-3" x1="441.43" y1="245.48" x2="448.07" y2="254.26"/><line class="cls-3" x1="439.55" y1="247" x2="446.3" y2="255.6"/><line class="cls-3" x1="437.7" y1="248.5" x2="444.25" y2="257.15"/><line class="cls-3" x1="435.94" y1="249.93" x2="442.44" y2="258.52"/><line class="cls-3" x1="434.07" y1="251.44" x2="440.52" y2="259.97"/><line class="cls-3" x1="432.3" y1="252.87" x2="438.72" y2="261.34"/><line class="cls-3" x1="430.53" y1="254.3" x2="436.9" y2="262.71"/><line class="cls-3" x1="428.93" y1="255.6" x2="435.26" y2="263.96"/><line class="cls-3" x1="427.47" y1="254.93" x2="423.87" y2="264.7"/><line class="cls-3" x1="425.35" y1="253.96" x2="421.21" y2="263.55"/><line class="cls-3" x1="423.16" y1="252.96" x2="419" y2="262.6"/><line class="cls-3" x1="421.07" y1="252" x2="416.89" y2="261.69"/><line class="cls-3" x1="418.87" y1="250.99" x2="414.67" y2="260.73"/><line class="cls-3" x1="416.79" y1="250.04" x2="412.57" y2="259.83"/><line class="cls-3" x1="414.85" y1="249.15" x2="410.61" y2="258.98"/><line class="cls-3" x1="412.86" y1="248.24" x2="408.6" y2="258.11"/><line class="cls-3" x1="410.93" y1="247.35" x2="406.65" y2="257.27"/><line class="cls-3" x1="408.99" y1="246.46" x2="404.69" y2="256.43"/><line class="cls-3" x1="406.97" y1="245.54" x2="402.66" y2="255.55"/><line class="cls-3" x1="404.66" y1="244.48" x2="394.13" y2="251.87"/><path class="cls-3" d="M347,270.77a87.6,87.6,0,0,1,24.86,12.81c5.14,3.71,7.83,6.07,10.19,8.76s4.39,5.73,7.42,11.8"/><path class="cls-3" d="M339.94,277.85C360.16,288,366.74,292,371.2,295a69.8,69.8,0,0,1,9,7.08c2.19,2,4.21,4,8.26,12.13"/><line class="cls-3" x1="325.78" y1="279.36" x2="322.75" y2="277.85"/><path class="cls-3" d="M333.37,276.84a5.65,5.65,0,0,0-7.59,2.52"/><line class="cls-3" x1="310.71" y1="270.6" x2="314.66" y2="272.79"/><path class="cls-3" d="M308.59,262.68a5.89,5.89,0,0,1,2.12,7.92"/><line class="cls-3" x1="317.84" y1="247.66" x2="308.59" y2="262.68"/><line class="cls-3" x1="337.92" y1="267.74" x2="333.37" y2="276.84"/><path class="cls-3" d="M297.47,340.55a28.25,28.25,0,0,0-1.77,5.68,11,11,0,0,0-.09,3.75,37.21,37.21,0,0,0,1,4.89,22.51,22.51,0,0,0,2.19,5.56c1,1.69,2.36,3,8.85,9.27s18.12,17.36,37.34,34.55"/><path class="cls-3" d="M289.38,334.48a4.67,4.67,0,0,1-3,2.95,8.54,8.54,0,0,1-3.08.76,6.81,6.81,0,0,1-3-.85,23.09,23.09,0,0,1-3.8-2.53c-1.77-1.34-4.29-3.37-14.41-13.48"/><line class="cls-3" x1="322.75" y1="277.85" x2="297.47" y2="340.55"/><line class="cls-3" x1="314.66" y1="272.79" x2="289.38" y2="334.48"/><line class="cls-3" x1="349.47" y1="254.78" x2="350.01" y2="258.78"/><line class="cls-3" x1="350.86" y1="254.69" x2="351.05" y2="258.69"/><line class="cls-3" x1="352.07" y1="254.67" x2="351.94" y2="258.68"/><line class="cls-3" x1="353.35" y1="254.71" x2="352.88" y2="258.75"/><line class="cls-3" x1="354.51" y1="254.79" x2="353.79" y2="258.89"/><line class="cls-3" x1="355.65" y1="254.92" x2="354.73" y2="259.08"/><line class="cls-3" x1="356.96" y1="255.13" x2="355.86" y2="259.35"/><line class="cls-3" x1="357.96" y1="255.32" x2="356.75" y2="259.59"/><line class="cls-3" x1="359.15" y1="255.6" x2="357.78" y2="259.9"/><line class="cls-3" x1="340.98" y1="257.26" x2="344.54" y2="260.38"/><line class="cls-3" x1="339.85" y1="258.04" x2="343.45" y2="260.93"/><line class="cls-3" x1="338.87" y1="258.87" x2="342.55" y2="261.54"/><line class="cls-3" x1="337.94" y1="259.83" x2="341.79" y2="262.26"/><line class="cls-3" x1="337.18" y1="260.75" x2="341.1" y2="263.09"/><line class="cls-3" x1="336.43" y1="261.76" x2="340.42" y2="264.04"/><line class="cls-3" x1="335.78" y1="262.69" x2="339.8" y2="264.93"/><line class="cls-3" x1="335.07" y1="263.77" x2="339.19" y2="265.82"/><line class="cls-3" x1="334.41" y1="264.83" x2="338.54" y2="266.8"/><line class="cls-3" x1="337.92" y1="267.74" x2="333.87" y2="265.71"/><polyline class="cls-3" points="650.39 486.17 653 479.09 730.3 505.38 727.67 513.27"/><path class="cls-3" d="M650.39,486.17a41,41,0,1,0,77.28,27.1"/><rect class="cls-3" x="499.75" y="398.68" width="3.75" height="194.9" transform="translate(-190.1 635.01) rotate(-56.04)"/><polygon class="cls-6" points="564.86 540.98 557.89 551.34 574.65 562.15 581.4 552.12 564.86 540.98"/><polygon class="cls-6" points="525.29 514.33 518.58 524.86 548.27 544.38 555.02 534.35 525.29 514.33"/><polygon class="cls-6" points="485.71 487.67 479 498.2 508.69 517.72 515.45 507.69 485.71 487.67"/><polygon class="cls-6" points="446.14 461.01 439.42 471.54 469.12 491.06 475.87 481.04 446.14 461.01"/><polygon class="cls-6" points="419.75 443.24 412.78 453.6 429.54 464.41 436.29 454.38 419.75 443.24"/><rect class="cls-3" x="578.9" y="547.42" width="3.75" height="4.04" transform="translate(-199.38 724.22) rotate(-56.04)"/><rect class="cls-3" x="565.71" y="538.54" width="3.75" height="4.04" transform="translate(-197.83 709.36) rotate(-56.04)"/><rect class="cls-3" x="552.52" y="529.65" width="3.75" height="4.04" transform="translate(-196.28 694.49) rotate(-56.04)"/><rect class="cls-3" x="539.33" y="520.76" width="3.75" height="4.04" transform="translate(-194.75 679.53) rotate(-56.03)"/><rect class="cls-3" x="526.13" y="511.88" width="3.75" height="4.04" transform="translate(-193.2 664.71) rotate(-56.03)"/><rect class="cls-3" x="512.94" y="502.99" width="3.75" height="4.04" transform="translate(-191.65 649.85) rotate(-56.03)"/><rect class="cls-3" x="499.75" y="494.11" width="3.75" height="4.04" transform="translate(-190.1 634.99) rotate(-56.03)"/><rect class="cls-3" x="486.56" y="485.22" width="3.75" height="4.04" transform="translate(-188.55 620.12) rotate(-56.03)"/><rect class="cls-3" x="473.37" y="476.34" width="3.75" height="4.04" transform="translate(-187 605.31) rotate(-56.04)"/><rect class="cls-3" x="460.18" y="467.45" width="3.75" height="4.04" transform="translate(-185.45 590.45) rotate(-56.04)"/><rect class="cls-3" x="446.98" y="458.56" width="3.75" height="4.04" transform="translate(-183.9 575.59) rotate(-56.04)"/><rect class="cls-3" x="433.79" y="449.68" width="3.75" height="4.04" transform="translate(-182.35 560.72) rotate(-56.04)"/><rect class="cls-3" x="420.6" y="440.79" width="3.75" height="4.04" transform="translate(-180.81 545.81) rotate(-56.03)"/><polyline class="cls-3" points="157.66 472.11 185.22 432.57 256 481.11 485.56 662.12 527.02 689.43 546.23 665.16 555.28 671.28"/><line class="cls-3" x1="419.83" y1="443.29" x2="421.85" y2="440.13"/><polygon class="cls-6" points="342.97 529.97 338.64 536.73 490.62 654.6 503.64 634.82 342.97 529.97"/><line class="cls-3" x1="659.11" y1="474.58" x2="728.83" y2="497.39"/><line class="cls-3" x1="699.31" y1="487.73" x2="701.7" y2="480.42"/><line class="cls-3" x1="700.94" y1="488.28" x2="703.34" y2="480.96"/><line class="cls-3" x1="702.58" y1="488.82" x2="704.98" y2="481.51"/><line class="cls-3" x1="704.22" y1="489.37" x2="706.61" y2="482.05"/><line class="cls-3" x1="705.86" y1="489.91" x2="708.25" y2="482.6"/><line class="cls-3" x1="707.49" y1="490.46" x2="709.89" y2="483.14"/><line class="cls-3" x1="709.13" y1="491.01" x2="711.52" y2="483.69"/><line class="cls-3" x1="710.77" y1="491.55" x2="713.16" y2="484.24"/><line class="cls-3" x1="712.4" y1="492.1" x2="714.8" y2="484.78"/><line class="cls-3" x1="714.04" y1="492.64" x2="716.44" y2="485.33"/><line class="cls-3" x1="715.71" y1="493.1" x2="718.1" y2="485.78"/><line class="cls-3" x1="717.35" y1="493.65" x2="719.74" y2="486.33"/><line class="cls-3" x1="718.98" y1="494.19" x2="721.38" y2="486.87"/><line class="cls-3" x1="720.62" y1="494.74" x2="723.01" y2="487.42"/><line class="cls-3" x1="722.27" y1="495.25" x2="724.66" y2="487.93"/><line class="cls-3" x1="723.91" y1="495.79" x2="726.3" y2="488.48"/><line class="cls-3" x1="725.54" y1="496.34" x2="727.94" y2="489.02"/><line class="cls-3" x1="727.18" y1="496.88" x2="729.57" y2="489.57"/><line class="cls-3" x1="728.83" y1="497.39" x2="731.22" y2="490.08"/><line class="cls-3" x1="688.63" y1="484.24" x2="691.03" y2="476.92"/><line class="cls-3" x1="686.98" y1="483.73" x2="689.38" y2="476.41"/><line class="cls-3" x1="685.34" y1="483.18" x2="687.74" y2="475.87"/><line class="cls-3" x1="683.71" y1="482.64" x2="686.1" y2="475.32"/><line class="cls-3" x1="682.07" y1="482.09" x2="684.46" y2="474.77"/><line class="cls-3" x1="680.42" y1="481.58" x2="682.82" y2="474.26"/><line class="cls-3" x1="678.78" y1="481.04" x2="681.18" y2="473.72"/><line class="cls-3" x1="677.15" y1="480.49" x2="679.54" y2="473.17"/><line class="cls-3" x1="675.51" y1="479.94" x2="677.9" y2="472.63"/><line class="cls-3" x1="673.84" y1="479.49" x2="676.24" y2="472.17"/><line class="cls-3" x1="672.21" y1="478.94" x2="674.6" y2="471.63"/><line class="cls-3" x1="670.57" y1="478.4" x2="672.96" y2="471.08"/><line class="cls-3" x1="668.93" y1="477.85" x2="671.33" y2="470.53"/><line class="cls-3" x1="667.29" y1="477.31" x2="669.69" y2="469.99"/><line class="cls-3" x1="665.66" y1="476.76" x2="668.05" y2="469.44"/><line class="cls-3" x1="664.02" y1="476.21" x2="666.41" y2="468.9"/><line class="cls-3" x1="662.38" y1="475.67" x2="664.78" y2="468.35"/><line class="cls-3" x1="660.75" y1="475.12" x2="663.14" y2="467.81"/><line class="cls-3" x1="659.11" y1="474.58" x2="661.5" y2="467.26"/><path class="cls-6" d="M323.73,438.9,300.36,475a348.35,348.35,0,0,0-31.79-19.37c-8.18-4.22-12.9-5.56-17.55-6s-9.24.08-11.2,3.12l-45.5-29.33-1-.65,39.94-59.53,45.4,29.5c-2,3-.55,7.42,1.74,11.49s5.46,7.82,12.65,13.55A347.7,347.7,0,0,0,323.73,438.9Z"/><polyline class="cls-3" points="233.25 363.29 193.31 422.81 194.32 423.47"/><line class="cls-3" x1="323.73" y1="438.9" x2="300.36" y2="475.03"/><line class="cls-3" x1="233.25" y1="363.29" x2="278.65" y2="392.79"/><path class="cls-3" d="M278.65,392.79c-2,3-.55,7.42,1.74,11.49s5.46,7.82,12.65,13.55a347.7,347.7,0,0,0,30.69,21.07"/><path class="cls-3" d="M239.82,452.8c2-3,6.54-3.55,11.2-3.12s9.37,1.76,17.55,6A348.35,348.35,0,0,1,300.36,475"/><line class="cls-3" x1="194.32" y1="423.47" x2="239.82" y2="452.8"/><polygon class="cls-6" points="377.35 454.09 336.91 517.43 301.6 494.25 342.78 431.51 377.35 454.09"/><polygon class="cls-3" points="377.35 454.09 336.91 517.43 301.6 494.25 342.78 431.51 377.35 454.09"/><path class="cls-6" d="M407.69,473.89l13.06,34.93c-11.44,3.42-18.47,13-17.1,25.12L362,533.7l-15.11-9.87,40.45-63.21Z"/><path class="cls-6" d="M444.31,568l7.88,24.58-73.83-48.19,28.18-.64C413.22,557.71,429,567.42,444.31,568Z"/><path class="cls-6" d="M494.66,530.66l-24.75,1.94c-6.53-14.69-23.14-24.87-39-25.12l-9.1-24.35Z"/><path class="cls-3" d="M443.72,527.71c-5.69-3.23-15-4.27-18.88,2.54s1.81,14.29,7.5,17.52,15,4.27,18.88-2.54S449.42,530.94,443.72,527.71Z"/><path class="cls-6" d="M541.12,577.89a24,24,0,0,1-26.35,40l-7.13,10.82-40.28-26.29-11.94-35.83c10.89-3.31,17.89-12.3,17.09-23.93l34.28-2.94,41.47,27.31Z"/><path class="cls-3" d="M339.94,237.4a2.75,2.75,0,0,1-1.35.84,11,11,0,0,1-2.36.17,4.19,4.19,0,0,0-1.52.17c-.5.17-1.18.5-1.68.67a3.69,3.69,0,0,1-1.35.17H330c-.5,0-.84,0-1,.17a1.31,1.31,0,0,0-.16.84,2.1,2.1,0,0,1-.17,1c-.17.34-.51.68-.68,1a3.12,3.12,0,0,0,0,2c.17.33.51.67.68,1s.17.67.33.84.51.17.85.34.67.5,1,.67a2.1,2.1,0,0,0,1,.17h3a4.27,4.27,0,0,0,2-.34,18.52,18.52,0,0,0,1.85-1.34,5.88,5.88,0,0,1,1.18-.51c.34-.17.67-.51,1-.68s.67-.16,1.18-.33a4.56,4.56,0,0,0,1.52-.84c.33-.34.33-.68.84-.85a8.86,8.86,0,0,1,2.19-.17,2.9,2.9,0,0,1,1.35.17,7.25,7.25,0,0,0,1.18.68c.5.17,1.18.17,2,.33a16.66,16.66,0,0,0,2.53.51,2.53,2.53,0,0,0,1.35-.51c.33-.16.67-.16,1.18-.33a4.36,4.36,0,0,0,1.51-.85,1.4,1.4,0,0,0,.34-1.18,4.11,4.11,0,0,0-.17-1.51c-.17-.34-.5-.34-.67-.51s-.17-.5-.51-.84a10.68,10.68,0,0,0-1.51-1c-.51-.34-.85-.68-1.35-.68a6.41,6.41,0,0,0-1.69.51,3.28,3.28,0,0,1-1.85,0c-1-.17-2.7-.51-3.71-.68a11.39,11.39,0,0,1-1.85-.33,6,6,0,0,0-1.86-.51,3.5,3.5,0,0,0-1.85.68A6.81,6.81,0,0,0,339.94,237.4Z"/><path class="cls-3" d="M351.06,230.32c0-2.86-1.18-4-4-4s-4,1.19-4,4,1.19,4,4,4S351.06,233.18,351.06,230.32Z"/><circle class="cls-3" cx="347.02" cy="230.32" r="3.03"/><line class="cls-2" x1="361.18" y1="249.53" x2="370.28" y2="231.33"/><line class="cls-2" x1="367.24" y1="252.57" x2="376.34" y2="234.36"/><line class="cls-3" x1="362.19" y1="262.68" x2="365.22" y2="256.61"/><path class="cls-3" d="M337.92,267.74a53.75,53.75,0,0,1,3.87-5.48,6.43,6.43,0,0,1,2.19-1.6,15.7,15.7,0,0,1,2.36-1,21.58,21.58,0,0,1,3.54-.85,11.2,11.2,0,0,1,3.37,0,29.56,29.56,0,0,1,4,.93,10.29,10.29,0,0,1,5,2.95"/><path class="cls-3" d="M297.47,256.37c-.72-1.43-1.61-1.72-3-1s-1.72,1.61-1,3,1.61,1.72,3,1S298.18,257.8,297.47,256.37Z"/><path class="cls-3" d="M285.33,250.31c-.71-1.43-1.6-1.73-3-1s-1.73,1.61-1,3,1.6,1.72,3,1S286.05,251.74,285.33,250.31Z"/><path class="cls-3" d="M273.2,246.26c-.72-1.43-1.61-1.73-3-1s-1.72,1.6-1,3,1.6,1.73,3,1S273.91,247.69,273.2,246.26Z"/><path class="cls-3" d="M260.05,243.23c-.71-1.43-1.6-1.73-3-1s-1.73,1.6-1,3,1.6,1.73,3,1S260.77,244.66,260.05,243.23Z"/><path class="cls-3" d="M246.9,241.2c-.71-1.43-1.6-1.72-3-1s-1.73,1.61-1,3,1.6,1.72,3,1S247.62,242.63,246.9,241.2Z"/><path class="cls-3" d="M234.77,240.19c-.72-1.43-1.6-1.72-3-1s-1.72,1.61-1,3,1.61,1.72,3,1S235.48,241.62,234.77,240.19Z"/><path class="cls-3" d="M221.62,239.18c-.71-1.43-1.6-1.72-3-1s-1.73,1.6-1,3,1.6,1.73,3,1S222.34,240.61,221.62,239.18Z"/><path class="cls-3" d="M209.49,239.42c-.72-1.43-1.61-1.73-3-1s-1.72,1.6-1,3,1.61,1.73,3,1S210.2,240.85,209.49,239.42Z"/><path class="cls-2" d="M175.1,201c-5-3-7.58-4.55-9.85-5.47a26.53,26.53,0,0,0-6.66-1.61,56.83,56.83,0,0,0-7.08-.67,12.42,12.42,0,0,0-5.06,1,28.22,28.22,0,0,0-5.39,2.87,19.07,19.07,0,0,0-4.21,4,48.49,48.49,0,0,0-3.21,4.89,19.58,19.58,0,0,0-2.52,5.39,27.16,27.16,0,0,0-.51,6.41,14.05,14.05,0,0,0,.67,5.39,22.4,22.4,0,0,0,3.21,4.89,27.9,27.9,0,0,0,3.54,4,14.72,14.72,0,0,0,5.39,3,30.62,30.62,0,0,0,9.44,1.27"/><polyline class="cls-2" points="395.56 344.59 369.26 389.08 363.2 385.04 352.07 398.19 404.66 433.58 420.84 408.3"/><path class="cls-2" d="M380.39,278.86c5.06,5.06,6.57,7.08,7.84,8.93s2.27,3.54,3.28,5.39a51,51,0,0,1,2.87,6.07,72.26,72.26,0,0,1,2.19,7.08,59.8,59.8,0,0,1,1.68,7.92,45.94,45.94,0,0,1,.17,8.43c-.17,3-.5,6.4-.92,10.37s-.93,8.51-1.94,11.54"/><rect class="cls-1" x="585.99" y="628.99" width="3.03" height="3.03" transform="translate(-260.57 783.7) rotate(-57.26)"/><rect class="cls-1" x="576.52" y="643.49" width="3.03" height="3.03" transform="translate(-277.09 782.53) rotate(-57.27)"/><polyline class="cls-2" points="136.68 459.87 173.08 481.11 180.16 472.01 215.56 502.35 217.58 501.33 229.71 510.44 248.93 487.18 348.03 566.05 345 573.13 427.92 642.91 431.96 637.85 461.29 658.08 534.1 702.57"/><polyline class="cls-2" points="388.48 222.23 394.13 251.87 430.5 267.56 457.46 247.15 450.17 238.41 428.93 255.6 404.66 244.48 400.61 222.23"/><line class="cls-2" x1="372.3" y1="242.45" x2="423.87" y2="264.7"/><path class="cls-2" d="M333.87,265.71c3-5,4.55-6.57,6-7.67a14.3,14.3,0,0,1,4.3-2.27,21.83,21.83,0,0,1,5.56-1,28.79,28.79,0,0,1,9.44.84"/><polyline class="cls-2" points="304.55 227.28 308.59 241.44 310.61 240.43 321.74 251.56 318.7 256.61 333.87 265.71"/><path class="cls-2" d="M261.06,320.32c-58.65-70.79-59.66-72.81-60.17-74.33a10.32,10.32,0,0,1-.5-3.7,32.87,32.87,0,0,1,.16-3.88,12.44,12.44,0,0,1,1.18-4,15.25,15.25,0,0,1,2.7-3.7,17.06,17.06,0,0,1,3.37-2.53,18.84,18.84,0,0,1,4.89-2.36c1.85-.51,3.88-.51,91.86,1.52"/><path class="cls-2" d="M657.81,200.55c17.86-.57,27,.95,35.22,2.72s15.68,3.79,22.08,5.64,11.8,3.54,17.53,5.57,11.8,4.38,17,6.74,9.61,4.72,14.33,7.24a136.11,136.11,0,0,1,13.82,8.09,58.09,58.09,0,0,1,9.1,8.09,18.75,18.75,0,0,1,3.71,5.06,16.35,16.35,0,0,1,1.18,4.72A39.3,39.3,0,0,1,792,259a27.7,27.7,0,0,1-1,7.75"/><path class="cls-2" d="M498.71,203a276.75,276.75,0,0,0,51.74-4.39c13.31-2.36,24.77-5,33.87-7.24s15.85-3.88,21.24-4.72,9.44-.85,21.07-1.18,30.84-1,42-1.18,14.15.17,17.19.67,6.06,1.18,15.17,3.54,24.27,6.41,32.86,9.1,10.62,4,29,14.16,53.09,29,71.63,39.1,20.9,11.46,22.92,12.81a46.67,46.67,0,0,1,5.23,4.05,28.36,28.36,0,0,1,3.87,4,13.88,13.88,0,0,1,2.28,4.64,11.81,11.81,0,0,1,.08,7.5"/><polyline class="cls-2" points="175.1 200.99 276.23 203.01 285.33 198.97 317.69 196.95 340.95 203.01 498.71 203.01"/><polyline class="cls-7" points="970.96 353.69 952.76 339.53 949.72 340.55 946.69 337.51 939.61 330.43 902.2 320.32 890.06 304.14"/><polyline class="cls-7" points="653.43 176.72 675.67 176.72 749.5 189.87 768.71 194.93 784.89 200.99 828.37 222.23 858.71 242.45 881.97 263.69 949.72 334.48 946.69 337.51"/><polyline class="cls-2" points="672.64 157.51 672.64 165.6 713.09 167.62 717.14 147.4 737.36 157.51 740.39 154.47 755.56 161.46 755.56 166.61 777.81 177.73 775.79 185.82 822.31 204.03 827.36 197.96 830.4 198.97 839.5 186.84 853.65 196.95 850.62 204.03 868.82 216.16 890.06 232.34 895.12 228.3 914.33 244.48 911.3 248.52 927.48 263.69 932.53 259.64 945.68 269.76 926.47 296.05 988.15 349.65 982.08 355.71 1011.41 378.97 1022.53 378.97 1026.58 372.9 1045.79 379.98 1050.85 370.88"/><polyline class="cls-2" points="382.41 104.92 258.03 90.77 242.03 151.54"/><polyline class="cls-2" points="644.33 173.69 672.64 157.51 673.65 136.27 666.57 136.27 658.48 114.03 595.79 134.25 399.6 105.94"/><polyline class="cls-2" points="99.26 108.97 136.68 119.08 172.07 124.14 170.05 143.35 196.34 147.4 208.48 150.43 232.75 158.52 237.8 150.43 257.02 155.49 258.03 159.77 329.83 164.59 338.93 163.58 355.11 163.58 375.33 167.62 422.86 177.73 455.22 182.79 471.4 174.7 468.37 187.85 509.83 187.85 509.83 190.88 544.21 188.86 547.25 173.69 563.43 173.69 563.43 176.72 571.51 176.72 571.51 179.76 587.7 179.76 601.85 176.72 656.46 153.46 651.4 137.28"/><polyline class="cls-2" points="175.28 413.49 160.95 402.23 184.21 366.84 141.73 328.41 171.06 290.99 132.63 270.77 77.01 246.5 54.77 272.79 36.56 257.62 43.64 239.42 40.61 227.28 34.54 226.27 34.54 214.14 58.81 216.16 58.81 227.28 61.84 227.28 62.86 219.19 70.95 194.93 79.04 132.23 87.13 104.92 99.26 108.97 91.17 134.25 86.11 162.56 84.09 195.94"/><path class="cls-2" d="M202.41,368.86a27.82,27.82,0,0,0,3.65-11.12,50.77,50.77,0,0,0,.39-7.25c0-2.19,0-4.55-.25-7.25a35.72,35.72,0,0,0-2.78-10.78"/><polyline class="cls-2" points="136.68 459.87 171.06 420.43 202.41 368.86"/><polyline class="cls-2" points="231.06 319.96 221.62 342.57 230.72 350.66 175.1 432.57"/><polyline class="cls-2" points="152.86 236.39 275.92 368.99 331.34 422.03"/><line class="cls-3" x1="634.55" y1="352.16" x2="674.69" y2="406.7"/><line class="cls-3" x1="625.28" y1="360.82" x2="665.66" y2="415.95"/><line class="cls-3" x1="822.31" y1="312.23" x2="822.31" y2="339.76"/><line class="cls-3" x1="812.35" y1="308.25" x2="811.63" y2="341.63"/><line class="cls-5" x1="819.93" y1="467.87" x2="831.73" y2="431.78"/><line class="cls-5" x1="849.61" y1="407.29" x2="847.17" y2="409.03"/><polyline class="cls-3" points="1062.98 620.66 1065.01 621.13 1063.99 622.91"/><path class="cls-2" d="M1074.11,626.73a5.41,5.41,0,0,1-10.12-3.82"/><line class="cls-2" x1="1087.37" y1="591.78" x2="1074.11" y2="626.73"/><polyline class="cls-2" points="1100.4 553.92 1100.4 557.96 1094.44 564.63"/><polygon class="cls-2" points="1100.4 567.07 1075.68 556.95 1064.71 582.7 1091.3 593.36 1100.4 567.07"/><line class="cls-2" x1="1053.88" y1="501.33" x2="1100.4" y2="553.92"/><polyline class="cls-2" points="1053.88 501.33 1033.66 521.56 1073.1 563.02 1049.84 617.63 1062.98 620.66"/><polyline class="cls-3" points="897.14 547.35 973.99 567.07 973.26 570.28"/><polyline class="cls-5" points="586.68 501.33 675.85 558.98 834.44 549.88 835.45 561 863.77 562.01 1012.42 586.28"/><polyline class="cls-5" points="438.94 399.92 586.68 501.33 619.04 451.28"/><line class="cls-2" x1="665.8" y1="254.46" x2="792.98" y2="327.4"/><path class="cls-3" d="M612,319.31c-2.15-2.15-3.93-2.15-6.07,0s-2.15,3.92,0,6.07,3.92,2.14,6.07,0S614.11,321.45,612,319.31Z"/><polyline class="cls-3" points="463.66 242.45 428.93 268.75 419.83 295.04 419.83 365.79"/><path class="cls-8" d="M1019,580.72,897.14,552.91V541.79L793,522.57l.42-5.06c-11.08,11.09-29.57-.26-24.69-15.17l-111.23-36.4L641.29,472l-11.12-23.26-22.25,5.06-2-6.08-69.78-23.25L467.36,399.2v-3l-21.24,1.25L413.8,408.67c-22.76,7.92-35.48-25.58-13.19-34.75l26.29-11.13,11.16-101,22,1.86a8.34,8.34,0,0,1,6.32-8.09l-2.45-10.42c-3.18-18.16,22-26.16,29.9-9.5L497,242.4l-.29,0H497l0,0,66.44-12.08h67.76l1-13.15a18.21,18.21,0,0,1,36.41,0l-3,40.45,113.26,74.83L793,327.4l14.16-21.24,15.17,6.07a21.11,21.11,0,1,1,35.15,21l-4.28,4.28,13.86,11-27,40.88L827.36,381l18.2-29.33-16.17-13.15-40.46,7.08-14.15,12.14-7.08-8.09-18,22.83a17,17,0,0,1-19.44,21.2L705,389.08l-11.12-2L651.4,430.55l12.14,17.18h11.12L748.49,471l3-6.06L775.79,473l5.05-13.15,31.35,6.07,109.22,27.3-2,18.21,70.8,20.22,27.3,15.17ZM655.45,334.47,611,287l-39.45,21.23-.8,4.92-5.26-.87v-1l-10.11,5.06-1,6.06L549,321.28l.41-2.09L495.67,300.1l-7.08,55.61,52,19.38v-1.91l.5-3.08,5.43.89-.41,2.19,9,1.48.36-2.2,5.38.88-.43,2.6,61.68-7.08V363.8l15.18-14.15,4,2Z"/><path class="cls-8" d="M848.1,420.35c.5,1.6,1.51,3.12,4.55,7.17a27.91,27.91,0,0,1-7.84,3.7,31.84,31.84,0,0,1-6.15,1.18,17.8,17.8,0,0,1-5.23-.17,17.36,17.36,0,0,1-4.89-1.85,18,18,0,0,1-4-3,11.79,11.79,0,0,1-2.86-4.38,26,26,0,0,1-1.18-6.07,12,12,0,0,1,.34-4.88c.51-1.69,1.52-3.71,6.57-8.77a29,29,0,0,1,4.21-1.08,20.21,20.21,0,0,1,4.22-.35,14.07,14.07,0,0,1,5.56,1.43,12.65,12.65,0,0,1,3.88,2.36,8.11,8.11,0,0,1,2,3.71,15,15,0,0,1,.34,3.71v2.86A14.69,14.69,0,0,0,848.1,420.35Z"/><polyline class="cls-5" points="693.88 387.06 651.4 430.55 663.54 447.74 674.66 447.74 748.49 470.99 751.52 464.93 775.79 473.02 780.84 459.87 812.19 465.94 822.31 435.6 817.25 430.55 811.18 421.44 815.22 411.33 821.3 402.23 827.36 397.18 833.43 390.09"/><line class="cls-5" x1="463.9" y1="245.18" x2="466.35" y2="255.6"/><polyline class="cls-5" points="548.95 321.29 549.36 319.19 495.67 300.1 488.59 355.71 540.6 375.1 540.6 373.18"/><line class="cls-5" x1="610.96" y1="286.95" x2="571.51" y2="308.18"/><line class="cls-5" x1="655.45" y1="334.47" x2="610.96" y2="286.95"/><line class="cls-5" x1="641.29" y1="351.67" x2="655.45" y2="334.47"/><line class="cls-5" x1="637.25" y1="349.65" x2="641.29" y2="351.67"/><line class="cls-5" x1="622.07" y1="363.8" x2="637.25" y2="349.65"/><line class="cls-5" x1="622.07" y1="368.86" x2="622.07" y2="363.8"/><line class="cls-5" x1="560.39" y1="375.94" x2="622.07" y2="368.86"/><polyline class="cls-5" points="540.6 373.18 541.1 370.1 546.53 370.99 546.12 373.18 555.08 374.65 555.44 372.46 560.82 373.34 560.39 375.94"/><polyline class="cls-5" points="548.95 321.29 554.33 322.34 555.34 316.28 565.45 311.21 565.45 312.23 570.71 313.1 571.51 308.18"/><line class="cls-5" x1="827.36" y1="381" x2="840.02" y2="389.36"/><polyline class="cls-9" points="867.04 348.48 840.02 389.36 831.57 402.16"/><path class="cls-5" d="M852.65,427.52c-3-4-4-5.57-4.55-7.17a14.69,14.69,0,0,1-.51-4.47V413a15,15,0,0,0-.34-3.71,8.11,8.11,0,0,0-2-3.71,12.65,12.65,0,0,0-3.88-2.36,14.07,14.07,0,0,0-5.56-1.43,20.21,20.21,0,0,0-4.22.35,29,29,0,0,0-4.21,1.08"/><path class="cls-5" d="M827.36,403.24c-5.05,5.06-6.06,7.08-6.57,8.77a12,12,0,0,0-.34,4.88,26,26,0,0,0,1.18,6.07,11.79,11.79,0,0,0,2.86,4.38,18,18,0,0,0,4,3,17.36,17.36,0,0,0,4.89,1.85,17.8,17.8,0,0,0,5.23.17,31.84,31.84,0,0,0,6.15-1.18,27.91,27.91,0,0,0,7.84-3.7"/><polyline class="cls-5" points="857.46 333.23 853.18 337.51 867.04 348.48 918.37 389.08 992.2 473.02 988.15 476.05 985.12 473.02 968.94 489.2 934.56 468.97 863.77 397.18 849.61 407.29"/><path class="cls-5" d="M822.31,312.23a21.11,21.11,0,1,1,35.15,21"/><polyline class="cls-5" points="793.4 517.51 792.98 522.57 897.14 541.79 897.14 552.91 1019 580.72"/><path class="cls-5" d="M768.71,502.34c-4.88,14.91,13.61,26.26,24.69,15.17"/><polyline class="cls-5" points="812.19 465.94 921.41 493.24 919.38 511.45 990.18 531.67 1017.48 546.84 1019 580.72 1020.51 614.6"/><polyline class="cls-5" points="749.72 372.48 767.7 349.65 774.78 357.74 788.93 345.6 829.39 338.52 845.57 351.67 827.36 381"/><path class="cls-5" d="M730.28,393.68a17,17,0,0,0,19.44-21.2"/><line class="cls-5" x1="705" y1="389.08" x2="730.28" y2="393.68"/><line class="cls-5" x1="693.88" y1="387.06" x2="705" y2="389.08"/><polyline class="cls-5" points="668.6 217.17 665.56 257.63 778.82 332.45 792.98 327.4 807.14 306.16 822.31 312.23"/><line class="cls-5" x1="632.19" y1="217.17" x2="631.18" y2="230.32"/><path class="cls-5" d="M632.19,217.17a18.21,18.21,0,0,1,36.41,0"/><polyline class="cls-5" points="413.8 408.67 446.12 397.42 467.36 396.17 467.36 399.2 536.12 424.48 605.9 447.74 607.92 453.81 630.17 448.75 641.29 472.01 657.48 465.94 768.71 502.34"/><path class="cls-5" d="M400.61,373.92c-22.29,9.17-9.57,42.67,13.19,34.75"/><polyline class="cls-5" points="460.03 263.69 438.06 261.83 426.9 362.79 400.61 373.92"/><path class="cls-5" d="M466.35,255.6a8.34,8.34,0,0,0-6.32,8.09"/><polyline class="cls-5" points="496.98 242.4 563.42 230.31 631.18 230.31"/><polygon class="cls-5" points="496.98 242.4 497 242.45 496.69 242.45 496.98 242.4"/><line class="cls-5" x1="493.8" y1="235.68" x2="496.98" y2="242.4"/><path class="cls-5" d="M463.9,245.18c-3.18-18.16,22-26.16,29.9-9.5"/><polyline class="cls-2" points="551.87 676.32 556.02 678.35 557.03 677.34 558.86 678.58 558.37 679.32"/><line class="cls-3" x1="435.9" y1="406.21" x2="439.42" y2="400.06"/><line class="cls-3" x1="625.7" y1="567.01" x2="644.15" y2="538.89"/><line class="cls-10" x1="443.67" y1="398.28" x2="589.35" y2="497.21"/><line class="cls-10" x1="450.43" y1="397.17" x2="592.29" y2="492.66"/><line class="cls-10" x1="458.26" y1="396.71" x2="595.52" y2="487.67"/><line class="cls-10" x1="472.52" y1="401.1" x2="598.45" y2="483.13"/><line class="cls-10" x1="492.84" y1="408.57" x2="601.54" y2="478.35"/><line class="cls-10" x1="514.12" y1="416.39" x2="604.78" y2="473.33"/><line class="cls-10" x1="536.12" y1="424.48" x2="608.16" y2="468.12"/><line class="cls-10" x1="557.32" y1="431.54" x2="611.29" y2="463.27"/><line class="cls-10" x1="578.28" y1="438.53" x2="614.36" y2="458.53"/><line class="cls-10" x1="581.49" y1="497.5" x2="610.2" y2="452.94"/><line class="cls-10" x1="576.91" y1="494.63" x2="606.4" y2="449.26"/><line class="cls-10" x1="571.52" y1="490.93" x2="600.82" y2="446.04"/><line class="cls-10" x1="566.78" y1="487.67" x2="595.85" y2="443.46"/><line class="cls-10" x1="561.64" y1="484.15" x2="589.95" y2="442.11"/><line class="cls-10" x1="556.66" y1="480.73" x2="583.5" y2="440.27"/><line class="cls-10" x1="552.61" y1="477.95" x2="578.28" y2="438.53"/><line class="cls-10" x1="547.96" y1="474.75" x2="572.14" y2="436.49"/><line class="cls-10" x1="543.17" y1="471.46" x2="567.09" y2="434.8"/><line class="cls-10" x1="538.48" y1="468.25" x2="561.68" y2="432.57"/><line class="cls-10" x1="534.1" y1="465.24" x2="557.32" y2="431.54"/><line class="cls-10" x1="529.65" y1="462.19" x2="551.77" y2="430.04"/><line class="cls-10" x1="524.74" y1="458.82" x2="547.19" y2="428.17"/><line class="cls-10" x1="520.08" y1="455.62" x2="542.18" y2="426.5"/></svg>