<svg xmlns="http://www.w3.org/2000/svg" width="313.777" height="399.747" viewBox="0 0 83.02 105.766"><path d="M84.04 123.39v-.727l4.285.375.007.769zm0 0" style="fill:none;stroke:#140533;stroke-width:.0926893;stroke-linecap:round;stroke-linejoin:round;stroke-miterlimit:22.9255867;stroke-opacity:1" transform="translate(-64.995 -18.087)"/><path d="m88.332 123.807 2.075-.928.01-.691-2.092.85M84.04 122.663l.399-.317 3.794.273 1.79-.68.394.249" style="fill:none;stroke:#140533;stroke-width:.0926893;stroke-linecap:round;stroke-linejoin:round;stroke-miterlimit:22.9255867;stroke-opacity:1" transform="translate(-64.995 -18.087)"/><path d="m84.249 122.517 4.051.299 1.92-.754" style="fill:none;stroke:#140533;stroke-width:.0926893;stroke-linecap:round;stroke-linejoin:round;stroke-miterlimit:22.9255867;stroke-opacity:1" transform="translate(-64.995 -18.087)"/><path d="m84.439 122.346-.013-.748 3.786.264.02.757M88.212 121.862l1.791-.59-.002.646" style="fill:none;stroke:#140533;stroke-width:.0926893;stroke-linecap:round;stroke-linejoin:round;stroke-miterlimit:22.9255867;stroke-opacity:1" transform="translate(-64.995 -18.087)"/><path d="m84.451 121.566.874-.322s.11.363 1.425.405c1.316.041 1.994-.127 2.108-.211.115-.083.263-.039.263-.039l.116-.183.766.057" style="fill:none;stroke:#140533;stroke-width:.0926893;stroke-linecap:round;stroke-linejoin:round;stroke-miterlimit:22.9255867;stroke-opacity:1" transform="translate(-64.995 -18.087)"/><path d="M85.325 121.244s-.074-.199.029-.323c.103-.125.187-.146.187-.146s.134.211.553.283c.62.104 1.824.12 2.582-.1 0 0 .292.042.3.23.008.187-.11.247-.11.247" style="fill:none;stroke:#140533;stroke-width:.0926893;stroke-linecap:round;stroke-linejoin:round;stroke-miterlimit:22.9255867;stroke-opacity:1" transform="translate(-64.995 -18.087)"/><path d="M85.541 120.775s-.02-.124.057-.175c.078-.052.099-.037.099-.037l.25-29.443s.79.03 1.507.02c.718-.01.853-.04.853-.04l.22 29.557s.114.05.131.132c.018.084.018.17.018.17" style="fill:none;stroke:#140533;stroke-width:.0926893;stroke-linecap:round;stroke-linejoin:round;stroke-miterlimit:22.9255867;stroke-opacity:1" transform="translate(-64.995 -18.087)"/><path d="M88.663 120.814s-.71.237-1.967.173c-1.257-.063-1.09-.376-1.098-.387M101.248 89.292s-5.325-.107-8.877 4.02c-3.553 4.127-3.145 8.045-3.145 8.045l.011 19.86" style="fill:none;stroke:#140533;stroke-width:.0926893;stroke-linecap:round;stroke-linejoin:round;stroke-miterlimit:22.9255867;stroke-opacity:1" transform="translate(-64.995 -18.087)"/><path d="m101.196 121.4-3.662-.043s-.498.177-.946.114c-.447-.062-.323-.094-.323-.094l-4.554-.062-2.474-.374M91.765 94.065l-.054 27.25M85.354 120.921l-.03-19.22s.208-3.87-1.54-7.697c-1.747-3.828-5.564-6.992-9.516-4.017-1.825 1.373-2.836 3.52-3.288 5.139-.683 2.448-.633 4.634-.633 5.035 0 .666-.063 18.117-.063 18.117l-1.801.116-.984-.51.019.666-.354.29.015.678 1.087.736 4.286-.332v-.77l-.375-.312-3.744.25-.915-.54" style="fill:none;stroke:#140533;stroke-width:.0926893;stroke-linecap:round;stroke-linejoin:round;stroke-miterlimit:22.9255867;stroke-opacity:1" transform="translate(-64.995 -18.087)"/><path d="m67.34 118.694 1 .63 4.06-.298" style="fill:none;stroke:#140533;stroke-width:.0926893;stroke-linecap:round;stroke-linejoin:round;stroke-miterlimit:22.9255867;stroke-opacity:1" transform="translate(-64.995 -18.087)"/><path d="m67.164 118.84 1.152.7 4.236-.322M68.455 118.391l.006.697M68.292 119.538l.007.696M72.552 119.538l.241-.03.041-20.208s.23-3.702 1.208-5.657c1.04-2.082 2.468-3.981 4.783-4.652" style="fill:none;stroke:#140533;stroke-width:.0926893;stroke-linecap:round;stroke-linejoin:round;stroke-miterlimit:22.9255867;stroke-opacity:1" transform="translate(-64.995 -18.087)"/><path d="M70.01 117.76c.232.076.188.38-.016.448-.21.072-1.6.083-1.824-.192-.088-.107-.152-.288-.053-.431.1-.143.156-.108.156-.108s-.062.176.49.247c.55.072 1.248.036 1.248.036zm0 0" style="fill:none;stroke:#140533;stroke-width:.09288184;stroke-linecap:round;stroke-linejoin:round;stroke-miterlimit:22.9255867;stroke-opacity:1" transform="translate(-64.995 -18.087)"/><path d="m67.499 117.884.578-.054M68.273 117.475l-.005-.138s.005.176.603.24c.598.062 1.123.03 1.123.03l.017.15" style="fill:none;stroke:#140533;stroke-width:.0926893;stroke-linecap:round;stroke-linejoin:round;stroke-miterlimit:22.9255867;stroke-opacity:1" transform="translate(-64.995 -18.087)"/><path d="m69.994 117.607-.058-.114s-.906.01-1.203-.062c-.296-.073-.314-.13-.315-.13l-.174.075" style="fill:none;stroke:#140533;stroke-width:.0926893;stroke-linecap:round;stroke-linejoin:round;stroke-miterlimit:22.9255867;stroke-opacity:1" transform="translate(-64.995 -18.087)"/><path d="m69.936 117.493-.02-27.212s-.692-.006-.915-.016c-.225-.01-.266-.01-.266-.01l-.317 27.046M72.177 118.84l.001-.691-1.894.13M72.8 115.999l.894.026.557-.229-.032-.536-.566.208h-.852M74.22 115.26l-.243-.194-.008-.706h-1.165" style="fill:none;stroke:#140533;stroke-width:.0926893;stroke-linecap:round;stroke-linejoin:round;stroke-miterlimit:22.9255867;stroke-opacity:1" transform="translate(-64.995 -18.087)"/><path d="m72.823 115.168.782.012.372-.114M72.801 115.313l.85.006.447-.156M74.251 115.796l.664.013.094-17.9s-.084-4.405-.167-4.981c-.081-.576-.056-.615-.056-.615" style="fill:none;stroke:#140533;stroke-width:.0926893;stroke-linecap:round;stroke-linejoin:round;stroke-miterlimit:22.9255867;stroke-opacity:1" transform="translate(-64.995 -18.087)"/><path d="m74.915 115.809.63-.338v-17.38s-.011-3.317 1.414-5.97c1.425-2.652 2.337-2.94 2.337-2.94l-.004 29.749 6.06 1.253M69.961 90.151s-.76.026-1.046-.003c-.285-.029-.322-.07-.264-.135.056-.065.117.032.738.02.622-.01.625-.045.64.031.015.074-.068.087-.068.087zM68.735 90.254s-.083-.016-.097-.06a.087.087 0 0 1 .011-.076" style="fill:none;stroke:#140533;stroke-width:.0926893;stroke-linecap:round;stroke-linejoin:round;stroke-miterlimit:22.9255867;stroke-opacity:1" transform="translate(-64.995 -18.087)"/><path d="M69.916 90.28s.1 0 .103-.04c.003-.038-.037-.095-.037-.095M68.69 89.976c.006-.015-.008-.105.057-.1.066.007.396.042.71.042.315 0 .43-.025.48-.012.049.012.035.111.035.111" style="fill:none;stroke:#140533;stroke-width:.0926893;stroke-linecap:round;stroke-linejoin:round;stroke-miterlimit:22.9255867;stroke-opacity:1" transform="translate(-64.995 -18.087)"/><path d="M88.379 90.967s-1.494.05-2.058.033c-.563-.02-.635-.06-.522-.126.113-.067.23.028 1.454-.006 1.224-.031 1.23-.067 1.26.007.031.076-.134.091-.134.091zM85.966 91.113s-.163-.014-.19-.058c-.03-.043.019-.077.019-.077" style="fill:none;stroke:#140533;stroke-width:.092892;stroke-linecap:round;stroke-linejoin:round;stroke-miterlimit:22.9255867;stroke-opacity:1" transform="translate(-64.995 -18.087)"/><path d="M88.29 91.098s.199-.005.204-.044c.005-.039-.074-.094-.074-.094M85.878 90.835c.01-.016-.016-.104.113-.101.128.003.777.028 1.397.018.62-.011.845-.041.942-.03.097.01.07.11.07.11" style="fill:none;stroke:#140533;stroke-width:.092892;stroke-linecap:round;stroke-linejoin:round;stroke-miterlimit:22.9255867;stroke-opacity:1" transform="translate(-64.995 -18.087)"/><path d="m68.747 89.877.02-1.156M69.936 89.906l-.02-1.185" style="fill:none;stroke:#140533;stroke-width:.0926893;stroke-linecap:round;stroke-linejoin:round;stroke-miterlimit:22.9255867;stroke-opacity:1" transform="translate(-64.995 -18.087)"/><path d="m69.884 88.555-1.04-.005c-.14 0-.188.044-.177.11.01.067.098.07.098.07s.39.019.718.027c.328.008.433-.007.433-.007s.147-.034.118-.12c-.029-.085-.15-.074-.15-.074zm0 0" style="fill:none;stroke:#140533;stroke-width:.09251084;stroke-linecap:round;stroke-linejoin:round;stroke-miterlimit:22.9255867;stroke-opacity:1" transform="translate(-64.995 -18.087)"/><path d="m68.766 88.513.006-.192M69.902 88.551l.003-.222M68.444 88.055s-.004.255.463.27c.469.017 1.013.004 1.024.004.01 0 .157.007.24-.14.084-.144.062-.134.062-.134zm0 0" style="fill:none;stroke:#140533;stroke-width:.0926893;stroke-linecap:round;stroke-linejoin:round;stroke-miterlimit:22.9255867;stroke-opacity:1" transform="translate(-64.995 -18.087)"/><path d="M88.25 89.225s-1.88-.012-2.144-.012c-.263 0-.24.067-.22.133.02.065.186.07.186.07s.73.017 1.345.025c.614.01.846-.01.846-.01s.202.013.176-.112c-.026-.126-.19-.094-.19-.094zm0 0" style="fill:none;stroke:#140533;stroke-width:.09272912;stroke-linecap:round;stroke-linejoin:round;stroke-miterlimit:22.9255867;stroke-opacity:1" transform="translate(-64.995 -18.087)"/><path d="m86.002 89.19.01-.191M88.2 89.236l.005-.22M85.467 88.741s-.01.255.868.27c.878.016 1.9.004 1.92.003.018 0 .295.008.45-.137.156-.147.117-.135.117-.135zm0 0" style="fill:none;stroke:#140533;stroke-width:.09241065;stroke-linecap:round;stroke-linejoin:round;stroke-miterlimit:22.9255867;stroke-opacity:1" transform="translate(-64.995 -18.087)"/><path d="m85.992 90.735.008-1.33M88.29 90.72l-.027-1.294" style="fill:none;stroke:#140533;stroke-width:.0926893;stroke-linecap:round;stroke-linejoin:round;stroke-miterlimit:22.9255867;stroke-opacity:1" transform="translate(-64.995 -18.087)"/><path d="m84.564 87.964-.01.758 3.703.022.874-.022-.011-.714-.896.013" style="fill:none;stroke:#140533;stroke-width:.09253708;stroke-linecap:round;stroke-linejoin:round;stroke-miterlimit:22.9255867;stroke-opacity:1" transform="translate(-64.995 -18.087)"/><path d="m87.716 88.012-2.652-.03M88.257 88.741l.007-.755M70.398 87.484l-1.727-.063v.634l1.727-.01zM67.697 87.383l.02.541.954.131M84.564 87.961l-14.166-.477" style="fill:none;stroke:#140533;stroke-width:.0926893;stroke-linecap:round;stroke-linejoin:round;stroke-miterlimit:22.9255867;stroke-opacity:1" transform="translate(-64.995 -18.087)"/><path d="m67.595 86.709.003.676.9.026M67.595 86.709l18.526.527 15.067.01" style="fill:none;stroke:#140533;stroke-width:.0926893;stroke-linecap:round;stroke-linejoin:round;stroke-miterlimit:22.9255867;stroke-opacity:1" transform="translate(-64.995 -18.087)"/><path d="M67.595 86.709c-.168-.039-.094-.156-.003-.155l18.565.502 15.024-.028" style="fill:none;stroke:#140533;stroke-width:.0926893;stroke-linecap:round;stroke-linejoin:round;stroke-miterlimit:22.9255867;stroke-opacity:1" transform="translate(-64.995 -18.087)"/><path d="m86.157 87.056.03-2.075-.108-.083.026-.135s-.12.073-.25-.188c-.13-.26-.125-.369-.125-.369l-.062-.146s.057-.118 0-.192c-.058-.073-.167-.114-.167-.114s-.062-.125-.187-.255c-.124-.13-.167-.193-.167-.193s-.094.026-.118-.135c-.027-.161-.022-.187-.079-.322-.058-.135-.078-.126-.078-.126l.005-.431 1.355.006.008-1.433" style="fill:none;stroke:#140533;stroke-width:.0926893;stroke-linecap:round;stroke-linejoin:round;stroke-miterlimit:22.9255867;stroke-opacity:1" transform="translate(-64.995 -18.087)"/><path d="m67.68 86.556.03-1.975-.23-.014-.012-.136s-.295-.014-.424-.252c-.13-.237-.114-.27-.114-.27l-.214-.08s-.026-.158-.083-.224c-.058-.066-.158-.055-.151-.058.008 0-.146-.32-.15-.352-.006-.032-.563-.03-.563-.03s-.127-.154-.244-.243c-.055-.043-.143.015-.149-.048-.015-.2-.01-.25-.017-.265-.009-.015-.317-.01-.317-.01v-.413" style="fill:none;stroke:#140533;stroke-width:.09247888;stroke-linecap:round;stroke-linejoin:round;stroke-miterlimit:22.9255867;stroke-opacity:1" transform="translate(-64.995 -18.087)"/><path d="m65.042 82.187 19.835.105M84.872 82.723l-19.513-.113M85.012 83.07l-19.591-.163M85.208 83.382l-18.925-.2M66.633 83.607l18.868.147M66.93 83.911l18.744.199M67.74 84.571l18.339.327M67.809 82.202l.01-1.248 18.421-.09" style="fill:none;stroke:#140533;stroke-width:.0926893;stroke-linecap:round;stroke-linejoin:round;stroke-miterlimit:22.9255867;stroke-opacity:1" transform="translate(-64.995 -18.087)"/><path d="m67.82 80.954.259-.214-.026-4.012s-.326-.147-.284-.255c.041-.11.245-.124.245-.124l18.32-.469s-.079.13-.036.27c.041.14.041.193.041.193l-.029 4.384" style="fill:none;stroke:#140533;stroke-width:.0926893;stroke-linecap:round;stroke-linejoin:round;stroke-miterlimit:22.9255867;stroke-opacity:1" transform="translate(-64.995 -18.087)"/><path d="m68.053 76.728 18.27-.483 14.867.006M86.334 75.88l14.84-.016M86.24 80.864l14.934.003M79.843 76.045l.197-16.843M80.05 58.89l-.01-.91M80.044 57.767l-.007-.123s.637-.096 1.267-.052c.628.044.701.079.701.079l-.01.135M81.997 57.993v.977M82.128 75.934l-.126-16.706M80.04 59.202s-.151-.05-.12-.153c.03-.104.124-.131.124-.131s.645-.044 1.212-.026c.566.016.741.078.741.078s.15.035.117.15c-.033.116-.112.108-.112.108s-.536-.08-1.014-.06c-.478.021-.948.034-.948.034zm0 0" style="fill:none;stroke:#140533;stroke-width:.0926893;stroke-linecap:round;stroke-linejoin:round;stroke-miterlimit:22.9255867;stroke-opacity:1" transform="translate(-64.995 -18.087)"/><path d="M80.04 57.98s-.096-.017-.094-.105c.003-.089.105-.1.105-.1s.363-.04.788-.048c.297-.006.652.015.823.037.07.01.237.007.367.057.151.06.06.201-.064.19-.233-.02-.408-.062-1.02-.062-.614 0-.792.036-.905.032zM80.037 57.644s-.106-.004-.2-.093c-.092-.088-.094-.142-.094-.142s.232-.11.997-.12c.765-.011 1.363.083 1.466.109.105.026.094.083.094.083s-.08.151-.173.18c-.094.028-.123.023-.123.023" style="fill:none;stroke:#140533;stroke-width:.0926893;stroke-linecap:round;stroke-linejoin:round;stroke-miterlimit:22.9255867;stroke-opacity:1" transform="translate(-64.995 -18.087)"/><path d="m79.78 57.486-.641-.023.927-.297 2.893.106-.832.389" style="fill:none;stroke:#140533;stroke-width:.0926893;stroke-linecap:round;stroke-linejoin:round;stroke-miterlimit:22.9255867;stroke-opacity:1" transform="translate(-64.995 -18.087)"/><path d="m79.124 57.461.007-.456.931-.342 2.91.163-.013.446" style="fill:none;stroke:#140533;stroke-width:.0926893;stroke-linecap:round;stroke-linejoin:round;stroke-miterlimit:22.9255867;stroke-opacity:1" transform="translate(-64.995 -18.087)"/><path d="m93.537 75.872-.032-17.99M93.494 57.569l.011-.91M93.5 56.446l.008-.122s-.707-.096-1.404-.052c-.7.044-.779.079-.779.079l.011.135M91.333 56.672v.978M91.153 75.927l.175-18.02M93.505 57.881s.168-.05.134-.154c-.036-.103-.14-.13-.14-.13s-.715-.043-1.343-.027c-.629.018-.823.08-.823.08s-.165.033-.13.149c.036.116.125.109.125.109s.594-.08 1.124-.06c.53.021 1.053.034 1.053.034zm0 0" style="fill:none;stroke:#140533;stroke-width:.09261263;stroke-linecap:round;stroke-linejoin:round;stroke-miterlimit:22.9255867;stroke-opacity:1" transform="translate(-64.995 -18.087)"/><path d="M93.505 56.66s.106-.017.103-.106c-.002-.09-.117-.099-.117-.099s-.4-.041-.873-.05a8.174 8.174 0 0 0-.913.038c-.078.01-.263.008-.406.058-.17.058-.068.2.07.19.258-.02.452-.063 1.133-.063.68 0 .878.035 1.003.031zM93.508 56.324s.117-.006.22-.093c.104-.089.106-.144.106-.144s-.259-.109-1.106-.12a9.434 9.434 0 0 0-1.628.11c-.114.025-.103.083-.103.083s.09.15.193.18c.105.028.135.023.135.023" style="fill:none;stroke:#140533;stroke-width:.09261263;stroke-linecap:round;stroke-linejoin:round;stroke-miterlimit:22.9255867;stroke-opacity:1" transform="translate(-64.995 -18.087)"/><path d="m93.793 56.166.711-.024-1.31-.288-2.926.098.922.387" style="fill:none;stroke:#140533;stroke-width:.09261263;stroke-linecap:round;stroke-linejoin:round;stroke-miterlimit:22.9255867;stroke-opacity:1" transform="translate(-64.995 -18.087)"/><path d="m94.52 56.14-.008-.456-1.34-.356-2.92.176.016.448" style="fill:none;stroke:#140533;stroke-width:.09261263;stroke-linecap:round;stroke-linejoin:round;stroke-miterlimit:22.9255867;stroke-opacity:1" transform="translate(-64.995 -18.087)"/><path d="m80.066 57.166-.004-.503M93.195 55.854l-.022-.526M82.576 75.977l-.033-18.51.416-.195.01-.344 7.47-.904M94.514 55.777l6.657.007" style="fill:none;stroke:#140533;stroke-width:.0926893;stroke-linecap:round;stroke-linejoin:round;stroke-miterlimit:22.9255867;stroke-opacity:1" transform="translate(-64.995 -18.087)"/><path d="m85.758 74.11-.022-11.816 3.952-.353" style="fill:none;stroke:#140533;stroke-width:.0926893;stroke-linecap:round;stroke-linejoin:round;stroke-miterlimit:22.9255867;stroke-opacity:1" transform="translate(-64.995 -18.087)"/><path d="m89.589 62.209-3.567.311-.026 11.398.64-.011-.024-11.438M88.403 73.784l-.005-11.47" style="fill:none;stroke:#140533;stroke-width:.0926893;stroke-linecap:round;stroke-linejoin:round;stroke-miterlimit:22.9255867;stroke-opacity:1" transform="translate(-64.995 -18.087)"/><path d="m85.348 74.801 4.797-.138V61.205" style="fill:none;stroke:#140533;stroke-width:.09264921;stroke-linecap:round;stroke-linejoin:round;stroke-miterlimit:22.9255867;stroke-opacity:1" transform="translate(-64.995 -18.087)"/><path d="M85.15 60.208v.607l5.17-.503.003-.61zm0 0" style="fill:none;stroke:#140533;stroke-width:.09284227;stroke-linecap:round;stroke-linejoin:round;stroke-miterlimit:22.9255867;stroke-opacity:1" transform="translate(-64.995 -18.087)"/><path d="m85.15 60.208-.185-.104 5.395-.55.309-.012-.1.138-.246.022M90.32 60.312l.192-.015-.001-.606" style="fill:none;stroke:#140533;stroke-width:.09284227;stroke-linecap:round;stroke-linejoin:round;stroke-miterlimit:22.9255867;stroke-opacity:1" transform="translate(-64.995 -18.087)"/><path d="m84.898 60.075-.002-.143 5.452-.575.322-.015v.2" style="fill:none;stroke:#140533;stroke-width:.09284227;stroke-linecap:round;stroke-linejoin:round;stroke-miterlimit:22.9255867;stroke-opacity:1" transform="translate(-64.995 -18.087)"/><path d="m84.896 59.932-.32.03v-.333l5.751-.633.346.024-.003.322" style="fill:none;stroke:#140533;stroke-width:.09284227;stroke-linecap:round;stroke-linejoin:round;stroke-miterlimit:22.9255867;stroke-opacity:1" transform="translate(-64.995 -18.087)"/><path d="m90.327 58.996.02.361-.03.202-.02.144" style="fill:none;stroke:#140533;stroke-width:.09284227;stroke-linecap:round;stroke-linejoin:round;stroke-miterlimit:22.9255867;stroke-opacity:1" transform="translate(-64.995 -18.087)"/><path d="M82.044 60.595c.058 0 .504-.008.504.03" style="fill:none;stroke:#140533;stroke-width:.0926893;stroke-linecap:round;stroke-linejoin:round;stroke-miterlimit:22.9255867;stroke-opacity:1" transform="translate(-64.995 -18.087)"/><path d="M82.004 59.23c.202-.002.349.016.543.032M82.092 59.022c.203-.003.26.014.455.03" style="fill:none;stroke:#140533;stroke-width:.0926479;stroke-linecap:round;stroke-linejoin:round;stroke-miterlimit:22.9255867;stroke-opacity:1" transform="translate(-64.995 -18.087)"/><path d="M81.997 58.475c.238-.003.307.013.536.03" style="fill:none;stroke:#140533;stroke-width:.09254054;stroke-linecap:round;stroke-linejoin:round;stroke-miterlimit:22.9255867;stroke-opacity:1" transform="translate(-64.995 -18.087)"/><path d="m79.778 56.768.006-.453 12.106-1.519M80.948 56.713l9.306-1.138M91.89 54.796l9.298-.018M93.43 55.395l7.748-.013M79.784 56.315s-.115-.05-.1-.1c.017-.053.15-.074.15-.074v-1.55l12.063-1.654h9.278" style="fill:none;stroke:#140533;stroke-width:.0926893;stroke-linecap:round;stroke-linejoin:round;stroke-miterlimit:22.9255867;stroke-opacity:1" transform="translate(-64.995 -18.087)"/><path d="m79.833 54.708-.166-.182-.006-.131 12.226-1.658 9.298.028" style="fill:none;stroke:#140533;stroke-width:.0926893;stroke-linecap:round;stroke-linejoin:round;stroke-miterlimit:22.9255867;stroke-opacity:1" transform="translate(-64.995 -18.087)"/><path d="M79.833 54.94s-.53-.697-.577-.79c-.047-.094-.058-.201-.058-.201l12.365-1.727 9.623.026" style="fill:none;stroke:#140533;stroke-width:.0926893;stroke-linecap:round;stroke-linejoin:round;stroke-miterlimit:22.9255867;stroke-opacity:1" transform="translate(-64.995 -18.087)"/><path d="m79.198 53.949-.207-.064s.06-.092.003-.175a.58.58 0 0 0-.198-.146l12.58-1.768 9.802-.004" style="fill:none;stroke:#140533;stroke-width:.0926893;stroke-linecap:round;stroke-linejoin:round;stroke-miterlimit:22.9255867;stroke-opacity:1" transform="translate(-64.995 -18.087)"/><path d="M78.816 53.59s0-.173-.13-.234" style="fill:none;stroke:#140533;stroke-width:.0926893;stroke-linecap:round;stroke-linejoin:round;stroke-miterlimit:22.9255867;stroke-opacity:1" transform="translate(-64.995 -18.087)"/><path d="m79.833 55.367-1.602-2.06 12.996-1.777 9.974-.05" style="fill:none;stroke:#140533;stroke-width:.0926893;stroke-linecap:round;stroke-linejoin:round;stroke-miterlimit:22.9255867;stroke-opacity:1" transform="translate(-64.995 -18.087)"/><path d="M78.23 53.306s-.137-.013-.199-.128c-.063-.114-.063-.161-.063-.161l13.105-1.82 10.13.015" style="fill:none;stroke:#140533;stroke-width:.0926893;stroke-linecap:round;stroke-linejoin:round;stroke-miterlimit:22.9255867;stroke-opacity:1" transform="translate(-64.995 -18.087)"/><path d="m77.968 53.017-.03-.247 13.077-1.852 10.162-.031" style="fill:none;stroke:#140533;stroke-width:.0926893;stroke-linecap:round;stroke-linejoin:round;stroke-miterlimit:22.9255867;stroke-opacity:1" transform="translate(-64.995 -18.087)"/><path d="m79.76 55.278-.147.004-1.925-2.505v-.335l13.233-1.908 10.256.01M77.937 52.77l-.248.025" style="fill:none;stroke:#140533;stroke-width:.0926893;stroke-linecap:round;stroke-linejoin:round;stroke-miterlimit:22.9255867;stroke-opacity:1" transform="translate(-64.995 -18.087)"/><path d="M77.688 52.442s3.398-.008 4.937-4.334c1.54-4.327 3.266-7.437 8.238-8.892a48.634 48.634 0 0 1 7.276-1.537c.855-.111 1.473-.062 2.594-.096" style="fill:none;stroke:#140533;stroke-width:.04634465;stroke-linecap:round;stroke-linejoin:round;stroke-miterlimit:22.9255867;stroke-opacity:1" transform="translate(-64.995 -18.087)"/><path d="m81.961 49.554-.038-3.849 1.66-.016M81.923 45.705l-.135-.02s.016-.12-.062-.267c-.079-.144-.167-.197-.167-.197l2.238.014" style="fill:none;stroke:#140533;stroke-width:.0926893;stroke-linecap:round;stroke-linejoin:round;stroke-miterlimit:22.9255867;stroke-opacity:1" transform="translate(-64.995 -18.087)"/><path d="m83.906 45.013-2.664-.01.493.94h.19M84.123 44.593l-2.887-.007.006.416M81.236 44.586s.863-.083 1.114-.915c.25-.832.551-.967 1.217-1.07.665-.105.633-.032.769-.563.135-.53.088-.936.088-.936M84.548 41.112s.005 1.114.12 1.286c.114.17.747.238.747.238M84.454 39.86s-.037.022-.048-.014c-.03-.084-.024-.292-.138-.434-.143-.178.103-4.597.103-4.597l.26 4.587s-.07.085-.11.12c-.044.033-.067.338-.067.338zm0 0" style="fill:none;stroke:#140533;stroke-width:.0926893;stroke-linecap:round;stroke-linejoin:round;stroke-miterlimit:22.9255867;stroke-opacity:1" transform="translate(-64.995 -18.087)"/><path d="M84.475 39.872c.348 0 .63.28.63.624a.628.628 0 0 1-.63.624.628.628 0 0 1-.633-.624c0-.344.283-.624.633-.624zm0 0" style="fill:none;stroke:#140533;stroke-width:.09277651;stroke-linecap:round;stroke-linejoin:round;stroke-miterlimit:22.9255867;stroke-opacity:1" transform="translate(-64.995 -18.087)"/><path d="M118.459 123.39v-.727l-4.286.375-.008.769zm0 0" style="fill:none;stroke:#140533;stroke-width:.0926893;stroke-linecap:round;stroke-linejoin:round;stroke-miterlimit:22.9255867;stroke-opacity:1" transform="translate(-64.995 -18.087)"/><path d="m114.165 123.807-2.074-.928-.011-.691 2.093.85M118.459 122.663l-.402-.317-3.793.273-1.789-.68-.395.249" style="fill:none;stroke:#140533;stroke-width:.0926893;stroke-linecap:round;stroke-linejoin:round;stroke-miterlimit:22.9255867;stroke-opacity:1" transform="translate(-64.995 -18.087)"/><path d="m118.249 122.517-4.053.299-1.918-.754" style="fill:none;stroke:#140533;stroke-width:.0926893;stroke-linecap:round;stroke-linejoin:round;stroke-miterlimit:22.9255867;stroke-opacity:1" transform="translate(-64.995 -18.087)"/><path d="m118.057 122.346.013-.748-3.786.264-.02.757M114.284 121.862l-1.79-.59.001.646" style="fill:none;stroke:#140533;stroke-width:.0926893;stroke-linecap:round;stroke-linejoin:round;stroke-miterlimit:22.9255867;stroke-opacity:1" transform="translate(-64.995 -18.087)"/><path d="m118.045 121.566-.874-.322s-.108.363-1.424.405c-1.317.041-1.994-.127-2.109-.211-.114-.083-.263-.039-.263-.039l-.116-.183-.765.057" style="fill:none;stroke:#140533;stroke-width:.0926893;stroke-linecap:round;stroke-linejoin:round;stroke-miterlimit:22.9255867;stroke-opacity:1" transform="translate(-64.995 -18.087)"/><path d="M117.171 121.244s.076-.199-.027-.323c-.105-.125-.188-.146-.188-.146s-.133.211-.552.283c-.62.104-1.825.12-2.584-.1 0 0-.29.042-.3.23-.006.187.11.247.11.247" style="fill:none;stroke:#140533;stroke-width:.0926893;stroke-linecap:round;stroke-linejoin:round;stroke-miterlimit:22.9255867;stroke-opacity:1" transform="translate(-64.995 -18.087)"/><path d="M116.956 120.775s.021-.124-.057-.175c-.078-.052-.098-.037-.098-.037l-.25-29.443s-.79.03-1.509.02c-.716-.01-.853-.04-.853-.04l-.217 29.557s-.115.05-.133.132c-.019.084-.019.17-.019.17" style="fill:none;stroke:#140533;stroke-width:.0926893;stroke-linecap:round;stroke-linejoin:round;stroke-miterlimit:22.9255867;stroke-opacity:1" transform="translate(-64.995 -18.087)"/><path d="M113.834 120.814s.71.237 1.966.173c1.258-.063 1.09-.376 1.099-.387M101.248 89.292s5.325-.107 8.877 4.02c3.553 4.127 3.147 8.045 3.147 8.045l-.013 19.86" style="fill:none;stroke:#140533;stroke-width:.0926893;stroke-linecap:round;stroke-linejoin:round;stroke-miterlimit:22.9255867;stroke-opacity:1" transform="translate(-64.995 -18.087)"/><path d="m101.124 121.398 4.078-.025s.26.161.707.098c.448-.062.322-.094.322-.094l4.556-.062 2.474-.375M110.733 94.065l.054 27.25M117.144 120.921l.03-19.22s-.208-3.87 1.54-7.697c1.747-3.828 5.564-6.992 9.516-4.017 1.825 1.373 2.836 3.52 3.287 5.139.683 2.448.634 4.634.634 5.035 0 .666.062 18.117.062 18.117l1.802.116.984-.51-.02.666.355.29-.015.678-1.088.736-4.285-.332v-.77l.375-.312 3.744.25.915-.54" style="fill:none;stroke:#140533;stroke-width:.0926893;stroke-linecap:round;stroke-linejoin:round;stroke-miterlimit:22.9255867;stroke-opacity:1" transform="translate(-64.995 -18.087)"/><path d="m135.156 118.694-.998.63-4.062-.298" style="fill:none;stroke:#140533;stroke-width:.0926893;stroke-linecap:round;stroke-linejoin:round;stroke-miterlimit:22.9255867;stroke-opacity:1" transform="translate(-64.995 -18.087)"/><path d="m135.334 118.84-1.152.7-4.236-.322M134.043 118.391l-.007.697M134.205 119.538l-.007.696M129.946 119.538l-.243-.03-.041-20.208s-.229-3.702-1.206-5.657c-1.04-2.082-2.468-3.981-4.783-4.652" style="fill:none;stroke:#140533;stroke-width:.0926893;stroke-linecap:round;stroke-linejoin:round;stroke-miterlimit:22.9255867;stroke-opacity:1" transform="translate(-64.995 -18.087)"/><path d="M132.487 117.76c-.232.076-.187.38.016.448.211.072 1.6.083 1.825-.192.088-.107.152-.288.052-.431-.099-.143-.155-.108-.155-.108s.062.176-.49.247c-.55.072-1.248.036-1.248.036zm0 0" style="fill:none;stroke:#140533;stroke-width:.09288184;stroke-linecap:round;stroke-linejoin:round;stroke-miterlimit:22.9255867;stroke-opacity:1" transform="translate(-64.995 -18.087)"/><path d="m135 117.884-.58-.054M134.223 117.475l.007-.138s-.006.176-.603.24c-.598.062-1.123.03-1.123.03l-.017.15" style="fill:none;stroke:#140533;stroke-width:.0926893;stroke-linecap:round;stroke-linejoin:round;stroke-miterlimit:22.9255867;stroke-opacity:1" transform="translate(-64.995 -18.087)"/><path d="m132.503 117.607.058-.114s.907.01 1.203-.062c.297-.073.315-.13.315-.13l.175.075M132.561 117.493l.021-27.212s.692-.006.915-.016c.223-.01.266-.01.266-.01l.316 27.046M130.32 118.84l-.002-.691 1.894.13M129.696 115.999l-.893.026-.556-.229.03-.536.568.208h.85" style="fill:none;stroke:#140533;stroke-width:.0926893;stroke-linecap:round;stroke-linejoin:round;stroke-miterlimit:22.9255867;stroke-opacity:1" transform="translate(-64.995 -18.087)"/><path d="m128.277 115.26.244-.194.008-.706h1.164" style="fill:none;stroke:#140533;stroke-width:.0926893;stroke-linecap:round;stroke-linejoin:round;stroke-miterlimit:22.9255867;stroke-opacity:1" transform="translate(-64.995 -18.087)"/><path d="m129.674 115.168-.781.012-.372-.114M129.695 115.313l-.847.006-.448-.156M128.247 115.796l-.666.013-.094-17.9s.086-4.405.167-4.981c.083-.576.058-.615.058-.615M127.581 115.809l-.628-.338v-17.38s.01-3.317-1.414-5.97c-1.426-2.652-2.339-2.94-2.339-2.94l.006 29.749-6.062 1.253M132.537 90.151s.759.026 1.044-.003c.287-.029.323-.07.266-.135-.058-.065-.117.032-.739.02-.621-.01-.624-.045-.64.031-.016.074.069.087.069.087zM133.763 90.254s.081-.016.096-.06c.014-.044-.01-.076-.01-.076" style="fill:none;stroke:#140533;stroke-width:.0926893;stroke-linecap:round;stroke-linejoin:round;stroke-miterlimit:22.9255867;stroke-opacity:1" transform="translate(-64.995 -18.087)"/><path d="M132.582 90.28s-.102 0-.103-.04c-.003-.038.037-.095.037-.095M133.807 89.976c-.005-.015.007-.105-.058-.1-.065.007-.394.042-.71.042-.314 0-.428-.025-.478-.012-.05.012-.035.111-.035.111" style="fill:none;stroke:#140533;stroke-width:.0926893;stroke-linecap:round;stroke-linejoin:round;stroke-miterlimit:22.9255867;stroke-opacity:1" transform="translate(-64.995 -18.087)"/><path d="M114.115 90.965s1.495.051 2.059.034c.562-.02.634-.06.522-.126-.113-.067-.232.028-1.455-.005-1.224-.032-1.23-.067-1.26.007-.031.076.134.091.134.091zM116.53 91.111s.16-.013.19-.057c.027-.043-.021-.078-.021-.078" style="fill:none;stroke:#140533;stroke-width:.092892;stroke-linecap:round;stroke-linejoin:round;stroke-miterlimit:22.9255867;stroke-opacity:1" transform="translate(-64.995 -18.087)"/><path d="M114.204 91.096s-.2-.005-.203-.044c-.005-.038.073-.093.073-.093M116.616 90.833c-.01-.015.017-.103-.112-.1-.128.003-.778.028-1.398.017-.619-.01-.845-.04-.941-.03-.098.011-.072.11-.072.11" style="fill:none;stroke:#140533;stroke-width:.092892;stroke-linecap:round;stroke-linejoin:round;stroke-miterlimit:22.9255867;stroke-opacity:1" transform="translate(-64.995 -18.087)"/><path d="m133.75 89.877-.02-1.156M132.561 89.906l.02-1.185" style="fill:none;stroke:#140533;stroke-width:.0926893;stroke-linecap:round;stroke-linejoin:round;stroke-miterlimit:22.9255867;stroke-opacity:1" transform="translate(-64.995 -18.087)"/><path d="m132.61 88.555 1.04-.005c.14 0 .187.044.176.11-.01.067-.097.07-.097.07s-.39.019-.718.027c-.328.008-.433-.007-.433-.007s-.148-.034-.119-.12c.03-.085.15-.074.15-.074zm0 0" style="fill:none;stroke:#140533;stroke-width:.09251084;stroke-linecap:round;stroke-linejoin:round;stroke-miterlimit:22.9255867;stroke-opacity:1" transform="translate(-64.995 -18.087)"/><path d="m133.73 88.513-.004-.192M132.596 88.551l-.003-.222M134.052 88.055s.006.255-.463.27c-.467.017-1.012.004-1.022.004-.01 0-.157.007-.241-.14-.083-.144-.062-.134-.062-.134zm0 0" style="fill:none;stroke:#140533;stroke-width:.0926893;stroke-linecap:round;stroke-linejoin:round;stroke-miterlimit:22.9255867;stroke-opacity:1" transform="translate(-64.995 -18.087)"/><path d="M114.247 89.225s1.88-.012 2.143-.012c.263 0 .24.067.22.133-.02.065-.185.07-.185.07s-.732.017-1.347.025c-.614.01-.845-.01-.845-.01s-.204.013-.176-.112c.026-.126.19-.094.19-.094zm0 0" style="fill:none;stroke:#140533;stroke-width:.09272912;stroke-linecap:round;stroke-linejoin:round;stroke-miterlimit:22.9255867;stroke-opacity:1" transform="translate(-64.995 -18.087)"/><path d="m116.495 89.19-.01-.191M114.297 89.236l-.005-.22M117.03 88.741s.01.255-.869.27c-.878.016-1.9.004-1.918.003-.018 0-.295.008-.45-.137-.158-.147-.118-.135-.118-.135zm0 0" style="fill:none;stroke:#140533;stroke-width:.09241065;stroke-linecap:round;stroke-linejoin:round;stroke-miterlimit:22.9255867;stroke-opacity:1" transform="translate(-64.995 -18.087)"/><path d="m116.504 90.735-.007-1.33M114.207 90.72l.028-1.294" style="fill:none;stroke:#140533;stroke-width:.0926893;stroke-linecap:round;stroke-linejoin:round;stroke-miterlimit:22.9255867;stroke-opacity:1" transform="translate(-64.995 -18.087)"/><path d="m117.932 87.964.011.758-3.703.022-.873-.022.01-.714.895.013" style="fill:none;stroke:#140533;stroke-width:.09253708;stroke-linecap:round;stroke-linejoin:round;stroke-miterlimit:22.9255867;stroke-opacity:1" transform="translate(-64.995 -18.087)"/><path d="m114.78 88.012 2.653-.03M114.24 88.741l-.008-.755M132.1 87.484l1.726-.063v.634l-1.726-.01zM134.8 87.383l-.02.541-.954.131M117.932 87.961l14.168-.477" style="fill:none;stroke:#140533;stroke-width:.0926893;stroke-linecap:round;stroke-linejoin:round;stroke-miterlimit:22.9255867;stroke-opacity:1" transform="translate(-64.995 -18.087)"/><path d="m134.903 86.709-.003.676-.9.026M134.903 86.709l-18.528.527-15.429.01" style="fill:none;stroke:#140533;stroke-width:.0926893;stroke-linecap:round;stroke-linejoin:round;stroke-miterlimit:22.9255867;stroke-opacity:1" transform="translate(-64.995 -18.087)"/><path d="M134.903 86.709c.166-.039.093-.156.003-.155l-18.567.502-15.434-.028" style="fill:none;stroke:#140533;stroke-width:.0926893;stroke-linecap:round;stroke-linejoin:round;stroke-miterlimit:22.9255867;stroke-opacity:1" transform="translate(-64.995 -18.087)"/><path d="m116.34 87.056-.031-2.075.11-.083-.026-.135s.118.073.25-.188c.129-.26.123-.369.123-.369l.064-.146s-.058-.118 0-.192c.056-.073.165-.114.165-.114s.063-.125.189-.255c.124-.13.165-.193.165-.193s.094.026.12-.135c.026-.161.02-.187.079-.322.056-.135.077-.126.077-.126l-.004-.431-1.355.006-.01-1.433" style="fill:none;stroke:#140533;stroke-width:.0926893;stroke-linecap:round;stroke-linejoin:round;stroke-miterlimit:22.9255867;stroke-opacity:1" transform="translate(-64.995 -18.087)"/><path d="m134.817 86.556-.03-1.975.229-.014.012-.136s.294-.014.424-.252c.13-.237.115-.27.115-.27l.213-.08s.025-.158.083-.224c.057-.066.159-.055.15-.058-.007 0 .146-.32.152-.352.006-.032.562-.03.562-.03s.127-.154.243-.243c.055-.043.144.015.15-.048.015-.2.01-.25.018-.265.008-.015.317-.01.317-.01v-.413" style="fill:none;stroke:#140533;stroke-width:.09247888;stroke-linecap:round;stroke-linejoin:round;stroke-miterlimit:22.9255867;stroke-opacity:1" transform="translate(-64.995 -18.087)"/><path d="m137.455 82.187-19.834.105M117.625 82.723l19.513-.113M117.484 83.07l19.593-.163M117.29 83.382l18.923-.2M135.864 83.607l-18.869.147M135.567 83.911l-18.743.199M134.758 84.571l-18.339.327M134.688 82.202l-.01-1.248-18.422-.09M134.678 80.954l-.26-.214.026-4.012s.326-.147.284-.255c-.042-.11-.244-.124-.244-.124l-18.321-.469s.078.13.037.27-.041.193-.041.193l.029 4.384" style="fill:none;stroke:#140533;stroke-width:.0926893;stroke-linecap:round;stroke-linejoin:round;stroke-miterlimit:22.9255867;stroke-opacity:1" transform="translate(-64.995 -18.087)"/><path d="m134.444 76.728-18.269-.483-15.014.006M116.163 75.88l-15.054-.016M116.256 80.864l-14.933.003M122.655 76.045l-.197-16.843M122.447 58.89l.01-.91M122.452 57.767l.008-.123s-.637-.096-1.266-.052c-.63.044-.702.079-.702.079l.01.135M120.5 57.993v.977M120.37 75.934l.125-16.706M122.458 59.202s.151-.05.12-.153a.202.202 0 0 0-.126-.131s-.645-.044-1.211-.026c-.567.016-.742.078-.742.078s-.148.035-.115.15c.031.116.111.108.111.108s.535-.08 1.013-.06c.48.021.95.034.95.034zm0 0" style="fill:none;stroke:#140533;stroke-width:.0926893;stroke-linecap:round;stroke-linejoin:round;stroke-miterlimit:22.9255867;stroke-opacity:1" transform="translate(-64.995 -18.087)"/><path d="M122.458 57.98s.095-.017.093-.105c-.003-.089-.104-.1-.104-.1s-.363-.04-.789-.048a6.642 6.642 0 0 0-.822.037c-.07.01-.237.007-.367.057-.153.06-.062.201.062.19.234-.02.41-.062 1.023-.062s.79.036.904.032zM122.46 57.644s.105-.004.199-.093c.093-.088.096-.142.096-.142s-.234-.11-.999-.12c-.763-.011-1.361.083-1.466.109-.103.026-.094.083-.094.083s.082.151.175.18c.094.028.122.023.122.023" style="fill:none;stroke:#140533;stroke-width:.0926893;stroke-linecap:round;stroke-linejoin:round;stroke-miterlimit:22.9255867;stroke-opacity:1" transform="translate(-64.995 -18.087)"/><path d="m122.718 57.486.64-.023-.928-.297-2.891.106.832.389" style="fill:none;stroke:#140533;stroke-width:.0926893;stroke-linecap:round;stroke-linejoin:round;stroke-miterlimit:22.9255867;stroke-opacity:1" transform="translate(-64.995 -18.087)"/><path d="m123.374 57.461-.008-.456-.93-.342-2.91.163.013.446" style="fill:none;stroke:#140533;stroke-width:.0926893;stroke-linecap:round;stroke-linejoin:round;stroke-miterlimit:22.9255867;stroke-opacity:1" transform="translate(-64.995 -18.087)"/><path d="m108.962 75.872.03-17.99M109.005 57.569l-.012-.91M109 56.446l-.01-.122s.707-.096 1.405-.052c.698.044.779.079.779.079l-.013.135M111.165 56.672v.978M111.345 75.927l-.175-18.02M108.993 57.881s-.167-.05-.133-.154c.035-.103.14-.13.14-.13s.713-.043 1.343-.027c.629.018.822.08.822.08s.165.033.13.149c-.037.116-.125.109-.125.109s-.594-.08-1.124-.06c-.531.021-1.053.034-1.053.034zm0 0" style="fill:none;stroke:#140533;stroke-width:.09261263;stroke-linecap:round;stroke-linejoin:round;stroke-miterlimit:22.9255867;stroke-opacity:1" transform="translate(-64.995 -18.087)"/><path d="M108.993 56.66s-.106-.017-.104-.106c.003-.09.118-.099.118-.099s.4-.041.873-.05c.33-.005.724.016.912.038.08.01.264.008.407.058.17.058.069.2-.069.19-.259-.02-.453-.063-1.134-.063-.68 0-.876.035-1.003.031zM108.99 56.324s-.116-.006-.22-.093c-.104-.089-.107-.144-.107-.144s.26-.109 1.107-.12a9.434 9.434 0 0 1 1.627.11c.116.025.104.083.104.083s-.09.15-.193.18c-.104.028-.135.023-.135.023" style="fill:none;stroke:#140533;stroke-width:.09261263;stroke-linecap:round;stroke-linejoin:round;stroke-miterlimit:22.9255867;stroke-opacity:1" transform="translate(-64.995 -18.087)"/><path d="m108.705 56.166-.711-.024 1.309-.288 2.928.098-.923.387" style="fill:none;stroke:#140533;stroke-width:.09261263;stroke-linecap:round;stroke-linejoin:round;stroke-miterlimit:22.9255867;stroke-opacity:1" transform="translate(-64.995 -18.087)"/><path d="m107.977 56.14.008-.456 1.34-.356 2.921.176-.015.448" style="fill:none;stroke:#140533;stroke-width:.09261263;stroke-linecap:round;stroke-linejoin:round;stroke-miterlimit:22.9255867;stroke-opacity:1" transform="translate(-64.995 -18.087)"/><path d="m122.43 57.166.005-.503M109.303 55.854l.022-.526M119.922 75.977l.033-18.51-.416-.195-.01-.344-7.47-.904M107.983 55.777l-6.926.007" style="fill:none;stroke:#140533;stroke-width:.0926893;stroke-linecap:round;stroke-linejoin:round;stroke-miterlimit:22.9255867;stroke-opacity:1" transform="translate(-64.995 -18.087)"/><path d="m116.74 74.11.02-11.816-3.951-.353" style="fill:none;stroke:#140533;stroke-width:.0926893;stroke-linecap:round;stroke-linejoin:round;stroke-miterlimit:22.9255867;stroke-opacity:1" transform="translate(-64.995 -18.087)"/><path d="m112.908 62.209 3.567.311.027 11.398-.64-.011.022-11.438M114.094 73.784l.005-11.47" style="fill:none;stroke:#140533;stroke-width:.0926893;stroke-linecap:round;stroke-linejoin:round;stroke-miterlimit:22.9255867;stroke-opacity:1" transform="translate(-64.995 -18.087)"/><path d="m117.145 74.801-4.797-.138V61.205" style="fill:none;stroke:#140533;stroke-width:.09264921;stroke-linecap:round;stroke-linejoin:round;stroke-miterlimit:22.9255867;stroke-opacity:1" transform="translate(-64.995 -18.087)"/><path d="M117.344 60.206v.61l-5.17-.505-.002-.61zm0 0" style="fill:none;stroke:#140533;stroke-width:.09284227;stroke-linecap:round;stroke-linejoin:round;stroke-miterlimit:22.9255867;stroke-opacity:1" transform="translate(-64.995 -18.087)"/><path d="m117.344 60.206.184-.102-5.393-.551-.31-.011.102.138.245.02M112.173 60.311l-.191-.015v-.607" style="fill:none;stroke:#140533;stroke-width:.09284227;stroke-linecap:round;stroke-linejoin:round;stroke-miterlimit:22.9255867;stroke-opacity:1" transform="translate(-64.995 -18.087)"/><path d="m117.596 60.075.003-.143-5.453-.576-.323-.015.001.201" style="fill:none;stroke:#140533;stroke-width:.09284227;stroke-linecap:round;stroke-linejoin:round;stroke-miterlimit:22.9255867;stroke-opacity:1" transform="translate(-64.995 -18.087)"/><path d="m117.599 59.932.318.03v-.335l-5.75-.63-.347.021.003.323" style="fill:none;stroke:#140533;stroke-width:.09284227;stroke-linecap:round;stroke-linejoin:round;stroke-miterlimit:22.9255867;stroke-opacity:1" transform="translate(-64.995 -18.087)"/><path d="m112.166 58.996-.02.36.031.203.021.144" style="fill:none;stroke:#140533;stroke-width:.09284227;stroke-linecap:round;stroke-linejoin:round;stroke-miterlimit:22.9255867;stroke-opacity:1" transform="translate(-64.995 -18.087)"/><path d="M120.454 60.595c-.06 0-.504-.008-.504.03" style="fill:none;stroke:#140533;stroke-width:.0926893;stroke-linecap:round;stroke-linejoin:round;stroke-miterlimit:22.9255867;stroke-opacity:1" transform="translate(-64.995 -18.087)"/><path d="M120.491 59.228c-.204-.003-.349.016-.543.033M120.403 59.021c-.204-.003-.262.013-.456.029" style="fill:none;stroke:#140533;stroke-width:.0926479;stroke-linecap:round;stroke-linejoin:round;stroke-miterlimit:22.9255867;stroke-opacity:1" transform="translate(-64.995 -18.087)"/><path d="M120.5 58.474c-.238-.003-.307.014-.534.03" style="fill:none;stroke:#140533;stroke-width:.09254054;stroke-linecap:round;stroke-linejoin:round;stroke-miterlimit:22.9255867;stroke-opacity:1" transform="translate(-64.995 -18.087)"/><path d="m122.718 56.768-.004-.453-12.106-1.519M121.55 56.713l-9.308-1.138M110.608 54.796l-9.656-.018M109.067 55.395l-7.995-.013" style="fill:none;stroke:#140533;stroke-width:.0926893;stroke-linecap:round;stroke-linejoin:round;stroke-miterlimit:22.9255867;stroke-opacity:1" transform="translate(-64.995 -18.087)"/><path d="M122.677 56.315s.115-.05.1-.1c-.016-.053-.151-.074-.151-.074v-1.55l-12.276-1.654h-9.44" style="fill:none;stroke:#140533;stroke-width:.09255952;stroke-linecap:round;stroke-linejoin:round;stroke-miterlimit:22.9255867;stroke-opacity:1" transform="translate(-64.995 -18.087)"/><path d="m122.626 54.708.17-.182.005-.131-12.44-1.658-9.462.028" style="fill:none;stroke:#140533;stroke-width:.09255952;stroke-linecap:round;stroke-linejoin:round;stroke-miterlimit:22.9255867;stroke-opacity:1" transform="translate(-64.995 -18.087)"/><path d="M122.626 54.94s.54-.697.587-.79a.646.646 0 0 0 .059-.201l-12.581-1.727-9.793.026" style="fill:none;stroke:#140533;stroke-width:.09255952;stroke-linecap:round;stroke-linejoin:round;stroke-miterlimit:22.9255867;stroke-opacity:1" transform="translate(-64.995 -18.087)"/><path d="m123.272 53.949.21-.064s-.06-.092-.002-.175c.058-.083.201-.146.201-.146l-12.8-1.768-10.233-.004" style="fill:none;stroke:#140533;stroke-width:.09255952;stroke-linecap:round;stroke-linejoin:round;stroke-miterlimit:22.9255867;stroke-opacity:1" transform="translate(-64.995 -18.087)"/><path d="M123.68 53.59s0-.173.13-.234" style="fill:none;stroke:#140533;stroke-width:.0926893;stroke-linecap:round;stroke-linejoin:round;stroke-miterlimit:22.9255867;stroke-opacity:1" transform="translate(-64.995 -18.087)"/><path d="m122.626 55.367 1.631-2.06-13.225-1.777-10.149-.05" style="fill:none;stroke:#140533;stroke-width:.09255952;stroke-linecap:round;stroke-linejoin:round;stroke-miterlimit:22.9255867;stroke-opacity:1" transform="translate(-64.995 -18.087)"/><path d="M124.257 53.306s.14-.013.203-.128c.063-.114.063-.161.063-.161l-13.334-1.82-10.307.015" style="fill:none;stroke:#140533;stroke-width:.09255952;stroke-linecap:round;stroke-linejoin:round;stroke-miterlimit:22.9255867;stroke-opacity:1" transform="translate(-64.995 -18.087)"/><path d="m124.523 53.017.033-.247-13.307-1.838-10.341-.032" style="fill:none;stroke:#140533;stroke-width:.09255952;stroke-linecap:round;stroke-linejoin:round;stroke-miterlimit:22.9255867;stroke-opacity:1" transform="translate(-64.995 -18.087)"/><path d="m122.7 55.278.15.004 1.959-2.505v-.335l-13.465-1.908-10.435.01" style="fill:none;stroke:#140533;stroke-width:.09255952;stroke-linecap:round;stroke-linejoin:round;stroke-miterlimit:22.9255867;stroke-opacity:1" transform="translate(-64.995 -18.087)"/><path d="m124.56 52.77.249.025" style="fill:none;stroke:#140533;stroke-width:.0926893;stroke-linecap:round;stroke-linejoin:round;stroke-miterlimit:22.9255867;stroke-opacity:1" transform="translate(-64.995 -18.087)"/><path d="M124.81 52.442s-3.4-.008-4.939-4.334c-1.54-4.327-3.266-7.437-8.237-8.892a48.68 48.68 0 0 0-7.277-1.537c-.853-.111-1.472-.062-2.593-.096" style="fill:none;stroke:#140533;stroke-width:.04634465;stroke-linecap:round;stroke-linejoin:round;stroke-miterlimit:22.9255867;stroke-opacity:1" transform="translate(-64.995 -18.087)"/><path d="m120.537 49.554.037-3.849-1.66-.016" style="fill:none;stroke:#140533;stroke-width:.0926893;stroke-linecap:round;stroke-linejoin:round;stroke-miterlimit:22.9255867;stroke-opacity:1" transform="translate(-64.995 -18.087)"/><path d="m120.574 45.705.135-.02s-.015-.12.063-.267c.077-.144.167-.197.167-.197l-2.238.014" style="fill:none;stroke:#140533;stroke-width:.0926893;stroke-linecap:round;stroke-linejoin:round;stroke-miterlimit:22.9255867;stroke-opacity:1" transform="translate(-64.995 -18.087)"/><path d="m118.592 45.013 2.664-.01-.495.94h-.189M118.374 44.593l2.886-.007-.004.416M121.26 44.586s-.863-.083-1.112-.915c-.25-.832-.551-.967-1.217-1.07-.665-.105-.634-.032-.769-.563-.136-.53-.088-.936-.088-.936M117.949 41.112s-.006 1.114-.12 1.286c-.115.17-.747.238-.747.238M118.042 39.86s.038.022.05-.014c.029-.084.023-.292.138-.434.143-.178-.104-4.597-.104-4.597l-.26 4.587s.069.085.112.12c.042.033.064.338.064.338zm0 0" style="fill:none;stroke:#140533;stroke-width:.0926893;stroke-linecap:round;stroke-linejoin:round;stroke-miterlimit:22.9255867;stroke-opacity:1" transform="translate(-64.995 -18.087)"/><path d="M118.02 39.872a.628.628 0 0 0-.63.624c0 .345.282.624.63.624.35 0 .633-.28.633-.624a.628.628 0 0 0-.633-.624zm0 0" style="fill:none;stroke:#140533;stroke-width:.09277651;stroke-linecap:round;stroke-linejoin:round;stroke-miterlimit:22.9255867;stroke-opacity:1" transform="translate(-64.995 -18.087)"/><path d="M89.12 88.005h24.256M95.185 99.156h12.377v.415H95.185Zm0 0" style="fill:none;stroke:#140533;stroke-width:.0926893;stroke-linecap:round;stroke-linejoin:round;stroke-miterlimit:22.9255867;stroke-opacity:1" transform="translate(-64.995 -18.087)"/><path d="M95.56 99.571h11.586v.313H95.56Zm0 0" style="fill:none;stroke:#140533;stroke-width:.09242838;stroke-linecap:round;stroke-linejoin:round;stroke-miterlimit:22.9255867;stroke-opacity:1" transform="translate(-64.995 -18.087)"/><path d="M95.715 99.884h11.259v.156H95.715Zm0 0" style="fill:none;stroke:#140533;stroke-width:.09512262;stroke-linecap:round;stroke-linejoin:round;stroke-miterlimit:22.9255867;stroke-opacity:1" transform="translate(-64.995 -18.087)"/><path d="M96.302 100.398h10.057v.146H96.302Zm0 0" style="fill:none;stroke:#140533;stroke-width:.09156361;stroke-linecap:round;stroke-linejoin:round;stroke-miterlimit:22.9255867;stroke-opacity:1" transform="translate(-64.995 -18.087)"/><path d="M95.86 100.04s.24.044.276.194c.037.152.02.16.026.16l.242.004M106.822 100.04s-.24.044-.275.194c-.037.152-.021.16-.026.16l-.243.004M96.403 121.442l.007-19.586h9.86l.052 19.491" style="fill:none;stroke:#140533;stroke-width:.0926893;stroke-linecap:round;stroke-linejoin:round;stroke-miterlimit:22.9255867;stroke-opacity:1" transform="translate(-64.995 -18.087)"/><path d="m97.534 121.357.018-18.353 7.647.007.003 18.413" style="fill:none;stroke:#140533;stroke-width:.0926893;stroke-linecap:round;stroke-linejoin:round;stroke-miterlimit:22.9255867;stroke-opacity:1" transform="translate(-64.995 -18.087)"/><path d="m96.63 121.443.006-19.354h9.41l.049 19.26" style="fill:none;stroke:#140533;stroke-width:.06037237;stroke-linecap:round;stroke-linejoin:round;stroke-miterlimit:22.9255867;stroke-opacity:1" transform="translate(-64.995 -18.087)"/><path d="m97.307 121.358.02-18.564 8.095.007.004 18.623" style="fill:none;stroke:#140533;stroke-width:.06038235;stroke-linecap:round;stroke-linejoin:round;stroke-miterlimit:22.9255867;stroke-opacity:1" transform="translate(-64.995 -18.087)"/><path d="M101.161 103.008h.364V121.4h-.364zm0 0" style="fill:none;stroke:#140533;stroke-width:.09374438;stroke-linecap:round;stroke-linejoin:round;stroke-miterlimit:22.9255867;stroke-opacity:1" transform="translate(-64.995 -18.087)"/><path d="M98.43 108.613h1.976v2.418H98.43zm0 0" style="fill:none;stroke:#140533;stroke-width:.0926893;stroke-linecap:round;stroke-linejoin:round;stroke-miterlimit:22.9255867;stroke-opacity:1" transform="translate(-64.995 -18.087)"/><path d="M97.942 108.017h2.953v3.673h-2.953zm0 0" style="fill:none;stroke:#140533;stroke-width:.06010725;stroke-linecap:round;stroke-linejoin:round;stroke-miterlimit:22.9255867;stroke-opacity:1" transform="translate(-64.995 -18.087)"/><path d="M98.43 103.998h1.976v2.418H98.43zm0 0" style="fill:none;stroke:#140533;stroke-width:.0926893;stroke-linecap:round;stroke-linejoin:round;stroke-miterlimit:22.9255867;stroke-opacity:1" transform="translate(-64.995 -18.087)"/><path d="M97.942 103.402h2.953v3.673h-2.953zm0 0" style="fill:none;stroke:#140533;stroke-width:.06010725;stroke-linecap:round;stroke-linejoin:round;stroke-miterlimit:22.9255867;stroke-opacity:1" transform="translate(-64.995 -18.087)"/><path d="M98.43 117.766h1.976v2.417H98.43zm0 0" style="fill:none;stroke:#140533;stroke-width:.0926893;stroke-linecap:round;stroke-linejoin:round;stroke-miterlimit:22.9255867;stroke-opacity:1" transform="translate(-64.995 -18.087)"/><path d="M97.942 117.169h2.953v3.672h-2.953zm0 0" style="fill:none;stroke:#140533;stroke-width:.06010725;stroke-linecap:round;stroke-linejoin:round;stroke-miterlimit:22.9255867;stroke-opacity:1" transform="translate(-64.995 -18.087)"/><path d="M98.43 113.15h1.976v2.418H98.43zm0 0" style="fill:none;stroke:#140533;stroke-width:.0926893;stroke-linecap:round;stroke-linejoin:round;stroke-miterlimit:22.9255867;stroke-opacity:1" transform="translate(-64.995 -18.087)"/><path d="M97.942 112.554h2.953v3.672h-2.953zm0 0" style="fill:none;stroke:#140533;stroke-width:.06010725;stroke-linecap:round;stroke-linejoin:round;stroke-miterlimit:22.9255867;stroke-opacity:1" transform="translate(-64.995 -18.087)"/><path d="M102.276 108.613h1.976v2.418h-1.976zm0 0" style="fill:none;stroke:#140533;stroke-width:.0926893;stroke-linecap:round;stroke-linejoin:round;stroke-miterlimit:22.9255867;stroke-opacity:1" transform="translate(-64.995 -18.087)"/><path d="M101.787 108.017h2.953v3.673h-2.953zm0 0" style="fill:none;stroke:#140533;stroke-width:.06010725;stroke-linecap:round;stroke-linejoin:round;stroke-miterlimit:22.9255867;stroke-opacity:1" transform="translate(-64.995 -18.087)"/><path d="M102.276 103.998h1.976v2.418h-1.976zm0 0" style="fill:none;stroke:#140533;stroke-width:.0926893;stroke-linecap:round;stroke-linejoin:round;stroke-miterlimit:22.9255867;stroke-opacity:1" transform="translate(-64.995 -18.087)"/><path d="M101.787 103.402h2.953v3.673h-2.953zm0 0" style="fill:none;stroke:#140533;stroke-width:.06010725;stroke-linecap:round;stroke-linejoin:round;stroke-miterlimit:22.9255867;stroke-opacity:1" transform="translate(-64.995 -18.087)"/><path d="M102.276 117.766h1.976v2.417h-1.976zm0 0" style="fill:none;stroke:#140533;stroke-width:.0926893;stroke-linecap:round;stroke-linejoin:round;stroke-miterlimit:22.9255867;stroke-opacity:1" transform="translate(-64.995 -18.087)"/><path d="M101.787 117.169h2.953v3.672h-2.953zm0 0" style="fill:none;stroke:#140533;stroke-width:.06010725;stroke-linecap:round;stroke-linejoin:round;stroke-miterlimit:22.9255867;stroke-opacity:1" transform="translate(-64.995 -18.087)"/><path d="M102.276 113.15h1.976v2.418h-1.976zm0 0" style="fill:none;stroke:#140533;stroke-width:.0926893;stroke-linecap:round;stroke-linejoin:round;stroke-miterlimit:22.9255867;stroke-opacity:1" transform="translate(-64.995 -18.087)"/><path d="M101.787 112.554h2.953v3.672h-2.953zm0 0" style="fill:none;stroke:#140533;stroke-width:.06010725;stroke-linecap:round;stroke-linejoin:round;stroke-miterlimit:22.9255867;stroke-opacity:1" transform="translate(-64.995 -18.087)"/><path d="M96.866 58.686h8.88v.43h-8.88zm0 0" style="fill:none;stroke:#140533;stroke-width:.0926893;stroke-linecap:round;stroke-linejoin:round;stroke-miterlimit:22.9255867;stroke-opacity:1" transform="translate(-64.995 -18.087)"/><path d="M97.217 59.54h8.178v.516h-8.178zm0 0" style="fill:none;stroke:#140533;stroke-width:.09240414;stroke-linecap:round;stroke-linejoin:round;stroke-miterlimit:22.9255867;stroke-opacity:1" transform="translate(-64.995 -18.087)"/><path d="m97.114 59.368 8.412.021M96.866 59.116l.248.252.103.17M105.758 59.116l-.246.252-.104.17M97.68 60.971l-.027 13.612 7.306.025-.052-13.625" style="fill:none;stroke:#140533;stroke-width:.0926893;stroke-linecap:round;stroke-linejoin:round;stroke-miterlimit:22.9255867;stroke-opacity:1" transform="translate(-64.995 -18.087)"/><path d="m104.048 73.656-5.538.02V61.872l5.558-.007zm0 0" style="fill:none;stroke:#140533;stroke-width:.09248275;stroke-linecap:round;stroke-linejoin:round;stroke-miterlimit:22.9255867;stroke-opacity:1" transform="translate(-64.995 -18.087)"/><path d="m98.345 73.876-.017-12.26 5.955.016V73.84M98.757 42.755h5.123v5.837h-5.123zm0 0" style="fill:none;stroke:#140533;stroke-width:.0926893;stroke-linecap:round;stroke-linejoin:round;stroke-miterlimit:22.9255867;stroke-opacity:1" transform="translate(-64.995 -18.087)"/><path d="m102.775 43.977-.014 3.433-2.95.012-.014-3.457" style="fill:none;stroke:#140533;stroke-width:.0926893;stroke-linecap:round;stroke-linejoin:round;stroke-miterlimit:22.9255867;stroke-opacity:1" transform="translate(-64.995 -18.087)"/><path d="m99.993 47.276-.033-3.22 2.662-.014-.016 3.21" style="fill:none;stroke:#140533;stroke-width:.0926893;stroke-linecap:round;stroke-linejoin:round;stroke-miterlimit:22.9255867;stroke-opacity:1" transform="translate(-64.995 -18.087)"/><path d="m100.27 46.962-.008-2.56h2.009v2.56" style="fill:none;stroke:#140533;stroke-width:.09268659;stroke-linecap:round;stroke-linejoin:round;stroke-miterlimit:22.9255867;stroke-opacity:1" transform="translate(-64.995 -18.087)"/><path d="M98.026 41.543h6.553v.455h-6.553zM98.757 42.755l-.127-.036s.022-.125-.043-.255a.62.62 0 0 0-.194-.215l-.004.474s.136.004.182.146c.045.143.062.228.062.228l-.003-.378M103.854 42.755l.127-.036s-.022-.125.043-.255c.064-.13.195-.215.195-.215l.003.474s-.136.004-.182.146a2.307 2.307 0 0 0-.062.228l.003-.378" style="fill:none;stroke:#140533;stroke-width:.0926893;stroke-linecap:round;stroke-linejoin:round;stroke-miterlimit:22.9255867;stroke-opacity:1" transform="translate(-64.995 -18.087)"/><path d="M98.382 41.998h5.839v.27h-5.84zm0 0" style="fill:none;stroke:#140533;stroke-width:.09217738;stroke-linecap:round;stroke-linejoin:round;stroke-miterlimit:22.9255867;stroke-opacity:1" transform="translate(-64.995 -18.087)"/><path d="m98.026 41.998.07.642.294.001M104.576 41.998l-.069.642-.293.001M101.234 36.634s-.038.022-.05-.014c-.014-.043-.003-.382-.094-.67-.087-.276-.273-.5-.33-.57-.143-.177.534-4.141.534-4.141l.56 4.062s-.35.408-.451.604c-.101.197-.169.729-.169.729zm0 0" style="fill:none;stroke:#140533;stroke-width:.0926893;stroke-linecap:round;stroke-linejoin:round;stroke-miterlimit:22.9255867;stroke-opacity:1" transform="translate(-64.995 -18.087)"/><path d="M101.254 36.646c.348 0 .63.28.63.624a.628.628 0 0 1-.63.624.628.628 0 0 1-.633-.624c0-.344.283-.624.633-.624zm0 0" style="fill:none;stroke:#140533;stroke-width:.09277651;stroke-linecap:round;stroke-linejoin:round;stroke-miterlimit:22.9255867;stroke-opacity:1" transform="translate(-64.995 -18.087)"/><path d="M99.702 37.6s.41-.199.78-.966c.37-.767.383-1.117.383-1.117M102.58 37.597s-.603-.631-.753-.969c-.149-.339-.3-.916-.3-.916" style="fill:none;stroke:#140533;stroke-width:.0926893;stroke-linecap:round;stroke-linejoin:round;stroke-miterlimit:22.9255867;stroke-opacity:1" transform="translate(-64.995 -18.087)"/><path d="M101.584 33.2c1.996-.594 1.774-2.32 1.434-3.131-.561-1.341-3.48-1.83-3.896.67-.349 2.1 1.846 2.471 1.846 2.471" style="fill:none;stroke:#140533;stroke-width:.09271406;stroke-linecap:round;stroke-linejoin:round;stroke-miterlimit:22.9255867;stroke-opacity:1" transform="translate(-64.995 -18.087)"/><path d="M101.342 28.98s-.143-.75.078-1.154c.22-.402.558-.689.558-1.56 0-.87-.82-8.133-.82-8.133l-.804 8.081s-.104.677.311 1.301c.416.623.36.967.365 1.209.004.24-.031.242-.031.242M86.232 82.298h30.034M84.888 82.734l32.737-.01M85.012 83.07h32.472M85.208 83.382h32.082M85.501 83.754h31.494M85.674 84.11h31.15M86.134 84.94h30.23" style="fill:none;stroke:#140533;stroke-width:.0926893;stroke-linecap:round;stroke-linejoin:round;stroke-miterlimit:22.9255867;stroke-opacity:1" transform="translate(-64.995 -18.087)"/><path d="m110.692 53.024 11.837 12.35m10.604 11.064 1.304 1.36M110.911 52.52l11.61 12.112m11.33 11.821.591.618M111.092 51.957l11.42 11.916m12.072 12.597.07.07M111.333 51.518l11.171 11.657M111.51 50.954l10.985 11.461M111.847 50.572l10.64 11.102M112.68 50.692l9.797 10.223M113.562 50.819l8.907 9.294M114.396 50.94l8.063 8.413M115.219 51.059l7.252 7.567M116.052 51.179l6.406 6.682M116.868 51.296l5.907 6.162M117.702 51.417l5.015 5.231m.175.183.48.5M118.47 51.527l4.187 4.369M119.303 51.647l3.51 3.663M120.119 51.766l3.036 3.166M120.953 51.886l2.523 2.632M121.826 52.011l1.986 2.073M122.66 52.132l1.473 1.535M120.23 48.864l.264.275m2.982 3.11.97 1.013M119.677 47.537l.835.87m3.798 3.962.457.479M119.121 46.216l1.409 1.47M118.461 44.778l2.087 2.176M118.985 44.592l1.58 1.648M119.703 44.59l1.144 1.192M120.363 44.589l.717.748M121.08 44.588l.179.186M89.96 76.056l4.459 4.653m1.518 1.586 2.803 2.924m2.683 2.799.601.627m14.635 15.27.506.528M90.662 76.058l4.439 4.63m1.539 1.607 2.738 2.856m2.748 2.867.6.627m13.927 14.531.513.535M91.381 76.058l4.325 4.512m1.653 1.725 2.678 2.794m2.807 2.929.605.63m13.197 13.77.52.543M92.043 76.058l3.391 3.539m2.587 2.698.397.415m.02.02 2.21 2.307m2.857 2.98.61.637m12.526 13.068.526.55m15.044 15.697.265.276M92.762 76.06l2.696 2.81m3.282 3.425.372.388m.044.047 2.161 2.253m2.908 3.035.618.645m11.791 12.303.535.557m15.04 15.694.43.448M93.283 75.869l.003.003m.18.187 2.216 2.313m3.76 3.923.347.362m.069.073 2.118 2.208m2.95 3.08.631.659m11.072 11.55.544.568m15.034 15.686 1.129 1.179M93.28 75.115l.3.314m.604.63 1.877 1.958m4.1 4.278.322.336m.094.098 1.85 1.93m3.218 3.359.65.676m10.327 10.775.588.615m14.994 15.645 1.675 1.746M93.276 74.32l.38.396m1.288 1.345 1.604 1.672m4.372 4.563.295.307m.121.126 1.47 1.532m3.599 3.757.675.704m9.535 9.948.661.69m14.926 15.574 1.872 1.954M93.272 73.565l.456.477m1.935 2.019 1.397 1.456m4.58 4.78.27.28m.144.152 1.305 1.361m3.765 3.928.715.747m8.769 9.148.752.785M132.2 114.18l1.869 1.95M93.27 72.822l.531.556m2.572 2.683 1.226 1.278m4.75 4.957.244.255m.171.178 1.087 1.134m3.981 4.155.779.811m7.991 8.339.859.896m14.735 15.374 1.865 1.945M93.265 72.068l.612.638m3.215 3.355 1.079 1.125m4.898 5.11.217.229m.196.204.792.827m4.278 4.462.814.85m7.23 7.542.985 1.028m14.612 15.247 1.86 1.94M93.261 71.331l.692.722m3.842 4.009.953.995m5.022 5.24.194.202m.22.23.515.536m4.556 4.753.83.868m6.505 6.785 1.123 1.173m14.478 15.106 1.854 1.935M93.257 70.577l.776.81m4.481 4.675.834.87m5.141 5.364.17.177m.244.255.307.32m4.763 4.97.836.872m5.774 6.025 1.283 1.338m14.322 14.943 1.85 1.931M93.254 69.883l.853.891m5.069 5.288.769.802m5.206 5.432.144.152m.27.28.24.252m4.829 5.038.83.867m5.113 5.334 1.445 1.506m14.163 14.78 1.847 1.925M93.25 69.129l.94.981m5.705 5.952.717.748m5.258 5.486.12.126m.294.306.169.176m4.9 5.114.818.851m4.4 4.592 1.635 1.707m13.978 14.583 1.84 1.92M93.245 68.392l1.028 1.072m6.325 6.6.67.698m5.305 5.534.095.1m.317.331.1.104m4.971 5.187.797.83m3.712 3.874 1.838 1.919m13.778 14.375 1.836 1.916M93.24 67.637l1.12 1.167m6.957 7.26.624.651m5.35 5.581.07.073m.343.358.028.03m5.042 5.26.77.803m3.014 3.146 2.063 2.152m13.557 14.144 1.832 1.912M93.235 66.846l1.217 1.269m7.617 7.948.58.604m5.396 5.63.042.045m5.44 5.676.708.738m2.316 2.418 2.317 2.417m13.307 13.885 1.828 1.906M93.23 66.09l1.313 1.369m8.246 8.606.536.558m5.438 5.675.018.017m5.465 5.703.032.033m2.24 2.337 2.605 2.718m13.05 13.616 1.821 1.902M93.225 65.352l1.407 1.469m8.86 9.244.494.515m12.516 13.058 2.885 3.011m12.783 13.337 1.818 1.898M93.22 64.597l1.506 1.572m9.485 9.896.453.472m11.91 12.428 3.104 3.238m12.49 13.03 1.813 1.893M93.214 63.851l1.607 1.676m10.1 10.54.413.429M116.35 87.99l.342.357m.4.418 2.89 3.015m12.182 12.71 1.81 1.889M93.207 63.093l1.712 1.786m10.721 11.187.373.389m10.329 10.776.889.927m.538.563 2.537 2.647m11.856 12.37 1.804 1.883M93.2 62.353l1.815 1.895m11.328 11.818.333.349m9.67 10.088 1.412 1.473m.19.2 2.69 2.806m11.52 12.02 1.8 1.879M93.192 61.595l1.924 2.007m11.946 12.464.295.307m8.997 9.389 4.641 4.844m11.163 11.644 1.794 1.873M93.184 60.897l2.026 2.112m12.514 13.058.259.27m8.38 8.743 4.98 5.198m10.812 11.28 1.79 1.868M93.171 60.133l2.14 2.233m13.132 13.701.219.23m7.984 8.33 5.095 5.316m10.411 10.862 1.786 1.863M93.137 59.366l2.274 2.37m13.735 14.331.182.19m7.54 7.87 5.288 5.516m10.007 10.44 1.767 1.845M90.574 55.94l.156.162m2.417 2.524 2.363 2.465m14.355 14.976.012.014m7.242 7.556 5.492 5.73m9.555 9.97 1.757 1.833M91.32 55.91l.427.446m1.455 1.519 2.409 2.513m20.636 21.53.362.378m.794.83 5.738 5.986m8.997 9.387 1.777 1.855M92.011 55.882l.492.514m.699.728 2.491 2.6m20.514 21.402 1.119 1.167m.297.312 6.057 6.318m8.394 8.759 1.834 1.914M92.686 55.854l3.15 3.284m15.504 16.177.537.56m4.31 4.497 8.076 8.427m7.704 8.04 1.934 2.017M93.45 55.9l2.635 2.75m15.248 15.907 1.263 1.32m3.587 3.743 8.756 9.136m6.856 7.152 2.099 2.19M91.79 53.428l.337.352m1.586 1.654 2.702 2.82m14.91 15.556 1.982 2.069m2.875 2.998 9.546 9.96m5.805 6.059 2.353 2.454M91.665 52.548l.924.964m1.842 1.92 2.39 2.494m14.498 15.128 2.708 2.826m2.152 2.246 10.567 11.023m4.35 4.54 2.783 2.904M91.24 51.372l1.885 1.966m2.006 2.093 2.139 2.233m14.042 14.65 3.419 3.567m1.447 1.51 12.27 12.801m1.662 1.735 3.762 3.925M91.523 50.917l2.255 2.352m2.07 2.16 1.93 2.014m13.527 14.114 4.145 4.324m.725.757 17.69 18.457M92.192 50.925 94.4 53.23m2.107 2.198 1.772 1.85M111.3 70.86l4.813 5.022m.182.19 17.563 18.325M92.917 50.93l2.171 2.266m2.138 2.23 1.631 1.702m12.436 12.975 5.54 5.781m.196.204 16.822 17.552M93.62 50.932l2.145 2.238m2.16 2.254 1.52 1.587m11.842 12.354 6.25 6.52m.209.22L133.843 92.9M94.341 50.933l2.123 2.215m2.178 2.274 1.427 1.488m11.211 11.698 6.977 7.279m.224.233 15.355 16.022M95.135 50.935l2.102 2.19m2.198 2.295 1.34 1.4m10.5 10.953 7.777 8.115m.239.25 14.537 15.168M95.855 50.935l2.082 2.173m2.214 2.31 1.278 1.332m9.839 10.266 8.504 8.874m.253.264 13.796 14.394M96.557 50.936l2.065 2.153m2.23 2.327 1.22 1.273m9.19 9.59 9.244 9.644m.236.246 13.006 13.57M97.277 50.936l2.04 2.13m2.252 2.349 1.165 1.214m8.523 8.894 10.01 10.444m.21.218 12.258 12.79M97.986 50.936l1.026 1.07m3.266 3.407 1.108 1.157m7.867 8.207 10.764 11.233m.184.191 11.595 12.1M98.706 50.938l.866.902m3.422 3.57 1.047 1.093m7.206 7.519 11.406 11.9m.281.294 11.29 11.781M99.41 50.938l.758.792m3.526 3.68.981 1.022m6.568 6.853 11.402 11.896m1.007 1.052 11.179 11.664M100.13 50.939l.672.701m3.61 3.768.922.962m5.905 6.161 11.396 11.891m1.752 1.826 10.45 10.903M100.792 50.94l.604.631m3.675 3.834.874.911m5.291 5.522 11.391 11.885m2.435 2.54 9.758 10.181M101.513 50.942l.537.562m3.739 3.9.822.858m4.621 4.822 11.387 11.88m3.176 3.314 9.01 9.4M102.217 50.944l.478.5m3.794 3.958.776.81m3.966 4.138 11.38 11.873m3.902 4.072 8.28 8.639M102.938 50.947l.42.437m3.849 4.017.729.76m3.293 3.436 11.372 11.865m4.647 4.848 7.786 8.125M103.716 50.951l.356.371m3.908 4.076.566.593m2.685 2.8 11.36 11.854m5.448 5.683 7.452 7.776M104.441 50.957l.29.303m3.965 4.137.27.281m2.273 2.372 11.344 11.836m6.19 6.457 7.043 7.35M105.15 50.964l.217.227m5.806 6.058 11.4 11.894m6.917 7.217 5.195 5.42m.402.42 1.067 1.112M105.884 50.979l.109.113m5.26 5.489 11.312 11.803m7.66 7.99 4.453 4.649m1.126 1.174.913.952M110.587 55.146l.262.274m.768.801 10.94 11.414m8.39 8.756 3.476 3.626m2.085 2.176.56.583M110.626 54.436l.986 1.03m.512.533 10.423 10.877m9.135 9.53 2.745 2.865m2.798 2.918.231.242M110.659 53.738l11.88 12.395m9.86 10.289 2.034 2.122M87.403 118.055l1.822 1.902M87.406 117.326l1.812 1.89M87.41 116.579l1.801 1.88M87.413 115.893l1.793 1.87M87.415 115.146l1.784 1.86M87.42 114.417l1.772 1.85M87.422 113.67l1.764 1.84M87.426 112.882l1.755 1.83M87.43 112.135l1.745 1.822M87.433 111.399l1.737 1.812M87.437 110.653l1.729 1.803M87.442 109.924l1.72 1.795M87.444 109.178l1.713 1.786M70.01 90.297l.03.032m17.409 18.162 1.704 1.78M69.928 89.462l.34.353m17.185 17.93 1.697 1.772M68.675 87.421l.003.003m1.307 1.363.508.53m16.964 17.7 1.69 1.765M69.418 87.447l.36.375m.384.401.594.619m16.705 17.43 1.684 1.756M70.197 87.473l1.022 1.068m16.246 16.95 1.678 1.75M70.94 87.498l.91.951m15.62 16.297 1.672 1.744M71.666 87.523l.836.874m14.971 15.62 1.67 1.742M72.409 87.548l.78.816m14.288 14.907 1.666 1.738M73.142 87.573l.737.77m13.604 14.194 1.663 1.735M73.884 87.599l.703.732m12.9 13.46 1.663 1.735M74.61 87.624l.675.702m12.208 12.738 1.664 1.737M75.353 87.648l.652.68m11.493 11.992 1.67 1.743M76.037 87.672l.635.663m10.83 11.3 1.686 1.758M76.78 87.697l.623.649M87.508 98.89l1.732 1.806M77.506 87.722l.613.64m9.394 9.8 1.796 1.874M78.249 87.746l.61.637m8.661 9.036 1.872 1.952M79.05 87.774l.61.635m7.867 8.21 1.98 2.066M79.794 87.799l.613.64m7.126 7.436 2.116 2.208M80.518 87.823l.623.65m6.4 6.676 2.282 2.381M81.262 87.848l.637.665m5.65 5.895 2.486 2.595M81.994 87.873l.658.686m4.905 5.118 2.72 2.836M82.738 87.9l.685.713m4.145 4.326 2.929 3.055M83.463 87.923l.725.756m3.394 3.542 2.96 3.088M84.207 87.949l.353.368m3.06 3.191 2.718 2.838M85.613 88.725l.189.198m1.75 1.825 2.442 2.55M86.335 88.729l.274.286m.899.938 2.25 2.348m27.041 28.214.345.36M87.042 88.734l.346.36m.014.015 2.373 2.477m27.019 28.19.35.367M87.765 88.739l2.205 2.3m26.817 27.98.358.374M86.17 86.246l.795.83m1.277 1.332 2.026 2.114m26.512 27.661.367.383M86.18 85.506l1.52 1.586m.888.926 2.019 2.107m26.166 27.302.374.39M85.766 84.341l2.653 2.767m.87.91 1.716 1.79m25.763 26.88.38.397M84.873 82.659l4.28 4.466m.856.893 1.468 1.532m25.284 26.381.388.405M85.23 82.292l4.648 4.85m.84.876 1.278 1.334m24.758 25.832.397.412M85.95 82.292l4.664 4.867m.823.859 1.127 1.177m24.184 25.233.403.42M86.652 82.292l4.68 4.884m.807.842 1.008 1.051m23.594 24.619.411.428M87.371 82.293l4.695 4.9m.791.825.904.944m22.975 23.97.417.435M86.312 80.498l.217.227m1.504 1.568 4.71 4.915m.776.81.83.865m22.38 23.352.424.443M86.317 79.752l.928.97m1.506 1.571 4.728 4.932m.76.793.775.809m21.71 22.652.43.45M86.321 79.025l1.622 1.693m1.51 1.575 4.744 4.949m.743.776.735.767m21.042 21.954.44.459M86.327 78.28l2.333 2.434m1.513 1.58 4.393 4.583m1.093 1.14.704.735m20.348 21.23.445.466M86.33 77.477l3.1 3.233m1.517 1.583 4.012 4.187m1.474 1.538.677.705m19.594 20.444.454.474M86.336 76.732l3.81 3.975m1.52 1.586 3.66 3.818m1.827 1.907.656.685m18.888 19.707.462.48M86.39 76.055l4.454 4.648m1.525 1.59 3.34 3.487m2.146 2.238.64.667m18.195 18.986.469.488M87.11 76.055l4.45 4.644m1.529 1.594 3.17 3.31m2.314 2.415.627.653m17.485 18.242.475.498M87.82 76.056l4.446 4.64m1.531 1.597 3.054 3.186m2.432 2.539.616.643m16.78 17.507.483.504M88.539 76.056l4.442 4.636m1.535 1.603 2.958 3.084m2.528 2.639.608.635m16.061 16.758.492.512M89.24 76.056l4.448 4.64m1.531 1.599 2.876 3m2.609 2.723.603.63m15.359 16.023.497.52M88.286 123.432l.24.25M88.24 122.652l.784.817M87.39 121.015l.098.102m.724.755 1.323 1.38M87.393 120.279l.736.768m.553.576 1.356 1.413M87.398 119.532l3.012 3.143M87.4 118.802l1.832 1.911m.518.54.252.265M115.866 71.277l.629-.23M115.868 70.887l.625-.228M115.87 70.488l.623-.229M115.87 70.121l.622-.229m3.442-1.258v0M115.87 69.722l.62-.228m3.435-1.255.01-.004M115.87 69.332l.62-.228m3.424-1.252.022-.007M115.872 68.932l.617-.226m3.415-1.249.033-.012M115.872 68.51l.616-.224m3.405-1.246.044-.017M115.873 68.11l.615-.224m3.394-1.242.057-.02M115.875 67.718l.612-.225m3.384-1.237.067-.025M115.875 67.318l.61-.223m3.374-1.235.08-.029M115.876 66.928l.61-.223m3.362-1.23.092-.034M115.876 66.529l.608-.222m3.351-1.227.106-.038M115.877 66.162l.607-.222m3.339-1.222.118-.043M115.879 65.762l.603-.22m3.328-1.218.133-.048M115.879 65.372l.602-.22m3.316-1.213.146-.053M115.88 64.973l.601-.22m3.302-1.208.161-.059M115.88 64.555l.6-.219m3.286-1.203.178-.065M115.882 64.156l.596-.218m3.273-1.198.194-.071M115.882 63.766l.596-.218m3.258-1.192.21-.077M115.883 63.366l.594-.216m3.241-1.187.229-.082M115.687 63.045l.788-.29m3.226-1.179.246-.09M115.2 62.823l.916-.333m3.566-1.305.266-.098M114.548 62.673l.708-.26m4.406-1.611.286-.105M113.739 62.57l.636-.233m5.263-1.925.312-.113M113.018 62.466l.548-.2m6.049-2.213.335-.122M119.583 59.666l.368-.135M119.543 59.291l.408-.15M119.456 58.923l.707-.259M119.288 58.555l1.171-.428M119.047 58.244l1.696-.62M118.718 57.975l2.406-.88M118.272 57.74l2.923-1.07M111.19 59.936l.066-.023m6.46-2.364 2.673-.978M111.19 59.538l.28-.103m5.575-2.039 2.527-.924m3.237-1.185.032-.011M111.19 59.148l.527-.193m4.604-1.684 2.452-.897m3.957-1.448.546-.2M111.195 58.747l.828-.303m3.542-1.296 2.39-.875m4.695-1.717 1.073-.392M111.206 58.376l1.193-.437m2.39-.873 2.415-.884m5.08-1.859 1.85-.676M111.232 57.967l5.154-1.885m5.085-1.86 3.109-1.137M111.163 57.603l4.425-1.62m5.088-1.86 3.658-1.339M111.163 57.203l3.608-1.318m5.09-1.863 3.692-1.35M111.18 56.757l2.688-.983m5.095-1.864 3.729-1.364M111.11 56.384l1.941-.71m5.097-1.865 3.762-1.376M110.779 56.115l.53-.193m.933-.342.01-.004m5.102-1.866 3.795-1.387M116.54 53.608l3.827-1.4M115.737 53.509l3.86-1.413M114.924 53.407l3.893-1.424M114.129 53.31l3.926-1.437M113.314 53.207l3.96-1.448M112.566 53.115l3.99-1.46M111.752 53.013l4.022-1.472M110.956 52.914l4.056-1.483M111.058 52.478l3.173-1.16M111.188 52l2.202-.805M111.308 51.558l1.3-.476M111.426 51.125l.42-.154M132.804 88.05l1.022-.374M131.39 88.2l2.096-.766M128.915 88.707l3.37-1.234M127.799 88.725l3.311-1.212M126.805 88.69l3.102-1.135M125.802 88.635l2.836-1.038M124.86 88.58l2.576-.941M123.887 88.543l2.363-.864m8.489-3.105.362-.134M122.334 88.712l2.714-.993m8.544-3.126 1.958-.715M120.645 88.94l3.23-1.181m8.598-3.145 4.042-1.479m.152-.055.282-.104M119.011 89.14l3.66-1.34m8.656-3.167 5.455-1.995M117.648 89.27l3.918-1.433m8.706-3.184 5.497-2.01M116.682 89.225l3.682-1.346m8.762-3.206 5.501-2.013M117.965 88.366l1.225-.447m8.817-3.226 5.493-2.01M117.933 87.98l.054-.021m8.873-3.246 5.482-2.005M125.662 84.734l5.479-2.004M124.515 84.755l5.496-2.011M123.396 84.774l5.522-2.02M122.25 84.795l5.56-2.034M121.12 84.815l5.604-2.05M119.973 84.835l5.655-2.069M118.854 84.855l5.71-2.09M117.707 84.874l5.774-2.11M116.653 84.894l5.835-2.135M116.666 84.49l4.747-1.736M116.969 83.99l3.397-1.243M117.28 83.476l2.018-.737M117.615 82.923l.536-.195M122.583 80.707l.311-.113M121.555 80.694l1.202-.439M120.504 80.68l2.173-.795m8.834-3.232.048-.018M119.464 80.666l3.243-1.187m7.785-2.847.012-.004M118.413 80.652 122.934 79m6.224-2.277.3-.11M117.385 80.638l6.254-2.287m3.574-1.308 1.236-.452M116.332 80.625l11.084-4.055M116.185 80.312l10.28-3.76M116.182 79.914l9.25-3.384M116.18 79.525l8.241-3.015M116.176 79.127l7.212-2.638M116.174 78.687l6.073-2.221M116.171 78.289l5.042-1.844M116.168 77.9l4.036-1.476M116.165 77.502l3.006-1.098M116.163 77.11l1.988-.727M116.161 76.712l.957-.35M116.25 73.905l.252-.09M115.862 73.649l.638-.233M115.862 73.259l.637-.233M115.864 72.86l.635-.232M115.865 72.465l.633-.231M115.865 72.067l.631-.232M115.866 71.677l.63-.23M118.045 44.024l-8.169 3.264M118.303 44.466l-8.29 3.313M118.554 44.927l-8.391 3.352M118.77 45.354l-8.449 3.376M118.992 45.824l-8.454 3.379M119.197 46.288l-8.385 3.35M119.394 46.768l-8.247 3.296M119.588 47.28l-8.04 3.214M119.76 47.77l-7.25 2.897M119.92 48.257l-6.396 2.557M120.105 48.744l-5.553 2.218M120.319 49.204l-4.763 1.903m-28.29 11.304-1.245.499M120.575 49.66l-3.99 1.596m-27.527 11-3.039 1.213M120.845 50.067l-3.315 1.325M89.156 62.731l-.751.299m-1.79.715-.597.238M121.181 50.491l-2.625 1.049m-31.94 12.765-.6.238M121.558 50.887l-1.997.797M86.618 64.85l-.601.241M121.996 51.271l-1.407.562M86.618 65.408l-.603.241M122.522 51.646l-.857.342M86.62 65.993l-.605.242M123.105 51.971l-.413.165M86.62 66.551l-.607.244M123.78 52.248l-.084.033m-23.983 9.584-1.203.481m-11.888 4.75-.61.244M101.116 61.864l-2.606 1.04m-11.887 4.75-.613.246M102.5 61.863l-3.99 1.593m-11.886 4.75-.616.246M103.902 61.86l-1.722.689m-2.43.97-1.24.496m-11.884 4.749-.619.248M104.068 62.34l-.783.314m-3.68 1.47-1.095.437M86.626 69.31l-.62.248M104.066 62.899l-.507.204m-4.06 1.622-.989.395M86.627 69.87l-.623.248M104.066 63.414l-.423.168m-4.228 1.69-.905.362m-11.881 4.748-.626.25M104.065 63.974l-.357.142m-4.374 1.748-.824.328m-11.88 4.75-.628.25M104.065 64.52l-.307.122M99.26 66.44l-.75.3m-11.879 4.748-.63.25M104.064 65.079l-.264.105m-4.61 1.842-.68.272m-11.879 4.747-.63.252M104.064 65.681l-.225.09m-4.719 1.886-.61.243m-11.877 4.747-.634.254M104.062 66.24l-.191.078M99.06 68.24l-.55.22m-11.876 4.745-.637.255M104.062 66.786l-.164.066m-4.893 1.956-.495.197m-11.875 4.746-.407.163M104.062 67.346l-.14.055m-4.965 1.984-.447.18M104.06 67.897l-.114.046m-5.028 2.009-.408.164M104.06 68.457l-.093.037m-5.096 2.036-.361.144M104.06 69.002l-.074.03m-5.17 2.066-.306.123M104.06 69.562l-.056.022m-5.25 2.098-.244.097M104.06 70.076l-.04.016m-5.328 2.13-.182.071M104.055 70.637l-.018.007m-5.417 2.165-.11.044M98.549 73.383l-.039.015M96.62 38.148l-.347.138M96.797 38.623l-1.309.523M97.153 39.04l-2.25.898M97.731 39.322l-3.23 1.291M98.791 39.457l-4.61 1.843M104.528 37.711l-.02.008m-4.901 1.958-5.638 2.253M105.49 37.886l-.255.102m-6.051 2.417-5.344 2.136M106.55 38.08l-.725.29m-6.998 2.796-5.09 2.034M107.493 38.261l-1.229.492m-8.122 3.245-4.496 1.797M108.397 38.447l-1.762.703m-2.95 1.18-.279.111m-4.867 1.944-4.98 1.992M109.303 38.644l-2.333.932m-2.705 1.08-.667.267m-4.85 1.938-5.28 2.11M110.174 38.847l-2.91 1.163m-2.452.98-.753.3m-5.302 2.12-5.38 2.15M111.032 39.062l-3.501 1.4m-2.212.883-.74.296m-5.822 2.326-5.478 2.19M111.843 39.285l-4.077 1.629m-2.138.854-1.558.623m-5.313 2.122-5.586 2.233M112.611 39.537l-4.624 1.848m-2.341.934-1.79.717m-5.1 2.037-5.714 2.283M113.232 39.803l-5.062 2.022m-2.733 1.092-1.58.632m-5.1 2.038-5.874 2.346M113.859 40.112l-5.504 2.199m-3.376 1.35-1.12.446m-5.102 2.04-1.034.413m-3.99 1.594-1.147.459M114.444 40.423l-5.925 2.368m-3.845 1.536-.812.324m-5.105 2.04-.401.16m-5.365 2.145-.765.306M115.038 40.744l-6.357 2.541m-4.19 1.675-.626.25m-5.108 2.04-.235.094m-6.687 2.673-.011.004M115.6 41.123l-6.746 2.696m-4.523 1.806-.463.185m-5.111 2.042-.128.053M116.05 41.502l-7.04 2.813m-4.806 1.92-.333.133m-5.114 2.044-.03.012M116.445 41.89 109.16 44.8m-5.068 2.024-.219.089M116.814 42.301 109.31 45.3m-5.32 2.125-.114.047M117.152 42.718l-7.698 3.075m-5.554 2.22-.021.008M117.472 43.149l-7.873 3.146M117.764 43.577l-8.027 3.209M104 42.55l.787.43m4.559 2.485 8.69 4.742M104.138 42.21l.756.411m4.35 2.374 9.715 5.298M109.14 44.51l10.759 5.868M109.034 44.061l11.723 6.393M108.906 43.564l12.08 6.588M108.75 43.062l11.902 6.49M108.546 42.523l2.645 1.443m5.05 2.755 4.09 2.23M108.255 41.914l1.63.889m7.964 4.344 2.167 1.182M107.897 41.293l2.186 1.192m9.095 4.96.562.307M107.485 40.646l2.103 1.147M107.062 39.989l1.778.97M106.647 39.345l1.172.64M103.88 45.906l.018.011M103.88 45.447l.075.04M103.88 45.02l.15.083m6.032 3.29 1.396.761M103.88 44.603l.246.135m5.758 3.14 3.14 1.713M103.88 44.177l.36.196m5.516 3.01 4.425 2.412M103.88 43.755l.485.266m5.282 2.88 5.526 3.014M103.88 43.33l.624.34m5.04 2.748 6.605 3.603M103.88 42.912l.766.417m4.799 2.619 7.641 4.167" style="fill:none;stroke:#140533;stroke-width:.03530625;stroke-linecap:round;stroke-linejoin:round;stroke-miterlimit:22.9255867;stroke-opacity:1" transform="translate(-64.995 -18.087)"/><path d="M101.177 37.89s.01 1.192-.199 1.362c-.208.17-1.002.13-1.366.468-.363.338-.442.805-.52.988-.078.182-.364.698-.714.767l-.352.068M101.342 37.889s.038 1.09.234 1.35c.194.26.974.169 1.312.377.339.208.378.416.598.988.222.572.469.802.742.87.272.07.35.07.35.07" style="fill:none;stroke:#140533;stroke-width:.0926893;stroke-linecap:round;stroke-linejoin:round;stroke-miterlimit:22.9255867;stroke-opacity:1" transform="translate(-64.995 -18.087)"/><path d="m84.407 41.09-.535-.558M84.67 41.045l-.49-.513M84.87 40.923l-.375-.391M85.01 40.76l-.218-.227M101.248 37.812l-.534-.558M101.511 37.765l-.49-.511M101.711 37.644l-.375-.39M101.85 37.481l-.217-.227M117.991 41.065l-.534-.556M118.253 41.02l-.489-.511M118.453 40.899l-.373-.39M118.594 40.736l-.218-.227" style="fill:none;stroke:#140533;stroke-width:.03532868;stroke-linecap:round;stroke-linejoin:round;stroke-miterlimit:22.9255867;stroke-opacity:1" transform="translate(-64.995 -18.087)"/><path d="m101.091 32.481-.886-.924M101.952 32.677l-.537-.56m-.227-.238-.31-.322M102.39 32.413l-.82-.856M102.697 32.056l-.477-.5M75.052 105.143h.49m42.591-.006 5.07-.001m3.75 0 5.192-.001M75.054 104.84h.49m42.43-.007h5.23m3.749 0h5.19M75.057 104.53h.487m42.25-.007h5.41m3.749 0h5.188M75.059 104.244h.486m42.06-.006h5.598m3.75 0h5.185M75.061 103.934h.484m41.822-.006h5.836m3.75 0h5.183M75.063 103.631h.482m41.615-.006h6.043m3.75-.001h5.18M75.064 103.32h.48m41.601-.005h6.058m3.75-.001h5.176M75.065 102.994h.476m41.593-.006h6.07m3.749 0 5.173-.002M75.067 102.684h.471m41.59-.006h6.075m3.75 0 5.17-.002M75.068 102.378h.467m41.59-.006h6.078m3.75 0 5.166-.002M75.07 102.068h.463m41.596-.006h6.074m3.75 0 5.163-.002M75.07 101.765h.46m41.603-.006h6.07m3.75 0h5.16M75.071 101.455h.455m41.615-.006h6.062m3.75-.001h5.155M75.071 101.17h.452m37.516-.006h.212m3.901 0 6.051-.001m3.75 0h5.15M75.071 100.86h.45m37.143-.006h.55m3.953 0 6.036-.001m3.75 0h5.147M75.071 100.557h.448m36.78-.004h.876m4.009-.001h6.02m3.749-.001h5.143M75.07 100.246h.447m9.594 0h.253m26.561-.004h1.206m4.075 0h5.997m3.75-.002h5.138M75.07 99.923h.447m9.346-.001h.5m3.958-.001h.146m22.067-.003h1.549m4.15 0 5.97-.001m3.75 0 5.133-.001M75.068 99.613h.45m9.101-.001h.718m4.028-.001h.58m21.213-.003h1.874m4.23 0 5.941-.001m3.75 0 5.127-.001M75.065 99.31h.454m8.856-.002h.924m4.12 0h1.025m20.342-.004h2.193m4.315 0h5.91m3.749 0 5.12-.002M75.064 99h.458m8.594-.002h1.133m4.233 0h1.493m19.427-.004h2.52m4.41 0h5.87m3.75 0 5.116-.002M75.061 98.693h.466m8.326 0h1.34m4.361 0 1.958-.002m18.505 0 2.845-.002m4.51 0h5.83m3.75 0 5.108-.002M75.057 98.383h.476m3.762 0h.335m3.943 0h1.556m4.506 0 2.433-.002m17.552 0 3.176-.002m4.62 0h5.786m3.75 0 5.1-.002M75.053 98.08h.49m3.752 0h.753m3.236 0h1.78m4.658 0 2.897-.002m16.603 0h3.505m4.738-.002h5.737m3.74 0h5.1M75.049 97.77h.504m3.742 0h1.234m2.431 0h2.03m4.831 0 3.37-.002m15.61 0h3.85m4.869-.002h5.682m3.726 0h5.101M75.043 97.485h.525m3.727 0h1.76m1.558 0 2.307-.001m4.998 0 3.805-.001m14.679-.001h4.174m4.998-.001h5.628m3.708-.001h5.102M75.035 97.175h.554m3.706 0 5.545-.001m5.194 0 4.273-.001m13.641-.001h4.537m5.152-.001h5.565m3.685-.001h5.091M75.025 96.872h.59m3.68 0h5.464m5.396-.001h4.73m12.596-.003h4.904m5.32-.001h5.497m3.657-.001h5.074M75.014 96.562h.633m3.648 0h5.38m5.612-.001 5.191-.001m11.493-.001h5.299m5.51-.001h5.422m3.625-.001h5.05M74.997 96.228h.691m3.607 0h5.284m5.863-.002h5.712m10.218 0 5.759-.002m5.736 0h5.335m3.584 0 5.023-.002M74.97 95.918h.762m3.563 0h5.193m6.108-.002h6.252m8.904 0 6.237-.002m5.967 0h5.246m3.541 0 4.994-.002M74.93 95.615h.852m3.514 0 5.103-.001m6.358 0 6.868-.001m7.424-.001h6.788m6.21-.001h5.155m3.494-.001h4.963M74.893 95.305h.946m3.457 0 5.008-.001m6.63 0 7.668-.001m5.551-.001h7.519m6.478-.001 5.052-.001m3.44 0h4.93M74.862 94.999h1.04m3.394 0 4.911-.001m6.913 0 8.962-.001m2.68 0 8.732-.001m6.766-.001 4.942-.001m3.379 0h4.899M74.835 94.689h1.14m3.321 0 4.804-.001m7.22 0 19.982-.003m7.077-.001h4.823m3.31-.001h4.866M74.813 94.386h1.24m3.243 0 4.69-.001m7.544 0 19.571-.003m7.404-.001h4.697m3.234-.001h4.836M74.795 94.076h1.345m3.156 0h4.561m7.903-.001 19.12-.003m7.765-.001h4.557m3.147-.001h4.805M74.783 93.79h1.446m3.067 0h4.435m8.254 0 18.68-.004m8.116 0h4.42m3.057-.002h4.782M74.773 93.48h1.562m2.961 0h4.284m8.664 0 18.168-.004m8.527 0h4.263m2.946-.002h4.758M74.77 93.179l1.678-.001m2.848 0h4.126m9.094-.001 17.633-.003m8.954-.001h4.099m2.82 0 4.744-.001M74.77 92.868h1.803m2.723 0h3.95m9.564-.002 17.047-.003m9.426 0h3.919m2.674 0 4.737-.002M74.777 92.525h1.949m2.57 0h3.74m10.124-.002h16.35m9.985-.002h3.707m2.493 0h4.735M74.9 92.215h1.979m2.417 0h3.532m10.674-.002h15.663m10.535-.002h3.502m2.308 0h4.74M75.099 91.912h1.941m2.256 0h3.313m11.252 0 14.939-.004m11.116 0h3.286m2.11 0 4.75-.002M75.314 91.602h1.907m2.075 0h3.069m11.891-.003h14.135m11.764-.002h3.047m1.892 0h4.758M75.54 91.296h1.875m1.881 0h2.808m12.578 0 13.26-.004m12.468 0h2.792m1.656 0 4.767-.002M75.79 90.986h1.837m1.669 0h2.52m13.341-.003h12.279m13.255-.002h2.51m1.4 0h4.772M76.06 90.683h1.784m1.452 0h2.212m14.166-.001 11.202-.001m14.117-.003h2.207m1.133 0 4.765-.001M76.38 90.373h1.691m1.225 0h1.865m15.115-.001 9.93-.001m15.13-.003h1.864m.835 0 4.748-.001M76.73 90.089l1.557-.001m1.009 0h1.51m16.118-.001 8.548-.001m16.22-.003h1.508m.542 0h4.707M77.174 89.778h1.364m.758 0h1.078m17.43-.003h6.64m17.698-.003h1.058m.197 0h4.625M77.682 89.476h1.129m.485-.001h.59m19.193-.001 3.812-.001m19.784-.003h4.823M78.313 89.164h.713m44.387-.006h3.328M129.703 119.316h.243M129.703 119.013h.445M122.91 118.704h.296m6.496-.001h.617M122.518 118.379h.688m6.496 0 .617-.001M122.172 118.069h1.034m6.495 0 2.512-.001M121.858 117.766h1.348m6.495 0 2.51-.002M121.558 117.455h1.648m6.493 0h2.51M121.285 117.15h1.92m6.494 0h2.51M121.033 116.84h2.173m6.492 0 2.51-.001M120.808 116.538h2.398m6.492-.001h2.51M120.603 116.228h2.603m6.492-.001h2.51M120.437 115.942h2.769m5.393 0h3.607M74.918 115.638h.303m45.06-.006h2.923m4.056-.001h4.944M74.924 115.336l.624-.001m44.611-.006h3.045m3.749-.001h5.25M74.929 115.025h.62m44.514-.006h3.141m3.749-.001h5.249M74.935 114.691h.614m44.44-.006h3.215m3.749 0 5.247-.002M74.939 114.381h.609m44.38-.006h3.276m3.749-.001h5.247M74.944 114.078h.604m44.326-.006h3.33m3.749-.001h5.246M74.948 113.768h.6m44.275-.006h3.381m3.749-.001h5.245M74.954 113.462h.592m44.229-.006h3.43m3.748-.001h5.243M74.958 113.152h.588m44.182-.006h3.476m3.749-.001h5.242M74.962 112.849h.584m44.139-.006h3.52m3.748-.001h5.24M74.968 112.539h.577m44.096-.006h3.563m3.749-.001h5.239M74.972 112.253h.573m44.057-.006h3.602m3.749 0h5.238M74.976 111.943h.568m44.017-.006h3.643m3.749 0h5.236M74.98 111.641h.564m43.976-.007h3.684m3.749 0h5.235M74.984 111.331h.56m43.936-.007h3.724m3.749 0h5.234M74.988 110.988h.554m43.892-.006h3.77m3.749 0h5.23M74.992 110.678h.55m43.85-.006h3.812m3.749 0h5.23M74.997 110.375h.545m43.81-.006h3.852m3.749 0h5.228M75 110.065h.54m43.77-.006h3.894m3.749-.001h5.227M75.005 109.76h.536m43.726-.007h3.937m3.749 0h5.224M75.008 109.449h.533m43.682-.006h3.981m3.749-.001h5.222M75.012 109.147h.529m43.638-.007h4.025m3.749 0h5.221M75.016 108.837h.525m43.591-.007h4.072m3.749 0h5.218M75.019 108.552h.52m43.548-.006 4.117-.001m3.749 0 5.217-.001M75.023 108.242h.517m43.496-.007h4.168m3.749 0 5.216-.001M75.025 107.939h.515m43.442-.006 4.222-.001m3.749 0 5.213-.001M75.03 107.629h.51m43.384-.006 4.28-.001m3.749 0 5.211-.001M75.032 107.294h.508m43.315-.006h4.348m3.75 0 5.209-.001M75.035 106.984h.506m43.244-.006h4.418m3.75-.001h5.207M75.04 106.682h.5m43.168-.007h4.495m3.75 0 5.205-.001M75.042 106.372h.499m43.076-.007h4.586m3.75 0 5.202-.001M75.045 106.066h.496m42.975-.006 4.687-.001m3.75 0 5.2-.001M75.048 105.756h.494m42.86-.006 4.801-.001m3.75 0 5.198-.001M75.05 105.453h.492m42.735-.006 4.926-.001m3.75 0 5.195-.001M70.33 106.372l5.23-3.058m3.735-2.181 5.652-3.304m7.152-4.18 7.21-4.213M70.33 105.953l5.232-3.057m3.733-2.181 5.572-3.258m8.062-4.711 5.282-3.086M70.332 105.524l5.23-3.056m3.733-2.182 5.486-3.205m9.9-5.786 1.514-.885M70.333 105.13l5.23-3.056m3.732-2.18 5.402-3.157M70.335 104.702l5.228-3.055m3.732-2.182 5.306-3.1M70.336 104.283l5.227-3.055m3.732-2.18 5.209-3.044M70.337 103.854l5.227-3.054m3.73-2.18 5.106-2.984M70.34 103.4l5.224-3.052m3.73-2.18 4.993-2.918M70.342 102.972l5.224-3.052m3.729-2.18 4.877-2.85M70.343 102.55l5.223-3.052m3.729-2.18 4.747-2.774M70.344 102.122l5.222-3.052m3.729-2.179 4.604-2.69M70.346 101.703l5.221-3.05m3.728-2.18 4.452-2.601M70.347 101.275l5.22-3.051m3.728-2.18 4.285-2.503M70.348 100.88l5.22-3.05m3.728-2.178 4.123-2.41M70.35 100.452l5.23-3.057m3.716-2.171 3.937-2.3M70.353 100.033l5.291-3.092m3.652-2.135 3.746-2.188M70.354 99.604l5.363-3.135m3.579-2.09 3.542-2.07M70.362 99.152l5.44-3.179m3.494-2.042 3.317-1.939M70.387 98.709l5.503-3.215m3.406-1.99 3.092-1.808M70.423 98.27l5.562-3.25m3.311-1.935 2.864-1.673M70.47 97.816l5.623-3.287m3.203-1.871 2.62-1.531M70.526 97.36l5.689-3.324m3.081-1.8 2.368-1.384M70.595 96.892l5.763-3.368m2.938-1.717 2.099-1.226M70.675 96.428l5.854-3.42m2.767-1.618 1.823-1.065M70.77 95.944l5.997-3.504m2.529-1.477 1.521-.89M70.875 95.49l6.208-3.627m2.213-1.294 1.225-.716M71.007 94.985l6.522-3.811m1.767-1.033.88-.515M71.161 94.477l6.914-4.04m1.221-.713.52-.305M71.354 93.936l7.4-4.324m.542-.317.117-.067M71.616 93.323l7.294-4.262M71.946 92.703l6.468-3.78M72.42 92.009l5.44-3.18M73.05 91.212l4.098-2.395M73.985 90.243l2.044-1.193M89.237 120.789l24.032-14.044m3.9-2.279 6.034-3.526m3.75-2.191 4.793-2.802M89.234 120.373l24.035-14.045m3.901-2.28 6.033-3.526m3.747-2.19 4.703-2.747M89.233 119.946l24.036-14.047m3.891-2.274 6.043-3.53m3.732-2.182 4.613-2.696M89.232 119.553l24.037-14.047m3.873-2.264 6.061-3.541m3.711-2.17 4.531-2.646M89.23 119.126l24.039-14.048m3.862-2.256 6.072-3.548m3.68-2.152 4.442-2.594M89.229 118.71l24.041-14.05m3.856-2.254 6.076-3.55m3.643-2.129 4.353-2.544M89.228 118.282l24.042-14.05m3.859-2.255 6.073-3.55m3.598-2.101 4.262-2.49M85.242 120.16l.11-.066m3.874-2.262 24.044-14.05m3.868-2.262 6.064-3.543m3.541-2.07 4.163-2.432M84.702 120.048l.65-.38m3.873-2.264 24.045-14.051m3.885-2.27 6.047-3.535m3.478-2.032 4.07-2.379M84.169 119.937l1.182-.69m3.872-2.263 24.047-14.053m3.908-2.283 6.024-3.521m3.408-1.992 3.977-2.323M83.627 119.826l1.723-1.006m3.87-2.263 24.052-14.055m3.937-2.301 5.993-3.502m3.326-1.944 3.884-2.268M83.1 119.717l2.25-1.315m3.87-2.261 24.052-14.056m3.975-2.324 5.955-3.48m3.237-1.891 3.792-2.216M82.56 119.605l2.788-1.63m3.87-2.261 24.054-14.056m4.022-2.351 5.908-3.454m3.133-1.83 3.698-2.162M82.056 119.505l3.292-1.923m3.869-2.261 24.045-14.052m4.083-2.385 5.857-3.423m3.026-1.768 3.613-2.112M81.502 119.401l3.845-2.246m3.868-2.261 24-14.026m4.196-2.452 5.79-3.383m2.895-1.69 3.523-2.06M80.96 119.3l4.386-2.563m3.868-2.26 23.951-13.996m4.32-2.525 5.717-3.34m2.748-1.607 3.44-2.01M80.404 119.197l4.942-2.887m3.866-2.26 23.896-13.963m4.466-2.61 5.628-3.29m2.58-1.507 3.356-1.961M79.822 119.09l5.522-3.228m3.867-2.258 23.832-13.928m4.64-2.71 5.519-3.227m2.39-1.396 3.264-1.908M79.348 118.938l5.995-3.503m3.867-2.258 23.767-13.89m4.826-2.82 5.399-3.155m2.194-1.281 3.17-1.854M79.335 118.529l6.008-3.51m3.865-2.26 23.698-13.848m5.033-2.94 5.263-3.076m1.99-1.163 3.07-1.795M79.326 118.106l6.015-3.514m3.865-2.259 23.623-13.805m5.271-3.08 5.102-2.98m1.77-1.035 2.95-1.726M79.32 117.688l6.02-3.518m3.864-2.258 23.543-13.757m5.54-3.239 4.915-2.87m1.539-.901 2.817-1.646M79.317 117.263l6.023-3.52m3.863-2.257 23.453-13.706m5.859-3.425 4.687-2.738m1.295-.758 2.653-1.55M79.314 116.846l6.025-3.52m3.862-2.258 23.357-13.65m6.224-3.636 4.42-2.582m1.047-.612 2.461-1.439M79.31 116.42l6.027-3.522m3.863-2.257 23.249-13.586m6.659-3.892 4.092-2.39m.783-.458 2.23-1.302M79.308 116.03l6.03-3.524m3.86-2.256 23.138-13.522m7.133-4.168 3.731-2.182m.53-.308 1.965-1.148M72.578 119.534l.215-.126m6.513-3.805 6.03-3.525m3.861-2.256 23.001-13.44m7.767-4.54 3.235-1.89m.241-.141 1.587-.928M72.537 119.14l.257-.15m6.509-3.804 6.032-3.525m3.86-2.256 22.857-13.356m8.598-5.024 3.53-2.063M72.235 118.889l.56-.327m6.507-3.802 6.033-3.526m3.86-2.255 22.696-13.263M72.178 118.461l.618-.36M79.3 114.3l6.033-3.527m3.859-2.254 22.514-13.156M71.954 118.165l.843-.493m6.502-3.8 6.033-3.526m3.858-2.254 22.333-13.05M71.145 118.22l1.654-.966m6.498-3.799 6.035-3.525m3.857-2.254 22.145-12.942M70.315 118.277l2.484-1.451m1.751-1.024.998-.583m3.748-2.191 6.034-3.525m3.858-2.255 21.943-12.824M70.285 117.872l2.515-1.47m.872-.51 1.877-1.095m3.747-2.19 6.033-3.526m3.857-2.254 21.735-12.702M70.288 117.443l2.512-1.468m.806-.47 1.942-1.136m3.747-2.189 6.034-3.526m3.856-2.253 21.512-12.572M70.29 117.025l2.511-1.468m.742-.433 2.005-1.173m3.747-2.188 6.033-3.527m3.855-2.253 21.286-12.44M70.29 116.597l2.513-1.47m.752-.439 1.993-1.164m3.747-2.19 6.031-3.525m3.856-2.252 21.043-12.297M70.292 116.201l2.51-1.466m.643-.376 2.103-1.228m3.745-2.19 6.033-3.525m3.855-2.251 20.81-12.163M70.293 115.773l5.255-3.07m3.745-2.189 6.032-3.525m3.853-2.251 20.548-12.007M70.295 115.355l5.254-3.07m3.744-2.188 6.03-3.525m3.854-2.252 20.277-11.85M70.296 114.927l5.253-3.07m3.744-2.189 6.03-3.523m3.852-2.25 19.991-11.684M70.299 114.453l5.252-3.07m3.742-2.186 6.03-3.524m3.85-2.25 19.66-11.489M70.3 114.024l5.25-3.069m3.743-2.187 6.028-3.522m3.851-2.25 19.345-11.304M70.302 113.605l5.25-3.067m3.741-2.187 6.028-3.523m3.85-2.25 19.025-11.116M70.303 113.177l5.249-3.068m3.741-2.185 6.026-3.523m3.85-2.249 18.683-10.918M70.304 112.754l5.248-3.067m3.741-2.185 6.025-3.521m3.87-2.261 18.311-10.7M70.306 112.325l5.247-3.065m3.74-2.187 6.025-3.52m3.896-2.276 17.912-10.467M70.308 111.907l5.245-3.066m3.74-2.185 6.024-3.52m3.924-2.293 17.503-10.229M70.31 111.479l5.245-3.065m3.738-2.185 6.022-3.52m3.958-2.312 17.063-9.972M70.311 111.083l5.244-3.063m3.738-2.186 6.022-3.518m4-2.337 16.628-9.718M70.313 110.655l5.242-3.064m3.738-2.184 6.02-3.518m4.069-2.377 16.116-9.419M70.314 110.237l5.242-3.063m3.737-2.184 6.02-3.518m4.16-2.431 15.568-9.098M70.315 109.807l5.241-3.062m3.737-2.184 6.02-3.517m4.278-2.5 14.959-8.742M70.318 109.346l5.24-3.06m3.735-2.185 6.018-3.517m4.439-2.593 14.243-8.324M70.32 108.917l5.237-3.06m3.738-2.185 6-3.505m4.633-2.708 13.518-7.9M70.32 108.5l5.237-3.061m3.738-2.184 5.965-3.487m4.873-2.847 12.75-7.45M70.322 108.071l5.237-3.06m3.736-2.183 5.917-3.46m5.173-3.023 11.886-6.945M70.324 107.648l5.235-3.06m3.736-2.182 5.862-3.426m5.526-3.23 10.95-6.398M70.325 107.22l5.235-3.06m3.735-2.183 5.797-3.388m5.959-3.481 9.887-5.778M70.326 106.8l5.234-3.057m3.735-2.183 5.728-3.349m6.476-3.784 8.698-5.082M129.896 119.53l.05-.028m2.112-1.233.155-.091M129.703 119.217l.58-.34m1.12-.654.808-.473M129.702 118.795l.617-.36m.437-.256 1.454-.849M129.702 118.368l2.507-1.465M129.7 117.95l2.507-1.465M129.7 117.523l2.506-1.464M129.7 117.13l2.504-1.463M129.698 116.703l2.505-1.463M129.698 116.285l2.504-1.462M129.444 116.006l2.756-1.61M128.711 115.986l3.487-2.036M122.8 119.014l.406-.237m5.075-2.967 3.915-2.287M121.694 119.243l1.512-.884m4.38-2.56 4.609-2.693M120.561 119.476l2.645-1.545m3.99-2.332 4.996-2.92M119.445 119.707l3.76-2.198m3.748-2.19 5.238-3.06M118.314 119.94l4.892-2.858m3.747-2.19 5.235-3.06M117.207 120.169l5.999-3.505m3.747-2.19 5.234-3.059M117.145 119.777l6.06-3.541m3.748-2.19 5.23-3.056M117.145 119.385l6.06-3.542m3.748-2.19 5.23-3.056M117.147 118.956l6.057-3.54m3.749-2.191 5.227-3.054M112.956 120.987l.305-.177m3.886-2.273 6.057-3.54m3.749-2.19 5.224-3.052M111.968 121.136l1.293-.755m3.887-2.271 6.056-3.54m3.749-2.19 5.222-3.052M110.903 121.297l2.358-1.376m3.887-2.273 6.056-3.538m3.749-2.192 5.22-3.05M110.132 121.32l3.129-1.828m3.888-2.272 6.055-3.539m3.749-2.19 5.217-3.048M109.409 121.325l3.852-2.25m3.888-2.273 6.055-3.539m3.749-2.19 5.214-3.046M108.669 121.33l4.593-2.683m3.889-2.273 6.053-3.538m3.749-2.19 5.211-3.046M107.939 121.336l5.323-3.112m3.889-2.272 6.053-3.537m3.749-2.19 5.209-3.044M107.197 121.341l6.065-3.544m3.89-2.274 6.052-3.537m3.749-2.19 5.206-3.042M106.474 121.346l6.788-3.966m3.89-2.274 6.052-3.538m3.749-2.19 5.202-3.04M105.589 121.435l7.673-4.484m3.891-2.274 6.051-3.536m3.749-2.19 5.2-3.038M104.966 121.406l8.296-4.849m3.891-2.274 6.051-3.536m3.749-2.19 5.196-3.037M104.254 121.394l9.01-5.264m3.89-2.274 6.05-3.536m3.749-2.19 5.192-3.034M103.552 121.387l9.711-5.675m3.892-2.275 6.05-3.535m3.748-2.19 5.19-3.032M102.83 121.38l10.433-6.096m3.893-2.274 6.048-3.535m3.749-2.19 5.185-3.031M102.032 121.376l11.231-6.564m3.893-2.275 6.048-3.534m3.749-2.19 5.181-3.03M101.307 121.37l11.956-6.986m3.895-2.275 6.046-3.534m3.749-2.19 5.177-3.026M100.598 121.368l12.667-7.402m3.893-2.275 6.046-3.533m3.749-2.191 5.173-3.024M99.872 121.365l13.393-7.827m3.894-2.275 6.045-3.534m3.749-2.19 5.167-3.02M99.155 121.362l14.11-8.246m3.894-2.275 6.044-3.533m3.75-2.19 5.163-3.018M98.426 121.36l14.839-8.671m3.895-2.277 6.043-3.532m3.75-2.19 5.158-3.014M97.715 121.358l15.55-9.088m3.895-2.277 6.043-3.53m3.75-2.191 5.152-3.011M96.958 121.372l16.308-9.53m3.896-2.276 6.041-3.532m3.75-2.19 5.147-3.008M96.275 121.379l16.991-9.93m3.896-2.277 6.041-3.53m3.75-2.192 5.141-3.004M95.56 121.368l17.706-10.347m3.897-2.278 6.04-3.529m3.75-2.19 5.134-3.002M94.861 121.358l18.405-10.754m3.897-2.278 6.04-3.53m3.75-2.19 5.127-2.998M94.146 121.348l19.12-11.173m3.897-2.278 6.04-3.529m3.75-2.19 5.12-2.993M93.375 121.339l19.891-11.625m3.899-2.277 6.038-3.529m3.75-2.191 5.108-2.986M92.66 121.33l20.607-12.044m3.898-2.277 6.038-3.53m3.75-2.19 5.097-2.979M91.962 121.32l21.305-12.451m3.899-2.28 6.037-3.527m3.75-2.191 5.082-2.97M91.333 121.259l21.934-12.819m3.899-2.278 6.037-3.527m3.75-2.191 5.06-2.958M90.76 121.172l22.507-13.153m3.9-2.28 6.036-3.526m3.75-2.191 5.014-2.931M90.178 121.084l23.09-13.493m3.9-2.279 6.035-3.526m3.75-2.193 4.952-2.894M89.61 120.997l23.657-13.824m3.902-2.28 6.034-3.526m3.75-2.191 4.88-2.851M102.987 122.867l9.37-.86m5.422-.497 14.94-1.373m1.495-.136 13.633-1.252M100.395 122.84l12.1-1.111m4.783-.44 13.875-1.273m3.043-.28 13.8-1.266M88.707 123.64v0m8.404-.772 15.383-1.412m4.704-.431 12.748-1.17m4.244-.39 13.786-1.265M89.41 123.326l23.838-2.188m3.896-.359 12.802-1.175m4.193-.385 13.679-1.255M90.174 122.983l17.962-1.648m9.008-.827 12.56-1.154m4.38-.402 13.437-1.233M90.41 122.696l14.421-1.324m12.313-1.13 12.56-1.154m4.397-.403 13.032-1.196M90.414 122.423l11.518-1.057m17.063-1.567 10.707-.982m4.739-.436 12.223-1.121M90.347 122.142l8.523-.783m22.627-2.076 8.205-.753m5.097-.468 11.322-1.04M90.021 121.9l5.76-.528m27.425-2.518 6.496-.597m4.842-.443 11.044-1.014M90.013 121.632l3.226-.296m29.967-2.75 6.495-.596m4.653-.427 10.683-.981M90.006 121.36l1.249-.114m31.95-2.932 6.496-.597m4.408-.404 10.268-.942M89.237 121.166l.925-.085m33.044-3.033 6.493-.595m4.378-.403 9.561-.877M82.59 121.504l2.703-.248m37.913-3.48 6.493-.596m4.375-.401 8.726-.802M81.21 121.38l4.137-.379m37.859-3.475 6.493-.596m4.373-.402 7.894-.725M79.977 121.222l5.363-.492m37.866-3.476 6.492-.596m4.37-.401 6.931-.636M78.985 121.048l6.337-.582m37.884-3.478 6.492-.595m4.368-.401 5.931-.544M78.154 120.852l7.149-.657m37.903-3.478 6.49-.597m4.367-.4 4.855-.446M77.274 120.648l7.282-.67m38.65-3.546 5.384-.495m5.47-.502 3.674-.337M76.216 120.473l7.406-.68m39.584-3.633 4.294-.394m6.558-.602 2.496-.229M74.96 120.322l7.75-.711m40.496-3.717 3.872-.355m6.977-.641 1.295-.119M73.426 120.19l8.35-.765m41.428-3.802 3.745-.345m7.103-.652h.007M71.61 120.09l9.243-.849m42.351-3.887 3.74-.343M72.552 119.732l7.367-.677m43.285-3.974 3.735-.342M72.793 119.444l6.499-.597m43.912-4.03 3.73-.344M72.794 119.171l6.498-.597m43.912-4.03 3.724-.342M72.794 118.922l6.5-.597m43.91-4.03 2.83-.261M72.796 118.649l6.497-.597m43.911-4.03 1.384-.127M72.961 118.368l6.332-.58M74.835 117.924l4.46-.41M75.946 117.528l3.349-.307M76.518 117.205l2.777-.255M76.726 116.92l2.57-.236M76.544 116.664l2.752-.252M76.036 116.443l3.26-.3M75.228 116.246l4.07-.374M74.16 116.077l5.137-.47M74.248 115.798l.011-.001m.82-.076 4.22-.387M75.545 115.428l3.754-.344M75.546 115.155l3.753-.344M75.548 114.89l3.752-.344M133.846 122.487l3.61-.331M129.272 122.634l10.716-.982M118.459 123.334l23.269-2.136M118.459 123.063l24.622-2.262M118.459 122.797l25.817-2.37M118.301 122.539l27.055-2.483M111.574 122.888l.515-.047m5.97-.549 28.195-2.588M108.465 122.901l3.62-.332m5.978-.548 28.917-2.654M105.698 122.89l6.384-.587m5.985-.548 29.436-2.702" style="fill:none;stroke:#140533;stroke-width:.03530625;stroke-linecap:round;stroke-linejoin:round;stroke-miterlimit:22.9255867;stroke-opacity:1" transform="translate(-64.995 -18.087)"/><path d="m101.292 73.502-.006-11.471" style="fill:none;stroke:#140533;stroke-width:.0926893;stroke-linecap:round;stroke-linejoin:round;stroke-miterlimit:22.9255867;stroke-opacity:1" transform="translate(-64.995 -18.087)"/><path d="m116.535 88.752.32.279M115.963 120.523l.588.513m.308.266.026.023M115.963 119.907l.915.795M115.964 119.283l.873.758M115.966 118.672l.866.755M115.966 118.048l.862.75M115.967 117.473l.857.747M115.967 116.85l.853.74M115.968 116.239l.848.737M115.97 115.614l.842.733M115.97 114.961l.838.728M115.971 114.337l.832.723M115.971 113.726l.828.72M115.973 113.102l.822.715M115.973 112.486l.818.711M115.974 111.862l.809.703M115.975 111.252l.8.697M115.975 110.627l.794.69M115.977 110.053l.785.683M115.977 109.428l.778.677M115.978 108.82l.77.668M115.98 108.194l.76.662M115.98 107.521l.752.655M115.98 106.897l.745.648M115.98 106.286l.738.641M115.982 105.662l.73.634M115.984 105.046l.719.627M115.984 104.422l.712.62M115.985 103.811l.704.614M115.985 103.187l.697.607M115.986 102.613l.69.599M115.988 101.988l.68.593M115.988 101.38l.674.584M115.99 100.754l.663.578M115.99 100.065l.655.57M115.99 99.44l.648.564M115.992 98.83l.573.499M115.992 98.206l.56.487M115.993 97.59l.62.54M115.993 96.965l.693.603M115.995 96.356l.687.597M115.996 95.73l.68.595M115.996 95.157l.678.589M115.997 94.532l.673.585M115.997 93.923l.669.58M115.999 93.298l.663.576M116 92.625l.656.571M116 92l.652.568M116.001 91.39l.647.563M116.001 90.766l.643.558M116.003 90.151l.6.522M116.02 89.54l.534.465M116.05 88.955l.489.426" style="fill:none;stroke:#140533;stroke-width:.03529667;stroke-linecap:round;stroke-linejoin:round;stroke-miterlimit:22.9255867;stroke-opacity:1" transform="translate(-64.995 -18.087)"/></svg>