<svg xmlns="http://www.w3.org/2000/svg" width="210mm" height="297mm" viewBox="0 0 210 297"><path d="M84.04 123.4v-.74l4.28.38.01.77zm0 0" style="fill:none;stroke:#140533;stroke-width:.0926893;stroke-linecap:round;stroke-linejoin:round;stroke-miterlimit:22.9255867;stroke-opacity:1"/><path d="m88.33 123.8 2.08-.92v-.7l-2.09.86" style="fill:none;stroke:#140533;stroke-width:.0926893;stroke-linecap:round;stroke-linejoin:round;stroke-miterlimit:22.9255867;stroke-opacity:1"/><path d="m84.04 122.66.4-.31 3.8.27 1.78-.68.4.25" style="fill:none;stroke:#140533;stroke-width:.0926893;stroke-linecap:round;stroke-linejoin:round;stroke-miterlimit:22.9255867;stroke-opacity:1"/><path d="m84.25 122.52 4.05.3 1.92-.76" style="fill:none;stroke:#140533;stroke-width:.0926893;stroke-linecap:round;stroke-linejoin:round;stroke-miterlimit:22.9255867;stroke-opacity:1"/><path d="m84.44 122.35-.01-.75 3.78.26.02.76M88.21 121.86l1.8-.59v.65M84.45 121.57l.87-.33s.12.37 1.43.4c1.32.05 2-.12 2.1-.2.12-.08.27-.04.27-.04l.12-.18.76.05" style="fill:none;stroke:#140533;stroke-width:.0926893;stroke-linecap:round;stroke-linejoin:round;stroke-miterlimit:22.9255867;stroke-opacity:1"/><path d="M85.32 121.24s-.07-.2.03-.32.2-.14.2-.14.12.2.54.28c.62.1 1.83.12 2.59-.1 0 0 .29.04.3.23 0 .18-.11.25-.11.25" style="fill:none;stroke:#140533;stroke-width:.0926893;stroke-linecap:round;stroke-linejoin:round;stroke-miterlimit:22.9255867;stroke-opacity:1"/><path d="M85.54 120.78s-.02-.13.06-.18c.08-.05.1-.04.1-.04l.25-29.44a34.04 34.04 0 0 0 2.36-.02l.22 29.56s.11.05.13.13c.02.08.02.17.02.17" style="fill:none;stroke:#140533;stroke-width:.0926893;stroke-linecap:round;stroke-linejoin:round;stroke-miterlimit:22.9255867;stroke-opacity:1"/><path d="M88.66 120.81s-.7.24-1.96.18c-1.26-.07-1.1-.38-1.1-.39M101.25 89.3s-5.33-.12-8.88 4.01c-3.55 4.13-3.14 8.05-3.14 8.05v19.86" style="fill:none;stroke:#140533;stroke-width:.0926893;stroke-linecap:round;stroke-linejoin:round;stroke-miterlimit:22.9255867;stroke-opacity:1"/><path d="m101.2 121.4-3.67-.04s-.5.17-.94.11c-.45-.06-.32-.1-.32-.1l-4.56-.05-2.47-.38M91.76 94.06l-.05 27.26M85.35 120.92l-.03-19.22s.21-3.87-1.54-7.7c-1.74-3.82-5.56-6.99-9.51-4.01a9.83 9.83 0 0 0-3.29 5.14c-.68 2.44-.63 4.63-.63 5.03l-.07 18.12-1.8.11-.98-.5.02.66-.36.29.02.68 1.09.73 4.28-.33v-.77l-.37-.31-3.75.25-.91-.54" style="fill:none;stroke:#140533;stroke-width:.0926893;stroke-linecap:round;stroke-linejoin:round;stroke-miterlimit:22.9255867;stroke-opacity:1"/><path d="m67.34 118.7 1 .62 4.06-.3" style="fill:none;stroke:#140533;stroke-width:.0926893;stroke-linecap:round;stroke-linejoin:round;stroke-miterlimit:22.9255867;stroke-opacity:1"/><path d="m67.16 118.84 1.16.7 4.23-.32M68.46 118.4v.69M68.3 119.54v.7M72.55 119.54l.24-.03.04-20.21s.23-3.7 1.21-5.66c1.04-2.08 2.47-3.98 4.78-4.65" style="fill:none;stroke:#140533;stroke-width:.0926893;stroke-linecap:round;stroke-linejoin:round;stroke-miterlimit:22.9255867;stroke-opacity:1"/><path d="M70.01 117.76c.23.08.19.38-.02.45-.2.07-1.6.08-1.82-.2-.09-.1-.15-.28-.05-.43.1-.14.15-.1.15-.1s-.06.17.5.24c.54.08 1.24.04 1.24.04zm0 0" style="fill:none;stroke:#140533;stroke-width:.09288184;stroke-linecap:round;stroke-linejoin:round;stroke-miterlimit:22.9255867;stroke-opacity:1"/><path d="m67.5 117.88.58-.05M68.27 117.47v-.13s0 .17.6.24c.6.06 1.12.03 1.12.03l.02.15" style="fill:none;stroke:#140533;stroke-width:.0926893;stroke-linecap:round;stroke-linejoin:round;stroke-miterlimit:22.9255867;stroke-opacity:1"/><path d="m70 117.6-.06-.1s-.91 0-1.2-.07c-.3-.07-.32-.13-.32-.13l-.18.08M69.94 117.5l-.02-27.22-.92-.01-.27-.02-.31 27.05M72.18 118.84v-.7l-1.9.14M72.8 116l.9.03.55-.23-.03-.54-.57.2h-.85" style="fill:none;stroke:#140533;stroke-width:.0926893;stroke-linecap:round;stroke-linejoin:round;stroke-miterlimit:22.9255867;stroke-opacity:1"/><path d="m74.22 115.26-.24-.2-.01-.7H72.8" style="fill:none;stroke:#140533;stroke-width:.0926893;stroke-linecap:round;stroke-linejoin:round;stroke-miterlimit:22.9255867;stroke-opacity:1"/><path d="m72.82 115.17.78.01.38-.11M72.8 115.31h.85l.45-.15M74.25 115.8h.67L75 97.9s-.09-4.4-.17-4.97c-.08-.58-.05-.62-.05-.62M74.92 115.8l.63-.33V98.1s-.02-3.32 1.4-5.97c1.43-2.65 2.35-2.94 2.35-2.94v29.75l6.05 1.25M69.96 90.15s-.76.03-1.04 0c-.29-.03-.33-.07-.27-.14.06-.06.12.03.74.02.62 0 .62-.04.64.03.01.08-.07.1-.07.1zM68.73 90.25s-.08-.01-.1-.06a.09.09 0 0 1 .02-.07" style="fill:none;stroke:#140533;stroke-width:.0926893;stroke-linecap:round;stroke-linejoin:round;stroke-miterlimit:22.9255867;stroke-opacity:1"/><path d="M69.92 90.28s.1 0 .1-.04-.04-.1-.04-.1M68.7 89.98c0-.02-.02-.1.05-.1.06 0 .4.04.7.04.32 0 .44-.03.49-.01.05 0 .03.1.03.1" style="fill:none;stroke:#140533;stroke-width:.0926893;stroke-linecap:round;stroke-linejoin:round;stroke-miterlimit:22.9255867;stroke-opacity:1"/><path d="M88.38 90.97s-1.5.05-2.06.03c-.56-.02-.63-.06-.52-.13.11-.06.23.03 1.45 0 1.23-.03 1.23-.07 1.26 0 .03.08-.13.1-.13.1zM85.97 91.11s-.17-.01-.2-.06c-.02-.04.02-.07.02-.07" style="fill:none;stroke:#140533;stroke-width:.092892;stroke-linecap:round;stroke-linejoin:round;stroke-miterlimit:22.9255867;stroke-opacity:1"/><path d="M88.29 91.1s.2 0 .2-.05c0-.03-.07-.09-.07-.09M85.88 90.83c0-.01-.02-.1.11-.1s.78.03 1.4.02c.62 0 .84-.04.94-.03.1.01.07.11.07.11" style="fill:none;stroke:#140533;stroke-width:.092892;stroke-linecap:round;stroke-linejoin:round;stroke-miterlimit:22.9255867;stroke-opacity:1"/><path d="m68.75 89.88.02-1.16M69.94 89.9l-.02-1.18" style="fill:none;stroke:#140533;stroke-width:.0926893;stroke-linecap:round;stroke-linejoin:round;stroke-miterlimit:22.9255867;stroke-opacity:1"/><path d="m69.88 88.56-1.04-.01c-.14 0-.18.04-.17.11 0 .07.1.07.1.07l.71.03.44-.01s.14-.03.11-.12c-.02-.09-.15-.07-.15-.07zm0 0" style="fill:none;stroke:#140533;stroke-width:.09251084;stroke-linecap:round;stroke-linejoin:round;stroke-miterlimit:22.9255867;stroke-opacity:1"/><path d="M68.77 88.51v-.19M69.9 88.55v-.22M68.44 88.06s0 .25.47.27h1.02c.01 0 .16 0 .24-.14.08-.14.06-.14.06-.14zm0 0" style="fill:none;stroke:#140533;stroke-width:.0926893;stroke-linecap:round;stroke-linejoin:round;stroke-miterlimit:22.9255867;stroke-opacity:1"/><path d="M88.25 89.22H86.1c-.27 0-.24.06-.22.13.02.06.18.07.18.07l1.35.02c.61.01.84-.01.84-.01s.2.01.18-.11c-.03-.13-.2-.1-.2-.1zm0 0" style="fill:none;stroke:#140533;stroke-width:.09272912;stroke-linecap:round;stroke-linejoin:round;stroke-miterlimit:22.9255867;stroke-opacity:1"/><path d="m86 89.2.01-.2M88.2 89.24v-.22M85.47 88.74s-.01.26.87.27c.87.02 1.9 0 1.91 0 .02 0 .3.01.46-.13.15-.15.11-.14.11-.14zm0 0" style="fill:none;stroke:#140533;stroke-width:.09241065;stroke-linecap:round;stroke-linejoin:round;stroke-miterlimit:22.9255867;stroke-opacity:1"/><path d="M86 90.74V89.4M88.29 90.72l-.03-1.3" style="fill:none;stroke:#140533;stroke-width:.0926893;stroke-linecap:round;stroke-linejoin:round;stroke-miterlimit:22.9255867;stroke-opacity:1"/><path d="M84.56 87.96v.76l3.7.02.87-.02-.01-.71-.9.01" style="fill:none;stroke:#140533;stroke-width:.09253708;stroke-linecap:round;stroke-linejoin:round;stroke-miterlimit:22.9255867;stroke-opacity:1"/><path d="m87.72 88.01-2.66-.03M88.26 88.74V88M70.4 87.48l-1.73-.06v.63h1.73zM67.7 87.38l.02.54.95.14M84.56 87.96l-14.16-.48" style="fill:none;stroke:#140533;stroke-width:.0926893;stroke-linecap:round;stroke-linejoin:round;stroke-miterlimit:22.9255867;stroke-opacity:1"/><path d="M67.6 86.7v.69l.9.02M67.6 86.7l18.52.54h15.07" style="fill:none;stroke:#140533;stroke-width:.0926893;stroke-linecap:round;stroke-linejoin:round;stroke-miterlimit:22.9255867;stroke-opacity:1"/><path d="M67.6 86.7c-.17-.03-.1-.15 0-.15l18.56.5 15.02-.02" style="fill:none;stroke:#140533;stroke-width:.0926893;stroke-linecap:round;stroke-linejoin:round;stroke-miterlimit:22.9255867;stroke-opacity:1"/><path d="m86.16 87.06.03-2.08-.11-.08.02-.14s-.11.08-.24-.18c-.14-.27-.13-.37-.13-.37l-.06-.15s.05-.12 0-.2c-.06-.06-.17-.1-.17-.1s-.06-.13-.19-.26c-.12-.13-.16-.2-.16-.2s-.1.03-.12-.13c-.03-.16-.02-.19-.08-.32-.06-.14-.08-.13-.08-.13v-.43h1.36l.01-1.43" style="fill:none;stroke:#140533;stroke-width:.0926893;stroke-linecap:round;stroke-linejoin:round;stroke-miterlimit:22.9255867;stroke-opacity:1"/><path d="m67.68 86.56.03-1.98-.23-.01-.01-.14s-.3-.01-.43-.25-.11-.27-.11-.27l-.21-.08s-.03-.16-.09-.22c-.05-.07-.16-.06-.15-.06l-.15-.36c0-.03-.56-.03-.56-.03s-.13-.15-.24-.24c-.06-.04-.15.02-.15-.05l-.02-.26c-.01-.02-.32-.01-.32-.01v-.41" style="fill:none;stroke:#140533;stroke-width:.09247888;stroke-linecap:round;stroke-linejoin:round;stroke-miterlimit:22.9255867;stroke-opacity:1"/><path d="m65.04 82.19 19.84.1M84.87 82.72l-19.51-.11M85.01 83.07l-19.59-.16M85.2 83.38l-18.92-.2M66.63 83.6l18.87.15M66.93 83.91l18.74.2M67.74 84.57l18.34.33M67.8 82.2l.02-1.25 18.42-.09M67.82 80.95l.26-.21-.03-4.01s-.32-.15-.28-.26c.04-.1.24-.12.24-.12l18.32-.47s-.07.13-.03.27c.04.14.04.2.04.2l-.03 4.38" style="fill:none;stroke:#140533;stroke-width:.0926893;stroke-linecap:round;stroke-linejoin:round;stroke-miterlimit:22.9255867;stroke-opacity:1"/><path d="m68.05 76.73 18.27-.48h14.87M86.33 75.88l14.84-.02M86.24 80.86h14.93M79.84 76.05l.2-16.85M80.05 58.89l-.01-.9M80.04 57.77v-.13s.63-.1 1.26-.05.7.08.7.08v.14M82 58v.97M82.13 75.93 82 59.23M80.04 59.2s-.15-.05-.12-.15c.03-.1.12-.13.12-.13s.65-.05 1.22-.03c.56.02.74.08.74.08s.15.03.11.15c-.03.12-.1.1-.1.1s-.54-.07-1.02-.05l-.95.03zm0 0" style="fill:none;stroke:#140533;stroke-width:.0926893;stroke-linecap:round;stroke-linejoin:round;stroke-miterlimit:22.9255867;stroke-opacity:1"/><path d="M80.04 57.98s-.1-.02-.1-.1c0-.1.11-.1.11-.1s.36-.05.79-.05c.3 0 .65.01.82.03.07.01.24.01.37.06.15.06.06.2-.06.2-.24-.03-.41-.07-1.03-.07-.6 0-.79.03-.9.03zM80.04 57.64s-.1 0-.2-.09-.1-.14-.1-.14.24-.11 1-.12c.77-.01 1.36.08 1.47.1.1.03.09.1.09.1s-.08.14-.17.17c-.1.03-.13.02-.13.02" style="fill:none;stroke:#140533;stroke-width:.0926893;stroke-linecap:round;stroke-linejoin:round;stroke-miterlimit:22.9255867;stroke-opacity:1"/><path d="m79.78 57.49-.64-.03.93-.3 2.89.11-.83.4" style="fill:none;stroke:#140533;stroke-width:.0926893;stroke-linecap:round;stroke-linejoin:round;stroke-miterlimit:22.9255867;stroke-opacity:1"/><path d="m79.12 57.46.01-.45.93-.35 2.91.17-.01.44" style="fill:none;stroke:#140533;stroke-width:.0926893;stroke-linecap:round;stroke-linejoin:round;stroke-miterlimit:22.9255867;stroke-opacity:1"/><path d="m93.54 75.87-.04-17.99M93.5 57.57v-.91M93.5 56.45v-.13s-.7-.1-1.4-.05-.78.08-.78.08l.02.14M91.33 56.67v.98M91.15 75.93l.18-18.02M93.5 57.88s.17-.05.14-.15c-.04-.1-.14-.13-.14-.13s-.72-.05-1.34-.03c-.63.02-.83.08-.83.08s-.16.03-.13.15c.04.11.13.1.13.1s.6-.07 1.12-.05l1.05.03zm0 0" style="fill:none;stroke:#140533;stroke-width:.09261263;stroke-linecap:round;stroke-linejoin:round;stroke-miterlimit:22.9255867;stroke-opacity:1"/><path d="M93.5 56.66s.11-.02.1-.1c0-.1-.1-.1-.1-.1s-.41-.05-.88-.05c-.33-.01-.72.01-.91.03-.08.01-.27.01-.41.06-.17.06-.07.2.07.2.26-.03.45-.07 1.13-.07.68 0 .88.03 1 .03zM93.5 56.32s.12 0 .23-.09c.1-.09.1-.14.1-.14s-.25-.11-1.1-.12a9.43 9.43 0 0 0-1.63.1c-.11.03-.1.09-.1.09s.09.15.19.18.13.02.13.02" style="fill:none;stroke:#140533;stroke-width:.09261263;stroke-linecap:round;stroke-linejoin:round;stroke-miterlimit:22.9255867;stroke-opacity:1"/><path d="m93.8 56.17.7-.03-1.3-.29-2.93.1.92.39" style="fill:none;stroke:#140533;stroke-width:.09261263;stroke-linecap:round;stroke-linejoin:round;stroke-miterlimit:22.9255867;stroke-opacity:1"/><path d="M94.52 56.14v-.46l-1.35-.35-2.92.17.02.45" style="fill:none;stroke:#140533;stroke-width:.09261263;stroke-linecap:round;stroke-linejoin:round;stroke-miterlimit:22.9255867;stroke-opacity:1"/><path d="M80.07 57.17v-.5M93.2 55.85l-.03-.52M82.58 75.98l-.04-18.51.42-.2v-.34l7.48-.9M94.51 55.78h6.66" style="fill:none;stroke:#140533;stroke-width:.0926893;stroke-linecap:round;stroke-linejoin:round;stroke-miterlimit:22.9255867;stroke-opacity:1"/><path d="m85.76 74.1-.02-11.8 3.95-.36" style="fill:none;stroke:#140533;stroke-width:.0926893;stroke-linecap:round;stroke-linejoin:round;stroke-miterlimit:22.9255867;stroke-opacity:1"/><path d="m89.59 62.2-3.57.32-.02 11.4.64-.01-.03-11.44M88.4 73.78V62.31" style="fill:none;stroke:#140533;stroke-width:.0926893;stroke-linecap:round;stroke-linejoin:round;stroke-miterlimit:22.9255867;stroke-opacity:1"/><path d="m85.35 74.8 4.8-.14V61.21" style="fill:none;stroke:#140533;stroke-width:.09264921;stroke-linecap:round;stroke-linejoin:round;stroke-miterlimit:22.9255867;stroke-opacity:1"/><path d="M85.15 60.2v.62l5.17-.5v-.62zm0 0" style="fill:none;stroke:#140533;stroke-width:.09284227;stroke-linecap:round;stroke-linejoin:round;stroke-miterlimit:22.9255867;stroke-opacity:1"/><path d="m85.15 60.2-.18-.1 5.39-.55h.3l-.1.13-.24.02M90.32 60.31l.2-.01v-.6" style="fill:none;stroke:#140533;stroke-width:.09284227;stroke-linecap:round;stroke-linejoin:round;stroke-miterlimit:22.9255867;stroke-opacity:1"/><path d="M84.9 60.08v-.15l5.45-.57.32-.02v.2" style="fill:none;stroke:#140533;stroke-width:.09284227;stroke-linecap:round;stroke-linejoin:round;stroke-miterlimit:22.9255867;stroke-opacity:1"/><path d="m84.9 59.93-.32.03v-.33l5.75-.63.34.02v.32" style="fill:none;stroke:#140533;stroke-width:.09284227;stroke-linecap:round;stroke-linejoin:round;stroke-miterlimit:22.9255867;stroke-opacity:1"/><path d="m90.33 59 .02.36-.03.2-.02.14" style="fill:none;stroke:#140533;stroke-width:.09284227;stroke-linecap:round;stroke-linejoin:round;stroke-miterlimit:22.9255867;stroke-opacity:1"/><path d="M82.04 60.6c.06 0 .5-.01.5.03" style="fill:none;stroke:#140533;stroke-width:.0926893;stroke-linecap:round;stroke-linejoin:round;stroke-miterlimit:22.9255867;stroke-opacity:1"/><path d="M82 59.23c.2 0 .35.02.55.03M82.1 59.02c.2 0 .25.02.45.03" style="fill:none;stroke:#140533;stroke-width:.0926479;stroke-linecap:round;stroke-linejoin:round;stroke-miterlimit:22.9255867;stroke-opacity:1"/><path d="M82 58.48c.24 0 .3 0 .53.02" style="fill:none;stroke:#140533;stroke-width:.09254054;stroke-linecap:round;stroke-linejoin:round;stroke-miterlimit:22.9255867;stroke-opacity:1"/><path d="M79.78 56.77v-.46L91.9 54.8M80.95 56.71l9.3-1.14M91.89 54.8l9.3-.02M93.43 55.4l7.75-.02M79.78 56.31s-.11-.04-.1-.1c.02-.05.15-.07.15-.07V54.6l12.07-1.65h9.28" style="fill:none;stroke:#140533;stroke-width:.0926893;stroke-linecap:round;stroke-linejoin:round;stroke-miterlimit:22.9255867;stroke-opacity:1"/><path d="m79.83 54.7-.16-.17v-.13l12.22-1.66 9.3.02" style="fill:none;stroke:#140533;stroke-width:.0926893;stroke-linecap:round;stroke-linejoin:round;stroke-miterlimit:22.9255867;stroke-opacity:1"/><path d="M79.83 54.94s-.53-.7-.57-.79c-.05-.1-.06-.2-.06-.2l12.36-1.73 9.63.03" style="fill:none;stroke:#140533;stroke-width:.0926893;stroke-linecap:round;stroke-linejoin:round;stroke-miterlimit:22.9255867;stroke-opacity:1"/><path d="m79.2 53.95-.2-.06s.05-.1 0-.18a.58.58 0 0 0-.2-.15l12.58-1.76h9.8" style="fill:none;stroke:#140533;stroke-width:.0926893;stroke-linecap:round;stroke-linejoin:round;stroke-miterlimit:22.9255867;stroke-opacity:1"/><path d="M78.82 53.59s0-.17-.13-.23" style="fill:none;stroke:#140533;stroke-width:.0926893;stroke-linecap:round;stroke-linejoin:round;stroke-miterlimit:22.9255867;stroke-opacity:1"/><path d="m79.83 55.37-1.6-2.06 13-1.78 9.97-.05" style="fill:none;stroke:#140533;stroke-width:.0926893;stroke-linecap:round;stroke-linejoin:round;stroke-miterlimit:22.9255867;stroke-opacity:1"/><path d="M78.23 53.3s-.14 0-.2-.12-.06-.16-.06-.16l13.1-1.82 10.13.01" style="fill:none;stroke:#140533;stroke-width:.0926893;stroke-linecap:round;stroke-linejoin:round;stroke-miterlimit:22.9255867;stroke-opacity:1"/><path d="m77.97 53.02-.03-.25L91 50.92l10.17-.03" style="fill:none;stroke:#140533;stroke-width:.0926893;stroke-linecap:round;stroke-linejoin:round;stroke-miterlimit:22.9255867;stroke-opacity:1"/><path d="M79.76 55.28h-.15l-1.92-2.5v-.34l13.23-1.9h10.26M77.94 52.77l-.25.03" style="fill:none;stroke:#140533;stroke-width:.0926893;stroke-linecap:round;stroke-linejoin:round;stroke-miterlimit:22.9255867;stroke-opacity:1"/><path d="M77.69 52.44s3.4 0 4.94-4.33c1.53-4.33 3.26-7.44 8.23-8.9 2.96-.86 5.54-1.3 7.28-1.53.85-.11 1.47-.06 2.6-.1" style="fill:none;stroke:#140533;stroke-width:.04634465;stroke-linecap:round;stroke-linejoin:round;stroke-miterlimit:22.9255867;stroke-opacity:1"/><path d="m81.96 49.55-.04-3.84 1.66-.02M81.92 45.7l-.13-.02s.01-.12-.06-.26c-.08-.15-.17-.2-.17-.2l2.24.02" style="fill:none;stroke:#140533;stroke-width:.0926893;stroke-linecap:round;stroke-linejoin:round;stroke-miterlimit:22.9255867;stroke-opacity:1"/><path d="M83.9 45.01h-2.66l.5.93h.19M84.12 44.6l-2.88-.01V45M81.24 44.59s.86-.09 1.11-.92c.25-.83.55-.97 1.22-1.07.66-.1.63-.03.77-.56.13-.53.08-.94.08-.94M84.55 41.11s0 1.12.12 1.29c.11.17.74.24.74.24M84.45 39.86s-.03.02-.04-.01c-.03-.09-.03-.3-.14-.44-.15-.18.1-4.6.1-4.6l.26 4.6-.11.11c-.04.04-.07.34-.07.34zm0 0" style="fill:none;stroke:#140533;stroke-width:.0926893;stroke-linecap:round;stroke-linejoin:round;stroke-miterlimit:22.9255867;stroke-opacity:1"/><path d="M84.47 39.87c.35 0 .64.28.64.63 0 .34-.29.62-.64.62a.63.63 0 0 1-.63-.62c0-.35.28-.63.63-.63zm0 0" style="fill:none;stroke:#140533;stroke-width:.09277651;stroke-linecap:round;stroke-linejoin:round;stroke-miterlimit:22.9255867;stroke-opacity:1"/><path d="M118.46 123.4v-.74l-4.29.38v.77zm0 0" style="fill:none;stroke:#140533;stroke-width:.0926893;stroke-linecap:round;stroke-linejoin:round;stroke-miterlimit:22.9255867;stroke-opacity:1"/><path d="m114.16 123.8-2.07-.92-.01-.7 2.1.86" style="fill:none;stroke:#140533;stroke-width:.0926893;stroke-linecap:round;stroke-linejoin:round;stroke-miterlimit:22.9255867;stroke-opacity:1"/><path d="m118.46 122.66-.4-.31-3.8.27-1.78-.68-.4.25" style="fill:none;stroke:#140533;stroke-width:.0926893;stroke-linecap:round;stroke-linejoin:round;stroke-miterlimit:22.9255867;stroke-opacity:1"/><path d="m118.25 122.52-4.05.3-1.92-.76" style="fill:none;stroke:#140533;stroke-width:.0926893;stroke-linecap:round;stroke-linejoin:round;stroke-miterlimit:22.9255867;stroke-opacity:1"/><path d="m118.06 122.35.01-.75-3.79.26-.02.76M114.28 121.86l-1.79-.59v.65M118.05 121.57l-.88-.33s-.1.37-1.42.4c-1.32.05-2-.12-2.11-.2-.12-.08-.27-.04-.27-.04l-.11-.18-.77.05" style="fill:none;stroke:#140533;stroke-width:.0926893;stroke-linecap:round;stroke-linejoin:round;stroke-miterlimit:22.9255867;stroke-opacity:1"/><path d="M117.17 121.24s.08-.2-.03-.32c-.1-.12-.18-.14-.18-.14s-.14.2-.56.28c-.62.1-1.82.12-2.58-.1 0 0-.3.04-.3.23 0 .18.11.25.11.25M116.96 120.78s.02-.13-.06-.18c-.08-.05-.1-.04-.1-.04l-.25-29.44s-.79.03-1.5.02a6.24 6.24 0 0 1-.86-.04l-.22 29.56s-.11.05-.13.13c-.02.08-.02.17-.02.17" style="fill:none;stroke:#140533;stroke-width:.0926893;stroke-linecap:round;stroke-linejoin:round;stroke-miterlimit:22.9255867;stroke-opacity:1"/><path d="M113.83 120.81s.71.24 1.97.18c1.26-.07 1.09-.38 1.1-.39M101.25 89.3s5.32-.12 8.88 4.01c3.55 4.13 3.14 8.05 3.14 8.05l-.01 19.86" style="fill:none;stroke:#140533;stroke-width:.0926893;stroke-linecap:round;stroke-linejoin:round;stroke-miterlimit:22.9255867;stroke-opacity:1"/><path d="m101.12 121.4 4.08-.03s.26.16.7.1c.46-.06.33-.1.33-.1l4.56-.05 2.47-.38M110.73 94.06l.06 27.26M117.14 120.92l.03-19.22s-.2-3.87 1.54-7.7c1.75-3.82 5.57-6.99 9.52-4.01a9.81 9.81 0 0 1 3.29 5.14c.68 2.44.63 4.63.63 5.03l.06 18.12 1.8.11.99-.5-.02.66.35.29-.01.68-1.09.73-4.28-.33v-.77l.37-.31 3.74.25.92-.54" style="fill:none;stroke:#140533;stroke-width:.0926893;stroke-linecap:round;stroke-linejoin:round;stroke-miterlimit:22.9255867;stroke-opacity:1"/><path d="m135.16 118.7-1 .62-4.06-.3" style="fill:none;stroke:#140533;stroke-width:.0926893;stroke-linecap:round;stroke-linejoin:round;stroke-miterlimit:22.9255867;stroke-opacity:1"/><path d="m135.33 118.84-1.15.7-4.23-.32M134.04 118.4v.69M134.2 119.54v.7M129.95 119.54l-.25-.03-.04-20.21s-.23-3.7-1.2-5.66c-1.04-2.08-2.47-3.98-4.79-4.65" style="fill:none;stroke:#140533;stroke-width:.0926893;stroke-linecap:round;stroke-linejoin:round;stroke-miterlimit:22.9255867;stroke-opacity:1"/><path d="M132.49 117.76c-.23.08-.19.38.01.45.21.07 1.6.08 1.83-.2.09-.1.15-.28.05-.43-.1-.14-.16-.1-.16-.1s.07.17-.48.24c-.56.08-1.25.04-1.25.04zm0 0" style="fill:none;stroke:#140533;stroke-width:.09288184;stroke-linecap:round;stroke-linejoin:round;stroke-miterlimit:22.9255867;stroke-opacity:1"/><path d="m135 117.88-.58-.05M134.22 117.47l.01-.13s0 .17-.6.24c-.6.06-1.13.03-1.13.03l-.01.15" style="fill:none;stroke:#140533;stroke-width:.0926893;stroke-linecap:round;stroke-linejoin:round;stroke-miterlimit:22.9255867;stroke-opacity:1"/><path d="m132.5 117.6.06-.1s.9 0 1.2-.07c.3-.07.32-.13.32-.13l.17.08M132.56 117.5l.02-27.22.92-.01.26-.02.32 27.05M130.32 118.84v-.7l1.9.14M129.7 116l-.9.03-.55-.23.03-.54.56.2h.86" style="fill:none;stroke:#140533;stroke-width:.0926893;stroke-linecap:round;stroke-linejoin:round;stroke-miterlimit:22.9255867;stroke-opacity:1"/><path d="m128.28 115.26.24-.2v-.7h1.17" style="fill:none;stroke:#140533;stroke-width:.0926893;stroke-linecap:round;stroke-linejoin:round;stroke-miterlimit:22.9255867;stroke-opacity:1"/><path d="m129.67 115.17-.78.01-.37-.11M129.7 115.31h-.85l-.45-.15M128.25 115.8h-.67l-.1-17.9s.1-4.4.17-4.97c.09-.58.06-.62.06-.62M127.58 115.8l-.63-.33V98.1s.01-3.32-1.41-5.97c-1.43-2.65-2.34-2.94-2.34-2.94v29.75l-6.06 1.25M132.54 90.15s.76.03 1.04 0c.29-.03.32-.07.27-.14-.06-.06-.12.03-.74.02-.62 0-.63-.04-.64.03-.02.08.07.1.07.1zM133.76 90.25s.08-.01.1-.06c.01-.04-.01-.07-.01-.07" style="fill:none;stroke:#140533;stroke-width:.0926893;stroke-linecap:round;stroke-linejoin:round;stroke-miterlimit:22.9255867;stroke-opacity:1"/><path d="M132.58 90.28s-.1 0-.1-.04.04-.1.04-.1M133.8 89.98c0-.02.01-.1-.05-.1-.07 0-.4.04-.71.04-.31 0-.43-.03-.48-.01-.05 0-.03.1-.03.1" style="fill:none;stroke:#140533;stroke-width:.0926893;stroke-linecap:round;stroke-linejoin:round;stroke-miterlimit:22.9255867;stroke-opacity:1"/><path d="M114.11 90.97s1.5.05 2.06.03c.57-.02.64-.06.53-.13-.12-.06-.24.03-1.46 0s-1.23-.07-1.26 0c-.03.08.13.1.13.1zM116.53 91.11s.16-.01.19-.06c.03-.04-.02-.07-.02-.07" style="fill:none;stroke:#140533;stroke-width:.092892;stroke-linecap:round;stroke-linejoin:round;stroke-miterlimit:22.9255867;stroke-opacity:1"/><path d="M114.2 91.1s-.2 0-.2-.05c0-.04.07-.1.07-.1M116.62 90.83c-.01-.01.01-.1-.12-.1-.12 0-.77.03-1.4.02-.61-.01-.84-.04-.94-.03-.1.01-.07.11-.07.11" style="fill:none;stroke:#140533;stroke-width:.092892;stroke-linecap:round;stroke-linejoin:round;stroke-miterlimit:22.9255867;stroke-opacity:1"/><path d="m133.75 89.88-.02-1.16M132.56 89.9l.02-1.18" style="fill:none;stroke:#140533;stroke-width:.0926893;stroke-linecap:round;stroke-linejoin:round;stroke-miterlimit:22.9255867;stroke-opacity:1"/><path d="m132.61 88.56 1.04-.01c.14 0 .19.04.18.11-.01.07-.1.07-.1.07l-.72.03-.43-.01s-.15-.03-.12-.12.15-.07.15-.07zm0 0" style="fill:none;stroke:#140533;stroke-width:.09251084;stroke-linecap:round;stroke-linejoin:round;stroke-miterlimit:22.9255867;stroke-opacity:1"/><path d="M133.73 88.51v-.19M132.6 88.55v-.22M134.05 88.06s0 .25-.46.27h-1.02c-.01 0-.16 0-.24-.14-.09-.14-.07-.14-.07-.14zm0 0" style="fill:none;stroke:#140533;stroke-width:.0926893;stroke-linecap:round;stroke-linejoin:round;stroke-miterlimit:22.9255867;stroke-opacity:1"/><path d="M114.25 89.22h2.14c.26 0 .24.06.22.13-.02.06-.19.07-.19.07l-1.34.02c-.62.01-.85-.01-.85-.01s-.2.01-.17-.11c.02-.13.19-.1.19-.1zm0 0" style="fill:none;stroke:#140533;stroke-width:.09272912;stroke-linecap:round;stroke-linejoin:round;stroke-miterlimit:22.9255867;stroke-opacity:1"/><path d="m116.5 89.2-.02-.2M114.3 89.24v-.22M117.03 88.74s0 .26-.87.27c-.88.02-1.9 0-1.92 0-.01 0-.3.01-.45-.13-.15-.15-.11-.14-.11-.14zm0 0" style="fill:none;stroke:#140533;stroke-width:.09241065;stroke-linecap:round;stroke-linejoin:round;stroke-miterlimit:22.9255867;stroke-opacity:1"/><path d="M116.5 90.74V89.4M114.2 90.72l.03-1.3" style="fill:none;stroke:#140533;stroke-width:.0926893;stroke-linecap:round;stroke-linejoin:round;stroke-miterlimit:22.9255867;stroke-opacity:1"/><path d="m117.93 87.96.01.76-3.7.02-.87-.02v-.71l.9.01" style="fill:none;stroke:#140533;stroke-width:.09253708;stroke-linecap:round;stroke-linejoin:round;stroke-miterlimit:22.9255867;stroke-opacity:1"/><path d="m114.78 88.01 2.65-.03M114.24 88.74V88M132.1 87.48l1.73-.06v.63h-1.73zM134.8 87.38l-.02.54-.95.14M117.93 87.96l14.17-.48" style="fill:none;stroke:#140533;stroke-width:.0926893;stroke-linecap:round;stroke-linejoin:round;stroke-miterlimit:22.9255867;stroke-opacity:1"/><path d="M134.9 86.7v.69l-.9.02M134.9 86.7l-18.53.54h-15.42" style="fill:none;stroke:#140533;stroke-width:.0926893;stroke-linecap:round;stroke-linejoin:round;stroke-miterlimit:22.9255867;stroke-opacity:1"/><path d="M134.9 86.7c.17-.03.1-.15 0-.15l-18.56.5-15.43-.02" style="fill:none;stroke:#140533;stroke-width:.0926893;stroke-linecap:round;stroke-linejoin:round;stroke-miterlimit:22.9255867;stroke-opacity:1"/><path d="m116.34 87.06-.03-2.08.1-.08-.02-.14s.12.08.25-.18c.13-.27.13-.37.13-.37l.06-.15s-.06-.12 0-.2c.06-.06.17-.1.17-.1s.06-.13.18-.26c.13-.13.17-.2.17-.2s.1.03.12-.13c.03-.16.02-.19.08-.32.05-.14.07-.13.07-.13v-.43h-1.35l-.01-1.43" style="fill:none;stroke:#140533;stroke-width:.0926893;stroke-linecap:round;stroke-linejoin:round;stroke-miterlimit:22.9255867;stroke-opacity:1"/><path d="m134.82 86.56-.03-1.98.23-.01v-.14s.3-.01.43-.25.12-.27.12-.27l.21-.08s.03-.16.08-.22c.06-.07.16-.06.15-.06 0 0 .15-.32.15-.36.01-.03.57-.03.57-.03s.12-.15.24-.24c.05-.04.14.02.15-.05l.02-.26c0-.02.31-.01.31-.01v-.41" style="fill:none;stroke:#140533;stroke-width:.09247888;stroke-linecap:round;stroke-linejoin:round;stroke-miterlimit:22.9255867;stroke-opacity:1"/><path d="m137.45 82.19-19.83.1M117.62 82.72l19.52-.11M117.48 83.07l19.6-.16M117.29 83.38l18.92-.2M135.86 83.6l-18.86.15M135.57 83.91l-18.75.2M134.76 84.57l-18.34.33M134.69 82.2l-.01-1.25-18.42-.09M134.68 80.95l-.26-.21.02-4.01s.33-.15.29-.26c-.04-.1-.25-.12-.25-.12l-18.32-.47s.08.13.04.27-.04.2-.04.2l.03 4.38" style="fill:none;stroke:#140533;stroke-width:.0926893;stroke-linecap:round;stroke-linejoin:round;stroke-miterlimit:22.9255867;stroke-opacity:1"/><path d="m134.44 76.73-18.26-.48h-15.02M116.16 75.88l-15.05-.02M116.26 80.86h-14.94M122.65 76.05l-.2-16.85M122.45 58.89v-.9M122.45 57.77l.01-.13s-.64-.1-1.27-.05-.7.08-.7.08l.01.14M120.5 58v.97M120.37 75.93l.13-16.7M122.46 59.2s.15-.05.12-.15a.2.2 0 0 0-.13-.13s-.64-.05-1.2-.03c-.58.02-.75.08-.75.08s-.15.03-.12.15c.04.12.12.1.12.1s.53-.07 1-.05l.96.03zm0 0" style="fill:none;stroke:#140533;stroke-width:.0926893;stroke-linecap:round;stroke-linejoin:round;stroke-miterlimit:22.9255867;stroke-opacity:1"/><path d="M122.46 57.98s.1-.02.1-.1c-.01-.1-.11-.1-.11-.1s-.37-.05-.8-.05c-.29 0-.64.01-.81.03-.07.01-.24.01-.37.06-.15.06-.06.2.06.2.24-.03.41-.07 1.02-.07.62 0 .8.03.9.03zM122.46 57.64s.1 0 .2-.09.1-.14.1-.14-.24-.11-1-.12a7.47 7.47 0 0 0-1.47.1c-.1.03-.1.1-.1.1s.09.14.18.17c.1.03.12.02.12.02" style="fill:none;stroke:#140533;stroke-width:.0926893;stroke-linecap:round;stroke-linejoin:round;stroke-miterlimit:22.9255867;stroke-opacity:1"/><path d="m122.72 57.49.64-.03-.93-.3-2.9.11.84.4" style="fill:none;stroke:#140533;stroke-width:.0926893;stroke-linecap:round;stroke-linejoin:round;stroke-miterlimit:22.9255867;stroke-opacity:1"/><path d="M123.37 57.46v-.45l-.93-.35-2.91.17v.44" style="fill:none;stroke:#140533;stroke-width:.0926893;stroke-linecap:round;stroke-linejoin:round;stroke-miterlimit:22.9255867;stroke-opacity:1"/><path d="m108.96 75.87.03-17.99M109 57.57v-.91M109 56.45l-.01-.13s.7-.1 1.4-.05.78.08.78.08v.14M111.16 56.67v.98M111.35 75.93l-.18-18.02M109 57.88s-.17-.05-.14-.15c.03-.1.14-.13.14-.13s.71-.05 1.34-.03c.63.02.82.08.82.08s.17.03.13.15c-.03.11-.12.1-.12.1s-.6-.07-1.12-.05l-1.06.03zm0 0" style="fill:none;stroke:#140533;stroke-width:.09261263;stroke-linecap:round;stroke-linejoin:round;stroke-miterlimit:22.9255867;stroke-opacity:1"/><path d="M109 56.66s-.11-.02-.11-.1c0-.1.12-.1.12-.1s.4-.05.87-.05c.33-.01.72.01.91.03.08.01.27.01.4.06.18.06.08.2-.06.2-.26-.03-.45-.07-1.13-.07-.68 0-.88.03-1 .03zM108.99 56.32s-.12 0-.22-.09-.1-.14-.1-.14.25-.11 1.1-.12c.85-.01 1.51.08 1.63.1.11.03.1.09.1.09s-.09.15-.2.18c-.1.03-.13.02-.13.02" style="fill:none;stroke:#140533;stroke-width:.09261263;stroke-linecap:round;stroke-linejoin:round;stroke-miterlimit:22.9255867;stroke-opacity:1"/><path d="m108.7 56.17-.7-.03 1.3-.29 2.93.1-.92.39" style="fill:none;stroke:#140533;stroke-width:.09261263;stroke-linecap:round;stroke-linejoin:round;stroke-miterlimit:22.9255867;stroke-opacity:1"/><path d="M107.98 56.14v-.46l1.34-.35 2.93.17-.02.45" style="fill:none;stroke:#140533;stroke-width:.09261263;stroke-linecap:round;stroke-linejoin:round;stroke-miterlimit:22.9255867;stroke-opacity:1"/><path d="M122.43 57.17v-.5M109.3 55.85l.02-.52M119.92 75.98l.04-18.51-.42-.2-.01-.34-7.47-.9M107.98 55.78h-6.92" style="fill:none;stroke:#140533;stroke-width:.0926893;stroke-linecap:round;stroke-linejoin:round;stroke-miterlimit:22.9255867;stroke-opacity:1"/><path d="m116.74 74.1.02-11.8-3.95-.36" style="fill:none;stroke:#140533;stroke-width:.0926893;stroke-linecap:round;stroke-linejoin:round;stroke-miterlimit:22.9255867;stroke-opacity:1"/><path d="m112.9 62.2 3.58.32.02 11.4-.64-.01.02-11.44M114.1 73.78V62.31" style="fill:none;stroke:#140533;stroke-width:.0926893;stroke-linecap:round;stroke-linejoin:round;stroke-miterlimit:22.9255867;stroke-opacity:1"/><path d="m117.15 74.8-4.8-.14V61.21" style="fill:none;stroke:#140533;stroke-width:.09264921;stroke-linecap:round;stroke-linejoin:round;stroke-miterlimit:22.9255867;stroke-opacity:1"/><path d="M117.34 60.2v.62l-5.17-.5v-.62zm0 0" style="fill:none;stroke:#140533;stroke-width:.09284227;stroke-linecap:round;stroke-linejoin:round;stroke-miterlimit:22.9255867;stroke-opacity:1"/><path d="m117.34 60.2.19-.1-5.4-.55h-.3l.1.13.24.02M112.17 60.31l-.19-.01v-.61" style="fill:none;stroke:#140533;stroke-width:.09284227;stroke-linecap:round;stroke-linejoin:round;stroke-miterlimit:22.9255867;stroke-opacity:1"/><path d="M117.6 60.08v-.15l-5.45-.57-.33-.02v.2" style="fill:none;stroke:#140533;stroke-width:.09284227;stroke-linecap:round;stroke-linejoin:round;stroke-miterlimit:22.9255867;stroke-opacity:1"/><path d="m117.6 59.93.32.03v-.33l-5.75-.63-.35.02v.32" style="fill:none;stroke:#140533;stroke-width:.09284227;stroke-linecap:round;stroke-linejoin:round;stroke-miterlimit:22.9255867;stroke-opacity:1"/><path d="m112.17 59-.02.36.03.2.02.14" style="fill:none;stroke:#140533;stroke-width:.09284227;stroke-linecap:round;stroke-linejoin:round;stroke-miterlimit:22.9255867;stroke-opacity:1"/><path d="M120.45 60.6c-.06 0-.5-.01-.5.03" style="fill:none;stroke:#140533;stroke-width:.0926893;stroke-linecap:round;stroke-linejoin:round;stroke-miterlimit:22.9255867;stroke-opacity:1"/><path d="M120.5 59.23c-.21 0-.36.01-.55.03M120.4 59.02c-.2 0-.26.01-.45.03" style="fill:none;stroke:#140533;stroke-width:.0926479;stroke-linecap:round;stroke-linejoin:round;stroke-miterlimit:22.9255867;stroke-opacity:1"/><path d="M120.5 58.47c-.24 0-.3.02-.53.03" style="fill:none;stroke:#140533;stroke-width:.09254054;stroke-linecap:round;stroke-linejoin:round;stroke-miterlimit:22.9255867;stroke-opacity:1"/><path d="M122.72 56.77v-.46L110.6 54.8M121.55 56.71l-9.3-1.14M110.6 54.8l-9.65-.02M109.07 55.4l-8-.02" style="fill:none;stroke:#140533;stroke-width:.0926893;stroke-linecap:round;stroke-linejoin:round;stroke-miterlimit:22.9255867;stroke-opacity:1"/><path d="M122.68 56.31s.11-.04.1-.1c-.02-.05-.15-.07-.15-.07V54.6l-12.28-1.65h-9.44" style="fill:none;stroke:#140533;stroke-width:.09255952;stroke-linecap:round;stroke-linejoin:round;stroke-miterlimit:22.9255867;stroke-opacity:1"/><path d="m122.63 54.7.17-.17v-.13l-12.44-1.66-9.46.02" style="fill:none;stroke:#140533;stroke-width:.09255952;stroke-linecap:round;stroke-linejoin:round;stroke-miterlimit:22.9255867;stroke-opacity:1"/><path d="M122.63 54.94s.54-.7.58-.79c.05-.1.06-.2.06-.2l-12.58-1.73-9.8.03" style="fill:none;stroke:#140533;stroke-width:.09255952;stroke-linecap:round;stroke-linejoin:round;stroke-miterlimit:22.9255867;stroke-opacity:1"/><path d="m123.27 53.95.21-.06s-.06-.1 0-.18c.06-.08.2-.15.2-.15l-12.8-1.76h-10.23" style="fill:none;stroke:#140533;stroke-width:.09255952;stroke-linecap:round;stroke-linejoin:round;stroke-miterlimit:22.9255867;stroke-opacity:1"/><path d="M123.68 53.59s0-.17.13-.23" style="fill:none;stroke:#140533;stroke-width:.0926893;stroke-linecap:round;stroke-linejoin:round;stroke-miterlimit:22.9255867;stroke-opacity:1"/><path d="m122.63 55.37 1.63-2.06-13.23-1.78-10.15-.05" style="fill:none;stroke:#140533;stroke-width:.09255952;stroke-linecap:round;stroke-linejoin:round;stroke-miterlimit:22.9255867;stroke-opacity:1"/><path d="M124.26 53.3s.14 0 .2-.12.06-.16.06-.16L111.2 51.2l-10.3.01" style="fill:none;stroke:#140533;stroke-width:.09255952;stroke-linecap:round;stroke-linejoin:round;stroke-miterlimit:22.9255867;stroke-opacity:1"/><path d="m124.52 53.02.04-.25-13.31-1.84-10.34-.03" style="fill:none;stroke:#140533;stroke-width:.09255952;stroke-linecap:round;stroke-linejoin:round;stroke-miterlimit:22.9255867;stroke-opacity:1"/><path d="M122.7 55.28h.15l1.96-2.5v-.34l-13.47-1.9h-10.43" style="fill:none;stroke:#140533;stroke-width:.09255952;stroke-linecap:round;stroke-linejoin:round;stroke-miterlimit:22.9255867;stroke-opacity:1"/><path d="m124.56 52.77.25.03" style="fill:none;stroke:#140533;stroke-width:.0926893;stroke-linecap:round;stroke-linejoin:round;stroke-miterlimit:22.9255867;stroke-opacity:1"/><path d="M124.81 52.44s-3.4 0-4.94-4.33c-1.54-4.33-3.26-7.44-8.24-8.9a48.68 48.68 0 0 0-7.27-1.53c-.86-.11-1.47-.06-2.6-.1" style="fill:none;stroke:#140533;stroke-width:.04634465;stroke-linecap:round;stroke-linejoin:round;stroke-miterlimit:22.9255867;stroke-opacity:1"/><path d="m120.54 49.55.03-3.84-1.66-.02M120.57 45.7l.14-.02s-.02-.12.06-.26c.08-.15.17-.2.17-.2l-2.24.02" style="fill:none;stroke:#140533;stroke-width:.0926893;stroke-linecap:round;stroke-linejoin:round;stroke-miterlimit:22.9255867;stroke-opacity:1"/><path d="M118.6 45.01h2.66l-.5.93h-.19M118.37 44.6l2.89-.01V45M121.26 44.59s-.86-.09-1.11-.92c-.25-.83-.55-.97-1.22-1.07-.66-.1-.63-.03-.77-.56-.13-.53-.09-.94-.09-.94M117.95 41.11s0 1.12-.12 1.29c-.12.17-.75.24-.75.24M118.04 39.86s.04.02.05-.01c.03-.09.03-.3.14-.44.14-.18-.1-4.6-.1-4.6l-.26 4.6.1.11c.05.04.07.34.07.34zm0 0" style="fill:none;stroke:#140533;stroke-width:.0926893;stroke-linecap:round;stroke-linejoin:round;stroke-miterlimit:22.9255867;stroke-opacity:1"/><path d="M118.02 39.87a.63.63 0 0 0-.63.63c0 .34.28.62.63.62s.63-.28.63-.62a.63.63 0 0 0-.63-.63zm0 0" style="fill:none;stroke:#140533;stroke-width:.09277651;stroke-linecap:round;stroke-linejoin:round;stroke-miterlimit:22.9255867;stroke-opacity:1"/><path d="M89.12 88h24.26M95.18 99.16h12.38v.41H95.18Zm0 0" style="fill:none;stroke:#140533;stroke-width:.0926893;stroke-linecap:round;stroke-linejoin:round;stroke-miterlimit:22.9255867;stroke-opacity:1"/><path d="M95.56 99.57h11.59v.31H95.56Zm0 0" style="fill:none;stroke:#140533;stroke-width:.09242838;stroke-linecap:round;stroke-linejoin:round;stroke-miterlimit:22.9255867;stroke-opacity:1"/><path d="M95.72 99.88h11.25v.16H95.72Zm0 0" style="fill:none;stroke:#140533;stroke-width:.09512262;stroke-linecap:round;stroke-linejoin:round;stroke-miterlimit:22.9255867;stroke-opacity:1"/><path d="M96.3 100.4h10.06v.14H96.3Zm0 0" style="fill:none;stroke:#140533;stroke-width:.09156361;stroke-linecap:round;stroke-linejoin:round;stroke-miterlimit:22.9255867;stroke-opacity:1"/><path d="M95.86 100.04s.24.04.28.2l.02.15h.24M106.82 100.04s-.24.04-.27.2l-.03.15h-.24M96.4 121.44l.01-19.58h9.86l.05 19.49" style="fill:none;stroke:#140533;stroke-width:.0926893;stroke-linecap:round;stroke-linejoin:round;stroke-miterlimit:22.9255867;stroke-opacity:1"/><path d="m97.53 121.36.02-18.36 7.65.01v18.41" style="fill:none;stroke:#140533;stroke-width:.0926893;stroke-linecap:round;stroke-linejoin:round;stroke-miterlimit:22.9255867;stroke-opacity:1"/><path d="M96.63 121.44V102.1h9.42l.04 19.26" style="fill:none;stroke:#140533;stroke-width:.06037237;stroke-linecap:round;stroke-linejoin:round;stroke-miterlimit:22.9255867;stroke-opacity:1"/><path d="m97.3 121.36.03-18.57 8.1.01v18.62" style="fill:none;stroke:#140533;stroke-width:.06038235;stroke-linecap:round;stroke-linejoin:round;stroke-miterlimit:22.9255867;stroke-opacity:1"/><path d="M101.16 103h.37v18.4h-.37zm0 0" style="fill:none;stroke:#140533;stroke-width:.09374438;stroke-linecap:round;stroke-linejoin:round;stroke-miterlimit:22.9255867;stroke-opacity:1"/><path d="M98.43 108.61h1.98v2.42h-1.98zm0 0" style="fill:none;stroke:#140533;stroke-width:.0926893;stroke-linecap:round;stroke-linejoin:round;stroke-miterlimit:22.9255867;stroke-opacity:1"/><path d="M97.94 108.02h2.96v3.67h-2.96zm0 0" style="fill:none;stroke:#140533;stroke-width:.06010725;stroke-linecap:round;stroke-linejoin:round;stroke-miterlimit:22.9255867;stroke-opacity:1"/><path d="M98.43 104h1.98v2.42h-1.98zm0 0" style="fill:none;stroke:#140533;stroke-width:.0926893;stroke-linecap:round;stroke-linejoin:round;stroke-miterlimit:22.9255867;stroke-opacity:1"/><path d="M97.94 103.4h2.96v3.67h-2.96zm0 0" style="fill:none;stroke:#140533;stroke-width:.06010725;stroke-linecap:round;stroke-linejoin:round;stroke-miterlimit:22.9255867;stroke-opacity:1"/><path d="M98.43 117.77h1.98v2.41h-1.98zm0 0" style="fill:none;stroke:#140533;stroke-width:.0926893;stroke-linecap:round;stroke-linejoin:round;stroke-miterlimit:22.9255867;stroke-opacity:1"/><path d="M97.94 117.17h2.96v3.67h-2.96zm0 0" style="fill:none;stroke:#140533;stroke-width:.06010725;stroke-linecap:round;stroke-linejoin:round;stroke-miterlimit:22.9255867;stroke-opacity:1"/><path d="M98.43 113.15h1.98v2.42h-1.98zm0 0" style="fill:none;stroke:#140533;stroke-width:.0926893;stroke-linecap:round;stroke-linejoin:round;stroke-miterlimit:22.9255867;stroke-opacity:1"/><path d="M97.94 112.55h2.96v3.68h-2.96zm0 0" style="fill:none;stroke:#140533;stroke-width:.06010725;stroke-linecap:round;stroke-linejoin:round;stroke-miterlimit:22.9255867;stroke-opacity:1"/><path d="M102.28 108.61h1.97v2.42h-1.97zm0 0" style="fill:none;stroke:#140533;stroke-width:.0926893;stroke-linecap:round;stroke-linejoin:round;stroke-miterlimit:22.9255867;stroke-opacity:1"/><path d="M101.79 108.02h2.95v3.67h-2.95zm0 0" style="fill:none;stroke:#140533;stroke-width:.06010725;stroke-linecap:round;stroke-linejoin:round;stroke-miterlimit:22.9255867;stroke-opacity:1"/><path d="M102.28 104h1.97v2.42h-1.97zm0 0" style="fill:none;stroke:#140533;stroke-width:.0926893;stroke-linecap:round;stroke-linejoin:round;stroke-miterlimit:22.9255867;stroke-opacity:1"/><path d="M101.79 103.4h2.95v3.67h-2.95zm0 0" style="fill:none;stroke:#140533;stroke-width:.06010725;stroke-linecap:round;stroke-linejoin:round;stroke-miterlimit:22.9255867;stroke-opacity:1"/><path d="M102.28 117.77h1.97v2.41h-1.97zm0 0" style="fill:none;stroke:#140533;stroke-width:.0926893;stroke-linecap:round;stroke-linejoin:round;stroke-miterlimit:22.9255867;stroke-opacity:1"/><path d="M101.79 117.17h2.95v3.67h-2.95zm0 0" style="fill:none;stroke:#140533;stroke-width:.06010725;stroke-linecap:round;stroke-linejoin:round;stroke-miterlimit:22.9255867;stroke-opacity:1"/><path d="M102.28 113.15h1.97v2.42h-1.97zm0 0" style="fill:none;stroke:#140533;stroke-width:.0926893;stroke-linecap:round;stroke-linejoin:round;stroke-miterlimit:22.9255867;stroke-opacity:1"/><path d="M101.79 112.55h2.95v3.68h-2.95zm0 0" style="fill:none;stroke:#140533;stroke-width:.06010725;stroke-linecap:round;stroke-linejoin:round;stroke-miterlimit:22.9255867;stroke-opacity:1"/><path d="M96.87 58.69h8.88v.43h-8.88zm0 0" style="fill:none;stroke:#140533;stroke-width:.0926893;stroke-linecap:round;stroke-linejoin:round;stroke-miterlimit:22.9255867;stroke-opacity:1"/><path d="M97.22 59.54h8.17v.52h-8.17zm0 0" style="fill:none;stroke:#140533;stroke-width:.09240414;stroke-linecap:round;stroke-linejoin:round;stroke-miterlimit:22.9255867;stroke-opacity:1"/><path d="m97.11 59.37 8.42.02M96.87 59.12l.24.25.1.17M105.76 59.12l-.25.25-.1.17M97.68 60.97l-.03 13.61 7.3.03-.04-13.63" style="fill:none;stroke:#140533;stroke-width:.0926893;stroke-linecap:round;stroke-linejoin:round;stroke-miterlimit:22.9255867;stroke-opacity:1"/><path d="m104.05 73.66-5.54.02v-11.8l5.56-.02zm0 0" style="fill:none;stroke:#140533;stroke-width:.09248275;stroke-linecap:round;stroke-linejoin:round;stroke-miterlimit:22.9255867;stroke-opacity:1"/><path d="m98.34 73.88-.01-12.26 5.95.01v12.2M98.76 42.75h5.12v5.84h-5.12zm0 0" style="fill:none;stroke:#140533;stroke-width:.0926893;stroke-linecap:round;stroke-linejoin:round;stroke-miterlimit:22.9255867;stroke-opacity:1"/><path d="m102.78 43.98-.02 3.43-2.95.01-.01-3.46" style="fill:none;stroke:#140533;stroke-width:.0926893;stroke-linecap:round;stroke-linejoin:round;stroke-miterlimit:22.9255867;stroke-opacity:1"/><path d="m100 47.28-.04-3.22 2.66-.02-.01 3.21" style="fill:none;stroke:#140533;stroke-width:.0926893;stroke-linecap:round;stroke-linejoin:round;stroke-miterlimit:22.9255867;stroke-opacity:1"/><path d="M100.27 46.96V44.4h2v2.56" style="fill:none;stroke:#140533;stroke-width:.09268659;stroke-linecap:round;stroke-linejoin:round;stroke-miterlimit:22.9255867;stroke-opacity:1"/><path d="M98.03 41.54h6.55V42h-6.55zM98.76 42.75l-.13-.03s.02-.13-.04-.26a.62.62 0 0 0-.2-.21v.47s.14 0 .18.15c.05.14.06.23.06.23v-.38M103.85 42.75l.13-.03s-.02-.13.04-.26c.07-.13.2-.21.2-.21v.47s-.13 0-.18.15a2.3 2.3 0 0 0-.06.23v-.38" style="fill:none;stroke:#140533;stroke-width:.0926893;stroke-linecap:round;stroke-linejoin:round;stroke-miterlimit:22.9255867;stroke-opacity:1"/><path d="M98.38 42h5.84v.27h-5.84zm0 0" style="fill:none;stroke:#140533;stroke-width:.09217738;stroke-linecap:round;stroke-linejoin:round;stroke-miterlimit:22.9255867;stroke-opacity:1"/><path d="m98.03 42 .07.64h.29M104.58 42l-.07.64h-.3M101.23 36.63s-.03.03-.05-.01c-.01-.04 0-.38-.09-.67-.09-.28-.27-.5-.33-.57-.14-.18.53-4.14.53-4.14l.56 4.06s-.35.4-.45.6c-.1.2-.17.73-.17.73zm0 0" style="fill:none;stroke:#140533;stroke-width:.0926893;stroke-linecap:round;stroke-linejoin:round;stroke-miterlimit:22.9255867;stroke-opacity:1"/><path d="M101.25 36.65c.35 0 .63.28.63.62 0 .34-.28.62-.63.62a.63.63 0 0 1-.63-.62c0-.34.28-.62.63-.62zm0 0" style="fill:none;stroke:#140533;stroke-width:.09277651;stroke-linecap:round;stroke-linejoin:round;stroke-miterlimit:22.9255867;stroke-opacity:1"/><path d="M99.7 37.6s.41-.2.78-.97c.37-.76.39-1.11.39-1.11M102.58 37.6s-.6-.63-.75-.97c-.15-.34-.3-.92-.3-.92" style="fill:none;stroke:#140533;stroke-width:.0926893;stroke-linecap:round;stroke-linejoin:round;stroke-miterlimit:22.9255867;stroke-opacity:1"/><path d="M101.58 33.2c2-.6 1.78-2.32 1.44-3.13-.56-1.34-3.48-1.83-3.9.67-.35 2.1 1.85 2.47 1.85 2.47" style="fill:none;stroke:#140533;stroke-width:.09271406;stroke-linecap:round;stroke-linejoin:round;stroke-miterlimit:22.9255867;stroke-opacity:1"/><path d="M101.34 28.98s-.14-.75.08-1.15c.22-.4.56-.7.56-1.56 0-.87-.82-8.14-.82-8.14l-.8 8.08s-.11.68.3 1.3c.42.63.36.97.37 1.21 0 .24-.03.25-.03.25M86.23 82.3h30.04M84.89 82.73h32.73M85.01 83.07h32.47M85.2 83.38h32.09M85.5 83.75H117M85.67 84.11h31.15M86.13 84.94h30.23" style="fill:none;stroke:#140533;stroke-width:.0926893;stroke-linecap:round;stroke-linejoin:round;stroke-miterlimit:22.9255867;stroke-opacity:1"/><path d="m110.7 53.02 11.83 12.35m10.6 11.07 1.3 1.36M110.91 52.52l11.61 12.11m11.33 11.82.6.62M111.1 51.96l11.41 11.91m12.07 12.6.07.07M111.33 51.52l11.17 11.65M111.51 50.95l10.98 11.47M111.85 50.57l10.64 11.1M112.68 50.7l9.8 10.21M113.56 50.82l8.9 9.3M114.4 50.94l8.06 8.41M115.22 51.06l7.25 7.57M116.05 51.18l6.4 6.68M116.87 51.3l5.9 6.16M117.7 51.42l5.02 5.23m.17.18.48.5M118.47 51.53l4.19 4.37M119.3 51.65l3.51 3.66M120.12 51.77l3.03 3.16M120.95 51.89l2.53 2.63M121.83 52.01l1.98 2.07M122.66 52.13l1.47 1.54M120.23 48.86l.26.28m2.99 3.1.97 1.02M119.68 47.54l.83.87m3.8 3.96.46.48M119.12 46.22l1.41 1.47M118.46 44.78l2.09 2.17M118.98 44.6l1.58 1.64M119.7 44.59l1.15 1.2M120.36 44.59l.72.75M121.08 44.59l.18.18M89.96 76.06l4.46 4.65m1.52 1.58 2.8 2.93m2.68 2.8.6.62m14.64 15.27.5.53M90.66 76.06l4.44 4.63m1.54 1.6 2.74 2.86m2.75 2.87.6.62m13.92 14.54.52.53M91.38 76.06l4.33 4.51m1.65 1.72 2.68 2.8m2.8 2.93.6.63m13.2 13.77.53.54M92.04 76.06l3.4 3.54m2.58 2.7.4.41m.02.02 2.2 2.3m2.87 2.99.6.63m12.53 13.07.53.55m15.04 15.7.27.28M92.76 76.06l2.7 2.81m3.28 3.42.37.4m.05.04 2.16 2.25m2.9 3.04.62.64m11.8 12.3.53.56m15.04 15.7.43.44M93.28 75.87h0m.19.19 2.21 2.31m3.76 3.93.35.36m.07.07 2.12 2.2m2.95 3.09.63.66m11.07 11.55.54.57m15.04 15.68 1.13 1.18M93.28 75.12l.3.3m.6.64 1.88 1.96m4.1 4.27.32.34m.1.1 1.85 1.93m3.22 3.36.64.67m10.33 10.78.59.61m15 15.65 1.67 1.74M93.28 74.32l.38.4m1.28 1.34 1.6 1.67m4.38 4.57.3.3m.12.13 1.47 1.53m3.6 3.76.67.7m9.53 9.95.67.69m14.92 15.57 1.87 1.96M93.27 73.56l.46.48m1.93 2.02 1.4 1.46m4.58 4.78.27.28m.14.15 1.3 1.36m3.77 3.93.72.74m8.77 9.15.75.79m14.84 15.48 1.87 1.95M93.27 72.82l.53.56m2.57 2.68 1.23 1.28m4.75 4.96.24.25m.17.18 1.1 1.13m3.97 4.16.78.8m8 8.35.85.9m14.74 15.37 1.86 1.94M93.27 72.07l.6.64m3.22 3.35 1.08 1.13m4.9 5.1.22.23m.2.2.78.84m4.28 4.46.82.85m7.23 7.54.98 1.03m14.61 15.24 1.86 1.94M93.26 71.33l.7.72m3.83 4.01.96 1m5.02 5.24.2.2m.21.23.52.53m4.55 4.76.84.87m6.5 6.78 1.12 1.17m14.48 15.11 1.86 1.93M93.26 70.58l.77.8m4.48 4.68.84.87m5.14 5.37.17.17m.24.26.31.32m4.76 4.97.84.87m5.77 6.02 1.29 1.34m14.32 14.95 1.85 1.93M93.25 69.88l.86.9m5.07 5.28.76.8m5.21 5.44.15.15m.26.28.25.25m4.82 5.04.83.86m5.12 5.34 1.44 1.5m14.17 14.78 1.84 1.93M93.25 69.13l.94.98m5.7 5.95.72.75m5.26 5.49.12.12m.3.3.16.18m4.9 5.12.82.85m4.4 4.6 1.64 1.7m13.97 14.58 1.84 1.92M93.24 68.4l1.03 1.06m6.33 6.6.67.7m5.3 5.54.1.1m.31.33.1.1m4.98 5.19.8.83m3.7 3.87 1.84 1.92m13.78 14.38 1.84 1.91M93.24 67.64l1.12 1.16m6.96 7.26.62.66m5.35 5.58.07.07m.34.36.03.03m5.04 5.26.77.8m3.02 3.15 2.06 2.15m13.56 14.14 1.83 1.91M93.23 66.85l1.22 1.26m7.62 7.95.58.6m5.4 5.64.04.04m5.44 5.68.7.74m2.32 2.41 2.32 2.42m13.3 13.89 1.83 1.9M93.23 66.09l1.31 1.37m8.25 8.6.53.56m5.44 5.68.02.02m5.47 5.7.03.03m2.24 2.34 2.6 2.72m13.05 13.61 1.82 1.9M93.23 65.35l1.4 1.47m8.86 9.24.5.52m12.51 13.06 2.89 3M132.17 106l1.82 1.9M93.22 64.6l1.5 1.57m9.5 9.9.44.47m11.91 12.42 3.1 3.24m12.5 13.03 1.81 1.9M93.21 63.85l1.61 1.68m10.1 10.54.41.43m11.02 11.49.34.36m.4.41 2.9 3.02m12.17 12.71 1.81 1.89M93.2 63.1l1.72 1.78m10.72 11.19.37.38m10.33 10.78.9.93m.53.56 2.54 2.65m11.85 12.37 1.8 1.88M93.2 62.35l1.82 1.9m11.32 11.82.34.34m9.67 10.1 1.4 1.47m.2.2 2.69 2.8M132.16 103l1.8 1.88M93.2 61.6l1.92 2m11.94 12.47.3.3m9 9.4L121 90.6m11.16 11.64 1.8 1.87M93.18 60.9l2.03 2.1m12.51 13.07.26.27m8.38 8.74 4.98 5.2m10.81 11.28 1.8 1.87M93.17 60.13l2.14 2.24m13.13 13.7.22.23m7.99 8.33 5.1 5.31m10.4 10.86 1.79 1.87M93.14 59.37l2.27 2.37m13.74 14.33.18.19m7.54 7.87 5.29 5.51m10 10.44 1.77 1.85M90.57 55.94l.16.16m2.42 2.53 2.36 2.46m14.36 14.98v.01m7.25 7.56 5.5 5.73m9.55 9.97 1.75 1.83M91.32 55.91l.43.45m1.45 1.51 2.41 2.52m20.64 21.53.36.38m.8.83 5.73 5.98m9 9.39 1.77 1.85M92.01 55.88l.5.52m.7.72 2.48 2.6m20.52 21.4 1.12 1.17m.3.31 6.05 6.32m8.4 8.76 1.83 1.92M92.69 55.85l3.15 3.29m15.5 16.18.54.56m4.3 4.5 8.08 8.42m7.7 8.04 1.94 2.02M93.45 55.9l2.63 2.75m15.25 15.9 1.27 1.33m3.58 3.74 8.76 9.14m6.86 7.15 2.1 2.19M91.79 53.43l.34.35m1.58 1.65 2.7 2.82m14.92 15.56 1.98 2.07m2.87 3 9.55 9.96m5.8 6.06 2.36 2.45M91.67 52.55l.92.96m1.84 1.92 2.4 2.5m14.49 15.12 2.7 2.83m2.16 2.25 10.57 11.02m4.35 4.54 2.78 2.9M91.24 51.37l1.88 1.97m2.01 2.1 2.14 2.22m14.04 14.65 3.42 3.57m1.45 1.51 12.27 12.8m1.66 1.74 3.76 3.92M91.52 50.92l2.26 2.35m2.07 2.16 1.93 2.01m13.53 14.12 4.14 4.32m.73.76 17.68 18.46M92.2 50.93l2.2 2.3m2.1 2.2 1.78 1.85m13.02 13.58 4.81 5.02m.18.2 17.57 18.32M92.92 50.93l2.17 2.27m2.14 2.23 1.63 1.7m12.43 12.97 5.54 5.78m.2.2 16.82 17.56M93.62 50.93l2.14 2.24m2.17 2.25 1.52 1.6m11.84 12.34 6.25 6.53m.2.21 16.1 16.8M94.34 50.93l2.12 2.22m2.18 2.27 1.43 1.49m11.21 11.7 6.98 7.28m.22.23 15.36 16.02M95.14 50.93l2.1 2.2m2.2 2.29 1.34 1.4m10.5 10.95 7.77 8.12m.24.25 14.54 15.17M95.85 50.93l2.09 2.18m2.21 2.3 1.28 1.34m9.84 10.27 8.5 8.87m.26.26 13.8 14.4M96.56 50.94l2.06 2.15m2.23 2.33 1.22 1.27m9.2 9.59 9.24 9.64m.23.25 13 13.57M97.28 50.94l2.04 2.13m2.25 2.34 1.16 1.22m8.53 8.9 10 10.44m.22.21 12.26 12.8M97.99 50.94 99 52m3.27 3.4 1.1 1.16m7.87 8.2 10.77 11.24m.18.2 11.6 12.09M98.7 50.94l.87.9m3.42 3.57 1.05 1.1m7.2 7.51 11.41 11.9m.28.3L134.23 88M99.41 50.94l.76.79m3.52 3.68.99 1.02m6.56 6.85 11.4 11.9m1.01 1.05 11.18 11.67M100.13 50.94l.67.7m3.61 3.77.92.96m5.9 6.16 11.4 11.9m1.76 1.82 10.45 10.9M100.8 50.94l.6.63m3.67 3.84.87.9m5.3 5.53 11.39 11.88m2.43 2.54 9.76 10.18M101.51 50.94l.54.56m3.74 3.9.82.86m4.62 4.82 11.39 11.88m3.18 3.32 9 9.4M102.22 50.94l.48.5m3.79 3.96.77.81m3.97 4.14 11.38 11.87m3.9 4.07 8.28 8.64M102.94 50.95l.42.43m3.85 4.02.73.76m3.29 3.44 11.37 11.86m4.65 4.85 7.78 8.12M103.72 50.95l.35.37m3.91 4.08.57.6m2.68 2.8 11.36 11.84m5.45 5.69 7.45 7.77M104.44 50.96l.3.3m3.96 4.14.27.28m2.27 2.37 11.34 11.84m6.2 6.45 7.04 7.35M105.15 50.96l.22.23m5.8 6.06 11.4 11.9m6.92 7.21 5.2 5.42m.4.42 1.06 1.11M105.88 50.98l.11.11m5.26 5.5 11.32 11.8m7.65 7.98 4.46 4.65m1.12 1.18.92.95M110.59 55.15l.26.27m.77.8 10.94 11.42m8.39 8.75 3.47 3.63m2.09 2.17.56.59M110.63 54.44l.98 1.03m.51.53 10.43 10.88m9.13 9.53 2.75 2.86m2.8 2.92.23.24M110.66 53.74l11.88 12.4m9.86 10.28 2.03 2.12M87.4 118.05l1.82 1.9M87.4 117.33l1.82 1.89M87.41 116.58l1.8 1.88M87.41 115.9l1.8 1.86M87.42 115.15 89.2 117M87.42 114.42l1.77 1.85M87.42 113.67l1.77 1.84M87.43 112.88l1.75 1.83M87.43 112.13l1.75 1.83M87.43 111.4l1.74 1.81M87.44 110.65l1.73 1.8M87.44 109.92l1.72 1.8M87.44 109.18l1.72 1.78M70.01 90.3l.03.03m17.4 18.16 1.71 1.78M69.93 89.46l.34.35m17.18 17.94 1.7 1.77M68.68 87.42h0m1.3 1.37.51.53m16.97 17.7 1.69 1.76M69.42 87.45l.36.37m.38.4.6.62m16.7 17.43 1.68 1.76M70.2 87.47l1.02 1.07m16.25 16.95 1.67 1.75M70.94 87.5l.91.95m15.62 16.3 1.67 1.74M71.67 87.52l.83.88m14.97 15.62 1.67 1.74M72.4 87.55l.79.81m14.29 14.91 1.66 1.74M73.14 87.57l.74.77m13.6 14.2 1.67 1.73M73.88 87.6l.7.73m12.9 13.46 1.67 1.74M74.61 87.62l.67.7m12.21 12.74 1.67 1.74M75.35 87.65l.66.68m11.49 11.99 1.67 1.74M76.04 87.67l.63.66m10.83 11.3 1.69 1.76M76.78 87.7l.62.65m10.1 10.54 1.74 1.8M77.5 87.72l.62.64m9.4 9.8 1.79 1.88M78.25 87.75l.6.63m8.67 9.04 1.87 1.95M79.05 87.77l.61.64m7.87 8.2 1.98 2.08M79.8 87.8l.6.64m7.13 7.44 2.12 2.2M80.52 87.82l.62.65m6.4 6.68 2.28 2.38M81.26 87.85l.64.66m5.65 5.9 2.49 2.6M82 87.87l.65.69m4.9 5.12 2.73 2.83M82.74 87.9l.68.71m4.15 4.33 2.93 3.05M83.46 87.92l.73.76m3.4 3.54 2.95 3.09M84.2 87.95l.36.37m3.06 3.19 2.72 2.84M85.61 88.72l.2.2m1.74 1.83L90 93.3M86.34 88.73l.27.29m.9.93 2.25 2.35m27.04 28.21.34.36M87.04 88.73l.35.36m.01.02 2.37 2.48m27.02 28.19.35.36M87.77 88.74l2.2 2.3m26.82 27.98.36.37M86.17 86.25l.8.83m1.27 1.33 2.03 2.11m26.51 27.66.37.39M86.18 85.5l1.52 1.6m.89.92 2.02 2.1m26.16 27.3.38.4M85.77 84.34l2.65 2.77m.87.9 1.72 1.8m25.76 26.88.38.4M84.87 82.66l4.28 4.46m.86.9 1.47 1.53m25.28 26.38.39.4M85.23 82.3l4.65 4.84m.84.88L92 89.35m24.75 25.83.4.42M85.95 82.3l4.66 4.86m.83.86 1.12 1.17m24.19 25.24.4.42M86.65 82.3l4.68 4.88m.8.84 1.02 1.05m23.6 24.62.4.43M87.37 82.3l4.7 4.9m.79.82.9.94m22.98 23.97.41.44M86.31 80.5l.22.23m1.5 1.56 4.71 4.92m.78.8.83.87m22.38 23.36.42.44M86.32 79.75l.92.97m1.51 1.57 4.73 4.94m.76.79.77.8m21.71 22.66.43.45M86.32 79.02l1.62 1.7m1.51 1.57 4.75 4.95m.74.78.74.77m21.04 21.95.44.46M86.33 78.28l2.33 2.43m1.51 1.58 4.4 4.59m1.09 1.14.7.73m20.35 21.23.45.47M86.33 77.48l3.1 3.23m1.52 1.58 4 4.19m1.48 1.54.68.7m19.6 20.45.45.47M86.34 76.73l3.8 3.98m1.53 1.58 3.66 3.82m1.82 1.9.66.7m18.89 19.7.46.48M86.39 76.06l4.45 4.64m1.53 1.6 3.34 3.48m2.15 2.24.63.66m18.2 19 .47.48M87.11 76.06l4.45 4.64m1.53 1.6 3.17 3.3m2.31 2.42.63.65m17.48 18.24.48.5M87.82 76.06l4.45 4.64m1.53 1.6 3.05 3.18m2.43 2.54.62.64m16.78 17.5.48.51M88.54 76.06l4.44 4.63m1.54 1.6 2.95 3.09m2.53 2.64.61.63m16.06 16.76.5.51M89.24 76.06l4.45 4.64m1.53 1.6 2.88 3m2.6 2.72.6.63m15.37 16.02.5.52M88.29 123.43l.24.25M88.24 122.65l.78.82M87.4 121.01l.09.1m.72.76 1.32 1.38M87.4 120.28l.73.77m.55.57 1.36 1.42M87.4 119.53l3.01 3.15M87.4 118.8l1.83 1.91m.52.54.25.27M115.87 71.28l.62-.23M115.87 70.89l.62-.23M115.87 70.49l.62-.23M115.87 70.12l.62-.23m3.44-1.26v0M115.87 69.72l.62-.23m3.43-1.25h.02M115.87 69.33l.62-.23m3.42-1.25h.03M115.87 68.93l.62-.22m3.41-1.25.04-.01M115.87 68.51l.62-.22m3.4-1.25.05-.02M115.87 68.11l.62-.22m3.4-1.25.05-.02M115.87 67.72l.62-.23m3.38-1.23.07-.03M115.87 67.32l.62-.22m3.37-1.24.08-.03M115.88 66.93l.6-.22m3.37-1.23.09-.04M115.88 66.53l.6-.22m3.36-1.23.1-.04M115.88 66.16l.6-.22m3.34-1.22.12-.04M115.88 65.76l.6-.22m3.33-1.22.13-.04M115.88 65.37l.6-.22m3.32-1.21.14-.05M115.88 64.97l.6-.22m3.3-1.2.16-.06M115.88 64.56l.6-.22m3.29-1.2.17-.07M115.88 64.16l.6-.22m3.27-1.2.2-.07M115.88 63.77l.6-.22m3.26-1.2.2-.07M115.88 63.37l.6-.22m3.24-1.19.23-.08M115.69 63.04l.79-.28m3.22-1.18.25-.1M115.2 62.82l.92-.33m3.56-1.3.27-.1M114.55 62.67l.7-.26m4.41-1.6.29-.11M113.74 62.57l.64-.23m5.26-1.93.31-.11M113.02 62.47l.55-.2m6.04-2.22.34-.12M119.58 59.67l.37-.14M119.54 59.3l.41-.16M119.46 58.92l.7-.26M119.29 58.56l1.17-.43M119.05 58.24l1.7-.62M118.72 57.98l2.4-.89M118.27 57.74l2.93-1.07M111.2 59.94l.06-.03m6.46-2.36 2.67-.98M111.19 59.54l.28-.1m5.57-2.04 2.53-.93m3.24-1.18.03-.01M111.2 59.15l.52-.2m4.6-1.68 2.45-.9m3.96-1.44.55-.2M111.2 58.75l.82-.3m3.54-1.3 2.4-.88m4.69-1.71 1.07-.4M111.2 58.38l1.2-.44m2.39-.87 2.41-.89m5.08-1.86 1.85-.67M111.23 57.97l5.16-1.89m5.08-1.86 3.11-1.14M111.16 57.6l4.43-1.62m5.09-1.86 3.65-1.34M111.16 57.2l3.61-1.32m5.1-1.86 3.68-1.35M111.18 56.76l2.69-.99m5.1-1.86 3.72-1.36M111.1 56.38l1.95-.7m5.1-1.87 3.76-1.38M110.78 56.11l.53-.19m.93-.34h.01m5.1-1.87 3.8-1.39M116.54 53.6l3.83-1.4M115.74 53.5l3.86-1.4M114.92 53.4l3.9-1.42M114.13 53.3l3.92-1.43M113.31 53.2l3.96-1.44M112.57 53.11l3.99-1.45M111.75 53.01l4.02-1.47M110.96 52.91l4.05-1.48M111.06 52.48l3.17-1.16M111.19 52l2.2-.8M111.3 51.56l1.3-.48M111.43 51.12l.42-.15M132.8 88.05l1.03-.37M131.39 88.2l2.1-.77M128.92 88.7l3.36-1.23M127.8 88.72l3.31-1.2M126.8 88.69l3.1-1.14M125.8 88.64l2.84-1.04M124.86 88.58l2.58-.94M123.89 88.54l2.36-.86m8.49-3.1.36-.14M122.33 88.71l2.72-1m8.54-3.12 1.96-.71M120.65 88.94l3.22-1.18m8.6-3.15 4.04-1.47m.16-.06.28-.1M119.01 89.14l3.66-1.34m8.66-3.17 5.45-2M117.65 89.27l3.92-1.43m8.7-3.19 5.5-2M116.68 89.22l3.68-1.34m8.77-3.2 5.5-2.02M117.97 88.37l1.22-.45m8.82-3.23 5.49-2M117.93 87.98l.06-.02m8.87-3.25 5.48-2M125.66 84.73l5.48-2M124.51 84.75l5.5-2M123.4 84.77l5.52-2.02M122.25 84.8l5.56-2.04M121.12 84.82l5.6-2.06M119.97 84.83l5.66-2.06M118.85 84.86l5.71-2.1M117.7 84.87l5.78-2.1M116.65 84.9l5.84-2.14M116.67 84.49l4.74-1.74M116.97 83.99l3.4-1.24M117.28 83.48l2.02-.74M117.62 82.92l.53-.2M122.58 80.7l.31-.1M121.55 80.7l1.2-.44M120.5 80.68l2.18-.8m8.83-3.23.05-.01M119.46 80.67l3.25-1.2m7.78-2.84h.01M118.41 80.65l4.52-1.65m6.23-2.28.3-.1M117.39 80.64l6.25-2.29m3.57-1.3 1.24-.46M116.33 80.62l11.09-4.05M116.18 80.31l10.28-3.76M116.18 79.91l9.25-3.38M116.18 79.52l8.24-3.01M116.18 79.13l7.2-2.64M116.17 78.69l6.08-2.22M116.17 78.29l5.04-1.84M116.17 77.9l4.03-1.48M116.17 77.5l3-1.1M116.16 77.1l2-.72M116.16 76.71l.96-.35M116.25 73.9l.25-.09M115.86 73.65l.64-.23M115.86 73.26l.64-.23M115.86 72.86l.64-.23M115.87 72.47l.63-.24M115.87 72.07l.63-.23M115.87 71.68l.63-.23M118.05 44.02l-8.17 3.27M118.3 44.47l-8.29 3.3M118.55 44.93l-8.39 3.35M118.77 45.35l-8.45 3.38M119 45.82l-8.46 3.38M119.2 46.29l-8.39 3.35M119.4 46.77l-8.25 3.3M119.59 47.28l-8.04 3.21M119.76 47.77l-7.25 2.9M119.92 48.26l-6.4 2.55M120.1 48.74l-5.55 2.22M120.32 49.2l-4.76 1.9m-28.3 11.31-1.24.5M120.58 49.66l-4 1.6m-27.52 11-3.04 1.2M120.85 50.07l-3.32 1.32M89.16 62.73l-.76.3m-1.79.72-.6.23M121.18 50.5l-2.62 1.04M86.62 64.3l-.6.24M121.56 50.89l-2 .8M86.62 64.84l-.6.24M122 51.27l-1.41.56M86.62 65.41l-.6.24M122.52 51.65l-.85.34m-35.05 14-.6.25M123.1 51.97l-.4.17M86.61 66.55l-.6.24M123.78 52.25l-.08.03M99.7 61.87l-1.2.48M86.62 67.1l-.6.24M101.12 61.86 98.5 62.9m-11.89 4.75-.61.25M102.5 61.86l-3.99 1.6M86.62 68.2l-.61.24M103.9 61.86l-1.72.69m-2.43.97-1.24.5m-11.88 4.74-.62.25M104.07 62.34l-.79.31m-3.67 1.47-1.1.44m-11.88 4.75-.62.25M104.07 62.9l-.51.2m-4.06 1.62-.99.4m-11.88 4.75-.63.25M104.07 63.41l-.43.17m-4.22 1.7-.91.35m-11.88 4.75-.63.25M104.06 63.97l-.35.15m-4.38 1.74-.82.33m-11.88 4.75-.63.25M104.06 64.52l-.3.12m-4.5 1.8-.75.3m-11.88 4.75-.63.25M104.06 65.08l-.26.1m-4.6 1.85-.69.27m-11.88 4.74-.63.26M104.06 65.68l-.22.1m-4.72 1.88-.61.24m-11.88 4.75-.63.25M104.06 66.24l-.19.08m-4.81 1.92-.55.22M86.63 73.2l-.63.25M104.06 66.79l-.16.06M99 68.81l-.49.2m-11.87 4.74-.41.16M104.06 67.35l-.14.05m-4.96 1.99-.45.17M104.06 67.9l-.11.04m-5.03 2.01-.41.17M104.06 68.46l-.1.03m-5.09 2.04-.36.14M104.06 69l-.07.03m-5.17 2.07-.31.12M104.06 69.56l-.06.02m-5.25 2.1-.24.1M104.06 70.08l-.04.01m-5.33 2.13-.18.07M104.06 70.64h-.02m-5.42 2.17-.11.04M98.55 73.38l-.04.02M96.62 38.15l-.35.14M96.8 38.62l-1.31.53M97.15 39.04l-2.25.9M97.73 39.32l-3.23 1.3M98.8 39.46l-4.62 1.84M104.53 37.71h-.02m-4.9 1.97-5.64 2.25M105.49 37.89l-.26.1m-6.05 2.42-5.34 2.13M106.55 38.08l-.73.29m-7 2.8-5.08 2.03M107.5 38.26l-1.24.5M98.14 42l-4.5 1.8M108.4 38.45l-1.77.7m-2.94 1.18-.28.11m-4.87 1.95-4.98 1.99M109.3 38.64l-2.33.94m-2.7 1.08-.67.26m-4.85 1.94-5.28 2.11M110.17 38.85l-2.9 1.16m-2.46.98-.75.3m-5.3 2.12-5.38 2.15M111.03 39.06l-3.5 1.4m-2.21.89-.74.3m-5.82 2.32-5.48 2.19M111.84 39.28l-4.07 1.63m-2.14.86-1.56.62m-5.31 2.12-5.59 2.24M112.61 39.54 108 41.38m-2.34.94-1.8.72m-5.1 2.03-5.7 2.29M113.23 39.8l-5.06 2.02m-2.73 1.1-1.58.63m-5.1 2.04-5.88 2.34M113.86 40.11l-5.5 2.2m-3.38 1.35-1.12.45m-5.1 2.04-1.04.41m-3.99 1.6-1.14.45M114.44 40.42l-5.92 2.37m-3.85 1.54-.8.32m-5.11 2.04-.4.16M92.99 49l-.76.3M115.04 40.74l-6.36 2.55m-4.19 1.67-.62.25m-5.11 2.04-.24.1m-6.69 2.67h0M115.6 41.12l-6.75 2.7m-4.52 1.8-.46.19m-5.11 2.04-.13.05M116.05 41.5l-7.04 2.81m-4.8 1.93-.34.13m-5.11 2.04-.03.01M116.45 41.89l-7.3 2.91m-5.06 2.03-.22.08M116.81 42.3l-7.5 3m-5.32 2.12-.11.05M117.15 42.72l-7.7 3.07m-5.55 2.22-.02.01M117.47 43.15l-7.87 3.14M117.76 43.58l-8.02 3.2M104 42.55l.79.43m4.56 2.49 8.69 4.74M104.14 42.2l.75.42m4.35 2.38 9.72 5.3M109.14 44.51l10.76 5.87M109.03 44.06l11.73 6.4M108.9 43.56l12.09 6.6M108.75 43.06l11.9 6.5M108.55 42.52l2.64 1.45m5.05 2.75 4.1 2.23M108.26 41.91l1.63.9m7.96 4.34 2.17 1.18M107.9 41.3l2.18 1.18m9.1 4.96.56.31M107.49 40.65l2.1 1.14M107.06 39.99l1.78.97M106.65 39.35l1.17.63M103.88 45.9l.02.02M103.88 45.45l.07.04M103.88 45.02l.15.08m6.03 3.3 1.4.75M103.88 44.6l.25.14m5.75 3.14 3.14 1.71M103.88 44.18l.36.2m5.52 3 4.42 2.42M103.88 43.76l.49.26m5.28 2.88 5.52 3.02M103.88 43.33l.62.34m5.04 2.75 6.6 3.6M103.88 42.91l.77.42m4.8 2.62 7.64 4.16" style="fill:none;stroke:#140533;stroke-width:.03530625;stroke-linecap:round;stroke-linejoin:round;stroke-miterlimit:22.9255867;stroke-opacity:1"/><path d="M101.18 37.89s0 1.2-.2 1.36c-.21.17-1 .13-1.37.47-.36.34-.44.8-.52.99-.08.18-.36.7-.71.76l-.35.07M101.34 37.89s.04 1.09.24 1.35c.19.26.97.17 1.3.38.35.2.39.41.6.98.23.58.47.8.75.87.27.07.35.07.35.07" style="fill:none;stroke:#140533;stroke-width:.0926893;stroke-linecap:round;stroke-linejoin:round;stroke-miterlimit:22.9255867;stroke-opacity:1"/><path d="m84.4 41.09-.53-.56M84.67 41.04l-.49-.5M84.87 40.92l-.37-.39M85 40.76l-.2-.23M101.25 37.81l-.54-.56M101.51 37.76l-.49-.5M101.71 37.64l-.37-.39M101.85 37.48l-.22-.23M118 41.07l-.54-.56M118.25 41.02l-.49-.51M118.45 40.9l-.37-.4M118.6 40.74l-.22-.23" style="fill:none;stroke:#140533;stroke-width:.03532868;stroke-linecap:round;stroke-linejoin:round;stroke-miterlimit:22.9255867;stroke-opacity:1"/><path d="m101.1 32.48-.9-.92M101.95 32.68l-.54-.56m-.22-.24-.31-.32M102.4 32.41l-.83-.85M102.7 32.06l-.48-.5M75.05 105.14h.5m42.58 0h5.07m3.75 0h5.2M75.05 104.84h.5m42.42 0h5.23m3.75 0h5.2M75.06 104.53h.48m42.25 0h5.41m3.75 0h5.2M75.06 104.24h.49m42.05 0h5.6m3.75 0h5.19M75.06 103.93h.49m41.82 0h5.83m3.75 0h5.19M75.06 103.63h.49m41.61 0h6.04m3.75 0h5.18M75.06 103.32h.48m41.6 0h6.06m3.75 0h5.18M75.07 103h.47m41.6-.01h6.06m3.75 0h5.18M75.07 102.68h.47m41.59 0h6.07m3.75 0h5.17M75.07 102.38h.47m41.59 0h6.07m3.75 0 5.17-.01M75.07 102.07h.46m41.6 0h6.07m3.75 0 5.17-.01M75.07 101.77h.46m41.6-.01h6.07m3.75 0h5.16M75.07 101.46h.46m41.61-.01h6.06m3.75 0h5.16M75.07 101.17h.45m37.52 0h.21m3.9 0h6.05m3.75 0h5.15M75.07 100.86h.45m37.14 0h.55m3.96 0h6.03m3.75 0h5.15M75.07 100.56h.45m36.78 0h.88m4 0h6.02m3.75 0h5.15M75.07 100.25h.45m9.6 0h.24m26.57 0h1.2m4.08 0h6m3.74-.01h5.14M75.07 99.92h.45m9.34 0h.5m3.96 0h.15m22.06 0h1.55m4.15 0h5.97m3.75 0h5.14M75.07 99.61h.45m9.1 0h.72m4.03 0h.58m21.2 0h1.88m4.23 0h5.94m3.75 0h5.13M75.07 99.3h.45m8.86 0h.92m4.12 0h1.02m20.35 0h2.19m4.31 0h5.91m3.75 0h5.12M75.06 99h.46m8.6 0h1.13m4.23 0h1.5m19.42 0h2.52m4.41 0h5.87m3.75 0h5.12M75.06 98.7h.47m8.32 0h1.34m4.36 0h1.96m18.5-.01h2.85m4.51 0h5.83m3.75 0h5.11M75.06 98.38h.47m3.76 0h.34m3.94 0h1.56m4.5 0h2.44m17.55 0h3.18m4.62 0h5.78m3.75 0h5.1M75.05 98.08h.5m3.74 0h.76m3.23 0h1.78m4.66 0h2.9m16.6 0h3.5m4.74 0h5.74m3.74 0h5.1M75.05 97.77h.5m3.74 0h1.24m2.43 0h2.03m4.83 0h3.37m15.61 0h3.85m4.87 0h5.68m3.73 0h5.1M75.04 97.48h.53m3.72 0h1.77m1.55 0h2.31m5 0h3.8m14.68 0h4.18m5 0h5.62m3.71 0h5.1M75.04 97.17h.55m3.7 0h5.55m5.2 0h4.27m13.64 0h4.53m5.16 0h5.56m3.69 0h5.09M75.03 96.87h.59m3.67 0h5.47m5.4 0h4.72m12.6 0h4.9m5.32 0h5.5m3.66 0h5.07M75.01 96.56h.64m3.64 0h5.38m5.62 0h5.19m11.5 0h5.29m5.51 0h5.42m3.63 0h5.05M75 96.23h.69m3.6 0h5.29m5.86 0h5.71m10.22 0h5.76m5.74 0h5.33m3.59 0h5.02M74.97 95.92h.76m3.56 0h5.2m6.1 0h6.26m8.9 0H112m5.97 0h5.24m3.54 0h5M74.93 95.61h.85m3.52 0h5.1m6.36 0h6.87m7.42 0h6.79m6.2 0h5.16m3.5 0h4.96M74.9 95.3h.94m3.46 0h5m6.63 0h7.67m5.55 0h7.52m6.48 0h5.05m3.44 0h4.93M74.86 95h1.04m3.4 0h4.9m6.92 0h8.96m2.68 0h8.73m6.77 0h4.94m3.38 0h4.9M74.84 94.69h1.13m3.33 0h4.8m7.22 0h19.98m7.08 0h4.82m3.31 0h4.87M74.81 94.39h1.24m3.25 0h4.69m7.54 0h19.57m7.4 0h4.7m3.24-.01h4.83M74.8 94.08h1.34m3.16 0h4.56m7.9 0h19.12m7.76 0h4.56m3.15-.01h4.8M74.78 93.79h1.45m3.07 0h4.43m8.26 0h18.67m8.12 0h4.42m3.06 0h4.78M74.77 93.48h1.56m2.97 0h4.28m8.66 0h18.17m8.53 0h4.26m2.95 0h4.76M74.77 93.18h1.68m2.85 0h4.12m9.1 0h17.63m8.95 0h4.1m2.82 0h4.75M74.77 92.87h1.8m2.73 0h3.95m9.56 0h17.05m9.42 0h3.92m2.68 0h4.73M74.78 92.53h1.95m2.57 0h3.74m10.12 0h16.35m9.98 0h3.71m2.5-.01h4.73M74.9 92.22h1.98m2.42 0h3.53m10.67 0h15.67m10.53 0h3.5m2.31-.01h4.74M75.1 91.91h1.94m2.26 0h3.3m11.26 0h14.94m11.12 0h3.28m2.11 0h4.75M75.31 91.6h1.91m2.08 0h3.06m11.9 0h14.13m11.76 0h3.05m1.9 0h4.75M75.54 91.3h1.88m1.88 0h2.8m12.58 0h13.26m12.47 0h2.8m1.65 0 4.76-.01M75.79 90.99h1.84m1.67 0h2.52m13.34 0h12.28m13.25 0h2.51m1.4 0 4.77-.01M76.06 90.68h1.78m1.46 0h2.2m14.17 0h11.2m14.12 0h2.21m1.13 0h4.77M76.38 90.37h1.7m1.22 0h1.86m15.12 0h9.93m15.13 0h1.86m.84 0h4.74M76.73 90.09h1.56m1 0h1.52m16.11 0h8.55m16.22 0h1.51m.54 0h4.7M77.17 89.78h1.37m.76 0h1.07m17.43 0h6.64m17.7 0h1.06m.2 0h4.62M77.68 89.48h1.13m.49 0h.59m19.19 0h3.81m19.79-.01h4.82M78.31 89.16h.72m44.38 0h3.33M129.7 119.32h.25M129.7 119.01h.45M122.91 118.7h.3m6.5 0h.6M122.52 118.38h.69m6.5 0h.6M122.17 118.07h1.04m6.5 0h2.5M121.86 117.77h1.35m6.5 0h2.5M121.56 117.46h1.65m6.49 0h2.51M121.28 117.15h1.93m6.49 0h2.51M121.03 116.84h2.18m6.49 0h2.5M120.8 116.54h2.4m6.5 0h2.5M120.6 116.23h2.6m6.5 0h2.5M120.44 115.94h2.77m5.39 0h3.6M74.92 115.64h.3m45.06 0h2.92m4.06 0h4.94M74.92 115.34h.63m44.6-.01h3.05m3.75 0h5.25M74.93 115.02h.62m44.51 0h3.14m3.75 0h5.25M74.93 114.7h.62m44.44-.01h3.21m3.75 0h5.25M74.94 114.38h.6m44.39 0h3.27m3.75 0h5.25M74.94 114.08h.6m44.33 0h3.33m3.75 0h5.25M74.95 113.77h.6m44.27 0h3.38m3.75 0h5.25M74.95 113.46h.6m44.22 0h3.43m3.75 0h5.25M74.96 113.15h.59m44.18 0h3.47m3.75 0h5.24M74.96 112.85h.59m44.13 0h3.52m3.75 0h5.24M74.97 112.54h.58m44.1 0h3.55m3.75 0h5.24M74.97 112.25h.58m44.05 0h3.6m3.75 0h5.24M74.98 111.94h.56m44.02 0h3.64m3.75 0h5.24M74.98 111.64h.56m43.98 0h3.68m3.75 0h5.24M74.98 111.33h.56m43.94 0h3.72m3.75 0h5.24M74.99 110.99h.55m43.9 0h3.76m3.75 0h5.23M75 110.68h.54m43.85 0h3.81m3.75 0h5.23M75 110.38h.54m43.81-.01h3.85m3.75 0h5.23M75 110.07h.54m43.77-.01h3.9m3.74 0h5.23M75 109.76h.54m43.73 0h3.93m3.75 0h5.23M75 109.45h.54m43.68 0h3.98m3.75 0h5.23M75.01 109.15h.53m43.64-.01h4.02m3.75 0h5.22M75.02 108.84h.52m43.6-.01h4.06m3.75 0h5.22M75.02 108.55h.52m43.55 0h4.11m3.75 0h5.22M75.02 108.24h.52m43.5 0h4.16m3.75 0h5.22M75.03 107.94h.51m43.44 0h4.22m3.75 0h5.22M75.03 107.63h.51m43.38 0h4.28m3.75 0h5.21M75.03 107.3h.51m43.32-.01h4.34m3.75 0h5.21M75.04 106.98h.5m43.25 0h4.41m3.75 0h5.21M75.04 106.68h.5m43.17 0h4.5m3.74 0h5.2M75.04 106.37h.5m43.08 0h4.58m3.75 0h5.2M75.04 106.07h.5m42.98-.01h4.68m3.75 0h5.2M75.05 105.76h.5m42.85-.01h4.8m3.75 0h5.2M75.05 105.45h.5m42.73 0h4.92m3.75 0h5.2M70.33 106.37l5.23-3.06m3.73-2.18 5.66-3.3m7.15-4.18 7.2-4.21M70.33 105.95l5.23-3.05m3.73-2.18 5.58-3.26m8.06-4.71 5.28-3.09M70.33 105.52l5.23-3.05m3.73-2.18 5.5-3.2m9.9-5.8 1.5-.88M70.33 105.13l5.23-3.06m3.73-2.18 5.4-3.15M70.33 104.7l5.23-3.05m3.73-2.18 5.31-3.1M70.34 104.28l5.22-3.05m3.73-2.18L84.5 96M70.34 103.85l5.22-3.05m3.73-2.18 5.11-2.98M70.34 103.4l5.22-3.05m3.73-2.18 5-2.92M70.34 102.97l5.23-3.05m3.72-2.18 4.88-2.85M70.34 102.55l5.23-3.05m3.72-2.18 4.75-2.78M70.34 102.12l5.23-3.05m3.72-2.18 4.6-2.69M70.35 101.7l5.22-3.05m3.72-2.18 4.46-2.6M70.35 101.27l5.22-3.05m3.72-2.18 4.29-2.5M70.35 100.88l5.22-3.05m3.73-2.18 4.12-2.4M70.35 100.45l5.23-3.05m3.72-2.18 3.93-2.3M70.35 100.03l5.3-3.09m3.65-2.13 3.74-2.2M70.35 99.6l5.37-3.13m3.58-2.1 3.54-2.06M70.36 99.15l5.44-3.18m3.5-2.04L82.6 92M70.39 98.7l5.5-3.2m3.4-2 3.1-1.8M70.42 98.27l5.56-3.25m3.32-1.94 2.86-1.67M70.47 97.82l5.62-3.3m3.2-1.86 2.63-1.53M70.53 97.36l5.68-3.32m3.09-1.8 2.36-1.39M70.6 96.9l5.76-3.38m2.94-1.71 2.1-1.23M70.68 96.43 76.53 93m2.77-1.62 1.82-1.07M70.77 95.94l6-3.5m2.53-1.48 1.52-.89M70.87 95.5l6.21-3.64m2.22-1.3 1.22-.7M71 94.99l6.53-3.82m1.77-1.03.88-.51M71.16 94.48l6.92-4.04m1.22-.72.52-.3M71.35 93.94l7.4-4.33m.55-.31.11-.07M71.62 93.32l7.29-4.26M71.95 92.7l6.46-3.78M72.42 92l5.44-3.17M73.05 91.21l4.1-2.4M73.99 90.24l2.04-1.19M89.24 120.79l24.03-14.04m3.9-2.28 6.03-3.53m3.75-2.2 4.8-2.8M89.23 120.37l24.04-14.04m3.9-2.28 6.03-3.53m3.75-2.19 4.7-2.75M89.23 119.95l24.04-14.05m3.89-2.27 6.04-3.54m3.73-2.18 4.62-2.7M89.23 119.55l24.04-14.04m3.87-2.27 6.06-3.54m3.71-2.17 4.54-2.65M89.23 119.13l24.04-14.05m3.86-2.26 6.07-3.55m3.68-2.15 4.45-2.6M89.23 118.7l24.04-14.04m3.86-2.25 6.07-3.55m3.65-2.13 4.35-2.55M89.23 118.28l24.04-14.05m3.86-2.25 6.07-3.55m3.6-2.1 4.26-2.5M85.24 120.16l.11-.07m3.88-2.26 24.04-14.05m3.87-2.26 6.06-3.54m3.54-2.07 4.17-2.44M84.7 120.05l.65-.38m3.87-2.27 24.05-14.05m3.88-2.27 6.05-3.53m3.48-2.03 4.07-2.38M84.17 119.94l1.18-.7m3.87-2.26 24.05-14.05m3.9-2.28 6.03-3.52m3.41-2 3.98-2.32M83.63 119.83l1.72-1.01m3.87-2.26 24.05-14.06m3.94-2.3 6-3.5m3.32-1.94 3.88-2.27M83.1 119.72l2.25-1.32m3.87-2.26 24.05-14.06m3.98-2.32 5.95-3.48m3.24-1.89 3.8-2.22M82.56 119.6l2.79-1.63m3.87-2.26 24.05-14.05m4.02-2.35 5.91-3.46m3.14-1.83 3.7-2.16M82.06 119.5l3.29-1.92m3.87-2.26 24.04-14.05m4.09-2.39 5.85-3.42m3.03-1.77 3.61-2.1M81.5 119.4l3.85-2.24m3.87-2.27 24-14.02m4.2-2.45 5.78-3.39m2.9-1.69 3.52-2.06M80.96 119.3l4.39-2.56m3.86-2.26 23.96-14m4.32-2.52 5.71-3.34m2.75-1.61 3.44-2.01M80.4 119.2l4.95-2.89m3.86-2.26 23.9-13.96m4.46-2.61 5.63-3.3m2.58-1.5 3.36-1.96M79.82 119.09l5.52-3.23m3.87-2.26 23.83-13.92m4.64-2.71 5.52-3.23m2.4-1.4 3.26-1.9M79.35 118.94l6-3.5m3.86-2.26 23.77-13.9m4.82-2.81 5.4-3.16m2.2-1.28 3.17-1.85M79.33 118.53l6.01-3.51m3.87-2.26 23.7-13.85m5.03-2.94 5.26-3.08m2-1.16 3.06-1.8M79.33 118.1l6.01-3.5m3.87-2.27 23.62-13.8m5.27-3.08 5.1-2.98m1.77-1.04 2.95-1.72M79.32 117.69l6.02-3.52m3.86-2.26 23.55-13.76m5.54-3.23 4.91-2.87m1.54-.9 2.82-1.65M79.32 117.26l6.02-3.52m3.86-2.25 23.46-13.71m5.86-3.42 4.68-2.74m1.3-.76 2.65-1.55M79.31 116.85l6.03-3.52m3.86-2.26 23.36-13.65m6.22-3.64 4.42-2.58m1.05-.61 2.46-1.44M79.31 116.42l6.03-3.52m3.86-2.26 23.25-13.59m6.66-3.89 4.09-2.39m.78-.46 2.23-1.3M79.3 116.03l6.04-3.52m3.86-2.26 23.14-13.52m7.13-4.17 3.73-2.18m.53-.31 1.96-1.15M72.58 119.53l.21-.12m6.52-3.8 6.03-3.53m3.86-2.26 23-13.44m7.76-4.54 3.24-1.89m.24-.14 1.59-.93M72.54 119.14l.25-.15m6.51-3.8 6.03-3.53m3.87-2.26 22.85-13.35m8.6-5.03 3.53-2.06M72.23 118.89l.57-.33m6.5-3.8 6.03-3.53m3.86-2.25 22.7-13.26M72.18 118.46l.62-.36m6.5-3.8 6.03-3.53m3.86-2.25 22.52-13.16M71.95 118.17l.85-.5m6.5-3.8 6.03-3.52m3.86-2.26 22.33-13.05M71.14 118.22l1.66-.97m6.5-3.8 6.03-3.52m3.86-2.25 22.14-12.95M70.32 118.28l2.48-1.45m1.75-1.03 1-.58m3.75-2.2 6.03-3.52m3.86-2.25 21.94-12.83M70.29 117.87l2.51-1.47m.87-.5 1.88-1.1m3.75-2.2 6.03-3.52m3.86-2.25 21.73-12.7M70.29 117.44l2.51-1.46m.8-.48 1.95-1.13m3.74-2.19 6.04-3.53m3.85-2.25 21.52-12.57M70.29 117.03l2.51-1.47m.74-.44 2-1.17m3.75-2.19 6.04-3.52m3.85-2.26 21.29-12.44M70.3 116.6l2.5-1.47m.76-.44 1.99-1.17m3.74-2.19 6.04-3.52m3.85-2.25 21.04-12.3M70.3 116.2l2.5-1.46m.64-.38 2.1-1.23m3.75-2.19 6.04-3.52m3.85-2.26L110 93M70.3 115.77l5.25-3.07m3.74-2.19 6.03-3.52m3.86-2.25 20.55-12M70.3 115.36l5.25-3.07m3.74-2.2 6.03-3.52m3.86-2.25 20.27-11.85M70.3 114.93l5.25-3.07m3.74-2.2 6.03-3.52m3.86-2.25 19.99-11.68M70.3 114.45l5.25-3.07m3.74-2.18 6.03-3.53m3.85-2.25 19.66-11.49M70.3 114.02l5.25-3.06m3.74-2.2 6.03-3.51m3.85-2.25 19.35-11.3M70.3 113.6l5.25-3.06m3.74-2.19 6.03-3.52m3.85-2.25 19.03-11.12M70.3 113.18l5.25-3.07m3.74-2.19 6.03-3.52m3.85-2.25 18.68-10.92M70.3 112.75l5.25-3.06m3.74-2.19 6.03-3.52m3.87-2.26 18.3-10.7M70.3 112.33l5.25-3.07m3.74-2.19 6.03-3.52m3.9-2.27 17.9-10.47M70.3 111.9l5.25-3.06m3.74-2.18 6.03-3.52m3.92-2.3 17.5-10.23M70.31 111.48l5.24-3.07m3.74-2.18 6.03-3.52m3.95-2.31 17.07-9.97M70.31 111.08l5.24-3.06m3.74-2.19 6.03-3.51m4-2.34 16.62-9.72M70.31 110.65l5.24-3.06m3.74-2.18 6.02-3.52m4.07-2.38 16.12-9.42M70.31 110.24l5.25-3.07m3.73-2.18 6.02-3.52m4.16-2.43 15.57-9.1M70.32 109.8l5.24-3.05m3.73-2.19 6.02-3.52m4.28-2.5 14.96-8.74M70.32 109.35l5.24-3.06m3.73-2.19 6.02-3.52M89.75 98l14.24-8.32M70.32 108.92l5.24-3.06m3.73-2.19 6-3.5m4.64-2.71 13.52-7.9M70.32 108.5l5.24-3.06m3.73-2.19 5.97-3.48m4.87-2.85 12.75-7.45M70.32 108.07l5.24-3.06m3.73-2.18 5.92-3.46m5.18-3.02 11.88-6.95M70.32 107.65l5.24-3.06m3.73-2.18 5.87-3.43m5.52-3.23 10.95-6.4M70.33 107.22l5.23-3.06m3.73-2.18 5.8-3.4m5.96-3.47 9.89-5.78M70.33 106.8l5.23-3.06m3.73-2.18 5.73-3.35m6.48-3.78 8.7-5.09M129.9 119.53l.05-.03m2.1-1.23.16-.1M129.7 119.22l.58-.34m1.12-.66.81-.47M129.7 118.8l.62-.36m.44-.26 1.45-.85M129.7 118.37l2.5-1.47M129.7 117.95l2.5-1.46M129.7 117.52l2.5-1.46M129.7 117.13l2.5-1.46M129.7 116.7l2.5-1.46M129.7 116.29l2.5-1.47M129.44 116l2.76-1.6M128.71 115.99l3.49-2.04M122.8 119.01l.4-.23m5.08-2.97 3.92-2.29M121.7 119.24l1.5-.88m4.39-2.56 4.6-2.7M120.56 119.48l2.65-1.55m3.99-2.33 5-2.92M119.45 119.7l3.76-2.2m3.74-2.18 5.24-3.06M118.31 119.94l4.9-2.86m3.74-2.19 5.24-3.06M117.2 120.17l6-3.5m3.75-2.2 5.24-3.05M117.15 119.78l6.06-3.54m3.74-2.2 5.23-3.05M117.15 119.38l6.06-3.54m3.74-2.19 5.23-3.05M117.15 118.96l6.05-3.54m3.75-2.2 5.23-3.05M112.96 120.99l.3-.18m3.89-2.27 6.05-3.54m3.75-2.2 5.23-3.05M111.97 121.14l1.3-.76m3.88-2.27 6.05-3.54m3.75-2.19 5.23-3.05M110.9 121.3l2.36-1.38m3.89-2.27 6.05-3.54m3.75-2.2 5.22-3.04M110.13 121.32l3.13-1.83m3.89-2.27 6.05-3.54m3.75-2.19 5.22-3.05M109.4 121.32l3.86-2.25m3.89-2.27 6.05-3.54m3.75-2.19 5.22-3.04M108.67 121.33l4.6-2.68m3.88-2.28 6.05-3.53m3.75-2.2 5.21-3.04M107.94 121.34l5.32-3.12m3.9-2.27 6.04-3.54m3.75-2.19 5.21-3.04M107.2 121.34l6.06-3.54m3.9-2.28 6.04-3.53m3.75-2.2 5.2-3.04M106.47 121.35l6.8-3.97m3.88-2.27 6.05-3.54m3.75-2.2 5.2-3.03M105.59 121.44l7.67-4.49m3.9-2.27 6.04-3.54m3.75-2.19 5.2-3.04M104.97 121.4l8.3-4.84m3.88-2.28 6.05-3.53m3.75-2.2 5.2-3.03M104.25 121.4l9.01-5.27m3.9-2.27 6.04-3.54m3.75-2.19 5.2-3.03M103.55 121.39l9.71-5.68m3.9-2.27 6.04-3.54m3.75-2.19 5.2-3.03M102.83 121.38l10.43-6.1m3.9-2.27 6.04-3.53m3.75-2.2 5.19-3.03M102.03 121.38l11.23-6.57m3.9-2.27 6.04-3.54m3.75-2.19 5.18-3.03M101.3 121.37l11.96-6.99m3.9-2.27 6.04-3.53m3.75-2.2 5.18-3.02M100.6 121.37l12.66-7.4m3.9-2.28 6.04-3.53m3.75-2.2 5.18-3.02M99.87 121.36l13.4-7.82m3.89-2.28 6.04-3.53m3.75-2.19 5.17-3.02M99.15 121.36l14.11-8.24m3.9-2.28 6.04-3.53m3.75-2.2 5.17-3.01M98.43 121.36l14.83-8.67m3.9-2.28 6.04-3.53m3.75-2.2 5.16-3M97.71 121.36l15.55-9.09m3.9-2.28 6.04-3.53m3.75-2.19 5.16-3M96.96 121.37l16.3-9.53m3.9-2.27 6.04-3.54m3.75-2.19 5.15-3M96.27 121.38l17-9.93m3.9-2.28 6.03-3.53m3.75-2.19 5.14-3M95.56 121.37l17.7-10.35m3.9-2.28 6.04-3.53m3.75-2.19 5.14-3M94.86 121.36l18.4-10.76m3.9-2.27 6.04-3.53m3.75-2.2 5.13-3M94.15 121.35l19.12-11.17m3.9-2.28 6.03-3.53m3.75-2.2 5.12-2.98M93.38 121.34l19.89-11.63m3.9-2.27 6.03-3.53m3.75-2.2 5.11-2.98M92.66 121.33l20.6-12.04m3.9-2.28 6.04-3.53m3.75-2.2 5.1-2.97M91.96 121.32l21.3-12.45m3.9-2.28 6.04-3.53m3.75-2.19 5.08-2.97M91.33 121.26l21.94-12.82m3.9-2.28 6.03-3.53m3.75-2.19 5.06-2.95M90.76 121.17l22.5-13.15m3.9-2.28 6.04-3.53m3.75-2.19 5.02-2.93M90.18 121.08l23.09-13.49m3.9-2.28 6.03-3.52m3.75-2.2 4.96-2.9M89.61 121l23.66-13.83m3.9-2.28 6.03-3.52m3.75-2.2 4.88-2.85M102.99 122.87l9.37-.86m5.42-.5 14.94-1.37m1.5-.14 13.63-1.25M100.4 122.84l12.1-1.11m4.78-.44 13.87-1.27m3.05-.28 13.8-1.27M88.7 123.64v0m8.41-.77 15.38-1.41m4.7-.44 12.76-1.17m4.24-.39 13.79-1.26M89.4 123.33l23.85-2.2m3.9-.35 12.8-1.18m4.19-.38 13.68-1.26M90.17 122.98l17.97-1.65m9-.82 12.56-1.16m4.38-.4 13.44-1.23M90.41 122.7l14.42-1.33m12.31-1.13 12.56-1.15m4.4-.4 13.03-1.2M90.41 122.42l11.52-1.05M119 119.8l10.71-.98m4.74-.44 12.22-1.12M90.35 122.14l8.52-.78m22.63-2.08 8.2-.75m5.1-.47 11.32-1.04M90.02 121.9l5.76-.53m27.43-2.52 6.5-.6m4.83-.44 11.05-1.01M90.01 121.63l3.23-.3m29.97-2.74 6.5-.6m4.64-.43 10.69-.98M90 121.36l1.25-.11m31.96-2.94 6.5-.6m4.4-.4 10.27-.94M89.24 121.17l.92-.09m33.05-3.03 6.49-.6m4.38-.4 9.56-.88M82.6 121.5l2.7-.24m37.9-3.48 6.5-.6m4.37-.4 8.73-.8M81.21 121.38l4.14-.38m37.86-3.47 6.49-.6m4.37-.4 7.9-.73M79.98 121.22l5.36-.49m37.87-3.48 6.49-.6m4.37-.4 6.93-.63M78.98 121.05l6.34-.58m37.89-3.48 6.49-.6m4.37-.4 5.93-.54M78.15 120.85l7.15-.66m37.9-3.47 6.5-.6m4.36-.4 4.86-.45M77.27 120.65l7.29-.67m38.65-3.55 5.38-.5m5.47-.5 3.67-.33M76.22 120.47l7.4-.68m39.59-3.63 4.29-.4m6.56-.6 2.5-.23M74.96 120.32l7.75-.7m40.5-3.73 3.87-.35m6.98-.64 1.29-.12M73.43 120.2l8.35-.78m41.42-3.8 3.75-.34m7.1-.65h0M71.6 120.09l9.25-.85m42.35-3.89 3.74-.34M72.55 119.73l7.37-.67m43.28-3.98 3.74-.34M72.8 119.44l6.5-.6m43.9-4.02 3.73-.35M72.8 119.17l6.5-.6m43.9-4.03 3.73-.34M72.8 118.92l6.5-.6m43.9-4.03 2.83-.26M72.8 118.65l6.5-.6m43.9-4.03 1.39-.13M72.96 118.37l6.33-.58M74.84 117.92l4.45-.4M75.95 117.53l3.34-.3M76.52 117.2l2.77-.25M76.73 116.92l2.57-.24M76.54 116.66l2.76-.25M76.04 116.44l3.26-.3M75.23 116.25l4.07-.38M74.16 116.08l5.14-.47M74.25 115.8h0m.83-.08 4.22-.39M75.55 115.43l3.75-.35M75.55 115.16l3.75-.35M75.55 114.89l3.75-.34M133.85 122.49l3.6-.33M129.27 122.63l10.72-.98M118.46 123.33l23.27-2.13M118.46 123.06l24.62-2.26M118.46 122.8l25.82-2.37M118.3 122.54l27.06-2.48M111.57 122.89l.52-.05m5.97-.55 28.2-2.59M108.46 122.9l3.63-.33m5.97-.55 28.92-2.65M105.7 122.89l6.38-.59m5.99-.55 29.43-2.7" style="fill:none;stroke:#140533;stroke-width:.03530625;stroke-linecap:round;stroke-linejoin:round;stroke-miterlimit:22.9255867;stroke-opacity:1"/><path d="m101.3 73.5-.01-11.47" style="fill:none;stroke:#140533;stroke-width:.0926893;stroke-linecap:round;stroke-linejoin:round;stroke-miterlimit:22.9255867;stroke-opacity:1"/><path d="m116.53 88.75.33.28M115.96 120.52l.6.52m.3.26.02.02M115.96 119.9l.92.8M115.96 119.28l.88.76M115.97 118.67l.86.76M115.97 118.05l.86.75M115.97 117.47l.85.75M115.97 116.85l.85.74M115.97 116.24l.85.74M115.97 115.61l.84.74M115.97 114.96l.84.73M115.97 114.34l.83.72M115.97 113.73l.83.72M115.97 113.1l.83.72M115.97 112.49l.82.7M115.97 111.86l.81.7M115.98 111.25l.8.7M115.98 110.63l.79.69M115.98 110.05l.78.69M115.98 109.43l.78.67M115.98 108.82l.77.67M115.98 108.2l.76.66M115.98 107.52l.75.66M115.98 106.9l.74.64M115.98 106.29l.74.64M115.98 105.66l.73.64M115.98 105.05l.72.62M115.98 104.42l.72.62M115.98 103.81l.7.61M115.98 103.19l.7.6M115.99 102.61l.69.6M115.99 101.99l.68.6M115.99 101.38l.67.58M115.99 100.75l.66.58M115.99 100.06l.66.58M115.99 99.44l.65.56M116 98.83l.57.5M116 98.2l.55.5M116 97.59l.61.54M116 96.97l.69.6M116 96.36l.68.6M116 95.73l.68.6M116 95.16l.67.59M116 94.53l.67.59M116 93.92l.67.58M116 93.3l.66.57M116 92.62l.66.58M116 92l.65.57M116 91.39l.65.56M116 90.77l.64.55M116 90.15l.6.52M116.02 89.54l.53.46M116.05 88.95l.49.43" style="fill:none;stroke:#140533;stroke-width:.03529667;stroke-linecap:round;stroke-linejoin:round;stroke-miterlimit:22.9255867;stroke-opacity:1"/><path d="M55.52 116.85s-.17 1.87-.27 2.44c-.1.56-.27 1-.42 1.1-.14.1-.07.26-.07.26s.15.07.05.17c-.1.1-.3.25-.24.28.06.04.42.5.42.5s.12-.47.13-.73c.01-.26.03-.44.19-.8.15-.36.23-.95.4-1.41.17-.46.32-.92.47-1.27.14-.34.2-.42.2-.42l.03-.14-.13-.34zM60.33 109.15s-1.7-.1-1.8-.2c-.09-.1-1-.06-1-.06s-.19.31.05.7c.25.32.44.18.9.19.44 0 1.85-.63 1.85-.63zm0 0" style="fill:none;stroke:#140533;stroke-width:.04631911;stroke-linecap:butt;stroke-linejoin:round;stroke-miterlimit:22.9255867;stroke-opacity:1"/><path d="M49.69 113.77c-.29.24-.47 1.06-.44 1.42a6.51 6.51 0 0 1 .31 1c.11.5-.01 1.14-.24 1.23-.23.08-.23.28-.21.4.02.12.2.45.05 1.17-.14.72-.3 1.04-.36 1.26-.07.23-.24.22-.24.22s.18.22.2.4c.02.16-.14.27-.08.33a5.3 5.3 0 0 0 1.03.34s-.63-1.18-.5-1.5c.5-1.27.56-1.52 1.2-2.15-.03.5-.23 1.06-.23 1.06s.63.84.7 1.26c.06.42.02 1 .02 1l.81.3s-.2-.31-.46-.99c-.26-.68-.59-1.13-.55-1.64.03-.52 1.34-.7 1.72-1.13.4-.41.36-.8.36-.8s.85.2 1.52.13a6.1 6.1 0 0 0 1.38-.28l.51-.27.1-.04.06.17.09.24.34 1.91c.08.44.24 1.54.23 1.82 0 .08-.1.17-.07.24.1.2-.04.54-.04.54l.8.11s-.4-.53-.43-.66c-.03-.12-.01-.42-.02-.84 0-.42-.06-1.28-.06-1.76s-.05-.55.1-1.3c.14-.76.23-1.12.23-1.12s1.13-.9 1.28-1.3c.14-.41.53-1.49.53-2.5 0-1-.29-1.65-.27-1.8a1.8 1.8 0 0 0-.17-.54c-.17.05-.32.08-.42.08-.45 0-.64.13-.89-.2-.24-.38-.04-.7-.04-.7s.81-.03.97.06c-.04-.07-.46-.18-.46-.2-.05-.07.23-.1.13-.16a1.77 1.77 0 0 0-1.6-.01c-.36.19-.59.5-.86.66a3 3 0 0 1-1.26.37c-.36-.02-.49.35-.37.53.11.18.06.3.68.44.6.14.75.2 1.24.32.48.11.77.08.92.05.14-.04-.1.87-.31 1.3-.2.44-.47.95-.7 1.05-.22.1-.5.02-.7.03-.21.02-.54.23-.71.26-.44.08-1.31.13-1.76.11-.39-.01-1-.15-1.44-.26-.87-.23-1.64-.4-2.34.5zm0 0" style="fill:none;stroke:#140533;stroke-width:.04632186;stroke-linecap:butt;stroke-linejoin:round;stroke-miterlimit:22.9255867;stroke-opacity:1"/><path d="M56.85 108.46s-.17-1.1-.12-1.57c.05-.47.01-.61.01-.61s.62 1 .75 1.34c.13.34.11.7.11.7l-.04.07c-.28 0-.41 0-.7.07zm0 0" style="fill:none;stroke:#140533;stroke-width:.04631911;stroke-linecap:butt;stroke-linejoin:round;stroke-miterlimit:22.9255867;stroke-opacity:1"/><path d="M58.61 108.93s.25-.3.53-.42c.28-.11.18-.1 1.02-.24.84-.12 1.1-.27 1.06-.3-.04-.02-.88.14-1.19.14h-.53l.55-.54c.15-.15.47-.78.53-.9.03-.07.48-.16.96-.4.43-.24.84-.76.59-.57-.6.46-.82.47-1.21.58-.4.12-.32.05-.3.01 0-.04.06-.11.18-.65.13-.54 1.13-.8 1.47-1.3.34-.48-.47.24-.87.4-.4.15-.59.37-.59.37l-.35-.74c-.11-.2-.44-.68-.48-.61-.03.07 0 .09.18.47s.39.75.39.96c0 .2-.06.63-.06.63s-.1.56-.17.56c-.02 0-.2-.31-.42-.56-.35-.4-.8-.78-.8-.67l.54.62c.4.49.5 1 .44 1.18-.02.05-.2.36-.38.53l-.48.45c-.07.06.14-.95.05-1.25-.09-.3-.08.8-.4 1.37-.3.56-.26.42-.43.48-.17.05-.4.2-.4.21zm0 0" style="fill:none;stroke:#140533;stroke-width:.04631911;stroke-linecap:round;stroke-linejoin:round;stroke-miterlimit:22.9255867;stroke-opacity:1"/><path d="M56.61 108.45s-.4-.33-.62-.69c-.23-.35-.12-.62.01-.96.13-.34 0-.25-.05-.18-.04.07-.21.34-.26.45-.05.12-.09.18-.1.13-.03-.04-.29-.46-.33-.72-.05-.38.18-.97.47-1.18.27-.2.65-.41.38-.32-.28.09-.6.31-.7.41-.09.1-.27.33-.32.35-.05.01-.04-.67.02-.8.05-.15.33-.66.48-.84.15-.18.25-.46-.04-.1-.3.35-.5.6-.53.57a.98.98 0 0 1-.16-.54c0-.27-.12-.52-.12-.13s0 .62.06.73c.06.12.1.27.09.34-.01.06-.1.63-.05.95.05.33-.55.05-.74-.38-.2-.44-.31-.49-.26-.06.06.42.35.53.53.68.18.16.46.28.5.31.05.04.17.35.28.61.12.27.24.4.33.56.1.15.17.3.17.3s-.46-.03-.66-.23.01.3.37.42c.35.13.54.22.54.22l.24.39zm0 0" style="fill:none;stroke:#140533;stroke-width:.04631911;stroke-linecap:butt;stroke-linejoin:miter;stroke-miterlimit:22.9255867;stroke-opacity:1"/><path d="M56.34 109.33s.27-.04.35.06c.09.1.2.4.2.4s-.16.07-.23.02c-.07-.04-.3-.08-.34-.18-.05-.1.02-.3.02-.3zm0 0" style="fill:none;stroke:#140533;stroke-width:.04631911;stroke-linecap:butt;stroke-linejoin:round;stroke-miterlimit:22.9255867;stroke-opacity:1"/><path d="M56.36 109.38s-.02.2 0 .23c.03.04.12.09.16.05.05-.05.1-.18.1-.23 0-.05-.09-.1-.11-.1-.02-.01-.15.05-.15.05zm0 0" style="fill:#191917;fill-opacity:1;fill-rule:evenodd;stroke:#140533;stroke-width:.04625333;stroke-linecap:butt;stroke-linejoin:round;stroke-miterlimit:22.9255867;stroke-opacity:1"/><path d="M56.34 109.33s-.1.27-.17.35c-.08.08-.17.13-.17.13" style="fill:none;stroke:#140533;stroke-width:.04631911;stroke-linecap:round;stroke-linejoin:round;stroke-miterlimit:22.9255867;stroke-opacity:1"/><path d="M54.25 110.37s.33-.16.76-.13M59.08 111.63s.46.71.45 1.23" style="fill:none;stroke:#140533;stroke-width:.04631911;stroke-linecap:round;stroke-linejoin:miter;stroke-miterlimit:22.9255867;stroke-opacity:1"/><path d="M59.04 112.34s.36.77.26 1.28" style="fill:none;stroke:#140533;stroke-width:.04631909;stroke-linecap:round;stroke-linejoin:miter;stroke-miterlimit:22.9255867;stroke-opacity:1"/><path d="M58.92 113.28s.27.8.13 1.3" style="fill:none;stroke:#140533;stroke-width:.04631897;stroke-linecap:round;stroke-linejoin:miter;stroke-miterlimit:22.9255867;stroke-opacity:1"/><path d="M58.67 114.15s.06.85-.2 1.29" style="fill:none;stroke:#140533;stroke-width:.0463191;stroke-linecap:round;stroke-linejoin:miter;stroke-miterlimit:22.9255867;stroke-opacity:1"/><path d="M56.28 116.5s-.26-.4-.4-.7c-.13-.3-.2-.7-.2-.7" style="fill:none;stroke:#140533;stroke-width:.04631911;stroke-linecap:round;stroke-linejoin:miter;stroke-miterlimit:22.9255867;stroke-opacity:1"/><path d="M50.41 117.89s1-.44 1.2-.98c.24-.57.67-.16 1.17.04" style="fill:none;stroke:#140533;stroke-width:.04632186;stroke-linecap:butt;stroke-linejoin:miter;stroke-miterlimit:22.9255867;stroke-opacity:1"/><path d="M57.15 107.38s.2-.43.14-.71" style="fill:none;stroke:#140533;stroke-width:.04636596;stroke-linecap:round;stroke-linejoin:miter;stroke-miterlimit:22.9255867;stroke-opacity:1"/><path d="M57.04 107.06s.1-.46-.02-.73M57.22 107.65s.27-.38.27-.67" style="fill:none;stroke:#140533;stroke-width:.04636583;stroke-linecap:round;stroke-linejoin:miter;stroke-miterlimit:22.9255867;stroke-opacity:1"/><path d="M59.68 108.8s-.3.37-.57.45" style="fill:none;stroke:#140533;stroke-width:.04636598;stroke-linecap:round;stroke-linejoin:miter;stroke-miterlimit:22.9255867;stroke-opacity:1"/><path d="M59.35 108.85s-.38.29-.67.3" style="fill:none;stroke:#140533;stroke-width:.04636557;stroke-linecap:round;stroke-linejoin:miter;stroke-miterlimit:22.9255867;stroke-opacity:1"/><path d="M59.96 108.75s-.23.42-.49.54" style="fill:none;stroke:#140533;stroke-width:.04636576;stroke-linecap:round;stroke-linejoin:miter;stroke-miterlimit:22.9255867;stroke-opacity:1"/><path d="M56.28 116.49s-.29-.15-.42-.3" style="fill:none;stroke:#140533;stroke-width:.04633537;stroke-linecap:round;stroke-linejoin:miter;stroke-miterlimit:22.9255867;stroke-opacity:1"/></svg>