<svg xmlns="http://www.w3.org/2000/svg" width="210mm" height="297mm" viewBox="0 0 210 297"><path d="m49.75 136.91 4.53.26-.02 3.51-4.53-.43zm0 0" style="fill:none;stroke:#140533;stroke-width:.10847642;stroke-linecap:round;stroke-linejoin:round;stroke-miterlimit:22.9255867;stroke-opacity:1"/><path d="m55.63 137.1-1.36.07.01 3.51 1.34-.2zm0 0" style="fill:none;stroke:#140533;stroke-width:.10823061;stroke-linecap:round;stroke-linejoin:round;stroke-miterlimit:22.9255867;stroke-opacity:1"/><path d="M50.44 136.95s-.45-.23-.32-.59.66-.43.66-.43l3.63.14.9-.05s.3.17.31.5c.01.32-.34.6-.34.6" style="fill:none;stroke:#140533;stroke-width:.10847642;stroke-linecap:round;stroke-linejoin:round;stroke-miterlimit:22.9255867;stroke-opacity:1"/><path d="M54.4 136.07c-.04.15-.16.7 0 1.06M50.78 135.93v-.27l3.63.16.9-.04v.24M54.4 135.82v.25" style="fill:none;stroke:#140533;stroke-width:.10847642;stroke-linecap:round;stroke-linejoin:round;stroke-miterlimit:22.9255867;stroke-opacity:1"/><path d="M51.37 135.22s-.43-.15-.32-.38c.1-.23.44-.25.44-.25l2.96.09.65-.03s.24.1.24.31c.01.2-.26.39-.26.39" style="fill:none;stroke:#140533;stroke-width:.10873945;stroke-linecap:round;stroke-linejoin:round;stroke-miterlimit:22.9255867;stroke-opacity:1"/><path d="M54.45 134.68c-.03.09-.1.45.03.68" style="fill:none;stroke:#140533;stroke-width:.10873945;stroke-linecap:round;stroke-linejoin:round;stroke-miterlimit:22.9255867;stroke-opacity:1"/><path d="M51.25 135.65s.19-.07.2-.19c.01-.12-.08-.24-.08-.24l3.1.14.6-.01s-.06.14-.05.22c.02.07.3.2.3.2" style="fill:none;stroke:#140533;stroke-width:.10847642;stroke-linecap:round;stroke-linejoin:round;stroke-miterlimit:22.9255867;stroke-opacity:1"/><path d="M54.48 135.36s-.1.14-.09.22c0 .1.04.2.04.2" style="fill:none;stroke:#140533;stroke-width:.10847642;stroke-linecap:round;stroke-linejoin:round;stroke-miterlimit:22.9255867;stroke-opacity:1"/><path d="M56.26 92.94s.3-.14.28-.34c0-.21-.18-.33-.18-.33l-.71-.04-3.17.23s-.36.06-.48.3c-.11.24.23.41.23.41l3.44-.26zm0 0" style="fill:none;stroke:#140533;stroke-width:.10831442;stroke-linecap:round;stroke-linejoin:round;stroke-miterlimit:22.9255867;stroke-opacity:1"/><path d="M55.65 92.23c-.04.1-.11.46.02.68" style="fill:none;stroke:#140533;stroke-width:.10876445;stroke-linecap:round;stroke-linejoin:round;stroke-miterlimit:22.9255867;stroke-opacity:1"/><path d="M56.26 92.94v.27l-.6-.04-3.32.28-.02-.29M55.65 92.91v.26" style="fill:none;stroke:#140533;stroke-width:.10831442;stroke-linecap:round;stroke-linejoin:round;stroke-miterlimit:22.9255867;stroke-opacity:1"/><path d="M51.4 90.95v.3l1.06-.1.02 1.31 3.17-.23.03-1.44 19-1.96v1.43l3.65-.35.02-1.45 1.46-.15V88zM52.5 93.44l-1.11 41.17M55.66 93.18l-1.2 41.5.64-.03 1.16-41.44zm0 0" style="fill:none;stroke:#140533;stroke-width:.10847642;stroke-linecap:round;stroke-linejoin:round;stroke-miterlimit:22.9255867;stroke-opacity:1"/><path d="m56.36 92.27.03-1.28-.71-.2" style="fill:none;stroke:#140533;stroke-width:.10847642;stroke-linecap:round;stroke-linejoin:round;stroke-miterlimit:22.9255867;stroke-opacity:1"/><path d="m72.63 138.03 5.12.26v3.77l-5.1-.32zm0 0" style="fill:none;stroke:#140533;stroke-width:.10877539;stroke-linecap:round;stroke-linejoin:round;stroke-miterlimit:22.9255867;stroke-opacity:1"/><path d="m79 138.23-1.25.06v3.77l1.26-.14zm0 0" style="fill:none;stroke:#140533;stroke-width:.10875525;stroke-linecap:round;stroke-linejoin:round;stroke-miterlimit:22.9255867;stroke-opacity:1"/><path d="M73.2 138.06s-.6-.27-.47-.66.51-.43.51-.43l4.52.2.92-.05s.3.25.31.6c.02.34-.31.53-.31.53" style="fill:none;stroke:#140533;stroke-width:.10877539;stroke-linecap:round;stroke-linejoin:round;stroke-miterlimit:22.9255867;stroke-opacity:1"/><path d="M77.76 137.16c-.04.16-.15.83.02 1.22M73.62 136.93v-.2l4.15.18.9-.04v.28M77.77 136.9l-.02.3" style="fill:none;stroke:#140533;stroke-width:.10877539;stroke-linecap:round;stroke-linejoin:round;stroke-miterlimit:22.9255867;stroke-opacity:1"/><path d="M74.12 136.23c-.53-.08-.66-.78-.16-.76l3.82.15h.64s.11.18.13.4c.01.22-.26.36-.26.36" style="fill:none;stroke:#140533;stroke-width:.10869924;stroke-linecap:round;stroke-linejoin:round;stroke-miterlimit:22.9255867;stroke-opacity:1"/><path d="M77.78 135.62c-.04.1-.11.51.02.76" style="fill:none;stroke:#140533;stroke-width:.10869924;stroke-linecap:round;stroke-linejoin:round;stroke-miterlimit:22.9255867;stroke-opacity:1"/><path d="M73.62 136.72s.5-.2.5-.33c.02-.13-.03-.16-.03-.16l3.71.15.57-.03s-.12.23 0 .35c.12.12.14.15.27.18" style="fill:none;stroke:#140533;stroke-width:.10877539;stroke-linecap:round;stroke-linejoin:round;stroke-miterlimit:22.9255867;stroke-opacity:1"/><path d="M77.8 136.38s-.09.2-.08.3c0 .1.03.23.03.23" style="fill:none;stroke:#140533;stroke-width:.10877539;stroke-linecap:round;stroke-linejoin:round;stroke-miterlimit:22.9255867;stroke-opacity:1"/><path d="M79.08 90.7s.18-.16.17-.38c-.01-.22-.14-.27-.14-.27l-.78-.14-3.64.35s-.3.04-.4.3c-.12.26.3.49.3.49l3.74-.41zm0 0" style="fill:none;stroke:#140533;stroke-width:.10866071;stroke-linecap:round;stroke-linejoin:round;stroke-miterlimit:22.9255867;stroke-opacity:1"/><path d="M78.28 89.9c-.04.1-.1.5.04.73" style="fill:none;stroke:#140533;stroke-width:.10816178;stroke-linecap:round;stroke-linejoin:round;stroke-miterlimit:22.9255867;stroke-opacity:1"/><path d="m79.08 90.7-.04.3-.74-.01-3.69.37v-.32" style="fill:none;stroke:#140533;stroke-width:.10866071;stroke-linecap:round;stroke-linejoin:round;stroke-miterlimit:22.9255867;stroke-opacity:1"/><path d="m78.26 90.63.01.4" style="fill:none;stroke:#140533;stroke-width:.10818687;stroke-linecap:round;stroke-linejoin:round;stroke-miterlimit:22.9255867;stroke-opacity:1"/><path d="m74.78 91.34-.5 44.1M78.3 90.99l-.52 44.64.64-.01.43-44.6zM78.97 90.02l.02-1.36-.6-.22" style="fill:none;stroke:#140533;stroke-width:.10877539;stroke-linecap:round;stroke-linejoin:round;stroke-miterlimit:22.9255867;stroke-opacity:1"/><path d="m55.62 140.49 2.56.23M71.04 141.2l1.61.19" style="fill:none;stroke:#140533;stroke-width:.10847642;stroke-linecap:round;stroke-linejoin:round;stroke-miterlimit:22.9255867;stroke-opacity:1"/><path d="m79.02 138.23 1.52.06-.01 3.77-1.52-.14zm0 0" style="fill:none;stroke:#140533;stroke-width:.10839371;stroke-linecap:round;stroke-linejoin:round;stroke-miterlimit:22.9255867;stroke-opacity:1"/><path d="m85.36 138-4.83.3v3.76l4.82-.42zm0 0" style="fill:none;stroke:#140533;stroke-width:.10877539;stroke-linecap:round;stroke-linejoin:round;stroke-miterlimit:22.9255867;stroke-opacity:1"/><path d="M84.6 138.05s.56-.27.44-.66c-.12-.38-.48-.42-.48-.42l-4.24.19-.87-.04s-.27.24-.29.59c-.01.35.3.53.3.53" style="fill:none;stroke:#140533;stroke-width:.10843849;stroke-linecap:round;stroke-linejoin:round;stroke-miterlimit:22.9255867;stroke-opacity:1"/><path d="M80.32 137.16c.2.16.2.74.05 1.13M84.2 136.92v-.2l-3.9.18-.84-.03v.27M80.31 136.89l.01.3" style="fill:none;stroke:#140533;stroke-width:.10843849;stroke-linecap:round;stroke-linejoin:round;stroke-miterlimit:22.9255867;stroke-opacity:1"/><path d="M83.74 136.22c.5-.08.62-.78.14-.76l-3.58.16h-.6s-.11.17-.12.4c-.01.22.24.36.24.36" style="fill:none;stroke:#140533;stroke-width:.10842388;stroke-linecap:round;stroke-linejoin:round;stroke-miterlimit:22.9255867;stroke-opacity:1"/><path d="M80.3 135.62c.03.1.1.5-.02.76" style="fill:none;stroke:#140533;stroke-width:.10842388;stroke-linecap:round;stroke-linejoin:round;stroke-miterlimit:22.9255867;stroke-opacity:1"/><path d="M84.2 136.72s-.46-.2-.47-.33c0-.13.04-.17.04-.17l-3.5.16-.53-.03s.12.22 0 .34c-.1.12-.13.15-.25.18" style="fill:none;stroke:#140533;stroke-width:.10843849;stroke-linecap:round;stroke-linejoin:round;stroke-miterlimit:22.9255867;stroke-opacity:1"/><path d="M80.28 136.38s.08.2.08.3c0 .09-.03.22-.03.22" style="fill:none;stroke:#140533;stroke-width:.10843849;stroke-linecap:round;stroke-linejoin:round;stroke-miterlimit:22.9255867;stroke-opacity:1"/><path d="M80.33 90.73s-.19-.16-.17-.38c0-.22.14-.27.14-.27l.75-.13 3.56.43s.27.07.33.32c.05.24-.25.38-.25.38l-3.64-.4zm0 0" style="fill:none;stroke:#140533;stroke-width:.10840319;stroke-linecap:round;stroke-linejoin:round;stroke-miterlimit:22.9255867;stroke-opacity:1"/><path d="M81.1 89.93c.04.1.1.5-.04.73" style="fill:none;stroke:#140533;stroke-width:.10820707;stroke-linecap:round;stroke-linejoin:round;stroke-miterlimit:22.9255867;stroke-opacity:1"/><path d="m80.33 90.73.03.3.72-.01 3.59.37v-.31" style="fill:none;stroke:#140533;stroke-width:.10840319;stroke-linecap:round;stroke-linejoin:round;stroke-miterlimit:22.9255867;stroke-opacity:1"/><path d="M81.11 90.67v.39" style="fill:none;stroke:#140533;stroke-width:.10814653;stroke-linecap:round;stroke-linejoin:round;stroke-miterlimit:22.9255867;stroke-opacity:1"/><path d="M100.76 93.57s-.16-.13-.15-.32c.01-.19.12-.23.12-.23l.65-.1 3.04.43s.23.07.28.28c.05.2-.2.31-.2.31l-3.12-.4zm0 0" style="fill:none;stroke:#140533;stroke-width:.10854109;stroke-linecap:round;stroke-linejoin:round;stroke-miterlimit:22.9255867;stroke-opacity:1"/><path d="M101.42 92.91c.03.09.09.42-.03.62" style="fill:none;stroke:#140533;stroke-width:.10829656;stroke-linecap:round;stroke-linejoin:round;stroke-miterlimit:22.9255867;stroke-opacity:1"/><path d="m100.76 93.57.03.26h.61l3.07.38v-.27" style="fill:none;stroke:#140533;stroke-width:.10854109;stroke-linecap:round;stroke-linejoin:round;stroke-miterlimit:22.9255867;stroke-opacity:1"/><path d="M101.43 93.53v.33" style="fill:none;stroke:#140533;stroke-width:.10876937;stroke-linecap:round;stroke-linejoin:round;stroke-miterlimit:22.9255867;stroke-opacity:1"/><path d="m100.24 136.72 1.3.05-.01 3.46-1.31-.11zm0 0" style="fill:none;stroke:#140533;stroke-width:.10893565;stroke-linecap:round;stroke-linejoin:round;stroke-miterlimit:22.9255867;stroke-opacity:1"/><path d="m105.29 136.54-3.76.24v3.45l3.75-.28zm0 0" style="fill:none;stroke:#140533;stroke-width:.10867433;stroke-linecap:round;stroke-linejoin:round;stroke-miterlimit:22.9255867;stroke-opacity:1"/><path d="M105.02 136.56s.47-.23.37-.57c-.1-.33-.4-.36-.4-.36l-3.64.16-.74-.03s-.23.2-.25.5c-.01.31.26.47.26.47" style="fill:none;stroke:#140533;stroke-width:.10832835;stroke-linecap:round;stroke-linejoin:round;stroke-miterlimit:22.9255867;stroke-opacity:1"/><path d="M101.35 135.8c.18.13.18.63.05.97M104.67 135.59v-.18l-3.33.16-.72-.03v.24M101.35 135.56v.26" style="fill:none;stroke:#140533;stroke-width:.10832835;stroke-linecap:round;stroke-linejoin:round;stroke-miterlimit:22.9255867;stroke-opacity:1"/><path d="M104.28 134.98c.42-.06.53-.67.12-.65l-3.06.14h-.52s-.1.15-.1.34c-.01.2.2.31.2.31" style="fill:none;stroke:#140533;stroke-width:.10847588;stroke-linecap:round;stroke-linejoin:round;stroke-miterlimit:22.9255867;stroke-opacity:1"/><path d="M101.34 134.47c.02.08.08.43-.02.65" style="fill:none;stroke:#140533;stroke-width:.10847588;stroke-linecap:round;stroke-linejoin:round;stroke-miterlimit:22.9255867;stroke-opacity:1"/><path d="M104.67 135.41s-.4-.17-.4-.28c0-.12.03-.15.03-.15l-2.98.14-.46-.03s.1.2 0 .3c-.09.1-.11.13-.21.15" style="fill:none;stroke:#140533;stroke-width:.10832835;stroke-linecap:round;stroke-linejoin:round;stroke-miterlimit:22.9255867;stroke-opacity:1"/><path d="M101.32 135.12s.07.17.07.25c0 .09-.03.2-.03.2" style="fill:none;stroke:#140533;stroke-width:.10832835;stroke-linecap:round;stroke-linejoin:round;stroke-miterlimit:22.9255867;stroke-opacity:1"/><path d="m79.8 88.31 1.32.2-.02 1.42 3.43.44.02-1.38 16.86 2.57-.03 1.37 3.04.42v-1.18l-.53-.09v-.32l.03-.17L79.81 88zm0 0" style="fill:none;stroke:#140533;stroke-width:.10847642;stroke-linecap:round;stroke-linejoin:round;stroke-miterlimit:22.9255867;stroke-opacity:1"/><path d="m80.48 90.08-.01-1.4.6-.18M80.47 91.03l-.62 44.56.45.03.78-44.6zM84.46 91.37l-.58 44.09" style="fill:none;stroke:#140533;stroke-width:.10877539;stroke-linecap:round;stroke-linejoin:round;stroke-miterlimit:22.9255867;stroke-opacity:1"/><path d="m104.29 94.19-.12 40.15" style="fill:none;stroke:#140533;stroke-width:.10860136;stroke-linecap:round;stroke-linejoin:round;stroke-miterlimit:22.9255867;stroke-opacity:1"/><path d="m101.4 93.83-.05 40.63M100.89 93.83l-.05 40.63" style="fill:none;stroke:#140533;stroke-width:.10830607;stroke-linecap:round;stroke-linejoin:round;stroke-miterlimit:22.9255867;stroke-opacity:1"/><path d="m100.8 92.96-.01-1.18.6-.18" style="fill:none;stroke:#140533;stroke-width:.10877539;stroke-linecap:round;stroke-linejoin:round;stroke-miterlimit:22.9255867;stroke-opacity:1"/><path d="m56.39 90.99 18.29-1.86M78.99 88.66l.82-.08.66.1M100.78 91.78l-16.24-2.47" style="fill:none;stroke:#140533;stroke-width:.10847642;stroke-linecap:round;stroke-linejoin:round;stroke-miterlimit:22.9255867;stroke-opacity:1"/><path d="M88.08 99.26c.66.76 2.4 2.65 2.38 5.9l-.26 34.71 7.72.54.18-35.64c0-.62-.56-8.12-5.8-8.59-2.6-.23-4.37 2.94-4.22 3.08zm0 0" style="fill:none;stroke:#140533;stroke-width:.10862157;stroke-linecap:round;stroke-linejoin:round;stroke-miterlimit:22.9255867;stroke-opacity:1"/><path d="M51.4 90.95s-.76.06-.83-.43c-.07-.49.37-.63.64-.69.28-.06.4-.03.4-.03l28.22-3.1 24.07 3.8s.07.29.07.54c0 .26-.08.55-.08.55" style="fill:none;stroke:#140533;stroke-width:.10847642;stroke-linecap:round;stroke-linejoin:round;stroke-miterlimit:22.9255867;stroke-opacity:1"/><path d="m51.4 89.8.02-.28 28.37-3.16 24.12 3.77 51.04-4.66 6.69 1.64v.29l-6.68-1.6-51.06 4.7.01-.37" style="fill:none;stroke:#140533;stroke-width:.10847642;stroke-linecap:round;stroke-linejoin:round;stroke-miterlimit:22.9255867;stroke-opacity:1"/><path d="m59.5 88.62 1.01-.1.14-7.5v-.33l-.03-1.12.05-1.05-.03-.28v-.94l-1-.18-.02 1.01.04.27-.02 1 .01.37v.75l.02.35zm0 0" style="fill:none;stroke:#140533;stroke-width:.10847642;stroke-linecap:round;stroke-linejoin:round;stroke-miterlimit:22.9255867;stroke-opacity:1"/><path d="m59.63 77.12-10.35 1.5v.98l10.34-1.47 1.02.11" style="fill:none;stroke:#140533;stroke-width:.10847642;stroke-linecap:round;stroke-linejoin:round;stroke-miterlimit:22.9255867;stroke-opacity:1"/><path d="m50.66 79.65-.03.99 9-1.24 1 .17 9.8-1.43-.55-.26 10.14-1.33 9.22 1.8-.78.12 8.79 1.8 1.23-.12 7.78 1.6v-.94l-7.75-1.55-1.21.11-7.98-1.77.02-.25-9.3-1.85-10.26 1.42v.28l-9.11 1.32-1-.12zm0 0" style="fill:none;stroke:#140533;stroke-width:.10847642;stroke-linecap:round;stroke-linejoin:round;stroke-miterlimit:22.9255867;stroke-opacity:1"/><path d="m80.02 75.5.01 1.04" style="fill:none;stroke:#140533;stroke-width:.10819507;stroke-linecap:round;stroke-linejoin:round;stroke-miterlimit:22.9255867;stroke-opacity:1"/><path d="m69.77 76.88.01 1M89.32 77.32l-.01 1.06" style="fill:none;stroke:#140533;stroke-width:.10858935;stroke-linecap:round;stroke-linejoin:round;stroke-miterlimit:22.9255867;stroke-opacity:1"/><path d="m97.27 79.37-.02.9M98.51 79.25l-.03.9M60.64 77.3l7.73-1.16v-.34l11.74-1.7 10.65 2.24.01.4 6.75 1.37 1.07-.15 9.13 1.91-.03.96-9.13-1.87-1.1.14-7.69-1.63.95-.18-10.65-2.15-11.71 1.69.95.22-8.67 1.2zM62.13 87l.07-4.22 9.25-1.16" style="fill:none;stroke:#140533;stroke-width:.10847642;stroke-linecap:round;stroke-linejoin:round;stroke-miterlimit:22.9255867;stroke-opacity:1"/><path d="M50.8 80.61c.26 0 .46.03.51.28l8.34-1.12.98.1 10.56-1.47-.6-.22L80 76.9l8.23 1.63-.3.24 9.22 1.85 1.16-.13 7.27 1.47s.06-.12.11-.16a.48.48 0 0 1 .32-.06c.15.02.19 0 .19 0" style="fill:none;stroke:#140533;stroke-width:.10847642;stroke-linecap:round;stroke-linejoin:round;stroke-miterlimit:22.9255867;stroke-opacity:1"/><path d="M51.6 80.86s.46.1.56.34c.1.25.07.32.07.32l7.42-1 1 .17 11.17-1.55v-.3l8.08-1.1 7.7 1.51" style="fill:none;stroke:#140533;stroke-width:.10847642;stroke-linecap:round;stroke-linejoin:round;stroke-miterlimit:22.9255867;stroke-opacity:1"/><path d="m104.51 82.5-6.22-1.2-1.15.15-17.27-3.33-8.05 1.02M52.57 81.47l-.02.31 7.11-1 1 .2 11.5-1.57" style="fill:none;stroke:#140533;stroke-width:.10847642;stroke-linecap:round;stroke-linejoin:round;stroke-miterlimit:22.9255867;stroke-opacity:1"/><path d="m86.96 79.86 10.16 1.91 1.08-.13 5.94 1.2.39-.08-.02-.25h.32s-.06-.27.13-.38c.18-.12.63-.17.63-.17M52.92 81.73l-.28 7.66M72.17 79.1l-.14 8.13M71.06 78.35s.36.04.4.23l.03.3.33-.05M80.01 76.9s-.11.22-.11.53v.31M87.58 79.28s.13-.31.19-.38.43-.38.43-.38" style="fill:none;stroke:#140533;stroke-width:.10847642;stroke-linecap:round;stroke-linejoin:round;stroke-miterlimit:22.9255867;stroke-opacity:1"/><path d="m97.25 80.26-.09.36-.02.83-.02.32M98.48 80.15l-.16.34s-.04.1-.09.36c-.04.27.06.45.06.45s-.13.19-.12.27l.01.07M79.9 77.74l-.03.38-.08 8.24.04.34s.04.13.02.55c-.01.41-.04.74-.04.74M87.6 79.25s-.18-.06-.36.07c-.19.13-.22.17-.22.17l-.1 7.99M97.12 81.77l-.08 7.29 1.13.18.01-7.6zM97.52 78.1l-.07 1M98.6 77.96l-.04 1M104.14 82.84l.05 1.44-1.98.18v.7l.47.12-.03.54s.34.06.53.35.25 1.13.25 1.13.23.02.26.15c.04.14.5.27.5.27l.05 2.38" style="fill:none;stroke:#140533;stroke-width:.10847642;stroke-linecap:round;stroke-linejoin:round;stroke-miterlimit:22.9255867;stroke-opacity:1"/><path d="m104.19 84.28 51.38-5.59.04.8-53.4 5.67M155.61 79.48l7.6 2.1-.07-.7-7.57-2.19M162.56 81.64l.04.72-7.27-2.03-.02-.64zM162.08 82.28s-.15.1-.14.2l-.01.12-6.9-1.85s-.02-.28.14-.35l.16-.07" style="fill:none;stroke:#140533;stroke-width:.10847642;stroke-linecap:round;stroke-linejoin:round;stroke-miterlimit:22.9255867;stroke-opacity:1"/><path d="M154.74 82.15s-.05-.62.04-.96c.09-.34.26-.44.26-.44" style="fill:none;stroke:#140533;stroke-width:.10847642;stroke-linecap:round;stroke-linejoin:round;stroke-miterlimit:22.9255867;stroke-opacity:1"/><path d="M161.93 82.6s-.38.07-.5.41c-.13.35-.09.83-.09.83l-6.6-1.69-51.31 5.15M155.04 80.75l-51.89 5.38M102.65 85.82l52.68-5.49M97.92 140.41l2.3-.29" style="fill:none;stroke:#140533;stroke-width:.10847642;stroke-linecap:round;stroke-linejoin:round;stroke-miterlimit:22.9255867;stroke-opacity:1"/><path d="M161.03 83.77v.4l-6.4-1.68-50.8 5.09" style="fill:none;stroke:#140533;stroke-width:.10847642;stroke-linecap:round;stroke-linejoin:round;stroke-miterlimit:22.9255867;stroke-opacity:1"/><path d="M161 84.16h-1.03l.05 2.56M159.97 84.17l-5.94-1.5.07 2.88M103.9 91.76l51.1-4.58 6.77 1.52v.32l-6.74-1.5-51.13 4.52zM155.05 85.82s.37.28.28.74c-.1.46-.33.62-.33.62" style="fill:none;stroke:#140533;stroke-width:.10847642;stroke-linecap:round;stroke-linejoin:round;stroke-miterlimit:22.9255867;stroke-opacity:1"/><path d="M161.68 87.42s.51.34.45.74c-.07.4-.36.56-.36.56M161.77 89.02l-1.73.1-5.89-1.32 1.38 50.72-.24.1.03 3.82 6.42-.93-1.7-52.4M110.48 91.46l.02 1.16 4.8-.39v-1.2l.9.09.02 1.26-.91-.15" style="fill:none;stroke:#140533;stroke-width:.10847642;stroke-linecap:round;stroke-linejoin:round;stroke-miterlimit:22.9255867;stroke-opacity:1"/><path d="m110.5 92.62-.7.06-.01.31 5.6-.46 1.22.22-.03-.32-1.28-.2" style="fill:none;stroke:#140533;stroke-width:.10847642;stroke-linecap:round;stroke-linejoin:round;stroke-miterlimit:22.9255867;stroke-opacity:1"/><path d="M109.93 92.98s-.14.68.25.93c.38.26.74.25.74.25l4.3-.32.67.1s.46-.27.57-.66c.12-.38.1-.54.1-.54" style="fill:none;stroke:#140533;stroke-width:.10847642;stroke-linecap:round;stroke-linejoin:round;stroke-miterlimit:22.9255867;stroke-opacity:1"/><path d="M115.39 92.53s.1.6-.04.96l-.13.35M110.95 94.16v.29l4.26-.32.67.1-.01-.29" style="fill:none;stroke:#140533;stroke-width:.10847642;stroke-linecap:round;stroke-linejoin:round;stroke-miterlimit:22.9255867;stroke-opacity:1"/><path d="m111.2 94.43.01.35 3.99-.35.6.1-.02-.3" style="fill:none;stroke:#140533;stroke-width:.10847642;stroke-linecap:round;stroke-linejoin:round;stroke-miterlimit:22.9255867;stroke-opacity:1"/><path d="M111.38 94.76v1.3l3.8-.3v-1.32M115.73 94.52v1.33" style="fill:none;stroke:#140533;stroke-width:.10847642;stroke-linecap:round;stroke-linejoin:round;stroke-miterlimit:22.9255867;stroke-opacity:1"/><path d="M111.38 96.06s-.52.01-.42.35c.1.34.48.35.48.35l3.75-.26.53.08s.2-.07.25-.26c.04-.12-.01-.44-.23-.47l-.57-.08" style="fill:none;stroke:#140533;stroke-width:.10847642;stroke-linecap:round;stroke-linejoin:round;stroke-miterlimit:22.9255867;stroke-opacity:1"/><path d="m111.4 96.76.01.25 3.73-.26.6.1v-.28M115.45 92.25l-.05.28M115.25 93.85v.27M115.2 94.43l-.01-.3" style="fill:none;stroke:#140533;stroke-width:.10847642;stroke-linecap:round;stroke-linejoin:round;stroke-miterlimit:22.9255867;stroke-opacity:1"/><path d="M115.17 95.77c.06.11.15.5-.02.74l-.01.24" style="fill:none;stroke:#140533;stroke-width:.10847642;stroke-linecap:round;stroke-linejoin:round;stroke-miterlimit:22.9255867;stroke-opacity:1"/><path d="m138.8 89 .01 1.24 5.62-.42v-1.28l1.05.18.03 1.26-1.08-.16" style="fill:none;stroke:#140533;stroke-width:.1087131;stroke-linecap:round;stroke-linejoin:round;stroke-miterlimit:22.9255867;stroke-opacity:1"/><path d="m138.81 90.24-.81.07-.02.33 6.55-.5 1.43.24-.04-.34-1.49-.22" style="fill:none;stroke:#140533;stroke-width:.1087131;stroke-linecap:round;stroke-linejoin:round;stroke-miterlimit:22.9255867;stroke-opacity:1"/><path d="M138.15 90.63s-.16.72.29 1c.45.27.87.26.87.26l5.02-.34.78.11s.54-.3.68-.71c.13-.42.11-.58.11-.58" style="fill:none;stroke:#140533;stroke-width:.1087131;stroke-linecap:round;stroke-linejoin:round;stroke-miterlimit:22.9255867;stroke-opacity:1"/><path d="M144.53 90.15s.12.64-.04 1.02l-.16.38M139.34 91.89v.31l4.98-.35.79.12-.02-.31" style="fill:none;stroke:#140533;stroke-width:.1087131;stroke-linecap:round;stroke-linejoin:round;stroke-miterlimit:22.9255867;stroke-opacity:1"/><path d="M139.64 92.18v.37l4.67-.37.7.11-.02-.33" style="fill:none;stroke:#140533;stroke-width:.1087131;stroke-linecap:round;stroke-linejoin:round;stroke-miterlimit:22.9255867;stroke-opacity:1"/><path d="M139.85 92.54v1.38l4.43-.3v-1.43M144.93 92.28v1.42" style="fill:none;stroke:#140533;stroke-width:.1087131;stroke-linecap:round;stroke-linejoin:round;stroke-miterlimit:22.9255867;stroke-opacity:1"/><path d="M139.85 93.92s-.62.02-.5.38.56.38.56.38l4.38-.28.62.08s.24-.07.3-.27c.05-.13-.01-.48-.27-.51l-.66-.09" style="fill:none;stroke:#140533;stroke-width:.1087131;stroke-linecap:round;stroke-linejoin:round;stroke-miterlimit:22.9255867;stroke-opacity:1"/><path d="M139.88 94.67v.28l4.36-.28.7.1v-.3M144.6 89.85l-.06.3M144.37 91.56v.29M144.31 92.18v-.32" style="fill:none;stroke:#140533;stroke-width:.1087131;stroke-linecap:round;stroke-linejoin:round;stroke-miterlimit:22.9255867;stroke-opacity:1"/><path d="M144.28 93.61c.07.12.17.55-.03.8l-.01.26" style="fill:none;stroke:#140533;stroke-width:.1087131;stroke-linecap:round;stroke-linejoin:round;stroke-miterlimit:22.9255867;stroke-opacity:1"/><path d="m111.61 97 .15 37.47M115.14 96.75l.15 37.85.74-.01-.3-37.75zm0 0" style="fill:none;stroke:#140533;stroke-width:.10847642;stroke-linecap:round;stroke-linejoin:round;stroke-miterlimit:22.9255867;stroke-opacity:1"/><path d="m140.09 94.95.87 40.5M144.24 94.67l.87 40.86.67.02-.85-40.78zm0 0" style="fill:none;stroke:#140533;stroke-width:.10875849;stroke-linecap:round;stroke-linejoin:round;stroke-miterlimit:22.9255867;stroke-opacity:1"/><path d="m85.35 140.96 1.02-.16.23-35.63c0-1.35.32-3.22.68-4.28.35-1.06.99-2.12.99-2.12" style="fill:none;stroke:#140533;stroke-width:.10847642;stroke-linecap:round;stroke-linejoin:round;stroke-miterlimit:22.9255867;stroke-opacity:1"/><path d="m110.35 136.94 4.8.25-.03 3.63-4.75-.43zm0 0" style="fill:none;stroke:#140533;stroke-width:.1084043;stroke-linecap:round;stroke-linejoin:round;stroke-miterlimit:22.9255867;stroke-opacity:1"/><path d="M110.91 136.97s-.59-.26-.46-.64c.12-.37.5-.41.5-.41l4.53.18h.45" style="fill:none;stroke:#140533;stroke-width:.1084043;stroke-linecap:round;stroke-linejoin:round;stroke-miterlimit:22.9255867;stroke-opacity:1"/><path d="M115.48 136.1c.2.21.17.37.12.74M111.34 135.88v-.2l4.15.18" style="fill:none;stroke:#140533;stroke-width:.1084043;stroke-linecap:round;stroke-linejoin:round;stroke-miterlimit:22.9255867;stroke-opacity:1"/><path d="M115.84 135.85h-.36l-.01.29" style="fill:none;stroke:#140533;stroke-width:.1084043;stroke-linecap:round;stroke-linejoin:round;stroke-miterlimit:22.9255867;stroke-opacity:1"/><path d="M111.83 135.2c-.52-.08-.66-.76-.15-.74l3.61.14" style="fill:none;stroke:#140533;stroke-width:.10846434;stroke-linecap:round;stroke-linejoin:round;stroke-miterlimit:22.9255867;stroke-opacity:1"/><path d="M111.34 135.68s.5-.2.5-.32c.01-.13-.03-.17-.03-.17l3.3.14" style="fill:none;stroke:#140533;stroke-width:.1084043;stroke-linecap:round;stroke-linejoin:round;stroke-miterlimit:22.9255867;stroke-opacity:1"/><path d="m139.43 138.11 6.2.14v3.84l-6.18-.32zm0 0" style="fill:none;stroke:#140533;stroke-width:.1085061;stroke-linecap:round;stroke-linejoin:round;stroke-miterlimit:22.9255867;stroke-opacity:1"/><path d="m146.43 138.2-.8.05v3.83l.8-.1zm0 0" style="fill:none;stroke:#140533;stroke-width:.10864712;stroke-linecap:round;stroke-linejoin:round;stroke-miterlimit:22.9255867;stroke-opacity:1"/><path d="M140.04 138.13s-.64-.27-.5-.66c.13-.4.55-.46.55-.46l4.97.11 1-.06s.33.25.35.6c.02.36-.35.56-.35.56" style="fill:none;stroke:#140533;stroke-width:.1085061;stroke-linecap:round;stroke-linejoin:round;stroke-miterlimit:22.9255867;stroke-opacity:1"/><path d="M145.33 137.1c.25.24.3.76.09 1.14M140.52 136.96v-.21l4.55.11.99-.05v.28M145.34 136.85v.26" style="fill:none;stroke:#140533;stroke-width:.1085061;stroke-linecap:round;stroke-linejoin:round;stroke-miterlimit:22.9255867;stroke-opacity:1"/><path d="M141.05 136.23c-.57-.07-.72-.8-.16-.78l4.18.09.7-.02s.14.18.15.4c.01.24-.28.39-.28.39" style="fill:none;stroke:#140533;stroke-width:.10832985;stroke-linecap:round;stroke-linejoin:round;stroke-miterlimit:22.9255867;stroke-opacity:1"/><path d="M145.12 135.53c.13.1.26.28.1.78" style="fill:none;stroke:#140533;stroke-width:.10832985;stroke-linecap:round;stroke-linejoin:round;stroke-miterlimit:22.9255867;stroke-opacity:1"/><path d="M140.52 136.75s.54-.21.55-.35c0-.13-.04-.17-.04-.17l4.07.09.63-.04s-.14.23 0 .35c.12.12.15.15.29.18" style="fill:none;stroke:#140533;stroke-width:.1085061;stroke-linecap:round;stroke-linejoin:round;stroke-miterlimit:22.9255867;stroke-opacity:1"/><path d="M145.22 136.31c-.06.23-.08.32.12.54" style="fill:none;stroke:#140533;stroke-width:.1085061;stroke-linecap:round;stroke-linejoin:round;stroke-miterlimit:22.9255867;stroke-opacity:1"/><path d="m122.05 134.65-1.48.11-.19-29.63c-.02-3.22 1.22-5.02 2.43-6.6 4.06-5.27 12.54-2.34 12.67 6.37l.46 30.28-.8-.03.06-1.77-.37-.04s-.1-.27-.25-.34-.13-.41-.13-.41.87-.11.92-.79c.06-.67-.2-1.08-.47-1.22-.27-.14-.99-.19-1.2-.4-.2-.22-.25-.53-.25-.53s.51-.11.47-.45c-.05-.35-.5-.49-.5-.49l-5.45-.03s-.55.03-.52.36c.03.33.16.53.32.6.16.07.1.4-.03.5-.13.1-1.16.28-1.45.56-.29.29-.56 1-.15 1.48.42.47.87.37.87.37l-.06.42s-.33.07-.36.24l-.04.18h-.29l-.06 1.32-2.15-.03s-.3.15-.68.11c-.37-.04-.83-.03-.91-.04l-.41-.1zM118.94 135s-.01-.18-.29-.24c-.27-.05-2.68-.03-2.97-.01-.29.01-.54.07-.56.33-.01.25-.03.46.24.59.26.13.56.17.59.26.03.08-.02.18-.02.18s.26.02.3.04c.05.02.23.03.27.16.04.12-.15.38-.52.46-.38.07-.55.15-.67.26l-.17.16-.02 3.63.83-.05" style="fill:none;stroke:#140533;stroke-width:.10847642;stroke-linecap:round;stroke-linejoin:round;stroke-miterlimit:22.9255867;stroke-opacity:1"/><path d="M117.31 134.73s-1.26-.04-1.23.44c.03.47.02.53.19.7.17.18.53.2.67.21.07.02 5.82.31 11.04.46 4.2.12 8.07.1 8.27.09.43-.03.6-.06.7-.22.1-.15.16-.51.01-.76-.14-.24-.32-.32-.6-.3-1.39.09-4 .02-7.32 0-4.16-.04-9.4-.25-11-.3a9.94 9.94 0 0 1-.87-.06" style="fill:none;stroke:#140533;stroke-width:.10847642;stroke-linecap:round;stroke-linejoin:round;stroke-miterlimit:22.9255867;stroke-opacity:1"/><path d="M116.7 136.1s-.03.16.01.17c.05.01.29 0 .35.2.05.2-.13.4-.28.44-.15.03-.56.1-.73.39-.16.28-.15 3.2-.1 3.47.06.27 5.84 1 13.22 1 7.38 0 8.04-.14 8.04-.14l-.03-2.71c0-.42-.07-1.02-.23-1.24-.16-.21-.42-.36-.39-.56.03-.2.09-.34.23-.33.14.02-.06-.22-.06-.22" style="fill:none;stroke:#140533;stroke-width:.10847642;stroke-linecap:round;stroke-linejoin:round;stroke-miterlimit:22.9255867;stroke-opacity:1"/><path d="M116.92 136.32s7.19.39 9.87.49c1.36.05 3.09.07 4.75.1 2.17.02 4.23.03 5.23-.12M116.2 136.69s-.04.08.27.1c.3.03.3.12.3.12s1.99.34 7.14.57c5.15.23 8.75.2 10.62.15 1.86-.06 2.32-.06 2.32-.06M137.2 141.63l1.68.12h.56" style="fill:none;stroke:#140533;stroke-width:.10847642;stroke-linecap:round;stroke-linejoin:round;stroke-miterlimit:22.9255867;stroke-opacity:1"/><path d="M138.88 141.75s-.01-3.03-.08-3.44a2 2 0 0 0-.38-.8s-.1-.2-.01-.44c.08-.23.17-.24.17-.24l-.01-.27s.28-.19.22-.58a1.44 1.44 0 0 0-.18-.57l-2.02-.04" style="fill:none;stroke:#140533;stroke-width:.10847642;stroke-linecap:round;stroke-linejoin:round;stroke-miterlimit:22.9255867;stroke-opacity:1"/><path d="m138.6 135.4 1.37.02s.35.15.32.51a.68.68 0 0 1-.48.58c-.17.05-1.12.08-1.12.08l-1.91-.04" style="fill:none;stroke:#140533;stroke-width:.10847642;stroke-linecap:round;stroke-linejoin:round;stroke-miterlimit:22.9255867;stroke-opacity:1"/><path d="m136.83 136.78 1.75.05s.4 0 .82-.04c.42-.04.44-.06.44-.06l-.03-.22" style="fill:none;stroke:#140533;stroke-width:.10847642;stroke-linecap:round;stroke-linejoin:round;stroke-miterlimit:22.9255867;stroke-opacity:1"/><path d="m136.85 137.57 1.63.02 1.05-.13c.06-.28-.04-.35.3-.73M146.54 135.58l7.18.23-.55-20.78-.31-.02-.02-1.1.26-.01s-.05-2.7-2.26-3.56a3.36 3.36 0 0 0-3.85.93c-.98 1.21-.9 2.78-.9 2.78h.13l.02 1.08-.17-.01zM105.28 139.69l5.08.43" style="fill:none;stroke:#140533;stroke-width:.10847642;stroke-linecap:round;stroke-linejoin:round;stroke-miterlimit:22.9255867;stroke-opacity:1"/><path d="m146.35 141.97 8.98.47" style="fill:none;stroke:#140533;stroke-width:.10849041;stroke-linecap:round;stroke-linejoin:round;stroke-miterlimit:22.9255867;stroke-opacity:1"/><path d="M126.2 134.7s.1.06.23.08c.6.1 2.37.28 4.95.25 3.19-.02 3.77-.31 3.77-.31M134.83 133.34s-1.76.22-3.51.22c-1.76 0-3.16-.11-3.16-.11M134.52 132.95s-1.61.2-3.6.2c-1.97 0-3.97-.18-3.97-.18M134.45 132.59s-2.59.18-4.91.08c-2.33-.1-2.53-.12-2.53-.12M127.93 130.55c1.65.1 2.54.12 4.09.06M133.57 129.97s-.58.05-1.31.06c-.74.02-2.79.02-3.35-.04M133.45 129.65c-1.98.12-5.03.05-5.68-.01M107.44 83.92s4.05-4.14 5.68-7.92c1.64-3.8 2.78-6.86 3.07-12.29.29-5.42.03-9.79.03-9.79" style="fill:none;stroke:#140533;stroke-width:.10847642;stroke-linecap:round;stroke-linejoin:round;stroke-miterlimit:22.9255867;stroke-opacity:1"/><path d="M107.86 83.86s4.05-4.14 5.68-7.93c1.64-3.79 2.75-6.83 2.99-12.31.24-5.47-.02-9.76-.02-9.76M118.42 53.53l.23 29.17M118.76 53.64l.28 29.02" style="fill:none;stroke:#140533;stroke-width:.10847642;stroke-linecap:round;stroke-linejoin:round;stroke-miterlimit:22.9255867;stroke-opacity:1"/><path d="m119.55 53.5.22 29.09" style="fill:none;stroke:#140533;stroke-width:.10859123;stroke-linecap:round;stroke-linejoin:round;stroke-miterlimit:22.9255867;stroke-opacity:1"/><path d="m120.02 53.67.33 28.85M137.64 80.64l-.53-30.6M136.45 50.35l.5 30.36M139.12 49.58s.06 5.9.33 11.23a23.56 23.56 0 0 0 2.82 9.58 22.34 22.34 0 0 0 8.12 8.87" style="fill:none;stroke:#140533;stroke-width:.10847642;stroke-linecap:round;stroke-linejoin:round;stroke-miterlimit:22.9255867;stroke-opacity:1"/><path d="M151.5 79.13s-5-2.94-7.33-6.76c-2.34-3.81-3.86-7.22-4.15-11.7-.23-3.45-.3-10.46-.3-11.13l5.8 2.49.23 9.37s.05 4.47 2.14 8.95c2.1 4.48 4.48 6.72 4.48 6.72M128.52 74.34c-3.26.33-5.17-2.55-5.93-5.32a12.1 12.1 0 0 1 .82-8.34c1.9-4.2 4.42-4.54 5.22-4.65.8-.12 2.93 0 4.77 2.75 1.83 2.76 1.43 7.64 1.03 9.02" style="fill:none;stroke:#140533;stroke-width:.10847642;stroke-linecap:round;stroke-linejoin:round;stroke-miterlimit:22.9255867;stroke-opacity:1"/><path d="M124.05 71.72s-1.95-2.61-1.5-6.92c.38-3.53 2.94-9.86 8.04-8.25M106.26 80.95l1-.2s.37.63.27 1c-.1.38-.04.94-.63 1.07-.6.12-1.4.23-1.4.23l.02 1.08 1.08-.12c.08 0 1.72-1.7 2.54-2.71 2.44-3 4.49-6.96 5.33-10.1.5-1.86.97-3.62 1.13-5.34.37-3.92.23-7.71.17-12.1l3.67-.74v.32l-3.22.58" style="fill:none;stroke:#140533;stroke-width:.10847642;stroke-linecap:round;stroke-linejoin:round;stroke-miterlimit:22.9255867;stroke-opacity:1"/><path d="m106.38 79.6 1.72-13.01.02-.2.45-.48.44.45 1.7 12.79M108.8 81.69s-.16-.35-.09-.85.13-.5.13-.5" style="fill:none;stroke:#140533;stroke-width:.10847642;stroke-linecap:round;stroke-linejoin:round;stroke-miterlimit:22.9255867;stroke-opacity:1"/><path d="m107.7 80.2 1.23-.18-.35-13.65-.01-.46M154.4 74.66l-1.13-15.08-.03-.24-.19-.45M151.87 79.05 150.29 78l4.45-.54.05 1.32" style="fill:none;stroke:#140533;stroke-width:.10847642;stroke-linecap:round;stroke-linejoin:round;stroke-miterlimit:22.9255867;stroke-opacity:1"/><path d="m157.07 79.12-.03-.95-2.3-.71M151.14 75.02s1.15.23 1.3 1.12c.17.9-.28 1.24-.28 1.24M156.03 75.16s-1.06 0-1.17.91c-.12.9.09 1.35.28 1.51M154.4 74.66s-.32.42-.37 1.21c-.06.8.05.98.05.98M123.62 76.55s.53.8 1.32 1.52a6.9 6.9 0 0 0 2.6 1.14c.12.01-.22-.83-.22-.83l.37-.69s-.77.12-1.32-.05a12.6 12.6 0 0 0-.93-.26l.64-.06s-.88-.26-1.27-.46c-.4-.2-.9-.5-.9-.5zm0 0" style="fill:none;stroke:#140533;stroke-width:.10847642;stroke-linecap:round;stroke-linejoin:round;stroke-miterlimit:22.9255867;stroke-opacity:1"/><path d="m127.32 78.38-1.02-.16.7-.5M126.9 79.02l-.6-.8M125.1 78.2l.93-.05-.52-.76" style="fill:none;stroke:#140533;stroke-width:.10847642;stroke-linecap:round;stroke-linejoin:round;stroke-miterlimit:22.9255867;stroke-opacity:1"/><path d="m124.51 76.7.27.65.73.04" style="fill:none;stroke:#140533;stroke-width:.10847642;stroke-linecap:round;stroke-linejoin:round;stroke-miterlimit:22.9255867;stroke-opacity:1"/><path d="m125.2 78.19-.42-.84-.66-.16M125.74 78.16l.23.5M125.77 77.77l.6-.13M128.83 78.02c-.18-.14-.3-.04-.39-.17-.08-.13-.21-.07-.35 0-.15.07-.3.06-.36.26s.08.31.04.43c-.04.11-.17.14 0 .37.17.23.53-.07.65-.01.11.06.36.17.41-.09.06-.26-.08-.34-.04-.44.04-.1.04-.35.04-.35zm0 0" style="fill:none;stroke:#140533;stroke-width:.10847642;stroke-linecap:round;stroke-linejoin:round;stroke-miterlimit:22.9255867;stroke-opacity:1"/><path d="M128.28 78.25c.1 0 .2.08.2.18 0 .1-.1.18-.2.18s-.2-.08-.2-.18c0-.1.1-.18.2-.18zM122.77 76.05s.06 1.06-.26 1.56c-.31.5-.44.53-.36.68.09.14.42.01.36.32-.06.3-.06.54.09.53.14-.02.08.21.31.45.23.25.22-.18.32-.28.1-.1.41.04.39-.2-.03-.25-.1-.13-.06-.24.02-.12.33-.3.06-.62-.28-.33.3-.08.27-.32-.03-.24-.56-.89-.56-1.23 0-.35-.03-.52-.03-.52s.02-.32-.2-.27c-.22.04-.33.14-.33.14zm0 0" style="fill:none;stroke:#140533;stroke-width:.10847642;stroke-linecap:round;stroke-linejoin:round;stroke-miterlimit:22.9255867;stroke-opacity:1"/><path d="M122.99 75.94s.03 1.07.02 1.46c0 .39.22.69.22.69l-.32.47-.21-.63.13-.66M122.67 79.16l.24-.6.35.73M123.6 78.78l-.45-.48M122.53 78.43l.2-.41M123.54 78.1l-.53-.97" style="fill:none;stroke:#140533;stroke-width:.10847642;stroke-linecap:round;stroke-linejoin:round;stroke-miterlimit:22.9255867;stroke-opacity:1"/><path d="M122.77 76.05s-.49.52-.72-.03c-.23-.54-.33-.89-.1-1.06.23-.17.63-.09.63-.09s-.63-.64-.38-.82c.24-.17 1.03-.35 1.27-.24.25.12.19.5.08.66-.12.16.56-.3.68.04.13.35.22 1.1 0 1.24-.21.14-.73-.13-.73-.13l-.4.29s-.63-.12-.53-.38c.1-.26.22-.7.37-.6.15.1.46.09.49.29.03.2-.13.31-.26.36-.13.04-.21-.1-.23-.18" style="fill:none;stroke:#140533;stroke-width:.10847642;stroke-linecap:round;stroke-linejoin:round;stroke-miterlimit:22.9255867;stroke-opacity:1"/><path d="M123.14 74.63c.03-.06.13-.53-.01-.5-.14.03-.3.03-.4.08-.1.06-.03.3.03.36M123.62 74.96s.23-.25.3-.15c.06.1.14.41.07.5-.06.07-.27.05-.27.05M122.42 75.19s-.2-.07-.23.04c-.04.12-.04.36.04.48.07.11.14.13.18.12M123.57 75.65s.4.47.33.54c-.06.06-.41.22-.41.22l-.17-.09" style="fill:none;stroke:#140533;stroke-width:.10847642;stroke-linecap:round;stroke-linejoin:round;stroke-miterlimit:22.9255867;stroke-opacity:1"/><path d="M133.03 75.46s-.56.95-1.37 1.87a9.99 9.99 0 0 1-2.72 1.82c-.12.04.23-.89.23-.89l-.4-.59s.82-.09 1.39-.4c.57-.31.97-.5.97-.5l-.67.11s.93-.5 1.33-.8l.95-.73zm0 0" style="fill:none;stroke:#140533;stroke-width:.1082609;stroke-linecap:round;stroke-linejoin:round;stroke-miterlimit:22.9255867;stroke-opacity:1"/><path d="m129.17 78.26 1.06-.42-.73-.31M129.62 78.79l.61-.95M131.48 77.5l-.96.2.54-.9M132.1 75.85l-.28.72-.76.23" style="fill:none;stroke:#140533;stroke-width:.1082609;stroke-linecap:round;stroke-linejoin:round;stroke-miterlimit:22.9255867;stroke-opacity:1"/><path d="m131.39 77.52.43-.95.69-.33M130.82 77.63l-.24.56M130.79 77.25l-.63.02M133.92 74.75s-.06 1.07.27 1.5c.33.41.46.4.37.58-.09.16-.43.12-.37.4.06.3.06.53-.1.56-.14.02-.08.24-.32.54-.24.3-.23-.13-.33-.2-.1-.08-.44.15-.4-.1.03-.26.09-.15.06-.26-.03-.1-.35-.2-.07-.6.29-.4-.31 0-.28-.25.03-.25.58-1.04.58-1.38 0-.35.03-.53.03-.53s-.01-.3.21-.32c.23-.01.35.06.35.06zm0 0" style="fill:none;stroke:#140533;stroke-width:.1082609;stroke-linecap:round;stroke-linejoin:round;stroke-miterlimit:22.9255867;stroke-opacity:1"/><path d="m133.69 74.69-.03 1.47c.01.39-.22.74-.22.74l.33.4.22-.7-.13-.62M134.02 77.84l-.25-.54-.36.81M133.04 77.7l.48-.6M134.17 77.07l-.2-.37M133.11 77l.55-1.1" style="fill:none;stroke:#140533;stroke-width:.1082609;stroke-linecap:round;stroke-linejoin:round;stroke-miterlimit:22.9255867;stroke-opacity:1"/><path d="M133.92 74.75s.5.39.75-.22c.24-.6.34-.97.1-1.09-.24-.1-.66.08-.66.08s.66-.8.4-.92c-.25-.1-1.07-.09-1.33.1-.25.17-.2.54-.07.67.12.13-.59-.16-.72.22-.14.38-.22 1.15 0 1.24.22.08.76-.32.76-.32l.42.18s.66-.28.56-.51c-.1-.23-.23-.64-.4-.5-.15.12-.47.2-.5.4-.03.21.13.29.27.3.13 0 .22-.16.24-.23" style="fill:none;stroke:#140533;stroke-width:.1082609;stroke-linecap:round;stroke-linejoin:round;stroke-miterlimit:22.9255867;stroke-opacity:1"/><path d="M133.53 73.42c-.03-.05-.13-.49.01-.5.15 0 .33-.05.42-.02.1.03.03.3-.03.37M133.03 73.88s-.24-.2-.3-.08c-.07.12-.15.46-.09.52.07.06.28-.01.28-.01M134.28 73.8s.2-.13.24-.02c.04.1.04.35-.03.48-.08.13-.15.17-.2.17M133.08 74.56s-.41.57-.35.62c.07.05.44.11.44.11l.18-.13" style="fill:none;stroke:#140533;stroke-width:.1082609;stroke-linecap:round;stroke-linejoin:round;stroke-miterlimit:22.9255867;stroke-opacity:1"/><path d="m141.12 44.65 7.59 3.51-.06-.72-7.57-3.6M148.18 48.16l.05.3-7.14-3.27.01-.3zM148.23 48.47c-1.26.1-1.04 1.83-1.04 1.83l-6.53-2.88s-.2-1.54.43-2.23M140.4 48.8l6.32 2.68-.02-.92-6.33-2.78" style="fill:none;stroke:#140533;stroke-width:.10851903;stroke-linecap:round;stroke-linejoin:round;stroke-miterlimit:22.9255867;stroke-opacity:1"/><path d="m146.7 50.56.21-.05-.04-.16.32-.05M148.18 48.16h.53M146.87 50.35l-6.35-2.81-6.64 1.24v.23l6.54-1.21-.02 1-6.12 1.12-.02-1M133.88 48.78l-.37-.13 7.14-1.33" style="fill:none;stroke:#140533;stroke-width:.10847642;stroke-linecap:round;stroke-linejoin:round;stroke-miterlimit:22.9255867;stroke-opacity:1"/><path d="M131.81 46.99s1.12.13 1.4.5c.3.38.3 1.16.3 1.16M141.1 45.18l-9.29 1.8-.02-.28 9.31-1.82M141.16 43.88l-.04.76-10.01 2.03.03-.75zM145.52 52.03l.35-.33.86-.22M145.87 51.7l-5.7-2.44-.19-.05-4.29.8v.16l.35.16-15.86 2.92-.74-.23M118.42 53.53l.34.11.8-.14.46.17" style="fill:none;stroke:#140533;stroke-width:.10847642;stroke-linecap:round;stroke-linejoin:round;stroke-miterlimit:22.9255867;stroke-opacity:1"/><path d="m119.44 53.34.75.24 16.27-2.97" style="fill:none;stroke:#140533;stroke-width:.10847642;stroke-linecap:round;stroke-linejoin:round;stroke-miterlimit:22.9255867;stroke-opacity:1"/><path d="m115.78 54.3-1.61-.6 5.45-1 .72.27 14.67-2.74-.73-.3" style="fill:none;stroke:#140533;stroke-width:.10847642;stroke-linecap:round;stroke-linejoin:round;stroke-miterlimit:22.9255867;stroke-opacity:1"/><path d="m119.68 51.48-5.95 1.14v.23l5.93-1.09.8.28 13.81-2.62" style="fill:none;stroke:#140533;stroke-width:.10827886;stroke-linecap:round;stroke-linejoin:round;stroke-miterlimit:22.9255867;stroke-opacity:1"/><path d="M111.76 50.94s1.01.17 1.34.47c.46.41.39 1.07.4 1.22 0 .03.27-.01.27-.01M132.79 47.21l-11.96 2.35-.77-.2-8.3 1.58-.02-.27 8.33-1.6.82.28 11.4-2.28M120.13 48.13l-.02.71-9.02 1.8.03-.7zm0 0" style="fill:none;stroke:#140533;stroke-width:.10827886;stroke-linecap:round;stroke-linejoin:round;stroke-miterlimit:22.9255867;stroke-opacity:1"/><path d="m114.13 52.77-.05.92M120.1 48.84l.83.3L131.81 47l-.7-.32M120.13 48.13l.82.3 10.17-2.14M120.93 49.15l.02-.71M120.07 49.07l-.01.28M119.67 51.48l.76.27 13.84-2.65M119.62 52.7l.02-.93M120.42 52.95l.02-.92M120.2 53.58l-.02-.33M119.67 51.48s.02-.69.06-1.07c.05-.39.1-.58.16-.74.06-.15.17-.32.17-.32" style="fill:none;stroke:#140533;stroke-width:.10847642;stroke-linecap:round;stroke-linejoin:round;stroke-miterlimit:22.9255867;stroke-opacity:1"/><path d="M120.43 51.75c-.05-.61-.14-1.55.4-2.19M137.11 50.05l2.01-.39M120.54 48.28s.67-3.48 2.96-6.24c3.74-4.51 11.16-4.36 12.43 2.87" style="fill:none;stroke:#140533;stroke-width:.10847642;stroke-linecap:round;stroke-linejoin:round;stroke-miterlimit:22.9255867;stroke-opacity:1"/><path d="M121.43 48.33c.78-5.59 6.15-10.98 11.9-8.13" style="fill:none;stroke:#140533;stroke-width:.10847642;stroke-linecap:round;stroke-linejoin:round;stroke-miterlimit:22.9255867;stroke-opacity:1"/><path d="m118.14 48.53.08-.87-1.33.25 1.06-8.4.27-.36.08.35.16 6.95s.97-3.25 2.1-4.67c1.13-1.42.9-1.22.9-1.22v-1l.97-.22s1.5-1.38 2.88-2.06c1.38-.68 1.95-.84 1.95-.84s3.54-1.23 6.26.26c2.73 1.5 2.77 1.87 3.68 3.1.92 1.25 1.31 2.7 1.31 2.7M140.86 43.95s.04-.27-.1-.44c-.15-.17-.62-.28-.62-.28l1.89-.39 1 .45s-.46.14-.54.28c-.08.13-.02.36.08.66.11.3.36.5.36.5" style="fill:none;stroke:#140533;stroke-width:.10847642;stroke-linecap:round;stroke-linejoin:round;stroke-miterlimit:22.9255867;stroke-opacity:1"/><path d="M116.9 47.9s.49.1.6.27c.12.17.18.45.18.45M118.22 39.15l.3.42.66 4.84M142.03 42.84s-.22.28-.24.64c-.01.37.03.4.03.4M137.86 38.71s1.19.63 1.7 1.08c.53.45.85.77.85.77M140.14 43.23l.94-8.82.32-.44.14.4.49 8.47" style="fill:none;stroke:#140533;stroke-width:.10847642;stroke-linecap:round;stroke-linejoin:round;stroke-miterlimit:22.9255867;stroke-opacity:1"/><path d="m143.03 43.29-1.28-8.93-.35-.4M133.97 36.77s.85.44 1.17.64c.32.2 1.23.94 1.23.94l1.52.7-.08-2.08-1.27-.63s-.04-.49.06-.7a.7.7 0 0 1 .42-.39c.16-.04.19-.06.19-.06l-1.01-.51-1.7.41s.56.25.64.49c.08.23.17.68-.06.87-.24.19-1.1.32-1.1.32zM136.37 38.35l-.02-1.3" style="fill:none;stroke:#140533;stroke-width:.10847642;stroke-linecap:round;stroke-linejoin:round;stroke-miterlimit:22.9255867;stroke-opacity:1"/><path d="M136.2 34.68s-.19.3-.2.65l-.03.45M134.4 36.68l1.86-.32.16-.03h.12" style="fill:none;stroke:#140533;stroke-width:.10847642;stroke-linecap:round;stroke-linejoin:round;stroke-miterlimit:22.9255867;stroke-opacity:1"/><path d="m134.5 35.1.9-8.72.27-.35.3.3 1.24 8.86M136.2 34.68l-.53-8.65M129.98 33.1s-.24.56-.18 1.26" style="fill:none;stroke:#140533;stroke-width:.10847642;stroke-linecap:round;stroke-linejoin:round;stroke-miterlimit:22.9255867;stroke-opacity:1"/><path d="m131.25 33.77-1.27-.67-2.1.48 1.18-10.35.28-.35.3.3zM129.98 33.1l-.64-10.22M127.26 36.44l.03-.88 2.37-.61M130.14 35.97l.05-1.06 1.67.82v.42" style="fill:none;stroke:#140533;stroke-width:.10847642;stroke-linecap:round;stroke-linejoin:round;stroke-miterlimit:22.9255867;stroke-opacity:1"/><path d="M127.89 33.58s.62.2.78.42c.15.22.19.48.18.61-.01.13-.07.38-.2.48-.13.1-.44.23-.44.23M131.25 33.77s-.66-.03-.79.48c-.12.5-.12.55.06.82M121.93 37.94l1.63-.38.72.33" style="fill:none;stroke:#140533;stroke-width:.10847642;stroke-linecap:round;stroke-linejoin:round;stroke-miterlimit:22.9255867;stroke-opacity:1"/><path d="m124.64 37.65-1.15-8.12-.27-.38-.27.34-1.02 8.45" style="fill:none;stroke:#140533;stroke-width:.10847642;stroke-linecap:round;stroke-linejoin:round;stroke-miterlimit:22.9255867;stroke-opacity:1"/><path d="m123.22 29.15.07.45.27 7.96s-.1.43-.1.6c0 .18.02.3.02.3M121.93 37.94s.47.1.62.32c.14.21.16.54.12.7a1.4 1.4 0 0 1-.22.36" style="fill:none;stroke:#140533;stroke-width:.10847642;stroke-linecap:round;stroke-linejoin:round;stroke-miterlimit:22.9255867;stroke-opacity:1"/><path d="m105.5 134.17 5.74.2v-18.55l-.25-.01v-.99h.22s.01-2.42-1.74-3.18a2.55 2.55 0 0 0-3.1.83c-.8 1.08-.78 2.48-.78 2.48h.1v.96h-.14zm0 0" style="fill:none;stroke:#140533;stroke-width:.10821268;stroke-linecap:round;stroke-linejoin:round;stroke-miterlimit:22.9255867;stroke-opacity:1"/><path d="m107.37 134.1-1.8-2.05M107.02 134.13l-1.45-1.64M106.65 134.17l-1.08-1.23M106.32 134.2l-.75-.84M105.95 134.24l-.37-.43M105.6 134.27l-.02-.02M110.73 112.86l-.74-.84M111.04 113.65l-1.8-2.04M111.17 114.25l-2.43-2.76M111.25 114.8l-2.95-3.34M111.03 115.02l-3.1-3.52M111.03 115.46l-3.42-3.88M110.97 115.84l-3.66-4.16M110.38 115.6l-3.33-3.78M109.82 115.43l-3.02-3.44M109.37 115.33l-2.78-3.16M108.99 115.34l-2.6-2.95M108.8 115.57l-2.59-2.94M108.66 115.86l-2.6-2.96M108.52 116.18l-2.61-2.98M108.4 116.49l-2.61-2.97M108.29 116.8l-2.6-2.96M108.18 117.13l-2.57-2.92M108.1 117.47l-2.5-2.84M108.02 117.84l-2.35-2.67M107.98 118.23l-2.31-2.62M107.98 118.69l-2.37-2.7M108.02 119.14l-2.46-2.79M108.02 119.6l-2.46-2.8M108 120.01l-2.45-2.79M107.97 120.43l-2.43-2.77M107.94 120.87l-2.4-2.73M107.9 121.28l-2.36-2.68M107.86 121.67l-2.32-2.63M107.8 122.07l-2.26-2.58M107.76 122.46l-2.22-2.53M107.71 122.85l-2.17-2.47M107.66 123.23l-2.12-2.4M107.6 123.62l-2.06-2.34M107.56 123.98l-2.02-2.29M107.5 124.37l-1.95-2.23M107.45 124.75l-1.9-2.16M107.4 125.13l-1.85-2.1M107.36 125.59l-1.81-2.05M107.34 126.02l-1.79-2.03M107.34 126.47l-1.79-2.04M107.36 126.93l-1.8-2.05M107.38 127.4l-1.83-2.08M107.4 127.88l-1.84-2.1M107.44 128.36l-1.88-2.14M107.48 128.86l-1.92-2.19M107.52 129.32l-1.96-2.24M107.58 129.83l-2.02-2.3M107.63 130.33l-2.07-2.35M107.69 130.84l-2.13-2.41M107.75 131.4l-2.19-2.48M107.82 131.93l-2.26-2.56M107.89 132.45l-2.32-2.64M107.96 132.98l-2.4-2.72M108.04 133.51l-2.47-2.8M108.1 134.03l-2.53-2.87M107.74 134.06l-2.17-2.46" style="fill:none;stroke:#140533;stroke-width:.04122946;stroke-linecap:round;stroke-linejoin:round;stroke-miterlimit:22.9255867;stroke-opacity:1"/><path d="m156.03 75.16-2.52-15.77-.5-.5-.5.53-.02.22-1.35 15.38 3.25-.36zM130.87 96.59l-.43 2.23.13 1.56 1.31.51.18-2.69.77-.21s-1.08-.93-1.52-1.17l-.44-.23zm0 0" style="fill:none;stroke:#140533;stroke-width:.10847642;stroke-linecap:round;stroke-linejoin:round;stroke-miterlimit:22.9255867;stroke-opacity:1"/><path d="M90.43 110.15h.08m32.3-1.27.97-.04m4.94-.2 2.29-.08m2.83-.11h.1m1.55-.07h.08M90.43 109.84l.15-.01m32.24-1.27 1.03-.04m4.83-.19 2.41-.09m2.72-.1.11-.01m1.54-.06h.13M90.44 109.51h.21m32.17-1.27 1.07-.04m4.76-.19 2.54-.1m2.58-.1h.13m1.53-.06.16-.01M66.3 110.16h0m24.14-.95h.28m32.1-1.27 1.08-.04m4.72-.18 2.65-.1m2.47-.1.15-.01m1.52-.06h.2M66.23 109.84h.08m24.14-.95.33-.01m32.04-1.26 1.08-.04m4.7-.19 2.63-.1m2.47-.1h.17m1.5-.06.23-.01M66.17 109.53h.15m24.13-.96.4-.01m31.97-1.25 1.09-.05m4.7-.18 2.58-.1m2.47-.1h.2m1.49-.07h.25M66.1 109.2h.23m24.12-.95.47-.02m31.9-1.25 1.1-.04m4.65-.18 2.58-.1m2.48-.1.21-.01m1.48-.06.28-.01M66.03 108.87l.3-.01m24.13-.95.53-.02m31.83-1.25 1.1-.04m1.47-.06.46-.02m2.55-.1 2.71-.1m2.48-.1.23-.01m1.47-.06.3-.01M65.96 108.55l.38-.02m24.12-.94.6-.03m31.76-1.24 1.1-.05m1.06-.04.89-.03m2.3-.1 2.9-.1m2.41-.1.33-.01m1.45-.06.32-.01M65.9 108.23l.45-.02m24.12-.94.66-.03M122.8 106l1.13-.05m.64-.02 1.32-.05m2.1-.08 3.04-.12m2.32-.1.44-.01m1.44-.06.33-.01M65.83 107.91l.53-.02m24.11-.95.72-.02m31.49-1.24 1.26-.05m.22 0 1.75-.08m2.13-.08 2.95-.12m2.23-.08.55-.03m1.43-.05.35-.02M65.77 107.6l.6-.03m24.1-.94.79-.03m31.3-1.23 3.37-.13m2.16-.09 2.87-.11m2.13-.08.67-.03m1.4-.06.36-.01M65.7 107.28l.67-.03m24.11-.95.85-.03m31.1-1.22 3.52-.14m2.2-.08 2.77-.11m2.03-.08.8-.03m1.39-.06.35-.01M65.64 106.98l.74-.03m24.1-.94.9-.04m30.98-1.21 3.6-.15m2.24-.08 2.68-.1m1.95-.08.9-.04m1.38-.05.35-.02M65.58 106.66l.81-.03m24.1-.95.95-.03m30.92-1.22.88-.03m.16 0 2.5-.1m2.36-.1 2.03-.08m.13 0 .42-.02m1.86-.07 1.01-.04m1.33-.06.39-.01M65.52 106.35l.88-.04m24.08-.94 1.02-.04m30.86-1.21.85-.04m.62-.02 2.02-.08m2.46-.1 1.4-.05m.68-.03.42-.02m1.76-.06 1.12-.05m1.05-.04.64-.02M65.45 106.03l.96-.04m24.04-.94 1.1-.05m30.8-1.2.83-.04m1-.04 1.6-.06m1.73-.07h.1m.76-.03.74-.03m1.25-.05.39-.02m1.68-.06 1.25-.05m.75-.03.9-.04M65.38 105.7l1.03-.05m24-.94 1.22-.05m30.73-1.2.8-.04m1.05-.04 1.5-.06m1.58-.06.32-.01m.82-.03h.06m1.84-.08.32-.01m1.65-.07 1.36-.05m.45-.02 1.16-.04M65.32 105.37l1.1-.04m23.95-.94 1.34-.06m30.65-1.2.76-.03m1.1-.04 1.44-.06m1.42-.05.52-.02m2.7-.11.26-.01m1.77-.07 1.32-.05m.16 0 1.4-.06M65.26 105.06l1.17-.05m23.89-.94 1.48-.06m30.56-1.2.74-.02m1.14-.05 1.35-.05m1.29-.05.71-.03m2.68-.1.2-.01m1.89-.08 2.77-.1M65.2 104.73l1.26-.05m23.8-.93 1.64-.06m30.46-1.2.52-.02m1.38-.05 1.27-.05m1.14-.05.91-.03m2.66-.1.13-.01m2.02-.08 2.65-.1M65.19 104.42l1.3-.06m23.71-.93 1.82-.07m5.8-.22h.1m24.44-.97h.22m1.7-.07 1.19-.05m1-.04 1.1-.04m2.64-.1h.07m2.13-.1 2.53-.1M65.2 104.1l1.34-.06m23.6-.93 2.02-.08m5-.2.67-.02m26.47-1.04 1.1-.04m.86-.03 1.31-.06m2.6-.1h.02m2.25-.09 2.4-.09M65.22 103.78l1.38-.06m23.45-.92 2.28-.09m4.13-.16 1.3-.05m26.58-1.04 1-.04m.71-.03 1.51-.06m4.9-.2.76-.02m.14 0 1.37-.06M65.25 103.45l1.41-.05m23.3-.92 2.6-.1m3.11-.12 2-.08m27.22-1.07.4-.01m.55-.03 1.71-.06m4.95-.2.55-.02m.33-.01 1.23-.05M65.28 103.15l1.46-.05m23.13-.91 2.99-.12m1.96-.08 2.77-.1m28.12-1.1 1.84-.08m4.97-.2.38-.01m.5-.02 1.09-.04M65.3 102.83l1.53-.06m22.93-.9 7.74-.3m28.24-1.11 1.8-.07m5-.2h.2m.69-.04.92-.03M65.3 102.51l1.62-.06m22.71-.9 7.78-.3m28.37-1.11 1.75-.07m5.04-.2h.01m.87-.03.74-.03M65.3 102.19l1.74-.07m22.44-.88 7.83-.3m28.5-1.13 1.75-.06m5.91-.24.54-.02M65.28 101.84l1.89-.07m22.11-.87 7.92-.31m28.66-1.13 2-.07m5.64-.23h.26M59.73 101.74l.73-.03m4.77-.2 2.08-.07m21.78-.86 8.01-.31m28.8-1.13 2.22-.09M59.84 101.41l1.75-.06m3.54-.14 2.32-.1m21.45-.84 8.1-.31m28.93-1.14.78-.03m.1 0 1.5-.06M59.96 101.09l3.04-.12m1.88-.08 2.74-.1m21.07-.83 8.18-.32m29.07-1.14.68-.03m.23 0 1.5-.07M60.08 100.76l7.72-.3m20.65-.8 8.3-.33m29.2-1.15.58-.02m.35-.02 1.4-.05M60.2 100.43l7.8-.3m20.17-.8 8.43-.32m29.35-1.15.48-.02m.48-.02 1.32-.05M60.33 100.11l7.87-.3m19.98-.79 8.24-.32m29.53-1.16.39-.02m.6-.02 1.3-.05M60.48 99.79l7.95-.32m19.92-.78 7.86-.3m29.74-1.17.3-.02m.73-.02 1.28-.05M60.62 99.48l8.04-.31m19.86-.78 7.46-.3m29.97-1.17h.2m.85-.04 1.28-.05M60.78 99.15l8.15-.32m19.8-.77 6.96-.28m30.26-1.18h.11m.98-.05 1.21-.04M60.96 98.83l8.25-.32m19.77-.78 6.39-.25m30.58-1.2h.02m1.1-.04 1-.04M61.16 98.5l8.37-.33m19.74-.77 5.7-.23M61.4 98.13l8.3-.32m19.96-.79 4.78-.18M61.66 97.8l7.83-.3m20.64-.82 3.67-.14M61.95 97.47l7.29-.28m21.63-.85 1.93-.08M62.3 97.13l6.62-.26M62.72 96.8l5.82-.23M63.3 96.45l4.73-.18M64.15 96.1l3.1-.12M105.57 128.8l.74-.02m15.47-.61.7-.03m2.68-.1.47-.02m1.68-.07.86-.03m5.41-.22 1.32-.05M105.57 128.49l.75-.03m15.46-.6.69-.04m2.69-.1.62-.02m1.52-.07.87-.03m5.46-.21 1.27-.05M105.57 128.16l.76-.03m15.44-.6.68-.03m2.7-.1.84-.04m1.31-.05.87-.03m5.5-.22 1.23-.05M105.57 127.87l.76-.03m15.44-.6.67-.04m2.71-.1 1-.04m1.15-.05.85-.03m5.57-.22 1.18-.04M105.57 127.54l.77-.03m15.43-.6.66-.03m2.72-.1 1.17-.05m1.04-.04.52-.02m5.88-.23 1.14-.05M105.57 127.23l.78-.03m15.42-.6.65-.03m2.9-.12 1.15-.04m1.03-.04h.1m6.15-.25 1.15-.04M105.57 126.9l.8-.03m15.4-.6.64-.03m3.12-.12 1.1-.04m7.1-.28 1.17-.05M105.57 126.56l.8-.03m15.4-.6.63-.03m3.33-.13.95-.04m7.02-.27 1.2-.05M105.57 126.24l.81-.03m15.38-.6.62-.03m3.38-.13.93-.04m7-.27 1.16-.05M105.57 125.92l.82-.03m15.37-.6.61-.03m3.43-.13.9-.04m6.96-.27 1.12-.05M105.57 125.6l.83-.04m15.35-.6.61-.02m3.47-.14.88-.03m6.92-.27 1.08-.05M105.57 125.28l.84-.03m15.34-.6.6-.03m3.51-.13.86-.04m6.89-.27 1.03-.04M105.56 124.96l.86-.04m15.33-.6.59-.02m3.56-.14.83-.03m6.86-.27.99-.04M105.56 124.66l.87-.03m15.32-.6.58-.03m3.6-.14.81-.03m6.83-.27.97-.04M105.56 124.34l.88-.04m15.3-.6.58-.02m3.64-.14.79-.03m6.93-.28.82-.03M105.56 124.02l.9-.03m15.28-.6.56-.03m3.7-.14.76-.03m7.03-.28.63-.02M105.56 123.7l.9-.04m15.28-.6.55-.02m11.61-.45.43-.02M105.56 123.36l.91-.04m15.27-.6.54-.02m11.74-.46h.21M105.56 123.04l.93-.04m15.24-.6.54-.02M105.56 122.72l.94-.04m15.23-.6.81-.03M105.56 122.4l.95-.04m15.22-.6 1.15-.04M105.56 122.08l.96-.04m15.2-.6 1.28-.05M105.56 121.75l.97-.03m15.2-.6 1.28-.05M105.56 121.44l.98-.04m15.18-.6 1.3-.05M105.56 121.11l.99-.03m15.17-.6.37-.01m.42-.02.51-.02M105.56 120.82l1-.04m15.96-.63.51-.02M105.56 120.5l1-.05m15.97-.62.5-.02M105.56 120.18l1.02-.04m15.97-.63.5-.02M105.56 119.86l1.03-.05m15.97-.62.5-.02M105.56 119.5l1.04-.03m15.97-.63.5-.02M105.56 119.18l1.05-.04m15.98-.63.48-.01M105.56 118.87l1.07-.04m15.97-.63.47-.02M105.56 118.54l1.08-.04m15.97-.62.47-.02M105.56 118.23l1.09-.05m15.98-.62.46-.02M105.56 117.9l1.1-.04m15.98-.63.46-.02M105.56 117.59l1.11-.05m15.98-.63.45-.01M105.56 117.26l1.13-.04m15.98-.63.44-.02m6.3-.24.17-.01M105.55 116.97l1.15-.05m15.98-.63.42-.01m6.29-.25.44-.02M105.55 116.64l1.17-.04m15.97-.63.34-.01m6.33-.25.75-.03M105.55 116.33l1.2-.05m15.96-.63h.26m6.37-.26 1.04-.04M105.55 116l1.26-.05m15.9-.62h.2m6.4-.26 1.34-.05M105.72 115.64l1.17-.05m15.84-.62h.1m6.46-.26 1.47-.05M105.75 115.31l1.24-.04m15.76-.62h.02m6.5-.26 1.48-.06M105.78 115l1.34-.06m22.13-.86 1.5-.06M105.6 114.68l1.68-.07m21.95-.86 1.51-.06M105.64 114.36l1.83-.07m21.73-.85 1.54-.06M105.7 114.03l3.6-.14m19.88-.78 1.55-.06M105.77 113.72l3.93-.16m19.46-.76 1.57-.06M105.88 113.39l4.25-.17m19-.74 1.6-.07M106 113.09l4.51-.18m18.6-.73 1.65-.07M106.17 112.76l4.4-.18m18.52-.72 1.69-.07M106.4 112.43l3.94-.15m18.73-.74 1.73-.07M106.75 112.1l3.28-.14m19.02-.74 1.77-.07M107.4 111.72l2.06-.08m19.56-.77 1.82-.07M129 110.55l1.85-.07M128.95 110.24l1.91-.08M123.39 110.13h.1m5.4-.22 1.97-.07m3.12-.13h.02M123.24 109.82l.33-.02m5.28-.2 2-.08m3.1-.12h.03M123.1 109.5l.54-.02m5.16-.2 2.08-.09m3.03-.12h.06M90.42 110.47h.02m32.5-1.28.77-.03m5.05-.2 2.17-.09m2.95-.11h.07m1.57-.06h.04M121.83 134.62l.88-.03m2.5-.1 1-.04M121.83 134.26l.87-.03m2.51-.1 1.02-.04M121.83 133.94l.86-.03m2.52-.1 1.03-.04M121.82 133.62l.85-.03m2.54-.1 1.05-.04M121.82 133.3l.84-.03m2.54-.1 1.36-.06M121.82 132.98l.83-.03m2.55-.1 1.74-.07M121.81 132.66l.83-.03m2.56-.1 1.3-.06M121.81 132.34l.82-.03m2.57-.1.96-.04M105.57 132.66h.13m16.11-.64.8-.03m2.58-.1.86-.04M105.57 132.36l.26-.01m15.98-.63.8-.03m2.58-.1.8-.03M105.57 132.04l.4-.02m15.84-.62.78-.03m2.6-.1.8-.04M105.57 131.72l.55-.02m15.68-.62.78-.03m2.6-.1.93-.04m8.79-.34h.18M105.57 131.4l.66-.03m15.57-.61.77-.03m2.61-.1.98-.04m7.77-.3 1.12-.05M105.57 131.05l.67-.03m15.56-.6.76-.04m2.62-.1 1-.04m1.13-.05h.32m5.98-.24 1.4-.06M105.57 130.72l.68-.02m15.55-.61.75-.03m2.63-.1 1-.04m1.13-.05.53-.02m5.68-.22 1.46-.06M105.57 130.4l.69-.02m15.53-.6.75-.04m2.63-.1 1.01-.04m1.13-.04.37-.02m6.16-.24 1.11-.04M105.57 130.08l.7-.02m15.52-.61.73-.03m2.65-.1 1-.04m1.14-.05h.18m6.38-.25 1.05-.05M105.57 129.77l.7-.03m15.52-.61.72-.03m2.66-.1 1-.04m1.14-.05h.17m6.09-.24 1.33-.05M105.57 129.44l.72-.03m15.5-.6.71-.03m2.67-.1.23-.01m.65-.03h.16m1.1-.05.86-.03m5.4-.22 1.33-.05M105.57 129.13l.73-.03m15.48-.6.7-.04m2.68-.1.35-.01m1.8-.08.86-.03m5.4-.21 1.33-.05" style="fill:none;stroke:#140533;stroke-width:.04133164;stroke-linecap:round;stroke-linejoin:round;stroke-miterlimit:22.9255867;stroke-opacity:1"/><path d="m66.23 113.2-7.52 7.32M66.21 113.84l-7.52 7.33M66.2 114.5l-7.52 7.33M66.18 115.1l-7.52 7.34M66.17 115.77l-7.53 7.33M66.15 116.4l-7.53 7.34M66.14 117.07l-7.53 7.33M66.12 117.76l-7.53 7.34M66.1 118.42l-7.53 7.34M66.09 119.07l-7.54 7.34M66.07 119.73l-7.53 7.34M66.06 120.37l-7.54 7.35M66.04 121.03l-7.54 7.35M66.03 121.63l-7.54 7.35M66.01 122.3l-7.54 7.34M66 122.93l-7.55 7.36M65.98 123.6l-7.55 7.35M65.97 124.28l-7.55 7.36M65.95 124.94l-7.55 7.36M65.94 125.58l-7.56 7.36M65.92 126.24l-7.56 7.36M65.91 126.89l-7.56 7.37M65.9 127.54l-7.57 7.38M65.88 128.19l-7.57 7.37M65.87 128.84l-7.58 7.38M65.85 129.45l-7.57 7.38M65.84 130.1l-7.58 7.39M65.83 130.75l-7.59 7.38M65.81 131.4l-7.58 7.4M65.8 132.11l-7.6 7.4M65.78 132.77l-7.59 7.4M65.77 133.41l-7.37 7.18M65.75 134.07l-6.67 6.5M65.74 134.71l-5.98 5.83M65.73 135.37l-5.28 5.14M65.71 136.01l-4.58 4.46M65.7 136.67l-3.87 3.77M65.69 137.27l-3.2 3.13M65.67 137.93l-2.48 2.42M65.66 138.57l-1.77 1.72M65.64 139.23l-1 .99M65.63 139.96l-.1.1M62.86 96.67l-1.45 1.42M64.2 96.01l-3.78 3.68M65.03 95.83l-5.08 4.95M65.72 95.8l-6.1 5.94M66.32 95.85l-6.9 6.73M66.87 95.95l-7.6 7.42M67.37 96.1l-8.19 7.98M67.84 96.29l-8.7 8.47M68.24 96.49l-9.11 8.88M68.64 96.74l-9.53 9.29M69 97.01l-9.91 9.67M69.34 97.33l-10.27 10M69.67 97.72l-10.62 10.35M69.93 98.1l-1.38 1.35m-.35.34-9.17 8.94M70.16 98.51l-1.3 1.27m-1.45 1.41-8.4 8.18M70.38 98.94l-1.22 1.19m-2.18 2.12L59 110.04M70.58 99.39l-1.14 1.1m-2.72 2.65-7.74 7.55M70.76 99.85l-1.05 1.02m-3.16 3.08-7.6 7.4M70.92 100.32l-.96.94m-3.5 3.41L58.94 112M71.07 100.82l-.87.85m-3.78 3.68-7.5 7.3M71.2 101.29l-.8.77m-4 3.9-7.5 7.3M71.32 101.81l-.71.7m-4.22 4.1-7.5 7.31M71.42 102.34l-.64.62m-4.4 4.3-7.51 7.3M71.5 102.9l-.55.55m-4.6 4.47-7.5 7.3M71.56 103.54l-.45.44m-4.77 4.65-7.5 7.31M71.6 104.14l-.35.34m-4.93 4.8-7.5 7.32M71.62 104.75l-.24.23m-5.07 4.95-7.51 7.32M71.63 105.39l-.12.11m-5.22 5.09-7.5 7.32M71.63 106.02v0m-5.35 5.22-7.52 7.32M66.26 111.9l-7.52 7.32M66.24 112.54l-7.51 7.32" style="fill:none;stroke:#140533;stroke-width:.04138872;stroke-linecap:round;stroke-linejoin:round;stroke-miterlimit:22.9255867;stroke-opacity:1"/><path d="m133.19 50.54-1.9 1.86m-10.12 9.88-1.56 1.53M134.51 49.87l-.11.11m-.43.42-1.92 1.88m-11.02 10.76-1.42 1.4M135.32 49.73l-.46.45m-.09.08-1.86 1.82M120.9 63.82l-1.29 1.25M136.07 49.59l-2.23 2.18m-13.05 12.75-1.17 1.14M136.88 49.44l-1.9 1.87m-14.3 13.97-1.06 1.02M137.67 49.3l-1.02 1m-.23.22-.2.2M120.58 66l-.95.93M138.49 49.15l-.94.91m-17.01 16.62-.9.89M139.34 49l-.84.82m-17.99 17.57-.87.85M120.5 68.05l-.86.83M120.48 68.7l-.83.82M120.47 69.36l-.82.8M120.46 70l-.8.78M120.46 70.65l-.8.77M120.45 71.25l-.78.76M120.45 71.9l-.78.75M120.44 72.53l-.76.75M120.44 73.18l-.76.74M120.43 73.86l-.74.73M120.43 74.5l-.74.73M120.43 75.14l-.73.71M120.43 75.78l-.73.71M120.43 76.42l-.72.7M120.43 77.06l-.72.7M120.43 77.7l-.72.69M120.43 78.34l-.71.7M120.43 78.93l-.7.69M120.43 79.57l-.7.69M120.43 80.2l-.7.68M120.43 80.85l-.7.68M120.44 81.54l-.7.68M120.44 82.18l-.38.37M125.1 40.5l-2.05 2M126.5 39.77l-4.4 4.3M127.62 39.31l-6.09 5.95M128.52 39.06l-7.4 7.23M129.3 38.96l-8.5 8.3M129.9 38.96l-9.34 9.12M130.49 39.03l-2.4 2.34m-3.1 3.02-4.11 4.03m-.68.66-.2.2M131.01 39.15l-1.76 1.72m-4.75 4.64-2.66 2.6m-1.02.99-1.07 1.05M131.52 39.3l-1.39 1.35m-6.39 6.24-.2.2m-1.98 1.94-1.87 1.82M132.05 39.49l-1.1 1.07m-8.5 8.3-2.8 2.75M132.52 39.68l-.92.9m-8.34 8.14-3.65 3.57M132.94 39.9l-.77.74m-8.12 7.94-1.64 1.6m-2 1.96-.98.95M133.35 40.14l-.63.62m-7.86 7.67-1.34 1.3m-3.1 3.03-.9.88M133.71 40.42l-.5.48m-7.55 7.4-1.13 1.1m-3.3 3.23-1.7 1.64M134.05 40.74l-.36.35m-7.23 7.06-.92.9m-3.52 3.43-2.48 2.43M134.33 41.09l-.2.2m-6.88 6.72-.73.71m-3.71 3.63-3.27 3.19M134.57 41.5l-.03.04m-6.48 6.32-.54.53m-3.9 3.82-4.07 3.97M128.8 47.73l-.36.35m-4.09 4-4.8 4.69M129.61 47.58l-.17.18m-4.28 4.18-5.6 5.47M125.94 51.8l-6.38 6.23M126.74 51.66l-7.17 7.01M127.6 51.51l-2.39 2.34m-2.28 2.23-3.36 3.28M128.41 51.37l-2.2 2.16m-3.8 3.7L119.59 60M129.2 51.23l-2.1 2.06m-5 4.87-2.52 2.47M130 51.1l-2.02 1.97m-6.1 5.97-2.3 2.23M130.8 50.96l-1.98 1.92m-7.15 6.99-2.08 2.03M131.6 50.82l-1.93 1.88m-8.18 8-1.9 1.84M132.38 50.68l-1.9 1.87m-9.16 8.93-1.72 1.69" style="fill:none;stroke:#140533;stroke-width:.04133164;stroke-linecap:round;stroke-linejoin:round;stroke-miterlimit:22.9255867;stroke-opacity:1"/><path d="m58.18 140.72 7.45-.64.69-30.56s-.14-6.12.99-8.08c1.12-1.97 1.24-1.97 1.24-1.97s1.57 1.2 2.2 3.37c.63 2.17.77 3.2.67 5.4-.1 2.2-.72 30.76-.72 30.76l.47-.1" style="fill:none;stroke:#140533;stroke-width:.10847642;stroke-linecap:round;stroke-linejoin:round;stroke-miterlimit:22.9255867;stroke-opacity:1"/><path d="m71.17 141.21.62-34.9s.45-5.23-2.12-8.6c-2.57-3.35-7.61-2.49-9.47 2.72-1.13 3.2-1.06 4.42-1.1 5.6l-.05 2.04-.87 32.65M104.59 115.91h1.1l6-.1M145.35 115.02l.89-.02s2.73.09 4.07.1a22.1 22.1 0 0 0 2.47-.12l2.11.02M135.05 130.24l-.15-4.49-.26-1.6-.22-1.26-.28-.9-.35.92M129.58 116.32l1.2-1.48-.06-2.23.11-1.67.1-2.06.34-1.27-.13-1.94-.84-3.89.85-1.17M128.23 95.91l.2 2.8-.9 1.36.09 3.7-1.57-2.38M123.46 110.28l.39-1.75.08-2.26" style="fill:none;stroke:#140533;stroke-width:.10847642;stroke-linecap:round;stroke-linejoin:round;stroke-miterlimit:22.9255867;stroke-opacity:1"/><path d="m123.07 109 .21-2.7.75-.75 1.93 1 .13-.85s-.57-3.83-.66-4.05M122.4 114.2l.82 1.32.03 2.95-.21 1.34-.16 2.64M127.18 122.53l.07 3.6.9.85.02 1.58M122.71 134.59l-.4-10.91.14-2.26.43 1.03M124.02 134.53l.11-3.9-.81-1.37v-4.84M126.24 130.73l-.13-2.04-.67.3" style="fill:none;stroke:#140533;stroke-width:.10847642;stroke-linecap:round;stroke-linejoin:round;stroke-miterlimit:22.9255867;stroke-opacity:1"/><path d="m126.76 123.19-.13 2.89.73.6M124.8 123.41s-.12-.48.78-.76 1.38-.35 1.38-.35l.22.23M127.46 106.37l-.23 2.4-1.62.85-.72-.74-.41-3.1" style="fill:none;stroke:#140533;stroke-width:.10847642;stroke-linecap:round;stroke-linejoin:round;stroke-miterlimit:22.9255867;stroke-opacity:1"/><path d="m133.72 121.99-13.42 13.1m-2.79 2.73-3.01 2.95M133.65 122.77l-12.36 12.07m-3.17 3.1-2.95 2.88M133.56 123.58l-5.07 4.96m-.86.83-1.52 1.5m-.12.1-3.81 3.73m-3.42 3.35-2.8 2.72M133.47 124.34l-4.27 4.17m-1.34 1.3-.44.44m-1.5 1.46-3.2 3.13m-3.36 3.29-2.82 2.75M133.35 125.19l-3.4 3.33m-3.77 3.67-2.73 2.67m-3.43 3.35-2.84 2.77M133.2 126.05l-2.53 2.47m-4.08 3.98-2.07 2.03m-3.84 3.75-2.86 2.79M133 126.97l-1.58 1.54m-5.14 5.02-1.06 1.05m-3.85 3.76-2.89 2.82M132.7 128.03l-.4.4m-6.05 5.9-.28.28m-3.87 3.78-2.92 2.85M122.8 138.43l-2.95 2.89M123.5 138.47l-2.99 2.92M124.2 138.5l-3.02 2.96M124.9 138.53l-3.05 3M125.63 138.56l-3.1 3.03M126.3 138.58l-3.13 3.06M127.02 138.6l-3.15 3.07M127.74 138.61l-3.17 3.1M128.47 138.62l-3.18 3.1M129.25 138.62l-3.2 3.13M130 138.62l-3.21 3.14M130.75 138.6l-3.24 3.17M131.52 138.58l-3.27 3.2M132.28 138.55l-3.3 3.23M133.07 138.52l-3.34 3.25M133.83 138.48l-3.37 3.29M134.62 138.44l-3.4 3.32M135.35 138.4l-3.44 3.36M136.15 138.35l-3.48 3.4M136.93 138.3l-3.52 3.43M137.68 138.3l-3.5 3.42M138.47 138.3l-3.47 3.4M139.22 138.3l-3.45 3.38M139.62 138.62l-3.1 3.03M139.91 139.07l-2.63 2.57M140.2 139.5l-2.23 2.19M140.5 139.93l-1.84 1.8M140.82 140.34l-1.46 1.42M141.14 140.76l-1.07 1.04M141.45 141.12l-.72.71M141.82 141.5l-.39.37M142.22 141.81l-.1.1M129.1 83.08l-1.75 1.71m-.12.12-3.97 3.88M122.02 90l-31.68 30.95m-3.87 3.78L84 127.15M129.92 83l-1.55 1.5m-.33.33-3.89 3.8m-1.6 1.56-32.21 31.48m-3.87 3.78-2.49 2.42M130.76 82.9l-1.35 1.32m-.54.53-3.79 3.7m-1.9 1.86-32.85 32.1m-3.87 3.77-2.48 2.43M131.52 82.83l-1.17 1.14m-.71.7-3.7 3.61m-2.04 2-33.57 32.8m-3.87 3.77-2.5 2.44M132.36 82.74l-1.06 1.03m-.83.82-3.6 3.52m-2.15 2.1-34.4 33.6m-3.87 3.78-2.5 2.44M133.18 82.66l-1.04 1m-.86.85-3.53 3.45m-2.23 2.17-35.2 34.4m-3.87 3.77-2.5 2.45M134.01 82.57l-1.02 1m-.88.85-3.5 3.43m-2.27 2.21-36.03 35.2m-3.86 3.78-2.51 2.45M134.9 82.48l-1.02.99m-.89.87-3.44 3.36m-2.34 2.29-36.9 36.05m-3.87 3.77-2.51 2.46M135.73 82.4l-1.02.98m-.89.87-3.34 3.26m-2.45 2.4L90.3 126.77m-3.86 3.78L83.92 133M136.55 82.3l-1.01 1m-.9.87-3.18 3.1m-2.62 2.57L90.29 127.5m-3.86 3.77-2.52 2.47M137.39 82.22l-1.02.99m-.9.88-2.9 2.84m-2.91 2.84-39.37 38.46M86.43 132l-2.53 2.47M138.2 82.13l-1.01 1m-.9.87-2.4 2.35m-3.43 3.35-40.18 39.25m-3.86 3.77-2.53 2.48M139.03 82.05l-1.01 1m-.9.87-2.16 2.11m-3.68 3.6-41 40.06m-3.86 3.76-2.28 2.23M139.8 81.97l-1.02 1m-.9.87-2 1.97m-4.23 4.13-41.38 40.42m-3.86 3.77-2.5 2.44M140.64 81.88l-1.03 1m-.9.88-1.88 1.84m-6.79 6.63L90.26 131.1m-3.85 3.76-2.13 2.08M141.45 81.8l-1.03 1m-.9.88-1.77 1.73m-9.28 9.07L90.26 131.8m-3.86 3.77-1.55 1.52M142.29 81.71l-1.04 1.01m-.9.88-1.67 1.63m-10.95 10.7-37.48 36.62m-3.85 3.76L85 137.67m-.37.36-.02.02M143.16 81.62l-1.04 1.02m-.89.87-1.59 1.55m-11.22 10.96-38.17 37.3m-3.85 3.76-1.04 1.01M144 81.53l-1.05 1.03m-.89.86-1.5 1.48m-11.5 11.23-38.82 37.92m-3.85 3.76-1.03 1.01M144.81 81.45l-1.05 1.03m-.89.86-1.43 1.4m-11.8 11.54-39.4 38.49m-3.85 3.76-1.04 1M145.65 81.36l-1.06 1.04m-.88.86-1.37 1.33M130.2 96.45 90.23 135.5m-3.85 3.77-1.03 1M146.47 81.28l-1.06 1.04m-.88.86-1.3 1.27m-12.5 12.2-40.5 39.58m-3.85 3.76-1 .96M147.3 81.19l-1.06 1.05m-.88.85-1.24 1.21m-12.89 12.6-41.01 40.06m-3.85 3.76-.1.1M148.12 81.1l-1.08 1.06m-.87.85-1.18 1.15m-13.3 13-41.48 40.52M148.96 81.02l-1.09 1.06m-.87.85-1.12 1.1m-13.74 13.42L90.2 138.41M149.72 80.94 148.63 82m-.86.85-1.07 1.05M132.5 97.76l-42.3 41.33M150.56 80.85l-1.1 1.07m-.86.85-1.02 1m-14.7 14.35-42.68 41.7M151.37 80.77l-1.1 1.07m-.86.85-.97.94m-15.22 14.88-42.39 41.4M152.2 80.68l-1.1 1.08m-.86.84-.91.9M133.5 98.95l-5.14 5.02m-.78.77-36.06 35.23M153.1 80.59l-1.1 1.09m-.86.83-.86.85m-16.5 16.11-5.46 5.34m-.73.72-35.31 34.49M153.94 80.5l-1.11 1.09m-.86.84-.8.79M133.98 100l-5.72 5.59m-.8.78-34.5 33.7M154.76 80.42l-1.1 1.08m-.88.85-.72.7m-17.93 17.52-5.78 5.65m-.57.56L93.66 140.1M153.5 82.38l-.18.17m-19.1 18.66-5.74 5.6m-.38.38-33.75 32.97M134.25 101.9l-5.64 5.51m-.19.19L95.04 140.2M134.21 102.67l-38.47 37.59M134.1 103.5l-37.68 36.8M134.03 104.3 97.1 140.34M134 104.99l-36.24 35.4M133.99 105.73l-35.41 34.6M133.98 106.45l-34.57 33.77M133.98 107.18l-33.72 32.94M133.99 107.98l-32.97 32.2M134 108.7l-32.26 31.51M134 109.41l-31.47 30.74M134 110.13l-30.67 29.96M134 110.85l-29.87 29.19M134 111.58l-29.06 28.4M134 112.29l-28.09 27.45M134 113.01l-27.4 26.79M134 113.69l-26.77 26.16M134 114.42l-20.7 20.22m-.41.41-4.97 4.86M134 115.14l-19.9 19.43m-1 1-4.51 4.4M133.99 115.88l-19.17 18.72m-2.01 1.97-3.54 3.45M133.97 116.68l-18.43 18m-2.33 2.29-3.2 3.11M133.95 117.43l-17.72 17.3m-2.64 2.59-3.15 3.08M133.93 118.16l-16.96 16.57m-3.03 2.96-2.83 2.77M133.9 118.92l-16.18 15.81m-2.53 2.47-.05.05m-.84.82-2.51 2.45M133.87 119.67l-15.46 15.1m-2.62 2.56-.65.64m-.5.48-2.18 2.13M133.83 120.44l-14.9 14.55m-2.57 2.51-1.23 1.2m-.14.14-1.84 1.8M133.78 121.2l-14.23 13.9m-2.63 2.57-3.1 3.03M94.73 79.75l-.25.24m-.36.35-.05.05m-8.9 8.7-.63.62M109.03 66.5l-.43.43M95.35 79.88l-1.63 1.58m-4.5 4.4-1.44 1.4m-1.96 1.93-1.24 1.2M109.11 67.14l-.5.48M96.27 79.7l-2.85 2.78m-3.17 3.1-2.15 2.1m-1.65 1.61-1.5 1.47M109.2 67.78l-.57.56M98.75 78l-.16.15m-1.23 1.2-4.48 4.37m-1.53 1.5-2.9 2.84m-1.36 1.32-2.64 2.58M109.28 68.38l-.63.61m-9.34 9.12-.75.74m-.17.17-9.45 9.23m-1.25 1.22-3.24 3.17M109.36 69.02l-.7.68m-8.74 8.54L89.22 88.7m-.89.87-3.9 3.8M109.45 69.65l-.77.75m-8.15 7.97L84.43 94.1M109.53 70.3l-.83.81m-7.56 7.39L84.42 94.84M109.62 70.97l-.9.88m-6.94 6.78L84.41 95.61M109.71 71.62l-.97.95m-6.34 6.2-18 17.58M109.8 72.25l-1.04 1.01M103 78.9 84.39 97.07M109.88 72.9l-1.1 1.07m-5.17 5.04-19.23 18.8M109.97 73.53l-1.18 1.15m-4.57 4.46-19.85 19.4M110.05 74.17l-1.24 1.22m-3.98 3.88-20.47 20M110.14 74.8l-1.31 1.28m-3.4 3.32L84.36 100M110.22 75.45l-1.37 1.34m-2.8 2.73-21.71 21.21M110.3 76.04l-1.44 1.4m-2.24 2.2-22.29 21.77M110.39 76.69l-1.5 1.47m-1.66 1.61-2.79 2.72m0 0-20.12 19.66M110.47 77.32l-1.57 1.53m-1.19 1.16-.83.82m-.62.6-.35.35m-1.75 1.7-19.85 19.4M110.56 77.96l-1.64 1.6m-.55.54-.93.9m-3.26 3.19L88.5 99.5m-1.05 1.03-3.15 3.07M110.65 78.66l-3.12 3.04m-1.28 1.26-.74.71m-.49.49-16.2 15.82m-1.78 1.74-2.75 2.69M110.22 79.8l-4.37 4.28m-.48.46-16.28 15.9m-2.23 2.2-2.58 2.5M105.95 84.7l-16.6 16.21m-2.64 2.57-2.44 2.39M106.7 84.69 89.59 101.4m-2.96 2.9-2.37 2.3M107.52 84.6l-17.71 17.3m-3.21 3.14-2.35 2.3M108.36 84.51l-18.35 17.93m-3.42 3.34-2.35 2.3M109.18 84.42 90.17 103m-3.58 3.5-2.36 2.3M110.02 84.33 90.3 103.6m-3.72 3.63-2.36 2.3M110.6 84.43l-20.2 19.74m-3.82 3.73-2.36 2.31M111.14 84.64l-20.67 20.2m-3.9 3.8-2.36 2.31M111.65 84.85l-21.16 20.67m-3.92 3.83-2.37 2.32M112.47 84.78l-22 21.5m-3.9 3.8-2.38 2.33M113.37 84.7l-22.92 22.4m-3.89 3.8-2.38 2.33M114.2 84.62l-23.76 23.21m-3.88 3.8-2.4 2.34M115.02 84.54l-24.58 24.01m-3.89 3.8-2.4 2.34M115.85 84.45 90.43 109.3m-3.88 3.8-2.4 2.33M116.68 84.37 90.43 110m-3.89 3.8-2.4 2.34M117.51 84.28l-27.09 26.47m-3.88 3.79-2.41 2.35M118.33 84.2 90.4 111.45m-3.88 3.8-2.41 2.35M119.16 84.1l-28.75 28.1m-3.88 3.79-2.42 2.36M119.93 84.03 90.4 112.87m-3.88 3.8-2.42 2.36M120.76 83.94 90.4 113.61m-3.88 3.79-2.43 2.37M121.58 83.86l-31.19 30.47m-3.87 3.78-2.44 2.38M122.41 83.77 90.4 115.06m-3.88 3.79-2.44 2.38M123.31 83.68l-32.93 32.17m-3.87 3.79-2.45 2.39M124.15 83.6l-33.78 32.99m-3.87 3.78-2.45 2.4M124.96 83.5l-34.6 33.8m-3.86 3.79-2.46 2.4M125.8 83.42l-35.44 34.62m-3.87 3.78-2.46 2.4M126.62 83.33l-36.26 35.43m-3.87 3.79-2.47 2.4M127.46 83.25l-37.1 36.25m-3.88 3.78-2.47 2.41M128.27 83.16l-5.98 5.85m-.75.73-31.2 30.48M86.49 124 84 126.4M91.72 140.1l-.3-.14M93.36 140.34l-.63-.3M94.93 140.57l-.95-.44M96.47 140.8l-1.27-.58M98.06 141.05l-1.61-.74M99.65 141.3l-1.97-.9M101.29 141.56l-2.7-1.24M102.96 141.86l-3.55-1.64M104.57 142.1l-4.3-1.98M105.6 142.14l-4.15-1.92M106.74 142.17l-4.35-2M107.84 142.2l-4.56-2.1M108.98 142.23l-4.78-2.2M110.2 142.27l-5.02-2.31M111.33 142.3l-5.3-2.44M112.43 142.33l-5.16-2.38M113.57 142.37l-5-2.31M114.68 142.4l-4.77-2.2M115.81 142.43l-4.17-1.92M116.92 142.46l-4-1.84M118.05 142.5l-3.81-1.76M119.1 142.52l-3.73-1.71M120.22 142.56l-3.52-1.63M121.33 142.59l-2.98-1.38M122.46 142.62l-.9-.42M123.71 142.66l-.73-.34M124.84 142.69l-.46-.21M128.2 142.78l-.08-.03M129.33 142.82l-1.68-.78M130.43 142.85l-2.43-1.13M131.57 142.88l-2.51-1.16M132.6 142.91l-2.58-1.2M133.74 142.94l-2.67-1.23M134.84 142.97l-2.75-1.27M135.98 143l-2.85-1.3M137.2 143.04l-2.95-1.36M138.33 143.07l-3.05-1.4M139.43 143.1l-3.15-1.45M140.57 143.14l-3.25-1.5M141.68 143.17l-3.12-1.44M142.81 143.2l-3.08-1.42M143.92 143.23l-3.02-1.39M145.05 143.27l-2.95-1.37M144.68 142.65l-1.48-.69M101.74 147.53l26.93-5.8M99.89 147.44l11.68-2.51m.64-.14 14.22-3.07M97.97 147.35l11.79-2.54m2.08-.45 12.35-2.66M96.16 147.25l12.2-2.63m2.8-.6 11.14-2.4M94.33 147.15l12.7-2.73m3.32-.72 10.26-2.21M92.56 147.05l13.2-2.85m3.69-.79 9.68-2.09M90.82 146.94l13.7-2.95m3.94-.85 9.33-2.01M89.1 146.83l14.18-3.06m4.13-.89 9.16-1.98M87.38 146.7l14.63-3.15m4.28-.92 8.53-1.84M85.74 146.57l15.04-3.24m4.4-.95 8.05-1.73M84.08 146.42l15.41-3.32m4.57-.99 7.5-1.61M82.6 146.26l15.66-3.38m4.72-1.02 7.39-1.59M81.21 146.06l15.8-3.4m4.72-1.02 7.33-1.58M79.99 145.84l15.8-3.4m4.67-1.01 6.83-1.48M78.84 145.58l15.68-3.38m4.6-.99 5.7-1.23M77.85 145.31l15.44-3.33m4.52-.97 3.65-.79M76.92 145.02l15.13-3.26m4.42-.96 2.36-.5M76.08 144.71l14.75-3.18m4.32-.93 1.36-.29M75.26 144.38l14.3-3.08m4.2-.9.97-.21M74.48 144.07l13.85-2.99m4.09-.88.6-.13M73.64 143.75l8.49-1.83m3.22-.7 1.74-.37m3.96-.85.23-.05M72.63 143.49l6.99-1.51m5.73-1.24v0M70.92 143.35l6.17-1.33M68.95 143.29l6.39-1.38M67.49 143.1l6.06-1.3M66.19 142.9l6.46-1.39M64.87 142.68l6.63-1.43M63.6 142.47l6.65-1.44M62.25 142.27l6.83-1.48M60.8 142.09l7.13-1.54M59.1 141.95l7.64-1.64M57 141.92l8.5-1.83M53.7 142.14l7.98-1.72M52.83 141.84l5.25-1.13M51.87 141.54l4.56-.98M50.93 141.26l2.89-.62M49.95 140.98l2.28-.5M48.97 140.7l1.7-.36M48.82 140.25l.91-.2M49.06 139.71l.67-.14M49.3 139.16l.44-.09M49.54 138.63l.2-.04M173.43 147.8l4.11-.88M157.18 150.82l20.94-4.52M154.79 150.84l23.78-5.12M152.74 150.78l26.2-5.65M151 150.67l28.21-6.08M149.3 150.54l30.1-6.49M147.73 150.4l31.74-6.85M146.14 150.24l33.3-7.18M144.64 150.07l34.27-7.39M143.14 149.9l34.72-7.48M141.7 149.73l34.84-7.51M140.2 149.54l34.76-7.5M138.8 149.36l34.52-7.44M137.38 149.17l34.16-7.36M136 148.98l33.7-7.26M134.63 148.8l33.16-7.16M133.27 148.6l32.55-7.02M131.88 148.4l31.86-6.86M130.48 148.22l31.15-6.71M128.85 148.07l26.28-5.67M127 147.98l26.41-5.7M124.57 148l27.08-5.83M121.88 148.1l28.05-6.04M119.4 148.14l28.75-6.2M117.3 148.1l28-6.03m1.13-.25v0M115.27 148.05l28.17-6.08M113.3 147.98l28.33-6.1M111.27 147.91l28.46-6.13M109.35 147.84l28.58-6.16M107.4 147.77l28.34-6.1M105.5 147.7l27.85-6M103.54 147.6l27.36-5.89M136.62 116.01l-.95.93M136.8 116.54l-1.12 1.1M137 117.09l-1.3 1.27M137.17 117.6l-1.47 1.42M137.35 118.14l-1.63 1.6M137.52 118.69l-1.8 1.75M137.7 119.24l-1.96 1.92M137.87 119.84l-2.12 2.08M138.03 120.42l-2.27 2.21M138.16 121l-2.38 2.34M138.26 121.64l-2.47 2.42M138.31 122.3l-2.5 2.46M138.33 123.02l-2.52 2.46M138.32 123.7l-2.5 2.44M138.3 124.45l-2.47 2.4M138.29 125.17l-2.44 2.38M138.32 125.87l-2.46 2.4M138.43 126.53l-2.56 2.5M138.64 127.05l-2.76 2.69M138.89 127.52l-3 2.92M139.18 127.96l-3.27 3.2M139.48 128.4l-3.56 3.46M139.78 128.82l-3.85 3.76M140.07 129.25l-4.13 4.03M140.35 129.7l-4.4 4.3M140.59 130.15l-4.62 4.51M140.78 130.69l-4.8 4.68M140.87 131.31l-4.17 4.07M140.9 132.01l-3.46 3.38M140.93 132.77l-2.7 2.63M140.96 133.47l-1.99 1.94M140.98 134.16l-1.3 1.26M140.98 134.89l-.78.76M140.62 135.96l-.74.73M141 136.31l-.32.31m-.17.18-.24.23M135.66 113.33l-.05.05M135.86 113.87l-.24.23M136.05 114.4l-.42.4M136.25 114.94l-.6.59M136.43 115.47l-.77.76M95.33 140.23l-5.04-5.07M94.82 140.2l-4.53-4.57M94.3 140.16l-4.02-4.05M93.8 140.12l-3.53-3.56M93.28 140.09l-3.02-3.05M92.77 140.05l-2.52-2.54M92.24 140.02l-2-2.03M91.7 139.98l-1.47-1.48M91.17 139.94l-.95-.95M90.65 139.9l-.44-.44M116 131.73l-.72-.74m-10.7-10.77-3.2-3.24m-.52-.51-10.34-10.43M116.01 132.21l-.73-.74m-10.7-10.77-3.2-3.24m-.52-.52-10.32-10.4M116.02 132.7l-.74-.73m-10.69-10.77-3.22-3.25m-.51-.51-10.3-10.39M116.02 133.16l-.74-.74m-10.69-10.77-3.22-3.24m-.51-.52-10.3-10.37M116.02 133.66l-.74-.74m-10.69-10.78-3.22-3.24m-.51-.52-10.3-10.36M116.03 134.15l-.74-.75m-10.7-10.77-3.22-3.25m-.51-.52-10.28-10.35M115.97 134.59l-.68-.7m-10.7-10.77-3.22-3.25m-.51-.51L90.58 109M115.47 134.6l-.18-.18m-10.7-10.78-3.22-3.25m-.52-.52L90.6 109.53M104.6 124.13l-3.23-3.25m-.52-.51L90.6 110.02M104.6 124.62l-3.23-3.25m-.52-.52L90.6 110.51M104.6 125.12l-3.23-3.26m-.52-.52L90.6 111.01M104.6 125.6l-3.23-3.26m-.52-.52L90.6 111.5M104.6 126.1l-3.24-3.27m-.5-.51-10.27-10.34M104.6 126.55l-3.24-3.26m-.5-.52-10.27-10.34M104.6 127.04l-3.24-3.26m-.5-.52-10.27-10.33M104.6 127.52l-3.24-3.26m-.5-.52L90.58 113.4M104.6 128.02l-3.24-3.27m-.51-.52L90.59 113.9M104.61 128.54l-3.25-3.27m-.51-.52L90.59 114.4M104.61 129.03l-3.25-3.27m-.51-.52L90.58 114.9M104.62 129.52l-3.26-3.28m-.51-.52-10.27-10.34M104.62 130.01l-3.26-3.28m-.51-.52-10.27-10.34M104.62 130.5l-3.26-3.28m-.51-.52-10.28-10.35M104.63 131l-3.27-3.3m-.51-.5-10.28-10.36M104.63 131.49l-3.27-3.3m-.51-.52-10.28-10.36M104.64 131.98l-3.28-3.3m-.51-.52L90.56 117.8M104.64 132.44l-3.28-3.3m-.52-.52-10.28-10.37M104.65 132.94l-3.3-3.32m-.5-.51-10.3-10.37M104.66 133.43l-3.3-3.32m-.52-.52-10.3-10.38M104.68 133.94l-3.32-3.34m-.52-.52-10.3-10.38M104.75 134.55l-3.4-3.42m-.5-.52-10.32-10.38M104.56 134.85l-3.2-3.23m-.52-.52-10.31-10.39M105.4 136.18l-4.05-4.08m-.51-.52-10.32-10.4M105.29 136.56l-3.94-3.97m-.51-.51-10.32-10.4M105.29 137.04l-3.94-3.96m-.51-.52-10.33-10.4M105.29 137.53l-3.94-3.96m-.51-.52-10.34-10.4M105.28 138.01l-3.93-3.96m-.51-.52L90.5 123.12M105.28 138.5l-3.93-3.95m-.51-.52L90.49 123.6M105.28 138.95l-3.9-3.93m-.58-.58-10.31-10.4M105.28 139.45l-3.83-3.86m-.63-.63-10.34-10.42M105.28 139.93l-3.75-3.78m-.68-.68L90.47 125M104.84 139.98l-3.26-3.29m-.95-.95-10.17-10.25M104.34 140.02l-2.74-2.76m-1.19-1.2-9.96-10.03M103.89 140.05l-2.3-2.3m-1-1.02-10.14-10.21M103.44 140.09l-1.85-1.87m-1.35-1.36-9.8-9.87M102.99 140.12l-1.42-1.42m-1.33-1.34-9.8-9.89M102.54 140.15l-.98-.98m-1.31-1.32-9.83-9.9M102.08 140.19l-.53-.54m-1.3-1.3-9.83-9.91M101.64 140.22l-.1-.1m-1.29-1.3-9.84-9.91M100.25 139.32l-9.85-9.93M100.26 139.78l-9.87-9.94M100.13 140.14l-9.75-9.82M99.7 140.2l-9.32-9.4M99.27 140.24l-8.9-8.96M98.8 140.3l-8.44-8.5M98.36 140.36l-8.01-8.07M97.93 140.4l-7.59-7.64M97.41 140.37l-7.08-7.13M96.9 140.34l-6.58-6.62M96.37 140.3l-6.06-6.1M95.86 140.27l-5.56-5.6M155.7 142.38l-.38-.39m-6.57-6.61-2.27-2.29m-.8-.81-.69-.7m-19.47-19.6-1.52-1.53m-1.7-1.72-1.9-1.92m-3.91-3.94-1.33-1.34m-8.5-8.56-9.57-9.64M148.31 135.42l-1.81-1.84m-.82-.82-.68-.68m-19.65-19.8-1.7-1.72m-2.1-2.1-1.15-1.17m-3.97-3.99-1.27-1.28m-8.7-8.76-9.5-9.59M147.87 135.46l-1.36-1.37m-.82-.82-.68-.69m-19.8-19.95-1.93-1.94m-1.68-1.7-1.2-1.2m-4.02-4.05-1.22-1.23m-8.88-8.95-9.51-9.58M147.45 135.5l-.93-.95m-.82-.82-.68-.68m-19.91-20.07-1.97-1.98m-1.5-1.51-1.24-1.24m-4.07-4.11-1.17-1.18m-9.06-9.12-9.52-9.6M147 135.54l-.47-.48m-.83-.83-.67-.68m-19.99-20.14-1.96-1.97m-1.4-1.42-1.27-1.28m-4.13-4.16-1.12-1.12m-9.24-9.32-9.55-9.62M146.56 135.57l-.02-.02m-.83-.84-.67-.67m-20-20.14-2.01-2.03m-1.32-1.33-1.3-1.31m-4.18-4.22-1.06-1.07m-9.44-9.5-9.58-9.65M145.72 135.21l-.67-.67m-20-20.14-2.07-2.1m-1.22-1.23-1.34-1.35m-4.25-4.27-1-1.01m-9.62-9.69-9.62-9.7M145.72 135.74l-.66-.67m-20-20.15-2.92-2.94m-.34-.34-1.38-1.4m-4.3-4.32-.95-.96m-9.8-9.87-9.66-9.73M145.72 136.23l-.6-.6m-20.06-20.21-4.64-4.67m-4.35-4.4-.9-.9m-9.94-10.01-9.7-9.78M145.8 136.8l-.56-.57m-20.18-20.33-4.63-4.66m-4.41-4.45-.85-.85m-10.05-10.13-9.7-9.78M146.4 137.9l-1.1-1.11m-20.24-20.4-4.63-4.66m-4.46-4.5-.8-.8m-10.15-10.22-9.72-9.8M146.4 138.37l-.93-.93m-20.4-20.56-4.63-4.66m-4.52-4.55-.74-.75M104.94 96.6l-9.74-9.8M146.39 138.86l-.97-.98m-20.36-20.5-4.62-4.66m-4.57-4.6-.69-.7M104.85 97l-9.76-9.83M146.38 139.3l-.75-.76m-20.57-20.72-4.61-4.65m-4.62-4.65-.65-.65m-10.4-10.48-9.79-9.86M146.38 139.79l-.75-.76m-20.57-20.72-4.6-4.64m-4.63-4.66-.65-.64M104.7 97.8l-9.81-9.9M146.37 140.26l-.74-.75m-20.58-20.72-4.6-4.63m-4.62-4.66-.64-.65m-10.56-10.63-9.85-9.93M146.36 140.75l-.74-.74m-20.57-20.73-4.6-4.63m-4.61-4.65-.65-.66M104.62 98.7l-9.91-9.98M146.35 141.26l-.73-.74m-20.57-20.73-4.59-4.62m-4.62-4.65-.65-.66m-10.57-10.65-9.28-9.34M146.35 141.74l-.73-.73m-11.7-11.79-.5-.5m-8.38-8.44-4.57-4.61m-4.62-4.66-.66-.65M104.61 99.7l-9.66-9.74M146.13 142l-.5-.5m-5.35-5.39-.72-.72m-5.84-5.89-.78-.79m-7.9-7.95-4.57-4.6m-4.62-4.66-.66-.66m-10.58-10.66-10.2-10.29M145.7 142.07l-.08-.08m-5.54-5.58-1-1.02m-3.67-3.7-1.34-1.34m-.58-.59-1.05-1.05m-5.67-5.72-.05-.05m-1.67-1.68-4.57-4.6m-4.63-4.67-.65-.66m-10.59-10.66L93.75 89.73M139.82 136.63l-1.2-1.22m-3.35-3.37-3.31-3.33m-5.2-5.24-.47-.48m-1.24-1.24-4.57-4.6m-4.62-4.67-.66-.66m-10.59-10.67L93.04 89.5M139.64 136.94l-.87-.88m-3.75-3.78-2.8-2.82m-5.46-5.5-.9-.91m-.8-.8-4.58-4.61m-4.62-4.66-.66-.66m-10.59-10.67-11.9-11.99M139.54 137.32l-.82-.82m-4-4.03-1.42-1.44m-.59-.59-.72-.73m-5.23-5.26-1.33-1.35m-.37-.37-4.57-4.6m-4.63-4.66-.66-.67m-10.6-10.67L92.49 89.9M139.85 138.13l-1.26-1.28m-3.4-3.41-.06-.07m-.65-.66-1.3-1.3m-6.42-6.47-6.27-6.32m-4.62-4.66-.67-.67m-10.6-10.67L92.24 90.15M139.52 138.24l-1.05-1.06m-1.45-1.46-.32-.32m-1.52-1.53-2.2-2.21m-6.22-6.27-6.26-6.31m-4.63-4.66-.66-.67m-10.6-10.68L92 90.37M139.51 138.73l-.94-.95M137 136.2l-.8-.8m-1.03-1.05-2.42-2.44m-5.99-6.03-6.26-6.3m-4.62-4.66-.67-.68m-10.6-10.68L91.82 90.7M139.5 139.2l-.69-.7m-1.93-1.94-1.16-1.18m-.61-.6-2.47-2.5m-5.93-5.97-6.2-6.25m-4.63-4.66-.67-.67m-10.6-10.69L91.74 91.1M139.49 139.68l-.65-.65m-2.1-2.12-1.51-1.53m-.52-.52-2.06-2.07m-4.87-4.9-.06-.06m-1.2-1.22-6.01-6.05m-4.63-4.66-.67-.68m-10.6-10.69L91.66 91.51M139.48 140.2l-.63-.63m-1.84-1.86-1.55-1.56m-.63-.64-.11-.1m-.54-.55-1.49-1.5m-4.64-4.68-.7-.7m-1.03-1.04-5.8-5.85m-4.63-4.66-.68-.68m-10.6-10.69-13.02-13.1M139.47 140.68l-.6-.6m-1.8-1.8-1.84-1.87m-1.52-1.53-1.22-1.23m-4.85-4.88-.62-.63m-.89-.9-5.61-5.65m-4.63-4.66-.67-.68m-10.62-10.7L91.53 92.4M139.46 141.15l-.59-.59m-1.76-1.78-2.2-2.2m-1.66-1.68-1.26-1.27m-4.5-4.53-.8-.82m-.74-.73-5.43-5.47m-4.63-4.67-.67-.68m-10.62-10.7L91.54 92.89M139.45 141.63l-.57-.57m-1.75-1.76-1.52-1.53m-.57-.57-.55-.56m-1.7-1.71-1.23-1.24m-3.73-3.76-1.49-1.5m-.57-.58-5.24-5.28m-4.63-4.66-.68-.68m-10.62-10.7L91.57 93.4M139.08 141.75l-.2-.2m-1.73-1.74-1.68-1.7m-.94-.95-.5-.5m-1.7-1.7-1-1.02m-3.7-3.73-1.62-1.63m-.43-.43-5.05-5.09m-4.63-4.66-.68-.68m-10.62-10.7L91.6 93.91M137.17 140.32l-1.9-1.92m-1.27-1.28-.42-.42m-1.7-1.71-.6-.61m-4.01-4.04-1.6-1.61m-.27-.27-4.87-4.9m-4.62-4.66-.69-.69m-10.62-10.7L91.66 94.46M137.18 140.82l-2.37-2.4m-1.33-1.34-.34-.34m-1.7-1.72-.18-.17m-4.35-4.39-1.58-1.58m-.11-.12-4.68-4.71m-4.63-4.67-.68-.69M104.6 108l-12.9-13M137.2 141.32l-2.86-2.87m-1.4-1.42-.25-.25m-6.12-6.17-6.03-6.07m-4.63-4.66-.68-.7m-10.63-10.7L91.75 95.54M137.06 141.63l-3.15-3.16m-1.46-1.48-.16-.17m-6-6.04-5.74-5.78m-4.63-4.66-.69-.7m-10.64-10.71-12.8-12.9M136.58 141.65l-3.13-3.16m-1.54-1.55-.07-.07m-5.8-5.84-5.49-5.53m-4.63-4.67-.69-.7m-10.64-10.7-3.2-3.24m-.04-.04-9.88-9.95M136.12 141.66l-3.13-3.15m-7.08-7.13-5.35-5.4m-4.63-4.66-.7-.7M104.6 109.9l-3.2-3.23m-.08-.08L91.05 96.26M135.64 141.67l-3.12-3.14m-5.57-5.6-.3-.33m-.67-.66-5.42-5.46m-4.63-4.67-.7-.7M104.6 110.4l-3.2-3.23m-.13-.13-10.6-10.67M135.11 141.68l-3.1-3.13m-5.27-5.3-6.18-6.22m-4.63-4.67-.7-.7m-10.64-10.72-3.2-3.23m-.19-.19L90.27 96.5M134.64 141.7l-3.1-3.13m-5.06-5.1-5.91-5.95m-4.63-4.66-.7-.7m-10.65-10.73-3.2-3.23m-.23-.23-11.21-11.3M134.17 141.71l-3.1-3.12m-4.7-4.74-5.8-5.84m-4.63-4.67-.7-.7M104.6 111.9l-3.2-3.23m-.28-.28L89.67 96.87M133.7 141.72l-3.1-3.1m-4.32-4.37-5.7-5.74m-4.63-4.67-.7-.7m-10.66-10.74-3.2-3.23m-.33-.32L89.41 97.1M133.22 141.73l-3.04-3.06m-3.97-4-5.63-5.67m-4.63-4.67-.7-.7m-10.66-10.74-3.2-3.23m-.37-.37L89.19 97.37M132.74 141.74l-2.94-2.97m-4.05-4.07-5.16-5.2m-4.64-4.67-.7-.71m-10.66-10.74-3.2-3.23m-.42-.42L88.99 97.67M132.28 141.75l-2.83-2.84m-4.18-4.22-4.68-4.71m-4.63-4.67-.71-.71m-10.66-10.74-3.2-3.23m-.47-.47-12.11-12.2M131.8 141.76l-2.67-2.68m-4.36-4.4-4.18-4.2m-4.63-4.67-.7-.72m-10.67-10.74-3.21-3.23m-.5-.51L88.6 98.26M131.35 141.77l-2.48-2.5m-4.55-4.59-3.72-3.75m-4.63-4.66-.72-.72M104.6 114.8l-3.21-3.24m-.51-.51L88.44 98.53M130.86 141.77l-2.25-2.27m-4.75-4.8-3.26-3.27m-4.63-4.67-.71-.72m-10.67-10.74-3.21-3.24m-.51-.51L88.25 98.84M130.38 141.77l-1.97-2m-4.98-5.01-2.82-2.84m-4.64-4.67-.71-.72m-10.67-10.75-3.21-3.24m-.51-.51-12.8-12.9M129.9 141.77l-1.7-1.71m-5.23-5.27-2.36-2.38m-4.63-4.67-.72-.72m-10.67-10.75-3.21-3.23m-.52-.52-11.7-11.8M129.37 141.76l-1.43-1.43m-5.55-5.6-1.77-1.78m-4.64-4.67-.72-.72M104.6 116.8l-3.21-3.23m-.52-.52-11.18-11.27M128.87 141.76l-1.18-1.2m-5.81-5.85-1.26-1.26m-4.64-4.67-.72-.73M104.6 117.3l-3.21-3.23m-.52-.52-10.9-10.99M128.4 141.76l-.97-.97m-6.02-6.07-.79-.79m-4.63-4.67-.72-.73m-10.68-10.75-3.21-3.24m-.52-.52-10.72-10.8M127.9 141.76l-.73-.74m-6.22-6.27-.32-.32m-4.64-4.67-.72-.73m-10.68-10.76-3.21-3.24m-.52-.51-10.58-10.67M127.42 141.75l-.51-.51m-10.91-11-.73-.72m-10.68-10.76-3.22-3.24m-.5-.52-10.5-10.56M126.92 141.75l-.28-.28M116 130.74l-.73-.73m-10.68-10.76-3.22-3.24m-.51-.52L90.45 105M116 131.23l-.73-.74m-10.68-10.76-3.22-3.24m-.51-.52-10.37-10.44M160.99 118.37l-6.17-6.22m-9.73-9.8-.7-.7m-10.93-11.01-1.1-1.11m-3.53-3.56-.8-.81M161 118.87l-6.17-6.22m-9.73-9.8-.7-.72m-11.31-11.39-1.17-1.17m-3.46-3.49-.87-.88M161.02 119.38l-6.18-6.23m-9.73-9.8-.7-.71m-11.7-11.79-1.24-1.24m-3.39-3.42-.93-.94M109.1 67.07l-.51-.52M161.04 119.84l-6.18-6.22m-9.74-9.8-.7-.72m-12.07-12.15-1.29-1.3m-3.33-3.36-1-1m-17.56-17.7-.57-.58M161.05 120.35l-6.18-6.23m-2.45-2.47-.93-.93m-6.36-6.4-.7-.72m-12.46-12.55-1.36-1.37m-3.26-3.28-1.06-1.07m-17.04-17.17-.65-.65M161.07 120.85l-6.19-6.23m-2.07-2.09-2.25-2.27m-5.42-5.46-.7-.7m-12.85-12.95-1.42-1.43m-3.19-3.21-1.12-1.13m-16.54-16.66-.7-.72M161.08 121.36l-6.18-6.23m-1.9-1.92-3.07-3.1m-4.78-4.8-.7-.71M131.2 91.25l-1.48-1.49m-3.12-3.15-1.19-1.19M109.4 69.3l-.78-.78M161.1 121.9l-6.19-6.24m-1.81-1.83-3.71-3.74m-4.23-4.25-.7-.71m-13.69-13.79-1.52-1.54m-3.08-3.1-1.23-1.23m-15.46-15.58-.85-.85M161.12 122.4l-6.2-6.23m-2.08-2.1-3.9-3.93m-3.77-3.8-.7-.71m-14.11-14.22-1.56-1.57m-3.05-3.07-1.25-1.26m-14.94-15.05-.92-.92M161.14 122.9l-6.2-6.23m-2.1-2.11-4.3-4.34m-3.36-3.38-.7-.71m-14.55-14.66-1.58-1.59m-3.03-3.05-1.26-1.27m-14.43-14.54-.98-.99M161.15 123.42l-6.2-6.25m-2.17-2.19-4.6-4.64m-2.99-3-.7-.71m-15-15.1-1.59-1.6m-3.01-3.05-1.27-1.28M109.7 71.6l-1.05-1.05M161.17 123.92l-6.2-6.25m-2.93-2.95-4.2-4.22m-2.64-2.67-.7-.7m-15.43-15.55-1.6-1.62m-3.02-3.03-1.27-1.28m-13.4-13.5-1.11-1.12M161.19 124.43l-6.21-6.26m-3.62-3.64-3.81-3.85m-2.34-2.35-.7-.7m-15.89-16-1.6-1.63M124 86.97l-1.27-1.28m-12.88-12.97-1.18-1.2M161.2 124.9l-6.2-6.26m-4.2-4.23-3.5-3.52m-2.08-2.1-.7-.7m-16.3-16.43-1.62-1.62m-3-3.04-1.27-1.27m-12.4-12.5L108.69 72M161.22 125.4l-6.21-6.25m-4.69-4.72-3.27-3.3m-1.82-1.83-.7-.71M127.77 91.7l-1.62-1.62m-3.01-3.04-1.26-1.26M110 73.8l-1.3-1.32M161.23 125.9l-6.21-6.26m-4.92-4.95-3.26-3.3m-1.6-1.6-.7-.71m-17.21-17.34-1.62-1.62m-3.02-3.05-1.24-1.25m-11.37-11.46-1.37-1.38M161.25 126.41l-6.22-6.26m-5.1-5.14-3.29-3.31m-1.39-1.4-.7-.72m-17.67-17.8-1.62-1.62m-.5-.5v-.02m-2.53-2.54L121 85.86m-10.85-10.93-1.44-1.45M161.27 126.94l-6.22-6.26m-5.28-5.32-3.3-3.32m-1.2-1.22-.71-.71M132.14 97.6l-.56-.57m-5.17-5.2-1.62-1.63m-.47-.48-.04-.04m-2.53-2.55-1.21-1.22m-10.3-10.38L108.71 74M161.28 127.45l-6.22-6.26m-5.44-5.49-3.3-3.31m-1.05-1.07-.7-.7m-12.45-12.55-1.48-1.5m-4.68-4.7-1.62-1.63m-.44-.45-.08-.08m-2.54-2.56-1.19-1.2m-9.78-9.85-1.58-1.59M161.3 127.95l-6.22-6.27m-5.59-5.63-3.28-3.3m-.93-.94-.7-.7m-12.55-12.65-2.17-2.18m-4.34-4.37-1.62-1.63m-.4-.42-.12-.11m-2.55-2.57L119.66 86m-9.28-9.35L108.74 75M161.32 128.46l-6.23-6.27m-5.72-5.76-3.24-3.27m-.84-.84-.7-.71m-12.67-12.77-2.74-2.76m-4.1-4.13-1.63-1.63m-.38-.4-.14-.13m-2.57-2.59-1.15-1.15m-8.75-8.83-1.7-1.72M161.33 128.96l-6.23-6.27m-5.83-5.88-3.2-3.22m-.77-.78-.7-.7M131.79 99.2l-3.2-3.23M124.63 92l-1.63-1.64m-.35-.36-.18-.18m-2.58-2.6-1.12-1.13m-8.25-8.3-1.77-1.8M161.35 129.47l-6.23-6.28m-5.93-5.97-2.97-2.99m-.9-.91-.71-.71m-12.96-13.06-3.61-3.64m-3.84-3.86-1.64-1.65m-.32-.33-.21-.21m-2.6-2.62-1.1-1.1m-7.72-7.79-1.84-1.85M161.36 129.97l-6.23-6.28m-6-6.04-2.9-2.93m-.9-.91-.71-.71M131.5 99.89l-3.96-3.99m-3.77-3.8-1.66-1.67m-.3-.3-.24-.24m-2.61-2.64-1.07-1.07m-7.22-7.27-1.9-1.92M161.38 130.48l-6.24-6.29m-5.98-6.03-2.99-3m-.84-.85-.7-.71m-13.27-13.37-4.26-4.3m-3.75-3.76-2.22-2.24m-2.64-2.66-1.04-1.05m-6.86-6.9-1.8-1.83M161.4 130.95l-6.24-6.3m-5.95-5.98-3.13-3.16m-.74-.74-.7-.7m-13.43-13.53-4.5-4.54m-3.74-3.76-2.26-2.28m-2.66-2.68-1-1.02m-6.65-6.69-1.6-1.62M161.41 131.46l-6.24-6.3m-5.95-5.99-3.13-3.15m-.74-.75-.7-.7m-13.6-13.7-4.74-4.77m-3.73-3.76L120.26 90m-2.68-2.7-.98-1m-6.4-6.44-1.4-1.4M161.43 131.95l-6.25-6.29m-5.97-6.02-3.11-3.13m-.74-.74-.7-.71m-13.77-13.87-4.94-4.98m-3.7-3.73-2.43-2.45m-2.68-2.7-.98-.98M110 80.14l-1.18-1.2M161.45 132.46l-6.25-6.3m-6.01-6.05-3.08-3.1m-.74-.74-.7-.71m-13.94-14.05-1.56-1.56m-.33-.34-3.24-3.26m-3.66-3.69-2.58-2.6m-2.67-2.68-.97-.98m-5.93-5.98-.97-.97M161.46 133.01l-6.25-6.3m-6.06-6.1-3.03-3.05m-.74-.75-.7-.7m-14.14-14.25-1.44-1.45m-.72-.73-3.13-3.15m-3.6-3.63-2.78-2.8m-2.64-2.66-.99-1m-5.68-5.71-.72-.74M161.48 133.52l-6.25-6.3m-6.12-6.16-2.97-3m-.75-.75-.7-.7m-14.07-14.18-1.58-1.6m-1.1-1.1-3-3.02m-3.53-3.56-3-3m-2.61-2.65-1-1.01m-5.44-5.48-.7-.7M161.5 134.02l-6.26-6.3m-6.17-6.22-2.92-2.95m-.75-.75-.7-.7m-14-14.1-1.72-1.74m-1.46-1.47-2.87-2.9m-3.45-3.47-3.22-3.24m-2.6-2.61-1.02-1.04m-5.21-5.25-1.03-1.04M161.51 134.53l-6.26-6.3m-6.23-6.29-2.86-2.88m-.75-.75-.7-.71m-13.93-14.04-1.87-1.87m-1.38-1.4-3.16-3.18m-3.38-3.41-3.47-3.49m-2.55-2.57-1.05-1.06m-5-5.04-1.77-1.78M161.53 135.03l-6.26-6.3m-6.3-6.35-2.8-2.82m-.75-.76-.7-.7m-13.86-13.97-2-2.02m-1.32-1.32-3.44-3.47m-3.33-3.35-3.7-3.72m-2.5-2.53-1.1-1.1m-4.78-4.82-2.14-2.16M161.55 135.54l-6.27-6.31m-6.36-6.41-2.74-2.76m-.75-.76-.7-.7m-13.8-13.9-2.13-2.15m-1.24-1.25-3.72-3.75m-3.29-3.31-3.93-3.96m-2.46-2.48-1.13-1.13m-4.58-4.62-1.25-1.26m0 0-1.26-1.27M161.56 136.04l-6.27-6.32m-6.43-6.48-2.67-2.69m-.75-.76-.7-.7M131 105.26l-2.27-2.29m-1.17-1.18-3.98-4m-3.27-3.3-4.14-4.17m-2.42-2.44-1.16-1.17m-4.38-4.41-.74-.74m-.69-.7-1.44-1.46M161.58 136.55l-6.27-6.32m-6.5-6.55-2.6-2.62m-.76-.76-.7-.7m-13.66-13.77-2.39-2.4m-1.12-1.13-4.24-4.28m-3.26-3.28-4.35-4.39m-2.38-2.4-1.2-1.2m-4.17-4.2-.52-.52m-1.09-1.1-1.63-1.65M161.6 137.01l-6.28-6.31m-6.57-6.62-2.53-2.56m-.76-.76-.7-.7m-13.6-13.7-1-1.02m-2.56-2.58-4.49-4.51m-3.26-3.3-4.54-4.57m-2.34-2.35-1.22-1.23m-3.99-4.02-.36-.37m-1.16-1.16-2.06-2.08M161.61 137.52l-6.28-6.32m-6.64-6.69-2.46-2.48m-.76-.77-.7-.7m-17.16-17.3-4.73-4.76m-3.3-3.31-4.73-4.77m-2.3-2.32-1.25-1.26m-3.77-3.8-.35-.35m-.97-.98-2.64-2.66M161.63 138.02l-6.28-6.32m-6.72-6.77-2.4-2.41m-.75-.77-.7-.7m-17.16-17.29-4.97-5m-3.33-3.36-4.02-4.05m-.37-.37-.52-.53m-2.27-2.28-1.27-1.29m-3.58-3.6-.48-.48m-1.03-1.04-2.8-2.83M161.64 138.53l-6.28-6.33m-6.79-6.83-2.32-2.35m-.76-.76-.7-.7m-18-18.14-4.36-4.4m-3.38-3.4-3.75-3.77m-.95-.96-.4-.4m-2.24-2.27-1.29-1.29m-1.36-1.37-.53-.54m-1.48-1.49-.64-.65m-.9-.9-3.15-3.17M161.66 139.1l-6.28-6.34m-6.84-6.88-2.28-2.3m-.76-.77-.7-.7m-19.01-19.15-3.6-3.63m-3.43-3.46-3.43-3.45m-1.27-1.28h0m-.34-.35-.26-.26m-2.25-2.27-1.28-1.28m-1.27-1.28-.82-.83m-1.05-1.06-.84-.84m-.88-.89-3.38-3.4M161.68 139.6l-6.3-6.33m-6.85-6.9-2.25-2.28m-.77-.78-.7-.7m-18.96-19.1-3.86-3.89m-3.5-3.52-3.15-3.18m-1.74-1.76-.04-.04m-.42-.42-.14-.13m-2.27-2.3-1.24-1.25m-1.18-1.18-1.02-1.03m-.78-.79-.98-.98m-.72-.73-3.73-3.76M161.7 140.1l-6.3-6.34m-6.85-6.9-2.26-2.28m-.77-.78-.7-.7m-18.91-19.05-4.1-4.14m-3.55-3.57-2.96-2.98m-2.16-2.17-.07-.08m-.5-.5h-.01m-2.36-2.39-.86-.86m-1.32-1.33-1.23-1.25m-.71-.71-.57-.57m-.98-1-4.04-4.06M161.71 140.61l-6.3-6.34m-6.84-6.9-2.27-2.29m-.77-.77-.7-.7m-18.86-19.01-4.35-4.38m-3.6-3.62-2.75-2.77m-2.6-2.62-.1-.12m-4.84-4.87-1.44-1.45m-.65-.65-.12-.12m-1.2-1.2-4.44-4.48M161.73 141.11l-6.3-6.34m-6.82-6.88-2.3-2.31m-.77-.78-.7-.7m-18.81-18.96-4.58-4.6m-3.63-3.66-2.56-2.58m-3.05-3.07-.15-.15m-4.63-4.67-1.64-1.65m-.59-.6-.02-.02m-1.03-1.04-4.87-4.9M161.64 141.52l-6.2-6.24m-6.79-6.84-2.33-2.35m-.77-.79-.7-.7m-18.76-18.9-4.8-4.84m-3.66-3.68-2.38-2.4m-3.5-3.53-.2-.19m-3.38-3.41-.62-.63m-.41-.41-2.03-2.04m-.35-.36-.01-.01m-.59-.59-5.5-5.53M161.23 141.58l-5.77-5.81m-6.75-6.8-2.38-2.4m-.77-.78-.7-.7m-18.75-18.88-4.97-5.01m-3.67-3.7-2.2-2.21m-3.98-4.02-.22-.22m-3.13-3.15-.91-.92m-.18-.18-2.4-2.41m-.12-.13h0m-.15-.15-5.57-5.61M160.8 141.64l-5.33-5.36m-6.7-6.75-2.43-2.45m-.78-.78-.69-.7m-16.45-16.57-.1-.11m-2.36-2.37-4.95-5m-3.68-3.7-2.06-2.07m-4.45-4.49-.26-.26m-2.88-2.9-9.13-9.2M160.4 141.7l-4.92-4.96m-6.65-6.7-2.48-2.5m-.78-.78-.69-.7m-16.72-16.85-.66-.66m-1.68-1.69-4.92-4.96m-3.67-3.7-2-2m-4.84-4.89-.3-.3m-2.66-2.68-8.9-8.97M159.98 141.76l-4.48-4.51m-6.6-6.64-2.53-2.56m-.79-.79-.69-.7m-17-17.13-1.06-1.07m-1.16-1.16-1.06-1.07m0 0-3.82-3.85m-3.66-3.68-1.95-1.96m-5.26-5.3-.33-.34m-2.44-2.46-8.53-8.59M159.56 141.82l-4.05-4.07m-6.53-6.58-2.6-2.63m-.79-.79-.69-.7m-17.29-17.41-1.02-1.03m-1.06-1.07-.01-.01m-1.86-1.88-2.97-2.98M117.05 99l-1.9-1.92m-5.68-5.72-.38-.38m-2.18-2.2-8.4-8.46M159.13 141.89l-3.6-3.64m-6.46-6.5-2.68-2.7m-.79-.8-.69-.7m-17.56-17.68-1-1.02m-2.92-2.93-2.82-2.84m-3.63-3.66-1.84-1.85m-6.14-6.2-.42-.41m-1.86-1.87-8.4-8.48M158.67 141.95l-3.33-3.35m-6.18-6.23-2.76-2.78m-.79-.8-.69-.7m-17.85-17.97-.99-1m-2.69-2.71-2.85-2.87m-3.63-3.66-1.77-1.78m-6.65-6.7-.46-.46m-1.45-1.47-8.29-8.35M158.25 142.02l-2.96-2.98m-6.03-6.08-2.85-2.86m-.79-.8-.69-.7m-18.11-18.24-.98-1m-2.49-2.5-2.86-2.88m-3.65-3.68-1.7-1.7m-7.11-7.18-.5-.5m-1.04-1.05-8.25-8.31M157.83 142.08l-2.53-2.55m-5.95-6-2.92-2.94m-.8-.8-.69-.7m-18.36-18.5-.98-.98m-2.28-2.3-2.87-2.89m-3.67-3.7-1.63-1.64m-7.58-7.64-.55-.55m-.83-.84-8.18-8.24M157.4 142.14l-2.1-2.12m-5.85-5.89-3.01-3.04m-.8-.8-.69-.7m-18.6-18.74-.99-1m-2.08-2.09-2.86-2.87m-3.7-3.74-1.57-1.58m-7.96-8.02-.69-.69m-.62-.62-8.12-8.19M156.98 142.2l-1.67-1.69m-5.75-5.79-3.11-3.13m-.8-.8-.69-.7m-18.84-18.98-1.02-1.03m-1.86-1.87-2.83-2.86m-3.75-3.77-1.5-1.52m-8.05-8.1L106 90.82m-.39-.38-8.07-8.13M156.55 142.26l-1.24-1.25m-5.67-5.71-3.18-3.2m-.8-.82-.69-.68m-19.06-19.21-1.18-1.19m-1.52-1.53-2.81-2.83m-3.8-3.83-1.45-1.46m-8.15-8.2-9.68-9.76M156.13 142.32l-.82-.82m-6.1-6.16-2.74-2.75m-.8-.82-.69-.68m-19.27-19.42-1.34-1.35m-1.3-1.31-2.68-2.7m-3.85-3.87-1.39-1.4m-8.3-8.38-9.68-9.74M161.07 89.11l-6.54-6.58m-9.93-10.01-.95-.96M160.62 89.14l-6.46-6.5M160.11 89.13 154.04 83M160.05 89.52l-6-6.05M160.07 90.02l-6-6.04M160.08 90.52l-4.95-4.99m-.01 0-1.05-1.06M160.1 91.03l-4.97-5m-.48-.5-.56-.56M160.12 91.57l-4.84-4.87m-1.14-1.15-.04-.05M160.14 92.08l-5.01-5.04M160.15 92.58l-5.12-5.16M160.17 93.1l-5.43-5.48M160.18 93.59l-5.81-5.86M160.2 94.1 154.16 88M160.22 94.57l-6.05-6.1M160.23 95.08l-6.04-6.1M160.25 95.57l-6.05-6.1M160.26 96.08l-6.05-6.1M160.28 96.62l-6.05-6.1M160.3 97.12l-6.06-6.1M160.31 97.62l-6.05-6.1M160.33 98.13l-6.06-6.1m-4.04-4.07h0M160.35 98.63l-6.07-6.1m-4.43-4.47-.07-.07M160.36 99.14l-6.06-6.11m-4.82-4.85-.15-.15M160.38 99.64l-6.07-6.11m-5.17-5.21-.25-.25M160.4 100.15l-6.08-6.12m-5.51-5.56-.36-.36M160.41 100.62l-6.07-6.12m-5.83-5.87-.48-.48M160.43 101.13 154.35 95m-6.13-6.18-.64-.63M160.45 101.63l-6.09-6.13m-6.4-6.46-.82-.81M160.46 102.14 154.38 96m-6.7-6.74-.99-1M160.48 102.68l-6.09-6.13m-7.03-7.09-1.15-1.15M160.5 103.2l-6.1-6.14m-7.38-7.45-1.26-1.26M160.51 103.7l-6.1-6.15m-7.75-7.81-1.34-1.35M160.53 104.2l-6.1-6.14m-8.15-8.22-1.4-1.41M160.54 104.7l-6.1-6.14m-8.56-8.64-1.41-1.42M160.56 105.21l-6.1-6.14m-8.53-8.6-1.48-1.48M160.58 105.7l-6.1-6.14m-8.68-8.74-1.36-1.37M160.6 106.22l-6.11-6.15m-8.84-8.9L144.49 90M160.6 106.69l-6.1-6.16m-9.05-9.12-.84-.84M160.63 107.2l-6.12-6.16m-9.34-9.41-.63-.64M160.64 107.7l-6.11-6.17m-9.5-9.56-.6-.6M160.66 108.2l-6.12-6.16m-9.6-9.68-.61-.6M160.68 108.76l-6.12-6.16m-9.6-9.67-.66-.66M160.7 109.27l-6.13-6.16m-9.55-9.62-.71-.72M160.7 109.77l-6.12-6.17m-9.36-9.43-.91-.92M160.73 110.28l-6.13-6.17m-9.55-9.63-.74-.74M160.74 110.78l-6.13-6.17m-9.67-9.75-.67-.67M160.76 111.3l-6.14-6.19m-9.67-9.74-.7-.71m-5.5-5.54-.14-.14M160.77 111.8l-6.13-6.2m-9.68-9.74-.7-.71m-5.88-5.92-.21-.21M160.8 112.3l-6.15-6.19m-9.68-9.75-.7-.71m-6.27-6.3-.28-.3m-4.38-4.4-.02-.02M160.8 112.77l-6.14-6.19m-9.68-9.76-.7-.7m-6.63-6.68-.34-.35m-4.32-4.34-.08-.08M160.82 113.28l-6.14-6.2m-9.7-9.75-.7-.71m-7-7.07-.42-.42m-4.25-4.27-.14-.15M160.84 113.78l-6.15-6.2M145 97.82l-.7-.71m-7.4-7.45-.48-.49m-4.17-4.2-.22-.21M160.86 114.29l-6.15-6.2m-9.7-9.77-.7-.71m-7.79-7.84-.55-.56m-4.1-4.13-.28-.28M160.87 114.83l-6.15-6.2m-9.7-9.77-.7-.7m-8.2-8.27-.64-.64m-4.02-4.05-.35-.35M160.89 115.34l-6.16-6.2m-9.7-9.77-.7-.72m-8.6-8.65-.7-.7m-3.95-3.99-.42-.42M160.9 115.84l-6.15-6.2m-9.7-9.78-.72-.71m-8.97-9.05-.77-.77m-3.88-3.91-.48-.48M160.92 116.35l-6.16-6.2m-9.7-9.79-.71-.71m-9.37-9.44-.84-.84m-3.8-3.84-.55-.55M160.94 116.85l-6.17-6.2m-9.7-9.8-.71-.7m-9.76-9.83-.9-.9m-3.74-3.78-.61-.61M160.96 117.36l-6.17-6.21m-9.72-9.8-.7-.7m-10.15-10.22-.97-.98m-3.67-3.7-.68-.68M160.97 117.86l-6.17-6.22m-9.72-9.79-.7-.71m-10.53-10.6-1.04-1.05m-3.6-3.63-.74-.75M148.68 47.78l-.6-.6M148.55 48.14l-1.4-1.4M148.23 48.27l-1.93-1.94M148.02 48.55l-2.64-2.66M147.7 48.72l-3.23-3.26M147.42 48.92l-3.87-3.9M147.2 49.21l-4.63-4.65M147.12 49.63l-5.47-5.51M147.17 50.16l-6.02-6.06M146.94 50.43l-5.81-5.86M146.7 50.68l-5.6-5.65M146.72 51.18l-5.74-5.78M146.6 51.51l-5.77-5.81M146.21 51.61l-5.52-5.56M153.48 59.42l-.05-.06m-7.58-7.63-5.26-5.3M153.58 60l-.3-.29m-7.69-7.75-4.96-5M153.68 60.62l-.36-.35m-7.86-7.92-4.83-4.87M153.77 61.21l-.4-.4m-7.98-8.04-4.96-5M153.86 61.79l-.46-.47m-8.08-8.14-4.91-4.95M153.96 62.38l-.52-.53m-8.2-8.25-4.84-4.89M154.05 62.96l-.57-.58m-8.3-8.37-4.97-5M154.15 63.54l-.63-.63m-8.42-8.48-5.12-5.16M154.24 64.12l-.68-.69m-8.53-8.6-5.28-5.31M154.34 64.7l-.74-.74m-8.65-8.7-5.22-5.27M154.42 65.25l-.79-.8m-8.74-8.8-5.15-5.2M154.52 65.84l-.85-.85m-8.86-8.93-5.06-5.1M154.61 66.41l-.9-.9m-8.97-9.04-4.99-5.03M154.7 67l-.95-.96m-9.08-9.15-4.9-4.95M154.81 67.64l-1.02-1.03m-9.2-9.27-4.82-4.85M154.9 68.23l-1.07-1.08m-9.31-9.39L139.78 53M155 68.8l-1.13-1.14m-9.42-9.49-4.66-4.7M155.1 69.39l-1.19-1.2m-9.53-9.6L139.8 54M155.19 69.97l-1.24-1.25m-9.64-9.71-4.5-4.53M155.28 70.56l-1.29-1.3m-9.76-9.83-4.4-4.45M155.38 71.13l-1.35-1.35m-9.87-9.94-4.32-4.36M155.47 71.72l-1.4-1.41m-9.98-10.05-4.24-4.28M155.56 72.26l-1.45-1.46m-10.08-10.15-4.17-4.2M155.66 72.85l-1.52-1.52m-10.18-10.26-4.08-4.12M163.14 80.88h0m-7.4-7.45-1.56-1.58m-10.3-10.37-3.99-4.03M163.19 81.42l-.74-.75m-6.6-6.65-1.63-1.64m-10.4-10.48-3.91-3.94M162.8 81.56l-1.1-1.1m-5.75-5.8-1.68-1.69m-10.51-10.59-3.83-3.86M162.6 81.85l-1.59-1.6m-5.04-5.07-1.66-1.68m-10.58-10.65-3.79-3.81M162.6 82.35l-2.26-2.28m-4.7-4.75-1.3-1.3m-10.62-10.7-3.76-3.78M162.07 82.3l-2.41-2.43m-4.34-4.37-.94-.94m-10.65-10.74-3.74-3.77M161.8 82.51l-2.82-2.84m-3.93-3.95-.8-.82m-10.5-10.57-3.73-3.76M161.6 82.8l-3.3-3.32m-1.26-1.27-.06-.06m-2.14-2.16-.73-.73m-10.32-10.4-3.74-3.77M161.44 83.13l-3.81-3.85m-.57-.57-.77-.77m-1.51-1.52-.75-.76M143.85 65.4l-3.76-3.78M161.35 83.53l-5.77-5.81m-.66-.67-.86-.86m-10.15-10.23-3.73-3.76M161.18 83.8l-6.79-6.83M144 66.48l-3.72-3.74M161 84.13l-6.24-6.3m-10.69-10.77-3.68-3.7M160.57 84.16l-4.97-5m-.42-.43-.4-.4m-10.62-10.7-3.65-3.67M160.08 84.17l-4.58-4.61m-11.24-11.33-3.6-3.63M159.97 84.6l-4.65-4.7m-10.95-11.03-3.53-3.55M159.99 85.1l-4.69-4.73m-10.82-10.9-3.44-3.46M161.64 87.25l-.17-.18m-1.48-1.48-4.89-4.93m-10.52-10.6-3.32-3.35M162.11 88.21l-1.29-1.3m-.82-.82-5.1-5.15m-10.22-10.3-3.16-3.17M161.93 88.51l-1.75-1.75m-.17-.18-5.25-5.29m-10-10.07-2.93-2.95M161.73 88.8l-7.01-7.06m-9.9-9.98-2.6-2.6M161.46 89.02l-6.74-6.8m-9.91-9.98-2.06-2.07" style="fill:none;stroke:#140533;stroke-width:.04133164;stroke-linecap:round;stroke-linejoin:round;stroke-miterlimit:22.9255867;stroke-opacity:1"/></svg>