<svg xmlns="http://www.w3.org/2000/svg" width="210mm" height="297mm" viewBox="0 0 210 297"><path d="M38.92 94.62c10.4 1.84 33.71 9 40.32 11.05 11 3.45 28.97 8.15 28.83 8.21-.07.04-.58.87-1.42 2.07a14.02 14.02 0 0 0-1.44 3.56c-.04.17-24.74-.66-24.74-.66l-.11-2.05-3.32.26.14 1.75s-3.97-.32-7.91.9c-3.96 1.2-6.71 3-6.71 3l-6.71-6.97-3.87 2.95-8.24-8.24-4.97 4.49m.1 8.76 5.23 3.22-3.07 5.42m87.3-.1 5.86-22.55-3.4-.89 1.2-3.53-78.3-22.14 5.82-21.66-14.84-3.72-5.9 21.44M50.13 33.79l-5 21.29 15.06 3.15L65.6 37.7zm0 0zM39.1 30.87s12.32 2.26 15.92 3.17c3.62.89 10.08 2.3 12.4 2.77 2.31.45 9.47 1.61 11.73 2l52.39 9.16M135.41 110.1l2.44.69-.45 1.67 11.28 2.14.2-1.06 1.6.3s-.44 1.4.79 1.78c1.22.4 1.69-1.08 1.71-1.13.02-.02 1.42.34 1.42.36l-.3 1.04 2.7.49 8.01 1.92M137.76 111.1l8.66 1.62M165.17 116.93l-8.08-1.95M183.48 115.17l-11.74-2.96-7.62-10.78-3.6-.57 5.8-34.58 3.47.4 5.23-13.3-13.34-1.69-.97 3.05-29.13-6.73 3.6-10.07m.76 1.2-.8 2.35s3.07.53 4.6 2.92c1.5 2.37 1.43 4.74 1.43 4.74l18.63 4.36 1.03-3.38 15.84 2.33-6.12 15.6-3.39-.4-5.29 32.31 2.8.51 7.53 10.73 11.28 3.03M134.82 42.8l-1.35 4.51 6.39 1.36s-.32-2.2-1.17-3.3a6.31 6.31 0 0 0-1.99-2c-.82-.5-1.88-.57-1.88-.57zm0 0z" style="fill:none;stroke:#140533;stroke-width:.12699907px;stroke-linecap:round;stroke-linejoin:round;stroke-miterlimit:4;stroke-dasharray:none;stroke-opacity:1"/><path d="M108.07 113.88s3.76-4.6 9.42-4.72c5.63-.15 8.48 4.64 9.01 6.9.53 2.24-.44 9.12-4.87 12.21a11.3 11.3 0 0 1-15.05-1.48c-1.35-1.54-1.67-3.2-1.58-5.7.06-2.2 1.33-5.07 3.07-7.2zm0 0zM39.15 101.9s1.9 3.34 5.56 2.2c3.67-1.16 4.4-3.66 4.7-4.5.32-.83.68-2.4.68-2.4l1.72.47s-1.55 6.33-4.68 7.57c-3.16 1.25-4.76 1.32-6.25.75-1.46-.58-1.73-1.06-1.73-1.06" style="fill:none;stroke:#140533;stroke-width:.12699907px;stroke-linecap:round;stroke-linejoin:round;stroke-miterlimit:4;stroke-dasharray:none;stroke-opacity:1"/><path d="m166.7 50.95.25 1.38m2.69 14.29.23 1.3m8.4 44.88.2 1.08M167.31 51.04l.26 1.35m2.5 13.44.42 2.18m8.4 44.96.19 1.06M167.93 51.12l.25 1.36m2.3 12.32.4 2.22m8.64 46.12.2 1.06M168.5 51.2l.23 1.34m2.12 11.3.42 2.23m8.83 47.22.19 1.06M169.11 51.3l.23 1.32m1.9 10.19.43 2.22m9.06 48.43.2 1.03M169.7 51.4l.26 1.3m1.7 9.11.41 2.2m9.27 49.62.2 1.03M170.32 51.48l.25 1.3m1.48 8 .43 2.2m9.5 50.82.19 1.01M170.97 51.57l.24 1.29m1.29 6.81.4 2.23m9.74 52.07.19 1.01M171.59 51.67l.23 1.27m1.08 5.72.4 2.2m9.97 53.27.17.87M172.2 51.76l.23 1.25m.87 4.61.4 2.22M172.81 51.84l.24 1.25m.65 3.51.4 2.2M173.4 51.93l.24 1.25m.44 2.4.43 2.2M174.02 52.03l.23 1.2m.26 1.32.4 2.2M174.6 52.1l.23 1.22m.04.28.42 2.22M175.2 52.2l.5 2.58M175.82 52.29l.28 1.48M176.43 52.37l.07.36M131.62 47.76l.05.23M131.98 46.76l.26 1.38M132.39 45.7l.48 2.56M132.77 44.67l.7 3.74M133.17 43.59l.53 2.8m.17.96.23 1.21M133.6 42.46l.48 2.63m.47 2.41.2 1.2M134 41.39l.46 2.47m.7 3.77.23 1.23M134.38 40.33l.46 2.43m.93 5 .24 1.25M134.78 39.27l.38 2m.04.2.26 1.4m.95 5.03.23 1.25M135.18 38.23l.36 1.95m.28 1.46.25 1.4m.93 5 .23 1.24M136.45 41.85l.3 1.52m.89 4.79.23 1.27M137.04 42.13l.34 1.71m.83 4.45.23 1.27M137.72 42.49l.4 2.15m.7 3.77.26 1.3M138.4 42.95l.5 2.77m.54 2.82.25 1.31M139.12 43.63 140.3 50M139.99 44.86l.97 5.29M141.38 49.15l.21 1.15M142 49.3l.2 1.12M142.61 49.45l.21 1.12M143.25 49.6l.2 1.12M143.86 49.75l.21 1.12M144.47 49.87l.21 1.12M145.1 50.02l.22 1.12M145.68 50.17l.21 1.12M146.31 50.32l.2 1.1M146.9 50.44l.22 1.13M147.54 50.6l.21 1.11M148.22 50.76l.21 1.1M148.85 50.91l.2 1.1M149.45 51.06l.2 1.1M150.08 51.2l.21 1.1M150.7 51.33l.2 1.1M151.33 51.48l.21 1.1m8.98 47.99.04.25M151.94 51.63l.2 1.1m8.65 46.19.36 2M152.56 51.78l.21 1.1m8.3 44.34.72 3.81M153.15 51.9l.2 1.1m7.97 42.68.64 3.38m.17.94.2 1.12M153.76 52.05l.22 1.1m7.64 40.83.63 3.37m.51 2.75.21 1.12M154.38 52.2l.21 1.08m7.3 39.05.62 3.37m.84 4.5.21 1.1M155.01 52.35l.2 1.08m6.96 37.23.63 3.32m1.19 6.35.23 1.25M155.7 52.52l.2 1.08m6.59 35.2.6 3.3m1.6 8.42.42 2.35M156.33 52.67l.2 1.08m6.23 33.35.61 3.29m2.12 11.28.45 2.35M156.94 52.82l.19 1.05m5.9 31.58.62 3.28m2.65 14.08.42 2.33M157.57 52.96l.2 1.06m5.56 29.74.62 3.26m3.15 16.95.44 2.33M158.19 53.09l.19 1.08m5.23 27.94.61 3.24m3.68 19.77.45 2.33M158.8 53.24l.21 1.08m4.87 26.1.62 3.21m4.23 22.65.42 2.3M159.42 53.39l.2 1.06m4.56 24.32.6 3.2m4.75 25.43.43 2.31M159.92 52.9l.32 1.7m4.21 22.47.6 3.2m5.29 28.3.44 2.3M160.26 51.78l.49 2.6m3.96 21.15.6 3.15m5.79 30.95.42 2.3M160.64 50.55l.5 2.67M165 73.83l.58 3.16m6.32 33.8.28 1.5M161.15 50.13l.36 1.94m3.77 20.11.57 3.14m6.73 35.96.21 1.16M161.77 50.23l.27 1.46m3.51 18.82.6 3.1m7.07 37.84.2 1.16M162.42 50.32l.28 1.46m3.15 16.91.6 3.09m7.44 39.84.22 1.16M163.04 50.4l.27 1.46M166.15 67l.57 3.07m7.8 41.72.22 1.16M163.65 50.5l.25 1.43m2.7 14.35.4 2.11m8.14 43.56.21 1.15M164.26 50.6l.26 1.41m2.69 14.33.25 1.31m8.32 44.47.21 1.13M164.88 50.68l.25 1.42m2.69 14.3.23 1.32m8.34 44.57.21 1.12M165.5 50.76l.25 1.4m2.68 14.33.24 1.31m8.36 44.66.2 1.1M166.08 50.85l.26 1.4m2.69 14.3.23 1.31m8.38 44.77.21 1.1M107.37 115.2l2.66 14.24M107.81 114.39l2.86 15.32M108.28 113.63l3.05 16.32M108.74 113.16l3.16 16.96M109.25 112.72l3.28 17.54M109.76 112.3l3.39 18.09M110.29 111.9l3.47 18.55M110.84 111.49l3.56 19.03M111.37 111.15l3.62 19.37M111.9 110.83l3.68 19.67M112.45 110.54l3.72 19.9M112.98 110.26l3.76 20.09M113.53 110.03l3.79 20.21M114.06 109.82l3.79 20.3M114.6 109.63l3.82 20.32M115.16 109.48l3.8 20.25M115.75 109.33l3.77 20.17M116.34 109.22l3.75 20M116.94 109.14l3.7 19.79M117.5 109.12l3.65 19.5M118.1 109.1l3.6 19.15M118.71 109.14l3.5 18.71M119.33 109.22l3.38 18.16M119.92 109.33l3.28 17.55M120.55 109.52l3.14 16.76M121.15 109.75l2.98 15.92M121.8 110.05l2.8 14.88M122.46 110.45l2.56 13.65M123.16 110.96l2.28 12.17M123.94 111.66l1.93 10.26M124.7 112.53l1.5 8.08M125.5 113.71l1 5.25M105 121.46l.7 3.77M105.19 119.4l1.37 7.37M105.59 118.35l1.74 9.27M106.03 117.52l2 10.69M106.48 116.74l2.24 11.96M106.92 115.98l2.46 13.12M39.1 103.1l.4 2.17M39.61 102.51l.58 3.14M40.31 103.23l.51 2.7M41.01 103.7l.45 2.43M41.62 104l.4 2.24M42.26 104.19l.38 2.1M42.85 104.27l.38 2M43.44 104.27l.36 1.93M44.06 104.2l.36 1.87M44.63 104.06l.36 1.86M45.18 103.87l.36 1.88M45.73 103.64l.38 1.92M46.28 103.36l.38 2.01M46.81 103.04l.4 2.1M47.34 102.66l.4 2.18M47.85 102.18l.42 2.26M48.3 101.67l.44 2.3M48.76 100.95l.46 2.43M49.18 100.06l.49 2.62M49.58 98.96l.55 2.94M49.96 97.54l.62 3.39M50.51 97.3l.5 2.61M51.13 97.54l.25 1.27M165.53 77.3l-1.16.22M51.53 98.28l-1.86.34M165.39 78.15l-1.15.21M51.28 99.15l-1.89.34M165.26 79.02l-1.17.21M50.94 100.06l-1.9.34m-9.7 1.8-.23.04M165.11 79.82l-1.16.22M50.6 100.9l-2.03.36m-8.66 1.58-.8.15M164.98 80.71l-1.18.21m-113.65 20.9-2.39.44m-7 1.3-1.65.29M164.83 81.56l-1.16.21M49.65 102.75l-3.37.61m-4.23.78-2.94.53M164.69 82.43l-1.17.2m-114.57 21.1-9.19 1.68M164.54 83.36l-1.19.21M47.76 104.82l-6.6 1.23M164.39 84.23l-1.18.2M164.26 85.07l-1.18.24M164.12 85.96l-1.19.21M163.97 86.8l-1.19.22M163.84 87.68l-1.2.23M163.7 88.48l-1.2.23M163.56 89.35l-1.2.23M163.42 90.22l-1.21.2M163.27 91.08l-1.2.22M163.12 92l-1.2.23M162.97 92.86l-1.2.24M162.85 93.73l-1.23.21M162.7 94.6l-1.23.21M162.55 95.44l-1.23.24M162.42 96.33l-1.25.22M162.27 97.18l-1.22.23M162.13 98.05l-1.23.23M162 98.85l-1.25.24M161.85 99.72l-1.25.23M163.54 100.25l-3.07.55M164.9 100.84l-2 .36m-43.55 8.02-6.78 1.25M165.47 101.65l-1.08.19m-43.14 7.93-10.81 2M166 102.39l-1.08.2m-42.5 7.82-13.36 2.45M166.5 103.13l-1.05.19m-42.14 7.77-15.24 2.8M167.04 103.87l-1.06.21m-41.91 7.7-16.49 3.03M167.57 104.61l-1.08.21m-41.8 7.68-17.62 3.24M168.1 105.37l-1.08.2m-41.79 7.68-18.73 3.45M168.6 106.1l-1.06.2m-41.86 7.7-19.7 3.63M169.13 106.85l-1.06.2m-42.01 7.72-20.55 3.79M169.62 107.53l-1.06.21m-42.23 7.77-21.14 3.87M170.15 108.3l-1.06.18m-42.57 7.83-21.5 3.96M170.66 109.01l-1.06.21m-43.01 7.9-21.6 3.98M171.18 109.77l-1.05.2m-43.54 8-21.57 3.98M171.78 110.6l-1.06.19m-44.22 8.13-21.4 3.94M172.62 111.28l-1.37.25m-44.87 8.26-21.15 3.9M174.47 111.76l-2.5.47m-45.76 8.42-20.77 3.81M176.33 112.27l-2.44.45m-47.92 8.82-20.25 3.73M178.17 112.78l-2.37.42m-50.1 9.23-19.62 3.6M180.05 113.27l-2.3.42m-52.4 9.65-18.77 3.45M181.87 113.77l-2.24.4m-54.67 10.06-17.74 3.26M183.44 114.33l-1.86.33m-57.13 10.52-16.43 3M183.44 115.1h-.08m-59.5 10.95-14.97 2.77M123.05 127.07l-12.97 2.37M121.89 128.1l-10.37 1.9M119.94 129.31l-6.26 1.14M135.54 38.27l-.42.09M135.9 39.06l-1.12.2M135.6 39.95l-1.14.2M135.3 40.86l-1.2.2M135.71 41.6l-1.93.36M137.2 42.19l-3.76.68M138.17 42.78l-1.89.34m-1.7.32-1.45.27M138.97 43.48l-1.67.3m-2.99.55-1.52.3M139.56 44.2l-1.56.28m-3.96.74-1.59.3M140.03 44.96l-1.44.26m-4.83.89-1.65.31M140.4 45.77l-1.32.25m-5.6 1.02-1.73.31M140.7 46.57l-1.33.23m-4.34.8-2.81.52M140.92 47.35l-1.32.24m-2.47.46-2.92.53M141.06 48.18l-1.29.23m-.5.09-3.01.55M141.13 48.98l-2.86.53M142.9 49.51l-2.6.49M144.87 49.98l-2.58.46M146.9 50.44l-2.55.5M148.77 50.89l-2.56.46M150.78 51.35l-2.52.47M161.6 50.2l-.9.16m-7.93 1.46-2.52.47M164.16 50.57l-3.73.7m-5.65 1.04-2.5.44M166.93 50.97l-4.3.8m-1.1.2-1.4.25m-3.17.6-2.48.44M169.5 51.35l-4.16.77m-4.08.76-1.4.25m-.87.15-2.45.47M171.99 51.71l-3.98.75m-7.05 1.29-2.43.44M174.55 52.1l-3.81.7m-10.07 1.86-.11.02M176.56 52.56l-3.15.57M176.2 53.47l-1.37.26M175.86 54.36l-1.37.25M175.5 55.27l-1.37.25M175.16 56.12l-1.37.25M174.8 57.03l-1.37.25M174.47 57.92l-1.38.25M174.1 58.83l-1.37.25M173.7 59.84l-1.37.26M173.34 60.75l-1.37.26M173 61.64l-1.4.26M172.65 62.55l-1.4.26M172.29 63.46l-1.38.26M171.93 64.37l-1.38.26M171.59 65.26l-1.4.26M171.23 66.17l-1.4.26m-.7.12-3 .55M170.89 67.02l-3.45.63m-.34.07-1.1.19M170.53 67.93l-.32.04m-3.24.61-1.12.2M166.82 69.43l-1.12.21M166.68 70.3l-1.13.21M166.53 71.25l-1.12.2M166.38 72.12l-1.12.21M166.25 72.97l-1.14.2M166.1 73.83l-1.14.22M165.96 74.7l-1.15.21M165.8 75.57l-1.13.21M165.68 76.44l-1.16.2M51.09 97.53l-1.17.21M163.29 117.94l-1.04 1.02M164.22 118.16l-.72.72M138 112.59l-.34.34M139 112.76l-.81.76M139.99 112.95l-1.17 1.12M140.92 113.12l-1.44 1.4M141.91 113.29l-1.67 1.63M142.9 113.48l-1.86 1.82M143.9 113.65l-1.99 1.95M145 113.86l-1.99 1.95M146.02 114.03l-1.9 1.86M147 114.22l-1.79 1.73M148 114.39l-1.66 1.63M149.85 113.73l-2.46 2.42M150.44 114.33l-2.05 1.98M150.67 115.24l-1.35 1.33M151.44 115.64l-1.23 1.23M153.53 114.66l-2.52 2.48M154.34 115.04l-2.46 2.42M154.57 115.98l-1.84 1.77M155.56 116.15l-1.94 1.9M156.64 116.36l-2 1.97M157.62 116.57l-2.01 1.97M158.55 116.8l-1.93 1.89M159.5 117.03l-1.82 1.76M160.43 117.25l-1.65 1.63M161.4 117.48l-1.48 1.46M162.34 117.71l-1.3 1.25" style="fill:none;stroke:#140533;stroke-width:.04233302px;stroke-linecap:round;stroke-linejoin:round;stroke-miterlimit:4;stroke-dasharray:none;stroke-opacity:1"/><path d="m138.08 112.61.3-1.4M138.7 112.74l.3-1.4M139.3 112.84l.3-1.4M139.94 112.97l.32-1.4M140.6 113.1l.32-1.4M141.28 113.22l.31-1.4M141.98 113.33l.31-1.4M142.7 113.52l.3-1.4M143.35 113.6l.3-1.4M144 113.73l.3-1.4M144.68 113.86l.32-1.4M145.38 113.99l.32-1.4M157.36 116.53l.36-1.4M157.98 116.65l.36-1.37M158.57 116.8l.36-1.4M159.23 116.93l.36-1.38M159.86 117.1l.36-1.4M160.54 117.25l.36-1.4M161.24 117.4l.36-1.4M161.94 117.58l.35-1.37M162.6 117.71l.35-1.37M163.25 117.86l.36-1.38M163.88 118.14l.36-1.4M164.54 118.24l.36-1.37M146.1 114.1l.3-1.4M156.73 116.34l.38-1.4" style="fill:none;stroke:#140533;stroke-width:.08466604px;stroke-linecap:round;stroke-linejoin:round;stroke-miterlimit:4;stroke-dasharray:none;stroke-opacity:1"/><path d="m70.96 41.72-5.18 18.12 1.29.28-1.19 4.3-1.27-.22-4.44 15.6 31.81 9.46 3.79-14.85s-5.14-2.46-4.4-6.6c.72-4.14 3.09-4.7 4.86-4.98 1.78-.26 2.57 0 2.57 0l3.4-15.07zm0 0z" style="fill:none;stroke:#140533;stroke-width:.12699907px;stroke-linecap:round;stroke-linejoin:round;stroke-miterlimit:4;stroke-dasharray:none;stroke-opacity:1"/><path d="m65.31 69.77.83-3.26 1.14.3 1.88-7.94-1.14-.32 1.78-5.86" style="fill:none;stroke:#140533;stroke-width:.12699907px;stroke-linecap:round;stroke-linejoin:round;stroke-miterlimit:4;stroke-dasharray:none;stroke-opacity:1"/><path d="m64.04 70.28 1.3-4.68.1-.23 1.01.3L68 59.8l.08-.25-1.27-.34L71.28 44M69.5 63.1c2.27.49 4.04 1 5.17 2.37 1.08 1.32 1.6 2.84.57 3.8-.36.3-1.44-.11-1.63-1.13 0-.02.59 1.76-.34 2.56-.62.53-2.12.76-3.28-.68-1.08-1.4-.87-1.63-.87-1.63s.87 1.76 2.07 1.46c1.21-.27.96-.65.91-1.12-.02-.46-.06-.57.3-.97.36-.38-.57.1-1.04-.47a3.2 3.2 0 0 1-.63-1.22s1.08.86 1.25-.24a1.9 1.9 0 0 0-.83-1.97c-.08-.04-1.4-.44-1.54-.53-.51-.25-.1-.23-.1-.23zm0 0z" style="fill:none;stroke:#140533;stroke-width:.12699907px;stroke-linecap:round;stroke-linejoin:round;stroke-miterlimit:4;stroke-dasharray:none;stroke-opacity:1"/><path d="M75.79 67.82c.97 4-1.93 6.78-5.21 5.5" style="fill:none;stroke:#140533;stroke-width:.12699907px;stroke-linecap:round;stroke-linejoin:round;stroke-miterlimit:4;stroke-dasharray:none;stroke-opacity:1"/><path d="M69.29 76.6s1.76-.9 1.29-3.27c-.85-4.39-6.98-5.13-8.36-.55-1.1 3.68.06 5.65.06 5.65M62.14 78.62s-.66-.51-.96-.21c-.3.31.21 1.24.79 1.58.59.32.76-.06.7-.2M60.95 79.4c-.04-.02-.28-.1-.28.1.03.2.34.24.4.26" style="fill:none;stroke:#140533;stroke-width:.12699907px;stroke-linecap:round;stroke-linejoin:round;stroke-miterlimit:4;stroke-dasharray:none;stroke-opacity:1"/><path d="M63.28 77.58s-.15-.42-.62-.3c-.48.11-.46.74-.38 1.15M63.36 78.38s-.57-.23-.53.34c.02.47 1.1 1.5 1.46.8M64.63 77.45s-.59-.42-.82.15c-.47 1.12 1.27 2.35 1.63 1.63" style="fill:none;stroke:#140533;stroke-width:.12699907px;stroke-linecap:round;stroke-linejoin:round;stroke-miterlimit:4;stroke-dasharray:none;stroke-opacity:1"/><path d="M67.34 79.15c-2.14.89-3.17-1.74-2.03-2.56.57-.43 1.57-.07 1.57-.07s-2-1.27-1.1-2.47c1.82-2.5 4.63 2.05 2.11 1.75M67.07 79.89s.72 1.12 2.1.95c2.21-.3 2.05-3.22.12-4.23" style="fill:none;stroke:#140533;stroke-width:.12699907px;stroke-linecap:round;stroke-linejoin:round;stroke-miterlimit:4;stroke-dasharray:none;stroke-opacity:1"/><path d="M68.84 75.42c1.78-.46 1.3-3.7-.84-4.68-1.95-.89-3.52-.38-4.64 1.08a5.08 5.08 0 0 0-1 3.66c.05.7.35 1.17.35 1.17" style="fill:none;stroke:#140533;stroke-width:.12699907px;stroke-linecap:round;stroke-linejoin:round;stroke-miterlimit:4;stroke-dasharray:none;stroke-opacity:1"/><path d="M65.12 80.8s1.65 1.08 4.57 1.1c2.9.04 5.89-2.22 7.16-4.32a9.85 9.85 0 0 0 1.52-6.77c-.32-2.63-2.14-5.19-2.14-5.19" style="fill:none;stroke:#140533;stroke-width:.12699907px;stroke-linecap:round;stroke-linejoin:round;stroke-miterlimit:4;stroke-dasharray:none;stroke-opacity:1"/><path d="M64.97 79.44a4.92 4.92 0 0 0 2.88 1.15M69.54 80.76s2.92-.05 4.66-1.78c1.76-1.72 2.98-3.45 3.17-6.59.2-3.13-.95-4.93-.95-4.93M76.87 78.68s-1.06 1.1-1.17 2.14c-.1 1.06.32 1.73.9 2.2.56.47.97.17.92-.23-.06-.4-.53-.43-.63-1.27-.09-.87.08-.98.15-.8.06.18.08 1.35.55 1.54.46.19.42-.38.34-.68-.07-.27.23.72 1.29 1.76a6.39 6.39 0 0 0 2.94 1.35" style="fill:none;stroke:#140533;stroke-width:.12699907px;stroke-linecap:round;stroke-linejoin:round;stroke-miterlimit:4;stroke-dasharray:none;stroke-opacity:1"/><path d="M78.05 67.31s1.61 2.5 1.3 5.91c-.3 3.4-.92 3.66-.58 6.07a7.53 7.53 0 0 0 2.2 4.09" style="fill:none;stroke:#140533;stroke-width:.12699907px;stroke-linecap:round;stroke-linejoin:round;stroke-miterlimit:4;stroke-dasharray:none;stroke-opacity:1"/><path d="M85.84 76.42c.3-.96 4.1-3.67 5.93 1.69 1.82 5.35-3.7 9.33-7.96 6.37-5.59-3.87-3.11-8.55-3.47-13.36-.1-1.4-.78-2.81-.78-2.81" style="fill:none;stroke:#140533;stroke-width:.12699907px;stroke-linecap:round;stroke-linejoin:round;stroke-miterlimit:4;stroke-dasharray:none;stroke-opacity:1"/><path d="M84.85 78.2s.36-1-.47-1.47c-.85-.46-2.62-.23-2.62 2.2 0 1.63 1.63 3.16 2.94 1.93M84.2 81.64s0 1.74 1.68 2c1.72.27 2.27-.92 2.06-1.66a2.48 2.48 0 0 0-1.42-1.67M86.69 79.6s.13.84 1.08 1.13c.97.3 1.99-.46 1.73-1.63-.25-1.14-.72-1.71-1.67-2.13-.95-.43-1.63.31-1.63.31" style="fill:none;stroke:#140533;stroke-width:.12699907px;stroke-linecap:round;stroke-linejoin:round;stroke-miterlimit:4;stroke-dasharray:none;stroke-opacity:1"/><path d="M86.3 78.79c-.52.27-1.43-.13-1.3-.77.1-.6 1.03-.82 1.3-.7.28.13.37.75.18.94-.22.17-.38.08-.38.08M80.68 69.05s1.48 2.26 1.27 3.05c-.2.78-.49.9-.26 1.33.24.4.79.34.85 1.02.06.72-.49.74-1 1.5-1.16 1.67-.8 4.04-.8 4.04M87.81 85.81s.47-.55.15-.97c-.32-.42-1.42-.7-1.76-.25-.32.44-.38.9.13 1.44.5.52 1.23.31 1.33.33M90.12 86.66c.1-.27.12-.83-.36-1.1-.49-.28-.98.02-1 .42 0 .38.26.83.57.93.32.11.62-.1.62-.1M91.94 86.22c0-.07-.15-.55-.53-.4-.38.12-.45.37-.4.59.06.2.4.48.65.42.28-.08.28-.38.28-.38M72.1 81.43l4 1.2M77.5 82.98l2.25.78M83.66 84.97l2.37.65" style="fill:none;stroke:#140533;stroke-width:.12699907px;stroke-linecap:round;stroke-linejoin:round;stroke-miterlimit:4;stroke-dasharray:none;stroke-opacity:1"/><path d="M88.74 86.26c-.15-.07-1.78-.53-1.78-.53M90.12 86.66s1.65.38 1.73.44c.1.05.28-1.16.43-1.88.17-.74 1.27-5.93 1.41-6.88.15-.93.91-3.53.91-3.53s-2.1-1.06-2.87-2.1a18.24 18.24 0 0 1-1.61-2.81l-.79-.17M70.81 81.8s6.67 2.07 8.55 2.74c1.91.66 5.68 1.72 6.54 2.06.9.34 5.78 1.71 5.78 1.71l.17-.72" style="fill:none;stroke:#140533;stroke-width:.12699907px;stroke-linecap:round;stroke-linejoin:round;stroke-miterlimit:4;stroke-dasharray:none;stroke-opacity:1"/><path d="M91.39 85.14S93.1 77 93.3 76.29c.21-.72.26-1.12.26-1.12s-1.7-.85-2.73-2.31a49.85 49.85 0 0 1-1.6-2.35l-2.8-.68M86.92 67.72c-.6 1.2 1.25 3.2 2.24 1.82 1.04-1.48.13-3.05-1.96-2.7M88.91 66.57s1.3.09 1.19-1c-.11-1.1-.9-1.26-1.25-1.22-.36.04-1.25.4-1.23 1.1.02.68.61.85.61.85" style="fill:none;stroke:#140533;stroke-width:.12699907px;stroke-linecap:round;stroke-linejoin:round;stroke-miterlimit:4;stroke-dasharray:none;stroke-opacity:1"/><path d="M85.46 67.55s.49.82.91.72c.45-.1.5-.34.57-.66.07-.34-.3-.87-.3-.87M87.34 68.33s.5.4.79.2c.3-.22.27-.73.1-1.05-.17-.31-.95-.65-.95-.65M81.65 70.8s1.06 2.48 3.26 3.14c2.2.63 4.45.25 4.78.06.26-.15.38-.8-.27-.67-1.4.25-1.7.33-2.92-.36-.62-.36-1.1-.43-1.63-.75-.53-.33.82.53 2.11.34 1.3-.17 1-.65 1-.65-.38-.66-1.36.23-2.01-.28-.68-.48-.74-.63-.74-.63" style="fill:none;stroke:#140533;stroke-width:.12699907px;stroke-linecap:round;stroke-linejoin:round;stroke-miterlimit:4;stroke-dasharray:none;stroke-opacity:1"/><path d="M84.3 70.13s.42.78.93.87c1.46.27 1.29-2.31-1.08-2.59M82.9 68.44s.44.55.93.23c.49-.34.47-.93.34-1.14-.15-.22-.3-.26-.3-.26M81.9 70.2s-.36-.73-.84-1.55c-.51-.8-1.48-1.53-2.54-2.33-1.06-.78-1.55-1.12-1.55-1.12s2.18 1.54 3.8 1.9c1.6.36 2.21.4 2.53.02.34-.38.26-.8.1-1.08-.12-.3-.4-.48-.4-.48M83.92 66.28s.95.7 1.84.57c.89-.1.9-.28.97-.8.06-.56-.44-1-.44-1" style="fill:none;stroke:#140533;stroke-width:.12699907px;stroke-linecap:round;stroke-linejoin:round;stroke-miterlimit:4;stroke-dasharray:none;stroke-opacity:1"/><path d="M83.94 64.69s1.82.55 2.4.36c.88-.28 2.08-2.1 3.27-1.7.57.2.57.24.57.24-.47-1.02-1.86-1.57-2.9-1.06-.57.3-1.06.38-1.59.21" style="fill:none;stroke:#140533;stroke-width:.12699907px;stroke-linecap:round;stroke-linejoin:round;stroke-miterlimit:4;stroke-dasharray:none;stroke-opacity:1"/><path d="M92.95 60.94s-.7-1.03-2.58-.8c-2.33.27-2.37 2.43-4.08 2.69" style="fill:none;stroke:#140533;stroke-width:.12699907px;stroke-linecap:round;stroke-linejoin:round;stroke-miterlimit:4;stroke-dasharray:none;stroke-opacity:1"/><path d="M75.96 63.9s1.92 1.15 4.19.9c2.24-.26 4.38-3.73 5.9-4.66 1.5-.91 2.5-1.59 4.17-1.08 1.7.49 2.7 1.84 2.7 1.84" style="fill:none;stroke:#140533;stroke-width:.12699907px;stroke-linecap:round;stroke-linejoin:round;stroke-miterlimit:4;stroke-dasharray:none;stroke-opacity:1"/><path d="M75.7 63.04s2.1.87 3.47.74c1.38-.13 1.8-.74 2.18-.87a5.55 5.55 0 0 0 1.76-1.63c.6-.8 1.42-.76 2.05-1.73.64-.96.85-1.13.96-1.7.1-.59-.26-1.16.59-1.46.82-.3 1.06.15 1.4-.57.31-.7-.22-1.33.06-1.97.3-.61-.06-1.25 1.48-2.03 1.55-.8 2.75-.8 2.75-.8M93.93 56.84c.02-.13-.02-.93-.45-.64-.42.3-.46.7-.23 1.08.23.38 1.08.49 1.5.09.43-.43.4-1.06.3-1.38-.1-.3-.34-.36-.34-.36" style="fill:none;stroke:#140533;stroke-width:.12699907px;stroke-linecap:round;stroke-linejoin:round;stroke-miterlimit:4;stroke-dasharray:none;stroke-opacity:1"/><path d="M95.1 56.2s.46-.19.82-.42c.38-.26.48-.66.42-1.27-.06-.62-.4-.87-.78-.89-.4-.02-1.17.49-1.17.49s.49-1.21.3-1.72c-.2-.48-.76-1.29-1.74-.78-.95.49-1.12 1.44-1.2 1.7-.09.25-.09.35-.09.35" style="fill:none;stroke:#140533;stroke-width:.12699907px;stroke-linecap:round;stroke-linejoin:round;stroke-miterlimit:4;stroke-dasharray:none;stroke-opacity:1"/><path d="M92.47 54.68s-.43-.83-.8-1.02a1.15 1.15 0 0 0-1.64 1.06c-.15 1.25.62 1.8.98 1.97.36.17.78.04.78.04s.08.64.42.68c.36.04.64-.4.36-.76-.27-.36-.5-.62-.5-.62" style="fill:none;stroke:#140533;stroke-width:.12699907px;stroke-linecap:round;stroke-linejoin:round;stroke-miterlimit:4;stroke-dasharray:none;stroke-opacity:1"/><path d="M92.21 57.4s.17 1.02 2.12 1.55c1.95.53 3-.4 3.51-1.05.53-.64 1.1-2.1.98-3.33a5.08 5.08 0 0 0-2.73-4.15c-2.01-.95-3.26-1.08-5.32-.4a7.3 7.3 0 0 0-3.98 2.92c-.57.98-1.29 2.65-1.29 2.65M84.91 56.16s-1.5 3.39-3.09 5a6.54 6.54 0 0 1-4.4 1.92c-.76-.04-1.12-.3-1.12-.3" style="fill:none;stroke:#140533;stroke-width:.12699907px;stroke-linecap:round;stroke-linejoin:round;stroke-miterlimit:4;stroke-dasharray:none;stroke-opacity:1"/><path d="M94.77 51.19s.66.04.6-.68a1.58 1.58 0 0 0-1.3-1.42c-.63-.1-1.05.42-1.03.93.02.55.7 1.04 1.2 1.1M96.02 49.3s.45-.3.21-.65c-.23-.39-.9-.47-.95-.17-.04.3.09.61.34.76M98.03 49.5c.17.1.7-.2.53-.6-.15-.42-.78-.7-1.01-.38-.26.3-.28.74-.05.95.24.21.36.1.36.1M100.17 49.62c-.08-.21-.19-.42-.4-.47-.23-.04-.49 0-.57.28-.1.27.02.61.25.74.23.1.49.08.62-.06.12-.15.1-.53.1-.53M89.5 68.86l1.7.27" style="fill:none;stroke:#140533;stroke-width:.12699907px;stroke-linecap:round;stroke-linejoin:round;stroke-miterlimit:4;stroke-dasharray:none;stroke-opacity:1"/><path d="m89.57 67.97.63.06s.34-1.48.66-2.4a6.67 6.67 0 0 1 4.08-3.71c.93-.24 3.07-.43 3.07-.43l2.88-12.8-29-5.82" style="fill:none;stroke:#140533;stroke-width:.12699907px;stroke-linecap:round;stroke-linejoin:round;stroke-miterlimit:4;stroke-dasharray:none;stroke-opacity:1"/><path d="M90.43 64.63s1.08-1.76 2.8-2.92c1.71-1.19 4.23-1.49 4.23-1.49l.57-1.99M98.84 55.14l.93-4.9M99.4 49.17s-3.78-.74-4.46-.82c-.7-.09-6.47-1.17-8.87-1.5-2.39-.32-13.18-2.76-13.18-2.76M71.45 61.77c.38.04 1.56.1 2.18-.8.6-.92.21-2.31 1.29-2.38.5-.02.76.36.7.72-.04.2-.26.32-.4.45-.43.34 1.05.46 1.3-.3.3-.95-.22-2.05-1.07-2.45 0 0 1.8-.13 1.95 2.3.06 1.08.14 2.46-.8 3.16-.43.31-.8.72-1.93.72-1.15 0-1.21-.1-1.21-.1" style="fill:none;stroke:#140533;stroke-width:.12699907px;stroke-linecap:round;stroke-linejoin:round;stroke-miterlimit:4;stroke-dasharray:none;stroke-opacity:1"/><path d="M76.89 62.2c1.25.16 2.24-1.66 1.54-2.89-.36-.63-1.1-.46-1.1-.46" style="fill:none;stroke:#140533;stroke-width:.12699907px;stroke-linecap:round;stroke-linejoin:round;stroke-miterlimit:4;stroke-dasharray:none;stroke-opacity:1"/><path d="M78.45 62.04s2.71-1.35 3.43-2.96a11.4 11.4 0 0 0 1.23-3.98 5.9 5.9 0 0 0-.74-3 4.95 4.95 0 0 0-2.05-1.82c-.53-.28-1.32.1-1.84-.53-.53-.62-.45-.7-.64-1.13-.19-.42-.55-.48-.91-.52-.36-.07-.47.2-1.04-.07l-.57-.27" style="fill:none;stroke:#140533;stroke-width:.12699907px;stroke-linecap:round;stroke-linejoin:round;stroke-miterlimit:4;stroke-dasharray:none;stroke-opacity:1"/><path d="M83.96 54.49s.08-2.94-2.27-5.7c-2.35-2.77-3.55-2.68-5.73-2.73-2.75-.04-.9.34-2.65 1.06-.7.3-1.12.42-1.12.42a5.11 5.11 0 0 0-1.72 6.52c.79 1.72 3.26 3.14 5.19 2.78 1.93-.38 1.84-1.97 1.84-2.48 0-.5-.21-.97-.21-.97" style="fill:none;stroke:#140533;stroke-width:.12699907px;stroke-linecap:round;stroke-linejoin:round;stroke-miterlimit:4;stroke-dasharray:none;stroke-opacity:1"/><path d="M77.95 53.32s.93-.04.63-1.63c-.44-2.13-2.33-2.39-2.45-.5" style="fill:none;stroke:#140533;stroke-width:.12699907px;stroke-linecap:round;stroke-linejoin:round;stroke-miterlimit:4;stroke-dasharray:none;stroke-opacity:1"/><path d="M74.92 52.77s-1.02-.38-1.27-1.46c-.5-2.22 2.1-2.66 2.56-1.54.21.5.17.57.17.57" style="fill:none;stroke:#140533;stroke-width:.12699907px;stroke-linecap:round;stroke-linejoin:round;stroke-miterlimit:4;stroke-dasharray:none;stroke-opacity:1"/><path d="M74.03 52.1c-1.48-.07-1.06 1.92-.25 2.51.72.53 1.8.26 1.8.26M74.77 49.15s.3-.78.09-1.12c-.22-.36-.72-.55-1.1-.49-.36.05-.8.4-.87.66-.07.25-.09.57.15.93.2.36.42.51.55.55M72.68 47.38s-.68-.55-.64-1.23c.06-.7.23-.93.6-1.08.35-.13 1.03-.21 1.24.17.24.38.45.95.32 1.2M72.04 44.56c.09.36.45.55.72.4.28-.17.23-.61.17-.89-.08-.27-.32-.57-.5-.48-.22.08-.35.53-.35.53s-.02-.85-.17-1.02c-.12-.17-.27-.28-.44-.06-.17.19.02.86.08 1.03.09.17.17.36.32.34.13 0 .2-.06.2-.06M84.44 55.3s.39-2.3 1.02-3.48c.61-1.16 1.2-1.88 1.93-2.62.7-.77 1.29-1.23 2.45-.94 1.19.3 1.23.43 1.23.43s-1.31-1.12-2.65-1.2c-1.33-.1-2.43.35-2.66.94-.26.6-.17 1.25-.17 1.25" style="fill:none;stroke:#140533;stroke-width:.12699907px;stroke-linecap:round;stroke-linejoin:round;stroke-miterlimit:4;stroke-dasharray:none;stroke-opacity:1"/><path d="M86.26 47.63s.07-.72-.38-.72c-.42 0-.65.49-.8.8l-.17.47s.15-.72-.21-1c-.36-.27-.74.2-.89.5a6.22 6.22 0 0 0 .25 4.78M76.74 53.94c.5 1.71-1.12 2.56-2.73 2.18-1.6-.38-3.22-2.01-3.28-3.69-.15-3.28 1.35-3.57 1.35-3.57M94.18 89.7l3.35-14.55s4.4.84 6.81-1.04c2.6-2.01 2.37-5.74.87-8.2-1.19-1.94-3.98-2.93-3.98-2.93l2.94-15.58c4.15.4 7.43 1.54 11.24 2.07a410.4 410.4 0 0 1 28.6 5.3l-3.52 20.08s-3.32-.13-3.4 3.11c-.09 3.22 1.4 3.3 1.4 3.3l-4.28 18.97zm0 0z" style="fill:none;stroke:#140533;stroke-width:.12699907px;stroke-linecap:round;stroke-linejoin:round;stroke-miterlimit:4;stroke-dasharray:none;stroke-opacity:1"/><path d="m139.56 72.67 3.03-17s-1.84-.5-3.1-.5-11.72-1.85-15.17-2.78c-3.43-.9-19.45-4-19.45-4l-2.35 13.67M102.35 62.49s4.02 1.97 4.6 5.04c.59 3.04.08 5.92-1.3 6.85-1.37.94-3.57 2.04-5.14 2.06-1.57.02-2.29-.09-2.29-.09l-2.6 12.02-.13.7 36.43 9.8 1.42.36 3.4-17.2" style="fill:none;stroke:#140533;stroke-width:.12699907px;stroke-linecap:round;stroke-linejoin:round;stroke-miterlimit:4;stroke-dasharray:none;stroke-opacity:1"/><path d="M138.1 82.9s-2.92-1.4-3.39-3.99a5.27 5.27 0 0 1 1.63-4.84c.66-.72 2.52-1.5 3.24-1.4.72.1 1.27.1 1.27.1M99 77.35 96.5 88.6l12.68 3.26c1.67.42 9.88 2.47 11.22 2.96 1.35.5 2.94.89 4.02 1.19l3.9 1.08M132.58 98.15c.04-.31-.38-.95-.74-.86-.34.08-.6.31-.6.61s.28.61.51.63c.26 0 .72-.08.72-.08" style="fill:none;stroke:#140533;stroke-width:.12699907px;stroke-linecap:round;stroke-linejoin:round;stroke-miterlimit:4;stroke-dasharray:none;stroke-opacity:1"/><path d="M131.16 97.54c.15-.06.25 0 .38-.38.15-.38-.38-.93-.66-.87-.25.06-.86.34-.84.87 0 .53.19.76.59.85.4.08.61-.07.61-.07M130.04 96.52c.1-.08.38-.57.12-1.08-.25-.52-1.33-.78-1.77-.46-.47.34-.8.78-.53 1.42.25.65.53.8.97 1.06.47.25.8.14.8.14" style="fill:none;stroke:#140533;stroke-width:.12699907px;stroke-linecap:round;stroke-linejoin:round;stroke-miterlimit:4;stroke-dasharray:none;stroke-opacity:1"/><path d="M128.34 95.66s.17.33.47.12c.3-.2.4-1.01.17-1.46-.21-.44-1.55-1.31-2.67-.57-1.27.83-.55 2.71 1.04 3.11.78.2.82.1.82.1M125.17 88.93s-1.4-1.42-2.4-1c-1 .4-1.41 2.35-1.1 3.05.32.7 1.04.93 1.49.7.46-.26.48-.8.48-.8s-.31 1.45.3 2.05c.62.59 1.97.76 2.63.44.63-.32.93-.97.8-1.42a2.53 2.53 0 0 0-1.12-1.4c-.62-.33-.62-.3-.62-.3s1.87.94 2.38.22c.5-.7.48-1.9-.11-2.45-.6-.53-1.52-.58-2.14-.39-.61.2-.6 1.3-.6 1.3zm0 0zM125.4 87.25s-.1-1.42 1.38-1.18c1.48.2 1.94.95 1.94.95" style="fill:none;stroke:#140533;stroke-width:.12699907px;stroke-linecap:round;stroke-linejoin:round;stroke-miterlimit:4;stroke-dasharray:none;stroke-opacity:1"/><path d="M125.04 86.9s0-1.09 1.17-1.6c1.18-.5 2.3.03 3.17.62a4.72 4.72 0 0 1 1.7 4.17" style="fill:none;stroke:#140533;stroke-width:.12699907px;stroke-linecap:round;stroke-linejoin:round;stroke-miterlimit:4;stroke-dasharray:none;stroke-opacity:1"/><path d="M128.05 77.73s-3.73-.55-6.56 2.83c-2.86 3.41-4.2 7.29-2.31 10.9.87 1.68 2.86 4.64 6.92 4.03 2.98-.47 4.76-4.45 4.76-4.45" style="fill:none;stroke:#140533;stroke-width:.12699907px;stroke-linecap:round;stroke-linejoin:round;stroke-miterlimit:4;stroke-dasharray:none;stroke-opacity:1"/><path d="M129.76 93.05s1.65-.63 2.06-1.75c.42-1.15.31-1.6.31-2.23 0-.63.17-1.29.66-1.77.49-.5.89-.6 1.37-.28.5.32.55.53.53.66-.02.12.05-1.06-.38-1.6a1.93 1.93 0 0 0-1.52-.58c-.26.06-.89.63-.89.63s.85-.9.63-1.5c-.2-.57-.8-.38-.99.02-.21.4-.15 1.12-.2 1.42-.03.27-.14.25-.14.25" style="fill:none;stroke:#140533;stroke-width:.12699907px;stroke-linecap:round;stroke-linejoin:round;stroke-miterlimit:4;stroke-dasharray:none;stroke-opacity:1"/><path d="M130.42 87.13s-.26-1.5.17-1.72c.42-.21.74-.1.76.2M129.04 78.22c-1.06.04-2.64.9-2.77 1.62-.13.7-.04 2.06.21 2.42.26.38 1.02.63.42.93-.59.3-1.2-.13-1.37-.68-.17-.53-.3-.78-.3-.78M122.2 82s-.46.62-.33 1.36c.1.72.7 1.4.97 1.2.28-.19.4-.93.25-1.48" style="fill:none;stroke:#140533;stroke-width:.12699907px;stroke-linecap:round;stroke-linejoin:round;stroke-miterlimit:4;stroke-dasharray:none;stroke-opacity:1"/><path d="M122.99 82.26s-.04.53.1.76c.15.23.47 0 .75-.28.27-.3.5-.76.59-1.18.08-.42.08-.49.08-.49s-.1 1.12.02 1.48c.13.39.32.68.62.58.3-.09.4-.53.4-.53M129.6 76.95s-4.07-.26-4.75-.17c-.65.08-3.58-.22-5.44 1.29a12.73 12.73 0 0 0-2.54 2.5s-1.12 1.07-1.9 1.58c-.8.49-1.68.49-1.63-.38.04-.87.25-.95.25-.95s-1.04.34-1.04 1.04.6 1.27.6 1.27-.34.44-.6.38c-.25-.09-.46-.47-.53-.79-.06-.31-.04-.65-.04-.65s-.38.17-.57.87c-.19.7-.23.82 0 1.22s.4.3.28.34c0 0-.17.38-.8.38-.66 0-.62.6-.5.87.13.25.05.61-.65.68-.68.06-1.12-.02-1.12-.02s.23.42.7.53c.44.1.55.02.55.02s-.5.08-.34.23c.1.13.93.32 1.65 0 1.8-.72 2.14-1.86 2.62-2.56.51-.68 2.4-1.84 2.52-1.86" style="fill:none;stroke:#140533;stroke-width:.12699907px;stroke-linecap:round;stroke-linejoin:round;stroke-miterlimit:4;stroke-dasharray:none;stroke-opacity:1"/><path d="M124.85 76.78s-3.03-.05-5.16 3.45a15.4 15.4 0 0 0-2.59 9.03 7.33 7.33 0 0 0 2.02 5.15s-1.44-.64-2.27-2.18c-.85-1.55-1.02-2.63-1.02-2.63s.07 1.97.15 2.52l.09.62s-.83-.6-1.23-1.4c-.4-.83-.32-3.32-.02-3.96.3-.66.8-1.97 1.1-2.77.3-.79.04-1.36.66-2.12.6-.74 2.24-2.37 2.24-2.37" style="fill:none;stroke:#140533;stroke-width:.12699907px;stroke-linecap:round;stroke-linejoin:round;stroke-miterlimit:4;stroke-dasharray:none;stroke-opacity:1"/><path d="M116.13 83.5s-2.96 4.32-5.48 5.49c-2.52 1.16-5.36 1-6.58.25-1.21-.76-2.37-2.73-2.37-2.73" style="fill:none;stroke:#140533;stroke-width:.12699907px;stroke-linecap:round;stroke-linejoin:round;stroke-miterlimit:4;stroke-dasharray:none;stroke-opacity:1"/><path d="M115.39 86s-2.35 3.54-3.98 4.2c-1.65.67-5.16 1.43-7.64-.22-2.46-1.63-2.92-2.62-3.26-3.72-.34-1.08-.7-5.74 1.93-7.5 2.64-1.75 4.23-1.46 5.22-.95 1.02.49 2.73 1.55 2.48 3.22-.25 1.67-.7 2.86-2.05 3.13-1.34.3-1.63.09-1.63.09" style="fill:none;stroke:#140533;stroke-width:.12699907px;stroke-linecap:round;stroke-linejoin:round;stroke-miterlimit:4;stroke-dasharray:none;stroke-opacity:1"/><path d="M101.36 84.2s-.64-1.2.65-3.76c1.32-2.54 4.45-2.54 5.63-2.06 1.17.51 2.18 1.61 1.8 3.75-.4 2.12-2.9 2.12-2.9 2.16" style="fill:none;stroke:#140533;stroke-width:.12699907px;stroke-linecap:round;stroke-linejoin:round;stroke-miterlimit:4;stroke-dasharray:none;stroke-opacity:1"/><path d="M98.44 83.44s-.53 1.15.4 1.7c.95.55 2-.02 2.43-.3.43-.28.2-.6.2-.6s.73.26.92-.01c.2-.26.22-.8.62-.85.4-.04.84.55.84.55" style="fill:none;stroke:#140533;stroke-width:.12699907px;stroke-linecap:round;stroke-linejoin:round;stroke-miterlimit:4;stroke-dasharray:none;stroke-opacity:1"/><path d="M99.94 82.32s-.66.26-.47.83c.2.57 2 1.1 2 1.1M103.85 83.93s-.82-.8-.9-1.23c-.1-.42.08-1.9 1.16-2.03 1.1-.13 1.65.28 1.84.89.19.61.32.95.06 1.33-.25.38-.89.32-1.03-.02" style="fill:none;stroke:#140533;stroke-width:.12699907px;stroke-linecap:round;stroke-linejoin:round;stroke-miterlimit:4;stroke-dasharray:none;stroke-opacity:1"/><path d="M106.1 82.02s1.27.03 1.78.85c.5.85.9 2.37.3 3.03-.6.63-1.45.72-1.91.27-.47-.42-.55-.63-.55-.63s1.46 1.4 1.06 2.28c-.4.87-1.93 1.08-2.46.43-.53-.64-.8-1.12-.76-1.72.04-.57.12-.89.12-.89s-.2.94-.57.58c-.36-.34-.3-1.3-.3-1.3M100.57 88.9c-1.03-.97-.46-3.68 2.27-3.23M117.4 81.96s-.57-1.12-.53-1.78c.04-.67.1-.95.1-.95s-.54-.32-.35-.7c.19-.36.08-.87.63-1.06.57-.19 1.1-.17 1.1-.17s-.67-.5-.02-1.14c.66-.65 1.15-1.1 2.52-1.14 1.36-.04 1.86-.15 3.24.4 1.38.55 2.2.57 2.54.76M127.73 76.84s-1.04-.4-1.25-1.02c-.21-.63.28-1.27.78-1.27.53-.04 1.72.66 1.89 1.1.17.45.15.77.15.77s.3-.66.53-.62c.23.04.4 0 .4 0s-.6-.21-.85-.68c-.25-.46.17-1.2.74-1.2.55 0 .98.32 1.08.44.1.13.3.91.3.91s-.3-1.29.04-1.78c.34-.48 1.38-.38 1.86.75.49 1.12.45 1.86.62 2.07.17.21.65.57.65.57M134.63 77.94s-.44-.44-1.33.5c-.87.94-1.08 1.53-1.9 1.32-.83-.23-1.07-.57-1.09-1.35-.02-.79.26-.96.26-.96s-.53.9-.68.96c-.15.06-.66.14-.91-.28-.23-.42-.38-.72-.13-.87.26-.17.74-.31.74-.31" style="fill:none;stroke:#140533;stroke-width:.12699907px;stroke-linecap:round;stroke-linejoin:round;stroke-miterlimit:4;stroke-dasharray:none;stroke-opacity:1"/><path d="M121.55 75s-.89-.3-2.56-.45a10 10 0 0 1-3.41-.76c-.66-.34-.66-.49-.66-.49s.28 1.19-.3 1.17c-.54-.02-.73-.1-.7-.26.05-.14-.52-.04-.63-.5-.1-.47.36-1.02.36-1.02s-1.14 0-1-.6c.16-.6.7-.94 1.03-.84" style="fill:none;stroke:#140533;stroke-width:.12699907px;stroke-linecap:round;stroke-linejoin:round;stroke-miterlimit:4;stroke-dasharray:none;stroke-opacity:1"/><path d="M114.67 71.7c-.7-.22-.89.08-1-.68-.1-.74.83-.83.98-.72M114.67 71.2s.17-.73.53-.58c.36.14.47.44.42.93-.06.46-.27.72-.34.76M114.92 72.5s.32.78 2.59 1.16c2.26.39 3.72.39 3.72.39M123.22 75.12s-1.04-.57-1.73-1.41c-.72-.85-.98-1.38-.6-1.42.38-.04.57.04.62.23" style="fill:none;stroke:#140533;stroke-width:.12699907px;stroke-linecap:round;stroke-linejoin:round;stroke-miterlimit:4;stroke-dasharray:none;stroke-opacity:1"/><path d="M120.8 72.75s-1.43-1.12-1.58-2.3c-.15-1.21.38-1.25.68-.91.27.34.17.7.17.7" style="fill:none;stroke:#140533;stroke-width:.12699907px;stroke-linecap:round;stroke-linejoin:round;stroke-miterlimit:4;stroke-dasharray:none;stroke-opacity:1"/><path d="M119.75 69.43s-.61-1-.47-1.84c.15-.83.6-1.19.6-1.19" style="fill:none;stroke:#140533;stroke-width:.12699907px;stroke-linecap:round;stroke-linejoin:round;stroke-miterlimit:4;stroke-dasharray:none;stroke-opacity:1"/><path d="M119.54 66.83s-.38-.87-1.02-.87c-.61 0-.8.15-.84.38-.05.23-.62-.04-.34-1.08.27-1.01.5-1.08.65-1.01.17.06 0-.45-.19-.47a.96.96 0 0 0-.84.49c-.2.4-.2.44-.2.44s-.2-.63.03-1.12c.2-.5.53-.66.53-.66s-.5-.15-.66-.15c-.2.03-.44.13-.44.13M115.75 61.64s.85-1.46 1.95-.85a4.35 4.35 0 0 1 1.88 2.33M126.57 75s-2.88-.98-4.75-3.62c-1.84-2.63-1.99-4.07-1.99-4.07" style="fill:none;stroke:#140533;stroke-width:.12699907px;stroke-linecap:round;stroke-linejoin:round;stroke-miterlimit:4;stroke-dasharray:none;stroke-opacity:1"/><path d="M127.26 74.55s-3.83-2.5-5.1-5.1a39.95 39.95 0 0 1-2.58-6.33c-.6-1.97-.34-4.25-2.1-7.36-1.75-3.1-5.69-4.72-5.69-4.72" style="fill:none;stroke:#140533;stroke-width:.12699907px;stroke-linecap:round;stroke-linejoin:round;stroke-miterlimit:4;stroke-dasharray:none;stroke-opacity:1"/><path d="M129.38 75.12s-2.35-.48-4.38-3.34c-2.03-2.88-3-4.97-3.1-8.2-.08-3.19 1.9-5.13 2.49-6.32.59-1.16.63-2.03.31-2.84-.31-.8-.44-.95-.44-.95" style="fill:none;stroke:#140533;stroke-width:.12699907px;stroke-linecap:round;stroke-linejoin:round;stroke-miterlimit:4;stroke-dasharray:none;stroke-opacity:1"/><path d="M122.14 57.77s-.02-1.1.55-1.3a2.33 2.33 0 0 0 1.38-1.11c.3-.6.19-1.89.19-1.89M121.25 59.46s-.46-1.06-.46-1.8c0-.72.02-.95.46-1.33.45-.38.53-.5.53-.5s-.17.69.09 1.32l.27.62M119.75 63.72s-.38-1.82-.04-3.56c.34-1.71 1.44-.72 1.44-.72M112.51 56.54c-.02-.95.06-2.18.72-3.15.89-1.4 2.54-2.25 3.45-.74" style="fill:none;stroke:#140533;stroke-width:.12699907px;stroke-linecap:round;stroke-linejoin:round;stroke-miterlimit:4;stroke-dasharray:none;stroke-opacity:1"/><path d="M126.93 54.13c-.58-.09-3.07-.28-3.43-.38-.38-.1-3.1-.85-3.86-.96-.78-.1-3.64-.82-3.64-.82s-4.02-.72-4.1-.83c-.1-.1-1.95-.42-2.82-.74-.84-.32-2.88-.59-3.34-.72-.47-.1-2.1 12.2-2.1 12.2s3.77 2.51 4.32 5.3c.53 2.82.74 6.5-1.88 8.3a10.67 10.67 0 0 1-5.78 1.97c-.93.05-1.3-.1-1.3-.1" style="fill:none;stroke:#140533;stroke-width:.12699907px;stroke-linecap:round;stroke-linejoin:round;stroke-miterlimit:4;stroke-dasharray:none;stroke-opacity:1"/><path d="M109.12 62.68s-2.26.4-3.21-2.35c-.98-2.77.57-4.53 1.29-4.95.72-.4 2.16-1.25 3.03-.58.88.66.78 2.02.78 2.02" style="fill:none;stroke:#140533;stroke-width:.12699907px;stroke-linecap:round;stroke-linejoin:round;stroke-miterlimit:4;stroke-dasharray:none;stroke-opacity:1"/><path d="M109.67 63.61s-2.77.17-3.72-1.25a6.33 6.33 0 0 1-.8-5.37c.42-1.15 2.24-3.41 3.87-3.35" style="fill:none;stroke:#140533;stroke-width:.12699907px;stroke-linecap:round;stroke-linejoin:round;stroke-miterlimit:4;stroke-dasharray:none;stroke-opacity:1"/><path d="M106.88 51.7s-.55.31-.27.88c.27.57.65.7 1.54.87l.87.2" style="fill:none;stroke:#140533;stroke-width:.12699907px;stroke-linecap:round;stroke-linejoin:round;stroke-miterlimit:4;stroke-dasharray:none;stroke-opacity:1"/><path d="M107 49.94s.14.61.26 1.29c.13.65.38.89.76 1.08.36.19 1.08.12 1.08.12s-.63.09-.53.43c.11.34.34 1.08 1.1 1.25.75.17 1.83-.34 2.14-.93.3-.62.17-1.44.09-1.78a.84.84 0 0 0-.66-.62c-.3-.06-1.2.49-1.95.26-.74-.24-2.28-1.1-2.28-1.1zm0 0z" style="fill:none;stroke:#140533;stroke-width:.12699907px;stroke-linecap:round;stroke-linejoin:round;stroke-miterlimit:4;stroke-dasharray:none;stroke-opacity:1"/><path d="M112.51 56.54s-.7-.93-.78-1.88c-.09-.98 0-1.36 0-1.36s1.18 1.08 1.46 1.06c.27-.02.65-.1 2.1.78 1.45.87 1.9 1.5 2.24 2.33.32.85.5 1.36.59 1.95.09.61-.97-1.74-2.07-2.71-1.08-1-1.82-1.08-1.82-1.08M109.63 63.02l-.5-.34s-1.2-.34-1.34-1.8c-.15-1.48.85-1.74 1.31-1.65.49.1 1.06.4 1.21.97.15.57-.02.87-.02.87" style="fill:none;stroke:#140533;stroke-width:.12699907px;stroke-linecap:round;stroke-linejoin:round;stroke-miterlimit:4;stroke-dasharray:none;stroke-opacity:1"/><path d="M109.84 59.55s-.38-1.38.13-2.01c.5-.62 1.06-.45 1.06-.45s-.06.85.38 1.27c.45.42 1.42.36 1.7-.42.27-.8.02-1.27-.05-1.36" style="fill:none;stroke:#140533;stroke-width:.12699907px;stroke-linecap:round;stroke-linejoin:round;stroke-miterlimit:4;stroke-dasharray:none;stroke-opacity:1"/><path d="M112.83 56.67s.89.76 1.08 1.03c.19.26.55.56.42 1.21-.13.66-.5.7-.8 1.38-.32.67-.2 1.01-.2 1.01" style="fill:none;stroke:#140533;stroke-width:.12699907px;stroke-linecap:round;stroke-linejoin:round;stroke-miterlimit:4;stroke-dasharray:none;stroke-opacity:1"/><path d="M113.55 60.22s.82-1.01 1.65-.23c.8.78 1.33 2.2.85 3.22-.47 1-.77.72-.77.72s-.17.78-.7.84c-.52.07-.9-.08-1.14-.46M109.72 63.36s-.1.55.31.95c.43.42 1.66.5 1.89-.09a1.58 1.58 0 0 0-.28-1.5c-.25-.25-.42-.3-.42-.3" style="fill:none;stroke:#140533;stroke-width:.12699907px;stroke-linecap:round;stroke-linejoin:round;stroke-miterlimit:4;stroke-dasharray:none;stroke-opacity:1"/><path d="M110.27 62.85s.59-.09.8.23c.21.34.23.42.23.42M115.62 70.76s-.23-1.69-.93-2.26c-.7-.57-1.95-.83-2.39-1.36-.42-.52-.5-1.82-.5-1.82s-.3.62-.33 1.44c-.02.83.47 2.2.58 2.4.1.19.78.8.6.65-1.13-.9-.94-.7-.77.43 0 0-.22-.85-.53-1.15-.32-.3-.85-.48-1.04-.84-.2-.36-.25-.58-.25-.58s.1 1.72.31 2.31c.22.62.55.8.83 1.08l.66.7-1-.72s-.21.08-.13.5c.09.41.17.64.17.64s-.27-.76-.44-.9c-.17-.16-.4-.2-.87.08-.49.27-.4.34-.4.34s.02.23.34.63c.31.4.7.61.7.61s.25-.27.6-.1" style="fill:none;stroke:#140533;stroke-width:.12699907px;stroke-linecap:round;stroke-linejoin:round;stroke-miterlimit:4;stroke-dasharray:none;stroke-opacity:1"/><path d="M110.23 72.94s-.09.36.1.6c.2.23.95.59.95.59s-1.5-.57-1.94.91c-.45 1.48-.38 1.7-.36 1.97.02.27.63-.98 1.25-1.06.63-.08 1.52.06 2.68 0 1.17-.06 2.1-1.5 2.08-1.97M129.44 74.34s-3.7-2.83-4.53-5.76c-.84-2.94-1.18-6.07.3-9.35 1.46-3.26 3.1-4.13 4.09-4.51a6.38 6.38 0 0 1 4.7-.17c1.92.76 3.47 2.22 3.47 2.22s2.43 2.06 2.68 5.06c.26 3.03.22 5-1.43 6.54-1.63 1.55-2.71 1.93-2.38 2.92.34 1.02.75 1.23.75 1.23s-.79.15-1.19-.19c-.4-.34-.53-.85-.53-1.12 0-.28-.06.7-.44.68-.36-.02-.8-.45-.74-.9.06-.42.31-.73.31-.73s-.59.2-.63-.13c-.04-.34.15-1.08.8-1.27.64-.17 1.9.23 3.37-1.31 1.46-1.55 1.8-2.16 1.92-3.39.13-1.25.24-1.8.24-1.8" style="fill:none;stroke:#140533;stroke-width:.12699907px;stroke-linecap:round;stroke-linejoin:round;stroke-miterlimit:4;stroke-dasharray:none;stroke-opacity:1"/><path d="M130.57 73.54s-1.25-.6-1.68-2.1c-.42-1.5.17-2.43.17-2.43l.3-.02s-.2-.6-.61-.68c-.43-.1-.83.08-.96.36-.2.38-.2.7-.12 1.1" style="fill:none;stroke:#140533;stroke-width:.12699907px;stroke-linecap:round;stroke-linejoin:round;stroke-miterlimit:4;stroke-dasharray:none;stroke-opacity:1"/><path d="M127.7 68.84c-.16-1.65-1.32-1.06-1-.51M126.84 67.38s-.17-1.12.1-1.65c.28-.53.51-.72.6-.72.06-.02-.13-.62-.6-.68-1.22-.13-1.67.91-1.64 1.99" style="fill:none;stroke:#140533;stroke-width:.12699907px;stroke-linecap:round;stroke-linejoin:round;stroke-miterlimit:4;stroke-dasharray:none;stroke-opacity:1"/><path d="M125.25 65.47s.34-3.8 1.32-6c.95-2.21 1.44-2.78 2.51-3.5a5.53 5.53 0 0 1 3.8-.8c1.18.2 2.24.82 2.6 1.24.36.4.5.62.5.62M134.67 68.86s-3.4-.7-4.15-2.43c-.76-1.72-.5-2-.42-2.8.09-.8.95-1.33.95-1.33s.21.1.3.7c.08.61.34.95.72.86.38-.08.19-.55.19-.55s.87 1.27 1.38 1.55c.5.27 2.1.9 2.79-.02.68-.91.34-1.86.13-2.16-.24-.28-1.65-.74-1.65-.74" style="fill:none;stroke:#140533;stroke-width:.12699907px;stroke-linecap:round;stroke-linejoin:round;stroke-miterlimit:4;stroke-dasharray:none;stroke-opacity:1"/><path d="M135.16 62.02s1.33.53 1.99-.23c.68-.78.68-1.12.55-1.59-.13-.48-.3-.59-.3-.59" style="fill:none;stroke:#140533;stroke-width:.12699907px;stroke-linecap:round;stroke-linejoin:round;stroke-miterlimit:4;stroke-dasharray:none;stroke-opacity:1"/><path d="M137.42 56.77s-1.29-.55-1.44.26c-.14.82-.12 1.99.8 2.52 1.28.72 1.8-.45 1.83-1.5" style="fill:none;stroke:#140533;stroke-width:.12699907px;stroke-linecap:round;stroke-linejoin:round;stroke-miterlimit:4;stroke-dasharray:none;stroke-opacity:1"/><path d="M139.1 56.03s-.68-.55-1.1-.15c-.43.4-.55.91-.53 1.53.02.63.48 1.18 1.01 1.46.51.3 1.02.08 1.3-.47.27-.57.23-.84.23-.84" style="fill:none;stroke:#140533;stroke-width:.12699907px;stroke-linecap:round;stroke-linejoin:round;stroke-miterlimit:4;stroke-dasharray:none;stroke-opacity:1"/><path d="M140.45 56.35s-.5-.57-.93-.4c-.42.17-.5.9-.32 1.35.2.47.79.85 1.2.6.41-.26.45-.91.45-.91" style="fill:none;stroke:#140533;stroke-width:.12699907px;stroke-linecap:round;stroke-linejoin:round;stroke-miterlimit:4;stroke-dasharray:none;stroke-opacity:1"/><path d="M140.45 56.35c-.06.28.21.61.45.66.46.08.57-.45.38-.77-.22-.36-.7-.5-.83.11zm0 0zM134.06 69.37c-2.08-.38-4.45-1.59-4.78-3.85-.32-2.04.25-2.76 1.14-3.92" style="fill:none;stroke:#140533;stroke-width:.12699907px;stroke-linecap:round;stroke-linejoin:round;stroke-miterlimit:4;stroke-dasharray:none;stroke-opacity:1"/><path d="M131.01 62s-.5.2-.6-.4c-.08-.61.22-1.31.22-1.31M130.59 60.1s-1.15-1.17-.6-2.5a2.04 2.04 0 0 1 2.23-1.25c1.01.15 1.27 1.67.65 2.35M133.72 58.76s-.42-.44-.17-1.08c.47-1.16 1.63-1.16 2.4-.5M137.2 100.08l3.76-17.93s2.69.34 3.43-1.33c.95-2.08.72-4.47-1.67-5.31l4.44-19.73M138.9 100.16l3.03-16.04" style="fill:none;stroke:#140533;stroke-width:.12699907px;stroke-linecap:round;stroke-linejoin:round;stroke-miterlimit:4;stroke-dasharray:none;stroke-opacity:1"/><path d="M140.56 84.12s.86.21 2.37.04c1.5-.17 3.55-1.03 3.68-4.42.13-3.4-.17-3.81-.82-4.78-.68-.96-2.52-1.85-2.52-1.85M144.62 73.9l3.83-17.32" style="fill:none;stroke:#140533;stroke-width:.12699907px;stroke-linecap:round;stroke-linejoin:round;stroke-miterlimit:4;stroke-dasharray:none;stroke-opacity:1"/><path d="m145.91 54.87 4.17.82c2.77.55 5.3 1.25 6.8 1.63a99.25 99.25 0 0 0 6.9 1.5S161.72 70.56 161.4 73c-.34 2.43-1.19 7.62-2.01 10.56-.85 2.92-3.6 15.07-3.94 17.74-.34 2.68-.51 3.53-.51 3.53s-13.19-2.94-15.2-3.5a33.56 33.56 0 0 0-2.81-.65" style="fill:none;stroke:#140533;stroke-width:.12699907px;stroke-linecap:round;stroke-linejoin:round;stroke-miterlimit:4;stroke-dasharray:none;stroke-opacity:1"/><path d="M137.25 99.8s3.05.45 5.15.96c2.07.48 4.85.9 6.48 1.37 1.63.47 3.42.6 4.27.72.83.1 2.05.28 2.05.28" style="fill:none;stroke:#140533;stroke-width:.12699907px;stroke-linecap:round;stroke-linejoin:round;stroke-miterlimit:4;stroke-dasharray:none;stroke-opacity:1"/><path d="M153.49 104.23s1.2-6.58 1.67-8.64a391.6 391.6 0 0 0 1.84-9.04c.26-1.37 1.55-4.8 2.31-8.25.74-3.43 1.25-8.62 1.5-10.88.26-2.26 1.5-7.96 1.5-7.96s-4.42-1.06-6.6-1.52c-2.2-.47-4.02-1.2-5.16-1.31-1.12-.11-2.4-.09-2.6-.22M147.56 94.94c-.55-.3-2.94-1.84-4.4-1.57-1.46.3-2.22 1.35-2.22 2.27 0 .93.76 2 1.42 2.05.67.04 1.05-.38.97-.78-.08-.43-.23-.79-.53-.6-.3.2-.4.57-.4.57" style="fill:none;stroke:#140533;stroke-width:.12699907px;stroke-linecap:round;stroke-linejoin:round;stroke-miterlimit:4;stroke-dasharray:none;stroke-opacity:1"/><path d="M141.26 97.26s1.01 1.95 1.92 2.14c.93.2 1.8-.9 1.72-1.63-.09-.7-.17-1.1-.5-1.33-.29-.23-.77-.45-.77-.45M145.09 94.7s-.26 1.55.1 2.27c.36.7.91.74 1.08.34.2-.38.17-.79 0-.87-.17-.09-.21-.15-.21-.15M146.76 95.8s-.1 1.06.25 1.49c.36.44.83.38 1.02.1.21-.27.25-.76.04-.87M146.53 99.45s.46.08.78.25c.32.17.4.3.4.3s-.74-.62-.5-1.08c.23-.5.73-.58 1.16-.03.44.53.57.91.57 1.19M149.02 94.43s-1.18 1.31.02 3.32a6.1 6.1 0 0 0 3.6 2.77c.57.15 1.17.17 1.17.17s-2.01-1.44-2.48-2.26c-.49-.85-.55-1.7-.55-1.7l.38-.97s-.02.98.4 1.53c.4.57.79.4 1.06.48.28.09-.23-.8-.34-1.4l-.1-.54c.15 1.3 1.58 2.77 2.37 2 .19-.16-.21-.35-.21-.35s-.34-.05-.55-.3a5 5 0 0 1-.51-2.8c.15-1.24.76-2.05.95-2.47.2-.42 1.14-1.38 1.33-3.43.17-2.05-.61-3.39-.61-3.39" style="fill:none;stroke:#140533;stroke-width:.12699907px;stroke-linecap:round;stroke-linejoin:round;stroke-miterlimit:4;stroke-dasharray:none;stroke-opacity:1"/><path d="M150.08 94.15s-2.64-.04-4.27-1.5a7.48 7.48 0 0 1-2.35-4.06c-.28-1.13.17-2.23.17-2.23s.93-2.3 2.18-2.26c1.25.04 1.67.63 1.8 1.44.12.78.04.9.04.9M143.05 92.46s.83.25.94-.06c.1-.32-.11-.96-.11-.96M142.3 91.57s.82.7.82-.49c0-.8-.38-1.48-1.04-1.92M141.62 90.91s.4.11.42-.1c.02-.21-.3-.76-.3-.76" style="fill:none;stroke:#140533;stroke-width:.12699907px;stroke-linecap:round;stroke-linejoin:round;stroke-miterlimit:4;stroke-dasharray:none;stroke-opacity:1"/><path d="M144.62 88.29s.09 2.54 2.41 3.94c2.31 1.4 4.28.7 5.42-.55 1.12-1.23 1.9-2.29 2.1-4.26.19-1.97.04-4.6-3.5-5.73" style="fill:none;stroke:#140533;stroke-width:.12699907px;stroke-linecap:round;stroke-linejoin:round;stroke-miterlimit:4;stroke-dasharray:none;stroke-opacity:1"/><path d="M146.25 88.57s.91-1.04 1.86-.64c.98.42 1.04.93.8 1.38-.2.42-1.26.55-1.52-.07-.25-.63.02-.63.02-.63" style="fill:none;stroke:#140533;stroke-width:.12699907px;stroke-linecap:round;stroke-linejoin:round;stroke-miterlimit:4;stroke-dasharray:none;stroke-opacity:1"/><path d="M147.9 89.6s-.21 1.3 1.59 1.36c.68.02.89-.28 1.12-.49.36-.34.42-.7.4-.89-.04-.32-.25-.85-.74-.87-.46-.02-.46.47-.46.47M150.44 87.66s-.1.82.6 1.2c.71.38 1.77 0 1.65-1.56-.09-1.08-1.5-2.4-2.33-1.68-.15.13-.24.51-.21.74M147.99 86.11c.25-.53 1.14-1.12 1.44.42.06.38-.03.55-.03.55M146.7 82.36s1.3 2.52 2.73 2.29c1.41-.25 1.48-1.38 1.3-2.16-.16-.8-.92-.93-.92-.93M147.48 79.84s.8.09 1.2-.38c.39-.48.62-1.4 1.34-1.52.72-.15 1.71.17 1.78 1.23.06 1.03-.93 1.5-1.46 1.67" style="fill:none;stroke:#140533;stroke-width:.12699907px;stroke-linecap:round;stroke-linejoin:round;stroke-miterlimit:4;stroke-dasharray:none;stroke-opacity:1"/><path d="M150.95 78.36s1.44-.74.42-3.07c-1-2.32-2.83-2.43-3.07-2.4-.23.01-1.27 0-1.5.94-.25.93.36 1.72.72 1.82.36.11.47-.38.47-.38" style="fill:none;stroke:#140533;stroke-width:.12699907px;stroke-linecap:round;stroke-linejoin:round;stroke-miterlimit:4;stroke-dasharray:none;stroke-opacity:1"/><path d="M147.41 74.79s-.65.31-1.16-.32c-.5-.62-.42-2.03.5-2.9 1.15-1.08 3.44.57 3.44 1.18M148.37 74.34s1.33-.13 1.46 1.14l.12 1.3M154.02 79.13s1.37-1.72-.38-4.2c-1.76-2.47-3.26-1.84-4.24-5.05-.95-3.24.2-4.3.87-5.38.66-1.06 1.59-2.2.57-4-1-1.8-2.24-.64-2.62.7-.38 1.35.6 2.56 1.04 2.35.46-.22.5-.96.42-1.21-.09-.28-.42-.61-.55-.1" style="fill:none;stroke:#140533;stroke-width:.12699907px;stroke-linecap:round;stroke-linejoin:round;stroke-miterlimit:4;stroke-dasharray:none;stroke-opacity:1"/><path d="M148.94 61.32c.9-1.03 1.44.55 1.29 1.32M147.6 64.44s.58.82 1.08.48c.51-.32.39-.76.34-.89M147.29 70s.36.43.72-.23c.38-.64.34-1.44.17-1.99a7.91 7.91 0 0 0-.26-.66M146.82 69.07s.32.38.45-.02c.14-.42.02-.97-.09-1.2a.59.59 0 0 0-.25-.32M146.34 67.97s.12.02.06.42l-.06.43M154.7 79.76s1.27-.76 1.01-2.48a7 7 0 0 0-2.05-4.08c-1.17-1.27-2.44-2.27-2.56-4.53-.13-2.27 1.06-3.98 2.05-4.57 1.02-.57 3.15-1.68 4.2.3 1.03 1.96.08 3.46-.35 3.68-.42.2-1.71.3-2.1-.22-.35-.48.03-1.2.03-1.2s.25.53.63.34c.39-.2.32-1 .15-1.34-.17-.31-.38-.38-.38-.38" style="fill:none;stroke:#140533;stroke-width:.12699907px;stroke-linecap:round;stroke-linejoin:round;stroke-miterlimit:4;stroke-dasharray:none;stroke-opacity:1"/><path d="M154.74 72.84s-1.8-1.93-2.08-3.28c-.3-1.34-.08-2.88.45-3.6.55-.7 1.37-1.76 2.43-1.38 1.06.38 1 1.25.96 1.65-.07.4-.13.47-.13.47M151.48 65.07s1.16-2.12 2.48-2.5a4.11 4.11 0 0 1 3.09.05c1.37.42 2.4.63 3.28.25.84-.38 1.33-1.72.89-2.27-.45-.55-1.44-.46-1.49-.23M152.66 61.2s.58.7 1.21.36c.64-.36.74-.62.74-.98.02-.36-.36-.42-.36-.42M152.52 60.44s.67.19.88-.22c.2-.38.15-.63.11-.72M157.8 66.09s.43 1.01 1.02 1.03c.6.02.58-.17.47-.61-.1-.42-.15-.47-.15-.47s.45.11.55.2c.57.44 1.27-.09 1.2-.62-.03-.3-.22-.78-.42-.89-.16-.1-.19-.21-.19-.21 1.06.2 1.78-1.31 1.68-2.22-.09-.7-.22-.74-.22-.74" style="fill:none;stroke:#140533;stroke-width:.12699907px;stroke-linecap:round;stroke-linejoin:round;stroke-miterlimit:4;stroke-dasharray:none;stroke-opacity:1"/><path d="M155 73.75s-.35-.61-.03-1.78c.45-1.7 1.8-2.4 3.4-1.31 1.28.85 1.2 2.12.8 2.03 0 0-.2-.8-.77-1.2-.6-.39-1.65-.3-1.9.29-.26.61-.58 1.78-.68 2.33-.1.55.08.19.44 1.1.79 2.07.79 3.58-1.48 5.16" style="fill:none;stroke:#140533;stroke-width:.12699907px;stroke-linecap:round;stroke-linejoin:round;stroke-miterlimit:4;stroke-dasharray:none;stroke-opacity:1"/><path d="M152.18 81.1s.9.59 2.41.23c1.5-.34 2.77-2.06 3.1-2.8.29-.74 0-2.56-.35-3.36-.34-.83-.42-.83-.42-.83M158.48 77.73s.43-.36.43-1.14c0-.77-.76-2.3-1.34-2.99l-.76-.9M155.65 84.35s-.72.02-.85-1.12c-.13-1.14.49-1.16.76-.74.28.45.38 1.14.38 1.14M156.47 83.49s-.17-1.97.58-1.85c.74.13.5 1 .4 1.4-.1.4-.32.49-.32.49s.1.44 0 .63c-.1.17-.5-.04-.5-.04M96.09 65.66c-1.49.57-1.97 2.88-1.15 4.24.85 1.33 3.56 2.2 5.17 1.5 1.59-.72 2-1.88 1.59-3.2a4.07 4.07 0 0 0-5.61-2.54zm.61.83c-1.04.4-1.4 2.03-.8 2.98.59.96 2.51 1.57 3.64 1.06 1.12-.5 1.41-1.33 1.12-2.24a2.89 2.89 0 0 0-3.96-1.8zm0 0z" style="fill:none;stroke:#140533;stroke-width:.12699907px;stroke-linecap:round;stroke-linejoin:round;stroke-miterlimit:4;stroke-dasharray:none;stroke-opacity:1"/><path d="M97.76 67.9c-.3.11-.4.6-.23.87.16.28.74.45 1.05.3.34-.13.43-.38.34-.66a.84.84 0 0 0-1.16-.5zm0 0zM139.33 77.2c-.91.72-.72 1.73-.53 2.3.21.56 1.3 1.32 2.24 1.2.98-.14 1.23-1 1.19-1.93-.09-1.55-1.7-2.5-2.9-1.57zm.44.63c-.53.43-.42 1.04-.3 1.38.13.34.75.78 1.32.7.57-.07.72-.6.7-1.14-.04-.91-1-1.49-1.72-.94zm0 0z" style="fill:none;stroke:#140533;stroke-width:.12699907px;stroke-linecap:round;stroke-linejoin:round;stroke-miterlimit:4;stroke-dasharray:none;stroke-opacity:1"/><path d="M140.15 78.38c-.2.17-.16.43-.12.58.06.12.32.31.55.3.25-.05.32-.26.3-.5-.03-.38-.43-.6-.73-.38zm0 0z" style="fill:none;stroke:#140533;stroke-width:.12699907px;stroke-linecap:round;stroke-linejoin:round;stroke-miterlimit:4;stroke-dasharray:none;stroke-opacity:1"/><path d="m139.69 77-.89.88M140.47 76.86l-1.84 1.8M141 76.99l-.68.65m-.95.93-.65.66M141.4 77.22l-.55.55m-.61.6-.21.2m-.6.58-.55.53M141.74 77.54l-.53.5m-.44.45-.64.61m-.44.43-.5.5M141.98 77.9l-.56.53m-.55.55-.31.3m-.51.5-.53.5M142.17 78.36l-.68.64m-.95.93-.62.6M142.23 78.91l-1.82 1.78M142.17 79.61l-1.15 1.1M99.39 65.64l-.74.72m-2.9 2.84-.76.76M99.81 65.85l-.7.68m-3.13 3.07-.72.7M100.2 66.1l-.66.66m-1.17 1.13-.87.86m-1.2 1.19-.7.68M100.53 66.38l-.66.64m-1.14 1.12-.9.89m-1.2 1.14-.67.68M100.85 66.72l-.68.66m-1.23 1.18-.59.6m-1.29 1.24-.7.68M101.12 67.06l-.7.7m-2.9 2.81-.71.7M101.36 67.46l-.74.74m-2.57 2.5-.76.74M101.59 67.93l-.83.8m-2.05 2.01-.87.85M101.74 68.41l-1.04 1.02m-1.14 1.12-1.15 1.1M101.84 68.94l-2.77 2.71M101.78 69.64l-1.9 1.87M96.1 65.66l-1.22 1.21M97.04 65.4l-2.46 2.4M97.76 65.35l-1.46 1.41m-.13.13-1.63 1.59M98.37 65.37l-.95.95m-1.78 1.71-1.04 1.02M98.9 65.47l-.8.8m-2.46 2.4-.89.87M138.72 78.07l.38 1.88M139.05 77.47l.58 2.9M139.46 77.14l.17.86m.36 1.74.16.87M139.88 76.92l.15.79m.15.7.17.82m.12.7.15.78M140.32 76.86l.17.78m.15.74.15.79m.15.74.15.8M140.79 76.92l.19.91m.36 1.78.2.95M141.32 77.16l.6 3.07M141.85 77.66l.34 1.78M94.58 67.82l.45 2.2M94.88 66.9l.72 3.72M95.2 66.36l.42 2.16m.13.66.36 1.75M95.58 65.98l.27 1.38m.53 2.64.24 1.2M95.98 65.73l.23 1.12m.68 3.47.21 1.08M96.42 65.56l.2 1m.78 3.97.21 1M96.89 65.43l.2.95m.37 1.95.1.5m.37 1.85.19.95M97.33 65.37l.2.93m.31 1.59.24 1.24m.31 1.6.2.94M97.78 65.35l.19.93m.32 1.58.25 1.27m.32 1.6.17.92M98.27 65.37l.17.95m.4 1.95.08.48m.38 1.89.2.97M98.73 65.43l.2 1.02m.8 4.02.2 1.01M99.22 65.58l.23 1.12m.7 3.5.21 1.1M99.73 65.81l.27 1.36m.51 2.62.25 1.25M100.26 66.15l.9 4.57M100.79 66.64l.71 3.66M101.44 67.63l.38 1.86M100.66 66.51l-2.8-1.16M101.5 67.76l-1.56-.68m-2-.8-1.6-.7M101.82 68.77l-1.16-.48m-4.1-1.72-1.13-.46M101.78 69.64l-1.04-.42m-1.82-.76-1.23-.51m-1.75-.74-1.02-.42M101.44 70.4l-1.06-.44m-1.94-.8-.94-.39M95.66 68l-1.01-.42M100.85 71l-1.19-.51m-4.02-1.67-1.1-.47M99.9 71.5l-1.97-.82m-1.48-.61-1.76-.74M98.1 71.61l-2.56-1.06M141.36 77.18l-.72-.3M142.17 78.43l-1-.43m-.85-.36-1-.4M142.2 79.42l-.71-.3m-.62-.25-.82-.34m-.6-.25-.7-.3M141.91 80.2l-.85-.33m-1.6-.68-.8-.34M141.02 80.71l-1.97-.82M98.86 66.45l-3.11 1.18M99.79 67l-4.17 1.58M100.38 67.7l-4.53 1.73M100.7 68.48l-4.23 1.6M100.74 69.33l-3.28 1.27M140.96 77.86l-1.55.59M141.45 78.55l-1.95.74M141.4 79.5l-1.1.43" style="fill:none;stroke:#140533;stroke-width:.04233302px;stroke-linecap:round;stroke-linejoin:round;stroke-miterlimit:4;stroke-dasharray:none;stroke-opacity:1"/><path d="m41.29 95.25 2 3.01-3.02 4.95" style="fill:none;stroke:#140533;stroke-width:.12699907px;stroke-linecap:round;stroke-linejoin:round;stroke-miterlimit:4;stroke-dasharray:none;stroke-opacity:1"/><path d="m39.1 99.57 4.2-1.31 5.84 1.48" style="fill:none;stroke:#140533;stroke-width:.12699907px;stroke-linecap:round;stroke-linejoin:round;stroke-miterlimit:4;stroke-dasharray:none;stroke-opacity:1"/><path d="m39.1 96.63 4.2 1.63 1.41 5.78" style="fill:none;stroke:#140533;stroke-width:.12699907px;stroke-linecap:round;stroke-linejoin:round;stroke-miterlimit:4;stroke-dasharray:none;stroke-opacity:1"/><path d="m47.8 102.5-4.5-4.24 3.21-1.84" style="fill:none;stroke:#140533;stroke-width:.12699907px;stroke-linecap:round;stroke-linejoin:round;stroke-miterlimit:4;stroke-dasharray:none;stroke-opacity:1"/><path d="m129.87 126.47-4 3.9M129.47 128l-2.9 2.83M129.06 129.54l-1.58 1.57M128.7 130.98l-.53.51M92.09 94.09l-12.2 11.9m-16.25 15.9-10.7 10.45M93 94.34l-12.22 11.92M65.9 120.8l-11.79 11.54M93.93 94.6l-12.24 11.94m-13.8 13.5-12.6 12.3M94.77 94.83 82.54 106.8m-13.06 12.74-13.08 12.8M95.68 95.1l-12.23 11.96M71.02 119.2l-13.44 13.15M96.6 95.36l-12.26 11.96M72.4 118.98l-13.65 13.36M97.53 95.61 85.27 107.6m-11.54 11.26-13.8 13.49M98.5 95.89l-12.26 11.98m-11.2 10.92L61.2 132.34M99.4 96.14l-12.25 11.98M78.07 117l-1.01 1.02m-.83.78L62.4 132.34M100.34 96.42 88.06 108.4m-8.67 8.47-15.84 15.47M101.25 96.67 89 108.65m-8.68 8.49-15.56 15.2M102.16 96.93 89.88 108.9m-9.48 9.27-14.48 14.16M103.07 97.18l-12.25 11.98m-9.93 9.72L67.1 132.34M103.94 97.43l-12.28 11.98m-9.71 9.49L68.2 132.34M104.85 97.69l-12.26 11.98m-9.48 9.27-13.71 13.4M105.76 97.94 93.5 109.92m-9.27 9.04-13.67 13.38M106.7 98.2l-12.26 11.98M85.4 119l-13.66 13.34M107.64 98.47l-12.23 11.98m-8.8 8.6-13.62 13.29M108.57 98.75 96.34 110.7m-8.57 8.36-13.6 13.27M109.48 99l-12.23 11.94m-8.36 8.17-13.55 13.23M110.4 99.25 98.17 111.2m-8.13 7.94-13.5 13.2M111.3 99.5l-12.2 11.95m-7.9 7.72L77.7 132.34M112.24 99.76l-12.22 11.94m-7.66 7.5-13.44 13.14M113.15 100.04l-12.22 11.91m-7.45 7.29-13.42 13.1M114.06 100.3l-12.2 11.89m-7.21 7.07-13.38 13.08M114.9 100.52l-12.17 11.9m-7.02 6.88-13.34 13.04M115.83 100.8l-12.17 11.87m-6.8 6.65-13.3 13.02M116.74 101.05l-12.17 11.86M98 119.36l-13.27 12.98M117.65 101.3l-12.12 11.86m-6.37 6.22L85.9 132.34M118.65 101.58l-12.1 11.86m-6.15 5.99-13.2 12.9M119.58 101.86l-12.1 11.8m-5.98 5.85-13.12 12.83M120.5 102.11l-13.17 12.85m-4.72 4.61-13.06 12.77M121.4 102.37l-15.6 15.26m-1.97 1.9-13.1 12.8M122.31 102.62l-30.4 29.72M123.24 102.87 93.1 132.34M124.15 103.13l-29.88 29.2M125.06 103.4l-29.6 28.94M125.91 103.64l-29.36 28.7M126.84 103.89l-29.1 28.45M127.75 104.17 98.9 132.34M128.66 104.42l-28.55 27.92M129.7 104.72l-28.28 27.62M130.6 104.97l-28 27.37M131.52 105.22l-27.75 27.12M131.58 106.32l-26.63 26.02M131.01 108.02l-24.87 24.32M131.33 108.89l-24 23.45M132.2 109.16l-23.71 23.18M133.1 109.46l-23.43 22.88M133.93 109.71l-23.15 22.63M133.89 110.92l-21.93 21.42M133.5 112.44l-20.37 19.9M133.1 113.99l-18.77 18.35M132.66 115.66l-17.06 16.68M132.26 117.22l-12 11.73m-2.35 2.3-1.1 1.09M131.86 118.75l-8.4 8.21M131.46 120.3l-7.54 7.38M131.07 121.84l-6.73 6.58M130.67 123.4l-5.86 5.72M130.27 124.9l-4.97 4.88M87.03 29.74l-9.13 8.91M60.55 55.61l-2.33 2.26m-2.71 2.65L39.57 76.08M87.98 29.93l-9.1 8.9m-18.73 18.3-.98.96m-2.75 2.68L39.15 77.64M89 30.12 79.9 39M57.36 61.01l-18.6 18.18M89.9 30.27l-9.07 8.9M58.24 61.23l-19.47 19M90.92 30.46l-9.08 8.87M59.17 61.47l-20.4 19.94M91.92 30.61l-9.08 8.9M58.77 63l-20 19.54M92.95 30.78l-9.12 8.91M58.35 64.6 38.77 83.71M94.03 30.95l-9.12 8.91m-27.03 26.4L38.77 84.95M95.1 31.08l-9.2 8.97m-28.44 27.8L38.76 86.1M96.13 31.2l-9.2 9.02M57.05 69.4l-18.3 17.86M97.19 31.33l-9.27 9.06M56.63 70.98 38.77 88.42M98.25 31.46l-9.34 9.1m-32.7 31.96L38.77 89.56M99.3 31.59l-9.37 9.16M55.79 74.09 38.77 90.72M100.28 31.7l-9.42 9.2M55.38 75.55 38.77 91.78M101.36 31.82l-9.5 9.27m-36.9 36.05-16.2 15.8M102.4 31.92l-9.55 9.34m-38.3 37.4L38.78 94.09M103.43 32.07l-9.57 9.36M54.13 80.25 39.23 94.8M104.51 32.24l-9.59 9.38M53.7 81.9 40.21 95.06M105.44 32.5l-9.52 9.29m-42.36 41.4L41.2 95.25M106.42 32.69l-9.5 9.29M54.44 83.44 42.2 95.42M107.41 32.86l-9.48 9.29M55.38 83.7 43.2 95.6M108.4 33.05l-9.48 9.27M56.3 83.97 44.2 95.78M109.42 33.22l-9.48 9.27M57.22 84.23 45.18 95.99M110.4 33.4l-9.49 9.28m-42.8 41.8-12 11.73M111.41 33.57l-9.48 9.28M59.04 84.73 47.1 96.43M112.32 33.74l-9.46 9.28M59.89 84.99 47.93 96.67M113.34 33.93l-9.46 9.25M60.82 85.24 48.86 96.93M114.31 34.13l-9.46 9.22M61.7 85.5 49.77 97.18M115.28 34.32l-9.41 9.22M62.64 85.75 50.68 97.43M116.34 34.55l-9.4 9.18m-43.3 42.32L51.68 97.7M117.32 34.76l-9.36 9.14m-43.4 42.4L52.62 97.98M118.25 35l-9.3 9.07m-43.5 42.48L53.53 98.24M119.18 35.23l-9.23 9.01M66.39 86.81 54.43 98.49M120.07 35.52l-9.13 8.91M67.3 87.08 55.34 98.75m-16.28 15.91-.3.28M120.94 35.84l-8.98 8.76M68.23 87.34 56.27 99.02m-12.15 11.85-5.35 5.23M121.78 36.16l-8.82 8.61M69.12 87.6 57.16 99.28M44.7 111.47l-5.92 5.78M122.63 36.5l-8.66 8.44m-43.92 42.9L58.1 99.54m-12.8 12.5-6.52 6.38M123.41 36.8l-8.53 8.31M70.9 88.1 58.94 99.78m-13.1 12.8-7.07 6.89M124.24 37.13l-8.34 8.15M71.83 88.35l-11.98 11.69m-13.42 13.12-7.66 7.47M125.06 37.47l-8.17 8M72.72 88.61l-11.96 11.7M47 113.73l-8.23 8.05M125.89 37.83l-7.98 7.81M73.65 88.86l-11.98 11.7m-14.08 13.77-8.82 8.61M126.82 38.21l-7.81 7.62M74.67 89.16l-11.98 11.7m-14.44 14.12-9.1 8.9M127.65 38.57l-7.62 7.45M75.6 89.42l-11.98 11.72m-14.78 14.41-8.97 8.77M128.45 38.9l-7.43 7.29M76.51 89.67l-12 11.72m-15.1 14.73-8.82 8.64M129.28 39.27l-7.26 7.09m-44.6 43.58-12 11.7M50 116.73l-8.68 8.48M130.1 39.63l-7.09 6.9M78.33 90.2l-12 11.72M50.6 117.3l-8.55 8.36M130.93 39.97l-6.9 6.75M79.26 90.45 67.24 102.2m-16.05 15.68-8.4 8.21M131.73 40.33l-6.7 6.56M80.16 90.7l-12.02 11.75m-16.39 16-8.25 8.07M132.56 40.69l-6.52 6.37M81.08 90.98l-12.02 11.75m-13.44 13.12-11.65 11.39M133.3 41.03l-6.35 6.2M81.93 91.2 69.9 102.96M56.14 116.4 42.5 129.76M133.34 42.15l-5.38 5.25m-45.1 44.07L70.8 103.23m-14.1 13.78-15.68 15.33M132.68 43.93l-3.72 3.64m-45.2 44.15L71.7 103.5M57.3 117.58l-15.1 14.76M132.03 45.75l-2.08 2M84.68 92 72.6 103.76M57.86 118.2l-14.48 14.14M131.29 47.71l-.24.24M85.67 92.27l-12.06 11.79m-15.12 14.77-13.82 13.5M86.6 92.52l-12.08 11.81m-15.45 15.1-13.21 12.9M87.51 92.78l-12.1 11.83m-15.77 15.4-12.62 12.33M88.42 93.05l-12.1 11.83M60.2 120.61l-11.98 11.73M89.33 93.3l-12.12 11.86M60.78 121.2l-11.39 11.14M90.27 93.56l-12.15 11.88m-16.77 16.38-10.77 10.52M91.18 93.81 79 105.71m-17.08 16.68-10.18 9.95M39.02 29.21l-.25.26M40.23 29.21l-1.46 1.42M41.4 29.21l-1.85 1.8M42.6 29.21l-2.05 2M43.76 29.21l-2.22 2.18M44.95 29.21l-2.42 2.35M46.05 29.21l-2.6 2.54M47.23 29.21l-2.79 2.74M48.4 29.21l-2.99 2.9M49.58 29.21l-3.17 3.1M50.87 29.21l-3.38 3.3M52.06 29.21l-3.58 3.5M53.22 29.21l-3.78 3.7M54.4 29.21l-3.97 3.9M55.6 29.21l-4.2 4.09m-.65.63-.87.87M56.78 29.21l-4.4 4.3m-.68.68-2.18 2.12M57.94 29.21l-4.61 4.51m-.72.7-3.43 3.37M59.13 29.21l-4.83 4.72m-.74.75-4.74 4.61M60.23 29.21l-5.06 4.94m-.74.74-5.93 5.78M61.42 29.21l-5.3 5.17m-.76.76-7.22 7.05M62.58 29.21l-5.5 5.4m-.8.76-8.47 8.28M63.79 29.21l-5.76 5.61m-.8.8-9.78 9.53M65.1 29.21l-6.01 5.87m-.83.8-11.2 10.95M66.28 29.21l-6.22 6.08m-.87.85L46.73 48.33M67.45 29.21 61 35.51m-.89.86L46.37 49.8M68.63 29.21 62 35.73m-.93.9L46.03 51.3M69.82 29.21l-6.88 6.74m-.95.9L45.67 52.8M71 29.21l-7.09 6.95m-.97.95-17.61 17.2M72.17 29.21l-7.3 7.14m-1.02 1L45.6 55.15M73.35 29.21l-7.51 7.35M64.8 37.6 46.58 55.38M74.45 29.21l-7.7 7.54m-1.65 1.6L47.49 55.58m-2.35 2.28-.7.7M75.64 29.21l-7.9 7.73m-3.04 2.98L48.46 55.78M46.1 58.1 44 60.14M76.8 29.21l-8.06 7.9m-4.47 4.34L49.41 55.99m-2.4 2.35-3.46 3.37M78.01 29.21l-8.28 8.07m-5.86 5.76L50.4 56.18m-2.44 2.4-4.82 4.71M79.28 29.21l-8.45 8.26m-7.4 7.24L51.45 56.4m-2.48 2.44L42.64 65M80.49 29.21l-8.64 8.43M63 46.27 52.42 56.63m-2.52 2.45-7.7 7.54M81.65 29.21l-8.8 8.6M62.6 47.82l-9.23 9.02m-2.54 2.47-9.06 8.85M82.84 29.21l-8.98 8.77M62.2 49.38l-7.85 7.67m-2.59 2.52-10.43 10.2M84 29.21l-9.14 8.94M61.78 50.93l-6.46 6.3m-2.63 2.57L40.9 71.34M85.08 29.32l-9.19 9M61.37 52.5l-5.08 4.95m-2.64 2.6L40.46 72.92M86.03 29.53 76.9 38.5M60.95 54.04l-3.7 3.62m-2.7 2.63-14.53 14.2" style="fill:none;stroke:#140533;stroke-width:.04233302px;stroke-linecap:round;stroke-linejoin:round;stroke-miterlimit:4;stroke-dasharray:none;stroke-opacity:1"/></svg>